<svg width="22" height="17" viewBox="0 0 22 17" fill="none" xmlns="http://www.w3.org/2000/svg">
<g clip-path="url(#clip0_58_5826)">
<rect width="21.4187" height="16.064" fill="white"/>
<path fill-rule="evenodd" clip-rule="evenodd" d="M5.64539 -0.0320435H16.3547V16.032H5.64539V-0.0320435Z" fill="#FFD018"/>
<path fill-rule="evenodd" clip-rule="evenodd" d="M0.290649 -0.0320435H5.64533V16.032H0.290649V-0.0320435Z" fill="#2E42A5"/>
<path fill-rule="evenodd" clip-rule="evenodd" d="M16.3547 -0.0320435H21.7094V16.032H16.3547V-0.0320435Z" fill="#E31D1C"/>
<path fill-rule="evenodd" clip-rule="evenodd" d="M11.2002 12.9688C11.3482 12.9273 11.4754 12.67 11.4754 12.67C11.4754 12.67 11.572 12.7455 11.7251 12.8223C11.8783 12.8992 12.0376 12.67 12.0376 12.67C12.0376 12.67 12.2551 12.67 12.3505 12.4134C12.4459 12.1567 12.1601 12.0467 12.1601 12.0467C12.1601 12.0467 12.4942 11.6958 13.0582 11.6958C13.6222 11.6958 14.0611 11.6958 14.4292 11.5396C14.7972 11.3834 15.1548 11.1148 15.2886 10.557C15.4224 9.99921 14.9989 9.64791 14.9989 9.64791C14.9989 9.64791 15.0927 9.67759 15.2886 9.51734C15.4845 9.35709 15.1687 8.84146 14.9989 8.84146C14.8292 8.84146 14.8089 8.93687 14.8089 8.93687C14.8089 8.93687 14.704 8.84585 14.5603 8.53634C14.4166 8.22682 14.704 7.95512 14.704 7.95512C14.704 7.95512 14.8615 8.04537 14.9989 7.89647C15.1363 7.74758 14.9276 7.51943 14.9276 7.51943C14.9276 7.51943 15.5889 7.29434 15.4933 6.44827C15.3977 5.60221 14.5256 5.65033 14.5256 5.65033C14.5256 5.65033 14.552 5.50965 14.4292 5.42949C14.3063 5.34932 14.2153 5.50965 14.2153 5.50965C14.1188 5.2865 14.4016 4.98122 14.6278 4.73691C14.6979 4.66121 14.7626 4.59136 14.8089 4.53162C15.0047 4.2791 14.8818 3.96713 14.1666 3.62662C13.4515 3.28611 13.0611 3.74375 13.0037 3.90591C12.9464 4.06808 13.1683 4.16842 13.1683 4.16842C12.9873 4.32725 12.6373 4.38789 12.3987 4.27816C12.1601 4.16842 12.2659 3.83471 12.3152 3.74375C12.3206 3.7338 12.3278 3.72173 12.3361 3.7078C12.4035 3.59445 12.5445 3.35744 12.3987 3.12696C12.235 2.86816 11.9516 2.86816 11.7251 3.01513C11.5314 3.14091 11.2559 3.2076 11.1805 3.22422C11.1051 3.2076 10.8297 3.14091 10.6359 3.01513C10.4095 2.86816 10.126 2.86816 9.9623 3.12696C9.81649 3.35744 9.95751 3.59445 10.025 3.7078C10.0332 3.72173 10.0404 3.7338 10.0458 3.74375C10.0951 3.83471 10.2009 4.16842 9.9623 4.27816C9.72371 4.38789 9.37369 4.32725 9.19272 4.16842C9.19272 4.16842 9.4146 4.06808 9.35728 3.90591C9.29996 3.74375 8.90953 3.28611 8.19439 3.62662C7.47925 3.96713 7.35636 4.2791 7.5521 4.53162C7.5984 4.59136 7.66309 4.66121 7.7332 4.73691C7.95945 4.98122 8.24217 5.2865 8.14575 5.50965C8.14575 5.50965 8.05471 5.34932 7.93184 5.42949C7.80897 5.50965 7.83542 5.65033 7.83542 5.65033C7.83542 5.65033 6.96334 5.60221 6.86773 6.44827C6.77212 7.29434 7.43345 7.51943 7.43345 7.51943C7.43345 7.51943 7.2247 7.74758 7.36209 7.89647C7.49948 8.04537 7.65698 7.95512 7.65698 7.95512C7.65698 7.95512 7.94441 8.22682 7.8007 8.53634C7.65698 8.84585 7.5521 8.93687 7.5521 8.93687C7.5521 8.93687 7.53184 8.84146 7.36209 8.84146C7.19234 8.84146 6.87652 9.35709 7.07242 9.51734C7.26832 9.67759 7.36209 9.64791 7.36209 9.64791C7.36209 9.64791 6.93862 9.99921 7.07242 10.557C7.20621 11.1148 7.5638 11.3834 7.93184 11.5396C8.29987 11.6958 8.73883 11.6958 9.30285 11.6958C9.86687 11.6958 10.2009 12.0467 10.2009 12.0467C10.2009 12.0467 9.91513 12.1567 10.0105 12.4134C10.1059 12.67 10.3234 12.67 10.3234 12.67C10.3234 12.67 10.4827 12.8992 10.6359 12.8223C10.789 12.7455 10.8856 12.67 10.8856 12.67C10.8856 12.67 11.0129 12.9273 11.1608 12.9688V12.9745C11.1674 12.9745 11.174 12.974 11.1805 12.9731C11.1871 12.974 11.1936 12.9745 11.2002 12.9745V12.9688Z" fill="#BF9937"/>
<path d="M8.39648 10.6758L8.46683 10.5057C9.27518 10.8522 10.1951 11.0257 11.2271 11.0257C12.2586 11.0257 13.1537 10.8524 13.9131 10.5066L13.9871 10.675C13.2031 11.0321 12.2829 11.2103 11.2271 11.2103C10.1718 11.2103 9.22809 11.0323 8.39648 10.6758Z" fill="#805440"/>
</g>
<defs>
<clipPath id="clip0_58_5826">
<rect width="21.4187" height="16.064" fill="white"/>
</clipPath>
</defs>
</svg>
