<svg width="23" height="17" viewBox="0 0 23 17" fill="none" xmlns="http://www.w3.org/2000/svg">
<g clip-path="url(#clip0_58_5777)">
<rect width="21.4187" height="16.064" transform="translate(0.674805)" fill="white"/>
<path fill-rule="evenodd" clip-rule="evenodd" d="M15.6908 -0.0320435H22.3841V16.032H15.6908V-0.0320435Z" fill="#67BD38"/>
<path fill-rule="evenodd" clip-rule="evenodd" d="M7.65881 -0.0320435H15.6908V16.032H7.65881V-0.0320435Z" fill="#D51700"/>
<path fill-rule="evenodd" clip-rule="evenodd" d="M0.965454 -0.0320435H7.6588V16.032H0.965454V-0.0320435Z" fill="#272727"/>
<path fill-rule="evenodd" clip-rule="evenodd" d="M9.32399 5.30713L9.55558 5.45248C9.16963 6.10207 8.91038 6.69731 8.77632 7.23838C8.83304 7.29071 8.86859 7.33655 8.90489 7.39944C9.0096 7.5808 9.09767 7.75686 9.16904 7.92769L8.86125 8.05873C8.81293 7.94309 8.75601 7.82418 8.69044 7.70204C8.65908 7.96599 8.66124 8.21539 8.6967 8.45027C8.75298 8.45605 8.80024 8.46789 8.85491 8.48778C9.0517 8.55941 9.23234 8.63767 9.39682 8.72265L9.24526 9.02089C9.10505 8.94844 8.95104 8.8808 8.78324 8.81806L8.78656 8.82817C8.92963 9.26052 9.14857 9.65829 9.44399 10.0217C9.49016 10.0117 9.53318 10.008 9.58345 10.008C9.79288 10.008 9.98938 10.0197 10.173 10.0433L10.1326 10.3754C10.0076 10.3593 9.87541 10.3492 9.73601 10.3449C10.0015 10.6106 10.3132 10.8556 10.6713 11.08L10.53 11.3181C10.0859 11.0398 9.70796 10.7295 9.39662 10.3874C9.35604 10.4032 9.30662 10.4242 9.24373 10.4517L9.22007 10.462C9.49185 10.7469 9.81315 11.009 10.1843 11.2483L10.0401 11.4845C9.6112 11.208 9.24406 10.9009 8.93909 10.5632C8.79352 10.6006 8.67078 10.5998 8.52717 10.5577L8.61655 10.2359C8.63814 10.2422 8.65926 10.2469 8.68047 10.2499C8.3973 9.87307 8.18393 9.46214 8.04084 9.0173C8.01557 8.93873 7.99392 8.85874 7.97589 8.77732C7.86498 8.75617 7.77142 8.71455 7.67432 8.64309L7.86837 8.37125C7.88513 8.38358 7.90199 8.39446 7.91938 8.40399C7.88462 7.99403 7.93253 7.55149 8.06242 7.07642C7.98108 6.98278 7.93133 6.88574 7.90068 6.75954L8.18497 6.68613C8.3382 6.25218 8.55492 5.793 8.83466 5.30864L9.068 5.45099C8.76297 5.97916 8.53696 6.47257 8.3893 6.9313C8.43069 6.96885 8.48132 7.00909 8.54332 7.05508C8.69161 6.51554 8.95222 5.93285 9.32399 5.30713ZM8.46083 7.40994C8.43076 7.38654 8.39465 7.35949 8.35072 7.32711C8.32964 7.31157 8.30944 7.29643 8.29011 7.2816C8.18675 7.7072 8.15627 8.10047 8.19805 8.46147C8.24788 8.46186 8.30433 8.45972 8.36949 8.45561L8.42258 8.45238C8.37833 8.12669 8.39122 7.77919 8.46083 7.40994ZM8.3839 8.78859C8.42364 8.78609 8.45838 8.78408 8.48905 8.78264C8.50135 8.82822 8.51489 8.87333 8.52966 8.91797C8.67323 9.35184 8.88741 9.75248 9.17167 10.1197L9.1163 10.1437C9.06881 10.1645 9.02604 10.1822 8.98694 10.197C8.67588 9.81261 8.44661 9.39029 8.29848 8.92976C8.28416 8.88524 8.27113 8.84013 8.2594 8.79444C8.29848 8.79338 8.33986 8.79137 8.3839 8.78859Z" fill="#F7FCFF"/>
<path fill-rule="evenodd" clip-rule="evenodd" d="M14.0168 5.30713L13.7852 5.45248C14.1712 6.10207 14.4304 6.69731 14.5645 7.23838C14.5078 7.29071 14.4722 7.33655 14.4359 7.39944C14.3312 7.5808 14.2431 7.75686 14.1718 7.92769L14.4796 8.05873C14.5279 7.94309 14.5848 7.82418 14.6504 7.70204C14.6817 7.96599 14.6796 8.21539 14.6441 8.45027C14.5878 8.45605 14.5406 8.46789 14.4859 8.48778C14.2891 8.55941 14.1085 8.63767 13.944 8.72265L14.0956 9.02089C14.2358 8.94844 14.3898 8.8808 14.5576 8.81806L14.5543 8.82817C14.4112 9.26052 14.1923 9.65829 13.8968 10.0217C13.8507 10.0117 13.8076 10.008 13.7574 10.008C13.5479 10.008 13.3514 10.0197 13.1678 10.0433L13.2082 10.3754C13.3332 10.3593 13.4654 10.3492 13.6048 10.3449C13.3393 10.6106 13.0277 10.8556 12.6696 11.08L12.8108 11.3181C13.2549 11.0398 13.6329 10.7295 13.9442 10.3874C13.9848 10.4032 14.0342 10.4242 14.0971 10.4517L14.1207 10.462C13.849 10.7469 13.5277 11.009 13.1565 11.2483L13.3007 11.4845C13.7296 11.208 14.0968 10.9009 14.4017 10.5632C14.5473 10.6006 14.67 10.5998 14.8136 10.5577L14.7243 10.2359C14.7027 10.2422 14.6816 10.2469 14.6604 10.2499C14.9435 9.87307 15.1569 9.46214 15.3 9.0173C15.3253 8.93873 15.3469 8.85874 15.3649 8.77732C15.4758 8.75617 15.5694 8.71455 15.6665 8.64309L15.4724 8.37125C15.4557 8.38358 15.4388 8.39446 15.4214 8.40399C15.4562 7.99403 15.4083 7.55149 15.2784 7.07642C15.3597 6.98278 15.4095 6.88574 15.4401 6.75954L15.1559 6.68613C15.0026 6.25218 14.7859 5.793 14.5062 5.30864L14.2728 5.45099C14.5779 5.97916 14.8039 6.47257 14.9515 6.9313C14.9101 6.96885 14.8595 7.00909 14.7975 7.05508C14.6492 6.51554 14.3886 5.93285 14.0168 5.30713ZM14.88 7.40994C14.9101 7.38654 14.9462 7.35949 14.9901 7.32711C15.0112 7.31157 15.0314 7.29643 15.0507 7.2816C15.1541 7.7072 15.1845 8.10047 15.1428 8.46147C15.0929 8.46186 15.0365 8.45972 14.9713 8.45561L14.9182 8.45238C14.9625 8.12669 14.9496 7.77919 14.88 7.40994ZM14.9569 8.78859C14.9172 8.78609 14.8824 8.78408 14.8518 8.78264C14.8395 8.82822 14.8259 8.87333 14.8112 8.91797C14.6676 9.35184 14.4534 9.75248 14.1692 10.1197L14.2245 10.1437C14.272 10.1645 14.3148 10.1822 14.3539 10.197C14.6649 9.81261 14.8942 9.39029 15.0423 8.92976C15.0567 8.88524 15.0697 8.84013 15.0814 8.79444C15.0423 8.79338 15.001 8.79137 14.9569 8.78859Z" fill="#F7FCFF"/>
<path fill-rule="evenodd" clip-rule="evenodd" d="M10.5056 10.8541L9.75842 11.5934C9.75842 11.5934 10.4028 11.988 11.6171 11.988C12.8315 11.988 13.5386 11.5934 13.5386 11.5934L12.9706 10.8541C12.9706 10.8541 12.1967 11.154 11.6485 11.154C11.1004 11.154 10.5056 10.8541 10.5056 10.8541Z" fill="#F7FCFF"/>
<path d="M10.5212 11.3259C10.5212 11.3259 11.1538 11.4751 11.6388 11.4751C12.1237 11.4751 12.7563 11.3259 12.7563 11.3259" stroke="#C00001" stroke-width="0.334668"/>
<path fill-rule="evenodd" clip-rule="evenodd" d="M12.2717 6.29875C12.2717 6.59012 12.0068 6.82656 11.6791 6.82863H12.2767L12.4865 6.9643H12.5917V5.90363H12.9174V6.9643H13.0316V7.1452H12.9174V9.06855C12.9174 9.18149 13.0381 9.37555 13.2906 9.62789L13.5782 9.9152H9.57727L10.242 9.59624C10.3671 9.53622 10.4564 9.36347 10.495 9.05793V7.1452H10.2095V6.9643H10.495V5.90363H10.8206V6.9643H10.8551L11.0321 6.82863H11.6704C11.3427 6.82656 11.0778 6.59012 11.0778 6.29875C11.0778 6.0061 11.3451 5.76886 11.6748 5.76886C12.0045 5.76886 12.2717 6.0061 12.2717 6.29875ZM10.8206 7.1452H12.5917V9.06855C12.5917 9.22366 12.6651 9.39199 12.8083 9.58053H10.6863C10.7518 9.4486 10.7957 9.28413 10.8206 9.07896V7.1452ZM11.7291 7.99996H11.0235V9.39441H12.4346L11.7291 7.99996Z" fill="#F7FCFF"/>
<path fill-rule="evenodd" clip-rule="evenodd" d="M12.4578 4.0885L12.459 4.09053L12.4587 4.08976L12.4578 4.0885ZM13.4894 4.45105L13.49 4.45727L13.4896 4.45275L13.4894 4.45105ZM13.6897 4.47576L13.6907 4.47271L13.6903 4.47421L13.6897 4.47576ZM12.8786 4.8865L12.8825 4.88646L12.8806 4.8867L12.8786 4.8865Z" fill="#F7FCFF"/>
<path fill-rule="evenodd" clip-rule="evenodd" d="M9.6621 7.10852L9.52873 7.2045L9.66624 7.40634C9.54843 7.44861 9.35907 7.55568 9.35907 7.80724C9.35907 8.17238 9.23083 8.47151 9.23083 8.47151L9.61384 8.71748C9.61384 8.71748 9.65379 8.29162 9.75804 8.04943C9.8103 7.92801 9.89167 7.86747 9.95982 7.83727L10.5552 8.71119L10.6886 8.61521L9.6621 7.10852Z" fill="#F7FCFF"/>
<path fill-rule="evenodd" clip-rule="evenodd" d="M13.7306 7.10852L13.864 7.2045L13.7265 7.40634C13.8443 7.44861 14.0336 7.55568 14.0336 7.80724C14.0336 8.17238 14.1619 8.47151 14.1619 8.47151L13.7789 8.71748C13.7789 8.71748 13.7389 8.29162 13.6347 8.04943C13.5824 7.92801 13.501 7.86747 13.4329 7.83727L12.8375 8.71119L12.7041 8.61521L13.7306 7.10852Z" fill="#F7FCFF"/>
</g>
<defs>
<clipPath id="clip0_58_5777">
<rect width="21.4187" height="16.064" fill="white" transform="translate(0.674805)"/>
</clipPath>
</defs>
</svg>
