<svg width="22" height="17" viewBox="0 0 22 17" fill="none" xmlns="http://www.w3.org/2000/svg">
<g clip-path="url(#clip0_58_5741)">
<rect width="21.4187" height="16.064" transform="translate(0.349609)" fill="white"/>
<path fill-rule="evenodd" clip-rule="evenodd" d="M0.640259 -0.0320435V16.032H22.059V-0.0320435H0.640259Z" fill="#2E42A5"/>
<mask id="mask0_58_5741" style="mask-type:luminance" maskUnits="userSpaceOnUse" x="0" y="-1" width="23" height="18">
<path fill-rule="evenodd" clip-rule="evenodd" d="M0.640259 -0.0320435V16.032H22.059V-0.0320435H0.640259Z" fill="white"/>
</mask>
<g mask="url(#mask0_58_5741)">
<path fill-rule="evenodd" clip-rule="evenodd" d="M14.6581 7.90372L14.6602 8.1383C14.6782 10.1128 14.7511 11.4046 14.8807 12.0234C14.9883 12.5372 15.3795 13.3893 15.8396 14.0726C16.4181 14.9317 17.0353 15.4542 17.6259 15.4542C18.2188 15.4542 18.8364 14.9683 19.4124 14.1586C19.8852 13.494 20.2901 12.6509 20.4513 12.0296C20.6508 11.2606 20.7438 9.96489 20.7325 8.13623L20.7311 7.90336L20.5183 8.0135C20.0894 8.23548 19.6277 8.3463 19.131 8.3463C18.6401 8.3463 18.1662 8.19957 17.7067 7.90381L17.6279 7.85309L17.5479 7.9021C17.0629 8.1994 16.6072 8.3463 16.18 8.3463C15.7474 8.3463 15.3123 8.23567 14.8734 8.01295L14.6581 7.90372ZM15.0233 11.9956C14.8961 11.3886 14.8236 10.1025 14.8057 8.13707C15.2649 8.37006 15.723 8.48655 16.1801 8.48655C16.6371 8.48655 17.1191 8.33119 17.626 8.02046C18.1088 8.33119 18.6105 8.48655 19.1311 8.48655C19.6517 8.48655 20.137 8.37006 20.5871 8.13707C20.5983 9.95477 20.506 11.2409 20.3102 11.9956C20.0165 13.1276 18.7848 15.314 17.626 15.314C16.4672 15.314 15.214 12.906 15.0233 11.9956Z" fill="#FBE625"/>
<path fill-rule="evenodd" clip-rule="evenodd" d="M14.8057 8.13706C14.8057 8.13706 14.8325 11.0851 15.0233 11.9956C15.214 12.906 16.4672 15.314 17.626 15.314C18.7847 15.314 20.0165 13.1276 20.3102 11.9956C20.6039 10.8636 20.5871 8.13706 20.5871 8.13706C20.5871 8.13706 19.9119 8.48654 19.1311 8.48654C18.3502 8.48654 17.626 8.02045 17.626 8.02045C17.626 8.02045 16.8656 8.48654 16.1801 8.48654C15.4945 8.48654 14.8057 8.13706 14.8057 8.13706Z" fill="#F5FBFF"/>
<mask id="mask1_58_5741" style="mask-type:luminance" maskUnits="userSpaceOnUse" x="14" y="8" width="7" height="8">
<path fill-rule="evenodd" clip-rule="evenodd" d="M14.8057 8.13706C14.8057 8.13706 14.8325 11.0851 15.0233 11.9956C15.214 12.906 16.4672 15.314 17.626 15.314C18.7847 15.314 20.0165 13.1276 20.3102 11.9956C20.6039 10.8636 20.5871 8.13706 20.5871 8.13706C20.5871 8.13706 19.9119 8.48654 19.1311 8.48654C18.3502 8.48654 17.626 8.02045 17.626 8.02045C17.626 8.02045 16.8656 8.48654 16.1801 8.48654C15.4945 8.48654 14.8057 8.13706 14.8057 8.13706Z" fill="white"/>
</mask>
<g mask="url(#mask1_58_5741)">
<path fill-rule="evenodd" clip-rule="evenodd" d="M17.1325 10.3348C17.1325 10.5274 16.8574 11.0879 16.698 11.2314C16.58 11.3375 16.6164 11.0909 16.6433 10.9088C16.6528 10.8449 16.661 10.789 16.661 10.7591L16.661 10.7459C16.6611 10.7081 16.6611 10.6875 16.6573 10.6676C16.6528 10.6438 16.6428 10.6211 16.6208 10.571L16.6208 10.571L16.6208 10.571L16.6208 10.571L16.6208 10.571L16.6208 10.571C16.6125 10.5522 16.6026 10.5296 16.5907 10.5017C16.3353 9.95695 16.516 9.69608 16.5962 9.58022C16.6085 9.56249 16.6184 9.54815 16.6241 9.53671C16.6362 9.51221 16.659 9.49021 16.6845 9.46565C16.7486 9.40385 16.8294 9.32585 16.7989 9.15095C16.7563 8.90653 17.0148 8.59302 17.0148 8.59302C17.0148 8.59302 16.9521 9.20105 17.2491 9.05209C17.4421 8.95527 17.792 9.09417 18.1032 9.21773C18.2707 9.28426 18.4271 9.34634 18.5417 9.36476C18.7732 9.40196 18.8999 9.30475 18.9784 9.24457C19.0109 9.21963 19.0352 9.20105 19.0551 9.20105C19.1232 9.20105 19.2035 9.21468 19.2035 9.26437C19.2035 9.31406 18.8986 9.45951 18.7454 9.50488C18.6299 9.53907 18.7484 9.63331 18.8477 9.71225C18.8802 9.73807 18.9106 9.76225 18.9301 9.78216C19.0092 9.86295 19.0817 10.3036 18.8986 10.0264C18.7156 9.7492 18.3258 9.56386 17.9946 9.53671C17.6633 9.50956 17.2456 9.761 17.1955 10.0264C17.1453 10.2918 17.5873 10.2431 17.5873 10.2431C17.5873 10.2431 17.555 10.2845 17.4125 10.3348C17.2699 10.3851 17.1325 10.3348 17.1325 10.3348ZM16.7993 10.314C16.7993 10.3527 16.7667 10.3841 16.7266 10.3841C16.6864 10.3841 16.6539 10.3527 16.6539 10.314C16.6539 10.2753 16.6864 10.2439 16.7266 10.2439C16.7667 10.2439 16.7993 10.2753 16.7993 10.314ZM18.4325 11.6152C18.2298 11.5453 17.6061 11.5764 17.4377 11.6698C17.4377 11.6698 17.415 11.5252 17.302 11.4249C17.1889 11.3246 17.137 11.3164 17.137 11.3164C17.137 11.3164 17.3938 11.6794 17.1374 11.7642C16.881 11.849 16.4586 11.6056 16.3217 11.3027C16.1849 10.9999 16.158 10.5691 16.3117 10.2746C16.4654 9.98008 16.1151 10.2571 16.0828 10.3655C16.0749 10.3922 16.0685 10.4305 16.0616 10.4715L16.0616 10.4715C16.0407 10.5966 16.0158 10.7459 15.9299 10.6615C15.8159 10.5494 15.5409 10.3533 15.4974 10.3774C15.454 10.4015 15.481 10.4783 15.514 10.5379C15.5236 10.5553 15.5516 10.5675 15.5892 10.5839C15.6799 10.6233 15.8264 10.6871 15.9061 10.9076C15.9455 11.0167 15.967 11.1836 15.9901 11.3624C16.0329 11.6945 16.081 12.0678 16.2593 12.1897C16.5335 12.3773 15.9714 12.6172 15.9714 12.6172C15.9714 12.6172 16.3709 12.6912 16.564 12.5355C16.7022 12.424 16.8096 12.4569 16.8947 12.483C16.9285 12.4934 16.9588 12.5027 16.9861 12.5014C16.9989 12.5008 17.0162 12.5025 17.0377 12.5047C17.1779 12.5187 17.4937 12.5502 17.8463 12.0628C17.8649 12.0388 17.8798 12.0192 17.8922 12.0029L17.8923 12.0029L17.8923 12.0028C17.9255 11.9593 17.9405 11.9395 17.9591 11.924C17.9747 11.9111 17.9927 11.9011 18.0258 11.8828L18.0373 11.8765C18.0635 11.8619 18.1164 11.842 18.1769 11.8193C18.3492 11.7546 18.5826 11.6669 18.4325 11.6152ZM17.5936 11.9368C17.6274 11.918 17.6707 11.9313 17.6902 11.9664C17.7096 12.0016 17.698 12.0452 17.6641 12.064C17.6302 12.0828 17.587 12.0695 17.5675 12.0344C17.548 11.9993 17.5597 11.9556 17.5936 11.9368ZM17.937 9.9239C17.9888 10.132 18.3546 10.6381 18.5246 10.7285C18.5246 10.7285 18.4157 10.8262 18.3931 10.9757C18.3706 11.1252 18.392 11.1731 18.392 11.1731C18.392 11.1731 18.5566 10.76 18.7674 10.9289C18.9781 11.0977 19.0041 11.5846 18.8246 11.8643C18.6451 12.144 18.2985 12.4012 17.9678 12.4327C17.6371 12.4642 18.0602 12.607 18.1687 12.5751C18.1954 12.5672 18.231 12.5517 18.2691 12.5352C18.3854 12.4846 18.5242 12.4242 18.5002 12.5422C18.4683 12.6988 18.4536 13.0362 18.4975 13.0596C18.5414 13.0829 18.5911 13.0184 18.623 12.9583C18.6324 12.9407 18.6274 12.9106 18.6206 12.8702C18.6043 12.7726 18.578 12.615 18.7195 12.4281C18.7896 12.3356 18.9178 12.2267 19.0552 12.11C19.3104 11.8932 19.5973 11.6495 19.6025 11.4336C19.6104 11.1014 20.1178 11.4422 20.1178 11.4422C20.1178 11.4422 19.9623 11.0669 19.7265 10.9898C19.5577 10.9346 19.5268 10.8265 19.5024 10.7409C19.4926 10.7069 19.4839 10.6764 19.468 10.6543C19.4605 10.6439 19.4525 10.6284 19.4426 10.6092C19.378 10.484 19.2325 10.202 18.6316 10.1717C18.6014 10.1691 18.5767 10.1673 18.5563 10.1658C18.5018 10.1617 18.477 10.1598 18.4538 10.1527C18.4345 10.1467 18.4163 10.137 18.3829 10.1192C18.3793 10.1172 18.3754 10.1152 18.3714 10.113C18.3449 10.099 18.2994 10.0654 18.2474 10.0271L18.2474 10.0271C18.0993 9.91785 17.8986 9.76988 17.937 9.9239ZM18.6867 10.4788C18.6525 10.4607 18.6401 10.4172 18.6589 10.3817C18.6778 10.3463 18.7208 10.3323 18.755 10.3504C18.7892 10.3686 18.8016 10.4121 18.7827 10.4476C18.7639 10.483 18.7209 10.497 18.6867 10.4788Z" fill="#FF9800"/>
<path fill-rule="evenodd" clip-rule="evenodd" d="M14.9813 13.1889H19.8534V15.5029H14.9813V13.1889Z" fill="#36C6FF"/>
</g>
<g clip-path="url(#clip1_58_5741)">
<rect width="12.048" height="9.37069" transform="translate(0.349609)" fill="#2E42A5"/>
<path d="M-0.991943 8.70124L1.65926 9.86401L12.4578 1.26421L13.8562 -0.463699L11.0211 -0.852331L6.61669 2.85357L3.07155 5.35048L-0.991943 8.70124Z" fill="#F7FCFF"/>
<path d="M-0.629028 9.5159L0.721637 10.1907L13.354 -0.624251H11.4575L-0.629028 9.5159Z" fill="#F50100"/>
<path d="M13.7391 8.70124L11.0879 9.86401L0.289419 1.26421L-1.10903 -0.463699L1.72605 -0.852331L6.13051 2.85357L9.67564 5.35048L13.7391 8.70124Z" fill="#F7FCFF"/>
<path d="M13.6487 9.28592L12.298 9.96069L6.91902 5.33026L5.32426 4.81291L-1.24358 -0.457786H0.652907L7.21707 4.68781L8.96065 5.30817L13.6487 9.28592Z" fill="#F50100"/>
<path fill-rule="evenodd" clip-rule="evenodd" d="M7.03259 0H5.69392V4.01601H0.349609V5.35468H5.69392V9.37069H7.03259V5.35468H12.3976V4.01601H7.03259V0Z" fill="#F50100"/>
<path fill-rule="evenodd" clip-rule="evenodd" d="M4.68992 0H8.0366V3.01201H12.3976V6.35868H8.0366L8.04696 9.37069H4.70029L4.68992 6.35868H0.349609V3.01201H4.68992V0ZM5.69392 4.01601H0.349609V5.35468H5.69392V9.37069H7.03259V5.35468H12.3976V4.01601H7.03259V0H5.69392V4.01601Z" fill="#F7FCFF"/>
</g>
</g>
</g>
<defs>
<clipPath id="clip0_58_5741">
<rect width="21.4187" height="16.064" fill="white" transform="translate(0.349609)"/>
</clipPath>
<clipPath id="clip1_58_5741">
<rect width="12.048" height="9.37069" fill="white" transform="translate(0.349609)"/>
</clipPath>
</defs>
</svg>
