<svg width="22" height="17" viewBox="0 0 22 17" fill="none" xmlns="http://www.w3.org/2000/svg">
<g clip-path="url(#clip0_58_5732)">
<rect width="21.4187" height="16.064" transform="translate(0.187134)" fill="white"/>
<path fill-rule="evenodd" clip-rule="evenodd" d="M0.477783 -0.0320435H21.8965V16.032H0.477783V-0.0320435Z" fill="#F50100"/>
<path fill-rule="evenodd" clip-rule="evenodd" d="M11.5217 12.8596L11.5171 14.4255C11.5171 14.4255 10.7849 13.1462 10.8429 13.1462C10.9009 13.1462 11.1183 12.7229 11.2077 12.5129C11.2972 12.3028 11.0134 12.154 10.9659 12.3034C10.9183 12.4528 10.7239 12.6638 10.458 12.833C10.1921 13.0023 10.1333 12.5781 10.1333 12.4786C10.1333 12.4019 10.2374 12.4056 10.4016 12.4113C10.4506 12.413 10.505 12.4149 10.5636 12.4149C10.8183 12.4149 10.8429 11.8505 10.7849 11.706C10.7525 11.6254 10.6777 11.7064 10.5621 11.8317C10.4706 11.9308 10.3534 12.0577 10.2116 12.154C9.89043 12.372 9.71237 12.1422 9.71237 11.936C9.71237 11.8204 9.77866 11.8228 9.88133 11.8266C9.96175 11.8295 10.0645 11.8333 10.1752 11.7818C10.4271 11.6645 10.6074 11.1731 10.5636 11.1298C10.5285 11.095 10.3234 11.2156 10.0948 11.3499C10.0383 11.3831 9.98036 11.4172 9.92319 11.4499C9.63482 11.6152 9.51437 11.225 9.51437 11.1298C9.51437 11.0345 9.78516 11.0215 9.92319 11.0215C10.0612 11.0215 10.5566 10.7196 10.8429 10.3375C11.1292 9.9554 11.0478 9.50162 10.8429 9.35438C10.7006 9.25217 10.6034 9.39888 10.4979 9.55789C10.4514 9.62795 10.4034 9.70041 10.3492 9.75501C10.2628 9.84211 10.1502 10.0738 10.0459 10.2882C9.93641 10.5134 9.83614 10.7196 9.78516 10.7196C9.68562 10.7196 9.38283 10.3967 9.38283 10.3967L8.30194 10.7196C8.30194 10.7196 8.7486 10.9624 8.89558 10.9624C9.04255 10.9624 9.09977 11.2274 9.09977 11.2847C9.09977 11.3419 8.85592 11.4261 8.68291 11.3688C8.50989 11.3115 8.61581 11.1298 8.61581 11.1298L8.04858 10.8037C8.04858 10.8037 7.60766 10.9624 7.60766 11.1298C7.60766 11.2971 7.40838 11.3688 7.17282 11.3688C6.93725 11.3688 6.96846 11.2723 7.17282 10.9624C7.21838 10.8933 7.25145 10.8551 7.27533 10.8373C7.29103 10.8377 7.30731 10.8378 7.32419 10.8375C7.34395 10.8717 7.33019 10.9624 7.33019 10.9624C7.33019 10.9624 7.96153 10.7273 7.60766 10.8037C7.49828 10.8273 7.40443 10.8363 7.32419 10.8375C7.31557 10.8226 7.30059 10.8185 7.27533 10.8373C7.18525 10.8351 7.1144 10.8236 7.05941 10.8146C7.02218 10.8086 6.99222 10.8037 6.96846 10.8037C6.87439 10.8037 6.50171 10.585 6.50171 10.585C6.50171 10.585 6.63783 10.4462 6.96846 10.4462C7.29908 10.4462 7.17282 10.585 7.17282 10.585H7.96153C7.96153 10.585 7.60766 10.3375 7.4919 10.3375C7.43331 10.3375 7.35231 10.2885 7.27228 10.2402C7.19418 10.193 7.117 10.1463 7.06252 10.1463C6.95223 10.1463 6.96846 9.89687 7.17282 9.89687C7.37717 9.89687 7.60766 10.0738 7.60766 10.1463C7.60766 10.2189 8.04858 10.4462 8.04858 10.4462L9.20629 10.1463C9.20629 10.1463 9.03613 9.75501 9.20629 9.75501C9.37646 9.75501 9.91493 9.40607 10.1333 8.96966C10.3517 8.53326 10.3283 8.32986 10.2116 8.32986C10.0948 8.32986 9.99556 8.52497 9.99556 8.60809C9.99556 8.69121 9.7142 9.12042 9.64855 9.2132C9.58291 9.30598 9.35003 9.12042 9.51437 8.89308C9.66004 8.69157 9.6529 8.3906 9.64939 8.24295C9.64894 8.22402 9.64855 8.20761 9.64855 8.19426C9.64855 8.07672 9.35003 8.3118 9.35003 8.73052C9.35003 9.14924 8.68987 9.30752 8.50498 9.30752C8.32008 9.30752 8.50498 8.96966 8.85592 8.89308C9.1319 8.83285 9.08527 8.47425 9.05275 8.22418C9.04392 8.15624 9.03613 8.09632 9.03613 8.05256C9.03613 7.84773 8.61581 8.34721 8.45212 8.60809C8.28842 8.86898 7.60766 9.49478 7.40838 9.57648C7.2091 9.65817 6.82925 9.39882 6.73767 9.2132C6.67041 9.07687 6.87721 9.0516 7.1619 9.01681C7.26481 9.00424 7.3779 8.99042 7.4919 8.96966C7.92127 8.89149 8.50498 8.05256 8.61581 7.89033C8.72665 7.7281 8.45212 7.60721 8.30194 7.89033C8.15281 8.17146 7.41877 8.43625 7.17785 8.52316L7.17282 8.52497C6.93725 8.60996 6.73767 8.22533 6.73767 8.05256C6.73767 7.94881 6.85482 7.96967 7.04141 8.00289C7.16553 8.02499 7.32037 8.05256 7.4919 8.05256C7.92127 8.05256 8.45212 7.30372 8.45212 7.11629C8.45212 6.92886 8.217 7.01067 8.04858 7.11629C8.00644 7.14272 7.9578 7.18008 7.90418 7.22125C7.7435 7.34466 7.53825 7.5023 7.33019 7.5023C7.05272 7.5023 6.82925 7.30372 6.82925 7.30372C6.82925 7.30372 6.73767 7.01067 6.96846 7.01067H7.60766C7.94964 7.01067 8.50498 6.28609 8.50498 6.15137C8.50498 6.0779 8.24137 6.19531 7.96757 6.31726C7.73931 6.41893 7.50396 6.52376 7.40838 6.52376C7.19815 6.52376 6.73767 6.32842 6.73767 6.15137C6.73767 6.07687 6.73767 6.04222 6.75486 6.02706C6.77853 6.0062 6.83478 6.0223 6.96846 6.0223C7.072 6.0223 7.17118 6.04828 7.28055 6.07692C7.41496 6.11213 7.56477 6.15137 7.75697 6.15137C7.99253 6.15137 8.19049 5.96948 8.31888 5.85151C8.3805 5.7949 8.42609 5.75301 8.45212 5.75301C8.5324 5.75301 8.37184 5.47857 8.217 5.47857C8.15289 5.47857 8.05636 5.52563 7.94326 5.58078C7.78322 5.6588 7.58999 5.75301 7.40838 5.75301C7.09841 5.75301 6.73767 5.25864 6.73767 5.1265C6.73767 4.99435 6.90983 5.04222 7.17282 5.1265C7.4358 5.21077 7.62623 5.27127 8.217 5.1265C8.80778 4.98172 8.45212 4.76778 8.30194 4.76778H7.17282C6.73759 4.76778 6.73766 4.13888 6.73767 4.02072L6.73767 4.01889C6.73767 3.92992 6.82899 3.98066 7.05213 4.10466C7.11317 4.13859 7.18408 4.17799 7.26569 4.22152C7.56131 4.37921 7.95943 4.35026 8.24279 4.32966C8.32357 4.32378 8.39503 4.31859 8.45212 4.31859C8.70948 4.31859 8.30194 4.01889 8.30194 4.01889C8.30194 4.01889 7.91923 4.01889 7.26569 3.74071C6.61215 3.46253 6.73767 2.70222 6.73767 2.70222C6.73767 2.70222 6.93267 2.43062 7.06252 2.70222C7.19238 2.97382 8.01727 3.6577 8.30194 3.6577C8.47925 3.6577 8.47458 3.60059 8.47067 3.55288C8.4683 3.52399 8.46622 3.49854 8.50498 3.4913C8.60775 3.47208 9.43675 3.752 9.43675 3.752C9.77397 3.77625 9.82599 4.27434 9.82599 4.5692C9.82599 4.86407 10.0748 5.1265 10.458 5.1265C10.745 5.1265 10.6293 4.69617 10.5327 4.33708C10.5004 4.21671 10.4701 4.10435 10.458 4.01889C10.4095 3.67845 9.35003 3.48174 9.35003 3.48174C8.97516 3.4224 9.03613 3.20807 9.03613 3.20807C9.17703 3.20291 9.38283 3.11809 9.38283 3.11809C9.60889 3.06725 8.45212 2.95421 8.45212 2.95421C8.19575 2.93066 8.30194 2.6203 8.30194 2.6203C8.30194 2.47985 8.4127 2.55464 8.57083 2.66141C8.72226 2.76366 8.91712 2.89523 9.09977 2.89523C9.47314 2.89523 8.99032 2.6203 8.85592 2.6203C8.83732 2.6203 8.82878 2.6203 8.82875 2.6198C8.82857 2.61666 9.1576 2.59404 9.43675 2.43062C9.61011 2.32913 9.76859 2.39054 9.97259 2.46958C10.1499 2.53828 10.3615 2.6203 10.6472 2.6203C10.9957 2.6203 10.9896 2.83509 10.9818 3.10365C10.9759 3.30855 10.9691 3.54475 11.1183 3.74071C11.3625 4.06163 11.4762 4.1243 11.5217 4.13358C11.5672 4.12431 11.6809 4.06165 11.9251 3.74071C12.0743 3.54475 12.0675 3.30855 12.0616 3.10364C12.0538 2.83509 12.0476 2.6203 12.3962 2.6203C12.6819 2.6203 12.8935 2.53828 13.0708 2.46958C13.2748 2.39054 13.4333 2.32913 13.6066 2.43061C13.8858 2.59403 14.2148 2.61666 14.2146 2.61979C14.2146 2.6203 14.2061 2.6203 14.1875 2.6203C14.0531 2.6203 13.5702 2.89523 13.9436 2.89523C14.1263 2.89523 14.3211 2.76366 14.4726 2.66141C14.6307 2.55464 14.7414 2.47985 14.7414 2.6203C14.7414 2.6203 14.8476 2.93066 14.5913 2.95421C14.5913 2.95421 13.4345 3.06725 13.6606 3.11808C13.6606 3.11808 13.8664 3.2029 14.0073 3.20807C14.0073 3.20807 14.0682 3.4224 13.6934 3.48174C13.6934 3.48174 12.6339 3.67845 12.5854 4.01888C12.5732 4.10435 12.543 4.21671 12.5107 4.33708C12.4141 4.69616 12.2984 5.12649 12.5854 5.12649C12.9686 5.12649 13.2174 4.86407 13.2174 4.5692C13.2174 4.27433 13.2694 3.77625 13.6066 3.752C13.6066 3.752 14.4356 3.47208 14.5384 3.49129C14.5772 3.49854 14.5751 3.52399 14.5727 3.55288C14.5688 3.60059 14.5641 3.6577 14.7414 3.6577C15.0261 3.6577 15.851 2.97382 15.9809 2.70222C16.1107 2.43061 16.3057 2.70222 16.3057 2.70222C16.3057 2.70222 16.4312 3.46253 15.7777 3.74071C15.1242 4.01888 14.7414 4.01888 14.7414 4.01888C14.7414 4.01888 14.3339 4.31858 14.5913 4.31858C14.6484 4.31858 14.7198 4.32378 14.8006 4.32965C15.084 4.35026 15.4821 4.3792 15.7777 4.22152C15.8593 4.17799 15.9302 4.13859 15.9913 4.10466C16.2144 3.98066 16.3057 3.92991 16.3057 4.01888V4.02072C16.3057 4.13888 16.3058 4.76778 15.8706 4.76778H14.7414C14.5913 4.76778 14.2356 4.98172 14.8264 5.12649C15.4172 5.27126 15.6076 5.21076 15.8706 5.12649C16.1336 5.04222 16.3057 4.99435 16.3057 5.12649C16.3057 5.25864 15.945 5.75301 15.635 5.75301C15.4534 5.75301 15.2602 5.6588 15.1001 5.58077C14.987 5.52563 14.8905 5.47857 14.8264 5.47857C14.6716 5.47857 14.511 5.75301 14.5913 5.75301C14.6173 5.75301 14.6629 5.7949 14.7245 5.85151C14.8529 5.96948 15.0509 6.15137 15.2864 6.15137C15.4786 6.15137 15.6284 6.11213 15.7628 6.07692C15.8722 6.04828 15.9714 6.0223 16.0749 6.0223C16.2086 6.0223 16.2649 6.0062 16.2885 6.02706C16.3057 6.04221 16.3057 6.07687 16.3057 6.15137C16.3057 6.32842 15.8452 6.52375 15.635 6.52375C15.5394 6.52375 15.3041 6.41893 15.0758 6.31726C14.802 6.19531 14.5384 6.0779 14.5384 6.15137C14.5384 6.28609 15.0938 7.01066 15.4357 7.01066H16.0749C16.3057 7.01066 16.2141 7.30372 16.2141 7.30372C16.2141 7.30372 15.9907 7.50229 15.7132 7.50229C15.5051 7.50229 15.2999 7.34466 15.1392 7.22125C15.0856 7.18008 15.0369 7.14272 14.9948 7.11629C14.8264 7.01066 14.5913 6.92886 14.5913 7.11629C14.5913 7.30372 15.1221 8.05256 15.5515 8.05256C15.723 8.05256 15.8779 8.02499 16.002 8.00289C16.1886 7.96966 16.3057 7.9488 16.3057 8.05256C16.3057 8.22533 16.1061 8.60996 15.8706 8.52497L15.8655 8.52316C15.6246 8.43625 14.8906 8.17146 14.7414 7.89033C14.5913 7.60721 14.3167 7.7281 14.4276 7.89033C14.5384 8.05256 15.1221 8.89149 15.5515 8.96966C15.6655 8.99042 15.7786 9.00424 15.8815 9.01681C16.1662 9.0516 16.373 9.07686 16.3057 9.2132C16.2141 9.39882 15.8343 9.65816 15.635 9.57647C15.4357 9.49478 14.755 8.86898 14.5913 8.60809C14.4276 8.34721 14.0073 7.84772 14.0073 8.05256C14.0073 8.09631 13.9995 8.15624 13.9906 8.22417C13.9581 8.47425 13.9115 8.83285 14.1875 8.89308C14.5384 8.96966 14.7233 9.30752 14.5384 9.30752C14.3535 9.30752 13.6934 9.14924 13.6934 8.73052C13.6934 8.3118 13.3948 8.07671 13.3948 8.19425C13.3948 8.20761 13.3944 8.22402 13.394 8.24295C13.3905 8.3906 13.3833 8.69157 13.529 8.89308C13.6934 9.12042 13.4605 9.30598 13.3948 9.2132C13.3292 9.12042 13.0478 8.69121 13.0478 8.60809C13.0478 8.52497 12.9485 8.32986 12.8318 8.32986C12.7151 8.32986 12.6917 8.53326 12.9101 8.96966C13.1285 9.40606 13.6669 9.75501 13.8371 9.75501C14.0073 9.75501 13.8371 10.1463 13.8371 10.1463L14.9948 10.4462C14.9948 10.4462 15.4357 10.2189 15.4357 10.1463C15.4357 10.0738 15.6662 9.89687 15.8706 9.89687C16.0749 9.89687 16.0912 10.1463 15.9809 10.1463C15.9264 10.1463 15.8492 10.193 15.7711 10.2402C15.6911 10.2885 15.6101 10.3375 15.5515 10.3375C15.4357 10.3375 15.0819 10.585 15.0819 10.585H15.8706C15.8706 10.585 15.7443 10.4462 16.0749 10.4462C16.4056 10.4462 16.5417 10.585 16.5417 10.585C16.5417 10.585 16.169 10.8037 16.0749 10.8037C16.0512 10.8037 16.0212 10.8086 15.984 10.8146C15.929 10.8236 15.8581 10.8351 15.7681 10.8373C15.7428 10.8185 15.7278 10.8226 15.7192 10.8375C15.639 10.8363 15.5451 10.8273 15.4357 10.8037C15.0819 10.7273 15.7132 10.9624 15.7132 10.9624C15.7132 10.9624 15.6994 10.8717 15.7192 10.8375C15.7361 10.8378 15.7524 10.8377 15.7681 10.8373C15.7919 10.8551 15.825 10.8933 15.8706 10.9624C16.0749 11.2723 16.1061 11.3688 15.8706 11.3688C15.635 11.3688 15.4357 11.2971 15.4357 11.1298C15.4357 10.9624 14.9948 10.8037 14.9948 10.8037L14.4276 11.1298C14.4276 11.1298 14.5335 11.3115 14.3605 11.3688C14.1875 11.4261 13.9436 11.3419 13.9436 11.2847C13.9436 11.2274 14.0008 10.9624 14.1478 10.9624C14.2948 10.9624 14.7414 10.7196 14.7414 10.7196L13.6606 10.3967C13.6606 10.3967 13.3578 10.7196 13.2582 10.7196C13.2072 10.7196 13.107 10.5134 12.9975 10.2882C12.8932 10.0738 12.7806 9.8421 12.6942 9.75501C12.64 9.7004 12.5919 9.62795 12.5455 9.55789C12.44 9.39887 12.3428 9.25217 12.2005 9.35438C11.9956 9.50162 11.9142 9.9554 12.2005 10.3375C12.4868 10.7196 12.9822 11.0215 13.1202 11.0215C13.2582 11.0215 13.529 11.0345 13.529 11.1298C13.529 11.225 13.4086 11.6152 13.1202 11.4499C13.063 11.4172 13.0051 11.3831 12.9486 11.3499C12.72 11.2155 12.5149 11.095 12.4798 11.1298C12.436 11.1731 12.6162 11.6645 12.8682 11.7818C12.9789 11.8333 13.0816 11.8295 13.1621 11.8266C13.2647 11.8228 13.331 11.8204 13.331 11.936C13.331 12.1422 13.153 12.372 12.8318 12.154C12.6899 12.0577 12.5728 11.9308 12.4813 11.8317C12.3657 11.7064 12.2909 11.6254 12.2585 11.706C12.2005 11.8505 12.2251 12.4149 12.4798 12.4149C12.5384 12.4149 12.5928 12.413 12.6418 12.4113C12.8059 12.4056 12.9101 12.4019 12.9101 12.4785C12.9101 12.5781 12.8513 13.0023 12.5854 12.833C12.3195 12.6638 12.1251 12.4528 12.0775 12.3034C12.03 12.154 11.7462 12.3028 11.8357 12.5129C11.9251 12.7229 12.1425 13.1462 12.2005 13.1462C12.2585 13.1462 11.5263 14.4255 11.5263 14.4255L11.5217 12.8596Z" fill="#1A1A1A"/>
</g>
<defs>
<clipPath id="clip0_58_5732">
<rect width="21.4187" height="16.064" fill="white" transform="translate(0.187134)"/>
</clipPath>
</defs>
</svg>
