<svg width="23" height="17" viewBox="0 0 23 17" fill="none" xmlns="http://www.w3.org/2000/svg">
<g clip-path="url(#clip0_58_5703)">
<rect width="21.4187" height="16.064" transform="translate(0.862061)" fill="white"/>
<path fill-rule="evenodd" clip-rule="evenodd" d="M1.15271 -0.0320435V16.032H22.5714V-0.0320435H1.15271Z" fill="#1D1D1D"/>
<mask id="mask0_58_5703" style="mask-type:luminance" maskUnits="userSpaceOnUse" x="1" y="-1" width="22" height="18">
<path fill-rule="evenodd" clip-rule="evenodd" d="M1.15271 -0.0320435V16.032H22.5714V-0.0320435H1.15271Z" fill="white"/>
</mask>
<g mask="url(#mask0_58_5703)">
<path fill-rule="evenodd" clip-rule="evenodd" d="M1.15271 -0.0320435V7.99998H22.5714V-0.0320435H1.15271Z" fill="#F50100"/>
<path d="M7.80116 3.91486L8.0868 2.97455C10.2288 3.62829 11.5202 4.77435 11.8834 6.40937C12.1244 7.49404 12.0149 8.46356 11.6252 9.3269C11.3475 9.94202 10.9948 10.4012 10.4877 10.9182C9.64212 11.7802 8.25119 12.3302 6.99544 12.097C6.12015 11.9344 5.31383 11.6274 4.57947 11.1764L5.09182 10.3383C5.72275 10.7258 6.41585 10.9897 7.17411 11.1305C8.08089 11.2989 9.15597 10.8738 9.78844 10.229C10.2217 9.7873 10.511 9.41076 10.7317 8.9217C11.0353 8.24929 11.1203 7.49652 10.9262 6.62303C10.6491 5.37559 9.63319 4.474 7.80116 3.91486Z" fill="#FFEA42"/>
<g filter="url(#filter0_d_58_5703)">
<path fill-rule="evenodd" clip-rule="evenodd" d="M7.7431 6.30276L7.10757 6.74274L7.33177 6.00544L6.71478 5.54006L7.48889 5.52436L7.7431 4.79675L7.99731 5.52436L8.77141 5.54006L8.15442 6.00544L8.37863 6.74274L7.7431 6.30276Z" fill="#FCFF01"/>
<path fill-rule="evenodd" clip-rule="evenodd" d="M7.7431 6.30276L7.10757 6.74274L7.33177 6.00544L6.71478 5.54006L7.48889 5.52436L7.7431 4.79675L7.99731 5.52436L8.77141 5.54006L8.15442 6.00544L8.37863 6.74274L7.7431 6.30276Z" fill="#FFEA42"/>
</g>
<g filter="url(#filter1_d_58_5703)">
<path fill-rule="evenodd" clip-rule="evenodd" d="M6.24908 6.56744C6.24908 6.56744 5.12202 8.21973 6.0095 8.82379C6.89699 9.42785 11.5898 11.9741 11.5898 11.9741C11.5898 11.9741 12.5595 11.9686 12.6975 12.1749C12.8355 12.3811 13.1225 12.6237 13.2434 12.6237C13.3644 12.6237 13.6769 12.4052 13.6769 12.4052C13.6769 12.4052 13.9205 12.2059 13.6769 11.9741C13.4333 11.7424 12.1458 10.9489 12.1458 10.9489C12.1458 10.9489 7.12045 7.74175 6.69313 7.42424C6.26581 7.10673 6.24908 6.56744 6.24908 6.56744Z" fill="#FCFF01"/>
<path fill-rule="evenodd" clip-rule="evenodd" d="M6.24908 6.56744C6.24908 6.56744 5.12202 8.21973 6.0095 8.82379C6.89699 9.42785 11.5898 11.9741 11.5898 11.9741C11.5898 11.9741 12.5595 11.9686 12.6975 12.1749C12.8355 12.3811 13.1225 12.6237 13.2434 12.6237C13.3644 12.6237 13.6769 12.4052 13.6769 12.4052C13.6769 12.4052 13.9205 12.2059 13.6769 11.9741C13.4333 11.7424 12.1458 10.9489 12.1458 10.9489C12.1458 10.9489 7.12045 7.74175 6.69313 7.42424C6.26581 7.10673 6.24908 6.56744 6.24908 6.56744Z" fill="#FFEA42"/>
</g>
<path fill-rule="evenodd" clip-rule="evenodd" d="M8.99171 2.69501L8.7308 3.28593L9.58638 3.65633L9.82899 3.06526L8.99171 2.69501ZM10.7405 3.63873L10.2694 4.08073L10.9122 4.75599L11.3665 4.3067L10.7405 3.63873ZM11.384 5.41406L11.9864 5.18071L12.3166 6.03456L11.7271 6.28096L11.384 5.41406ZM12.5574 7.08713L11.9117 7.06658L11.8888 7.99862L12.5277 8.00214L12.5574 7.08713ZM11.7596 8.79926L12.3505 9.06017L11.9803 9.89745L11.3892 9.65484L11.7596 8.79926ZM11.4092 10.8126L10.9672 10.3415L10.292 10.9843L10.7413 11.4386L11.4092 10.8126ZM9.63741 11.4585L9.87076 12.0609L9.01691 12.3911L8.77051 11.8016L9.63741 11.4585ZM7.96858 12.6328L7.98913 11.9871L7.0571 11.9642L7.05357 12.6031L7.96858 12.6328ZM6.26066 11.8342L5.99975 12.4251L5.16248 12.0548L5.40509 11.4638L6.26066 11.8342Z" fill="#FFEA42"/>
</g>
</g>
<defs>
<filter id="filter0_d_58_5703" x="6.71484" y="4.79675" width="2.05652" height="1.94598" filterUnits="userSpaceOnUse" color-interpolation-filters="sRGB">
<feFlood flood-opacity="0" result="BackgroundImageFix"/>
<feColorMatrix in="SourceAlpha" type="matrix" values="0 0 0 0 0 0 0 0 0 0 0 0 0 0 0 0 0 0 127 0" result="hardAlpha"/>
<feOffset/>
<feColorMatrix type="matrix" values="0 0 0 0 0 0 0 0 0 0 0 0 0 0 0 0 0 0 0.2 0"/>
<feBlend mode="normal" in2="BackgroundImageFix" result="effect1_dropShadow_58_5703"/>
<feBlend mode="normal" in="SourceGraphic" in2="effect1_dropShadow_58_5703" result="shape"/>
</filter>
<filter id="filter1_d_58_5703" x="5.66882" y="6.56744" width="8.11633" height="6.05627" filterUnits="userSpaceOnUse" color-interpolation-filters="sRGB">
<feFlood flood-opacity="0" result="BackgroundImageFix"/>
<feColorMatrix in="SourceAlpha" type="matrix" values="0 0 0 0 0 0 0 0 0 0 0 0 0 0 0 0 0 0 127 0" result="hardAlpha"/>
<feOffset/>
<feColorMatrix type="matrix" values="0 0 0 0 0 0 0 0 0 0 0 0 0 0 0 0 0 0 0.2 0"/>
<feBlend mode="normal" in2="BackgroundImageFix" result="effect1_dropShadow_58_5703"/>
<feBlend mode="normal" in="SourceGraphic" in2="effect1_dropShadow_58_5703" result="shape"/>
</filter>
<clipPath id="clip0_58_5703">
<rect width="21.4187" height="16.064" fill="white" transform="translate(0.862061)"/>
</clipPath>
</defs>
</svg>
