<svg width="23" height="17" viewBox="0 0 23 17" fill="none" xmlns="http://www.w3.org/2000/svg">
<g clip-path="url(#clip0_58_5695)">
<rect width="21.4187" height="16.064" transform="translate(0.699463)" fill="white"/>
<path fill-rule="evenodd" clip-rule="evenodd" d="M0.990112 -0.0320435V16.032H22.4088V-0.0320435H0.990112Z" fill="#5196ED"/>
<mask id="mask0_58_5695" style="mask-type:luminance" maskUnits="userSpaceOnUse" x="0" y="-1" width="23" height="18">
<path fill-rule="evenodd" clip-rule="evenodd" d="M0.990112 -0.0320435V16.032H22.4088V-0.0320435H0.990112Z" fill="white"/>
</mask>
<g mask="url(#mask0_58_5695)">
<path fill-rule="evenodd" clip-rule="evenodd" d="M6.82505 5.25154C6.82505 5.25154 8.20664 6.00955 8.39878 6.21921C8.59084 6.42891 8.89871 7.19896 9.37882 6.76349C9.859 6.32817 10.3391 6.66661 10.3391 5.97304C10.3391 5.27953 11.056 3.67076 12.0962 4.0739C13.1365 4.477 13.9918 4.22482 14.2318 4.38598C14.4719 4.54725 15.0481 5.3481 15.4962 5.3481C15.9444 5.3481 16.1683 5.81575 16.2004 6.49316C16.2323 7.17062 16.0564 7.23532 16.4724 7.31608C16.8886 7.39664 17.0486 7.70322 16.8407 8.10632C16.6326 8.50957 16.6485 8.33213 16.6805 8.75149C16.7126 9.17086 16.2646 11.6439 14.8879 11.886C13.5114 12.1278 12.2066 11.9989 12.5589 11.531C12.911 11.0634 13.3984 10.5252 12.6783 10.4123C11.9579 10.2992 11.504 10.2031 10.7837 10.3966C10.0633 10.5902 9.31116 10.8965 8.86282 10.316C8.41475 9.73534 8.51091 9.31597 8.14275 9.04176C7.77469 8.76761 7.32636 8.81595 7.69468 8.2837C8.06258 7.75145 8.36667 7.95019 8.06258 7.53088C7.75873 7.11162 6.61085 6.92893 6.61085 6.50973C6.61085 6.0902 5.88074 5.17087 6.82505 5.25154Z" fill="#F5F8FB"/>
</g>
</g>
<defs>
<clipPath id="clip0_58_5695">
<rect width="21.4187" height="16.064" fill="white" transform="translate(0.699463)"/>
</clipPath>
</defs>
</svg>
