<svg width="22" height="17" viewBox="0 0 22 17" fill="none" xmlns="http://www.w3.org/2000/svg">
<g clip-path="url(#clip0_58_5614)">
<rect width="21.4187" height="16.064" transform="translate(0 0.837402)" fill="white"/>
<path fill-rule="evenodd" clip-rule="evenodd" d="M0.290649 0.805359H21.7094V16.8694H0.290649V0.805359Z" fill="#F7FCFF"/>
<path d="M0.290649 0.136024H-0.378686V0.805359V8.37353L-1.61562 8.83738L-0.378686 9.30123V16.8694V17.5387H0.290649H21.7094L21.9444 16.2427L2.19692 8.83738L21.9444 1.43208L21.7094 0.136024H0.290649Z" fill="#3547A0" stroke="#E31D1C" stroke-width="1.33867"/>
<path fill-rule="evenodd" clip-rule="evenodd" d="M19.7164 4.22565C19.7164 4.22565 18.3709 4.58874 17.8843 4.72072C17.8187 4.73853 17.6934 4.77037 17.7024 4.59166C17.3941 4.78952 16.8972 4.98951 16.6935 5.04626C16.591 5.07481 16.6184 4.89744 16.5746 4.84667C16.4859 4.97744 16.2579 5.16903 16.1932 5.18774C15.5518 5.37334 15.1259 5.50825 14.9156 5.59248C14.9156 5.59248 14.615 5.88159 14.615 6.11081C14.615 6.34002 14.583 6.53579 14.3761 6.53579C14.1692 6.53579 13.6919 6.95215 13.8667 7.18677C14.0416 7.4214 14.615 7.29646 14.615 7.18677C14.615 7.07709 15.0238 6.93986 15.0238 7.06332C15.0238 7.18677 14.9156 7.41007 14.9156 7.41007H15.3669L15.0238 7.58757H15.3669L15.0238 7.79781H15.6663L15.2557 7.98096H15.5405L15.3669 8.22202H15.812C15.812 8.22202 15.9852 8.3972 16.1485 8.49292C16.3117 8.58865 16.6736 9.40336 16.4927 9.71885C16.3117 10.0343 16.5337 10.0813 16.5746 9.94266C16.6155 9.80406 16.7001 9.60544 16.7727 9.60544C16.8453 9.60544 16.9847 9.60544 16.9847 9.60544L17.0832 9.86463L17.317 10.1145C17.317 10.1145 17.3337 9.8973 17.3775 9.86463C17.3775 9.86463 17.5601 9.88321 17.6486 9.86175C17.6486 9.86175 17.6093 9.54591 17.6124 9.50344C17.6124 9.50344 17.8954 9.59947 18.0167 9.59733C18.0167 9.59733 17.8345 9.31255 17.8345 9.21532C17.8345 9.21532 18.1728 9.23254 18.1728 9.37641L18.1354 9.01732C18.1354 9.01732 18.4556 8.8811 18.4668 8.76645L18.257 8.74079C18.257 8.74079 18.3659 8.60247 18.3558 8.57517L18.0458 8.53582C18.0458 8.53582 18.3845 8.41794 18.4101 8.34342C18.4101 8.34342 18.3341 8.22397 18.2644 8.17706L18.0278 8.02373C18.0278 8.02373 18.5569 8.02716 18.6455 8.02716C18.6455 8.02716 18.7838 7.97746 18.6773 7.8924C18.6773 7.8924 18.5731 7.82978 18.5874 7.76928C18.5874 7.76928 18.6582 7.63321 18.642 7.60953C18.642 7.60953 18.7176 7.70971 18.7176 7.46215C18.7176 7.46215 18.7195 7.21333 18.6719 7.20136C18.6719 7.20136 18.8111 7.09891 18.7564 7.03352C18.7016 6.96813 18.1152 6.79407 17.9749 6.79407L19.0493 6.11307C19.0493 6.11307 19.1237 5.83179 19.2328 5.66367C19.2328 5.66367 19.5183 5.40736 19.5758 5.20652C19.6334 5.00568 19.7954 4.51032 19.7954 4.51032V4.28363L19.7164 4.22565Z" fill="#9C3900"/>
<path fill-rule="evenodd" clip-rule="evenodd" d="M17.8345 9.21532C17.8485 9.21603 17.862 9.2169 17.8779 9.21816C18.0565 9.23264 18.154 9.27751 18.1703 9.35276L18.1354 9.01732C18.3488 8.92651 18.4593 8.84288 18.4668 8.76645L18.3068 8.74688L18.2912 8.76689L18.2814 8.74378L18.257 8.74079L18.272 8.72148L18.2623 8.6985L18.2871 8.70154C18.3386 8.63275 18.3615 8.59062 18.3558 8.57517L18.139 8.54765C18.1143 8.55689 18.088 8.56632 18.0602 8.57599C18.0602 8.57599 18.0523 8.53355 18.0555 8.53242L18.0513 8.49356L18.1336 8.504C18.3032 8.43975 18.3954 8.38622 18.4101 8.34342C18.3594 8.26379 18.3108 8.20833 18.2644 8.17706L18.0942 8.06677L18.0275 8.06634C18.0275 8.06634 18.0364 8.02378 18.0406 8.02381L18.0516 7.98814L18.1073 8.02424C18.4116 8.02619 18.591 8.02716 18.6455 8.02716C18.7377 7.99403 18.7483 7.94911 18.6773 7.8924C18.6079 7.85065 18.5779 7.80961 18.5874 7.76928C18.6102 7.72545 18.6262 7.69037 18.6355 7.66403C18.6256 7.65643 18.616 7.64662 18.6072 7.63493L18.642 7.60952L18.6779 7.58572C18.6871 7.59916 18.6903 7.61534 18.6876 7.63602C18.7076 7.62398 18.7176 7.56602 18.7176 7.46215C18.7184 7.35126 18.7119 7.27566 18.6978 7.23549L18.6719 7.20136L18.6826 7.16007C18.6921 7.16247 18.7006 7.16658 18.7081 7.1725C18.7715 7.11714 18.7876 7.07081 18.7564 7.03352C18.7082 6.97604 18.2492 6.83456 18.0436 6.8012L17.9983 6.82989C17.9983 6.82989 17.9788 6.79407 17.9856 6.78728L17.9749 6.75146C17.9906 6.75146 18.0106 6.75325 18.0341 6.75655L19.0493 6.11307C19.0989 5.92555 19.1601 5.77575 19.2328 5.66367C19.4231 5.4928 19.5375 5.34041 19.5758 5.20652C19.6142 5.07262 19.6874 4.84056 19.7954 4.51032V4.28363L19.7164 4.22565C18.8194 4.46771 18.2087 4.63273 17.8843 4.72072C17.8187 4.73853 17.6934 4.77037 17.7024 4.59166C17.3941 4.78952 16.8972 4.98951 16.6935 5.04626C16.6279 5.06453 16.6155 4.99852 16.6036 4.93529C16.5969 4.89968 16.5904 4.86496 16.5746 4.84667C16.4859 4.97744 16.2579 5.16903 16.1932 5.18774C15.5518 5.37334 15.1259 5.50825 14.9156 5.59248C14.7152 5.78522 14.615 5.95799 14.615 6.11081C14.615 6.34002 14.583 6.53579 14.3761 6.53579C14.1692 6.53579 13.6919 6.95215 13.8667 7.18677C14.0416 7.4214 14.615 7.29646 14.615 7.18677C14.615 7.07709 15.0238 6.93986 15.0238 7.06332C15.0238 7.14562 14.9877 7.26121 14.9156 7.41007H15.2739L15.3468 7.37236L15.3575 7.41497L15.3669 7.45268H15.2846L15.0238 7.58757H15.285L15.344 7.55139L15.3564 7.594L15.3669 7.63018H15.2974L15.0238 7.79781H15.5614L15.6484 7.759L15.6578 7.80161L15.6663 7.84042H15.5707L15.2557 7.98096H15.4874L15.5052 7.95633L15.5181 7.98096H15.5405L15.5276 7.99894L15.5405 8.02357H15.5098L15.3669 8.22202H15.812C15.9275 8.3388 16.0396 8.4291 16.1485 8.49292C16.3117 8.58865 16.6736 9.40336 16.4927 9.71885C16.3117 10.0343 16.5337 10.0813 16.5746 9.94266C16.6155 9.80406 16.7001 9.60544 16.7727 9.60544H16.9847L17.0832 9.86463L17.317 10.1145C17.317 10.1145 17.3337 9.8973 17.3775 9.86463C17.4992 9.87702 17.5896 9.87605 17.6486 9.86174C17.6468 9.84681 17.645 9.83233 17.6432 9.81831C17.6274 9.6903 17.6163 9.60006 17.5983 9.54372L17.6124 9.50344C17.6124 9.50344 17.6554 9.5129 17.6555 9.51781C17.8217 9.57214 17.9421 9.59865 18.0167 9.59733C17.918 9.44304 17.8594 9.33005 17.8392 9.25139C17.8361 9.23776 17.8345 9.22573 17.8345 9.21532ZM18.0314 8.49566L17.8602 8.55524L18.2976 8.61075C18.2821 8.63632 18.2571 8.67111 18.2228 8.7147L18.1762 8.77385L18.4059 8.80195C18.3686 8.85147 18.2731 8.91236 18.1182 8.97822L18.0891 8.99061L18.114 9.22894C18.05 9.19709 17.9568 9.17889 17.8368 9.17278L17.7913 9.17046V9.21534C17.7913 9.28162 17.839 9.39015 17.9347 9.5475C17.8591 9.53515 17.756 9.50709 17.6266 9.46317L17.5733 9.4451L17.5693 9.5004C17.5671 9.5309 17.5774 9.63657 17.6007 9.82688C17.5479 9.83309 17.4747 9.8317 17.3821 9.82226L17.3515 9.83067C17.3209 9.85343 17.3047 9.90234 17.2907 9.98011C17.2886 9.99213 17.2866 10.0045 17.2847 10.017L17.1209 9.84191L17.0148 9.56284H16.7728C16.6794 9.56284 16.5937 9.72523 16.5331 9.9308C16.5217 9.96948 16.4932 9.98165 16.4796 9.96946C16.4523 9.94522 16.4593 9.86378 16.5304 9.73981C16.6203 9.58317 16.596 9.31407 16.4907 9.00976C16.4003 8.74869 16.2652 8.51176 16.1707 8.45633C16.0654 8.39456 15.9561 8.30659 15.8431 8.19231L15.8303 8.17942H15.4507L15.6243 7.93837H15.4561L15.8667 7.75521H15.1753L15.5185 7.54497H15.1993L15.5424 7.36748H14.9831C15.039 7.24205 15.0671 7.14113 15.0671 7.06333C15.0671 7.00729 15.0241 6.97704 14.9632 6.97262C14.9197 6.96947 14.864 6.97863 14.8061 6.9971C14.6751 7.03887 14.5718 7.10995 14.5718 7.18679C14.5718 7.18998 14.5495 7.20868 14.5059 7.2268C14.4521 7.24916 14.3787 7.26627 14.3023 7.27349C14.1227 7.29047 13.9692 7.25212 13.9017 7.16159C13.8379 7.07597 13.8817 6.94117 14.0104 6.80198C14.1277 6.67502 14.2886 6.57841 14.3761 6.57841C14.4914 6.57841 14.5699 6.52476 14.613 6.42609C14.6462 6.3499 14.6584 6.25146 14.6584 6.11082C14.6584 5.97321 14.7511 5.8119 14.9399 5.62882C15.1511 5.54509 15.5734 5.41153 16.2055 5.22864C16.2751 5.20848 16.4531 5.05929 16.5622 4.94918C16.5714 4.9975 16.5781 5.02193 16.5927 5.04554C16.6167 5.08451 16.6568 5.10079 16.7053 5.08728C16.9459 5.02027 17.3839 4.83254 17.6642 4.66558C17.6758 4.72025 17.7057 4.75575 17.7522 4.77046C17.7945 4.78387 17.8328 4.77891 17.8959 4.76182C18.2178 4.6745 18.8217 4.51131 19.7075 4.27226L19.7522 4.30502V4.50365C19.6451 4.83097 19.5725 5.0613 19.5342 5.19497C19.4985 5.31976 19.3886 5.46621 19.1963 5.64076C19.1231 5.75373 19.0617 5.90217 19.0117 6.08622L17.8277 6.8367H17.9749C18.1089 6.8367 18.6801 7.00935 18.723 7.06064C18.7382 7.07874 18.7216 7.11161 18.646 7.16724L18.5735 7.22061L18.6537 7.24083C18.6575 7.24852 18.6613 7.26169 18.6645 7.2798C18.6716 7.32029 18.675 7.38122 18.6743 7.46184C18.6743 7.52576 18.6703 7.57055 18.664 7.59309C18.664 7.59309 18.604 7.62448 18.6017 7.62415L18.6017 7.62392L18.6016 7.6241C18.6011 7.6292 18.599 7.63725 18.5955 7.64773C18.5872 7.67199 18.5716 7.70623 18.5452 7.75969C18.5306 7.82204 18.5704 7.8774 18.6523 7.92724C18.692 7.95916 18.6917 7.96483 18.6379 7.98456C18.5701 7.98447 18.3668 7.98333 18.0281 7.98113L17.8819 7.98018L18.2406 8.21267C18.2766 8.23687 18.3164 8.28056 18.3586 8.34341C18.3457 8.3557 18.3214 8.37245 18.2858 8.39125C18.2274 8.42212 18.1424 8.45703 18.0314 8.49566ZM18.6017 7.62415L18.6018 7.62554L18.6016 7.62445L18.6017 7.62414L18.6017 7.62415ZM18.1704 9.35278L18.1781 9.41971C18.1781 9.39653 18.1755 9.37421 18.1704 9.35278Z" fill="#212121"/>
<path fill-rule="evenodd" clip-rule="evenodd" d="M18.635 8.02889C18.635 8.02889 19.9124 8.19894 19.9897 8.19894C20.067 8.19894 20.3885 8.11715 20.2784 7.60258C20.1683 7.08801 20.2131 6.77673 19.8979 6.77673C19.5827 6.77673 19.254 6.91368 19.1357 6.91368C19.0174 6.91368 19.1318 6.91368 18.635 6.91368C18.1382 6.91368 15.1786 6.89659 14.9655 7.13396C14.7524 7.37134 14.153 7.70613 13.8754 7.82423C13.5978 7.94233 13.5266 7.85982 13.4018 8.19894C13.2769 8.53806 13.1841 8.56164 13.1841 8.56164L13.4018 8.80441H14.0487C14.0487 8.80441 14.4941 8.24554 15.4188 8.19894C16.3436 8.15234 18.635 8.02889 18.635 8.02889Z" fill="white"/>
<path fill-rule="evenodd" clip-rule="evenodd" d="M15.4188 8.19894C16.0353 8.16787 17.1074 8.11119 18.635 8.02889C19.4866 8.14226 19.9382 8.19894 19.9897 8.19894C20.067 8.19894 20.3885 8.11715 20.2784 7.60258C20.2531 7.48404 20.2359 7.37629 20.2207 7.28065C20.1698 6.96111 20.1405 6.77673 19.8979 6.77673C19.7024 6.77673 19.5018 6.8294 19.3493 6.86941C19.2559 6.89392 19.1806 6.91368 19.1357 6.91368H18.635C18.6094 6.91368 18.5773 6.91363 18.5393 6.91358C17.8405 6.91259 15.1676 6.90882 14.9655 7.13396C14.7524 7.37134 14.153 7.70613 13.8754 7.82423C13.8044 7.85441 13.747 7.87149 13.6986 7.88585C13.5579 7.92769 13.4947 7.94648 13.4018 8.19894C13.3185 8.42502 13.246 8.54592 13.1841 8.56164L13.4018 8.80441H14.0487C14.3456 8.43183 14.8024 8.23 15.4188 8.19894ZM14.0175 8.74049H13.4311L13.2808 8.57287C13.3413 8.51062 13.3989 8.39439 13.4628 8.2207C13.4872 8.15437 13.5092 8.1056 13.5305 8.06971C13.5693 8.00432 13.6 7.98327 13.6821 7.95769C13.6839 7.95714 13.6903 7.9552 13.6993 7.95252C13.7218 7.94575 13.7599 7.93431 13.7762 7.9291C13.8192 7.91536 13.859 7.90084 13.9011 7.88289C14.2664 7.72752 14.8218 7.39053 15.0142 7.17628C15.0502 7.1361 15.2708 7.0905 15.6174 7.05793C15.9303 7.02852 16.3422 7.00791 16.8312 6.9948C17.376 6.98019 17.8799 6.97659 18.5132 6.97745C18.51 6.97745 18.567 6.97753 18.5809 6.97755L18.635 6.97759H19.1357C19.1697 6.97759 19.2118 6.97005 19.276 6.9543C19.292 6.95037 19.3374 6.93858 19.3798 6.92758C19.4136 6.91881 19.4454 6.91055 19.459 6.90713C19.6105 6.86911 19.7291 6.84764 19.844 6.842C19.8623 6.8411 19.8803 6.84064 19.8979 6.84064C20.0499 6.84064 20.0941 6.91204 20.143 7.20658C20.1447 7.2171 20.1495 7.24654 20.1548 7.27967C20.1618 7.32328 20.1698 7.37328 20.1734 7.39486C20.1869 7.47559 20.1998 7.54532 20.2149 7.61575C20.2599 7.82628 20.2321 7.96643 20.1557 8.05134C20.106 8.10656 20.0348 8.13502 19.9897 8.13502C19.943 8.13502 19.4837 8.07736 18.6314 7.96507C17.1039 8.04736 16.0319 8.10404 15.4155 8.1351C14.7949 8.16638 14.3272 8.36787 14.0175 8.74049Z" fill="#4D4D4D"/>
<path fill-rule="evenodd" clip-rule="evenodd" d="M13.3474 8.43524C13.3474 8.43524 12.8601 8.74773 13.039 8.95775C13.2179 9.16777 13.2356 9.19438 13.2712 9.19438C13.2712 9.19438 13.2808 8.96954 13.3385 8.96954C13.3962 8.96954 13.8532 9.18792 14.0188 8.8188C14.1845 8.44968 13.3474 8.43524 13.3474 8.43524Z" fill="#FFC221"/>
<path fill-rule="evenodd" clip-rule="evenodd" d="M12.2866 9.45371L13.4081 9.24597L13.8382 9.71168L13.9623 9.29489L14.2707 9.37056V9.58099H14.3845V9.86968L15.1909 10.0382L15.2921 9.76166C15.2921 9.76166 15.5547 10.195 15.9581 10.1734C16.3615 10.1519 16.4334 10.2661 16.5044 9.94591C16.5753 9.62569 16.7731 9.45371 16.7731 9.45371L17.2437 9.61223C17.2437 9.61223 16.7267 10.2474 16.9739 10.447L18.8171 10.8734L18.7443 11.0967H18.5327L18.5898 11.289L16.5755 11.1498C16.5755 11.1498 16.3511 11.4342 16.3511 11.3616C16.3511 11.289 16.3389 11.289 16.2397 11.289C16.1406 11.289 16.0891 11.1498 16.0891 11.1498L15.9581 11.2003C15.9581 11.2003 15.9779 11.203 15.8131 11.1498C15.6484 11.0967 15.5519 11.0967 15.5519 11.0967L14.8715 11.0465V11.1498C14.8715 11.1498 14.6913 11.1588 14.7539 11.2003C14.8165 11.2417 16.0891 11.289 16.0891 11.289L16.0116 11.432C16.0116 11.432 16.6408 11.4342 16.7731 11.3616C16.9054 11.289 16.8203 11.5225 16.8203 11.5225H17.4453C17.4453 11.5225 17.2903 11.6693 17.0916 11.6693C16.8929 11.6693 17.662 11.9132 17.662 11.9132C17.662 11.9132 17.2326 12.0464 17.0338 11.9583C16.835 11.8702 17.1182 12.1286 17.2437 12.1939C17.3693 12.2592 16.8021 12.2534 16.5755 12.0015C16.5755 12.0015 16.6467 12.1881 16.5755 12.2415C16.5755 12.2415 16.1787 11.7739 15.9804 11.7739C15.7822 11.7739 16.0116 12.0822 16.0116 12.0822C16.0116 12.0822 15.8983 11.921 15.7719 11.9864C15.6455 12.0519 15.5519 12.126 15.5519 12.126C15.5519 12.126 15.469 11.8404 15.031 11.7223C14.593 11.6042 14.74 11.5608 14.3845 11.5225C14.0291 11.4842 14.0112 11.289 13.9623 11.289C13.9135 11.289 13.5376 10.96 13.5376 10.96C13.5376 10.96 13.454 10.6515 13.65 10.6515C13.846 10.6515 14.1569 10.5592 14.2707 10.6515C14.3845 10.7437 14.4327 10.6515 14.4327 10.6515H14.633L14.92 10.8734H15.4895C15.4895 10.8734 15.5986 10.7048 15.7719 10.6515C15.9452 10.5981 15.7719 10.447 15.7719 10.447C15.7719 10.447 15.3584 10.4705 15.1909 10.5346C15.0235 10.5986 15.1308 10.2246 15.1308 10.2246L14.3845 10.089L14.2707 10.2246L14.0237 10.2989V10.447L13.7633 10.3897L13.8382 9.94591L13.2289 10.2246L12.2866 9.45371Z" fill="#FFC221"/>
<path fill-rule="evenodd" clip-rule="evenodd" d="M16.0346 11.3894L16.0891 11.289C15.3154 11.2602 14.8771 11.2331 14.7738 11.2075C14.7641 11.2051 14.7575 11.2027 14.7539 11.2003C14.6913 11.1588 14.8715 11.1498 14.8715 11.1498V11.0861V11.0465L14.9148 11.0497L15.5519 11.0967C15.6162 11.0967 15.7033 11.1144 15.8131 11.1498C15.8598 11.1649 15.8954 11.1766 15.9198 11.1849C15.9214 11.1811 15.9241 11.1774 15.9291 11.1706C15.9407 11.1632 15.9455 11.1602 15.9506 11.159C15.9541 11.1581 15.9578 11.1581 15.964 11.1581C15.964 11.1581 15.9609 11.2007 15.9581 11.2003C15.9581 11.2003 16.0485 11.1647 16.0497 11.165L16.0891 11.1498C16.1049 11.1926 16.1241 11.2254 16.1466 11.2485L16.1556 11.257C16.18 11.2783 16.208 11.289 16.2397 11.289C16.3389 11.289 16.3511 11.289 16.3511 11.3616C16.3511 11.41 16.4259 11.3394 16.5755 11.1498L18.5898 11.289L18.5327 11.1393L18.5418 11.1274L18.5327 11.0967H18.5652L18.5743 11.0847L18.5778 11.0967H18.7443L18.8171 10.8734L16.9739 10.447C16.8091 10.3139 16.899 10.0357 17.2437 9.61223L16.7731 9.45371C16.6412 9.56836 16.5516 9.73243 16.5044 9.94591C16.4516 10.1841 16.3983 10.1819 16.2084 10.174C16.143 10.1713 16.0614 10.1679 15.9581 10.1734C15.6892 10.1878 15.4672 10.0506 15.2921 9.76166L15.1909 10.0382L14.3845 9.86968V9.58099H14.2707V9.37056L13.9623 9.29489L13.8525 9.66377L13.8703 9.68301L13.8451 9.68873L13.8382 9.71168L13.8219 9.69398L13.7967 9.69969L13.8041 9.67474L13.4081 9.24597L12.2866 9.45371L13.2289 10.2246L13.7907 9.96766L13.7955 9.93892L13.8175 9.95538L13.8382 9.94591L13.8345 9.96809L13.8565 9.98455L13.8296 9.99682L13.7633 10.3897L14.0237 10.447V10.2989L14.2707 10.2246L14.3845 10.089C14.3845 10.089 15.0888 10.2143 15.092 10.2175L15.1308 10.2246C15.1271 10.2376 15.1236 10.2502 15.1195 10.2658C15.0619 10.4853 15.0857 10.5749 15.1909 10.5346C15.3026 10.4919 15.4962 10.4627 15.7719 10.447C15.8874 10.5477 15.8874 10.6159 15.7719 10.6515C15.6564 10.687 15.5622 10.761 15.4895 10.8734H14.92L14.633 10.6515H14.4327C14.4006 10.713 14.3466 10.713 14.2707 10.6515C14.1941 10.5894 14.0284 10.6108 13.8685 10.6315C13.7906 10.6416 13.7141 10.6515 13.65 10.6515C13.5193 10.6515 13.4818 10.7543 13.5376 10.96C13.7882 11.1793 13.9298 11.289 13.9623 11.289C13.9759 11.289 13.9871 11.3041 14.0039 11.3268C14.0473 11.3856 14.1281 11.4949 14.3845 11.5225C14.5771 11.5433 14.6222 11.5655 14.6928 11.6004C14.7524 11.6298 14.8303 11.6682 15.031 11.7223C15.323 11.8011 15.4966 11.9356 15.5519 12.126C15.5519 12.126 15.6455 12.0519 15.7719 11.9864C15.8536 11.9442 15.9311 11.9728 16.0045 12.0724C15.9675 12.0198 15.8034 11.7739 15.9804 11.7739C16.1126 11.7739 16.311 11.9297 16.5755 12.2415C16.6113 12.2146 16.6201 12.1625 16.6019 12.0851C16.5804 12.0678 16.5607 12.0493 16.5431 12.0297C16.5431 12.0297 16.5765 12.004 16.5809 12.0074L16.6161 11.9865C16.6261 12.0128 16.6342 12.0375 16.6404 12.0608C16.8939 12.2538 17.3586 12.2536 17.2437 12.1939C17.1689 12.155 17.038 12.0474 16.9834 11.9816C16.9559 11.9472 16.9556 11.9288 17.0132 11.9497C17.0194 11.9521 17.0263 11.955 17.0338 11.9583C17.1664 12.0171 17.3758 12.002 17.662 11.9132C17.3635 11.8185 17.1744 11.7514 17.0832 11.706C17.0373 11.6815 17.0401 11.6693 17.0927 11.6692C17.0917 11.6658 17.0901 11.6628 17.0878 11.6589C17.0905 11.6609 17.0946 11.6635 17.1048 11.6691C17.1974 11.6668 17.2827 11.6403 17.3608 11.5895H17.3954C17.408 11.5743 17.4204 11.5581 17.4327 11.5409L17.4312 11.5354C17.436 11.5312 17.4406 11.5269 17.4453 11.5225H16.8662L16.861 11.5369L16.8508 11.5225H16.8203C16.8239 11.5126 16.8272 11.503 16.8303 11.4939L16.8348 11.4799C16.8733 11.3573 16.8527 11.3179 16.7731 11.3616C16.6884 11.4081 16.4509 11.4316 16.0606 11.432L16.0498 11.452L16.0376 11.432L16.0116 11.432L16.0238 11.4093L16.0117 11.3894L16.0346 11.3894ZM17.4312 11.5354L17.4279 11.5226H17.3802C17.3603 11.5478 17.3399 11.5701 17.3189 11.5895H17.3608C17.385 11.5738 17.4085 11.5558 17.4312 11.5354ZM13.2356 10.1746L12.3851 9.47886L13.3924 9.29227L13.8581 9.79654L13.9923 9.34616L14.2274 9.40387V9.62362H14.3413V9.90421L15.2189 10.0877L15.3031 9.85757C15.4786 10.109 15.6987 10.23 15.9605 10.216C16.0392 10.2118 16.1013 10.2123 16.1926 10.216C16.3444 10.2222 16.3777 10.2204 16.4272 10.1906C16.4855 10.1556 16.517 10.0893 16.5467 9.955C16.5899 9.76014 16.6689 9.60961 16.7834 9.50224L17.1719 9.63309C16.8448 10.0475 16.7617 10.3308 16.9543 10.4862L18.7616 10.9044L18.7127 11.0541H18.475L18.5309 11.2422L16.5556 11.1058L16.5414 11.1237C16.4751 11.2078 16.4238 11.2679 16.3884 11.3034C16.3748 11.256 16.3352 11.2464 16.2398 11.2464C16.1948 11.2464 16.1585 11.2129 16.1298 11.1353L16.1147 11.0943C16.1147 11.0943 15.9515 11.1507 15.9462 11.1489C15.9217 11.1403 15.8819 11.1272 15.8267 11.1094C15.7138 11.073 15.6231 11.0544 15.5536 11.0541L14.8282 11.0006V11.1107C14.8184 11.1118 14.8087 11.113 14.7994 11.1145C14.7684 11.1193 14.7448 11.1255 14.7278 11.1355C14.6857 11.1603 14.6881 11.2081 14.7298 11.2356C14.7813 11.2698 15.1835 11.2973 16.0184 11.329L15.9396 11.4743L16.0114 11.4746C16.4397 11.4761 16.6966 11.4524 16.7942 11.3988C16.8004 11.3954 16.8058 11.3928 16.8103 11.391C16.8099 11.3977 16.8088 11.4064 16.8068 11.4168C16.8021 11.4406 16.7931 11.4711 16.7796 11.5082L16.7588 11.5652H17.3189C17.2491 11.6063 17.1735 11.6267 17.0916 11.6267C17.0699 11.6267 17.054 11.6284 17.041 11.6335C17.0098 11.6457 16.9969 11.6802 17.0173 11.7089C17.0311 11.7284 17.0615 11.7453 17.1176 11.7693C17.1964 11.803 17.3283 11.85 17.5138 11.9104C17.306 11.9615 17.1516 11.9638 17.0516 11.9195C17.0238 11.9071 17.0025 11.9001 16.9856 11.8982C16.9518 11.8944 16.9202 11.9122 16.9219 11.9506C16.9231 11.9783 16.9447 12.0068 16.9863 12.0485C17.0318 12.0941 17.0945 12.1462 17.1503 12.1856C17.12 12.1841 17.0851 12.1805 17.0487 12.1746C16.8666 12.1454 16.6996 12.0752 16.608 11.9733L16.4527 11.8006L16.5351 12.0165C16.5608 12.084 16.5705 12.1336 16.5677 12.1663C16.3152 11.8766 16.1229 11.7313 15.9805 11.7313C15.915 11.7313 15.871 11.7605 15.8594 11.813C15.8521 11.8459 15.8585 11.8839 15.8749 11.9275C15.835 11.9202 15.7937 11.927 15.7518 11.9488C15.7385 11.9556 15.7252 11.9628 15.712 11.9701C15.6641 11.9969 15.6189 12.0255 15.5731 12.0573C15.4973 11.8809 15.3188 11.7558 15.0425 11.6813C14.9379 11.6531 14.8614 11.6278 14.8001 11.6026C14.7769 11.5931 14.7568 11.584 14.7342 11.5731L14.7263 11.5692L14.7263 11.5692C14.7136 11.5629 14.6897 11.5512 14.6814 11.5473C14.6087 11.5132 14.5403 11.4965 14.3893 11.4802C14.2579 11.466 14.1688 11.4298 14.1061 11.3767C14.0886 11.3619 14.0616 11.3297 14.0387 11.3024L14.0387 11.3024C14.0201 11.2803 14.0042 11.2613 13.9982 11.2574C13.9886 11.2511 13.9779 11.2472 13.9634 11.2452C13.9579 11.2427 13.9503 11.2385 13.9409 11.2326C13.9205 11.2197 13.893 11.1999 13.8586 11.1733C13.7904 11.1205 13.6962 11.0416 13.5762 10.9368C13.5312 10.7631 13.5584 10.6941 13.65 10.6941C13.7069 10.6941 13.7551 10.6892 13.8784 10.6732L13.9033 10.67C14.1013 10.6448 14.1962 10.6463 14.2432 10.6844C14.3289 10.7538 14.4078 10.7604 14.4569 10.6941H14.618L14.9051 10.9161H15.5133L15.526 10.8963C15.5935 10.7922 15.6794 10.7246 15.7849 10.6922C15.9383 10.6449 15.9383 10.5351 15.8007 10.4151L15.7694 10.4044C15.4896 10.4204 15.2922 10.4502 15.1753 10.4949C15.1435 10.5071 15.1394 10.5052 15.1348 10.4811C15.1264 10.4378 15.1385 10.3549 15.1725 10.2362L15.1854 10.1912L14.3674 10.0426L14.2456 10.1876L13.9804 10.2674V10.3938L13.8128 10.3569L13.8944 9.87326L13.2356 10.1746ZM16.0266 12.1032C16.0266 12.1032 16.0184 12.0921 16.0045 12.0724C16.0119 12.0824 16.0193 12.0927 16.0266 12.1032ZM15.9581 11.2016C15.9649 11.2025 15.9665 11.2019 15.963 11.1997L15.9581 11.2016ZM14.7726 11.2088L14.7723 11.2089L14.7731 11.2085L14.7726 11.2088Z" fill="#4D4D4D"/>
</g>
<defs>
<clipPath id="clip0_58_5614">
<rect width="21.4187" height="16.064" fill="white" transform="translate(0 0.837402)"/>
</clipPath>
</defs>
</svg>
