<svg width="23" height="17" viewBox="0 0 23 17" fill="none" xmlns="http://www.w3.org/2000/svg">
<g clip-path="url(#clip0_58_5593)">
<rect width="21.4187" height="16.064" transform="translate(0.674805 0.837402)" fill="white"/>
<path fill-rule="evenodd" clip-rule="evenodd" d="M0.965454 0.805359V16.8694H22.3842V0.805359H0.965454Z" fill="#2E42A5"/>
<g clip-path="url(#clip1_58_5593)">
<rect width="12.048" height="9.37069" transform="translate(0.674805 0.837402)" fill="#2E42A5"/>
<path d="M-0.666748 9.53865L1.98445 10.7014L12.783 2.10161L14.1814 0.373703L11.3463 -0.0149284L6.94188 3.69097L3.39675 6.18788L-0.666748 9.53865Z" fill="#F7FCFF"/>
<path d="M-0.303833 10.3533L1.04683 11.0281L13.6792 0.213151H11.7827L-0.303833 10.3533Z" fill="#F50100"/>
<path d="M14.0643 9.53865L11.4131 10.7014L0.614614 2.10161L-0.783836 0.373703L2.05125 -0.0149284L6.4557 3.69097L10.0008 6.18788L14.0643 9.53865Z" fill="#F7FCFF"/>
<path d="M13.9739 10.1233L12.6232 10.7981L7.24422 6.16766L5.64946 5.65032L-0.918388 0.379617H0.978103L7.54226 5.52521L9.28585 6.14557L13.9739 10.1233Z" fill="#F50100"/>
<path fill-rule="evenodd" clip-rule="evenodd" d="M7.35779 0.837402H6.01912V4.85341H0.674805V6.19208H6.01912V10.2081H7.35779V6.19208H12.7228V4.85341H7.35779V0.837402Z" fill="#F50100"/>
<path fill-rule="evenodd" clip-rule="evenodd" d="M5.01512 0.837402H8.36179V3.84941H12.7228V7.19609H8.36179L8.37216 10.2081H5.02548L5.01512 7.19609H0.674805V3.84941H5.01512V0.837402ZM6.01912 4.85341H0.674805V6.19208H6.01912V10.2081H7.35779V6.19208H12.7228V4.85341H7.35779V0.837402H6.01912V4.85341Z" fill="#F7FCFF"/>
</g>
<g clip-path="url(#clip2_58_5593)">
<path d="M6.98945 14.5267L6.11821 15.3319L6.20449 14.1487L5.03179 13.9695L6.01062 13.2993L5.41953 12.2707L6.55383 12.6181L6.98945 11.5147L7.42507 12.6181L8.55937 12.2707L7.96828 13.2993L8.94711 13.9695L7.77441 14.1487L7.86069 15.3319L6.98945 14.5267Z" fill="#F7FCFF"/>
<path d="M15.6908 9.50672L15.11 10.0435L15.1675 9.25471L14.3857 9.13527L15.0383 8.68845L14.6442 8.00274L15.4004 8.23434L15.6908 7.49872L15.9813 8.23434L16.7375 8.00274L16.3434 8.68845L16.9959 9.13527L16.2142 9.25471L16.2717 10.0435L15.6908 9.50672Z" fill="#F7FCFF"/>
<path d="M17.0295 4.15205L16.4486 4.68881L16.5062 3.90004L15.7244 3.7806L16.3769 3.33377L15.9829 2.64807L16.7391 2.87966L17.0295 2.14404L17.3199 2.87966L18.0761 2.64807L17.682 3.33377L18.3346 3.7806L17.5528 3.90004L17.6103 4.68881L17.0295 4.15205Z" fill="#F7FCFF"/>
<path d="M20.3761 6.82942L19.7953 7.36618L19.8528 6.5774L19.071 6.45796L19.7236 6.01114L19.3295 5.32543L20.0857 5.55703L20.3761 4.82141L20.6666 5.55703L21.4228 5.32543L21.0287 6.01114L21.6813 6.45796L20.8995 6.5774L20.957 7.36618L20.3761 6.82942Z" fill="#F7FCFF"/>
<path d="M17.6988 15.5308L17.118 16.0675L17.1755 15.2788L16.3937 15.1593L17.0462 14.7125L16.6522 14.0268L17.4084 14.2584L17.6988 13.5228L17.9892 14.2584L18.7454 14.0268L18.3513 14.7125L19.0039 15.1593L18.2221 15.2788L18.2796 16.0675L17.6988 15.5308Z" fill="#F7FCFF"/>
<path d="M20.0415 10.3434L19.4513 10.6537L19.564 9.99653L19.0866 9.53115L19.7464 9.43528L20.0415 8.8374L20.3365 9.43528L20.9963 9.53115L20.5189 9.99653L20.6316 10.6537L20.0415 10.3434Z" fill="#F7FCFF"/>
</g>
</g>
<defs>
<clipPath id="clip0_58_5593">
<rect width="21.4187" height="16.064" fill="white" transform="translate(0.674805 0.837402)"/>
</clipPath>
<clipPath id="clip1_58_5593">
<rect width="12.048" height="9.37069" fill="white" transform="translate(0.674805 0.837402)"/>
</clipPath>
<clipPath id="clip2_58_5593">
<rect width="16.7334" height="14.056" fill="white" transform="translate(4.98145 2.14404)"/>
</clipPath>
</defs>
</svg>
