<svg width="22" height="17" viewBox="0 0 22 17" fill="none" xmlns="http://www.w3.org/2000/svg">
<g clip-path="url(#clip0_58_5549)">
<rect width="21.4187" height="16.064" transform="translate(0.0249023 0.837402)" fill="white"/>
<path fill-rule="evenodd" clip-rule="evenodd" d="M0.315552 0.805359H21.7343V16.8694H0.315552V0.805359Z" fill="#2E42A5"/>
<path fill-rule="evenodd" clip-rule="evenodd" d="M6.3396 0.805359H19.7263V16.8694L6.3396 0.805359Z" fill="#FECA00"/>
<path fill-rule="evenodd" clip-rule="evenodd" d="M4.40389 2.67536L3.61704 3.08904L3.76731 2.21286L3.13074 1.59236L4.01046 1.46453L4.40389 0.667358L4.79731 1.46453L5.67704 1.59236L5.04046 2.21286L5.19074 3.08904L4.40389 2.67536Z" fill="#F7FCFF"/>
<path fill-rule="evenodd" clip-rule="evenodd" d="M6.73763 5.54023L5.95078 5.9539L6.10105 5.07773L5.46448 4.45722L6.3442 4.32939L6.73763 3.53223L7.13105 4.32939L8.01078 4.45722L7.3742 5.07773L7.52448 5.9539L6.73763 5.54023Z" fill="#F7FCFF"/>
<path fill-rule="evenodd" clip-rule="evenodd" d="M8.92549 8.32771L8.13864 8.74138L8.28892 7.86521L7.65234 7.2447L8.53207 7.11687L8.92549 6.3197L9.31892 7.11687L10.1986 7.2447L9.56207 7.86521L9.71235 8.74138L8.92549 8.32771Z" fill="#F7FCFF"/>
<path fill-rule="evenodd" clip-rule="evenodd" d="M11.0687 10.9988L10.2818 11.4125L10.4321 10.5364L9.79553 9.91584L10.6753 9.78801L11.0687 8.99084L11.4621 9.78801L12.3418 9.91584L11.7053 10.5364L11.8555 11.4125L11.0687 10.9988Z" fill="#F7FCFF"/>
<path fill-rule="evenodd" clip-rule="evenodd" d="M13.3773 13.7482L12.5904 14.1619L12.7407 13.2857L12.1041 12.6652L12.9839 12.5373L13.3773 11.7402L13.7707 12.5373L14.6504 12.6652L14.0139 13.2857L14.1641 14.1619L13.3773 13.7482Z" fill="#F7FCFF"/>
<path fill-rule="evenodd" clip-rule="evenodd" d="M15.929 16.4083L15.1422 16.8219L15.2925 15.9458L14.6559 15.3253L15.5356 15.1974L15.929 14.4003L16.3225 15.1974L17.2022 15.3253L16.5656 15.9458L16.7159 16.8219L15.929 16.4083Z" fill="#F7FCFF"/>
</g>
<defs>
<clipPath id="clip0_58_5549">
<rect width="21.4187" height="16.064" fill="white" transform="translate(0.0249023 0.837402)"/>
</clipPath>
</defs>
</svg>
