<svg width="23" height="17" viewBox="0 0 23 17" fill="none" xmlns="http://www.w3.org/2000/svg">
<g clip-path="url(#clip0_58_5541)">
<rect width="21.4187" height="16.064" transform="translate(0.862061 0.837402)" fill="white"/>
<path fill-rule="evenodd" clip-rule="evenodd" d="M15.8781 0.805359H22.5714V16.8694H15.8781V0.805359Z" fill="#2E42A5"/>
<path fill-rule="evenodd" clip-rule="evenodd" d="M7.84607 0.805359H15.8781V16.8694H7.84607V0.805359Z" fill="#FECA00"/>
<path fill-rule="evenodd" clip-rule="evenodd" d="M1.15271 0.805359H7.84606V16.8694H1.15271V0.805359Z" fill="#2E42A5"/>
<path fill-rule="evenodd" clip-rule="evenodd" d="M13.6104 11.2923C13.7362 10.4292 14.6283 8.55313 14.6283 8.55313L15.042 7.45234L13.4023 7.98438L13.7904 8.18632L13.031 10.3272L12.4574 10.1902V6.06131L12.9112 6.02818L11.792 4.4007L10.6993 6.06131H11.2265V10.1902L10.5805 10.2983L10.1196 8.13314L10.3856 7.91014L8.60168 7.58125L9.13429 8.56401C9.13429 8.56401 9.8511 10.2485 10.1196 11.2923L11.2265 11.2071V12.8115H12.4574V11.2071L13.6104 11.2923Z" fill="black"/>
</g>
<defs>
<clipPath id="clip0_58_5541">
<rect width="21.4187" height="16.064" fill="white" transform="translate(0.862061 0.837402)"/>
</clipPath>
</defs>
</svg>
