<svg width="22" height="17" viewBox="0 0 22 17" fill="none" xmlns="http://www.w3.org/2000/svg">
<g clip-path="url(#clip0_58_5494)">
<rect width="21.4187" height="16.064" transform="translate(0.512329 0.674927)" fill="white"/>
<rect x="0.802979" y="0.642883" width="21.4187" height="16.064" rx="1.33867" fill="#5EAA22"/>
<mask id="path-2-outside-1_58_5494" maskUnits="userSpaceOnUse" x="-5.19702" y="-1.35712" width="33" height="20" fill="black">
<rect fill="white" x="-5.19702" y="-1.35712" width="33" height="20"/>
<path fill-rule="evenodd" clip-rule="evenodd" d="M11.5123 8.6749L22.2217 0.642883H0.802979L11.5123 8.6749ZM11.5123 8.6749L0.802979 16.7069H22.2217L11.5123 8.6749Z"/>
</mask>
<path fill-rule="evenodd" clip-rule="evenodd" d="M11.5123 8.6749L22.2217 0.642883H0.802979L11.5123 8.6749ZM11.5123 8.6749L0.802979 16.7069H22.2217L11.5123 8.6749Z" fill="#DD2C2B"/>
<path d="M22.2217 0.642883L23.2257 1.98155L27.2417 -1.03045H22.2217V0.642883ZM0.802979 0.642883V-1.03045H-4.21703L-0.201024 1.98155L0.802979 0.642883ZM0.802979 16.7069L-0.201024 15.3683L-4.21703 18.3803H0.802979V16.7069ZM22.2217 16.7069V18.3803H27.2417L23.2257 15.3683L22.2217 16.7069ZM21.2177 -0.695787L10.5083 7.33623L12.5163 10.0136L23.2257 1.98155L21.2177 -0.695787ZM0.802979 2.31622H22.2217V-1.03045H0.802979V2.31622ZM12.5163 7.33623L1.80698 -0.695787L-0.201024 1.98155L10.5083 10.0136L12.5163 7.33623ZM10.5083 7.33623L-0.201024 15.3683L1.80698 18.0456L12.5163 10.0136L10.5083 7.33623ZM0.802979 18.3803H22.2217V15.0336H0.802979V18.3803ZM23.2257 15.3683L12.5163 7.33623L10.5083 10.0136L21.2177 18.0456L23.2257 15.3683Z" fill="white" mask="url(#path-2-outside-1_58_5494)"/>
<path fill-rule="evenodd" clip-rule="evenodd" d="M11.5123 12.6909C13.7303 12.6909 15.5284 10.8929 15.5284 8.67488C15.5284 6.4569 13.7303 4.65887 11.5123 4.65887C9.29437 4.65887 7.49634 6.4569 7.49634 8.67488C7.49634 10.8929 9.29437 12.6909 11.5123 12.6909Z" fill="white"/>
<path fill-rule="evenodd" clip-rule="evenodd" d="M11.1308 7.59549L10.353 7.60401L10.7493 6.93468L10.353 6.26534L11.1308 6.27386L11.5123 5.59601L11.8938 6.27386L12.6716 6.26534L12.2754 6.93468L12.6716 7.60401L11.8938 7.59549L11.5123 8.27335L11.1308 7.59549Z" fill="#DD2C2B" stroke="#5EAA22" stroke-width="0.167334"/>
<path fill-rule="evenodd" clip-rule="evenodd" d="M9.45747 10.3397L8.67966 10.3482L9.07594 9.67888L8.67966 9.00954L9.45747 9.01806L9.83899 8.34021L10.2205 9.01806L10.9983 9.00954L10.602 9.67888L10.9983 10.3482L10.2205 10.3397L9.83899 11.0175L9.45747 10.3397Z" fill="#DD2C2B" stroke="#5EAA22" stroke-width="0.167334"/>
<path fill-rule="evenodd" clip-rule="evenodd" d="M12.8041 10.3397L12.0263 10.3482L12.4226 9.67888L12.0263 9.00954L12.8041 9.01806L13.1857 8.34021L13.5672 9.01806L14.345 9.00954L13.9487 9.67888L14.345 10.3482L13.5672 10.3397L13.1857 11.0175L12.8041 10.3397Z" fill="#DD2C2B" stroke="#5EAA22" stroke-width="0.167334"/>
</g>
<defs>
<clipPath id="clip0_58_5494">
<rect width="21.4187" height="16.064" fill="white" transform="translate(0.512329 0.674927)"/>
</clipPath>
</defs>
</svg>
