<svg width="22" height="17" viewBox="0 0 22 17" fill="none" xmlns="http://www.w3.org/2000/svg">
<g clip-path="url(#clip0_58_5444)">
<rect width="21.4187" height="16.064" transform="translate(0.0249023 0.674927)" fill="white"/>
<path fill-rule="evenodd" clip-rule="evenodd" d="M0.315552 0.642883V16.7069H21.7343V0.642883H0.315552Z" fill="#AF0100"/>
<mask id="mask0_58_5444" style="mask-type:luminance" maskUnits="userSpaceOnUse" x="0" y="0" width="22" height="17">
<path fill-rule="evenodd" clip-rule="evenodd" d="M0.315552 0.642883V16.7069H21.7343V0.642883H0.315552Z" fill="white"/>
</mask>
<g mask="url(#mask0_58_5444)">
<path fill-rule="evenodd" clip-rule="evenodd" d="M14.3915 8.03412L20.341 8.03412V14.0514C20.341 14.0514 20.1563 14.8797 19.0111 15.4267C17.8658 15.9737 17.3663 15.9737 17.3663 15.9737C17.3663 15.9737 15.542 15.5254 15.1648 15.1057C14.7877 14.6859 14.3915 14.5307 14.3915 13.7969C14.3915 13.0632 14.3915 8.03412 14.3915 8.03412Z" fill="white"/>
<mask id="mask1_58_5444" style="mask-type:luminance" maskUnits="userSpaceOnUse" x="14" y="8" width="7" height="8">
<path fill-rule="evenodd" clip-rule="evenodd" d="M14.3915 8.03412L20.341 8.03412V14.0514C20.341 14.0514 20.1563 14.8797 19.0111 15.4267C17.8658 15.9737 17.3663 15.9737 17.3663 15.9737C17.3663 15.9737 15.542 15.5254 15.1648 15.1057C14.7877 14.6859 14.3915 14.5307 14.3915 13.7969C14.3915 13.0632 14.3915 8.03412 14.3915 8.03412Z" fill="white"/>
</mask>
<g mask="url(#mask1_58_5444)">
<path fill-rule="evenodd" clip-rule="evenodd" d="M17.3537 8.38704C17.3761 8.35481 17.3878 8.32397 17.3878 8.32397L17.3857 8.42462C17.407 8.44442 17.4331 8.45922 17.4638 8.45922L17.5957 8.3811C17.5957 8.3811 17.5654 8.5537 17.6052 8.54882C17.6052 8.54882 17.7282 8.46754 17.7769 8.51143C17.7769 8.51143 17.6338 8.67541 17.8061 8.67649C17.8061 8.67649 18.0228 8.64163 18.004 8.74222C18.004 8.74222 17.8416 9.04034 17.9099 9.05925L18.178 9.05137C18.178 9.05137 17.9983 9.20762 18.0031 9.27338L18.0926 9.34363C18.0926 9.34363 18.1428 9.22013 18.185 9.32119C18.185 9.32119 18.1905 9.50471 18.1624 9.50471L17.9241 9.58098C17.9241 9.58098 17.9087 9.67072 17.9939 9.67072C17.9939 9.67072 18.1911 9.58726 18.1967 9.67201C18.1967 9.67201 18.1707 9.77004 18.1592 9.85281C18.1592 9.85281 18.1467 10.1531 18.1448 10.1789C18.1448 10.1789 18.1604 10.1677 18.3104 10.3444C18.3104 10.3444 18.6889 10.5836 18.7583 10.5285C18.7774 10.5133 18.7899 10.4822 18.8041 10.447C18.8412 10.3548 18.8896 10.2344 19.0989 10.2993L19.1008 10.2999C19.3883 10.3891 19.4582 10.4108 19.3855 10.5285C19.3126 10.6464 19.0358 10.9274 19.0358 10.9274L18.7959 11.89H19.3099C19.4649 11.89 19.6074 11.9501 19.6347 12.0786C19.662 12.2071 19.6692 12.457 19.6692 12.4868C19.6692 12.4909 19.6685 12.4964 19.6677 12.503C19.6628 12.5447 19.6531 12.6275 19.7759 12.6275C19.7759 12.6275 20.0217 12.6593 19.9708 12.6772C19.9708 12.6772 19.7965 12.6436 19.7953 12.7969C19.7953 12.7969 19.7284 12.8166 19.7608 13.006C19.7608 13.006 19.8959 13.4208 19.8063 13.3353C19.8063 13.3353 19.6225 13.1196 19.6225 13.0278C19.6225 13.0278 19.4913 13.0795 19.4954 13.2146C19.4954 13.2146 19.3712 13.3807 19.375 13.2183C19.375 13.2183 19.5853 12.8194 19.4678 12.9098C19.4678 12.9098 19.3155 13.2392 19.2955 13.1893L18.7306 13.0365L18.5154 13.9835C18.5154 13.9835 18.5727 14.1611 18.7306 14.1611C18.7878 14.1611 18.8387 14.1388 18.885 14.1184C18.9666 14.0826 19.0343 14.0528 19.0989 14.1611C19.2002 14.3311 19.2453 14.347 19.2955 14.347C19.3457 14.347 19.4043 14.4122 19.375 14.5119C19.3457 14.6117 19.214 14.6867 19.1565 14.6867C19.1353 14.6867 19.1409 14.7047 19.148 14.7275C19.1601 14.7666 19.1767 14.8197 19.0694 14.8197C18.9844 14.8197 18.9419 14.8095 18.8995 14.7994C18.8572 14.7892 18.8149 14.7791 18.7306 14.7791C18.7108 14.7791 18.6912 14.7793 18.672 14.7796C18.5269 14.7812 18.4037 14.7826 18.4037 14.6867C18.4037 14.5937 18.2919 14.5113 18.1929 14.4383C18.1763 14.4261 18.1601 14.4142 18.1448 14.4025C18.0384 14.3209 17.8061 13.3998 17.8061 13.3998L17.3668 10.6333L17.3537 9.99063L17.3406 10.6333L16.9013 13.3998C16.9013 13.3998 16.6691 14.3209 16.5626 14.4025C16.5474 14.4142 16.5311 14.4261 16.5145 14.4383C16.4156 14.5113 16.3038 14.5937 16.3038 14.6867C16.3038 14.7826 16.1805 14.7812 16.0354 14.7796C16.0162 14.7793 15.9966 14.7791 15.9769 14.7791C15.8926 14.7791 15.8503 14.7892 15.808 14.7994C15.7655 14.8095 15.723 14.8197 15.638 14.8197C15.5308 14.8197 15.5473 14.7666 15.5595 14.7275C15.5666 14.7047 15.5722 14.6867 15.551 14.6867C15.4934 14.6867 15.3618 14.6117 15.3325 14.5119C15.3032 14.4122 15.3618 14.347 15.412 14.347C15.4621 14.347 15.5072 14.3311 15.6086 14.1611C15.6732 14.0528 15.7409 14.0826 15.8224 14.1184C15.8688 14.1388 15.9196 14.1611 15.9769 14.1611C16.1347 14.1611 16.1921 13.9835 16.1921 13.9835L15.9769 13.0365L15.412 13.1893C15.392 13.2392 15.2397 12.9098 15.2397 12.9098C15.1222 12.8194 15.3325 13.2183 15.3325 13.2183C15.3362 13.3807 15.2121 13.2146 15.2121 13.2146C15.2161 13.0795 15.085 13.0278 15.085 13.0278C15.085 13.1196 14.9012 13.3353 14.9012 13.3353C14.8115 13.4208 14.9467 13.006 14.9467 13.006C14.9791 12.8166 14.9121 12.7969 14.9121 12.7969C14.9109 12.6436 14.7367 12.6772 14.7367 12.6772C14.6858 12.6593 14.9316 12.6275 14.9316 12.6275C15.0544 12.6275 15.0446 12.5447 15.0397 12.503C15.0389 12.4964 15.0383 12.4909 15.0383 12.4868C15.0383 12.457 15.0454 12.2071 15.0727 12.0786C15.1001 11.9501 15.2425 11.89 15.3976 11.89H15.9116L15.6716 10.9274C15.6716 10.9274 15.3949 10.6464 15.322 10.5285C15.2493 10.4108 15.3192 10.3891 15.6067 10.2999L15.6086 10.2993C15.8179 10.2344 15.8663 10.3548 15.9034 10.447C15.9175 10.4822 15.93 10.5133 15.9492 10.5285C16.0186 10.5836 16.397 10.3444 16.397 10.3444C16.547 10.1677 16.5626 10.1789 16.5626 10.1789C16.5608 10.1531 16.5482 9.85281 16.5482 9.85281C16.5368 9.77004 16.5107 9.67201 16.5107 9.67201C16.5164 9.58726 16.7136 9.67072 16.7136 9.67072C16.7988 9.67072 16.7834 9.58098 16.7834 9.58098L16.545 9.50471C16.5169 9.50471 16.5224 9.32119 16.5224 9.32119C16.5647 9.22013 16.6149 9.34363 16.6149 9.34363L16.7043 9.27338C16.7091 9.20762 16.5295 9.05137 16.5295 9.05137L16.7976 9.05925C16.8658 9.04034 16.7034 8.74222 16.7034 8.74222C16.6847 8.64163 16.9013 8.67649 16.9013 8.67649C17.0737 8.67541 16.9305 8.51143 16.9305 8.51143C16.9793 8.46754 17.1023 8.54882 17.1023 8.54882C17.1421 8.5537 17.1118 8.3811 17.1118 8.3811L17.2436 8.45922C17.2743 8.45922 17.3005 8.44442 17.3218 8.42462L17.3197 8.32397C17.3197 8.32397 17.3314 8.35481 17.3537 8.38704Z" fill="#CF142B"/>
<path fill-rule="evenodd" clip-rule="evenodd" d="M14.5205 14.0295L14.3016 13.8143V16.2526H17.804L20.3957 16.2526V13.8143L20.1768 14.0295C20.2096 13.7723 20.1599 13.855 20.1006 13.9538C20.0725 14.0006 20.0422 14.051 20.0175 14.0706C19.9943 14.0892 19.989 14.014 19.9838 13.9404C19.9792 13.8752 19.9747 13.8113 19.9579 13.8143C19.9579 13.8143 19.8916 13.7086 19.8509 13.7486C19.8428 13.7566 19.8367 13.8155 19.8298 13.8821C19.8224 13.954 19.8141 14.035 19.8012 14.0706C19.7862 14.1121 19.739 14.0295 19.739 14.0295C19.739 14.0295 19.7414 13.717 19.6935 13.67C19.6457 13.623 19.6409 14.0295 19.6409 14.0295C19.6409 14.0295 19.5676 13.7283 19.4936 13.7486C19.4811 13.752 19.4747 13.8308 19.4677 13.9155C19.4609 13.9979 19.4537 14.0859 19.4401 14.1158C19.4121 14.177 19.3466 13.7486 19.3466 13.7486C19.3466 13.7486 19.3272 14.0995 19.2618 14.1158C19.2508 14.1185 19.2407 14.0618 19.2295 13.9991C19.2188 13.939 19.2071 13.8734 19.1928 13.8497C19.1625 13.7995 19.0199 13.9957 19.0199 13.9957L18.9201 13.5909L18.6445 13.8143H16.8934L16.0528 13.8143L15.7772 13.5909L15.6775 13.9957C15.6775 13.9957 15.5348 13.7995 15.5045 13.8497C15.4902 13.8734 15.4785 13.939 15.4678 13.9991C15.4566 14.0618 15.4465 14.1185 15.4356 14.1158C15.3702 14.0995 15.3507 13.7486 15.3507 13.7486C15.3507 13.7486 15.2852 14.177 15.2573 14.1158C15.2436 14.0859 15.2364 13.9979 15.2296 13.9155C15.2227 13.8308 15.2162 13.752 15.2038 13.7486C15.1298 13.7283 15.0564 14.0295 15.0564 14.0295C15.0564 14.0295 15.0516 13.623 15.0038 13.67C14.9559 13.717 14.9583 14.0295 14.9583 14.0295C14.9583 14.0295 14.9112 14.1121 14.8962 14.0706C14.8833 14.035 14.8749 13.954 14.8675 13.8821C14.8606 13.8155 14.8546 13.7566 14.8464 13.7486C14.8057 13.7086 14.7394 13.8143 14.7394 13.8143C14.7227 13.8113 14.7182 13.8752 14.7136 13.9404C14.7084 14.014 14.7031 14.0892 14.6798 14.0706C14.6551 14.051 14.6249 14.0006 14.5968 13.9538C14.5374 13.855 14.4877 13.7723 14.5205 14.0295Z" fill="#5DC852"/>
<path fill-rule="evenodd" clip-rule="evenodd" d="M19.1778 10.6426C19.1778 10.6426 19.2065 10.7165 19.1778 10.7893V10.6426ZM17.3743 10.5239C17.4236 10.5313 17.4679 10.5433 17.5057 10.5535C17.5939 10.5774 17.647 10.5918 17.647 10.5168C17.647 10.4621 17.7918 10.5328 17.9914 10.6303C18.2515 10.7574 18.6046 10.9299 18.8521 10.9299C19.0677 10.9299 19.1499 10.8601 19.1778 10.7893V11.0739C19.1778 11.1247 19.189 11.185 19.1995 11.2417C19.2188 11.3457 19.2358 11.4377 19.1778 11.4377C19.088 11.4377 18.6861 11.7204 18.6861 12.0459C18.6861 12.3715 19.1778 12.639 19.1778 12.639C19.1778 12.639 18.8521 13.7851 18.5672 13.9602C18.3943 14.0665 18.2918 13.9793 18.2379 13.9334C18.203 13.9037 18.1885 13.8914 18.1885 13.9602C18.1885 14.1353 17.9415 14.3823 17.647 14.4798C17.4567 14.5428 17.5124 14.5911 17.5757 14.6459C17.6103 14.6759 17.647 14.7078 17.647 14.745C17.647 14.8293 17.4147 14.7115 17.3215 14.6608C17.2283 14.7115 16.9959 14.8293 16.9959 14.745C16.9959 14.7078 17.0327 14.6759 17.0673 14.6459C17.1305 14.5911 17.1863 14.5428 16.9959 14.4798C16.7014 14.3823 16.4545 14.1353 16.4545 13.9602C16.4545 13.8914 16.44 13.9037 16.4051 13.9334C16.3512 13.9793 16.2487 14.0665 16.0758 13.9602C15.7909 13.7851 15.4652 12.639 15.4652 12.639C15.4652 12.639 15.9568 12.3715 15.9568 12.0459C15.9568 11.7204 15.5549 11.4377 15.4652 11.4377C15.4071 11.4377 15.4242 11.3457 15.4435 11.2417C15.454 11.185 15.4652 11.1247 15.4652 11.0739V10.7893C15.4931 10.8601 15.5753 10.9299 15.7909 10.9299C16.0383 10.9299 16.3915 10.7574 16.6516 10.6303C16.8512 10.5328 16.9959 10.4622 16.9959 10.5168C16.9959 10.5918 17.049 10.5774 17.1373 10.5535C17.1751 10.5433 17.2194 10.5313 17.2687 10.5239C17.2734 10.5192 17.2783 10.5168 17.2835 10.5168C17.2964 10.5168 17.3091 10.5172 17.3215 10.5181C17.3339 10.5172 17.3466 10.5168 17.3595 10.5168C17.3647 10.5168 17.3696 10.5192 17.3743 10.5239ZM15.4652 10.6426C15.4652 10.6426 15.4365 10.7165 15.4652 10.7893V10.6426Z" fill="#4ABCE6"/>
<mask id="mask2_58_5444" style="mask-type:luminance" maskUnits="userSpaceOnUse" x="15" y="10" width="5" height="5">
<path fill-rule="evenodd" clip-rule="evenodd" d="M19.1778 10.6426C19.1778 10.6426 19.2065 10.7165 19.1778 10.7893V10.6426ZM17.3743 10.5239C17.4236 10.5313 17.4679 10.5433 17.5057 10.5535C17.5939 10.5774 17.647 10.5918 17.647 10.5168C17.647 10.4621 17.7918 10.5328 17.9914 10.6303C18.2515 10.7574 18.6046 10.9299 18.8521 10.9299C19.0677 10.9299 19.1499 10.8601 19.1778 10.7893V11.0739C19.1778 11.1247 19.189 11.185 19.1995 11.2417C19.2188 11.3457 19.2358 11.4377 19.1778 11.4377C19.088 11.4377 18.6861 11.7204 18.6861 12.0459C18.6861 12.3715 19.1778 12.639 19.1778 12.639C19.1778 12.639 18.8521 13.7851 18.5672 13.9602C18.3943 14.0665 18.2918 13.9793 18.2379 13.9334C18.203 13.9037 18.1885 13.8914 18.1885 13.9602C18.1885 14.1353 17.9415 14.3823 17.647 14.4798C17.4567 14.5428 17.5124 14.5911 17.5757 14.6459C17.6103 14.6759 17.647 14.7078 17.647 14.745C17.647 14.8293 17.4147 14.7115 17.3215 14.6608C17.2283 14.7115 16.9959 14.8293 16.9959 14.745C16.9959 14.7078 17.0327 14.6759 17.0673 14.6459C17.1305 14.5911 17.1863 14.5428 16.9959 14.4798C16.7014 14.3823 16.4545 14.1353 16.4545 13.9602C16.4545 13.8914 16.44 13.9037 16.4051 13.9334C16.3512 13.9793 16.2487 14.0665 16.0758 13.9602C15.7909 13.7851 15.4652 12.639 15.4652 12.639C15.4652 12.639 15.9568 12.3715 15.9568 12.0459C15.9568 11.7204 15.5549 11.4377 15.4652 11.4377C15.4071 11.4377 15.4242 11.3457 15.4435 11.2417C15.454 11.185 15.4652 11.1247 15.4652 11.0739V10.7893C15.4931 10.8601 15.5753 10.9299 15.7909 10.9299C16.0383 10.9299 16.3915 10.7574 16.6516 10.6303C16.8512 10.5328 16.9959 10.4622 16.9959 10.5168C16.9959 10.5918 17.049 10.5774 17.1373 10.5535C17.1751 10.5433 17.2194 10.5313 17.2687 10.5239C17.2734 10.5192 17.2783 10.5168 17.2835 10.5168C17.2964 10.5168 17.3091 10.5172 17.3215 10.5181C17.3339 10.5172 17.3466 10.5168 17.3595 10.5168C17.3647 10.5168 17.3696 10.5192 17.3743 10.5239ZM15.4652 10.6426C15.4652 10.6426 15.4365 10.7165 15.4652 10.7893V10.6426Z" fill="white"/>
</mask>
<g mask="url(#mask2_58_5444)">
<path fill-rule="evenodd" clip-rule="evenodd" d="M15.3524 11.9497C15.3524 11.9497 16.816 11.7938 17.6754 11.7938C18.5347 11.7938 18.0726 11.8467 18.4029 11.8838C18.7333 11.9208 19.0649 11.9497 19.0649 11.9497V14.89H15.3524V11.9497Z" fill="white"/>
<path fill-rule="evenodd" clip-rule="evenodd" d="M15.7003 11.5346C15.7003 11.5346 15.5807 11.3003 16.0659 11.2165C16.5512 11.1326 16.7013 11.0974 16.8852 11.316C17.0691 11.5346 17.4428 12.476 17.164 12.729C16.8852 12.9819 16.6909 13.2481 16.5806 13.1556C16.4703 13.063 16.7063 12.729 16.1229 12.729C15.5395 12.729 15.3402 12.729 15.3402 12.729L15.7003 11.5346Z" fill="#FFDA3A"/>
<path fill-rule="evenodd" clip-rule="evenodd" d="M18.1583 11.762L17.1123 12.0827C17.1123 12.0827 17.2071 12.7967 16.9373 12.7967C16.6675 12.7967 16.5525 11.2511 16.5525 11.2511H16.441L16.7965 12.9509L16.5525 13.1088L17.2997 13.4409L18.5664 12.7967L18.1583 11.762Z" fill="#B35A1F"/>
</g>
<path fill-rule="evenodd" clip-rule="evenodd" d="M16.6516 10.6303C16.3915 10.7574 16.0383 10.9299 15.7909 10.9299C15.6179 10.9299 15.5093 10.8962 15.4652 10.8288V11.0739C15.4652 11.1247 15.454 11.185 15.4435 11.2417C15.4242 11.3457 15.4071 11.4377 15.4652 11.4377C15.5549 11.4377 15.9568 11.7204 15.9568 12.0459C15.9568 12.263 15.7929 12.4606 15.4652 12.639C15.6823 13.4031 15.8858 13.8435 16.0758 13.9602C16.2286 14.0542 16.3264 13.9969 16.387 13.9486C16.3935 13.9432 16.3996 13.9381 16.4051 13.9334C16.44 13.9037 16.4545 13.8914 16.4545 13.9602C16.4545 13.9666 16.4548 13.973 16.4559 13.9835C16.4761 14.1565 16.7142 14.3865 16.9959 14.4798C17.1863 14.5428 17.1305 14.5911 17.0673 14.6459C17.0327 14.6759 16.9959 14.7078 16.9959 14.745C16.9959 14.8115 17.1044 14.7836 17.3215 14.6614C17.5385 14.7836 17.647 14.8115 17.647 14.745C17.647 14.7078 17.6102 14.6759 17.5757 14.6459C17.5124 14.5911 17.4566 14.5428 17.647 14.4798C17.9287 14.3865 18.1669 14.1565 18.1875 13.9796C18.1881 13.973 18.1885 13.9666 18.1885 13.9602C18.1885 13.8914 18.2029 13.9037 18.2395 13.9347C18.2453 13.9397 18.2517 13.9451 18.2586 13.9507C18.3165 13.9969 18.4143 14.0542 18.5672 13.9602C18.7571 13.8435 18.9606 13.4031 19.1778 12.639C18.85 12.4606 18.6861 12.263 18.6861 12.0459C18.6861 11.7204 19.088 11.4377 19.1778 11.4377C19.2358 11.4377 19.2187 11.3457 19.1995 11.2417C19.1889 11.185 19.1778 11.1247 19.1778 11.0739V10.8288C19.1336 10.8962 19.025 10.9299 18.8521 10.9299C18.6046 10.9299 18.2514 10.7574 17.9914 10.6303C17.7918 10.5328 17.647 10.4621 17.647 10.5168C17.647 10.5918 17.5939 10.5774 17.5057 10.5535C17.4686 10.5435 17.4252 10.5318 17.377 10.5243C17.3714 10.5193 17.3656 10.5168 17.3595 10.5168C17.3466 10.5168 17.3339 10.5172 17.3215 10.5181C17.309 10.5172 17.2964 10.5168 17.2834 10.5168C17.2773 10.5168 17.2715 10.5193 17.2659 10.5243C17.2177 10.5318 17.1744 10.5435 17.1373 10.5535C17.049 10.5774 16.9959 10.5918 16.9959 10.5168C16.9959 10.4621 16.8512 10.5328 16.6516 10.6303ZM18.852 11.0016C18.7216 11.0016 18.5635 10.9599 18.372 10.8831C18.2986 10.8537 18.2219 10.8197 18.1352 10.779C18.1216 10.7725 18.0849 10.7548 18.0395 10.7329L18.0395 10.7329C17.9439 10.6867 17.8099 10.6219 17.7718 10.6052C17.7451 10.5934 17.7229 10.5845 17.7055 10.5785C17.6879 10.6201 17.6508 10.6444 17.6003 10.6444C17.5797 10.6444 17.5581 10.6408 17.5291 10.6337C17.5192 10.6313 17.4902 10.6235 17.4715 10.6185L17.4715 10.6185L17.4715 10.6185L17.4555 10.6143C17.422 10.6056 17.3944 10.5995 17.3665 10.5952L17.3462 10.5921C17.337 10.589 17.3315 10.5893 17.326 10.5896L17.3046 10.589L17.3003 10.5888L17.2764 10.5952C17.2484 10.5995 17.2208 10.6056 17.1873 10.6143L17.1714 10.6185C17.1527 10.6235 17.1237 10.6313 17.1138 10.6337C17.0847 10.6408 17.0632 10.6444 17.0426 10.6444C16.9921 10.6444 16.955 10.6201 16.9373 10.5785C16.9199 10.5845 16.8978 10.5934 16.871 10.6052C16.8329 10.6219 16.6989 10.6867 16.6034 10.7329C16.558 10.7548 16.5213 10.7725 16.5076 10.779C16.421 10.8197 16.3442 10.8537 16.2709 10.8831C16.0794 10.9599 15.9213 11.0016 15.7908 11.0016C15.6878 11.0016 15.6019 10.9887 15.5352 10.9634V11.0739C15.5352 11.1117 15.5304 11.1526 15.5209 11.2072L15.514 11.2455C15.5003 11.3196 15.496 11.3461 15.4954 11.3689C15.6898 11.4042 16.0268 11.7551 16.0268 12.0459C16.0268 12.2827 15.8636 12.4913 15.5482 12.6741C15.7541 13.3857 15.9475 13.7978 16.1118 13.8987C16.2056 13.9564 16.2668 13.9496 16.3308 13.9021C16.3303 13.9025 16.3892 13.8527 16.4091 13.8445C16.4506 13.8273 16.496 13.845 16.5143 13.8891C16.5222 13.9082 16.5245 13.9291 16.5245 13.9602C16.5245 14.1012 16.754 14.3243 17.0174 14.4115C17.1749 14.4637 17.2413 14.5401 17.1735 14.6384C17.1642 14.6519 17.1576 14.6599 17.1434 14.6731C17.1833 14.655 17.2315 14.6302 17.2877 14.5985L17.3214 14.5795L17.3552 14.5985C17.4113 14.6302 17.4596 14.655 17.4995 14.6731C17.4853 14.6599 17.4787 14.6519 17.4694 14.6384C17.4015 14.5401 17.468 14.4637 17.6254 14.4115C17.8889 14.3243 18.1184 14.1012 18.1184 13.9602C18.1184 13.9291 18.1206 13.9082 18.1285 13.8891C18.1468 13.845 18.1922 13.8273 18.2337 13.8445C18.2537 13.8527 18.3125 13.9025 18.312 13.9021C18.376 13.9496 18.4372 13.9564 18.5311 13.8987C18.6954 13.7978 18.8887 13.3857 19.0946 12.6741C18.7793 12.4913 18.616 12.2827 18.616 12.0459C18.616 11.7551 18.953 11.4042 19.1475 11.3689C19.1468 11.3461 19.1425 11.3196 19.1288 11.2455L19.1219 11.2072C19.1125 11.1526 19.1077 11.1117 19.1077 11.0739V10.9634C19.041 10.9887 18.9551 11.0016 18.852 11.0016ZM17.285 10.5885L17.2834 10.5885L17.288 10.5883L17.285 10.5885ZM15.4652 10.6426C15.4349 10.7205 15.4349 10.7826 15.4652 10.8288V10.6426ZM19.1777 10.6426C19.208 10.7205 19.208 10.7826 19.1777 10.8288V10.6426Z" fill="#FFD129"/>
<path fill-rule="evenodd" clip-rule="evenodd" d="M20.341 8.03412H14.3915V13.7969C14.3915 14.3628 14.6271 14.5846 14.9079 14.8489C14.9912 14.9274 15.0785 15.0096 15.1648 15.1057C15.4163 15.3855 16.1501 15.6749 17.3663 15.9737C17.6993 15.9737 18.2476 15.7913 19.0111 15.4267C19.7746 15.0621 20.2179 14.6036 20.341 14.0514V8.03412ZM14.9133 14.6584C14.6325 14.3868 14.5316 14.1897 14.5316 13.7969V8.17755H20.201V14.0348C20.0839 14.5311 19.6723 14.9527 18.9519 15.2967C18.2187 15.6469 17.6912 15.8241 17.3823 15.8301C16.2045 15.5397 15.4922 15.2581 15.268 15.0086C15.2503 14.9889 15.2321 14.9692 15.2134 14.9495C15.1666 14.9004 15.119 14.8534 15.0573 14.7949C15.0606 14.798 14.944 14.6881 14.9133 14.6584Z" fill="black"/>
</g>
<g clip-path="url(#clip1_58_5444)">
<rect width="12.048" height="9.37069" transform="translate(0.0249023 0.674866)" fill="#2E42A5"/>
<path d="M-1.31665 9.37611L1.33455 10.5389L12.1331 1.93908L13.5315 0.211167L10.6964 -0.177465L6.29198 3.52844L2.74685 6.02535L-1.31665 9.37611Z" fill="#F7FCFF"/>
<path d="M-0.953735 10.1908L0.39693 10.8655L13.0293 0.0506144H11.1328L-0.953735 10.1908Z" fill="#F50100"/>
<path d="M13.4144 9.37611L10.7632 10.5389L-0.0352883 1.93908L-1.43374 0.211167L1.40134 -0.177465L5.8058 3.52844L9.35093 6.02535L13.4144 9.37611Z" fill="#F7FCFF"/>
<path d="M13.324 9.96078L11.9733 10.6356L6.59431 6.00513L4.99956 5.48778L-1.56829 0.21708H0.3282L6.89236 5.36268L8.63594 5.98303L13.324 9.96078Z" fill="#F50100"/>
<path fill-rule="evenodd" clip-rule="evenodd" d="M6.70789 0.674866H5.36922V4.69088H0.0249023V6.02955H5.36922V10.0456H6.70789V6.02955H12.0729V4.69088H6.70789V0.674866Z" fill="#F50100"/>
<path fill-rule="evenodd" clip-rule="evenodd" d="M4.36521 0.674866H7.71189V3.68687H12.0729V7.03355H7.71189L7.72226 10.0456H4.37558L4.36521 7.03355H0.0249023V3.68687H4.36521V0.674866ZM5.36922 4.69088H0.0249023V6.02955H5.36922V10.0456H6.70789V6.02955H12.0729V4.69088H6.70789V0.674866H5.36922V4.69088Z" fill="#F7FCFF"/>
</g>
</g>
</g>
<defs>
<clipPath id="clip0_58_5444">
<rect width="21.4187" height="16.064" fill="white" transform="translate(0.0249023 0.674927)"/>
</clipPath>
<clipPath id="clip1_58_5444">
<rect width="12.048" height="9.37069" fill="white" transform="translate(0.0249023 0.674866)"/>
</clipPath>
</defs>
</svg>
