<svg width="23" height="17" viewBox="0 0 23 17" fill="none" xmlns="http://www.w3.org/2000/svg">
<g clip-path="url(#clip0_58_5415)">
<rect width="21.4187" height="16.064" transform="translate(0.862061 0.674927)" fill="white"/>
<path fill-rule="evenodd" clip-rule="evenodd" d="M1.15271 0.642883V16.7069H22.5714V0.642883H1.15271Z" fill="#FFD221"/>
<mask id="mask0_58_5415" style="mask-type:luminance" maskUnits="userSpaceOnUse" x="1" y="0" width="22" height="17">
<path fill-rule="evenodd" clip-rule="evenodd" d="M1.15271 0.642883V16.7069H22.5714V0.642883H1.15271Z" fill="white"/>
</mask>
<g mask="url(#mask0_58_5415)">
<path d="M-0.900146 7.74804L0.443872 4.68311L23.7546 14.9052L22.4106 17.9701L-0.900146 7.74804Z" fill="#313131"/>
<path d="M-0.866821 4.37073L0.476633 1.30554L24.9466 12.0306L23.6031 15.0958L-0.866821 4.37073Z" fill="#FAF9F9"/>
<path fill-rule="evenodd" clip-rule="evenodd" d="M6.05952 8.94081C5.11002 7.77564 5.26876 6.98755 5.26876 6.98755C5.26876 6.98755 6.24047 7.02306 6.22963 7.64966C6.22963 7.91443 6.57817 8.16505 6.87845 8.38096C7.10567 8.54435 7.30526 8.68786 7.30526 8.80259C7.30526 9.06893 7.5058 11.7542 7.5058 11.7542C7.5058 11.7542 7.36573 11.9987 6.69482 11.9987C6.02391 11.9987 6.05952 11.6123 6.05952 11.6123C6.46626 11.1135 6.05952 8.94081 6.05952 8.94081ZM17.665 8.94081C18.6145 7.77564 18.4557 6.98755 18.4557 6.98755C18.4557 6.98755 17.484 7.02306 17.4948 7.64966C17.4948 7.91443 17.1463 8.16505 16.846 8.38096C16.6188 8.54435 16.4192 8.68786 16.4192 8.80259C16.4192 9.06893 16.2187 11.7542 16.2187 11.7542C16.2187 11.7542 16.3587 11.9987 17.0297 11.9987C17.7006 11.9987 17.665 11.6123 17.665 11.6123C17.2582 11.1135 17.665 8.94081 17.665 8.94081Z" fill="#CF1225"/>
<path fill-rule="evenodd" clip-rule="evenodd" d="M11.9022 2.56702L12.6565 3.1054L12.1622 3.23745L12.6565 3.66462L12.0411 3.50874V3.94031H12.6565L12.8622 4.95194L12.6241 4.78304L12.386 4.95194L12.1479 4.78304L11.9097 4.95194L11.6644 4.78304L11.4192 4.95194L11.1739 4.78304L10.9286 4.95194L11.2376 3.94031H11.8069V2.56702H11.9022ZM15.2658 5.96499C15.2658 5.96499 15.036 6.16821 14.5429 5.96499C14.3782 5.89711 14.1977 5.77841 14.0094 5.65458L14.0094 5.65458C13.6339 5.40773 13.2273 5.14046 12.8533 5.21458C12.2917 5.32588 12.0421 5.59393 12.0421 5.59393V4.97657H11.974H11.8685H11.8004V5.59393C11.8004 5.59393 11.5508 5.32588 10.9892 5.21458C10.6152 5.14046 10.2086 5.40773 9.83315 5.65458C9.64479 5.77841 9.46426 5.8971 9.29955 5.96499C8.80651 6.16821 8.57666 5.96499 8.57666 5.96499C8.57666 5.96499 8.57666 6.13703 8.94318 6.40197C9.10219 6.51692 9.28402 6.50864 9.43893 6.46242C9.3242 6.54898 9.26859 6.65067 9.45145 6.73216C9.83044 6.90105 10.4534 6.45645 10.5215 6.40649C10.4457 6.46291 9.69258 7.02921 10.0377 7.02921C10.4009 7.02921 10.9892 6.55332 10.9892 6.55332C10.9892 6.55332 10.2753 7.23826 10.6594 7.34497C10.9038 7.41289 11.1957 7.05665 11.3329 6.84561C11.3373 6.89046 11.3785 6.91791 11.4234 6.94782C11.481 6.98614 11.5446 7.0285 11.5446 7.11668C11.5446 7.22971 11.5726 7.2491 11.5972 7.26611C11.6164 7.27939 11.6335 7.29121 11.6335 7.34497V7.50113L11.5446 7.63227C11.5446 7.63227 11.5446 7.83626 11.6335 7.99839C11.7008 8.1212 11.6661 8.22447 11.6067 8.40145C11.5877 8.45813 11.5661 8.52237 11.5446 8.59723C11.4556 8.90584 11.6335 9.43294 11.6335 9.43294H11.5446C11.5446 9.43294 11.6335 9.49786 11.6335 9.7578C11.6335 9.96945 11.5745 10.0896 11.4632 10.3166C11.4378 10.3684 11.4097 10.4258 11.3789 10.491C11.2132 10.8423 11.5446 11.289 11.5446 11.289C11.5446 11.289 10.9892 11.0452 11.1005 11.289C11.186 11.4762 11.6554 11.6583 11.8685 11.7327V11.7678C11.8685 11.7678 11.888 11.7618 11.9212 11.7507C11.9545 11.7618 11.974 11.7678 11.974 11.7678V11.7327C12.1871 11.6583 12.6565 11.4762 12.742 11.289C12.8533 11.0452 12.2979 11.289 12.2979 11.289C12.2979 11.289 12.6293 10.8423 12.4636 10.491C12.4328 10.4258 12.4047 10.3684 12.3793 10.3166L12.3793 10.3166C12.268 10.0896 12.209 9.96945 12.209 9.7578C12.209 9.49786 12.2979 9.43294 12.2979 9.43294H12.209C12.209 9.43294 12.3868 8.90584 12.2979 8.59723C12.2764 8.52237 12.2548 8.45813 12.2358 8.40145C12.1764 8.22447 12.1417 8.1212 12.209 7.99839C12.2979 7.83626 12.2979 7.63227 12.2979 7.63227L12.209 7.50113V7.34497C12.209 7.29121 12.2261 7.27939 12.2453 7.26611C12.2699 7.2491 12.2979 7.22971 12.2979 7.11668C12.2979 7.0285 12.3615 6.98614 12.4191 6.94782C12.464 6.91791 12.5052 6.89046 12.5096 6.84561C12.6468 7.05665 12.9387 7.41289 13.1831 7.34497C13.5672 7.23826 12.8533 6.55332 12.8533 6.55332C12.8533 6.55332 13.4416 7.02921 13.8048 7.02921C14.1499 7.02921 13.3968 6.46291 13.321 6.40649C13.3891 6.45645 14.0121 6.90105 14.391 6.73216C14.5739 6.65067 14.5183 6.54898 14.4036 6.46242C14.5585 6.50864 14.7403 6.51692 14.8993 6.40197C15.2658 6.13703 15.2658 5.96499 15.2658 5.96499ZM14.0451 6.2772C14.0451 6.2772 14.2014 6.40211 14.4036 6.46242C14.2665 6.35902 14.0451 6.2772 14.0451 6.2772ZM12.4636 6.73216C12.4034 6.65194 12.4313 6.7251 12.5096 6.84561C12.5124 6.81676 12.5 6.7807 12.4636 6.73216ZM11.3789 6.73216C11.4391 6.65194 11.4112 6.7251 11.3329 6.84561C11.3301 6.81676 11.3425 6.7807 11.3789 6.73216ZM9.79741 6.2772C9.79741 6.2772 9.64108 6.40211 9.43893 6.46242C9.57599 6.35902 9.79741 6.2772 9.79741 6.2772Z" fill="#CF1225"/>
<path fill-rule="evenodd" clip-rule="evenodd" d="M8.66889 7.05377C8.66889 7.05377 7.86994 8.14052 7.95886 9.30167C8.04777 10.4628 8.99515 13.1644 11.8057 13.1644C11.8299 13.1644 11.8539 13.1637 11.8778 13.1637C14.8559 13.1637 15.7013 10.185 15.7013 9.11386C15.7013 8.03342 15.0274 7.05377 15.0274 7.05377C15.0274 7.05377 15.1062 8.50356 15.0274 9.11386C14.79 10.9549 13.6302 11.8052 11.8578 11.8052C10.0745 11.8052 8.97101 10.9227 8.66889 9.11386C8.57121 8.52902 8.66889 7.05377 8.66889 7.05377Z" fill="#CF1225"/>
<path fill-rule="evenodd" clip-rule="evenodd" d="M7.22058 13.863C7.22058 13.863 7.3656 13.4477 7.54387 13.4477C7.72214 13.4477 7.20279 13.0873 7.54387 12.9853C7.88495 12.8834 8.40981 13.3916 8.40981 12.8834C8.40981 12.3751 7.96595 12.0978 8.29209 12.0978C8.61823 12.0978 8.95849 12.0005 8.95849 12.0005C8.95849 12.0005 10.3461 13.4477 11.7353 13.4477C13.1246 13.4477 14.7952 12.0978 14.7952 12.0978C14.7952 12.0978 15.4109 11.9412 15.4109 12.1854C15.4109 12.4296 15.2758 12.7983 15.2758 12.7983C15.2758 12.7983 15.7073 12.7132 15.9268 12.7983C16.1463 12.8834 15.9268 13.2903 15.9268 13.2903V13.4477C15.9268 13.4477 16.4979 13.322 16.4979 13.547C16.4979 13.772 16.2222 13.6435 15.6635 13.7078C15.1048 13.772 14.8928 14.2088 14.5419 14.2088C14.1909 14.2088 14.1153 13.863 14.1153 13.863C14.1153 13.863 13.0277 14.4526 11.7353 14.4526C10.443 14.4526 9.66238 13.863 9.66238 13.863C9.66238 13.863 9.78428 14.4682 9.37138 14.3385C8.95849 14.2088 8.53609 13.3862 8.03998 13.547C7.54387 13.7078 7.22058 13.863 7.22058 13.863Z" fill="#CF1225"/>
<path fill-rule="evenodd" clip-rule="evenodd" d="M9.22616 11.4625C9.2506 11.4398 9.27514 11.4145 9.30732 11.3795C9.39847 11.2806 9.42314 11.2544 9.4418 11.2424C9.44555 11.2593 9.44811 11.2869 9.44811 11.3249C9.44811 11.5769 9.45705 11.7672 9.48159 11.8995C9.49908 11.9938 9.52337 12.0548 9.56625 12.0839C9.62892 12.1264 9.69208 12.0894 9.75068 12.0013C9.88475 11.7998 10.1371 11.7749 10.1371 11.8518C10.1371 11.8717 10.1292 11.8933 10.0802 12.0133C10.0717 12.0341 10.0651 12.0509 10.0589 12.0672C10.0245 12.1577 10.0091 12.2233 10.0166 12.2803C10.0277 12.3653 10.0904 12.4132 10.1919 12.4132C10.3048 12.4132 10.379 12.3402 10.461 12.1962C10.4691 12.1822 10.4907 12.1428 10.4997 12.1263L10.5038 12.119C10.5188 12.092 10.5298 12.0739 10.5399 12.0598C10.5698 12.0181 10.5763 12.0213 10.6426 12.1779C10.66 12.2192 10.6959 12.3061 10.7269 12.3814C10.7514 12.4409 10.7729 12.4931 10.78 12.5097C10.8235 12.612 10.854 12.6723 10.8861 12.7145C10.9599 12.8114 11.0479 12.8106 11.1531 12.7207C11.1739 12.7029 11.1972 12.6853 11.2241 12.6668C11.2381 12.6572 11.2714 12.6357 11.3033 12.6152C11.3335 12.5958 11.3624 12.5772 11.3722 12.5703C11.4332 12.5277 11.4635 12.4941 11.4629 12.4446C11.4622 12.382 11.4099 12.3428 11.3057 12.304C11.2851 12.2963 11.2691 12.2891 11.2575 12.2838L11.2575 12.2838C11.249 12.2799 11.2428 12.2771 11.2389 12.276C11.2415 12.2755 11.2453 12.2736 11.2513 12.2706L11.2565 12.268C11.3218 12.2355 11.4538 12.2118 11.5715 12.2118L11.5722 12.2118H11.5722C11.5777 12.2118 11.581 12.2118 11.5829 12.2134C11.5858 12.2158 11.5857 12.2219 11.5853 12.2371L11.5853 12.2388C11.5845 12.2743 11.5768 12.3086 11.5478 12.4177L11.5377 12.4558C11.5048 12.5839 11.4956 12.6614 11.5183 12.7282C11.5515 12.826 11.6459 12.86 11.7925 12.831C11.9908 12.7917 12.0873 12.7129 12.1126 12.5923C12.1189 12.562 12.1202 12.5389 12.1202 12.4917C12.1203 12.4139 12.1207 12.4132 12.1872 12.4132C12.2817 12.4132 12.3191 12.4468 12.3589 12.5398L12.3731 12.5738C12.4193 12.6853 12.4622 12.7337 12.5589 12.7337C12.6235 12.7337 12.6685 12.7066 12.6605 12.644C12.6585 12.628 12.6531 12.614 12.6434 12.5943L12.6356 12.5791L12.6218 12.5519C12.5618 12.4292 12.5856 12.3354 12.792 12.2033C12.8509 12.1655 12.9421 12.1016 13.021 12.0463L13.021 12.0463L13.021 12.0463C13.0779 12.0065 13.1284 11.9711 13.156 11.9531C13.1582 11.9699 13.1598 11.9929 13.1613 12.0264L13.1646 12.1146L13.1662 12.1577C13.175 12.3818 13.2216 12.587 13.2896 12.6702C13.4047 12.8113 13.5159 12.6809 13.5916 12.3706C13.6639 12.0737 13.7672 11.7937 13.8679 11.6238C13.9172 11.5405 13.9634 11.4883 13.9986 11.4724C14.0219 11.4619 14.0384 11.4694 14.0626 11.5133C14.1535 11.6784 14.2934 11.8316 14.4117 11.8772C14.5873 11.9448 14.6914 11.8024 14.6914 11.4856C14.6914 11.22 14.7346 11.0082 14.8059 10.8448C14.8305 10.7886 14.8565 10.7426 14.8823 10.7061C14.8971 10.6852 14.9079 10.6725 14.913 10.6675L14.8372 10.5861C14.8024 10.6202 14.7535 10.6895 14.7058 10.7988C14.628 10.9768 14.5817 11.2043 14.5817 11.4856C14.5817 11.7361 14.5325 11.8035 14.4503 11.7718C14.361 11.7374 14.2375 11.6022 14.1581 11.4579C14.1082 11.3673 14.0341 11.3334 13.9545 11.3693C13.8936 11.3968 13.8341 11.4639 13.7741 11.5653C13.6669 11.7462 13.56 12.0363 13.4851 12.3433C13.4526 12.4768 13.4188 12.5617 13.3737 12.5979C13.3258 12.5392 13.2837 12.3541 13.2758 12.1532L13.2743 12.1113L13.2709 12.0213C13.2691 11.9793 13.2669 11.9515 13.2635 11.9289C13.2524 11.8567 13.2158 11.8143 13.1502 11.8314C13.1244 11.8382 13.0006 11.9242 12.8893 12.0016C12.8273 12.0448 12.7691 12.0852 12.7339 12.1077C12.4786 12.2712 12.4387 12.4285 12.5237 12.6024L12.5305 12.6159C12.5101 12.6065 12.4959 12.5824 12.4741 12.5298L12.4594 12.4946C12.4039 12.3647 12.3324 12.3006 12.1872 12.3006C12.0475 12.3006 12.0107 12.3593 12.0105 12.4915C12.0104 12.531 12.0095 12.5486 12.0053 12.5687C11.9904 12.64 11.9303 12.689 11.7717 12.7204C11.6725 12.74 11.6338 12.7261 11.6219 12.6911C11.6092 12.6535 11.6166 12.5904 11.6438 12.4846L11.6536 12.4474C11.6858 12.3266 11.6939 12.2903 11.695 12.2414C11.6969 12.1565 11.6553 12.0992 11.5715 12.0992C11.4386 12.0992 11.291 12.1257 11.2087 12.1667C11.0736 12.2338 11.1003 12.3474 11.2683 12.4099C11.3013 12.4221 11.3232 12.4326 11.3364 12.439C11.3458 12.4435 11.3509 12.446 11.3526 12.4455C11.3513 12.4457 11.3483 12.4482 11.3431 12.4524C11.3362 12.458 11.3256 12.4667 11.3105 12.4772C11.3025 12.4828 11.2771 12.4991 11.2491 12.5172L11.2491 12.5172C11.2159 12.5385 11.179 12.5622 11.1629 12.5733C11.1331 12.5938 11.1068 12.6137 11.0828 12.6342C11.0215 12.6867 11.0043 12.6868 10.9726 12.6452C10.9479 12.6127 10.9205 12.5585 10.8805 12.4647C10.8737 12.4486 10.8527 12.3976 10.8285 12.339L10.8285 12.3389C10.7974 12.2633 10.761 12.1752 10.7432 12.1331C10.6489 11.9101 10.547 11.86 10.4515 11.993C10.4383 12.0114 10.4255 12.0327 10.4085 12.0631L10.4035 12.0722L10.4035 12.0722L10.4035 12.0723C10.3939 12.0897 10.3736 12.1265 10.3663 12.1394C10.3027 12.251 10.2523 12.3006 10.1919 12.3006C10.1421 12.3006 10.1286 12.2904 10.1253 12.2653C10.1211 12.2331 10.1332 12.1816 10.1611 12.1081C10.1669 12.0928 10.1733 12.0768 10.1814 12.0569C10.2425 11.9073 10.2468 11.8954 10.2468 11.8518C10.2468 11.6235 9.84263 11.6634 9.66006 11.9378C9.64455 11.9611 9.63127 11.9764 9.62153 11.984C9.61217 11.9695 9.59945 11.9327 9.58939 11.8785C9.56655 11.7553 9.55783 11.5699 9.55783 11.3249C9.55783 11.1697 9.5112 11.0875 9.4109 11.1323C9.36554 11.1525 9.36383 11.1543 9.22758 11.3022C9.19716 11.3352 9.17435 11.3587 9.15241 11.3791C9.12401 11.4056 9.09943 11.4244 9.07829 11.4356C9.04714 11.452 9.03517 11.4418 9.01835 11.3693C9.0009 11.2941 8.99519 11.1879 8.99525 11.011L8.99546 10.9369L8.99568 10.8606C8.99568 10.7351 8.96208 10.6648 8.88016 10.6648C8.85211 10.6648 8.82394 10.6743 8.7883 10.6924C8.7758 10.6988 8.76273 10.706 8.74521 10.7161L8.70117 10.7416C8.62564 10.7847 8.57547 10.8043 8.52829 10.8043C8.51949 10.8043 8.51435 10.8057 8.51203 10.8063C8.5111 10.8066 8.51062 10.8067 8.51054 10.8066C8.51045 10.8064 8.51081 10.806 8.51155 10.8051C8.51358 10.8027 8.51844 10.7969 8.52484 10.7843C8.55599 10.7231 8.63979 10.6242 8.77459 10.4918L8.6987 10.4105C8.5557 10.551 8.46587 10.6569 8.42757 10.7322C8.37461 10.8363 8.41564 10.9169 8.52829 10.9169C8.59949 10.9169 8.66365 10.8919 8.75451 10.84C8.85965 10.78 8.86487 10.7774 8.88016 10.7774C8.88019 10.7774 8.88595 10.7894 8.88595 10.8606L8.88574 10.9365L8.88552 11.011C8.88546 11.1969 8.89146 11.3085 8.9116 11.3953C8.94261 11.529 9.01854 11.5937 9.12846 11.5357C9.1595 11.5193 9.19126 11.495 9.22616 11.4625ZM9.4534 11.2355C9.4542 11.2356 9.45477 11.2356 9.45502 11.2355L9.4534 11.2355ZM11.2357 12.2707C11.2337 12.2693 11.2327 12.2686 11.2327 12.2684C11.2338 12.2731 11.2348 12.2759 11.2366 12.2771L11.2357 12.2707ZM13.1776 11.9405L13.1763 11.9408L13.1771 11.9406L13.1776 11.9405Z" fill="#F6E017"/>
<path fill-rule="evenodd" clip-rule="evenodd" d="M10.4113 13.8624C10.3627 13.9937 10.2859 14.0372 10.1991 13.9715C10.1728 13.9516 10.1472 13.9232 10.1115 13.8773L10.1035 13.8668C10.0844 13.8418 10.0371 13.7796 10.0197 13.7579C9.94498 13.6649 9.88061 13.6067 9.81068 13.5769L9.80431 13.5742C9.71902 13.5378 9.7007 13.53 9.68272 13.5215L9.66312 13.512C9.56054 13.4619 9.50202 13.4101 9.44567 13.313C9.4016 13.2371 9.35892 13.1344 9.28662 12.9356L9.38942 12.8962C9.45943 13.0887 9.50035 13.1872 9.53993 13.2554C9.5846 13.3323 9.62646 13.3694 9.71026 13.4103L9.72777 13.4188C9.74491 13.4269 9.76237 13.4344 9.84677 13.4704L9.84678 13.4704L9.85277 13.4729C9.94297 13.5114 10.0192 13.5803 10.1044 13.6863C10.1234 13.71 10.1742 13.7768 10.1914 13.7995L10.1914 13.7995L10.1972 13.807C10.2272 13.8456 10.2479 13.8685 10.2643 13.8809C10.2732 13.8876 10.2737 13.8881 10.2725 13.8888C10.2802 13.8842 10.2937 13.8631 10.3088 13.8223C10.3424 13.7316 10.3129 13.6612 10.2311 13.588C10.2281 13.5853 10.2197 13.5786 10.2087 13.5698C10.1774 13.5447 10.1248 13.5025 10.1151 13.4881C10.0839 13.4417 10.1106 13.3946 10.1588 13.3818C10.1805 13.3761 10.2125 13.3739 10.2637 13.3739C10.4409 13.3739 10.4896 13.478 10.5224 13.7441L10.523 13.7485C10.5489 13.9583 10.5751 14.0159 10.6646 14.0159C10.7656 14.0159 10.8271 13.9757 10.9345 13.861L10.9581 13.8359C11.0949 13.6902 11.1908 13.6412 11.3518 13.6858C11.4804 13.7214 11.5353 13.7846 11.5483 13.8827C11.5497 13.8936 11.5504 13.9015 11.5518 13.9201C11.5581 14.0028 11.5727 14.0159 11.7327 14.0159C11.8541 14.0159 11.967 14.0224 12.1143 14.0354L12.1321 14.037C12.1667 14.0402 12.2401 14.0468 12.2622 14.0486C12.3101 14.0526 12.3442 14.0545 12.3711 14.0545C12.3902 14.0545 12.405 14.0535 12.4151 14.0517C12.4192 14.0195 12.4382 13.9968 12.5151 13.9097C12.524 13.8996 12.5309 13.8918 12.5372 13.8842C12.5732 13.8418 12.589 13.8135 12.588 13.8089C12.5879 13.808 12.5557 13.7964 12.4689 13.7964C12.3891 13.7964 12.3492 13.7865 12.342 13.7303C12.336 13.6832 12.3632 13.6605 12.4235 13.6284C12.4925 13.5917 12.6183 13.544 12.7693 13.4959C12.9146 13.4496 13.068 13.408 13.1847 13.3835C13.2478 13.3703 13.2991 13.3623 13.3366 13.3601C13.4079 13.3561 13.4503 13.366 13.4503 13.4302C13.4503 13.457 13.5256 13.549 13.6007 13.5908C13.6904 13.6407 13.7541 13.6217 13.798 13.5047C13.8622 13.3338 13.9959 13.1492 14.1262 13.0435C14.1962 12.9867 14.2605 12.9562 14.3162 12.9612C14.3914 12.968 14.4306 13.0325 14.4306 13.13H14.3209C14.3209 13.0843 14.3147 13.0741 14.3066 13.0734C14.2859 13.0715 14.2442 13.0913 14.1943 13.1318C14.0793 13.2251 13.9575 13.3932 13.9004 13.5451C13.8313 13.7294 13.6933 13.7704 13.5484 13.6898C13.4596 13.6404 13.3747 13.5466 13.3487 13.4723C13.3116 13.4743 13.265 13.4816 13.2067 13.4939C13.0938 13.5175 12.9439 13.5582 12.8018 13.6034C12.7077 13.6334 12.6239 13.6632 12.5597 13.6894C12.638 13.7006 12.6833 13.7297 12.6952 13.7845C12.707 13.8393 12.6803 13.8869 12.6201 13.9581C12.6131 13.9663 12.6058 13.9747 12.5964 13.9853C12.5433 14.0455 12.5237 14.0712 12.5237 14.0722C12.5237 14.1466 12.4672 14.1671 12.3711 14.1671C12.3406 14.1671 12.304 14.1651 12.2534 14.1609C12.2307 14.159 12.1559 14.1522 12.1218 14.1491L12.1049 14.1476C11.9604 14.1348 11.8503 14.1285 11.7327 14.1285C11.5166 14.1285 11.4532 14.0715 11.4424 13.9289C11.4412 13.9124 11.4406 13.9058 11.4395 13.8978C11.4326 13.845 11.4094 13.8184 11.3232 13.7945C11.2106 13.7633 11.149 13.7948 11.0371 13.914L11.0137 13.939C10.8872 14.074 10.8039 14.1285 10.6646 14.1285C10.5071 14.1285 10.4555 14.0442 10.4227 13.8263C10.4197 13.8381 10.4159 13.8501 10.4113 13.8624ZM10.4205 13.7627L10.4198 13.7583C10.4094 13.6892 10.3988 13.6363 10.3851 13.5963C10.4393 13.6648 10.4582 13.7404 10.431 13.8263C10.4273 13.8062 10.4239 13.785 10.4205 13.7627ZM12.4278 13.6809L12.4311 13.682L12.4291 13.6812L12.4278 13.6809ZM12.4257 14.0493L12.4229 14.0502L12.4247 14.0498L12.4257 14.0493Z" fill="#F6E017"/>
</g>
</g>
<defs>
<clipPath id="clip0_58_5415">
<rect width="21.4187" height="16.064" fill="white" transform="translate(0.862061 0.674927)"/>
</clipPath>
</defs>
</svg>
