<svg width="23" height="17" viewBox="0 0 23 17" fill="none" xmlns="http://www.w3.org/2000/svg">
<g clip-path="url(#clip0_58_5307)">
<rect width="21.4187" height="16.064" transform="translate(0.699463 0.674927)" fill="white"/>
<path fill-rule="evenodd" clip-rule="evenodd" d="M0.990112 0.642883V16.7069H22.4088V0.642883H0.990112Z" fill="#FECA00"/>
<mask id="mask0_58_5307" style="mask-type:luminance" maskUnits="userSpaceOnUse" x="0" y="0" width="23" height="17">
<path fill-rule="evenodd" clip-rule="evenodd" d="M0.990112 0.642883V16.7069H22.4088V0.642883H0.990112Z" fill="white"/>
</mask>
<g mask="url(#mask0_58_5307)">
<path fill-rule="evenodd" clip-rule="evenodd" d="M0.990112 0.642883V5.99756H22.4088V0.642883H0.990112Z" fill="#DB501C"/>
<path fill-rule="evenodd" clip-rule="evenodd" d="M0.990112 11.3522V16.7069H22.4088V11.3522H0.990112Z" fill="#5EAA22"/>
<path d="M9.32068 7.30881L9.345 7.28522L14.1774 11.9336L14.153 11.9572L9.32068 7.30881Z" fill="#864C26"/>
<path d="M14.5249 11.6316L14.504 11.6581L8.8822 7.52858L8.90307 7.50208L14.5249 11.6316Z" fill="#864C26"/>
<path d="M14.6434 11.2195L14.6265 11.2485L8.37292 7.84456L8.38985 7.81555L14.6434 11.2195Z" fill="#A05A2C"/>
<path fill-rule="evenodd" clip-rule="evenodd" d="M8.75563 6.742L9.2292 7.0553L9.20274 7.07337C9.21354 7.07957 9.22467 7.08623 9.23615 7.09334C9.24948 7.10159 9.25882 7.11154 9.26432 7.12297C9.27393 7.09468 9.27367 7.06033 9.26345 7.01937L9.23855 6.91962L9.29471 7.00706C9.38395 7.14601 9.39724 7.24542 9.32782 7.30168C9.26002 7.35662 9.15334 7.34229 9.00919 7.26308L8.95062 7.2309L9.01744 7.23191C9.07232 7.23274 9.11939 7.22626 9.15875 7.21262L9.13146 7.2053C9.1083 7.1991 9.09116 7.18288 9.07952 7.15747L9.03309 7.18916L8.75563 6.742ZM8.18769 7.09612L8.70848 7.32242L8.68495 7.3454C8.69711 7.34978 8.70973 7.35458 8.7228 7.3598C8.73737 7.36561 8.7483 7.3738 8.7557 7.38411C8.76019 7.35463 8.75396 7.3209 8.73682 7.28242L8.69498 7.18851L8.76547 7.26487C8.87748 7.38621 8.90783 7.4818 8.84924 7.54926C8.79201 7.61514 8.68445 7.61955 8.52874 7.56658L8.46547 7.54506L8.53145 7.53445C8.58581 7.52571 8.63114 7.5111 8.66759 7.49073L8.63913 7.48824C8.61484 7.48612 8.59488 7.47271 8.57887 7.44896L8.53858 7.4883L8.18769 7.09612ZM8.222 7.63945L7.68347 7.4594L8.06721 7.8195L8.10383 7.77691C8.12194 7.79953 8.14315 7.81134 8.16773 7.81134H8.19633C8.16178 7.83485 8.11785 7.85337 8.06441 7.86683L7.9996 7.88315L8.06451 7.89908C8.22424 7.93828 8.331 7.92451 8.38227 7.85389C8.43477 7.78159 8.3962 7.689 8.27404 7.57788L8.19716 7.50796L8.24703 7.59787C8.26743 7.63464 8.27657 7.66765 8.27471 7.69737C8.26644 7.68778 8.25486 7.68061 8.23988 7.67609C8.22614 7.67195 8.2129 7.66821 8.20017 7.66485L8.222 7.63945ZM8.16312 7.65586L8.1637 7.65519L7.8187 7.53984L8.06453 7.77054L8.08476 7.74702C8.08113 7.74003 8.07766 7.73249 8.07435 7.72442L8.07663 7.72355L8.06023 7.70588L8.1262 7.64874L8.1345 7.65019C8.14368 7.6518 8.15322 7.65369 8.16312 7.65586Z" fill="#E7E7E7"/>
<path fill-rule="evenodd" clip-rule="evenodd" d="M10.0071 11.4949L10.5658 10.4984L11.3495 10.7094L10.7855 11.6189H10.5658V11.7181L10.0071 11.4949Z" fill="#925229"/>
<path fill-rule="evenodd" clip-rule="evenodd" d="M9.76754 7.66327L9.39774 8.04758L9.26318 10.5872L10.5957 10.7814C10.5957 10.7814 10.015 10.2716 9.92945 9.95697C9.84386 9.64235 9.81655 8.46778 9.97847 8.28919L10.1049 8.36303L10.2067 8.06085" fill="#FFE000"/>
<path fill-rule="evenodd" clip-rule="evenodd" d="M8.47951 7.83645C8.47951 7.83645 8.3363 9.81946 8.3363 10.1677C8.3363 10.516 8.63198 11.3453 9.306 11.3453C9.98001 11.3453 10.9049 10.9743 10.9049 10.8229C10.9049 10.6716 10.6288 10.5632 10.6288 10.5632C10.6288 10.5632 9.38922 10.6479 9.38922 10.1677C9.38922 9.68752 9.47343 8.26604 9.54701 8.09843C9.62059 7.93083 9.87565 7.67808 9.87565 7.67808L9.38922 7.31659L9.306 7.67808L8.99409 7.57196L8.89894 8.09843L8.47951 7.83645Z" fill="#D52C1E"/>
<path fill-rule="evenodd" clip-rule="evenodd" d="M10.2113 8.05652L10.1217 8.33699L9.94062 8.2606C9.94062 8.2606 9.66997 9.52978 9.94062 10.0615C10.2113 10.5931 10.8929 10.6317 10.8929 10.6317L10.6049 8.33699L10.2113 8.05652Z" fill="#027934"/>
<path fill-rule="evenodd" clip-rule="evenodd" d="M10.1715 9.77142L9.52193 10.2851C9.52193 10.2851 9.34379 10.5405 9.52193 10.7338C9.70008 10.9271 10.194 11.1242 10.3106 10.8908C10.4271 10.6575 10.7733 10.3841 10.7733 10.3841L10.1715 9.77142Z" fill="#E8A30C"/>
<path fill-rule="evenodd" clip-rule="evenodd" d="M10.6814 7.83317C10.8395 7.69578 10.9187 7.52814 10.8584 7.45874C10.798 7.38934 10.621 7.44446 10.4629 7.58185C10.3049 7.71925 10.2257 7.88689 10.286 7.95629C10.3463 8.02569 10.5234 7.97057 10.6814 7.83317Z" fill="#E1E5E8"/>
<path fill-rule="evenodd" clip-rule="evenodd" d="M10.2828 6.86988C10.2828 6.86988 10.2192 6.85685 10.1904 6.85249C9.98493 6.82135 9.8822 6.86324 9.8822 6.97818C9.8822 7.17474 10.0132 7.387 10.0132 7.53547C10.0132 7.68394 10.0195 7.91502 10.0825 7.79948C10.1455 7.68394 10.4658 7.33664 10.4658 7.33664L10.2828 7.03538C10.2828 7.03538 10.7372 7.08648 10.5377 6.97818" fill="#D52C1E"/>
<path fill-rule="evenodd" clip-rule="evenodd" d="M11.6793 10.936L11.3386 10.9326C11.0856 11.1828 11.0623 11.5194 11.2615 11.9259C11.2615 11.9259 11.3268 12.0204 11.3497 12.0115C11.3817 11.9992 11.4263 11.8623 11.4263 11.8623C11.4111 11.4653 11.6641 11.2024 11.6793 10.936Z" fill="#D52C1E"/>
<path fill-rule="evenodd" clip-rule="evenodd" d="M11.2478 10.9464L11.3703 10.8894C11.4911 11.1403 11.4305 11.4001 11.1976 11.6581L11.0962 11.5697C11.1976 11.2737 11.1976 11.1512 11.2478 10.9464Z" fill="#FFE000"/>
<path d="M11.0913 10.9383L11.2192 10.9009C11.2807 11.111 11.25 11.3278 11.1292 11.5478L11.0125 11.4837C11.1168 11.2935 11.1424 11.1129 11.0913 10.9383Z" fill="#027934"/>
<path d="M14.0784 7.30881L14.054 7.28522L9.22169 11.9336L9.24601 11.9572L14.0784 7.30881Z" fill="#864C26"/>
<path d="M8.87415 11.6316L8.89502 11.6581L14.5168 7.52858L14.496 7.50208L8.87415 11.6316Z" fill="#864C26"/>
<path d="M8.75576 11.2195L8.77268 11.2485L15.0262 7.84456L15.0093 7.81555L8.75576 11.2195Z" fill="#A05A2C"/>
<path fill-rule="evenodd" clip-rule="evenodd" d="M14.6434 6.742L14.1698 7.0553L14.1963 7.07337C14.1855 7.07957 14.1744 7.08623 14.1629 7.09334C14.1495 7.10159 14.1402 7.11154 14.1347 7.12297C14.1251 7.09468 14.1254 7.06033 14.1356 7.01937L14.1605 6.91962L14.1043 7.00706C14.0151 7.14601 14.0018 7.24542 14.0712 7.30168C14.139 7.35662 14.2457 7.34229 14.3898 7.26308L14.4484 7.2309L14.3816 7.23191C14.3267 7.23274 14.2796 7.22626 14.2403 7.21262L14.2676 7.2053C14.2907 7.1991 14.3079 7.18288 14.3195 7.15747L14.3659 7.18916L14.6434 6.742ZM15.2113 7.09612L14.6906 7.32242L14.7141 7.3454C14.7019 7.34978 14.6893 7.35458 14.6762 7.3598C14.6617 7.36561 14.6507 7.3738 14.6433 7.38411C14.6388 7.35463 14.6451 7.3209 14.6622 7.28242L14.704 7.18851L14.6336 7.26487C14.5215 7.38621 14.4912 7.4818 14.5498 7.54926C14.607 7.61514 14.7146 7.61955 14.8703 7.56658L14.9336 7.54506L14.8676 7.53445C14.8132 7.52571 14.7679 7.5111 14.7314 7.49073L14.7599 7.48824C14.7842 7.48612 14.8041 7.47271 14.8202 7.44896L14.8604 7.4883L15.2113 7.09612ZM15.177 7.63945L15.7156 7.4594L15.3318 7.8195L15.2952 7.7769C15.2771 7.79953 15.2559 7.81134 15.2313 7.81134H15.2027C15.2372 7.83485 15.2812 7.85337 15.3346 7.86683L15.3994 7.88315L15.3345 7.89908C15.1748 7.93828 15.068 7.92451 15.0168 7.85389C14.9643 7.78159 15.0028 7.689 15.125 7.57788L15.2019 7.50796L15.152 7.59787C15.1316 7.63464 15.1225 7.66765 15.1243 7.69737C15.1326 7.68778 15.1442 7.68061 15.1591 7.67609C15.1729 7.67195 15.1861 7.6682 15.1989 7.66484L15.177 7.63945ZM15.236 7.65585L15.2354 7.65519L15.5804 7.53984L15.3346 7.77054L15.3143 7.74694C15.3179 7.73997 15.3214 7.73246 15.3247 7.72442L15.3224 7.72355L15.3388 7.70588L15.2728 7.64874L15.2645 7.65019C15.2554 7.6518 15.2459 7.65368 15.236 7.65585Z" fill="#E7E7E7"/>
<path fill-rule="evenodd" clip-rule="evenodd" d="M13.3921 11.4949L12.8334 10.4984L12.0497 10.7094L12.6137 11.6189H12.8334V11.7181L13.3921 11.4949Z" fill="#925229"/>
<path fill-rule="evenodd" clip-rule="evenodd" d="M13.6318 7.66327L14.0016 8.04758L14.1361 10.5872L12.8036 10.7814C12.8036 10.7814 13.3842 10.2716 13.4698 9.95697C13.5554 9.64235 13.5827 8.46778 13.4208 8.28919L13.2944 8.36303L13.1926 8.06085" fill="#FFE000"/>
<path fill-rule="evenodd" clip-rule="evenodd" d="M14.9197 7.83645C14.9197 7.83645 15.0629 9.81946 15.0629 10.1677C15.0629 10.516 14.7672 11.3453 14.0932 11.3453C13.4192 11.3453 12.4943 10.9743 12.4943 10.8229C12.4943 10.6716 12.7704 10.5632 12.7704 10.5632C12.7704 10.5632 14.01 10.6479 14.01 10.1677C14.01 9.68752 13.9257 8.26604 13.8522 8.09843C13.7786 7.93083 13.5235 7.67808 13.5235 7.67808L14.01 7.31659L14.0932 7.67808L14.4051 7.57196L14.5002 8.09843L14.9197 7.83645Z" fill="#D52C1E"/>
<path fill-rule="evenodd" clip-rule="evenodd" d="M13.1879 8.05652L13.2775 8.33699L13.4585 8.2606C13.4585 8.2606 13.7292 9.52978 13.4585 10.0615C13.1879 10.5931 12.5063 10.6317 12.5063 10.6317L12.7942 8.33699L13.1879 8.05652Z" fill="#027934"/>
<path fill-rule="evenodd" clip-rule="evenodd" d="M13.2278 9.77142L13.8774 10.2851C13.8774 10.2851 14.0555 10.5405 13.8774 10.7338C13.6992 10.9271 13.2053 11.1242 13.0887 10.8908C12.9722 10.6575 12.626 10.3841 12.626 10.3841L13.2278 9.77142Z" fill="#E8A30C"/>
<path fill-rule="evenodd" clip-rule="evenodd" d="M12.7179 7.83317C12.5598 7.69578 12.4806 7.52814 12.5409 7.45874C12.6013 7.38934 12.7783 7.44446 12.9364 7.58185C13.0944 7.71925 13.1736 7.88689 13.1133 7.95629C13.053 8.02569 12.8759 7.97057 12.7179 7.83317Z" fill="#E1E5E8"/>
<path fill-rule="evenodd" clip-rule="evenodd" d="M11.7197 10.936L12.0605 10.9326C12.3135 11.1828 12.3368 11.5194 12.1376 11.9259C12.1376 11.9259 12.0722 12.0204 12.0494 12.0115C12.0173 11.9992 11.9728 11.8623 11.9728 11.8623C11.988 11.4653 11.7349 11.2024 11.7197 10.936Z" fill="#D52C1E"/>
<path fill-rule="evenodd" clip-rule="evenodd" d="M12.1514 10.9464L12.0289 10.8894C11.9081 11.1403 11.9686 11.4001 12.2016 11.6581L12.303 11.5697C12.2016 11.2737 12.2016 11.1512 12.1514 10.9464Z" fill="#FFE000"/>
<path d="M12.3078 10.9383L12.18 10.9009C12.1185 11.111 12.1492 11.3278 12.27 11.5478L12.3867 11.4837C12.2823 11.2935 12.2568 11.1129 12.3078 10.9383Z" fill="#027934"/>
<path fill-rule="evenodd" clip-rule="evenodd" d="M10.062 9.22433C10.062 10.1876 10.7733 10.9892 11.6822 10.9892C12.5911 10.9892 13.3024 10.1876 13.3024 9.22433C13.3024 8.26105 12.5911 7.45941 11.6822 7.45941C10.7733 7.45941 10.062 8.26105 10.062 9.22433ZM12.9232 9.2243C12.9232 9.99673 12.3676 10.6229 11.6822 10.6229C10.9968 10.6229 10.4412 9.99673 10.4412 9.2243C10.4412 8.45187 10.9968 7.82569 11.6822 7.82569C12.3676 7.82569 12.9232 8.45187 12.9232 9.2243Z" fill="#00A6DE"/>
<path fill-rule="evenodd" clip-rule="evenodd" d="M11.6822 8.97456L11.5211 9.30668L11.5251 8.93993L11.2308 9.17164L11.3992 8.84291L11.0299 8.92832L11.3293 8.70271L10.9583 8.6249L11.3293 8.5471L11.0299 8.32149L11.3992 8.4069L11.2308 8.07816L11.5251 8.30988L11.5211 7.94313L11.6822 8.27525L11.8433 7.94313L11.8392 8.30988L12.1335 8.07816L11.9652 8.4069L12.3344 8.32149L12.0351 8.5471L12.4061 8.6249L12.0351 8.70271L12.3344 8.92832L11.9652 8.84291L12.1335 9.17164L11.8392 8.93993L11.8433 9.30668L11.6822 8.97456Z" fill="#D52C1E"/>
<path fill-rule="evenodd" clip-rule="evenodd" d="M10.3883 9.30469C10.3883 9.30469 11.3588 8.62134 11.5972 8.62134C11.8356 8.62134 12.8527 9.30843 13.0608 9.4019C13.2688 9.49536 13.0608 11.3282 13.0608 11.3282H10.3079L10.3883 9.30469Z" fill="#027934"/>
<path fill-rule="evenodd" clip-rule="evenodd" d="M10.3812 8.49134L10.441 8.52443C10.768 7.97256 11.184 7.69887 11.6915 7.69887C12.2597 7.73049 12.6853 8.04063 12.9694 8.63363L13.0319 8.60566C12.7377 7.99139 12.2905 7.66548 11.6935 7.63232C11.1572 7.63227 10.7196 7.92012 10.3812 8.49134ZM10.1402 9.55565L10.2516 9.48074L10.363 9.55565L10.3237 9.43011L10.4319 9.35088L10.2962 9.34821L10.2516 9.22432L10.207 9.34821L10.0713 9.35088L10.1795 9.43011L10.1402 9.55565ZM10.3895 9.98024L10.2781 10.0552L10.3174 9.92962L10.2092 9.85039L10.3449 9.84772L10.3895 9.72383L10.4341 9.84772L10.5698 9.85039L10.4617 9.92962L10.501 10.0552L10.3895 9.98024ZM10.5538 10.4547L10.6653 10.3798L10.7767 10.4547L10.7374 10.3292L10.8456 10.25L10.7099 10.2473L10.6653 10.1234L10.6207 10.2473L10.485 10.25L10.5932 10.3292L10.5538 10.4547ZM11.079 10.7129L10.9675 10.7878L11.0068 10.6622L10.8986 10.583L11.0344 10.5803L11.079 10.4564L11.1235 10.5803L11.2593 10.583L11.1511 10.6622L11.1904 10.7878L11.079 10.7129ZM11.5536 10.9542L11.665 10.8793L11.7765 10.9542L11.7372 10.8287L11.8454 10.7495L11.7096 10.7468L11.665 10.6229L11.6205 10.7468L11.4847 10.7495L11.5929 10.8287L11.5536 10.9542ZM13.1129 9.48074L13.2243 9.55565L13.185 9.43011L13.2932 9.35088L13.1574 9.34821L13.1129 9.22432L13.0683 9.34821L12.9326 9.35088L13.0407 9.43011L13.0014 9.55565L13.1129 9.48074ZM13.0864 10.0552L12.975 9.98024L12.8635 10.0552L12.9028 9.92962L12.7946 9.85039L12.9304 9.84772L12.975 9.72383L13.0195 9.84772L13.1553 9.85039L13.0471 9.92962L13.0864 10.0552ZM12.6992 10.3798L12.8106 10.4547L12.7713 10.3292L12.8795 10.25L12.7438 10.2473L12.6992 10.1234L12.6546 10.2473L12.5189 10.25L12.6271 10.3292L12.5878 10.4547L12.6992 10.3798ZM12.397 10.7878L12.2855 10.7129L12.1741 10.7878L12.2134 10.6622L12.1052 10.583L12.2409 10.5803L12.2855 10.4564L12.3301 10.5803L12.4658 10.583L12.3576 10.6622L12.397 10.7878Z" fill="#FFC036"/>
<path d="M10.8183 5.33289L10.9514 5.42968C10.6104 5.73563 10.5463 6.0768 10.6116 6.3699C10.6796 6.67526 10.982 7.00099 11.5317 7.33547L11.3296 7.64541C10.7019 7.26346 10.3404 6.91004 10.2466 6.48915C10.1501 6.056 10.387 5.7199 10.8183 5.33289Z" fill="#036A2D"/>
<path d="M12.6276 5.33289L12.4946 5.42968C12.8356 5.73563 12.8996 6.0768 12.8343 6.3699C12.7663 6.67526 12.464 7.00099 11.9143 7.33547L12.1163 7.64541C12.7441 7.26346 13.1056 6.91004 13.1993 6.48915C13.2958 6.056 13.0589 5.7199 12.6276 5.33289Z" fill="#036A2D"/>
<path fill-rule="evenodd" clip-rule="evenodd" d="M9.541 6.57418C9.541 6.57418 10.1229 6.17182 10.3991 6.17182C10.6752 6.17182 11.0437 6.07966 11.1015 6.29135C11.1593 6.50303 11.2685 6.44173 11.4824 6.44173C11.6962 6.44173 12.1165 6.44173 12.1165 6.44173C12.1165 6.44173 11.991 6.17182 12.2236 6.17182C12.4562 6.17182 13.4277 6.30927 13.721 6.44173C14.0142 6.57418 14.0289 6.65248 14.0289 6.65248C14.0289 6.65248 13.7576 6.49588 13.4573 6.57418C13.1571 6.65248 12.6126 6.99722 12.3646 6.99722C12.1165 6.99722 11.918 7.26371 11.918 7.26371C11.918 7.26371 11.9344 7.12711 11.7084 7.19541C11.4824 7.26371 11.4877 7.58545 11.2946 7.52638C11.1015 7.46731 11.3502 6.99722 11.2946 6.99722C11.239 6.99722 10.8447 6.84272 10.8447 6.84272C10.8447 6.84272 10.4622 6.49588 9.89421 6.57418C9.32619 6.65248 9.541 6.57418 9.541 6.57418Z" fill="#452C24"/>
<path fill-rule="evenodd" clip-rule="evenodd" d="M11.6134 6.86002C11.7277 6.86002 11.8203 6.77802 11.8203 6.67686C11.8203 6.57571 11.7277 6.49371 11.6134 6.49371C11.4992 6.49371 11.4066 6.57571 11.4066 6.67686C11.4066 6.77802 11.4992 6.86002 11.6134 6.86002Z" fill="#E7E7E7"/>
<path fill-rule="evenodd" clip-rule="evenodd" d="M11.1666 6.6717C11.1666 6.6717 11.2335 6.54523 11.3661 6.54523C11.4986 6.54523 11.7472 6.54523 11.7472 6.60846C11.7472 6.6717 11.7671 6.75431 11.5666 6.75431C11.3661 6.75431 11.4946 6.6717 11.3661 6.6717C11.2376 6.6717 11.1666 6.6717 11.1666 6.6717Z" fill="#E8A30C"/>
<path fill-rule="evenodd" clip-rule="evenodd" d="M13.531 7.52595C13.6081 7.44525 13.6511 7.24954 13.6511 7.24954C13.6511 7.24954 13.307 7.30463 13.2269 7.24954C13.1467 7.19446 13.1052 7.03302 13.1052 7.03302C13.1052 7.03302 12.7951 7.1747 12.9134 7.1747C13.0316 7.1747 13.1052 7.27949 13.1052 7.27949L13.3458 7.36813C13.3458 7.36813 13.1861 7.52595 13.2659 7.52595C13.3458 7.52595 13.454 7.60665 13.531 7.52595Z" fill="#E1E5E8"/>
<path d="M12.9248 7.5931L12.8815 7.54134L13.1838 7.30469L13.2271 7.35646L12.9248 7.5931Z" fill="#925229"/>
</g>
</g>
<defs>
<clipPath id="clip0_58_5307">
<rect width="21.4187" height="16.064" fill="white" transform="translate(0.699463 0.674927)"/>
</clipPath>
</defs>
</svg>
