<svg width="22" height="17" viewBox="0 0 22 17" fill="none" xmlns="http://www.w3.org/2000/svg">
<g clip-path="url(#clip0_58_5293)">
<rect width="21.4187" height="16.064" transform="translate(0.536865 0.674927)" fill="white"/>
<path fill-rule="evenodd" clip-rule="evenodd" d="M0.827515 0.642883H22.2462V16.7069H0.827515V0.642883Z" fill="white"/>
<path fill-rule="evenodd" clip-rule="evenodd" d="M0.827515 7.96095V0.642883H11.5369L0.827515 7.96095Z" fill="#FEDA00"/>
<path fill-rule="evenodd" clip-rule="evenodd" d="M0.827515 16.7069H22.2523V0.642883L0.827515 16.7069Z" fill="#00268D"/>
<mask id="path-4-inside-1_58_5293" fill="white">
<path fill-rule="evenodd" clip-rule="evenodd" d="M7.08802 3.98956L7.44067 4.7467C8.87698 4.91807 9.99588 6.12316 10.0322 7.59685L10.6712 7.91635L9.97312 8.2654C9.72303 9.48544 8.71849 10.4305 7.46836 10.5916L7.08806 11.3522L6.70775 10.5916C5.45764 10.4304 4.45312 9.48542 4.20304 8.26539L3.50488 7.91631L4.14392 7.59679C4.18011 6.13137 5.28672 4.93155 6.71143 4.74968L7.08802 3.98956Z"/>
</mask>
<path fill-rule="evenodd" clip-rule="evenodd" d="M7.08802 3.98956L7.44067 4.7467C8.87698 4.91807 9.99588 6.12316 10.0322 7.59685L10.6712 7.91635L9.97312 8.2654C9.72303 9.48544 8.71849 10.4305 7.46836 10.5916L7.08806 11.3522L6.70775 10.5916C5.45764 10.4304 4.45312 9.48542 4.20304 8.26539L3.50488 7.91631L4.14392 7.59679C4.18011 6.13137 5.28672 4.93155 6.71143 4.74968L7.08802 3.98956Z" fill="white"/>
<path d="M7.44067 4.7467L6.96012 4.97052L7.08475 5.23811L7.37786 5.27308L7.44067 4.7467ZM7.08802 3.98956L7.56857 3.76574L7.10278 2.76568L6.61301 3.75422L7.08802 3.98956ZM10.0322 7.59685L9.50229 7.60993L9.51015 7.92849L9.79517 8.071L10.0322 7.59685ZM10.6712 7.91635L10.9083 8.3905L11.8566 7.91635L10.9083 7.4422L10.6712 7.91635ZM9.97312 8.2654L9.73605 7.79125L9.50555 7.9065L9.45381 8.15895L9.97312 8.2654ZM7.46836 10.5916L7.40058 10.0659L7.12051 10.102L6.99422 10.3546L7.46836 10.5916ZM7.08806 11.3522L6.61391 11.5893L7.08806 12.5376L7.56221 11.5893L7.08806 11.3522ZM6.70775 10.5916L7.1819 10.3546L7.05561 10.102L6.77554 10.0659L6.70775 10.5916ZM4.20304 8.26539L4.72235 8.15894L4.67061 7.90649L4.44011 7.79124L4.20304 8.26539ZM3.50488 7.91631L3.26781 7.44216L2.31951 7.91631L3.26781 8.39046L3.50488 7.91631ZM4.14392 7.59679L4.38099 8.07094L4.66601 7.92844L4.67387 7.60988L4.14392 7.59679ZM6.71143 4.74968L6.77856 5.27552L7.06033 5.23955L7.18644 4.98502L6.71143 4.74968ZM7.92121 4.52288L7.56857 3.76574L6.60747 4.21338L6.96012 4.97052L7.92121 4.52288ZM10.5622 7.58378C10.5193 5.84416 9.19894 4.4226 7.50347 4.22032L7.37786 5.27308C8.55501 5.41353 9.47249 6.40216 9.50229 7.60993L10.5622 7.58378ZM10.9083 7.4422L10.2693 7.12271L9.79517 8.071L10.4342 8.3905L10.9083 7.4422ZM10.2102 8.73955L10.9083 8.3905L10.4342 7.4422L9.73605 7.79125L10.2102 8.73955ZM7.53615 11.1174C9.01254 10.9271 10.1972 9.81215 10.4924 8.37185L9.45381 8.15895C9.24887 9.15873 8.42445 9.93388 7.40058 10.0659L7.53615 11.1174ZM6.99422 10.3546L6.61391 11.1152L7.56221 11.5893L7.94251 10.8287L6.99422 10.3546ZM7.56221 11.1152L7.1819 10.3546L6.2336 10.8287L6.61391 11.5893L7.56221 11.1152ZM3.68372 8.37184C3.97895 9.81213 5.16359 10.927 6.63996 11.1174L6.77554 10.0659C5.75169 9.93386 4.92729 9.15871 4.72235 8.15894L3.68372 8.37184ZM3.26781 8.39046L3.96596 8.73954L4.44011 7.79124L3.74196 7.44216L3.26781 8.39046ZM3.90685 7.12265L3.26781 7.44216L3.74196 8.39046L4.38099 8.07094L3.90685 7.12265ZM6.6443 4.22383C4.96253 4.43852 3.65669 5.85382 3.61397 7.58371L4.67387 7.60988C4.70353 6.40891 5.61091 5.42458 6.77856 5.27552L6.6443 4.22383ZM6.61301 3.75422L6.23642 4.51434L7.18644 4.98502L7.56303 4.2249L6.61301 3.75422Z" fill="black" mask="url(#path-4-inside-1_58_5293)"/>
<path fill-rule="evenodd" clip-rule="evenodd" d="M7.103 6.19836L6.66858 6.92731H5.81177L6.23901 7.69315L5.81177 8.42774H6.66858L7.103 9.17722L7.54405 8.42774H8.39315L7.97636 7.69315L8.39315 6.92731H7.54405L7.103 6.19836Z" fill="#F00A17"/>
</g>
<defs>
<clipPath id="clip0_58_5293">
<rect width="21.4187" height="16.064" fill="white" transform="translate(0.536865 0.674927)"/>
</clipPath>
</defs>
</svg>
