<svg width="23" height="17" viewBox="0 0 23 17" fill="none" xmlns="http://www.w3.org/2000/svg">
<g clip-path="url(#clip0_58_5273)">
<rect width="21.4187" height="16.064" transform="translate(0.837402 0.512451)" fill="white"/>
<path fill-rule="evenodd" clip-rule="evenodd" d="M1.12805 0.480408H22.5468V16.5444H1.12805V0.480408Z" fill="#00268D"/>
<path d="M1.79739 1.14974H21.8774V15.8751H1.79739V1.14974Z" fill="#00268D" stroke="#E31D1C" stroke-width="1.33867"/>
<rect x="11.1681" y="0.480408" width="1.33867" height="16.064" fill="#E31D1C"/>
<rect x="1.12805" y="9.18176" width="1.33867" height="21.4187" transform="rotate(-90 1.12805 9.18176)" fill="#E31D1C"/>
<path d="M8.89826 11.1898C9.07831 11.1898 17.8614 11.1898 17.8614 11.1898L16.9137 10.3356C16.9137 10.3356 15.0186 8.64667 14.8967 8.56926C14.7747 8.49186 14.5733 8.45845 14.344 8.70446C14.1147 8.95048 13.9832 8.56926 13.7923 8.56926C13.6015 8.56926 13.5208 8.56926 13.2438 8.8849C12.9668 9.20054 11.9695 10.3356 11.9695 10.3356H10.5038C10.5038 10.3356 10.2565 10.1492 10.1156 10.2157C9.97472 10.2822 9.18098 9.4798 8.89826 9.41985C8.61554 9.3599 8.42951 9.63737 8.42951 9.85816C8.42951 10.079 8.29648 9.65583 8.02597 9.78003C7.75546 9.90423 7.84267 10.2157 7.84267 10.2157C7.84267 10.2157 8.7182 11.1898 8.89826 11.1898Z" fill="#059334"/>
<path fill-rule="evenodd" clip-rule="evenodd" d="M11.506 8.04469L10.886 8.5124L11.1135 7.7398L10.4988 7.26687H11.2646L11.506 6.50439L11.7618 7.26687H12.5068L11.8974 7.7398L12.1291 8.5124L11.506 8.04469Z" fill="#FEDA00"/>
</g>
<defs>
<clipPath id="clip0_58_5273">
<rect width="21.4187" height="16.064" fill="white" transform="translate(0.837402 0.512451)"/>
</clipPath>
</defs>
</svg>
