<svg width="23" height="17" viewBox="0 0 23 17" fill="none" xmlns="http://www.w3.org/2000/svg">
<g clip-path="url(#clip0_58_5253)">
<rect width="21.4187" height="16.064" transform="translate(0.674805 0.512451)" fill="white"/>
<path fill-rule="evenodd" clip-rule="evenodd" d="M0.965454 0.480408V16.5444H22.3842V0.480408H0.965454Z" fill="#009933"/>
<mask id="mask0_58_5253" style="mask-type:luminance" maskUnits="userSpaceOnUse" x="0" y="0" width="23" height="17">
<path fill-rule="evenodd" clip-rule="evenodd" d="M0.965454 0.480408V16.5444H22.3842V0.480408H0.965454Z" fill="white"/>
</mask>
<g mask="url(#mask0_58_5253)">
<g filter="url(#filter0_d_58_5253)">
<path fill-rule="evenodd" clip-rule="evenodd" d="M11.6258 2.95965L19.7929 8.65132L11.5147 13.9818L3.5149 8.54099L11.6258 2.95965Z" fill="#FFD221"/>
<path fill-rule="evenodd" clip-rule="evenodd" d="M11.6258 2.95965L19.7929 8.65132L11.5147 13.9818L3.5149 8.54099L11.6258 2.95965Z" fill="url(#paint0_linear_58_5253)"/>
</g>
<path fill-rule="evenodd" clip-rule="evenodd" d="M11.6748 11.993C13.5231 11.993 15.0215 10.4946 15.0215 8.6463C15.0215 6.79798 13.5231 5.29962 11.6748 5.29962C9.82648 5.29962 8.32812 6.79798 8.32812 8.6463C8.32812 10.4946 9.82648 11.993 11.6748 11.993Z" fill="#2E42A5"/>
<mask id="mask1_58_5253" style="mask-type:luminance" maskUnits="userSpaceOnUse" x="8" y="5" width="8" height="7">
<path fill-rule="evenodd" clip-rule="evenodd" d="M11.6748 11.993C13.5231 11.993 15.0215 10.4946 15.0215 8.6463C15.0215 6.79798 13.5231 5.29962 11.6748 5.29962C9.82648 5.29962 8.32812 6.79798 8.32812 8.6463C8.32812 10.4946 9.82648 11.993 11.6748 11.993Z" fill="white"/>
</mask>
<g mask="url(#mask1_58_5253)">
<path fill-rule="evenodd" clip-rule="evenodd" d="M10.5905 10.2326L10.441 10.3112L10.4696 10.1447L10.3486 10.0268L10.5158 10.0025L10.5905 9.85107L10.6653 10.0025L10.8324 10.0268L10.7115 10.1447L10.74 10.3112L10.5905 10.2326Z" fill="#F7FCFF"/>
<path fill-rule="evenodd" clip-rule="evenodd" d="M11.9292 10.2326L11.7797 10.3112L11.8082 10.1447L11.6873 10.0268L11.8544 10.0025L11.9292 9.85107L12.0039 10.0025L12.1711 10.0268L12.0501 10.1447L12.0787 10.3112L11.9292 10.2326Z" fill="#F7FCFF"/>
<path fill-rule="evenodd" clip-rule="evenodd" d="M11.9292 11.0358L11.7797 11.1144L11.8082 10.9479L11.6873 10.83L11.8544 10.8058L11.9292 10.6543L12.0039 10.8058L12.1711 10.83L12.0501 10.9479L12.0787 11.1144L11.9292 11.0358Z" fill="#F7FCFF"/>
<path fill-rule="evenodd" clip-rule="evenodd" d="M11.2598 8.2246L11.1103 8.3032L11.1389 8.13672L11.0179 8.01883L11.1851 7.99454L11.2598 7.84308L11.3346 7.99454L11.5017 8.01883L11.3808 8.13672L11.4093 8.3032L11.2598 8.2246Z" fill="#F7FCFF"/>
<path fill-rule="evenodd" clip-rule="evenodd" d="M11.2598 9.56328L11.1103 9.64188L11.1389 9.47541L11.0179 9.35751L11.1851 9.33322L11.2598 9.18176L11.3346 9.33322L11.5017 9.35751L11.3808 9.47541L11.4093 9.64188L11.2598 9.56328Z" fill="#F7FCFF"/>
<path fill-rule="evenodd" clip-rule="evenodd" d="M10.3227 8.89397L10.1732 8.97257L10.2018 8.8061L10.0808 8.6882L10.248 8.66391L10.3227 8.51245L10.3975 8.66391L10.5646 8.6882L10.4437 8.8061L10.4722 8.97257L10.3227 8.89397Z" fill="#F7FCFF"/>
<path fill-rule="evenodd" clip-rule="evenodd" d="M9.38569 9.42943L9.23619 9.50803L9.26475 9.34156L9.1438 9.22366L9.31094 9.19937L9.38569 9.04791L9.46045 9.19937L9.62759 9.22366L9.50664 9.34156L9.5352 9.50803L9.38569 9.42943Z" fill="#F7FCFF"/>
<path fill-rule="evenodd" clip-rule="evenodd" d="M12.4647 7.15368L12.3152 7.23227L12.3437 7.0658L12.2228 6.94791L12.3899 6.92362L12.4647 6.77216L12.5394 6.92362L12.7066 6.94791L12.5856 7.0658L12.6142 7.23227L12.4647 7.15368Z" fill="#F7FCFF"/>
<path d="M7.60852 7.84123L7.70918 6.50635C10.9206 6.7485 13.4553 7.80443 15.2814 9.68273L14.3215 10.6159C12.7388 8.9879 10.5118 8.06015 7.60852 7.84123Z" fill="#F7FCFF"/>
<path d="M9.19116 7.57721L9.22564 7.24432C11.2959 7.45877 13.0716 8.25173 14.5474 9.62147L14.3197 9.86676C12.8976 8.54686 11.1899 7.78425 9.19116 7.57721Z" fill="#009933"/>
</g>
</g>
</g>
<defs>
<filter id="filter0_d_58_5253" x="3.51489" y="2.95966" width="16.2781" height="11.0221" filterUnits="userSpaceOnUse" color-interpolation-filters="sRGB">
<feFlood flood-opacity="0" result="BackgroundImageFix"/>
<feColorMatrix in="SourceAlpha" type="matrix" values="0 0 0 0 0 0 0 0 0 0 0 0 0 0 0 0 0 0 127 0" result="hardAlpha"/>
<feOffset/>
<feColorMatrix type="matrix" values="0 0 0 0 0.0313726 0 0 0 0 0.368627 0 0 0 0 0 0 0 0 0.28 0"/>
<feBlend mode="normal" in2="BackgroundImageFix" result="effect1_dropShadow_58_5253"/>
<feBlend mode="normal" in="SourceGraphic" in2="effect1_dropShadow_58_5253" result="shape"/>
</filter>
<linearGradient id="paint0_linear_58_5253" x1="22.3842" y1="16.5444" x2="22.3842" y2="0.480408" gradientUnits="userSpaceOnUse">
<stop stop-color="#FFC600"/>
<stop offset="1" stop-color="#FFDE42"/>
</linearGradient>
<clipPath id="clip0_58_5253">
<rect width="21.4187" height="16.064" fill="white" transform="translate(0.674805 0.512451)"/>
</clipPath>
</defs>
</svg>
