<svg width="23" height="17" viewBox="0 0 23 17" fill="none" xmlns="http://www.w3.org/2000/svg">
<g clip-path="url(#clip0_58_5058)">
<rect width="21.4187" height="16.064" transform="translate(0.862061 0.512451)" fill="white"/>
<path fill-rule="evenodd" clip-rule="evenodd" d="M1.15271 0.480408H22.5714V16.5444H1.15271V0.480408Z" fill="#73BE4A"/>
<path fill-rule="evenodd" clip-rule="evenodd" d="M1.15271 0.480408V11.1898H22.5714V0.480408H1.15271Z" fill="#AF0100"/>
<rect x="1.15271" y="0.480408" width="4.01601" height="16.064" fill="#F7FCFF"/>
<path fill-rule="evenodd" clip-rule="evenodd" d="M1.44995 1.97707L2.42224 0.518433L3.36951 1.97703L2.42222 3.36882L1.44995 1.97707ZM2.41866 2.77313L2.96362 1.97247L2.41864 1.13331L1.8593 1.97243L2.41866 2.77313ZM2.49133 1.86224H2.324V2.2077H2.49133V1.86224Z" fill="#B20000"/>
<path fill-rule="evenodd" clip-rule="evenodd" d="M1.9137 3.28217L1.44995 3.94527L1.91368 4.57797L2.3655 3.94525L1.9137 3.28217ZM2.13055 3.95651L1.92159 4.24016L1.71013 3.93959L1.92103 3.62831L2.13055 3.95651Z" fill="#B20000"/>
<path fill-rule="evenodd" clip-rule="evenodd" d="M2.91773 3.28217L2.45398 3.94527L2.91771 4.57797L3.36953 3.94525L2.91773 3.28217ZM3.13467 3.95651L2.92572 4.24016L2.71425 3.93959L2.92516 3.62831L3.13467 3.95651Z" fill="#B20000"/>
<path fill-rule="evenodd" clip-rule="evenodd" d="M3.58704 3.28217L3.12329 3.94527L3.58702 4.57797L4.03884 3.94525L3.58704 3.28217ZM3.80389 3.95651L3.59493 4.24016L3.38347 3.93959L3.59437 3.62831L3.80389 3.95651Z" fill="#B20000"/>
<path fill-rule="evenodd" clip-rule="evenodd" d="M4.59107 3.28217L4.12732 3.94527L4.59105 4.57797L5.04287 3.94525L4.59107 3.28217ZM4.80801 3.95651L4.59905 4.24016L4.38759 3.93959L4.59849 3.62831L4.80801 3.95651Z" fill="#B20000"/>
<path fill-rule="evenodd" clip-rule="evenodd" d="M3.12329 1.97707L4.09558 0.518433L5.04285 1.97703L4.09556 3.36882L3.12329 1.97707ZM4.092 2.77313L4.63696 1.97247L4.09198 1.13331L3.53264 1.97243L4.092 2.77313ZM4.16467 1.86224H3.99734V2.2077H4.16467V1.86224Z" fill="#B20000"/>
<path d="M2.26113 8.78425L1.17737 6.9643L1.46248 6.78339L2.24813 8.10273L3.20677 6.34106L4.18922 8.10693L4.88338 6.9548L5.16757 7.13725L4.17778 8.78005L3.20999 7.04054L2.26113 8.78425Z" fill="#B20000"/>
<path fill-rule="evenodd" clip-rule="evenodd" d="M1.65466 0.825867H1.83459V1.17133H1.65466V0.825867Z" fill="#B20000"/>
<path fill-rule="evenodd" clip-rule="evenodd" d="M3.16064 0.480408H3.34057V0.825871H3.16064V0.480408Z" fill="#B20000"/>
<path fill-rule="evenodd" clip-rule="evenodd" d="M4.66663 0.825867H4.84655V1.17133H4.66663V0.825867Z" fill="#B20000"/>
<path fill-rule="evenodd" clip-rule="evenodd" d="M3.16069 2.89868H3.32803V3.24414H3.16069V2.89868ZM1.65466 2.89869H1.822V3.24415H1.65466V2.89869ZM4.83403 2.89868H4.6667V3.24414H4.83403V2.89868Z" fill="#B20000"/>
<path fill-rule="evenodd" clip-rule="evenodd" d="M1.65466 4.62598H1.822V4.97144H1.65466V4.62598ZM3.16069 4.62598H3.32803V4.97144H3.16069V4.62598ZM4.83403 4.62598H4.6667V4.97144H4.83403V4.62598Z" fill="#B20000"/>
<path fill-rule="evenodd" clip-rule="evenodd" d="M2.63067 6.47413L2.1861 7.1222L1.48486 5.85923L2.40839 4.41626L3.20264 5.67413L3.99687 4.41628L4.92039 5.85925L4.21916 7.12222L3.77459 6.47415L4.12558 5.7444L3.99687 5.4479L3.24699 6.66424V6.80814L3.20264 6.73619L3.15827 6.80816V6.66422L2.40839 5.44788L2.27968 5.74438L2.63067 6.47413Z" fill="#B20000"/>
<path fill-rule="evenodd" clip-rule="evenodd" d="M3.16064 7.56238H3.32798V7.90784H3.16064V7.56238ZM3.16064 9.28968H3.32798V9.63515H3.16064V9.28968ZM3.16064 8.08056H2.99331V8.42602H3.16064V8.08056ZM3.32798 8.08056H3.49531V8.42602H3.32798V8.08056ZM3.32798 8.42605H3.16064V8.59878H2.99331V8.94424H3.16064V8.77151H3.32798L3.32798 8.94424H3.49531V8.59878H3.32798L3.32798 8.42605ZM2.65864 8.42605H2.82597V8.77151H2.65864V8.42605ZM3.82998 8.42605H3.66264V8.77151H3.82998V8.42605ZM1.4873 8.42605H1.65464V8.77151H1.4873V8.42605ZM5.00131 8.42605H4.83398V8.77151H5.00131V8.42605Z" fill="#B20000"/>
<path fill-rule="evenodd" clip-rule="evenodd" d="M1.44995 15.0478L2.42224 16.5064L3.36951 15.0478L2.42222 13.656L1.44995 15.0478ZM2.41866 14.2517L2.96362 15.0524L2.41864 15.8916L1.8593 15.0525L2.41866 14.2517ZM2.49133 15.1626H2.324V14.8171H2.49133V15.1626Z" fill="#B20000"/>
<path fill-rule="evenodd" clip-rule="evenodd" d="M1.9137 13.7427L1.44995 13.0796L1.91368 12.4469L2.3655 13.0796L1.9137 13.7427ZM2.13055 13.0683L1.92159 12.7847L1.71013 13.0852L1.92103 13.3965L2.13055 13.0683Z" fill="#B20000"/>
<path fill-rule="evenodd" clip-rule="evenodd" d="M2.91773 13.7427L2.45398 13.0796L2.91771 12.4469L3.36953 13.0796L2.91773 13.7427ZM3.13467 13.0683L2.92572 12.7847L2.71425 13.0852L2.92516 13.3965L3.13467 13.0683Z" fill="#B20000"/>
<path fill-rule="evenodd" clip-rule="evenodd" d="M3.58704 13.7427L3.12329 13.0796L3.58702 12.4469L4.03884 13.0796L3.58704 13.7427ZM3.80389 13.0683L3.59493 12.7847L3.38347 13.0852L3.59437 13.3965L3.80389 13.0683Z" fill="#B20000"/>
<path fill-rule="evenodd" clip-rule="evenodd" d="M4.59107 13.7427L4.12732 13.0796L4.59105 12.4469L5.04287 13.0796L4.59107 13.7427ZM4.80801 13.0683L4.59905 12.7847L4.38759 13.0852L4.59849 13.3965L4.80801 13.0683Z" fill="#B20000"/>
<path fill-rule="evenodd" clip-rule="evenodd" d="M3.12329 15.0478L4.09558 16.5064L5.04285 15.0478L4.09556 13.656L3.12329 15.0478ZM4.092 14.2517L4.63696 15.0524L4.09198 15.8916L3.53264 15.0525L4.092 14.2517ZM4.16467 15.1626H3.99734V14.8171H4.16467V15.1626Z" fill="#B20000"/>
<path d="M2.26113 8.24059L1.17737 10.0605L1.46248 10.2415L2.24813 8.92211L3.20677 10.6838L4.18922 8.91791L4.88338 10.07L5.16757 9.88759L4.17778 8.24479L3.20999 9.9843L2.26113 8.24059Z" fill="#B20000"/>
<path fill-rule="evenodd" clip-rule="evenodd" d="M1.65466 16.199H1.83459V15.8535H1.65466V16.199Z" fill="#B20000"/>
<path fill-rule="evenodd" clip-rule="evenodd" d="M3.16064 16.5444H3.34057V16.199H3.16064V16.5444Z" fill="#B20000"/>
<path fill-rule="evenodd" clip-rule="evenodd" d="M4.66663 16.199H4.84655V15.8535H4.66663V16.199Z" fill="#B20000"/>
<path fill-rule="evenodd" clip-rule="evenodd" d="M1.65466 14.1262H1.822V13.7807H1.65466V14.1262ZM3.16069 14.1262H3.32803V13.7807H3.16069V14.1262ZM4.83403 14.1262H4.6667V13.7807H4.83403V14.1262Z" fill="#B20000"/>
<path fill-rule="evenodd" clip-rule="evenodd" d="M1.65466 12.3989H1.822V12.0534H1.65466V12.3989ZM3.16069 12.3988H3.32803V12.0534H3.16069V12.3988ZM4.83403 12.3988H4.6667V12.0534H4.83403V12.3988Z" fill="#B20000"/>
<path fill-rule="evenodd" clip-rule="evenodd" d="M2.63067 10.6495L2.1861 10.0014L1.48486 11.2644L2.40839 12.7073L3.20263 11.4495L3.99687 12.7073L4.92039 11.2644L4.21916 10.0014L3.77459 10.6495L4.12558 11.3792L3.99687 11.6757L3.24699 10.4594V10.3155L3.20263 10.3874L3.15827 10.3154V10.4594L2.40839 11.6757L2.27968 11.3792L2.63067 10.6495Z" fill="#B20000"/>
</g>
<defs>
<clipPath id="clip0_58_5058">
<rect width="21.4187" height="16.064" fill="white" transform="translate(0.862061 0.512451)"/>
</clipPath>
</defs>
</svg>
