<svg width="23" height="17" viewBox="0 0 23 17" fill="none" xmlns="http://www.w3.org/2000/svg">
<g clip-path="url(#clip0_58_4958)">
<rect width="21.4187" height="16.064" transform="translate(0.699463 0.512451)" fill="white"/>
<path fill-rule="evenodd" clip-rule="evenodd" d="M0.990112 0.480408V16.5444H22.4088V0.480408H0.990112Z" fill="#0168B4"/>
<mask id="mask0_58_4958" style="mask-type:luminance" maskUnits="userSpaceOnUse" x="0" y="0" width="23" height="17">
<path fill-rule="evenodd" clip-rule="evenodd" d="M0.990112 0.480408V16.5444H22.4088V0.480408H0.990112Z" fill="white"/>
</mask>
<g mask="url(#mask0_58_4958)">
<path fill-rule="evenodd" clip-rule="evenodd" d="M0.990112 0.480408V2.48841H22.4088V0.480408H0.990112Z" fill="#E93C43"/>
<path fill-rule="evenodd" clip-rule="evenodd" d="M0.990112 14.5364V16.5444H22.4088V14.5364H0.990112Z" fill="#E93C43"/>
<path d="M11.6994 12.5284C9.48138 12.5284 7.68335 10.7304 7.68335 8.51241C7.68335 6.29443 9.48138 4.4964 11.6994 4.4964C13.9173 4.4964 15.7154 6.29443 15.7154 8.51241C15.7154 10.7304 13.9173 12.5284 11.6994 12.5284Z" fill="#F7FCFF"/>
<path d="M11.6994 13.8671C8.7421 13.8671 6.34473 11.4697 6.34473 8.5124C6.34473 5.55509 8.7421 3.15771 11.6994 3.15771C14.6567 3.15771 17.0541 5.55509 17.0541 8.5124C17.0541 11.4697 14.6567 13.8671 11.6994 13.8671Z" fill="white"/>
<path fill-rule="evenodd" clip-rule="evenodd" d="M11.6994 13.1977C14.287 13.1977 16.3847 11.1 16.3847 8.51237C16.3847 5.92473 14.287 3.82703 11.6994 3.82703C9.11174 3.82703 7.01404 5.92473 7.01404 8.51237C7.01404 11.1 9.11174 13.1977 11.6994 13.1977Z" stroke="#9C4C17" stroke-width="0.334668"/>
<path fill-rule="evenodd" clip-rule="evenodd" d="M11.4136 3.2132L11.3097 3.43735C11.4811 3.53044 11.5462 3.74114 11.5462 3.86878C11.5462 3.9951 11.4791 4.09145 11.3097 4.17994L11.4136 4.41165C11.4846 4.37456 11.5548 4.34337 11.6212 4.31388C11.8593 4.20813 12.0482 4.12421 12.0482 3.86878C12.0482 3.55666 11.762 3.40178 11.453 3.23456L11.4136 3.2132ZM12.9132 3.35365L12.7516 3.54048C12.8907 3.67722 12.8951 3.89768 12.8599 4.02037C12.8251 4.1418 12.7341 4.21594 12.5469 4.2543L12.5829 4.50567C12.6614 4.4896 12.7375 4.47897 12.8094 4.46892C13.0674 4.43288 13.2721 4.40428 13.3425 4.15874C13.4285 3.85872 13.1961 3.63096 12.9452 3.38506L12.9132 3.35365ZM14.1146 4.04286L14.3238 3.91146L14.3452 3.95086C14.5133 4.25937 14.6689 4.54513 14.4989 4.80689C14.3598 5.02111 14.1557 4.98861 13.8984 4.94764L13.8984 4.94764C13.8267 4.93622 13.7508 4.92414 13.6711 4.91657L13.7101 4.66565C13.9004 4.68372 14.0091 4.63942 14.0779 4.53348C14.1474 4.42643 14.2076 4.21431 14.1146 4.04286ZM15.5092 4.84121L15.2718 4.90985C15.314 5.1003 15.1977 5.28761 15.1014 5.37135C15.006 5.45422 14.8893 5.46685 14.7114 5.39703L14.6047 5.62746C14.6793 5.65672 14.7489 5.68925 14.8147 5.72C15.0507 5.83028 15.2379 5.91779 15.4307 5.75021C15.6663 5.54545 15.5954 5.22786 15.5189 4.88498L15.5092 4.84121ZM16.1381 6.06681L16.3852 6.06625L16.3825 6.11101C16.3615 6.46169 16.342 6.78651 16.0592 6.91841C15.8277 7.02637 15.6718 6.89063 15.4753 6.71957C15.4205 6.67187 15.3626 6.62141 15.299 6.57273L15.4651 6.38064C15.6169 6.4968 15.7325 6.51683 15.847 6.46345C15.9627 6.4095 16.1262 6.26152 16.1381 6.06681ZM16.8876 7.49739L16.6512 7.42569C16.5828 7.60841 16.3833 7.70213 16.2569 7.7199C16.1318 7.73748 16.027 7.6845 15.9158 7.52904L15.7008 7.66418C15.7474 7.72933 15.7881 7.79452 15.8265 7.85616C15.9644 8.07718 16.0738 8.25256 16.3267 8.21701C16.6358 8.17358 16.7493 7.86863 16.8719 7.53941L16.8876 7.49739ZM16.754 8.86788L16.9615 9.00196L16.9348 9.03804C16.7262 9.32072 16.533 9.58255 16.224 9.53911C15.971 9.50356 15.9142 9.30481 15.8426 9.05436L15.8426 9.05435C15.8226 8.9845 15.8015 8.91064 15.7747 8.83517L16.0186 8.76453C16.0826 8.94462 16.1687 9.02441 16.2938 9.04199C16.4202 9.05976 16.6379 9.02468 16.754 8.86788ZM16.6094 10.4776L16.4502 10.2887C16.2934 10.4048 16.0749 10.3747 15.9593 10.3207C15.8448 10.2673 15.7858 10.1658 15.7772 9.9749L15.5233 9.97114C15.5269 10.0512 15.5255 10.128 15.5242 10.2006C15.5194 10.4611 15.5156 10.6677 15.7471 10.7757C16.03 10.9076 16.2913 10.7137 16.5734 10.5043L16.6094 10.4776ZM15.7563 11.5577L15.8573 11.7831L15.8153 11.7989C15.4864 11.9224 15.1817 12.0367 14.9462 11.832C14.7534 11.6644 14.814 11.4668 14.8904 11.2177C14.9117 11.1483 14.9342 11.0748 14.9528 10.9969L15.1958 11.0705C15.1515 11.2564 15.1802 11.3702 15.2755 11.4531C15.3719 11.5368 15.5735 11.626 15.7563 11.5577ZM14.7689 12.8244L14.7339 12.5798C14.5394 12.5951 14.3701 12.4538 14.3006 12.3467C14.2318 12.2408 14.2356 12.1235 14.3295 11.957L14.1161 11.8193C14.0768 11.889 14.0349 11.9534 13.9953 12.0143C13.8532 12.2327 13.7405 12.4059 13.8796 12.6201C14.0496 12.8819 14.374 12.8559 14.7242 12.8279L14.7689 12.8244ZM13.4614 13.2808L13.4233 13.5249L13.3795 13.5153C13.0365 13.4397 12.7187 13.3697 12.6326 13.0697C12.5622 12.8241 12.7207 12.6914 12.9204 12.5241L12.9204 12.5241L12.9204 12.5241L12.9205 12.5241L12.9205 12.5241C12.9761 12.4774 13.035 12.4281 13.093 12.3729L13.2567 12.567C13.1183 12.6988 13.0804 12.8099 13.1152 12.9313C13.1504 13.054 13.271 13.2386 13.4614 13.2808ZM11.9443 13.8116L12.0482 13.5875C11.8767 13.4944 11.8117 13.2837 11.8117 13.1561C11.8117 13.0297 11.8787 12.9334 12.0482 12.8449L11.9443 12.6132C11.8733 12.6503 11.8031 12.6815 11.7367 12.711L11.7367 12.711C11.4986 12.8167 11.3097 12.9006 11.3097 13.1561C11.3097 13.4682 11.5959 13.6231 11.9048 13.7903L11.9443 13.8116ZM10.6064 13.4844L10.4447 13.6712L10.4127 13.6398C10.1618 13.3939 9.92943 13.1661 10.0155 12.8661C10.0859 12.6206 10.2906 12.592 10.5486 12.5559C10.6205 12.5459 10.6966 12.5352 10.7751 12.5192L10.8111 12.7705C10.6238 12.8089 10.5328 12.883 10.498 13.0045C10.4628 13.1272 10.4673 13.3476 10.6064 13.4844ZM9.03416 13.1134L9.24338 12.982C9.15031 12.8105 9.21052 12.5984 9.28004 12.4914C9.34884 12.3854 9.45754 12.3411 9.64782 12.3592L9.68688 12.1083C9.60714 12.1007 9.53127 12.0886 9.45953 12.0772L9.45952 12.0772C9.20228 12.0362 8.99814 12.0037 8.85902 12.218C8.68904 12.4797 8.84468 12.7655 9.01272 13.074L9.03416 13.1134ZM8.08612 12.115L7.84879 12.1836L7.83904 12.1399C7.76255 11.797 7.69169 11.4794 7.92725 11.2746C8.12003 11.107 8.30729 11.1946 8.54328 11.3048C8.60909 11.3356 8.6787 11.3681 8.75327 11.3974L8.64656 11.6278C8.46863 11.558 8.35193 11.5706 8.25659 11.6535C8.16026 11.7372 8.04391 11.9245 8.08612 12.115ZM6.97272 10.9586L7.21979 10.958C7.23171 10.7633 7.39518 10.6153 7.51086 10.5614C7.62534 10.508 7.741 10.528 7.8928 10.6442L8.05889 10.4521C7.99527 10.4034 7.93733 10.353 7.88254 10.3053C7.68609 10.1342 7.53021 9.99847 7.2987 10.1064C7.01583 10.2383 6.9964 10.5631 6.97542 10.9138L6.97272 10.9586ZM6.70678 9.59914L6.47035 9.52745L6.48602 9.48543C6.60861 9.1562 6.72216 8.85126 7.03124 8.80782C7.28418 8.77227 7.39358 8.94766 7.53143 9.16867C7.56987 9.23031 7.61053 9.2955 7.65714 9.36066L7.44215 9.49579C7.33094 9.34033 7.22619 9.28736 7.1011 9.30494C6.97471 9.3227 6.77511 9.41642 6.70678 9.59914ZM6.39648 8.02287L6.604 8.15696C6.72004 8.00016 6.93774 7.96508 7.06413 7.98284C7.18922 8.00042 7.27531 8.08022 7.33936 8.26031L7.58327 8.18967C7.55643 8.11419 7.53531 8.04032 7.51535 7.97047C7.44376 7.72002 7.38695 7.52128 7.134 7.48573C6.82492 7.44229 6.63172 7.70412 6.42313 7.9868L6.42313 7.9868L6.39648 8.02287ZM6.90775 6.7361L6.74851 6.54721L6.78454 6.5205C7.06666 6.31116 7.32797 6.11725 7.61084 6.24916C7.84235 6.35711 7.83857 6.56378 7.83381 6.82422V6.82422V6.82422V6.82422C7.83248 6.89686 7.83107 6.97367 7.83467 7.05369L7.58077 7.04994C7.57217 6.85899 7.51317 6.75751 7.39869 6.70413C7.28301 6.65018 7.06457 6.62008 6.90775 6.7361ZM7.5006 5.24169L7.60161 5.46716C7.78433 5.39886 7.98601 5.48801 8.08234 5.57175C8.17768 5.65462 8.20642 5.76843 8.16205 5.95435L8.40508 6.02794C8.42368 5.95003 8.4462 5.87657 8.4675 5.80712C8.54386 5.55808 8.60446 5.36046 8.41168 5.19288C8.17613 4.98812 7.87149 5.10248 7.5426 5.22595L7.5006 5.24169ZM8.62405 4.44506L8.58911 4.20048L8.63381 4.19692C8.984 4.16889 9.30836 4.14293 9.47835 4.40469C9.61747 4.61892 9.50474 4.79218 9.3627 5.01052C9.32308 5.07141 9.28118 5.13581 9.24183 5.20559L9.02849 5.06785C9.12239 4.90136 9.12613 4.78404 9.05733 4.6781C8.98782 4.57106 8.81853 4.42977 8.62405 4.44506ZM9.93463 3.49994L9.89654 3.74405C10.087 3.78629 10.2076 3.97089 10.2428 4.09359C10.2776 4.21501 10.2397 4.32611 10.1012 4.45787L10.265 4.65196C10.323 4.59675 10.3819 4.54741 10.4376 4.50076C10.6373 4.33349 10.7957 4.20076 10.7253 3.95522C10.6393 3.6552 10.3215 3.58519 9.97842 3.50961C9.96387 3.5064 9.94926 3.50319 9.93463 3.49994Z" fill="#5B8C39"/>
<path fill-rule="evenodd" clip-rule="evenodd" d="M9.20867 9.84229C9.20867 9.84229 8.47253 9.82617 8.47253 10.1644C8.47253 10.5026 8.47253 10.8773 8.8406 10.6899C9.20867 10.5026 9.65867 10.4286 9.8967 10.5593C10.1347 10.6899 10.6894 10.9554 11.4712 10.9554C12.253 10.9554 12.2008 10.6899 12.9209 10.6899C13.6409 10.6899 14.9264 10.6326 14.6287 10.3985C14.331 10.1644 13.9806 10.0162 13.7131 10.0162C13.4456 10.0162 13.2404 10.0162 12.678 9.74056C12.1155 9.46489 11.4876 9.43991 10.8548 9.5288C10.2221 9.6177 10.1385 9.84229 9.76435 9.84229C9.39017 9.84229 9.20867 9.84229 9.20867 9.84229Z" fill="#247805"/>
<path d="M11.7663 10.9555C11.8135 11.116 11.8136 11.116 11.8137 11.116L11.8138 11.1159L11.8143 11.1158L11.8156 11.1154L11.8196 11.1142L11.8332 11.1099C11.8447 11.1061 11.8609 11.1007 11.8812 11.0934C11.9218 11.0788 11.9787 11.0568 12.0465 11.0265C12.1818 10.966 12.363 10.8712 12.5452 10.7339C12.9099 10.4591 13.2899 10.0035 13.2899 9.31012V9.30479V9.29946V9.29414V9.28882V9.2835V9.27819V9.27288V9.26757V9.26227V9.25697V9.25168V9.24639V9.2411V9.23582V9.23054V9.22527V9.21999V9.21473V9.20946V9.2042V9.18321V9.17797V9.17273V9.1675V9.16228V9.15706V9.15184V9.14662V9.14141V9.13621V9.13101V9.12581V9.12062V9.11543V9.11025V9.10507V9.0999V9.09473V9.08957V9.08441V9.07925V9.0741V9.06895V9.06381V9.05868V9.05355V9.04842V9.0433V9.03818V9.03307V9.02796V9.02286V9.01776V9.01267V9.00758V9.0025V8.99742V8.99235V8.98728V8.98222V8.97717V8.97211V8.96707V8.96203V8.95699V8.95196V8.94694V8.94192V8.9369V8.93189V8.92689V8.92189V8.9169V8.91192V8.90693V8.90196V8.89699V8.89202V8.88707V8.88211V8.87717V8.86729V8.86236V8.85744V8.85252V8.84761V8.8427V8.8378V8.83291V8.82802V8.82314V8.81826V8.81339V8.80853V8.80367V8.79882V8.79397V8.78913V8.7843V8.77947V8.77465V8.76984V8.76503V8.76023V8.75543V8.75064V8.74586V8.74109V8.73632V8.73156V8.7268V8.72205V8.71731V8.71257V8.70784V8.70312V8.6984V8.69369V8.68899V8.6843V8.67961V8.67493V8.67025V8.66558V8.66092V8.65627V8.65162V8.64698V8.64235V8.63772V8.6331V8.62849V8.62389V8.61929V8.6147V8.61012V8.60554V8.60097V8.59641V8.59186V8.58731V8.58277V8.57824V8.57372V8.5692V8.56469V8.56019V8.5557V8.55121V8.54673V8.54226V8.5378V8.53334V8.5289V8.52446V8.52002V8.5156V8.51118V8.50678V8.50237V8.49798V8.4936V8.48922V8.48485V8.48049V8.47614V8.47179V8.46746V8.46313V8.45881V8.4545V8.45019V8.4459V8.44161V8.43733V8.43306V8.4288V8.42454V8.4203V8.41606V8.41183V8.40761V8.4034V8.3992V8.395V8.39082V8.38664V8.38247V8.37831V8.37416V8.37002V8.36588V8.36176V8.35764V8.35353V8.34944V8.34535V8.34127V8.33719V8.33313V8.32908V8.32503V8.321V8.31697V8.31295V8.30895V8.30495V8.30096V8.29698V8.29301V8.28904V8.28509V8.28115V8.27721V8.27329V8.26937V8.26547V8.26157V8.25768V8.25381V8.13492V7.7749V7.7182V7.71667V7.71515V7.71365V7.71216V7.71069V7.70923V7.70778V7.70636V7.70494V7.70354V7.70216V7.70079V7.69944V7.6981V7.69677V7.69546V7.69417V7.69289V7.69163V7.69038V7.68915V7.68793V7.68673V7.68555V7.68437V7.68322V7.68208V7.68095V7.67985V7.67875V7.67767V7.67661V7.67556V7.67453V7.67352V7.67252V7.67153V7.67057V7.66961V7.66868V7.66776V7.66685V7.66596V7.66509V7.66423V7.66339V7.66256V7.66175V7.66096V7.66018V7.65942V7.65868V7.65795V7.65724V7.65654V7.65586V7.6552V7.65455V7.65392V7.6533V7.6527V7.65212V7.65155V7.65101V7.65047V7.64996V7.64946V7.64897V7.64851V7.64806V7.64762V7.64721V7.64681V7.64642V7.64606V7.64571V7.64537V7.64506V7.64476V7.64447V7.64421V7.64396V7.64373V7.64351V7.64332V7.64314V7.64297V7.64283V7.6427V7.64258V7.64249V7.64241V7.64235V7.64231V7.64228L13.1226 7.64227H13.2899V7.47494H13.1226H10.41H10.2427V7.64227H10.41L10.2427 7.64228V7.64231V7.64237V7.64244V7.64253V7.64264V7.64278V7.64293V7.6431V7.6433V7.64351V7.64375V7.644V7.64427V7.64457V7.64488V7.64522V7.64557V7.64594V7.64634V7.64675V7.64718V7.64764V7.64811V7.6486V7.64911V7.64964V7.65019V7.65076V7.65135V7.65196V7.65259V7.65323V7.6539V7.65458V7.65528V7.65601V7.65675V7.65751V7.65829V7.65909V7.6599V7.66074V7.66159V7.66246V7.66335V7.66426V7.66519V7.66614V7.6671V7.66809V7.66909V7.67011V7.67114V7.6722V7.67327V7.67437V7.67548V7.6766V7.67775V7.67891V7.68009V7.68129V7.68251V7.68375V7.685V7.68627V7.68755V7.68886V7.69018V7.69152V7.69288V7.69425V7.69564V7.69705V7.69848V7.69992V7.70138V7.70286V7.70435V7.70586V7.70739V7.70894V7.7105V7.71208V7.71367V7.71528V7.71691V7.71856V7.72022V7.72189V7.72359V7.7253V7.72703V7.72877V7.73053V7.7323V7.7341V7.7359V7.73773V7.73957V7.74142V7.74329V7.74518V7.74709V7.749V7.75094V7.75289V7.75486V7.75684V7.75884V7.76085V7.76288V7.76492V7.76698V7.76905V7.77114V7.77325V7.77537V7.7775V7.77965V7.78182V7.784V7.78619V7.7884V7.79063V7.79287V7.79512V7.79739V7.79967V7.80197V7.80429V7.80661V7.80895V7.81131V7.81368V7.81607V7.81847V7.82088V7.82331V7.82575V7.8282V7.83067V7.83316V7.83566V7.83817V7.84069V7.84323V7.84579V7.84835V7.85093V7.85353V7.85614V7.85876V7.86139V7.86404V7.8667V7.86938V7.87207V7.87477V7.87748V7.88021V7.88295V7.88571V7.88848V7.89126V7.89405V7.89686V7.89968V7.90251V7.90535V7.90821V7.91108V7.91396V7.91686V7.91976V7.92268V7.92562V7.92856V7.93152V7.93449V7.93747V7.94047V7.94347V7.94649V7.94952V7.95256V7.95562V7.95868V7.96176V7.96485V7.96795V7.97107V7.97419V7.97733V7.98048V7.98364V7.98681V7.98999V7.99319V7.99639V7.99961V8.00284V8.00608V8.00933V8.01259V8.01586V8.01915V8.02244V8.02575V8.02907V8.03239V8.03573V8.03908V8.04244V8.04581V8.04919V8.05259V8.05599V8.0594V8.06282V8.06626V8.0697V8.07316V8.07662V8.0801V8.08358V8.08708V8.09058V8.0941V8.09762V8.10116V8.1047V8.10826V8.11182V8.11539V8.11898V8.12257V8.12618V8.12979V8.13341V8.13704V8.14068V8.14433V8.14799V8.15166V8.15534V8.15903V8.16273V8.16643V8.17015V8.17387V8.1776V8.18135V8.1851V8.18886V8.19262V8.1964V8.20019V8.20398V8.20778V8.2116V8.21542V8.21924V8.22308V8.22693V8.23078V8.23464V8.23851V8.24239V8.24627V8.25017V8.25407V8.25798V8.2619V8.26583V8.26976V8.2737V8.27765V8.28161V8.28557V8.28954V8.29352V8.29751V8.30151V8.30551V8.30952V8.31354V8.31756V8.32159V8.32563V8.32968V8.33373V8.33779V8.34186V8.34593V8.35001V8.3541V8.35819V8.3623V8.3664V8.37052V8.37464V8.37877V8.3829V8.38704V8.39119V8.39535V8.39951V8.40367V8.40785V8.41202V8.41621V8.4204V8.4246V8.4288V8.43301V8.43723V8.44145V8.44568V8.44991V8.45415V8.45839V8.46264V8.4669V8.47116V8.47543V8.4797V8.48398V8.48826V8.49255V8.49684V8.50114V8.50545V8.50975V8.51407V8.51839V8.52271V8.52704V8.53138V8.53572V8.54006V8.54441V8.54876V8.55312V8.55748V8.56185V8.56622V8.5706V8.57498V8.57937V8.58376V8.58815V8.59255V8.59695V8.60136V8.60577V8.61019V8.6146V8.61903V8.62346V8.62789V8.63232V8.63676V8.6412V8.64565V8.6501V8.65455V8.65901V8.66347V8.66793V8.6724V8.67687V8.68135V8.68582V8.6903V8.69479V8.69927V8.70376V8.70826V8.71275V8.71725V8.72176V8.72626V8.73077V8.73528V8.73979V8.74431V8.74883V8.75335V8.75787V8.7624V8.76693V8.77146V8.77599V8.78053V8.78507V8.78961V8.79415V8.7987V8.80324V8.80779V8.81234V8.8169V8.82145V8.82601V8.83057V8.83513V8.83969V8.84425V8.84882V8.85339V8.85795V8.86252V8.8671V8.87167V8.87624V8.88082V8.88539V8.88997V8.89455V8.89913V8.90371V8.9083V8.91288V8.91746V8.92205V8.92663V8.93122V8.93581V8.9404V8.94499V8.94958V8.95417V8.95876V8.96335V8.96794V8.97253V8.97712V8.98172V8.98631V8.9909V8.99549V9.00009V9.00468V9.00927V9.01846V9.0552V9.0919V9.12855V9.14684V9.16512V9.20158V9.23792V9.27411V9.31012C10.2427 9.9861 10.624 10.4412 10.9863 10.7192C11.1678 10.8584 11.3484 10.9566 11.4832 11.0199C11.5509 11.0517 11.6076 11.075 11.6479 11.0906C11.6681 11.0983 11.6843 11.1042 11.6957 11.1082L11.7092 11.1128L11.7131 11.1141L11.7144 11.1146L11.7148 11.1147L11.715 11.1147C11.7151 11.1148 11.7151 11.1148 11.7663 10.9555ZM11.7663 10.9555L11.8135 11.116L11.7641 11.1305L11.7151 11.1148L11.7663 10.9555Z" fill="white" stroke="#565656" stroke-width="0.334668"/>
<mask id="mask1_58_4958" style="mask-type:luminance" maskUnits="userSpaceOnUse" x="10" y="7" width="4" height="5">
<path d="M11.7663 10.9555C11.8135 11.116 11.8136 11.116 11.8137 11.116L11.8138 11.1159L11.8143 11.1158L11.8156 11.1154L11.8196 11.1142L11.8332 11.1099C11.8447 11.1061 11.8609 11.1007 11.8812 11.0934C11.9218 11.0788 11.9787 11.0568 12.0465 11.0265C12.1818 10.966 12.363 10.8712 12.5452 10.7339C12.9099 10.4591 13.2899 10.0035 13.2899 9.31012V9.30479V9.29946V9.29414V9.28882V9.2835V9.27819V9.27288V9.26757V9.26227V9.25697V9.25168V9.24639V9.2411V9.23582V9.23054V9.22527V9.21999V9.21473V9.20946V9.2042V9.18321V9.17797V9.17273V9.1675V9.16228V9.15706V9.15184V9.14662V9.14141V9.13621V9.13101V9.12581V9.12062V9.11543V9.11025V9.10507V9.0999V9.09473V9.08957V9.08441V9.07925V9.0741V9.06895V9.06381V9.05868V9.05355V9.04842V9.0433V9.03818V9.03307V9.02796V9.02286V9.01776V9.01267V9.00758V9.0025V8.99742V8.99235V8.98728V8.98222V8.97717V8.97211V8.96707V8.96203V8.95699V8.95196V8.94694V8.94192V8.9369V8.93189V8.92689V8.92189V8.9169V8.91192V8.90693V8.90196V8.89699V8.89202V8.88707V8.88211V8.87717V8.86729V8.86236V8.85744V8.85252V8.84761V8.8427V8.8378V8.83291V8.82802V8.82314V8.81826V8.81339V8.80853V8.80367V8.79882V8.79397V8.78913V8.7843V8.77947V8.77465V8.76984V8.76503V8.76023V8.75543V8.75064V8.74586V8.74109V8.73632V8.73156V8.7268V8.72205V8.71731V8.71257V8.70784V8.70312V8.6984V8.69369V8.68899V8.6843V8.67961V8.67493V8.67025V8.66558V8.66092V8.65627V8.65162V8.64698V8.64235V8.63772V8.6331V8.62849V8.62389V8.61929V8.6147V8.61012V8.60554V8.60097V8.59641V8.59186V8.58731V8.58277V8.57824V8.57372V8.5692V8.56469V8.56019V8.5557V8.55121V8.54673V8.54226V8.5378V8.53334V8.5289V8.52446V8.52002V8.5156V8.51118V8.50678V8.50237V8.49798V8.4936V8.48922V8.48485V8.48049V8.47614V8.47179V8.46746V8.46313V8.45881V8.4545V8.45019V8.4459V8.44161V8.43733V8.43306V8.4288V8.42454V8.4203V8.41606V8.41183V8.40761V8.4034V8.3992V8.395V8.39082V8.38664V8.38247V8.37831V8.37416V8.37002V8.36588V8.36176V8.35764V8.35353V8.34944V8.34535V8.34127V8.33719V8.33313V8.32908V8.32503V8.321V8.31697V8.31295V8.30895V8.30495V8.30096V8.29698V8.29301V8.28904V8.28509V8.28115V8.27721V8.27329V8.26937V8.26547V8.26157V8.25768V8.25381V8.13492V7.7749V7.7182V7.71667V7.71515V7.71365V7.71216V7.71069V7.70923V7.70778V7.70636V7.70494V7.70354V7.70216V7.70079V7.69944V7.6981V7.69677V7.69546V7.69417V7.69289V7.69163V7.69038V7.68915V7.68793V7.68673V7.68555V7.68437V7.68322V7.68208V7.68095V7.67985V7.67875V7.67767V7.67661V7.67556V7.67453V7.67352V7.67252V7.67153V7.67057V7.66961V7.66868V7.66776V7.66685V7.66596V7.66509V7.66423V7.66339V7.66256V7.66175V7.66096V7.66018V7.65942V7.65868V7.65795V7.65724V7.65654V7.65586V7.6552V7.65455V7.65392V7.6533V7.6527V7.65212V7.65155V7.65101V7.65047V7.64996V7.64946V7.64897V7.64851V7.64806V7.64762V7.64721V7.64681V7.64642V7.64606V7.64571V7.64537V7.64506V7.64476V7.64447V7.64421V7.64396V7.64373V7.64351V7.64332V7.64314V7.64297V7.64283V7.6427V7.64258V7.64249V7.64241V7.64235V7.64231V7.64228L13.1226 7.64227H13.2899V7.47494H13.1226H10.41H10.2427V7.64227H10.41L10.2427 7.64228V7.64231V7.64237V7.64244V7.64253V7.64264V7.64278V7.64293V7.6431V7.6433V7.64351V7.64375V7.644V7.64427V7.64457V7.64488V7.64522V7.64557V7.64594V7.64634V7.64675V7.64718V7.64764V7.64811V7.6486V7.64911V7.64964V7.65019V7.65076V7.65135V7.65196V7.65259V7.65323V7.6539V7.65458V7.65528V7.65601V7.65675V7.65751V7.65829V7.65909V7.6599V7.66074V7.66159V7.66246V7.66335V7.66426V7.66519V7.66614V7.6671V7.66809V7.66909V7.67011V7.67114V7.6722V7.67327V7.67437V7.67548V7.6766V7.67775V7.67891V7.68009V7.68129V7.68251V7.68375V7.685V7.68627V7.68755V7.68886V7.69018V7.69152V7.69288V7.69425V7.69564V7.69705V7.69848V7.69992V7.70138V7.70286V7.70435V7.70586V7.70739V7.70894V7.7105V7.71208V7.71367V7.71528V7.71691V7.71856V7.72022V7.72189V7.72359V7.7253V7.72703V7.72877V7.73053V7.7323V7.7341V7.7359V7.73773V7.73957V7.74142V7.74329V7.74518V7.74709V7.749V7.75094V7.75289V7.75486V7.75684V7.75884V7.76085V7.76288V7.76492V7.76698V7.76905V7.77114V7.77325V7.77537V7.7775V7.77965V7.78182V7.784V7.78619V7.7884V7.79063V7.79287V7.79512V7.79739V7.79967V7.80197V7.80429V7.80661V7.80895V7.81131V7.81368V7.81607V7.81847V7.82088V7.82331V7.82575V7.8282V7.83067V7.83316V7.83566V7.83817V7.84069V7.84323V7.84579V7.84835V7.85093V7.85353V7.85614V7.85876V7.86139V7.86404V7.8667V7.86938V7.87207V7.87477V7.87748V7.88021V7.88295V7.88571V7.88848V7.89126V7.89405V7.89686V7.89968V7.90251V7.90535V7.90821V7.91108V7.91396V7.91686V7.91976V7.92268V7.92562V7.92856V7.93152V7.93449V7.93747V7.94047V7.94347V7.94649V7.94952V7.95256V7.95562V7.95868V7.96176V7.96485V7.96795V7.97107V7.97419V7.97733V7.98048V7.98364V7.98681V7.98999V7.99319V7.99639V7.99961V8.00284V8.00608V8.00933V8.01259V8.01586V8.01915V8.02244V8.02575V8.02907V8.03239V8.03573V8.03908V8.04244V8.04581V8.04919V8.05259V8.05599V8.0594V8.06282V8.06626V8.0697V8.07316V8.07662V8.0801V8.08358V8.08708V8.09058V8.0941V8.09762V8.10116V8.1047V8.10826V8.11182V8.11539V8.11898V8.12257V8.12618V8.12979V8.13341V8.13704V8.14068V8.14433V8.14799V8.15166V8.15534V8.15903V8.16273V8.16643V8.17015V8.17387V8.1776V8.18135V8.1851V8.18886V8.19262V8.1964V8.20019V8.20398V8.20778V8.2116V8.21542V8.21924V8.22308V8.22693V8.23078V8.23464V8.23851V8.24239V8.24627V8.25017V8.25407V8.25798V8.2619V8.26583V8.26976V8.2737V8.27765V8.28161V8.28557V8.28954V8.29352V8.29751V8.30151V8.30551V8.30952V8.31354V8.31756V8.32159V8.32563V8.32968V8.33373V8.33779V8.34186V8.34593V8.35001V8.3541V8.35819V8.3623V8.3664V8.37052V8.37464V8.37877V8.3829V8.38704V8.39119V8.39535V8.39951V8.40367V8.40785V8.41202V8.41621V8.4204V8.4246V8.4288V8.43301V8.43723V8.44145V8.44568V8.44991V8.45415V8.45839V8.46264V8.4669V8.47116V8.47543V8.4797V8.48398V8.48826V8.49255V8.49684V8.50114V8.50545V8.50975V8.51407V8.51839V8.52271V8.52704V8.53138V8.53572V8.54006V8.54441V8.54876V8.55312V8.55748V8.56185V8.56622V8.5706V8.57498V8.57937V8.58376V8.58815V8.59255V8.59695V8.60136V8.60577V8.61019V8.6146V8.61903V8.62346V8.62789V8.63232V8.63676V8.6412V8.64565V8.6501V8.65455V8.65901V8.66347V8.66793V8.6724V8.67687V8.68135V8.68582V8.6903V8.69479V8.69927V8.70376V8.70826V8.71275V8.71725V8.72176V8.72626V8.73077V8.73528V8.73979V8.74431V8.74883V8.75335V8.75787V8.7624V8.76693V8.77146V8.77599V8.78053V8.78507V8.78961V8.79415V8.7987V8.80324V8.80779V8.81234V8.8169V8.82145V8.82601V8.83057V8.83513V8.83969V8.84425V8.84882V8.85339V8.85795V8.86252V8.8671V8.87167V8.87624V8.88082V8.88539V8.88997V8.89455V8.89913V8.90371V8.9083V8.91288V8.91746V8.92205V8.92663V8.93122V8.93581V8.9404V8.94499V8.94958V8.95417V8.95876V8.96335V8.96794V8.97253V8.97712V8.98172V8.98631V8.9909V8.99549V9.00009V9.00468V9.00927V9.01846V9.0552V9.0919V9.12855V9.14684V9.16512V9.20158V9.23792V9.27411V9.31012C10.2427 9.9861 10.624 10.4412 10.9863 10.7192C11.1678 10.8584 11.3484 10.9566 11.4832 11.0199C11.5509 11.0517 11.6076 11.075 11.6479 11.0906C11.6681 11.0983 11.6843 11.1042 11.6957 11.1082L11.7092 11.1128L11.7131 11.1141L11.7144 11.1146L11.7148 11.1147L11.715 11.1147C11.7151 11.1148 11.7151 11.1148 11.7663 10.9555ZM11.7663 10.9555L11.8135 11.116L11.7641 11.1305L11.7151 11.1148L11.7663 10.9555Z" fill="white" stroke="white" stroke-width="0.334668"/>
</mask>
<g mask="url(#mask1_58_4958)">
<path opacity="0.4" fill-rule="evenodd" clip-rule="evenodd" d="M10.4924 9.79009L11.7865 8.83685L13.1472 9.89816V11.4087H10.4924V9.79009Z" fill="#84CEFF"/>
<path fill-rule="evenodd" clip-rule="evenodd" d="M10.5333 10.1272H12.9376V10.4619H10.5333V10.1272Z" fill="#006AC9"/>
<path fill-rule="evenodd" clip-rule="evenodd" d="M10.6566 10.4585H12.876V10.6359H10.6566V10.4585Z" fill="#59C800"/>
<path fill-rule="evenodd" clip-rule="evenodd" d="M10.6566 10.6794H12.876V11.014H10.6566V10.6794Z" fill="#FFD800"/>
<path fill-rule="evenodd" clip-rule="evenodd" d="M13.5243 10.1929L11.7905 8.86896L11.7905 7.08167H13.5243V10.1929Z" fill="#F7D85D"/>
<path fill-rule="evenodd" clip-rule="evenodd" d="M11.3965 9.46454C11.3965 9.46454 11.4513 9.74891 11.4932 9.74891C11.5351 9.74891 11.6109 9.46454 11.6109 9.46454C11.6109 9.46454 11.6199 9.74891 11.6621 9.74891C11.7042 9.74891 11.699 9.51057 11.7664 9.46454C11.7908 9.44786 11.8216 9.74747 11.859 9.74891C11.8905 9.75013 11.9674 9.46454 11.9674 9.46454C11.9674 9.46454 11.9907 9.74891 12.0271 9.74891C12.0635 9.74891 12.1363 9.46454 12.1363 9.46454V10.1824H11.3965V9.46454Z" fill="#F5F6F6"/>
<path fill-rule="evenodd" clip-rule="evenodd" d="M11.7663 10.4133C12.1408 10.4133 12.4444 10.3493 12.4444 10.2703C12.4444 10.1913 12.1408 10.1272 11.7663 10.1272C11.3917 10.1272 11.0881 10.1913 11.0881 10.2703C11.0881 10.3493 11.3917 10.4133 11.7663 10.4133Z" fill="#892E2E"/>
<path d="M10.5544 7.91281L10.6939 7.80396L11.6315 8.76746L11.4921 8.87631L10.5544 7.91281Z" fill="#A46031"/>
<path d="M10.7052 9.02605L10.5571 8.92682L11.4689 7.83508L11.617 7.93432L10.7052 9.02605Z" fill="#892E2E"/>
<path d="M11.9723 8.05603L12.1117 7.9696L13.0493 8.73465L12.9099 8.82108L11.9723 8.05603Z" fill="#A46031"/>
<path d="M12.1685 8.83769L11.995 8.71984L12.8868 8.00073L13.0769 8.15735L12.1685 8.83769Z" fill="#F5F6F6"/>
</g>
<path fill-rule="evenodd" clip-rule="evenodd" d="M10.7402 11.5476L11.1756 11.684V12.0598H10.7402V11.5476Z" fill="#6699FF"/>
<path fill-rule="evenodd" clip-rule="evenodd" d="M10.4293 10.7793L10.6742 10.9157V11.2915H10.4293V10.7793Z" fill="#6699FF"/>
<path fill-rule="evenodd" clip-rule="evenodd" d="M12.7305 11.5476L12.2951 11.684V12.0598H12.7305V11.5476Z" fill="#6699FF"/>
<path fill-rule="evenodd" clip-rule="evenodd" d="M13.0414 10.7793L12.7965 10.9157V11.2915H13.0414V10.7793Z" fill="#6699FF"/>
<path d="M10.192 11.5753C10.1123 11.5753 10.046 11.5771 9.97014 11.5808C9.78631 11.5896 9.77477 11.5894 9.72403 11.5685C9.69353 11.556 9.66311 11.5358 9.61933 11.4998C9.51553 11.4146 9.40365 11.2188 9.28223 10.9116L9.28259 10.8987C9.43246 10.5747 9.74066 10.5345 10.1991 10.7748C10.3198 10.838 10.6719 11.0294 10.669 11.0278C10.8291 11.1135 10.9414 11.1684 11.0517 11.2128C11.2805 11.305 11.4963 11.3468 11.7729 11.3468C11.9391 11.3468 12.1315 11.2995 12.3561 11.2104C12.4858 11.1589 12.6208 11.0959 12.7854 11.0124C12.8071 11.0014 13.1516 10.8222 13.2368 10.7812C13.3859 10.7094 13.4842 10.6747 13.552 10.6747C13.5704 10.6747 13.5848 10.6746 13.6205 10.6744C13.6825 10.674 13.7119 10.674 13.7476 10.6744C14.0781 10.6785 14.2412 10.7335 14.2412 10.9056C14.2412 11.0682 14.1354 11.2888 13.9246 11.5691L13.9143 11.5751C13.4972 11.6314 13.2553 11.6314 13.1809 11.5719C13.1606 11.5557 13.105 11.5631 13.0027 11.5959C12.9564 11.6107 12.7085 11.6994 12.6318 11.7248C12.3129 11.8305 12.0395 11.8873 11.7611 11.8873C11.3371 11.8873 10.8731 11.7228 10.369 11.3943C10.4604 11.5105 10.4025 11.5753 10.192 11.5753Z" fill="white"/>
<path fill-rule="evenodd" clip-rule="evenodd" d="M9.97014 11.5808C10.046 11.5771 10.1123 11.5753 10.192 11.5753C10.4025 11.5753 10.4604 11.5105 10.369 11.3943C10.8731 11.7228 11.3371 11.8873 11.7611 11.8873C12.0395 11.8873 12.3129 11.8305 12.6318 11.7248C12.6708 11.7118 12.754 11.6826 12.8326 11.655C12.9085 11.6283 12.98 11.6031 13.0027 11.5959C13.105 11.5631 13.1606 11.5557 13.1809 11.5719C13.2553 11.6314 13.4972 11.6314 13.9143 11.5751L13.9246 11.5691C14.1354 11.2888 14.2412 11.0682 14.2412 10.9056C14.2412 10.7335 14.0781 10.6785 13.7476 10.6744C13.7119 10.674 13.6825 10.674 13.6205 10.6744L13.552 10.6747C13.4842 10.6747 13.3859 10.7094 13.2368 10.7812C13.1694 10.8136 12.94 10.9324 12.8361 10.9862C12.8086 11.0004 12.7899 11.0101 12.7854 11.0124C12.6208 11.0959 12.4858 11.1589 12.3561 11.2104C12.1315 11.2995 11.9391 11.3468 11.7729 11.3468C11.4963 11.3468 11.2805 11.305 11.0517 11.2128C10.9414 11.1684 10.8291 11.1135 10.669 11.0278C10.6719 11.0294 10.3198 10.838 10.1991 10.7748C9.74066 10.5345 9.43246 10.5747 9.28259 10.8987L9.28223 10.9116C9.40365 11.2188 9.51553 11.4146 9.61933 11.4998C9.66311 11.5358 9.69353 11.556 9.72403 11.5685C9.77477 11.5894 9.78631 11.5896 9.97014 11.5808ZM9.73556 11.5388C9.70846 11.5276 9.68032 11.5089 9.63872 11.4748C9.541 11.3945 9.43216 11.2047 9.31364 10.9061C9.45559 10.6073 9.74338 10.5719 10.185 10.8033C10.3055 10.8664 10.6573 11.0576 10.6546 11.0562C10.8157 11.1424 10.9288 11.1977 11.0404 11.2426C11.2728 11.3362 11.4924 11.3788 11.7729 11.3788C11.9435 11.3788 12.1395 11.3307 12.3673 11.2402C12.498 11.1883 12.6338 11.125 12.7992 11.0411C12.8038 11.0387 12.8229 11.0288 12.8508 11.0144C12.955 10.9604 13.1832 10.8423 13.25 10.8102C13.3949 10.7404 13.4904 10.7067 13.552 10.7067L13.6207 10.7064C13.6825 10.706 13.7118 10.706 13.7473 10.7064C14.0603 10.7102 14.2101 10.7608 14.2101 10.9056C14.2101 11.0583 14.1082 11.2716 13.9039 11.5442C13.5013 11.5982 13.2642 11.5979 13.2 11.5466C13.1677 11.5208 13.1072 11.5288 12.9935 11.5653C12.9703 11.5727 12.898 11.5981 12.8216 11.625C12.7434 11.6525 12.6608 11.6815 12.6223 11.6943C12.3061 11.7991 12.0357 11.8553 11.7611 11.8553C11.2927 11.8553 10.7726 11.6506 10.2009 11.2408L10.1828 11.2669C10.4438 11.4629 10.4438 11.5432 10.192 11.5432C10.1118 11.5432 10.045 11.5451 9.96869 11.5488C9.79136 11.5572 9.78008 11.5571 9.73556 11.5388Z" fill="#666666"/>
<path d="M9.71048 11.0615L9.66553 11.0173C9.76694 10.9081 9.9013 10.8806 10.0631 10.9341C10.1261 10.9549 10.536 11.1919 10.6456 11.2475C11.0457 11.4506 11.4267 11.5641 11.8313 11.5641C12.413 11.5641 12.9749 11.3804 13.5154 11.0143C13.7197 10.8486 13.8475 10.8486 13.8475 11.0394H13.7853C13.7853 10.9256 13.7253 10.9256 13.5517 11.0661C12.9992 11.4406 12.4255 11.6281 11.8313 11.6281C11.4158 11.6281 11.0261 11.512 10.6181 11.3049C10.5033 11.2466 10.1 11.0135 10.0441 10.995C9.90387 10.9487 9.79449 10.9711 9.71048 11.0615Z" fill="#565757"/>
<path fill-rule="evenodd" clip-rule="evenodd" d="M12.0276 5.12793L11.9065 5.12853C11.9094 5.62553 11.7981 5.93948 11.5814 6.07432C11.5643 6.08496 11.5429 6.09764 11.5194 6.11125C11.4989 6.05605 11.4723 5.98937 11.4383 5.90593L11.4275 5.87945C11.2988 5.56288 11.2702 5.41686 11.3362 5.37786L11.2707 5.2844C11.125 5.37042 11.1565 5.53059 11.314 5.91829L11.3249 5.94488C11.364 6.04083 11.3928 6.11372 11.4136 6.17155L11.4006 6.17889C11.394 6.18257 11.3876 6.18618 11.3814 6.18972C11.3185 6.15772 11.2456 6.14162 11.1626 6.14162C10.7773 6.14162 10.5103 6.04068 10.3552 5.84098L10.2566 5.90549C10.437 6.13773 10.7412 6.25275 11.1626 6.25275C11.197 6.25275 11.2293 6.25689 11.2594 6.26519C11.198 6.3175 11.1898 6.3723 11.1898 6.56074C11.1898 6.67869 11.2153 6.83517 11.2661 7.03073C11.227 6.98065 11.1905 6.95698 11.1535 6.95698V7.06812C11.1481 7.06812 11.1446 7.06732 11.1432 7.067L11.1426 7.06688C11.1463 7.06961 11.1514 7.07457 11.1575 7.08171C11.1745 7.10144 11.1951 7.13324 11.2187 7.17654C11.2679 7.2669 11.3284 7.40417 11.3997 7.58774L11.4369 7.57556L11.4399 7.58385L11.4599 7.57787V7.58122H11.4982L11.4988 7.61206L11.6198 7.60955C11.6195 7.5978 11.6193 7.58617 11.6192 7.57467L11.6419 7.57726C11.6665 7.39571 11.6808 7.23097 11.6847 7.08327C11.7271 6.96571 11.7899 6.88065 11.872 6.8277C12.0786 6.6944 12.1999 6.56623 12.2331 6.43903L12.1153 6.41316C12.0905 6.50834 11.9871 6.61759 11.8023 6.73677C11.7567 6.76622 11.7163 6.80253 11.681 6.84565C11.6694 6.66301 11.6363 6.51532 11.581 6.40326V6.37049C11.581 6.32539 11.5744 6.28134 11.5567 6.2211C11.5911 6.20136 11.6239 6.18215 11.6493 6.16631C11.9075 6.00567 12.0307 5.65824 12.0276 5.12793ZM11.3734 6.32489C11.4064 6.35252 11.4353 6.38813 11.4599 6.4318V7.2667C11.3605 6.95192 11.3109 6.71607 11.3109 6.56074C11.3109 6.38674 11.3159 6.36473 11.3562 6.33538C11.3587 6.33356 11.3647 6.32994 11.3734 6.32489ZM11.1414 7.06606L11.142 7.06641L11.1427 7.06707L11.1414 7.06606Z" fill="#984800"/>
<path fill-rule="evenodd" clip-rule="evenodd" d="M12.3575 5.22275C12.2659 5.24963 12.1485 5.25628 12.0237 5.23652C11.8858 5.21467 11.7663 5.16485 11.6866 5.10281C11.6915 5.11825 11.6939 5.13408 11.6936 5.15019C11.6909 5.30361 11.4448 5.42372 11.1439 5.41847C10.843 5.41322 10.6012 5.28459 10.6039 5.13117C10.6066 4.97775 10.8527 4.85763 11.1536 4.86288C11.3346 4.86604 11.4942 4.91383 11.5921 4.98481C11.5835 4.96127 11.5807 4.9374 11.5844 4.91377C11.606 4.77737 11.8377 4.70072 12.102 4.74257C12.3662 4.78442 12.5629 4.92892 12.5413 5.06532C12.5373 5.09008 12.5265 5.11287 12.5098 5.13334C12.6399 5.09587 12.8191 5.10471 13.0021 5.16771C13.3182 5.27658 13.526 5.50597 13.466 5.68007C13.4061 5.85417 13.1012 5.90706 12.785 5.79819C12.7469 5.78509 12.7104 5.77024 12.6758 5.75396C12.5906 5.88634 12.3512 5.9563 12.0861 5.91432C11.7724 5.86462 11.5414 5.6769 11.5702 5.49503C11.599 5.31317 11.8767 5.20602 12.1904 5.25572C12.2359 5.26292 12.2796 5.27302 12.3211 5.28558C12.3291 5.26247 12.3414 5.24149 12.3575 5.22275ZM10.5436 5.15494C10.6106 5.27572 10.4752 5.47878 10.2412 5.60848C10.0072 5.73817 9.76327 5.7454 9.69632 5.62461C9.62936 5.50382 9.76476 5.30077 9.99874 5.17107C10.2327 5.04138 10.4767 5.03415 10.5436 5.15494ZM11.2754 5.91403C11.2725 6.0828 10.9719 6.2144 10.6042 6.20799C10.2364 6.20157 9.94061 6.05955 9.94356 5.89079C9.9465 5.72202 10.247 5.59042 10.6148 5.59684C10.9826 5.60326 11.2784 5.74527 11.2754 5.91403ZM10.8517 7.09453C11.1836 7.05378 11.4375 6.89728 11.4188 6.74498C11.4001 6.59268 11.1159 6.50225 10.784 6.543C10.452 6.58375 10.1981 6.74026 10.2168 6.89256C10.2355 7.04486 10.5198 7.13529 10.8517 7.09453ZM12.0759 7.29781C12.3692 7.36552 12.6377 7.28707 12.6756 7.12261C12.7136 6.95815 12.5067 6.76994 12.2134 6.70224C11.9202 6.63454 11.6517 6.71298 11.6137 6.87744C11.5757 7.04191 11.7827 7.23011 12.0759 7.29781ZM12.3346 6.67349C12.7778 6.75963 13.1631 6.69514 13.1953 6.52945C13.2275 6.36376 12.8944 6.15962 12.4513 6.07348C12.0081 5.98734 11.6228 6.05183 11.5906 6.21752C11.5583 6.3832 11.8915 6.58735 12.3346 6.67349Z" fill="#247805"/>
<path fill-rule="evenodd" clip-rule="evenodd" d="M9.18611 7.80231C9.18611 7.80231 8.97668 9.79033 8.97668 10.0598C8.97668 10.3292 9.36209 10.0598 9.36209 10.0598C9.36209 10.0598 9.41869 9.11038 9.54994 8.75769C9.6812 8.405 9.74315 8.79248 9.74315 8.99839C9.74315 9.20431 9.74315 10.1676 9.74315 10.1676C9.74315 10.1676 10.2228 10.2329 10.2228 10.0598C10.2228 9.88665 10.0232 7.80231 10.0232 7.80231H9.29776H9.18611Z" fill="white"/>
<path fill-rule="evenodd" clip-rule="evenodd" d="M9.15936 7.77435L9.15671 7.79953C9.01692 9.12659 8.94714 9.87871 8.94714 10.0598C8.94714 10.2729 9.10682 10.2729 9.37953 10.0823L9.39069 10.0745L9.39147 10.0613C9.42905 9.43093 9.49138 8.99892 9.57769 8.767C9.62969 8.62727 9.6448 8.62101 9.6682 8.67862C9.69555 8.74597 9.71361 8.8833 9.71361 8.9984V10.1918L9.7389 10.1953C10.0753 10.2411 10.2522 10.2013 10.2522 10.0598C10.2522 9.98556 10.2176 9.57602 10.1588 8.93433L10.1523 8.8637C10.1305 8.62623 10.1071 8.37586 10.0837 8.1282L10.0611 7.8897L10.0548 7.82324L10.0525 7.79978L10.0501 7.77435H9.15936ZM9.33341 10.045C9.10039 10.2058 9.00614 10.2036 9.00614 10.0598C9.00614 9.88273 9.07509 9.1383 9.21276 7.83028H9.99625L10.0024 7.89473L10.025 8.1332C10.0484 8.38082 10.0718 8.63114 10.0936 8.86856L10.1001 8.93918C10.1584 9.57616 10.1933 9.98818 10.1933 10.0598C10.1933 10.1465 10.0583 10.1793 9.7726 10.1432V8.99841C9.7726 8.87704 9.75374 8.73361 9.72325 8.65853C9.67288 8.53452 9.58873 8.56939 9.52211 8.7484C9.43403 8.98508 9.37138 9.41674 9.33341 10.045Z" fill="#979797"/>
<path fill-rule="evenodd" clip-rule="evenodd" d="M8.49109 7.11855C8.49109 7.11855 8.65557 7.71059 8.72837 7.71059C8.80118 7.71059 9.24313 7.3473 9.24313 7.3473V7.84041H10.0666V7.622L10.1722 7.84041L10.3162 7.77307L10.5653 7.47948H10.3162C10.3162 7.47948 10.2438 7.008 10.2438 6.93343C10.2438 6.85887 10.2468 6.71137 10.0666 6.65798C9.88637 6.60459 9.79798 6.51006 9.79798 6.51006C9.79798 6.51006 10.186 5.95435 9.89053 5.95435C9.59507 5.95435 9.46132 6.02559 9.46132 6.02559C9.46132 6.02559 9.46132 6.35555 9.46132 6.43281C9.46132 6.51006 9.03745 6.41859 9.03745 6.65798C9.03745 6.89738 8.83979 7.11855 8.83979 7.11855L8.78949 6.95822L8.49109 7.11855Z" fill="#FF863B"/>
<path fill-rule="evenodd" clip-rule="evenodd" d="M9.73613 6.09128C9.89897 6.09128 10.031 6.02641 10.031 5.9464C10.031 5.86638 9.89897 5.80151 9.73613 5.80151C9.57329 5.80151 9.44128 5.86638 9.44128 5.9464C9.44128 6.02641 9.57329 6.09128 9.73613 6.09128Z" fill="black"/>
<path d="M8.25039 7.34758L8.11731 7.23705C8.3737 6.95947 8.65898 6.75752 8.97286 6.63216C9.27009 6.51345 9.65852 6.32399 10.1374 6.06396L10.2253 6.20955C9.74074 6.47266 9.34639 6.66501 9.04153 6.78677C8.75333 6.90187 8.48971 7.08849 8.25039 7.34758Z" fill="#740000"/>
<path fill-rule="evenodd" clip-rule="evenodd" d="M10.1317 6.12491L10.2435 6.64979L10.7396 6.38735L10.3489 5.95306L10.1317 6.12491Z" fill="#F9FCFF" stroke="#6C6C6C" stroke-width="0.334668"/>
<path fill-rule="evenodd" clip-rule="evenodd" d="M14.2826 8.04846C14.2826 8.04846 14.4904 10.1234 14.4904 10.4046C14.4904 10.6858 14.1081 10.4046 14.1081 10.4046C14.1081 10.4046 14.0519 9.4137 13.9217 9.0456C13.7915 8.67749 13.7301 9.08191 13.7301 9.29682C13.7301 9.51173 13.7301 10.5171 13.7301 10.5171C13.7301 10.5171 13.2543 10.5853 13.2543 10.4046C13.2543 10.2239 13.4523 8.04846 13.4523 8.04846H14.1719H14.2826Z" fill="white"/>
<path fill-rule="evenodd" clip-rule="evenodd" d="M14.309 8.01929L14.3117 8.04557C14.4503 9.43061 14.5195 10.2156 14.5195 10.4046C14.5195 10.627 14.3611 10.627 14.0906 10.4281L14.0796 10.4199L14.0788 10.4062C14.0415 9.74825 13.9797 9.29737 13.8941 9.05531C13.8425 8.90947 13.8275 8.90294 13.8043 8.96307C13.7772 9.03336 13.7593 9.1767 13.7593 9.29682V10.5424L13.7342 10.546C13.4005 10.5938 13.225 10.5523 13.225 10.4046C13.225 10.3271 13.2594 9.89968 13.3177 9.22995L13.3241 9.15623C13.3458 8.90839 13.369 8.64708 13.3922 8.3886L13.4146 8.13967L13.4209 8.07031L13.4231 8.04583L13.4255 8.01929H14.309ZM14.1364 10.3892C14.3675 10.557 14.461 10.5547 14.461 10.4046C14.461 10.2198 14.3926 9.44283 14.2561 8.07765H13.4789L13.4728 8.14492L13.4504 8.3938C13.4272 8.65224 13.404 8.9135 13.3824 9.1613L13.3759 9.235C13.3181 9.89982 13.2835 10.3298 13.2835 10.4046C13.2835 10.4951 13.4173 10.5293 13.7008 10.4917V9.29682C13.7008 9.17014 13.7195 9.02045 13.7497 8.94209C13.7997 8.81266 13.8832 8.84905 13.9492 9.03589C14.0366 9.28291 14.0987 9.73344 14.1364 10.3892Z" fill="#979797"/>
<path fill-rule="evenodd" clip-rule="evenodd" d="M14.9865 7.29278C14.9865 7.29278 14.8233 7.91069 14.7511 7.91069C14.6789 7.91069 14.2405 7.53152 14.2405 7.53152V8.04618H13.4237V7.81823L13.3189 8.04618L13.1761 7.9759L12.929 7.66948H13.1761C13.1761 7.66948 13.2479 7.17739 13.2479 7.09957C13.2479 7.02175 13.245 6.8678 13.4237 6.81208C13.6024 6.75636 13.6901 6.6577 13.6901 6.6577C13.6901 6.6577 13.3052 6.0777 13.5983 6.0777C13.8914 6.0777 14.0241 6.15205 14.0241 6.15205C14.0241 6.15205 14.0241 6.49643 14.0241 6.57707C14.0241 6.6577 14.4445 6.56223 14.4445 6.81208C14.4445 7.06194 14.6406 7.29278 14.6406 7.29278L14.6905 7.12544L14.9865 7.29278Z" fill="#824028"/>
<path fill-rule="evenodd" clip-rule="evenodd" d="M13.7515 6.22064C13.59 6.22064 13.459 6.15294 13.459 6.06943C13.459 5.98591 13.59 5.91821 13.7515 5.91821C13.913 5.91821 14.0439 5.98591 14.0439 6.06943C14.0439 6.15294 13.913 6.22064 13.7515 6.22064Z" fill="black"/>
<path d="M15.3977 7.40494L13.6088 6.47254C13.6088 6.47254 13.5757 6.15931 13.2302 6.065C12.8847 5.9707 12.6091 5.82477 12.6091 5.82477L12.4518 6.065C12.4518 6.065 12.1716 5.99106 13.2302 6.47254C14.2887 6.95402 13.1903 6.21157 13.4912 6.47254L15.3977 7.40494Z" fill="#BA611F"/>
</g>
</g>
<defs>
<clipPath id="clip0_58_4958">
<rect width="21.4187" height="16.064" fill="white" transform="translate(0.699463 0.512451)"/>
</clipPath>
</defs>
</svg>
