<svg width="22" height="17" viewBox="0 0 22 17" fill="none" xmlns="http://www.w3.org/2000/svg">
<g clip-path="url(#clip0_58_4949)">
<rect width="21.4187" height="16.064" transform="translate(0.536865 0.512451)" fill="white"/>
<path fill-rule="evenodd" clip-rule="evenodd" d="M5.8916 0.512451H16.601V16.5765H5.8916V0.512451Z" fill="#F7FCFF"/>
<path fill-rule="evenodd" clip-rule="evenodd" d="M11.2305 5.19783L11.2463 13.2299H10.845L11.0912 11.2422C9.29059 11.5661 8.46472 11.6464 8.61358 11.483C8.76243 11.3196 8.87973 11.088 8.96547 10.7882L6.56091 9.18393C6.81378 9.18076 7.04307 9.118 7.24879 8.99565C7.4545 8.8733 7.35165 8.44933 6.94021 7.72372L8.15424 7.90035L8.61358 7.40116L9.52954 8.35981H9.94128L9.52954 6.16397L10.2676 6.57621L11.2305 5.19783ZM11.2305 5.19781L12.2249 6.57619L12.963 6.16395L12.5512 8.35979H12.963L13.8789 7.40115L14.3383 7.90033L15.5523 7.72371C15.1409 8.44931 15.038 8.87328 15.2437 8.99563C15.4494 9.11798 15.6787 9.18074 15.9316 9.18391L13.527 10.7881C13.6128 11.088 13.7301 11.3196 13.8789 11.483C14.0278 11.6464 13.2019 11.5661 11.4013 11.2421L11.6475 13.2298H11.2463L11.2305 5.19781Z" fill="#E31D1C"/>
<path fill-rule="evenodd" clip-rule="evenodd" d="M16.601 0.512451H21.9556V16.5765H16.601V0.512451Z" fill="#E31D1C"/>
<path fill-rule="evenodd" clip-rule="evenodd" d="M0.536865 0.512451H5.89155V16.5765H0.536865V0.512451Z" fill="#E31D1C"/>
</g>
<defs>
<clipPath id="clip0_58_4949">
<rect width="21.4187" height="16.064" fill="white" transform="translate(0.536865 0.512451)"/>
</clipPath>
</defs>
</svg>
