<svg width="22" height="17" viewBox="0 0 22 17" fill="none" xmlns="http://www.w3.org/2000/svg">
<g clip-path="url(#clip0_58_4930)">
<rect width="21.4187" height="16.064" transform="translate(0 0.349609)" fill="white"/>
<path fill-rule="evenodd" clip-rule="evenodd" d="M0.290649 0.317566H21.7094V16.3816H0.290649V0.317566Z" fill="#5EAA22"/>
<path fill-rule="evenodd" clip-rule="evenodd" d="M16.3547 5.00288L15.6853 5.49287L15.775 4.66821L15.016 4.33354L15.775 3.99888L15.6853 3.17422L16.3547 3.66421L17.024 3.17422L16.9343 3.99888L17.6933 4.33354L16.9343 4.66821L17.024 5.49287L16.3547 5.00288Z" fill="#FECA00"/>
<path fill-rule="evenodd" clip-rule="evenodd" d="M15.6604 9.47319L14.9911 9.96318L15.0808 9.13852L14.3218 8.80385L15.0808 8.46919L14.9911 7.64453L15.6604 8.13452L16.3298 7.64453L16.2401 8.46919L16.9991 8.80385L16.2401 9.13852L16.3298 9.96318L15.6604 9.47319Z" fill="#FECA00"/>
<path fill-rule="evenodd" clip-rule="evenodd" d="M17.6934 13.0349L17.0241 13.5249L17.1137 12.7003L16.3547 12.3656L17.1137 12.0309L17.0241 11.2063L17.6934 11.6963L18.3627 11.2063L18.2731 12.0309L19.0321 12.3656L18.2731 12.7003L18.3627 13.5249L17.6934 13.0349Z" fill="#FECA00"/>
<path fill-rule="evenodd" clip-rule="evenodd" d="M18.3627 6.67624L18.028 6.92124L18.0729 6.50891L17.6934 6.34158L18.0729 6.17424L18.028 5.76192L18.3627 6.00691L18.6974 5.76192L18.6525 6.17424L19.032 6.34158L18.6525 6.50891L18.6974 6.92124L18.3627 6.67624Z" fill="#FECA00"/>
<path fill-rule="evenodd" clip-rule="evenodd" d="M4.97607 9.68822C6.82439 9.68822 8.32275 8.18987 8.32275 6.34155C8.32275 4.49323 6.82439 2.99487 4.97607 2.99487C3.12775 2.99487 1.62939 4.49323 1.62939 6.34155C1.62939 8.18987 3.12775 9.68822 4.97607 9.68822Z" fill="#FECA00"/>
<path fill-rule="evenodd" clip-rule="evenodd" d="M13.6088 10.3208C13.1683 11.0768 12.4682 11.42 11.5311 11.42C10.1288 11.42 8.99194 10.2831 8.99194 8.8808C8.99194 7.47844 10.1288 6.34161 11.5311 6.34161C12.601 6.34161 13.4547 6.71593 13.8464 7.73543C13.5363 7.42803 13.0565 7.21718 12.3387 7.24391C11.2297 7.24391 10.5083 8.10787 10.5083 8.8472C10.5083 9.58653 11.2297 10.5915 12.3387 10.5915C12.8964 10.5832 13.3084 10.4812 13.6088 10.3208Z" fill="#FECA00"/>
<path d="M5.3658 6.13658C5.3658 6.13658 4.71143 8.53342 4.44124 8.76023C4.32163 8.81298 5.52466 8.76023 5.52466 8.76023C5.52466 8.76023 5.07368 8.56291 5.23254 8.30029C5.3914 8.03767 5.59892 6.34799 5.52466 5.77245C5.45039 5.19691 5.3658 6.13658 5.3658 6.13658Z" fill="#915E2B"/>
<path fill-rule="evenodd" clip-rule="evenodd" d="M5.50505 6.22555C5.50505 6.22555 6.20673 6.43627 6.20673 6.79483C6.20673 7.1534 6.79046 7.65738 6.79046 7.1801C6.79046 6.70283 6.68126 6.22555 6.444 6.22555C6.20673 6.22555 6.56005 5.90468 6.76295 6.17115C6.96586 6.43762 7.67735 6.14609 7.53283 5.95908C7.38832 5.77207 6.87535 5.53904 6.79046 5.53904C6.70558 5.53904 7.3742 5.08352 6.79046 5.08352C6.20673 5.08352 6.5415 5.47262 6.14591 5.05952C5.75032 4.64643 6.31433 5.26117 6.31433 4.56746C6.31433 3.87375 6.1543 3.59031 5.6259 3.9797C5.09751 4.36909 5.19882 4.12212 5.01075 3.9753C4.82268 3.82848 4.65764 4.51283 4.8646 4.65253C5.07157 4.79223 5.301 5.13847 5.09403 5.13847C4.88707 5.13847 4.74095 4.93867 4.74095 4.7956C4.74095 4.65253 4.17778 4.39984 3.64327 4.39984C3.10876 4.39984 3.4546 4.7956 3.64327 4.7956C3.83195 4.7956 4.67688 5.08352 4.25441 5.08352C3.83195 5.08352 4.28705 4.87049 3.75454 4.87049C3.22203 4.87049 2.60303 4.628 2.60303 5.08352C2.60303 5.53904 3.13511 5.74084 3.30134 5.53904C3.46756 5.33724 3.65973 4.99705 3.65973 5.33669C3.65973 5.67632 3.2362 5.53766 2.60303 5.74837C1.96986 5.95908 2.15155 6.51459 2.90688 6.37893C3.66222 6.24326 3.58049 6.25065 3.88374 6.03994C4.18699 5.82923 4.5623 5.88797 4.25441 6.22555C3.94652 6.56313 3.63863 7.1801 3.94652 7.1801C4.25441 7.1801 4.45289 7.26405 4.45289 6.9379C4.45289 6.61176 4.63162 5.97679 4.63162 6.37893C4.63162 6.78106 4.8646 7.08418 5.07157 6.9379C5.27853 6.79163 5.02337 6.33393 5.25964 6.33393C5.4959 6.33393 5.50505 6.22555 5.50505 6.22555Z" fill="#5EAA22"/>
</g>
<defs>
<clipPath id="clip0_58_4930">
<rect width="21.4187" height="16.064" fill="white" transform="translate(0 0.349609)"/>
</clipPath>
</defs>
</svg>
