<svg width="22" height="17" viewBox="0 0 22 17" fill="none" xmlns="http://www.w3.org/2000/svg">
<g clip-path="url(#clip0_58_4869)">
<rect width="21.4187" height="16.064" transform="translate(0.0249023 0.349609)" fill="white"/>
<path fill-rule="evenodd" clip-rule="evenodd" d="M0.315552 0.317566V16.3816H21.7343V0.317566H0.315552Z" fill="#2E42A5"/>
<g clip-path="url(#clip1_58_4869)">
<rect width="12.048" height="9.37069" transform="translate(0.0249023 0.349609)" fill="#2E42A5"/>
<path d="M-1.31665 9.05085L1.33455 10.2136L12.1331 1.61382L13.5315 -0.11409L10.6964 -0.502721L6.29198 3.20318L2.74685 5.70009L-1.31665 9.05085Z" fill="#F7FCFF"/>
<path d="M-0.953735 9.86551L0.39693 10.5403L13.0293 -0.274642H11.1328L-0.953735 9.86551Z" fill="#F50100"/>
<path d="M13.4144 9.05085L10.7632 10.2136L-0.0352883 1.61382L-1.43374 -0.11409L1.40134 -0.502721L5.8058 3.20318L9.35093 5.70009L13.4144 9.05085Z" fill="#F7FCFF"/>
<path d="M13.324 9.63553L11.9733 10.3103L6.59431 5.67987L4.99956 5.16252L-1.56829 -0.108176H0.3282L6.89236 5.03742L8.63594 5.65777L13.324 9.63553Z" fill="#F50100"/>
<path fill-rule="evenodd" clip-rule="evenodd" d="M6.70789 0.349609H5.36922V4.36562H0.0249023V5.70429H5.36922V9.7203H6.70789V5.70429H12.0729V4.36562H6.70789V0.349609Z" fill="#F50100"/>
<path fill-rule="evenodd" clip-rule="evenodd" d="M4.36521 0.349609H7.71189V3.36162H12.0729V6.70829H7.71189L7.72226 9.7203H4.37558L4.36521 6.70829H0.0249023V3.36162H4.36521V0.349609ZM5.36922 4.36562H0.0249023V5.70429H5.36922V9.7203H6.70789V5.70429H12.0729V4.36562H6.70789V0.349609H5.36922V4.36562Z" fill="#F7FCFF"/>
</g>
<path fill-rule="evenodd" clip-rule="evenodd" d="M16.1567 9.59124L16.6425 9.25063L17.1126 9.59124L16.9665 8.98509L17.344 8.60095H16.8635L16.6419 8.10626L16.4528 8.60095H15.8892L16.3207 8.98509L16.1567 9.59124ZM18.0394 10.4335L18.5253 10.0929L18.9954 10.4335L18.8492 9.82731L19.2268 9.44317H18.7463L18.5246 8.94849L18.3356 9.44317H17.7719L18.2035 9.82731L18.0394 10.4335ZM19.0869 11.6865L18.601 12.0271L18.765 11.4209L18.3335 11.0368H18.8971L19.0862 10.5421L19.3078 11.0368H19.7883L19.4108 11.4209L19.557 12.0271L19.0869 11.6865ZM17.9339 13.5498L18.4197 13.2092L18.8898 13.5498L18.7437 12.9437L19.1212 12.5595H18.6407L18.4191 12.0648L18.23 12.5595H17.6664L18.0979 12.9437L17.9339 13.5498ZM16.7141 14.0433L16.2283 14.3839L16.3923 13.7777L15.9608 13.3936H16.5244L16.7134 12.8989L16.9351 13.3936H17.4156L17.0381 13.7777L17.1842 14.3839L16.7141 14.0433ZM14.6394 13.5762L15.1253 13.2356L15.5954 13.5762L15.4492 12.97L15.8267 12.5859H15.3463L15.1246 12.0912L14.9355 12.5859H14.3719L14.8034 12.97L14.6394 13.5762ZM14.2776 11.6975L13.7918 12.0381L13.9558 11.432L13.5243 11.0478H14.0879L14.277 10.5532L14.4986 11.0478H14.9791L14.6016 11.432L14.7477 12.0381L14.2776 11.6975ZM14.403 10.4646L14.8889 10.1239L15.359 10.4646L15.2128 9.8584L15.5904 9.47426H15.1099L14.8882 8.97958L14.6992 9.47426H14.1355L14.5671 9.8584L14.403 10.4646Z" fill="white"/>
</g>
<defs>
<clipPath id="clip0_58_4869">
<rect width="21.4187" height="16.064" fill="white" transform="translate(0.0249023 0.349609)"/>
</clipPath>
<clipPath id="clip1_58_4869">
<rect width="12.048" height="9.37069" fill="white" transform="translate(0.0249023 0.349609)"/>
</clipPath>
</defs>
</svg>
