<svg width="22" height="17" viewBox="0 0 22 17" fill="none" xmlns="http://www.w3.org/2000/svg">
<g clip-path="url(#clip0_58_4841)">
<rect width="21.4187" height="16.064" transform="translate(0.536865 0.349609)" fill="white"/>
<path fill-rule="evenodd" clip-rule="evenodd" d="M0.827515 0.317566H22.2462V16.3816H0.827515V0.317566Z" fill="#E31D1C"/>
<path fill-rule="evenodd" clip-rule="evenodd" d="M10.8781 3.3619L10.2019 3.77009L10.3561 2.97356L9.79309 2.37743L10.5555 2.3452L10.8781 1.60144L11.2006 2.3452H11.9617L11.4 2.97356L11.5691 3.77009L10.8781 3.3619Z" fill="#FECA00"/>
<path fill-rule="evenodd" clip-rule="evenodd" d="M5.5246 6.74798L3.59635 7.78607L4.03617 5.76033L2.43042 4.24427L4.6047 4.16229L5.5246 2.27075L6.44449 4.16229H8.61508L7.01302 5.76033L7.49533 7.78607L5.5246 6.74798Z" fill="#FECA00"/>
<path fill-rule="evenodd" clip-rule="evenodd" d="M12.2168 6.03927L11.5407 6.44745L11.6949 5.65093L11.1318 5.0548L11.8942 5.02257L12.2168 4.27881L12.5394 5.02257H13.3005L12.7387 5.65093L12.9078 6.44745L12.2168 6.03927Z" fill="#FECA00"/>
<path fill-rule="evenodd" clip-rule="evenodd" d="M11.5474 8.71658L10.8712 9.12476L11.0255 8.32823L10.4624 7.73211L11.2248 7.69988L11.5474 6.95612L11.8699 7.69988H12.631L12.0693 8.32823L12.2384 9.12476L11.5474 8.71658Z" fill="#FECA00"/>
<path fill-rule="evenodd" clip-rule="evenodd" d="M9.53944 10.7246L8.8633 11.1328L9.01752 10.3362L8.45447 9.74011L9.21688 9.70787L9.53944 8.96411L9.862 9.70787H10.6231L10.0614 10.3362L10.2305 11.1328L9.53944 10.7246Z" fill="#FECA00"/>
</g>
<defs>
<clipPath id="clip0_58_4841">
<rect width="21.4187" height="16.064" fill="white" transform="translate(0.536865 0.349609)"/>
</clipPath>
</defs>
</svg>
