<svg width="22" height="17" viewBox="0 0 22 17" fill="none" xmlns="http://www.w3.org/2000/svg">
<g clip-path="url(#clip0_58_4796)">
<rect width="21.4187" height="16.064" transform="translate(0.512329 0.187134)" fill="white"/>
<path fill-rule="evenodd" clip-rule="evenodd" d="M0.802979 0.155151V16.2192H22.2217V0.155151H0.802979Z" fill="#4141DB"/>
<mask id="mask0_58_4796" style="mask-type:luminance" maskUnits="userSpaceOnUse" x="0" y="0" width="23" height="17">
<path fill-rule="evenodd" clip-rule="evenodd" d="M0.802979 0.155151V16.2192H22.2217V0.155151H0.802979Z" fill="white"/>
</mask>
<g mask="url(#mask0_58_4796)">
<path d="M0.802979 8.85654H0.133643V9.52588V10.8645V11.5339H0.802979H22.2217H22.891V10.8645V9.52588V8.85654H22.2217H0.802979Z" fill="#F90000" stroke="#F7FCFF" stroke-width="1.33867"/>
<g filter="url(#filter0_d_58_4796)">
<path fill-rule="evenodd" clip-rule="evenodd" d="M7.35971 7.02221L7.84557 6.68159L8.31567 7.02221L8.16951 6.41605L8.54704 6.03192H8.06655L7.84489 5.53723L7.65585 6.03192H7.09221L7.52374 6.41605L7.35971 7.02221ZM9.36771 8.09313L9.85357 7.75251L10.3237 8.09313L10.1775 7.48697L10.555 7.10283H10.0746L9.85289 6.60815L9.66385 7.10283H9.10021L9.53175 7.48697L9.36771 8.09313ZM11.46 9.35893L10.9741 9.69955L11.1382 9.09339L10.7066 8.70926H11.2703L11.4593 8.21457L11.681 8.70926H12.1615L11.7839 9.09339L11.9301 9.69955L11.46 9.35893ZM10.9741 12.3769L11.46 12.0363L11.9301 12.3769L11.7839 11.7707L12.1615 11.3866H11.681L11.4593 10.8919L11.2703 11.3866H10.7066L11.1382 11.7707L10.9741 12.3769ZM9.85357 13.6427L9.36771 13.9833L9.53175 13.3772L9.10021 12.993H9.66385L9.85289 12.4983L10.0746 12.993H10.555L10.1775 13.3772L10.3237 13.9833L9.85357 13.6427ZM7.35971 15.0542L7.84557 14.7136L8.31567 15.0542L8.16951 14.4481L8.54704 14.0639H8.06655L7.84489 13.5693L7.65585 14.0639H7.09221L7.52374 14.4481L7.35971 15.0542ZM5.83756 13.6427L5.3517 13.9833L5.51573 13.3772L5.0842 12.993H5.64784L5.83688 12.4983L6.05855 12.993H6.53903L6.1615 13.3772L6.30766 13.9833L5.83756 13.6427ZM3.74528 12.3769L4.23114 12.0363L4.70124 12.3769L4.55508 11.7707L4.93261 11.3866H4.45213L4.23046 10.8919L4.04142 11.3866H3.47778L3.90931 11.7707L3.74528 12.3769ZM4.23114 9.35893L3.74528 9.69955L3.90931 9.09339L3.47778 8.70926H4.04142L4.23046 8.21457L4.45213 8.70926H4.93261L4.55508 9.09339L4.70124 9.69955L4.23114 9.35893ZM5.3517 8.09313L5.83756 7.75251L6.30766 8.09313L6.1615 7.48697L6.53903 7.10283H6.05855L5.83688 6.60815L5.64784 7.10283H5.0842L5.51573 7.48697L5.3517 8.09313Z" fill="#FFDE00"/>
</g>
</g>
</g>
<defs>
<filter id="filter0_d_58_4796" x="0.800443" y="2.85989" width="14.0384" height="14.8716" filterUnits="userSpaceOnUse" color-interpolation-filters="sRGB">
<feFlood flood-opacity="0" result="BackgroundImageFix"/>
<feColorMatrix in="SourceAlpha" type="matrix" values="0 0 0 0 0 0 0 0 0 0 0 0 0 0 0 0 0 0 127 0" result="hardAlpha"/>
<feOffset/>
<feGaussianBlur stdDeviation="1.33867"/>
<feColorMatrix type="matrix" values="0 0 0 0 0 0 0 0 0 0 0 0 0 0 0 0 0 0 0.24 0"/>
<feBlend mode="normal" in2="BackgroundImageFix" result="effect1_dropShadow_58_4796"/>
<feBlend mode="normal" in="SourceGraphic" in2="effect1_dropShadow_58_4796" result="shape"/>
</filter>
<clipPath id="clip0_58_4796">
<rect width="21.4187" height="16.064" fill="white" transform="translate(0.512329 0.187134)"/>
</clipPath>
</defs>
</svg>
