<svg width="22" height="17" viewBox="0 0 22 17" fill="none" xmlns="http://www.w3.org/2000/svg">
<g clip-path="url(#clip0_58_4771)">
<rect width="21.4187" height="16.064" transform="translate(0.187134 0.187134)" fill="white"/>
<path fill-rule="evenodd" clip-rule="evenodd" d="M0.477783 0.155151H21.8965V16.2192H0.477783V0.155151Z" fill="#5EAA22"/>
<path fill-rule="evenodd" clip-rule="evenodd" d="M0.477783 0.155151L21.8965 16.2192H0.477783V0.155151Z" fill="#4141DB"/>
<path fill-rule="evenodd" clip-rule="evenodd" d="M4.49382 6.17915L3.82449 6.66914L3.91416 5.84448L3.15515 5.50981L3.91416 5.17515L3.82449 4.35049L4.49382 4.84048L5.16316 4.35049L5.07348 5.17515L5.83249 5.50981L5.07348 5.84448L5.16316 6.66914L4.49382 6.17915Z" fill="white"/>
<path fill-rule="evenodd" clip-rule="evenodd" d="M3.1552 10.1951L2.48586 10.6851L2.57554 9.86047L1.81653 9.5258L2.57554 9.19114L2.48586 8.36648L3.1552 8.85647L3.82453 8.36648L3.73486 9.19114L4.49387 9.5258L3.73486 9.86047L3.82453 10.6851L3.1552 10.1951Z" fill="white"/>
<path fill-rule="evenodd" clip-rule="evenodd" d="M5.83257 14.2111L5.16323 14.7011L5.25291 13.8765L4.4939 13.5418L5.25291 13.2071L5.16323 12.3825L5.83257 12.8725L6.5019 12.3825L6.41223 13.2071L7.17124 13.5418L6.41223 13.8765L6.5019 14.7011L5.83257 14.2111Z" fill="white"/>
<path fill-rule="evenodd" clip-rule="evenodd" d="M6.50185 7.85251L6.16719 8.09751L6.21202 7.68518L5.83252 7.51785L6.21202 7.35051L6.16719 6.93818L6.50185 7.18318L6.83652 6.93818L6.79169 7.35051L7.17119 7.51785L6.79169 7.68518L6.83652 8.09751L6.50185 7.85251Z" fill="white"/>
<path fill-rule="evenodd" clip-rule="evenodd" d="M14.9094 8.33701C14.6592 8.07599 16.9108 7.46267 17.1442 6.67183C17.4535 5.98329 17.2469 5.42537 16.0781 4.93538C14.9094 4.44539 13.7282 3.49796 15.0864 3.49796C16.4447 3.49796 16.4447 3.69162 16.8096 4.2629C17.1745 4.83418 17.9632 4.95655 17.9799 4.2629C17.9799 3.08099 18.0914 2.92203 17.1373 1.89449C16.1832 0.866944 19.5298 2.31646 19.2532 4.07801C18.9766 5.83956 18.6436 5.27115 18.855 5.56685C19.0664 5.86256 20.3384 4.94463 20.1796 6.16738C19.7346 6.87061 18.852 7.91695 14.9094 8.33701Z" fill="#FECA00"/>
<path fill-rule="evenodd" clip-rule="evenodd" d="M11.1871 11.5339C13.0354 11.5339 14.5338 10.0356 14.5338 8.18725C14.5338 6.33893 13.0354 4.84058 11.1871 4.84058C9.33881 4.84058 7.84045 6.33893 7.84045 8.18725C7.84045 10.0356 9.33881 11.5339 11.1871 11.5339Z" fill="#FECA00"/>
<path fill-rule="evenodd" clip-rule="evenodd" d="M9.14763 6.95708C9.52724 6.87244 10.0463 7.88896 10.9832 7.5077C11.9201 7.12644 12.1157 6.39856 12.5609 6.66496C13.006 6.93136 13.0645 7.57277 12.7679 7.89515C12.4714 8.21753 11.9682 8.29379 11.9682 8.70125C11.9682 9.10872 11.8695 10.5618 11.6772 10.1407C11.1005 9.67276 11.4524 8.92749 10.742 8.70125C10.0317 8.47501 9.60026 8.48259 9.07626 8.57806C8.55226 8.67353 9.42828 8.31581 9.61407 7.97618C9.99235 7.61226 8.97405 7.07808 9.14763 6.95708Z" fill="#548650"/>
</g>
<defs>
<clipPath id="clip0_58_4771">
<rect width="21.4187" height="16.064" fill="white" transform="translate(0.187134 0.187134)"/>
</clipPath>
</defs>
</svg>
