<svg width="22" height="17" viewBox="0 0 22 17" fill="none" xmlns="http://www.w3.org/2000/svg">
<g clip-path="url(#clip0_58_4726)">
<rect width="21.4187" height="16.064" transform="translate(0.0249023 0.187134)" fill="white"/>
<path fill-rule="evenodd" clip-rule="evenodd" d="M0.315552 0.155151V16.2192H21.7343V0.155151H0.315552Z" fill="#F7FCFF"/>
<mask id="mask0_58_4726" style="mask-type:luminance" maskUnits="userSpaceOnUse" x="0" y="0" width="22" height="17">
<path fill-rule="evenodd" clip-rule="evenodd" d="M0.315552 0.155151V16.2192H21.7343V0.155151H0.315552Z" fill="white"/>
</mask>
<g mask="url(#mask0_58_4726)">
<path fill-rule="evenodd" clip-rule="evenodd" d="M5.40226 9.74075C5.11572 9.54158 5.2446 9.10461 5.2446 9.10461C5.2446 9.10461 5.66998 9.34632 5.81911 9.45851C5.96823 9.57071 6.07579 10.0336 6.07579 10.0336C6.07579 10.0336 5.68881 9.93993 5.40226 9.74075ZM6.16809 10.3656C6.15364 10.2393 6.18902 10.1265 6.18902 10.1265C6.18902 10.1265 6.54809 10.3184 6.67396 10.4074C6.79984 10.4965 6.89063 10.8639 6.89063 10.8639C6.89063 10.8639 6.56398 10.7896 6.3221 10.6315C6.23415 10.574 6.19256 10.4915 6.17525 10.4099C6.10303 10.432 5.91886 10.48 5.72887 10.4617C5.48486 10.4383 5.3088 10.0959 5.3088 10.0959C5.3088 10.0959 5.64174 10.0945 5.77337 10.1124C5.8759 10.1264 6.082 10.2927 6.16809 10.3656ZM7.3004 11.0188C7.3004 11.0188 7.32624 11.3785 7.58661 11.452C7.84699 11.5255 8.15104 11.4939 8.15104 11.4939C8.15104 11.4939 7.94792 11.1768 7.8101 11.1322C7.67228 11.0876 7.3004 11.0188 7.3004 11.0188ZM8.8438 11.9817C8.57463 11.9545 8.48672 11.6048 8.48672 11.6048C8.48672 11.6048 8.8649 11.608 9.00837 11.628C9.15185 11.648 9.40694 11.925 9.40694 11.925C9.40694 11.925 9.11298 12.0088 8.8438 11.9817ZM9.32176 11.3341C9.32176 11.3341 9.28529 11.7538 9.5557 11.8944C9.82611 12.0351 10.163 12.0643 10.163 12.0643C10.163 12.0643 9.99868 11.6555 9.85657 11.5745C9.71446 11.4935 9.32176 11.3341 9.32176 11.3341ZM9.5109 12.4056C9.21223 12.4664 8.97649 12.1174 8.97649 12.1174C8.97649 12.1174 9.38194 11.9941 9.54337 11.9676C9.70481 11.9412 10.0897 12.1554 10.0897 12.1554C10.0897 12.1554 9.80957 12.3447 9.5109 12.4056ZM7.35123 11.6524C7.35123 11.6524 7.49276 11.9841 7.76287 11.9688C8.03298 11.9535 8.31021 11.8247 8.31021 11.8247C8.31021 11.8247 8.01492 11.591 7.87008 11.5937C7.72525 11.5964 7.35123 11.6524 7.35123 11.6524ZM8.13535 11.2726C7.89378 11.1508 7.93705 10.7928 7.93705 10.7928C7.93705 10.7928 8.28897 10.9313 8.41574 11.0014C8.54252 11.0715 8.6814 11.4215 8.6814 11.4215C8.6814 11.4215 8.37692 11.3944 8.13535 11.2726ZM6.77446 9.96304C6.77446 9.96304 6.77505 10.4054 6.95687 10.5782C7.13869 10.7511 7.35681 10.8114 7.35681 10.8114C7.35681 10.8114 7.22784 10.3631 7.13188 10.2647C7.03593 10.1663 6.77446 9.96304 6.77446 9.96304ZM6.10779 10.9402C6.10779 10.9402 6.37938 11.2938 6.65908 11.2757C6.93878 11.2575 7.18422 11.118 7.18422 11.118C7.18422 11.118 6.78629 10.8701 6.63428 10.874C6.48227 10.8778 6.10779 10.9402 6.10779 10.9402ZM6.17322 10.8598C6.02447 10.8734 5.88522 10.6881 5.88522 10.6881C5.88522 10.6881 6.0849 10.6495 6.16566 10.6453C6.24642 10.6411 6.45422 10.7681 6.45422 10.7681C6.45422 10.7681 6.32197 10.8462 6.17322 10.8598ZM6.29702 9.42865C6.29702 9.42865 6.13868 9.59797 6.17792 9.74209C6.21717 9.88622 6.317 10.0029 6.317 10.0029C6.317 10.0029 6.40598 9.77621 6.38784 9.69741C6.3697 9.6186 6.29702 9.42865 6.29702 9.42865ZM7.60817 10.9205C7.51609 10.8859 7.53743 10.7747 7.53743 10.7747C7.53743 10.7747 7.67206 10.813 7.7203 10.8331C7.76854 10.8531 7.81791 10.9596 7.81791 10.9596C7.81791 10.9596 7.70025 10.9551 7.60817 10.9205ZM7.13004 11.3495C7.13004 11.3495 7.10871 11.4607 7.20078 11.4953C7.29286 11.5299 7.41052 11.5344 7.41052 11.5344C7.41052 11.5344 7.36116 11.4279 7.31291 11.4079C7.26467 11.3878 7.13004 11.3495 7.13004 11.3495ZM8.89831 11.4953C8.80623 11.4607 8.82756 11.3495 8.82756 11.3495C8.82756 11.3495 8.96219 11.3878 9.01044 11.4079C9.05868 11.4279 9.10805 11.5344 9.10805 11.5344C9.10805 11.5344 8.99038 11.5299 8.89831 11.4953ZM8.48807 12.052C8.48807 12.052 8.46674 12.1632 8.55882 12.1978C8.65089 12.2324 8.76856 12.2369 8.76856 12.2369C8.76856 12.2369 8.71919 12.1304 8.67095 12.1104C8.6227 12.0903 8.48807 12.052 8.48807 12.052ZM10.3092 12.8139L10.0109 12.5654C10.1967 12.458 10.3881 12.3725 10.5519 12.3083C10.5068 12.2773 10.4661 12.254 10.4332 12.2427V12.1613C10.4332 12.1613 10.5446 12.1902 10.7115 12.2489C10.8784 12.1902 10.9899 12.1613 10.9899 12.1613V12.2427C10.9569 12.254 10.9162 12.2773 10.8712 12.3083C11.0349 12.3725 11.2263 12.458 11.4121 12.5654L11.1138 12.8139C11.1138 12.8139 10.9091 12.6004 10.7115 12.4327C10.514 12.6004 10.3092 12.8139 10.3092 12.8139ZM16.1784 9.10461C16.1784 9.10461 16.3073 9.54158 16.0208 9.74075C15.7342 9.93993 15.3472 10.0336 15.3472 10.0336C15.3472 10.0336 15.4548 9.57071 15.6039 9.45851C15.753 9.34632 16.1784 9.10461 16.1784 9.10461ZM15.2549 10.3656C15.2694 10.2393 15.234 10.1265 15.234 10.1265C15.234 10.1265 14.8749 10.3184 14.7491 10.4074C14.6232 10.4965 14.5324 10.8639 14.5324 10.8639C14.5324 10.8639 14.8591 10.7896 15.1009 10.6315C15.1889 10.574 15.2305 10.4915 15.2478 10.4099C15.32 10.432 15.5042 10.48 15.6942 10.4617C15.9382 10.4383 16.1142 10.0959 16.1142 10.0959C16.1142 10.0959 15.7813 10.0945 15.6497 10.1124C15.5471 10.1264 15.341 10.2927 15.2549 10.3656ZM14.1227 11.0188C14.1227 11.0188 14.0969 11.3785 13.8365 11.452C13.5761 11.5255 13.2721 11.4939 13.2721 11.4939C13.2721 11.4939 13.4752 11.1768 13.613 11.1322C13.7508 11.0876 14.1227 11.0188 14.1227 11.0188ZM12.5793 11.9817C12.8485 11.9545 12.9364 11.6048 12.9364 11.6048C12.9364 11.6048 12.5582 11.608 12.4147 11.628C12.2713 11.648 12.0162 11.925 12.0162 11.925C12.0162 11.925 12.3101 12.0088 12.5793 11.9817ZM12.1013 11.3341C12.1013 11.3341 12.1378 11.7538 11.8674 11.8944C11.597 12.0351 11.2602 12.0643 11.2602 12.0643C11.2602 12.0643 11.4244 11.6555 11.5665 11.5745C11.7086 11.4935 12.1013 11.3341 12.1013 11.3341ZM11.9122 12.4056C12.2109 12.4664 12.4466 12.1174 12.4466 12.1174C12.4466 12.1174 12.0412 11.9941 11.8797 11.9676C11.7183 11.9412 11.3334 12.1554 11.3334 12.1554C11.3334 12.1554 11.6135 12.3447 11.9122 12.4056ZM14.0719 11.6524C14.0719 11.6524 13.9303 11.9841 13.6602 11.9688C13.3901 11.9535 13.1129 11.8247 13.1129 11.8247C13.1129 11.8247 13.4082 11.591 13.553 11.5937C13.6979 11.5964 14.0719 11.6524 14.0719 11.6524ZM13.2877 11.2726C13.5292 11.1508 13.486 10.7928 13.486 10.7928C13.486 10.7928 13.1341 10.9313 13.0073 11.0014C12.8805 11.0715 12.7416 11.4215 12.7416 11.4215C12.7416 11.4215 13.0461 11.3944 13.2877 11.2726ZM14.6487 9.96304C14.6487 9.96304 14.6481 10.4054 14.4662 10.5782C14.2844 10.7511 14.0663 10.8114 14.0663 10.8114C14.0663 10.8114 14.1953 10.3631 14.2912 10.2647C14.3872 10.1663 14.6487 9.96304 14.6487 9.96304ZM15.3153 10.9402C15.3153 10.9402 15.0437 11.2938 14.764 11.2757C14.4843 11.2575 14.2389 11.118 14.2389 11.118C14.2389 11.118 14.6368 10.8701 14.7888 10.874C14.9408 10.8778 15.3153 10.9402 15.3153 10.9402ZM15.2499 10.8598C15.3986 10.8734 15.5379 10.6881 15.5379 10.6881C15.5379 10.6881 15.3382 10.6495 15.2575 10.6453C15.1767 10.6411 14.9689 10.7681 14.9689 10.7681C14.9689 10.7681 15.1011 10.8462 15.2499 10.8598ZM15.126 9.42865C15.126 9.42865 15.2844 9.59797 15.2451 9.74209C15.2059 9.88622 15.106 10.0029 15.106 10.0029C15.106 10.0029 15.0171 9.77621 15.0352 9.69741C15.0533 9.6186 15.126 9.42865 15.126 9.42865ZM13.8149 10.9205C13.9069 10.8859 13.8856 10.7747 13.8856 10.7747C13.8856 10.7747 13.751 10.813 13.7027 10.8331C13.6545 10.8531 13.6051 10.9596 13.6051 10.9596C13.6051 10.9596 13.7228 10.9551 13.8149 10.9205ZM14.2931 11.3495C14.2931 11.3495 14.3144 11.4607 14.2223 11.4953C14.1303 11.5299 14.0126 11.5344 14.0126 11.5344C14.0126 11.5344 14.062 11.4279 14.1102 11.4079C14.1584 11.3878 14.2931 11.3495 14.2931 11.3495ZM12.5247 11.4953C12.6168 11.4607 12.5955 11.3495 12.5955 11.3495C12.5955 11.3495 12.4608 11.3878 12.4126 11.4079C12.3644 11.4279 12.315 11.5344 12.315 11.5344C12.315 11.5344 12.4326 11.5299 12.5247 11.4953ZM12.935 12.052C12.935 12.052 12.9563 12.1632 12.8642 12.1978C12.7721 12.2324 12.6545 12.2369 12.6545 12.2369C12.6545 12.2369 12.7038 12.1304 12.7521 12.1104C12.8003 12.0903 12.935 12.052 12.935 12.052Z" fill="#006B49"/>
<path fill-rule="evenodd" clip-rule="evenodd" d="M18.9271 2.17468C18.9271 2.17468 19.1588 2.47244 18.9271 2.47244C18.6954 2.47244 18.1062 2.79462 18.1062 2.79462C18.1062 2.79462 17.826 3.2129 17.4865 3.30753C17.1471 3.40216 17.0326 3.75358 16.5358 3.90005C16.0389 4.04652 15.9881 4.08651 15.9881 4.23475C15.9881 4.38298 16.0728 4.63404 15.7335 4.63404C15.3942 4.63404 15.1544 4.15898 14.9708 4.63404C14.7872 5.10909 14.6012 5.24836 14.8555 5.53897C15.1098 5.82958 15.4468 6.10787 15.5902 6.2757C15.7335 6.44354 16.6897 6.93471 15.9881 6.93471C15.2865 6.93471 15.6392 6.49012 15.0991 6.65252C14.559 6.81492 14.8691 7.0545 14.4564 6.93471C14.0436 6.81492 13.7684 6.70564 13.6403 6.76028C13.5122 6.81492 13.3065 6.45666 13.3065 6.93471C13.3065 7.41276 13.6917 7.21898 12.8657 7.74703C12.0398 8.27508 12.2038 8.12916 11.8247 8.12916C11.4456 8.12916 11.3124 8.36818 11.0597 8.36818C10.8069 8.36818 10.8377 8.36818 10.553 8.36818C10.2683 8.36818 10.5734 8.06579 10.0879 8.36818C9.60238 8.67058 9.42845 8.73078 9.42845 8.84697C9.42845 8.96315 9.42845 9.27123 9.42845 9.27123C9.42845 9.27123 8.98363 9.5257 8.98363 9.27123C8.98363 9.01675 8.84653 8.95161 8.6621 8.84697C8.47767 8.74232 8.10914 8.81766 7.71556 8.84697C7.32198 8.87627 6.87703 8.45 6.53536 8.45C6.1937 8.45 6.13014 8.12916 6.03667 8.12916C5.94321 8.12916 6.13418 7.85497 5.73636 7.60892C5.33853 7.36288 5.19928 7.33229 5.19928 6.93471C5.19928 6.53713 5.0166 6.4284 5.0166 6.18681C5.0166 5.94522 5.21127 6.2757 5.62397 6.2757C6.03667 6.2757 6.06374 6.02004 6.53536 5.7795C7.00698 5.53897 7.16704 5.40734 7.56028 5.53897C7.95352 5.6706 8.34057 6.1611 8.6621 5.69032C8.98363 5.21954 8.98363 4.68117 8.98363 4.40936C8.98363 4.13755 8.79347 4.06013 9.30677 4.23475C9.82008 4.40936 10.1187 4.40936 10.9717 4.40936C11.8247 4.40936 12.8447 4.68831 13.159 4.40936C13.4733 4.13041 13.8093 3.90005 14.6248 3.90005C15.4403 3.90005 15.7068 3.49924 16.2552 3.30753C16.8035 3.11582 15.9948 3.52109 17.2249 2.99677C18.455 2.47244 18.9271 2.17468 18.9271 2.17468Z" fill="#F57A01"/>
</g>
</g>
<defs>
<clipPath id="clip0_58_4726">
<rect width="21.4187" height="16.064" fill="white" transform="translate(0.0249023 0.187134)"/>
</clipPath>
</defs>
</svg>
