<svg width="22" height="17" viewBox="0 0 22 17" fill="none" xmlns="http://www.w3.org/2000/svg">
<g clip-path="url(#clip0_58_4698)">
<rect width="21.4187" height="16.064" transform="translate(0.536865 0.187134)" fill="white"/>
<path fill-rule="evenodd" clip-rule="evenodd" d="M0.827515 0.155151V16.2192H22.2462V0.155151H0.827515Z" fill="#73BE4A"/>
<mask id="mask0_58_4698" style="mask-type:luminance" maskUnits="userSpaceOnUse" x="0" y="0" width="23" height="17">
<path fill-rule="evenodd" clip-rule="evenodd" d="M0.827515 0.155151V16.2192H22.2462V0.155151H0.827515Z" fill="white"/>
</mask>
<g mask="url(#mask0_58_4698)">
<path fill-rule="evenodd" clip-rule="evenodd" d="M0.827515 -1.18347V8.18722H22.2462V-1.18347H0.827515Z" fill="#6699FF"/>
</g>
<path fill-rule="evenodd" clip-rule="evenodd" d="M0.827515 0.155151V16.2192L12.8755 8.18717L0.827515 0.155151Z" fill="white"/>
<mask id="mask1_58_4698" style="mask-type:luminance" maskUnits="userSpaceOnUse" x="0" y="0" width="13" height="17">
<path fill-rule="evenodd" clip-rule="evenodd" d="M0.827515 0.155151V16.2192L12.8755 8.18717L0.827515 0.155151Z" fill="white"/>
</mask>
<g mask="url(#mask1_58_4698)">
<path fill-rule="evenodd" clip-rule="evenodd" d="M5.51409 9.57323L4.26198 10.3291L4.54758 8.85407L3.50488 7.75014L4.91675 7.69045L5.51409 6.31311L6.11142 7.69045H7.52089L6.4806 8.85407L6.79379 10.3291L5.51409 9.57323Z" fill="#E31D1C"/>
</g>
</g>
<defs>
<clipPath id="clip0_58_4698">
<rect width="21.4187" height="16.064" fill="white" transform="translate(0.536865 0.187134)"/>
</clipPath>
</defs>
</svg>
