<svg width="23" height="17" viewBox="0 0 23 17" fill="none" xmlns="http://www.w3.org/2000/svg">
<g clip-path="url(#clip0_58_4662)">
<rect width="21.4187" height="16.064" transform="translate(0.837402 0.0249023)" fill="white"/>
<path fill-rule="evenodd" clip-rule="evenodd" d="M1.12805 -0.00708008V16.057H22.5468V-0.00708008H1.12805Z" fill="#279E19"/>
<mask id="mask0_58_4662" style="mask-type:luminance" maskUnits="userSpaceOnUse" x="1" y="-1" width="22" height="18">
<path fill-rule="evenodd" clip-rule="evenodd" d="M1.12805 -0.00708008V16.057H22.5468V-0.00708008H1.12805Z" fill="white"/>
</mask>
<g mask="url(#mask0_58_4662)">
<path fill-rule="evenodd" clip-rule="evenodd" d="M12.5067 -0.00708008H13.8454V8.69428H22.5468V10.0329H13.8454V16.057H12.5067V10.0329H1.12805V8.69428H12.5067V-0.00708008Z" fill="#F7FCFF"/>
<path fill-rule="evenodd" clip-rule="evenodd" d="M11.1681 -0.00708008H12.5067V7.35561H22.5468V8.69428H12.5067V16.057H11.1681V8.69428H1.12805V7.35561H11.1681V-0.00708008Z" fill="#272727"/>
<path fill-rule="evenodd" clip-rule="evenodd" d="M9.82941 -0.00708008H11.1681V6.01694H22.5468V7.35561H11.1681V16.057H9.82941V7.35561H1.12805V6.01694H9.82941V-0.00708008Z" fill="#FECA00"/>
<path fill-rule="evenodd" clip-rule="evenodd" d="M11.8375 13.3796C14.7948 13.3796 17.1921 10.9823 17.1921 8.02497C17.1921 5.06766 14.7948 2.67029 11.8375 2.67029C8.88016 2.67029 6.48279 5.06766 6.48279 8.02497C6.48279 10.9823 8.88016 13.3796 11.8375 13.3796Z" fill="#C51918"/>
<path fill-rule="evenodd" clip-rule="evenodd" d="M10.9847 5.62397C10.9847 5.62397 11.239 4.79873 11.8297 5.22506C12.7561 5.68134 13.0617 6.20555 13.4194 6.79919C13.777 7.39283 12.5425 6.95806 12.3122 6.62395C12.0818 6.28983 10.8043 6.1815 10.9847 5.90273C11.165 5.62397 10.9847 5.62397 10.9847 5.62397Z" fill="#804BFF"/>
<path fill-rule="evenodd" clip-rule="evenodd" d="M10.7753 9.84912C10.7753 9.84912 10.1463 10.7095 10.7753 10.7095C11.4043 10.7095 13.9542 10.5244 13.6486 10.2793C13.343 10.0342 11.0775 10.2793 11.0775 10.2793L10.7753 9.84912Z" fill="#A95601"/>
<path fill-rule="evenodd" clip-rule="evenodd" d="M11.7157 9.822C11.6772 9.7785 11.1031 9.40145 10.8793 8.53929C10.7246 7.94327 10.8195 6.82835 11.0373 6.60742C11.5702 6.06694 11.8824 6.38453 11.8824 7.19499C11.8824 8.00545 11.9144 10.0223 11.7157 9.822Z" fill="#804BFF"/>
<path fill-rule="evenodd" clip-rule="evenodd" d="M11.6482 9.40003C11.6482 9.40003 11.5821 10.0321 11.9072 10.7701C12.2322 11.508 12.8889 11.4938 12.8889 10.8898C12.8889 10.2858 13.3681 10.8526 13.5521 11.2557C13.7361 11.6588 13.2596 7.67631 12.5834 6.78534C11.9072 5.89437 11.2547 5.83717 11.4515 6.41292C11.6482 6.98868 11.6482 9.40003 11.6482 9.40003Z" fill="#279E19"/>
<path fill-rule="evenodd" clip-rule="evenodd" d="M11.2533 5.07983C11.2533 5.07983 10.9673 5.26326 10.9673 5.76848C10.9673 6.2737 11.6445 5.61205 11.6445 5.61205L11.2533 5.07983Z" fill="#FECA00"/>
<mask id="path-12-inside-1_58_4662" fill="white">
<path fill-rule="evenodd" clip-rule="evenodd" d="M11.3143 4.88804L11.9044 4.46734L12.4946 4.88804L12.2768 4.19678L12.8593 3.76553L12.1346 3.759L11.9044 3.07178L11.6743 3.759L10.9496 3.76553L11.532 4.19678L11.3143 4.88804ZM13.2708 5.14025L13.9955 5.14678L14.2256 5.834L14.4558 5.14678L15.1805 5.14025L14.598 4.709L14.8158 4.01774L14.2256 4.43844L13.6355 4.01774L13.8532 4.709L13.2708 5.14025ZM15.2878 6.92549L14.7053 6.49424L15.43 6.48772L15.6602 5.80049L15.8903 6.48772L16.615 6.49424L16.0326 6.92549L16.2503 7.61675L15.6602 7.19606L15.07 7.61675L15.2878 6.92549ZM15.0701 8.43293L15.2878 9.12418L14.7053 9.55544L15.4301 9.56196L15.6602 10.2492L15.8904 9.56196L16.6151 9.55544L16.0326 9.12418L16.2503 8.43293L15.6602 8.85362L15.0701 8.43293ZM13.9955 10.9029L14.2256 10.2157L14.4558 10.9029L15.1805 10.9094L14.598 11.3407L14.8157 12.032L14.2256 11.6113L13.6355 12.032L13.8532 11.3407L13.2707 10.9094L13.9955 10.9029ZM12.4946 11.1616L11.9044 11.5823L11.3143 11.1616L11.532 11.8529L10.9496 12.2841L11.6743 12.2907L11.9044 12.9779L12.1346 12.2907L12.8593 12.2841L12.2768 11.8529L12.4946 11.1616ZM9.81335 10.903L10.5381 10.9095L9.95559 11.3407L10.1733 12.032L9.58319 11.6113L8.99305 12.032L9.2108 11.3407L8.62833 10.9095L9.35304 10.903L9.58319 10.2157L9.81335 10.903ZM9.10345 9.55542L8.52099 9.12417L8.73873 8.43291L8.14859 8.85361L7.55845 8.43291L7.77619 9.12417L7.19373 9.55542L7.91844 9.56195L8.14859 10.2492L8.37874 9.56195L9.10345 9.55542ZM8.52102 6.92548L8.73876 7.61674L8.14862 7.19604L7.55848 7.61674L7.77622 6.92548L7.19376 6.49423L7.91847 6.4877L8.14862 5.80048L8.37878 6.4877L9.10348 6.49423L8.52102 6.92548ZM9.58322 5.83397L9.81338 5.14675L10.5381 5.14022L9.95562 4.70897L10.1734 4.01771L9.58322 4.43841L8.99309 4.01771L9.21083 4.70897L8.62836 5.14022L9.35307 5.14675L9.58322 5.83397Z"/>
</mask>
<path fill-rule="evenodd" clip-rule="evenodd" d="M11.3143 4.88804L11.9044 4.46734L12.4946 4.88804L12.2768 4.19678L12.8593 3.76553L12.1346 3.759L11.9044 3.07178L11.6743 3.759L10.9496 3.76553L11.532 4.19678L11.3143 4.88804ZM13.2708 5.14025L13.9955 5.14678L14.2256 5.834L14.4558 5.14678L15.1805 5.14025L14.598 4.709L14.8158 4.01774L14.2256 4.43844L13.6355 4.01774L13.8532 4.709L13.2708 5.14025ZM15.2878 6.92549L14.7053 6.49424L15.43 6.48772L15.6602 5.80049L15.8903 6.48772L16.615 6.49424L16.0326 6.92549L16.2503 7.61675L15.6602 7.19606L15.07 7.61675L15.2878 6.92549ZM15.0701 8.43293L15.2878 9.12418L14.7053 9.55544L15.4301 9.56196L15.6602 10.2492L15.8904 9.56196L16.6151 9.55544L16.0326 9.12418L16.2503 8.43293L15.6602 8.85362L15.0701 8.43293ZM13.9955 10.9029L14.2256 10.2157L14.4558 10.9029L15.1805 10.9094L14.598 11.3407L14.8157 12.032L14.2256 11.6113L13.6355 12.032L13.8532 11.3407L13.2707 10.9094L13.9955 10.9029ZM12.4946 11.1616L11.9044 11.5823L11.3143 11.1616L11.532 11.8529L10.9496 12.2841L11.6743 12.2907L11.9044 12.9779L12.1346 12.2907L12.8593 12.2841L12.2768 11.8529L12.4946 11.1616ZM9.81335 10.903L10.5381 10.9095L9.95559 11.3407L10.1733 12.032L9.58319 11.6113L8.99305 12.032L9.2108 11.3407L8.62833 10.9095L9.35304 10.903L9.58319 10.2157L9.81335 10.903ZM9.10345 9.55542L8.52099 9.12417L8.73873 8.43291L8.14859 8.85361L7.55845 8.43291L7.77619 9.12417L7.19373 9.55542L7.91844 9.56195L8.14859 10.2492L8.37874 9.56195L9.10345 9.55542ZM8.52102 6.92548L8.73876 7.61674L8.14862 7.19604L7.55848 7.61674L7.77622 6.92548L7.19376 6.49423L7.91847 6.4877L8.14862 5.80048L8.37878 6.4877L9.10348 6.49423L8.52102 6.92548ZM9.58322 5.83397L9.81338 5.14675L10.5381 5.14022L9.95562 4.70897L10.1734 4.01771L9.58322 4.43841L8.99309 4.01771L9.21083 4.70897L8.62836 5.14022L9.35307 5.14675L9.58322 5.83397Z" fill="#279E19"/>
<path d="M11.9044 4.46734L11.9433 4.41284L11.9044 4.38514L11.8656 4.41284L11.9044 4.46734ZM11.3143 4.88804L11.2504 4.86793L11.1904 5.05855L11.3531 4.94254L11.3143 4.88804ZM12.4946 4.88804L12.4557 4.94254L12.6184 5.05855L12.5584 4.86793L12.4946 4.88804ZM12.2768 4.19678L12.237 4.14299L12.1986 4.17138L12.213 4.21689L12.2768 4.19678ZM12.8593 3.76553L12.8991 3.81932L13.0597 3.70039L12.8599 3.6986L12.8593 3.76553ZM12.1346 3.759L12.0711 3.78026L12.0863 3.8255L12.134 3.82593L12.1346 3.759ZM11.9044 3.07178L11.9679 3.05052L11.9044 2.86101L11.8409 3.05052L11.9044 3.07178ZM11.6743 3.759L11.6749 3.82593L11.7226 3.8255L11.7377 3.78026L11.6743 3.759ZM10.9496 3.76553L10.949 3.6986L10.7491 3.70039L10.9097 3.81932L10.9496 3.76553ZM11.532 4.19678L11.5959 4.21689L11.6102 4.17138L11.5718 4.14299L11.532 4.19678ZM13.9955 5.14678L14.059 5.12552L14.0438 5.08028L13.9961 5.07985L13.9955 5.14678ZM13.2708 5.14025L13.2309 5.08646L13.0703 5.20539L13.2702 5.20718L13.2708 5.14025ZM14.2256 5.834L14.1622 5.85526L14.2256 6.04477L14.2891 5.85526L14.2256 5.834ZM14.4558 5.14678L14.4552 5.07985L14.4075 5.08028L14.3923 5.12552L14.4558 5.14678ZM15.1805 5.14025L15.1811 5.20718L15.381 5.20538L15.2203 5.08646L15.1805 5.14025ZM14.598 4.709L14.5342 4.68889L14.5199 4.7344L14.5582 4.76279L14.598 4.709ZM14.8158 4.01774L14.8796 4.03785L14.9397 3.84723L14.7769 3.96324L14.8158 4.01774ZM14.2256 4.43844L14.1868 4.49294L14.2256 4.52064L14.2645 4.49294L14.2256 4.43844ZM13.6355 4.01774L13.6744 3.96324L13.5116 3.84723L13.5717 4.03785L13.6355 4.01774ZM13.8532 4.709L13.8931 4.76279L13.9314 4.7344L13.9171 4.68889L13.8532 4.709ZM14.7053 6.49424L14.7047 6.42731L14.5048 6.42911L14.6655 6.54804L14.7053 6.49424ZM15.2878 6.92549L15.3516 6.9456L15.3659 6.90009L15.3276 6.8717L15.2878 6.92549ZM15.43 6.48772L15.4306 6.55465L15.4783 6.55422L15.4935 6.50897L15.43 6.48772ZM15.6602 5.80049L15.7236 5.77924L15.6602 5.58972L15.5967 5.77924L15.6602 5.80049ZM15.8903 6.48772L15.8268 6.50897L15.842 6.55422L15.8897 6.55465L15.8903 6.48772ZM16.615 6.49424L16.6549 6.54804L16.8155 6.42911L16.6156 6.42731L16.615 6.49424ZM16.0326 6.92549L15.9927 6.8717L15.9544 6.90009L15.9687 6.9456L16.0326 6.92549ZM16.2503 7.61675L16.2114 7.67125L16.3742 7.78727L16.3141 7.59664L16.2503 7.61675ZM15.6602 7.19606L15.699 7.14155L15.6602 7.11386L15.6213 7.14155L15.6602 7.19606ZM15.07 7.61675L15.0062 7.59664L14.9461 7.78727L15.1089 7.67125L15.07 7.61675ZM15.2878 9.12418L15.3276 9.17798L15.366 9.14958L15.3517 9.10407L15.2878 9.12418ZM15.0701 8.43293L15.1089 8.37842L14.9462 8.26241L15.0062 8.45304L15.0701 8.43293ZM14.7053 9.55544L14.6655 9.50164L14.5049 9.62057L14.7047 9.62237L14.7053 9.55544ZM15.4301 9.56196L15.4935 9.54071L15.4784 9.49546L15.4307 9.49503L15.4301 9.56196ZM15.6602 10.2492L15.5967 10.2704L15.6602 10.46L15.7237 10.2704L15.6602 10.2492ZM15.8904 9.56196L15.8898 9.49503L15.842 9.49546L15.8269 9.54071L15.8904 9.56196ZM16.6151 9.55544L16.6157 9.62237L16.8155 9.62057L16.6549 9.50164L16.6151 9.55544ZM16.0326 9.12418L15.9688 9.10407L15.9544 9.14958L15.9928 9.17798L16.0326 9.12418ZM16.2503 8.43293L16.3142 8.45304L16.3742 8.26241L16.2115 8.37842L16.2503 8.43293ZM15.6602 8.85362L15.6214 8.90812L15.6602 8.93582L15.6991 8.90812L15.6602 8.85362ZM14.2256 10.2157L14.2891 10.1944L14.2256 10.0049L14.1621 10.1944L14.2256 10.2157ZM13.9955 10.9029L13.9961 10.9698L14.0438 10.9694L14.0589 10.9242L13.9955 10.9029ZM14.4558 10.9029L14.3923 10.9242L14.4074 10.9694L14.4552 10.9699L14.4558 10.9029ZM15.1805 10.9094L15.2203 10.9632L15.3809 10.8443L15.1811 10.8425L15.1805 10.9094ZM14.598 11.3407L14.5582 11.2869L14.5198 11.3153L14.5342 11.3608L14.598 11.3407ZM14.8157 12.032L14.7769 12.0865L14.9396 12.2025L14.8796 12.0118L14.8157 12.032ZM14.2256 11.6113L14.2645 11.5568L14.2256 11.5291L14.1868 11.5568L14.2256 11.6113ZM13.6355 12.032L13.5716 12.0118L13.5116 12.2025L13.6743 12.0865L13.6355 12.032ZM13.8532 11.3407L13.9171 11.3608L13.9314 11.3153L13.893 11.2869L13.8532 11.3407ZM13.2707 10.9094L13.2701 10.8425L13.0703 10.8443L13.2309 10.9632L13.2707 10.9094ZM11.9044 11.5823L11.8656 11.6368L11.9044 11.6645L11.9433 11.6368L11.9044 11.5823ZM12.4946 11.1616L12.5584 11.1817L12.6184 10.9911L12.4557 11.1071L12.4946 11.1616ZM11.3143 11.1616L11.3531 11.1071L11.1904 10.9911L11.2504 11.1817L11.3143 11.1616ZM11.532 11.8529L11.5718 11.9067L11.6102 11.8783L11.5959 11.8328L11.532 11.8529ZM10.9496 12.2841L10.9097 12.2303L10.7491 12.3493L10.949 12.3511L10.9496 12.2841ZM11.6743 12.2907L11.7377 12.2694L11.7226 12.2242L11.6749 12.2237L11.6743 12.2907ZM11.9044 12.9779L11.8409 12.9991L11.9044 13.1887L11.9679 12.9991L11.9044 12.9779ZM12.1346 12.2907L12.134 12.2237L12.0863 12.2242L12.0711 12.2694L12.1346 12.2907ZM12.8593 12.2841L12.8599 12.3511L13.0597 12.3493L12.8991 12.2303L12.8593 12.2841ZM12.2768 11.8529L12.213 11.8328L12.1986 11.8783L12.237 11.9067L12.2768 11.8529ZM10.5381 10.9095L10.5779 10.9633L10.7385 10.8444L10.5387 10.8426L10.5381 10.9095ZM9.81335 10.903L9.74988 10.9242L9.76503 10.9695L9.81274 10.9699L9.81335 10.903ZM9.95559 11.3407L9.91576 11.287L9.87741 11.3153L9.89175 11.3609L9.95559 11.3407ZM10.1733 12.032L10.1345 12.0865L10.2972 12.2025L10.2372 12.0119L10.1733 12.032ZM9.58319 11.6113L9.62205 11.5568L9.58319 11.5291L9.54434 11.5568L9.58319 11.6113ZM8.99305 12.032L8.92921 12.0119L8.86917 12.2025L9.03191 12.0865L8.99305 12.032ZM9.2108 11.3407L9.27464 11.3609L9.28897 11.3153L9.25062 11.287L9.2108 11.3407ZM8.62833 10.9095L8.62773 10.8426L8.42788 10.8444L8.5885 10.9633L8.62833 10.9095ZM9.35304 10.903L9.35364 10.9699L9.40135 10.9695L9.41651 10.9242L9.35304 10.903ZM9.58319 10.2157L9.64666 10.1945L9.58319 10.005L9.51972 10.1945L9.58319 10.2157ZM8.52099 9.12417L8.45714 9.10406L8.44281 9.14957L8.48116 9.17796L8.52099 9.12417ZM9.10345 9.55542L9.10405 9.62235L9.30391 9.62055L9.14328 9.50163L9.10345 9.55542ZM8.73873 8.43291L8.80257 8.45302L8.86261 8.2624L8.69987 8.37841L8.73873 8.43291ZM8.14859 8.85361L8.10974 8.90811L8.14859 8.93581L8.18744 8.90811L8.14859 8.85361ZM7.55845 8.43291L7.5973 8.37841L7.43456 8.2624L7.49461 8.45302L7.55845 8.43291ZM7.77619 9.12417L7.81602 9.17796L7.85437 9.14957L7.84003 9.10406L7.77619 9.12417ZM7.19373 9.55542L7.1539 9.50163L6.99327 9.62055L7.19312 9.62235L7.19373 9.55542ZM7.91844 9.56195L7.9819 9.54069L7.96675 9.49545L7.91904 9.49502L7.91844 9.56195ZM8.14859 10.2492L8.08512 10.2704L8.14859 10.4599L8.21206 10.2704L8.14859 10.2492ZM8.37874 9.56195L8.37814 9.49502L8.33043 9.49545L8.31527 9.54069L8.37874 9.56195ZM8.73876 7.61674L8.69991 7.67124L8.86265 7.78725L8.8026 7.59663L8.73876 7.61674ZM8.52102 6.92548L8.48119 6.87169L8.44284 6.90008L8.45718 6.94559L8.52102 6.92548ZM8.14862 7.19604L8.18747 7.14154L8.14862 7.11384L8.10977 7.14154L8.14862 7.19604ZM7.55848 7.61674L7.49464 7.59663L7.4346 7.78725L7.59734 7.67124L7.55848 7.61674ZM7.77622 6.92548L7.84007 6.94559L7.8544 6.90008L7.81605 6.87169L7.77622 6.92548ZM7.19376 6.49423L7.19316 6.4273L6.99331 6.4291L7.15393 6.54802L7.19376 6.49423ZM7.91847 6.4877L7.91907 6.55463L7.96678 6.5542L7.98194 6.50896L7.91847 6.4877ZM8.14862 5.80048L8.21209 5.77922L8.14862 5.58971L8.08515 5.77922L8.14862 5.80048ZM8.37878 6.4877L8.31531 6.50896L8.33046 6.5542L8.37817 6.55463L8.37878 6.4877ZM9.10348 6.49423L9.14331 6.54802L9.30394 6.4291L9.10409 6.4273L9.10348 6.49423ZM9.81338 5.14675L9.81278 5.07982L9.76506 5.08024L9.74991 5.12549L9.81338 5.14675ZM9.58322 5.83397L9.51976 5.85522L9.58322 6.04474L9.64669 5.85522L9.58322 5.83397ZM10.5381 5.14022L10.5387 5.20715L10.7385 5.20535L10.5779 5.08643L10.5381 5.14022ZM9.95562 4.70897L9.89178 4.68886L9.87744 4.73437L9.91579 4.76276L9.95562 4.70897ZM10.1734 4.01771L10.2372 4.03782L10.2972 3.8472L10.1345 3.96321L10.1734 4.01771ZM9.58322 4.43841L9.54437 4.49291L9.58322 4.52061L9.62208 4.49291L9.58322 4.43841ZM8.99309 4.01771L9.03194 3.96321L8.8692 3.8472L8.92925 4.03782L8.99309 4.01771ZM9.21083 4.70897L9.25066 4.76276L9.289 4.73437L9.27467 4.68886L9.21083 4.70897ZM8.62836 5.14022L8.58853 5.08643L8.42791 5.20535L8.62776 5.20715L8.62836 5.14022ZM9.35307 5.14675L9.41654 5.12549L9.40139 5.08024L9.35367 5.07981L9.35307 5.14675ZM11.8656 4.41284L11.2754 4.83353L11.3531 4.94254L11.9433 4.52184L11.8656 4.41284ZM12.5334 4.83353L11.9433 4.41284L11.8656 4.52184L12.4557 4.94254L12.5334 4.83353ZM12.213 4.21689L12.4307 4.90814L12.5584 4.86793L12.3407 4.17667L12.213 4.21689ZM12.8195 3.71173L12.237 4.14299L12.3166 4.25057L12.8991 3.81932L12.8195 3.71173ZM12.134 3.82593L12.8587 3.83246L12.8599 3.6986L12.1352 3.69207L12.134 3.82593ZM11.8409 3.09303L12.0711 3.78026L12.198 3.73774L11.9679 3.05052L11.8409 3.09303ZM11.7377 3.78026L11.9679 3.09303L11.8409 3.05052L11.6108 3.73774L11.7377 3.78026ZM10.9502 3.83246L11.6749 3.82593L11.6737 3.69207L10.949 3.6986L10.9502 3.83246ZM11.5718 4.14299L10.9894 3.71173L10.9097 3.81932L11.4922 4.25057L11.5718 4.14299ZM11.3781 4.90814L11.5959 4.21689L11.4682 4.17667L11.2504 4.86793L11.3781 4.90814ZM13.9961 5.07985L13.2714 5.07332L13.2702 5.20718L13.9949 5.21371L13.9961 5.07985ZM14.2891 5.81275L14.059 5.12552L13.932 5.16804L14.1622 5.85526L14.2891 5.81275ZM14.3923 5.12552L14.1622 5.81275L14.2891 5.85526L14.5193 5.16804L14.3923 5.12552ZM15.1799 5.07332L14.4552 5.07985L14.4564 5.21371L15.1811 5.20718L15.1799 5.07332ZM14.5582 4.76279L15.1407 5.19405L15.2203 5.08646L14.6379 4.65521L14.5582 4.76279ZM14.7519 3.99764L14.5342 4.68889L14.6619 4.72911L14.8796 4.03785L14.7519 3.99764ZM14.2645 4.49294L14.8546 4.07225L14.7769 3.96324L14.1868 4.38394L14.2645 4.49294ZM13.5966 4.07225L14.1868 4.49294L14.2645 4.38394L13.6744 3.96324L13.5966 4.07225ZM13.9171 4.68889L13.6993 3.99764L13.5717 4.03785L13.7894 4.72911L13.9171 4.68889ZM13.3106 5.19405L13.8931 4.76279L13.8134 4.65521L13.2309 5.08646L13.3106 5.19405ZM14.6655 6.54804L15.2479 6.97929L15.3276 6.8717L14.7451 6.44045L14.6655 6.54804ZM15.4294 6.42079L14.7047 6.42731L14.7059 6.56117L15.4306 6.55465L15.4294 6.42079ZM15.5967 5.77924L15.3665 6.46646L15.4935 6.50897L15.7236 5.82175L15.5967 5.77924ZM15.9538 6.46646L15.7236 5.77924L15.5967 5.82175L15.8268 6.50897L15.9538 6.46646ZM16.6156 6.42731L15.8909 6.42079L15.8897 6.55465L16.6144 6.56117L16.6156 6.42731ZM16.0724 6.97929L16.6549 6.54804L16.5752 6.44045L15.9927 6.8717L16.0724 6.97929ZM16.3141 7.59664L16.0964 6.90539L15.9687 6.9456L16.1865 7.63686L16.3141 7.59664ZM15.6213 7.25056L16.2114 7.67125L16.2892 7.56225L15.699 7.14155L15.6213 7.25056ZM15.1089 7.67125L15.699 7.25056L15.6213 7.14155L15.0312 7.56225L15.1089 7.67125ZM15.2239 6.90538L15.0062 7.59664L15.1339 7.63686L15.3516 6.9456L15.2239 6.90538ZM15.3517 9.10407L15.1339 8.41282L15.0062 8.45304L15.224 9.14429L15.3517 9.10407ZM14.7452 9.60923L15.3276 9.17798L15.248 9.07039L14.6655 9.50164L14.7452 9.60923ZM15.4307 9.49503L14.706 9.48851L14.7047 9.62237L15.4295 9.62889L15.4307 9.49503ZM15.7237 10.2279L15.4935 9.54071L15.3666 9.58322L15.5967 10.2704L15.7237 10.2279ZM15.8269 9.54071L15.5967 10.2279L15.7237 10.2704L15.9538 9.58322L15.8269 9.54071ZM16.6145 9.48851L15.8898 9.49503L15.891 9.62889L16.6157 9.62237L16.6145 9.48851ZM15.9928 9.17798L16.5752 9.60923L16.6549 9.50164L16.0724 9.07039L15.9928 9.17798ZM16.1865 8.41282L15.9688 9.10407L16.0964 9.14429L16.3142 8.45304L16.1865 8.41282ZM15.6991 8.90812L16.2892 8.48743L16.2115 8.37842L15.6214 8.79912L15.6991 8.90812ZM15.0312 8.48743L15.6214 8.90812L15.6991 8.79912L15.1089 8.37842L15.0312 8.48743ZM14.1621 10.1944L13.932 10.8817L14.0589 10.9242L14.2891 10.237L14.1621 10.1944ZM14.5192 10.8817L14.2891 10.1944L14.1621 10.237L14.3923 10.9242L14.5192 10.8817ZM15.1811 10.8425L14.4564 10.836L14.4552 10.9699L15.1799 10.9764L15.1811 10.8425ZM14.6378 11.3945L15.2203 10.9632L15.1406 10.8557L14.5582 11.2869L14.6378 11.3945ZM14.8796 12.0118L14.6618 11.3206L14.5342 11.3608L14.7519 12.0521L14.8796 12.0118ZM14.1868 11.6658L14.7769 12.0865L14.8546 11.9775L14.2645 11.5568L14.1868 11.6658ZM13.6743 12.0865L14.2645 11.6658L14.1868 11.5568L13.5966 11.9775L13.6743 12.0865ZM13.7894 11.3206L13.5716 12.0118L13.6993 12.0521L13.9171 11.3608L13.7894 11.3206ZM13.2309 10.9632L13.8134 11.3945L13.893 11.2869L13.3106 10.8557L13.2309 10.9632ZM13.9949 10.836L13.2701 10.8425L13.2713 10.9764L13.9961 10.9698L13.9949 10.836ZM11.9433 11.6368L12.5334 11.2161L12.4557 11.1071L11.8656 11.5278L11.9433 11.6368ZM11.2754 11.2161L11.8656 11.6368L11.9433 11.5278L11.3531 11.1071L11.2754 11.2161ZM11.5959 11.8328L11.3781 11.1415L11.2504 11.1817L11.4682 11.873L11.5959 11.8328ZM10.9894 12.3379L11.5718 11.9067L11.4922 11.7991L10.9097 12.2303L10.9894 12.3379ZM11.6749 12.2237L10.9502 12.2172L10.949 12.3511L11.6737 12.3576L11.6749 12.2237ZM11.9679 12.9566L11.7377 12.2694L11.6108 12.3119L11.8409 12.9991L11.9679 12.9566ZM12.0711 12.2694L11.8409 12.9566L11.9679 12.9991L12.198 12.3119L12.0711 12.2694ZM12.8587 12.2172L12.134 12.2237L12.1352 12.3576L12.8599 12.3511L12.8587 12.2172ZM12.237 11.9067L12.8195 12.3379L12.8991 12.2303L12.3166 11.7991L12.237 11.9067ZM12.4307 11.1415L12.213 11.8328L12.3407 11.873L12.5584 11.1817L12.4307 11.1415ZM10.5387 10.8426L9.81395 10.836L9.81274 10.9699L10.5375 10.9764L10.5387 10.8426ZM9.99542 11.3945L10.5779 10.9633L10.4982 10.8557L9.91576 11.287L9.99542 11.3945ZM10.2372 12.0119L10.0194 11.3206L9.89175 11.3609L10.1095 12.0521L10.2372 12.0119ZM9.54434 11.6658L10.1345 12.0865L10.2122 11.9775L9.62205 11.5568L9.54434 11.6658ZM9.03191 12.0865L9.62205 11.6658L9.54434 11.5568L8.9542 11.9775L9.03191 12.0865ZM9.14695 11.3206L8.92921 12.0119L9.0569 12.0521L9.27464 11.3609L9.14695 11.3206ZM8.5885 10.9633L9.17097 11.3945L9.25062 11.287L8.66816 10.8557L8.5885 10.9633ZM9.35244 10.836L8.62773 10.8426L8.62893 10.9764L9.35364 10.9699L9.35244 10.836ZM9.51972 10.1945L9.28957 10.8817L9.41651 10.9242L9.64666 10.237L9.51972 10.1945ZM9.87681 10.8817L9.64666 10.1945L9.51972 10.237L9.74988 10.9242L9.87681 10.8817ZM8.48116 9.17796L9.06362 9.60922L9.14328 9.50163L8.56081 9.07038L8.48116 9.17796ZM8.67489 8.4128L8.45714 9.10406L8.58483 9.14428L8.80257 8.45302L8.67489 8.4128ZM8.18744 8.90811L8.77758 8.48742L8.69987 8.37841L8.10974 8.79911L8.18744 8.90811ZM7.5196 8.48742L8.10974 8.90811L8.18744 8.79911L7.5973 8.37841L7.5196 8.48742ZM7.84003 9.10406L7.62229 8.4128L7.49461 8.45302L7.71235 9.14428L7.84003 9.10406ZM7.23355 9.60922L7.81602 9.17796L7.73636 9.07038L7.1539 9.50163L7.23355 9.60922ZM7.91904 9.49502L7.19433 9.48849L7.19312 9.62235L7.91783 9.62888L7.91904 9.49502ZM8.21206 10.2279L7.9819 9.54069L7.85497 9.5832L8.08512 10.2704L8.21206 10.2279ZM8.31527 9.54069L8.08512 10.2279L8.21206 10.2704L8.44221 9.5832L8.31527 9.54069ZM9.10285 9.48849L8.37814 9.49502L8.37935 9.62888L9.10405 9.62235L9.10285 9.48849ZM8.8026 7.59663L8.58486 6.90537L8.45718 6.94559L8.67492 7.63685L8.8026 7.59663ZM8.10977 7.25055L8.69991 7.67124L8.77761 7.56224L8.18747 7.14154L8.10977 7.25055ZM7.59734 7.67124L8.18747 7.25055L8.10977 7.14154L7.51963 7.56224L7.59734 7.67124ZM7.71238 6.90537L7.49464 7.59663L7.62232 7.63685L7.84007 6.94559L7.71238 6.90537ZM7.15393 6.54802L7.7364 6.97928L7.81605 6.87169L7.23359 6.44043L7.15393 6.54802ZM7.91787 6.42077L7.19316 6.4273L7.19436 6.56116L7.91907 6.55463L7.91787 6.42077ZM8.08515 5.77922L7.855 6.46645L7.98194 6.50896L8.21209 5.82174L8.08515 5.77922ZM8.44224 6.46645L8.21209 5.77922L8.08515 5.82174L8.31531 6.50896L8.44224 6.46645ZM9.10409 6.4273L8.37938 6.42077L8.37817 6.55463L9.10288 6.56116L9.10409 6.4273ZM8.56085 6.97928L9.14331 6.54802L9.06366 6.44043L8.48119 6.87169L8.56085 6.97928ZM9.74991 5.12549L9.51976 5.81271L9.64669 5.85522L9.87685 5.168L9.74991 5.12549ZM10.5375 5.07329L9.81278 5.07982L9.81398 5.21368L10.5387 5.20715L10.5375 5.07329ZM9.91579 4.76276L10.4983 5.19401L10.5779 5.08643L9.99545 4.65517L9.91579 4.76276ZM10.1095 3.9976L9.89178 4.68886L10.0195 4.72908L10.2372 4.03782L10.1095 3.9976ZM9.62208 4.49291L10.2122 4.07221L10.1345 3.96321L9.54437 4.3839L9.62208 4.49291ZM8.95423 4.07221L9.54437 4.49291L9.62208 4.3839L9.03194 3.96321L8.95423 4.07221ZM9.27467 4.68886L9.05693 3.9976L8.92925 4.03782L9.14699 4.72908L9.27467 4.68886ZM8.66819 5.19401L9.25066 4.76276L9.171 4.65517L8.58853 5.08643L8.66819 5.19401ZM9.35367 5.07981L8.62896 5.07329L8.62776 5.20715L9.35247 5.21368L9.35367 5.07981ZM9.64669 5.81271L9.41654 5.12549L9.2896 5.168L9.51976 5.85522L9.64669 5.81271Z" fill="#FECA00" mask="url(#path-12-inside-1_58_4662)"/>
</g>
</g>
<defs>
<clipPath id="clip0_58_4662">
<rect width="21.4187" height="16.064" fill="white" transform="translate(0.837402 0.0249023)"/>
</clipPath>
</defs>
</svg>
