<svg width="23" height="17" viewBox="0 0 23 17" fill="none" xmlns="http://www.w3.org/2000/svg">
<g clip-path="url(#clip0_58_4571)">
<rect width="21.4187" height="16.064" transform="translate(0.674805 0.0249023)" fill="white"/>
<path fill-rule="evenodd" clip-rule="evenodd" d="M0.965454 -0.00708008V16.057H22.3842V-0.00708008H0.965454Z" fill="#C51918"/>
<mask id="mask0_58_4571" style="mask-type:luminance" maskUnits="userSpaceOnUse" x="0" y="-1" width="23" height="18">
<path fill-rule="evenodd" clip-rule="evenodd" d="M0.965454 -0.00708008V16.057H22.3842V-0.00708008H0.965454Z" fill="white"/>
</mask>
<g mask="url(#mask0_58_4571)">
<rect x="0.965454" y="-0.00708008" width="9.37069" height="6.69335" fill="#4257BF"/>
<rect x="13.0134" y="9.36365" width="9.37069" height="6.69335" fill="#4257BF"/>
<path fill-rule="evenodd" clip-rule="evenodd" d="M9.66681 -0.00708008H13.6828V6.01694H22.3842V10.0329H13.6828V16.057H9.66681V10.0329H0.965454V6.01694H9.66681V-0.00708008Z" fill="#F7FCFF"/>
<path fill-rule="evenodd" clip-rule="evenodd" d="M10.2462 7.03753C10.2209 6.92031 10.1924 6.77551 10.1924 6.77551C10.129 6.92981 10.109 7.07018 10.1345 7.19571C10.1076 7.23526 10.0831 7.27232 10.0613 7.30689C9.99311 7.21084 9.908 7.03109 9.908 7.03109C9.91095 7.0834 9.90961 7.13677 9.9083 7.1886C9.90524 7.31041 9.90238 7.42368 9.95604 7.49459L9.95541 7.49597C9.94471 7.51947 9.93458 7.54292 9.92501 7.56632C9.85113 7.48775 9.72846 7.34598 9.72846 7.34598C9.73805 7.51593 9.78215 7.64985 9.86229 7.7454C9.84779 7.7952 9.83583 7.84474 9.82635 7.89397C9.76438 7.8256 9.7046 7.75803 9.7046 7.75803C9.71336 7.91312 9.73769 8.01556 9.80089 8.10164C9.79962 8.1261 9.79897 8.15047 9.79893 8.17474C9.73346 8.1027 9.66685 8.02741 9.66685 8.02741C9.67609 8.19108 9.73594 8.29876 9.81475 8.3884C9.82257 8.44021 9.83325 8.49147 9.84673 8.54212L9.85429 8.57015C9.76327 8.52252 9.66321 8.46819 9.66321 8.46819C9.72389 8.60957 9.80961 8.68936 9.90649 8.74599C9.9276 8.8116 9.94989 8.87496 9.97329 8.93591C9.86622 8.9031 9.70553 8.84932 9.70553 8.84932C9.80214 8.99678 9.91706 9.0589 10.0398 9.09624C10.065 9.15245 10.0912 9.20611 10.1183 9.25703C10.0165 9.22491 9.89591 9.18456 9.89591 9.18456C9.9897 9.32773 10.1008 9.39045 10.2195 9.42815C10.298 9.54725 10.3821 9.64493 10.4699 9.71777C10.3689 9.75983 10.2396 9.81076 10.2396 9.81076C10.383 9.85395 10.4969 9.84151 10.6002 9.80597L10.6074 9.8097C10.6498 9.83136 10.6972 9.8518 10.7506 9.87172C10.6674 9.90561 10.5875 9.93708 10.5875 9.93708C10.7281 9.97944 10.8404 9.96828 10.9422 9.9343L10.9472 9.93577C10.9951 9.94967 11.0438 9.96298 11.1079 9.97993C11.0655 9.96872 11.222 10.0099 11.2538 10.0185C11.3556 10.0462 11.4136 10.0656 11.4414 10.0823L11.4471 10.086C11.4484 10.0868 11.4488 10.0871 11.4486 10.0867L11.5265 10.0264C11.5174 10.0131 11.5049 10.0026 11.4887 9.99284C11.4505 9.96989 11.3885 9.94915 11.2776 9.91904C11.246 9.91047 11.0944 9.87057 11.1287 9.87965C11.0664 9.86317 11.019 9.85019 10.9725 9.8367L10.9365 9.82605C10.945 9.71879 10.9288 9.60689 10.8535 9.48038C10.8535 9.48038 10.8276 9.67686 10.8098 9.78476C10.7481 9.7628 10.6949 9.74055 10.649 9.7171C10.6357 9.71029 10.6224 9.7028 10.6091 9.69464C10.5999 9.58484 10.5652 9.47485 10.4666 9.36052C10.4666 9.36052 10.4719 9.4825 10.4748 9.58786C10.4093 9.52384 10.3458 9.44375 10.2854 9.34942L10.3423 9.38094C10.3426 9.24637 10.3176 9.11293 10.197 8.97299C10.197 8.97299 10.2027 9.10484 10.2055 9.21278C10.17 9.14652 10.1359 9.07511 10.1036 8.99898C10.1336 8.89135 10.1395 8.77483 10.0852 8.63162C10.0852 8.63162 10.0579 8.71819 10.029 8.80614C10.0205 8.78203 10.0122 8.75757 10.0041 8.73274C10.0669 8.62027 10.1068 8.49546 10.0738 8.32159C10.0738 8.32159 10.0036 8.45636 9.95012 8.55386L9.93933 8.51408C9.92777 8.47064 9.91843 8.42671 9.91137 8.38231C10.0014 8.30062 10.0744 8.19906 10.1012 8.0342C10.1012 8.0342 9.98019 8.14508 9.89585 8.21868C9.89466 8.18135 9.89506 8.14374 9.89707 8.10585C9.99423 8.04191 10.0783 7.95544 10.1309 7.8047C10.1309 7.8047 10.0102 7.88162 9.91616 7.93889C9.92257 7.90227 9.93047 7.86543 9.93988 7.82838C10.0556 7.76155 10.1577 7.6732 10.2181 7.49993C10.2181 7.49993 10.0965 7.57743 10.0023 7.63477C10.0144 7.60358 10.0277 7.57227 10.042 7.54083C10.0589 7.50372 10.0829 7.45937 10.1141 7.40785C10.2175 7.37048 10.3145 7.30848 10.3992 7.18397C10.3992 7.18397 10.3132 7.21108 10.2249 7.23776C10.2745 7.16578 10.3326 7.08519 10.3993 6.9961L10.3241 6.93201C10.2967 6.96857 10.2708 7.00373 10.2462 7.03753Z" fill="#5AB92D"/>
<path fill-rule="evenodd" clip-rule="evenodd" d="M12.955 7.03749C12.9803 6.92028 13.0088 6.77551 13.0088 6.77551C13.0722 6.92979 13.0921 7.07015 13.0667 7.19566C13.0936 7.23523 13.118 7.27229 13.1399 7.30686C13.2081 7.21081 13.2932 7.03109 13.2932 7.03109C13.2902 7.0834 13.2916 7.13677 13.2929 7.1886C13.2959 7.31039 13.2988 7.42364 13.2452 7.49455L13.2458 7.49597C13.2565 7.51946 13.2666 7.5429 13.2762 7.56629C13.3501 7.48771 13.4727 7.34598 13.4727 7.34598C13.4631 7.51591 13.419 7.64982 13.3389 7.74536C13.3534 7.79517 13.3654 7.84471 13.3749 7.89394C13.4368 7.82558 13.4966 7.75803 13.4966 7.75803C13.4878 7.91309 13.4635 8.01552 13.4003 8.10159C13.4016 8.12605 13.4022 8.15043 13.4023 8.1747C13.4677 8.10267 13.5343 8.02741 13.5343 8.02741C13.5251 8.19104 13.4653 8.29871 13.3865 8.38835C13.3786 8.44018 13.368 8.49145 13.3545 8.54212L13.3469 8.57013C13.4379 8.52251 13.538 8.46819 13.538 8.46819C13.4773 8.60955 13.3916 8.68933 13.2947 8.74596C13.2736 8.81157 13.2513 8.87494 13.2279 8.9359C13.335 8.90308 13.4956 8.84932 13.4956 8.84932C13.399 8.99676 13.2841 9.05889 13.1614 9.09623C13.1362 9.15244 13.11 9.20609 13.0829 9.25702C13.1847 9.2249 13.3053 9.18456 13.3053 9.18456C13.2115 9.32771 13.1004 9.39043 12.9817 9.42814C12.9032 9.54725 12.8191 9.64494 12.7313 9.71778C12.8323 9.75984 12.9616 9.81076 12.9616 9.81076C12.8182 9.85395 12.7043 9.84151 12.601 9.80598L12.5938 9.8097C12.5514 9.83136 12.504 9.8518 12.4506 9.87173C12.5338 9.90562 12.6136 9.93708 12.6136 9.93708C12.4731 9.97944 12.3608 9.96828 12.259 9.9343L12.254 9.93577C12.2061 9.94967 12.1575 9.96298 12.0933 9.97993C12.1357 9.96872 11.9792 10.0099 11.9474 10.0185C11.8456 10.0462 11.7876 10.0656 11.7598 10.0823L11.7541 10.086C11.7529 10.0868 11.7524 10.0871 11.7526 10.0867L11.6747 10.0264C11.6838 10.0131 11.6963 10.0026 11.7125 9.99284C11.7507 9.96989 11.8127 9.94915 11.9236 9.91904C11.9552 9.91047 12.1068 9.87057 12.0725 9.87965C12.1348 9.86317 12.1823 9.85019 12.2287 9.8367L12.2647 9.82606C12.2562 9.7188 12.2724 9.6069 12.3477 9.48038C12.3477 9.48038 12.3736 9.67688 12.3914 9.78477C12.4531 9.76281 12.5063 9.74056 12.5522 9.7171C12.5655 9.7103 12.5788 9.70282 12.592 9.69467C12.6013 9.58486 12.636 9.47486 12.7346 9.36052C12.7346 9.36052 12.7292 9.48253 12.7264 9.5879C12.7919 9.52387 12.8555 9.44375 12.9158 9.34939L12.8589 9.38094C12.8585 9.24637 12.8835 9.11293 13.0042 8.97299C13.0042 8.97299 12.9984 9.1049 12.9957 9.21286C13.0312 9.1466 13.0653 9.07518 13.0976 8.99904C13.0676 8.89139 13.0616 8.77485 13.116 8.63162C13.116 8.63162 13.1433 8.71823 13.1722 8.80619C13.1807 8.78209 13.189 8.75761 13.1971 8.73279C13.1343 8.6203 13.0943 8.49548 13.1274 8.32159C13.1274 8.32159 13.1976 8.45641 13.2511 8.55391L13.2619 8.51408C13.2734 8.47065 13.2828 8.42673 13.2898 8.38235C13.1998 8.30065 13.1268 8.19908 13.1 8.0342C13.1 8.0342 13.221 8.14511 13.3054 8.21871C13.3066 8.18138 13.3062 8.14376 13.3041 8.10588C13.207 8.04193 13.1228 7.95546 13.0703 7.8047C13.0703 7.8047 13.191 7.88164 13.2851 7.93892C13.2786 7.9023 13.2707 7.86546 13.2613 7.82841C13.1456 7.76157 13.0435 7.67323 12.9831 7.49993C12.9831 7.49993 13.1048 7.57746 13.1989 7.6348C13.1868 7.6036 13.1735 7.57228 13.1592 7.54083C13.1423 7.50372 13.1183 7.45938 13.0871 7.40787C12.9837 7.3705 12.8867 7.3085 12.802 7.18397C12.802 7.18397 12.888 7.21109 12.9763 7.23778C12.9268 7.16579 12.8686 7.08519 12.8019 6.9961L12.8771 6.93201C12.9045 6.96855 12.9304 7.00371 12.955 7.03749Z" fill="#5AB92D"/>
<path d="M9.83515 6.2283C10.1027 6.0402 10.5931 5.87782 10.8454 5.87782C10.8467 5.87782 10.8494 5.87721 10.8565 5.87428C10.8774 5.86561 11.0156 5.78001 11.0243 5.77506C11.2026 5.67298 11.3892 5.61926 11.6433 5.61926V6.06549C11.4609 6.06549 11.3416 6.09982 11.2221 6.16825C11.2429 6.15634 11.0645 6.26682 11.0077 6.29031C10.9548 6.3122 10.9017 6.32404 10.8454 6.32404C10.6764 6.32404 10.2657 6.46003 10.0654 6.60086C9.99339 6.65148 10 6.63603 10.0023 6.6662C10.0103 6.77593 10.002 6.84301 9.93454 6.92867C9.92575 6.93982 9.9118 7.0012 9.91061 7.10882L9.49231 7.10355C9.49425 6.92785 9.52091 6.78922 9.58419 6.68502C9.575 6.50485 9.63832 6.36669 9.83515 6.2283Z" fill="#003994"/>
<path d="M10.0589 6.39537L10.0127 6.32094C10.2274 6.16939 10.4277 6.09293 10.6135 6.09293C10.675 6.09293 10.7452 6.07655 10.8268 6.04503C10.8815 6.0239 10.9376 5.9978 11.0128 5.95956C11.2853 5.82103 11.293 5.8175 11.365 5.8175H11.6117V5.90675H11.365C11.313 5.90675 11.2961 5.91439 11.0488 6.04012C10.9713 6.0795 10.9131 6.10663 10.8553 6.12894C10.7653 6.1637 10.6862 6.18217 10.6135 6.18217C10.4458 6.18217 10.2609 6.25278 10.0589 6.39537Z" fill="#EBCA5E"/>
<path d="M13.3471 6.2283C13.0796 6.0402 12.5892 5.87782 12.3369 5.87782C12.3356 5.87782 12.3329 5.87721 12.3258 5.87428C12.3048 5.86561 12.1666 5.78001 12.158 5.77506C11.9796 5.67298 11.7931 5.61926 11.5389 5.61926V6.06549C11.7214 6.06549 11.8406 6.09982 11.9602 6.16825C11.9394 6.15634 12.1177 6.26682 12.1745 6.29031C12.2274 6.3122 12.2806 6.32404 12.3369 6.32404C12.5059 6.32404 12.9166 6.46003 13.1169 6.60086C13.1889 6.65148 13.1822 6.63603 13.18 6.6662C13.1719 6.77593 13.1802 6.84301 13.2477 6.92867C13.2565 6.93982 13.2704 7.0012 13.2716 7.10882L13.6899 7.10355C13.688 6.92785 13.6613 6.78922 13.5981 6.68502C13.6073 6.50485 13.5439 6.36669 13.3471 6.2283Z" fill="#003994"/>
<path d="M13.0899 6.39537L13.1361 6.32094C12.9214 6.16939 12.7211 6.09293 12.5353 6.09293C12.4738 6.09293 12.4036 6.07655 12.322 6.04503C12.2673 6.0239 12.2113 5.9978 12.136 5.95956C11.8635 5.82103 11.8558 5.8175 11.7838 5.8175H11.5371V5.90675H11.7838C11.8358 5.90675 11.8527 5.91439 12.1 6.04012C12.1775 6.0795 12.2357 6.10663 12.2935 6.12894C12.3835 6.1637 12.4627 6.18217 12.5353 6.18217C12.703 6.18217 12.8879 6.25278 13.0899 6.39537Z" fill="#EBCA5E"/>
<path d="M10.217 6.69922L10.4354 6.93657V7.92235H10.6557V7.98509L10.9783 8.14018C10.9783 8.14018 11.027 7.48805 10.8753 7.31621C10.7236 7.14437 10.9783 7.10212 10.9783 7.10212L11.3655 7.4898V6.69922H10.217Z" fill="#003994"/>
<path d="M12.838 6.69922L12.6197 6.93657V7.92235H12.3993V7.98509L12.0768 8.14018C12.0768 8.14018 12.0281 7.48805 12.1797 7.31621C12.3314 7.14437 12.0768 7.10212 12.0768 7.10212L11.6896 7.4898V6.69922H12.838Z" fill="#D62818"/>
<path d="M10.9231 7.08569L10.8902 7.12616L11.534 7.72121L11.5686 7.71946L12.101 7.12441L12.0646 7.08744L11.5488 7.66403L10.9231 7.08569Z" fill="#FFC300"/>
<path d="M10.8318 7.33545L10.7898 7.37592L11.6115 7.97096L11.6557 7.96921L12.3352 7.37417L12.2888 7.3372L11.6304 7.91378L10.8318 7.33545Z" fill="#FFC300"/>
<path d="M10.4543 8.30737H10.7369L10.9297 8.36625C10.9297 8.36625 10.9917 8.80871 11.3015 8.80871L11.3523 9.37514L11.1122 9.24547C11.1122 9.24547 10.9561 9.31438 10.9297 9.31438C10.9033 9.31438 10.6808 9.43917 10.6808 9.31438C10.6808 9.1896 10.4543 8.98766 10.4543 8.98766V8.30737Z" fill="#D62818"/>
<path d="M12.691 8.30737H12.4085L12.2157 8.36625C12.2157 8.36625 12.1536 8.80871 11.8439 8.80871L11.7931 9.37514L12.0332 9.24547C12.0332 9.24547 12.1892 9.31438 12.2157 9.31438C12.2421 9.31438 12.4646 9.43917 12.4646 9.31438C12.4646 9.1896 12.691 8.98766 12.691 8.98766V8.30737Z" fill="#003994"/>
<path d="M12.0856 8.36096L12.4203 8.3611C12.4202 8.61143 12.3319 8.81431 12.1578 8.95158L11.9589 8.66454C12.0442 8.59727 12.0856 8.50213 12.0856 8.36096Z" fill="#D62818"/>
<path d="M11.209 7.67249V8.14189H11.5981C11.5981 8.14189 11.5615 8.49388 11.5615 8.71591C11.5615 8.93795 11.5981 9.2261 11.5981 9.2261C11.5981 9.2261 11.6933 9.17856 11.6933 8.87827C11.6933 8.57798 11.6933 8.10935 11.6933 8.10935L12.0007 8.14189L11.9683 7.71856H11.8386C11.8386 7.71856 12.038 7.98238 11.8386 7.98238C11.6393 7.98238 11.4102 8.03389 11.3667 8.03389C11.3232 8.03389 11.209 7.67249 11.209 7.67249Z" fill="#D62818"/>
<path d="M11.5473 8.23975C11.5473 8.23975 11.3287 8.36849 11.3287 8.57795C11.3287 8.78741 11.438 9.02624 11.438 9.02624C11.438 9.02624 11.3862 8.55452 11.4668 8.42906C11.5473 8.3036 11.5473 8.23975 11.5473 8.23975Z" fill="#003994"/>
<path d="M11.1916 8.39478C11.1916 8.39478 11.1792 8.54635 11.269 8.54635C11.3588 8.54635 11.1916 8.39478 11.1916 8.39478Z" fill="#003994"/>
<path d="M11.9611 7.98744L11.9955 8.10688L11.4235 8.29417L11.2953 7.76154L11.4087 7.73047L11.5064 8.13631L11.9611 7.98744Z" fill="#373737"/>
<path fill-rule="evenodd" clip-rule="evenodd" d="M10.3602 10.3064L10.31 10.349C10.2932 10.3265 10.2789 10.3039 10.2669 10.2813C10.2165 10.2639 10.169 10.2407 10.1298 10.2132C10.0754 10.1749 10.0194 10.1749 9.94842 10.2168L9.86747 10.0605C9.99082 9.98783 10.1134 9.98783 10.2219 10.0641C10.2232 10.0651 10.2245 10.066 10.2259 10.0669C10.241 9.9787 10.2987 9.90027 10.3982 9.84362C10.5688 9.74647 11.3152 9.64417 11.542 9.64417V9.92975C11.358 9.92975 10.6435 10.0277 10.5243 10.0956C10.5208 10.0976 10.5175 10.0994 10.5146 10.101C10.4988 10.1098 10.4904 10.1145 10.4888 10.1209C10.4875 10.1263 10.4911 10.1329 10.4993 10.1443C10.5058 10.1437 10.5101 10.1425 10.5119 10.1407L10.6306 10.2664C10.5814 10.3193 10.4722 10.3281 10.3602 10.3064ZM9.56067 10.3114C9.56067 10.3114 9.80808 10.5288 9.98668 10.4761C10.1653 10.4234 10.2206 10.3641 10.2206 10.3641C10.2206 10.3641 10.0423 10.3403 9.85302 10.3114C9.66373 10.2826 9.56067 10.3114 9.56067 10.3114Z" fill="#D62818"/>
<path fill-rule="evenodd" clip-rule="evenodd" d="M10.5586 9.95214L10.5586 9.95216C10.8864 9.88233 11.2777 9.83455 11.595 9.83455V9.83456C11.2766 9.83456 10.8823 9.88295 10.5586 9.95214ZM11.0324 9.81906C11.227 9.79505 11.4217 9.78101 11.595 9.78101V9.83455C11.595 9.83455 11.595 9.83455 11.595 9.83455V9.78101C11.4217 9.78101 11.2266 9.79513 11.0324 9.81906ZM11.0324 9.81906C10.8666 9.83952 10.701 9.86722 10.5488 9.89965L10.5586 9.95214C10.5435 9.95537 10.5286 9.95864 10.5138 9.96195C10.3445 9.99993 10.3216 10.0395 10.4099 10.1101L10.3798 10.153C10.2465 10.0463 10.2994 9.95535 10.5035 9.90955C10.6661 9.87306 10.8489 9.84168 11.0324 9.81906Z" fill="#EBCA5E"/>
<path fill-rule="evenodd" clip-rule="evenodd" d="M12.6547 10.3064L12.7049 10.349C12.7217 10.3265 12.736 10.3039 12.748 10.2813C12.7984 10.2639 12.8459 10.2407 12.8851 10.2132C12.9395 10.1749 12.9955 10.1749 13.0665 10.2168L13.1474 10.0605C13.0241 9.98783 12.9015 9.98783 12.793 10.0641C12.7917 10.0651 12.7904 10.066 12.789 10.0669C12.7739 9.9787 12.7162 9.90027 12.6167 9.84362C12.4461 9.74647 11.6997 9.64417 11.4729 9.64417V9.92975C11.6569 9.92975 12.3714 10.0277 12.4906 10.0956C12.4941 10.0976 12.4974 10.0994 12.5003 10.101C12.5161 10.1098 12.5245 10.1145 12.5261 10.1209C12.5274 10.1263 12.5238 10.1329 12.5156 10.1443C12.5091 10.1437 12.5048 10.1425 12.503 10.1407L12.3843 10.2664C12.4335 10.3193 12.5427 10.3281 12.6547 10.3064ZM13.4542 10.3114C13.4542 10.3114 13.2068 10.5288 13.0282 10.4761C12.8496 10.4234 12.7943 10.3641 12.7943 10.3641C12.7943 10.3641 12.9726 10.3403 13.1619 10.3114C13.3512 10.2826 13.4542 10.3114 13.4542 10.3114Z" fill="#D62818"/>
<path fill-rule="evenodd" clip-rule="evenodd" d="M12.4562 9.95213L12.4562 9.95216C12.2958 9.91798 12.1201 9.88908 11.9454 9.86849C11.7635 9.84708 11.5819 9.83456 11.4199 9.83456V9.83455C11.4199 9.83455 11.4199 9.83455 11.4198 9.83455V9.78101C11.5837 9.78101 11.7667 9.79356 11.9506 9.81523C12.1448 9.83807 12.3394 9.87095 12.5114 9.90955C12.7155 9.95535 12.7684 10.0463 12.6351 10.153L12.605 10.1101C12.6933 10.0395 12.6704 9.99993 12.5011 9.96195C12.4863 9.95864 12.4714 9.95536 12.4562 9.95213ZM12.4562 9.95213C12.2972 9.91814 12.1211 9.88917 11.9454 9.86849C11.7632 9.84701 11.5819 9.83456 11.4199 9.83455V9.78101C11.5837 9.78101 11.767 9.79363 11.9506 9.81523C12.127 9.836 12.3042 9.86515 12.4661 9.89965L12.4562 9.95213Z" fill="#EBCA5E"/>
<path d="M11.2502 10.3747L11.1201 10.1457C11.2386 10.0691 11.3907 10.0326 11.5754 10.0326C11.7609 10.0326 11.9113 10.0694 12.0255 10.1474L11.8903 10.373C11.8214 10.326 11.7168 10.3003 11.5754 10.3003C11.4331 10.3003 11.3251 10.3263 11.2502 10.3747Z" fill="#D62818"/>
</g>
</g>
<defs>
<clipPath id="clip0_58_4571">
<rect width="21.4187" height="16.064" fill="white" transform="translate(0.674805 0.0249023)"/>
</clipPath>
</defs>
</svg>
