<svg width="22" height="17" viewBox="0 0 22 17" fill="none" xmlns="http://www.w3.org/2000/svg">
<g clip-path="url(#clip0_58_4561)">
<rect width="21.4187" height="16.064" transform="translate(0.512329 0.0249023)" fill="white"/>
<path fill-rule="evenodd" clip-rule="evenodd" d="M11.5123 -0.00708008H22.2217V16.057H11.5123V-0.00708008Z" fill="#F7FCFF"/>
<path fill-rule="evenodd" clip-rule="evenodd" d="M0.802979 -0.00708008H11.5123V16.057H0.802979V-0.00708008Z" fill="#36A400"/>
<path fill-rule="evenodd" clip-rule="evenodd" d="M12.4205 4.57282C13.4393 4.57282 14.3703 4.94897 15.082 5.56998C14.1806 4.43174 12.7864 3.70154 11.2217 3.70154C8.50362 3.70154 6.30017 5.90499 6.30017 8.62308C6.30017 11.3412 8.50362 13.5446 11.2217 13.5446C12.7865 13.5446 14.1808 12.8143 15.0822 11.6759C14.3704 12.297 13.4394 12.6733 12.4205 12.6733C10.1837 12.6733 8.37032 10.8599 8.37032 8.62303C8.37032 6.38616 10.1837 4.57282 12.4205 4.57282ZM14.308 6.41267L13.1685 7.70409L11.5318 7.25314L12.4392 8.67236L11.5318 10.1831L13.2486 9.5651L14.1872 11.0301V9.32977L15.7208 8.67236L14.1872 8.12299L14.308 6.41267Z" fill="#FF0000"/>
</g>
<defs>
<clipPath id="clip0_58_4561">
<rect width="21.4187" height="16.064" fill="white" transform="translate(0.512329 0.0249023)"/>
</clipPath>
</defs>
</svg>
