<svg width="22" height="17" viewBox="0 0 22 17" fill="none" xmlns="http://www.w3.org/2000/svg">
<g clip-path="url(#clip0_58_4505)">
<rect width="21.4187" height="16.064" transform="translate(0.349609 0.0249023)" fill="white"/>
<path fill-rule="evenodd" clip-rule="evenodd" d="M0.640259 -0.00708008V16.057H22.059V-0.00708008H0.640259Z" fill="#2E42A5"/>
<mask id="mask0_58_4505" style="mask-type:luminance" maskUnits="userSpaceOnUse" x="0" y="-1" width="23" height="18">
<path fill-rule="evenodd" clip-rule="evenodd" d="M0.640259 -0.00708008V16.057H22.059V-0.00708008H0.640259Z" fill="white"/>
</mask>
<g mask="url(#mask0_58_4505)">
<path fill-rule="evenodd" clip-rule="evenodd" d="M0.640259 -0.00708008V8.02494H22.059V-0.00708008H0.640259Z" fill="#FECA00"/>
<path fill-rule="evenodd" clip-rule="evenodd" d="M0.640259 12.0409V16.0569H22.059V12.0409H0.640259Z" fill="#E31D1C"/>
<path fill-rule="evenodd" clip-rule="evenodd" d="M7.14417 3.81776C7.14417 3.81776 9.92608 2.561 10.1789 2.70377C10.4318 2.84655 10.4928 3.25348 10.7111 3.25348C10.9294 3.25348 11.3688 3.1249 11.5523 3.1249C11.7358 3.1249 11.9172 3.25348 11.9172 3.25348H12.7008V2.81776L16.2537 3.81776C16.2537 3.81776 14.1815 4.08849 14.0253 4.08849C13.8691 4.08849 14.0253 4.31179 14.0253 4.31179C14.0253 4.31179 13.7297 4.08849 13.2797 4.08849C12.8297 4.08849 11.9172 4.55339 11.9172 4.55339L12.2489 5.267L11.9172 5.47684L11.5523 5.267C11.5523 5.267 11.576 4.68016 11.4188 4.68016C11.2617 4.68016 11.1471 5.05716 11.1471 5.267C11.1471 5.47684 10.7111 5.47684 10.7111 5.47684L10.9059 5.084C10.9059 5.084 11.0994 4.43272 10.7111 4.43272C10.3228 4.43272 8.55261 4.08849 8.55261 4.08849L8.09996 4.31179L8.2618 3.81776H7.14417Z" fill="#7B2900"/>
<path fill-rule="evenodd" clip-rule="evenodd" d="M8.33836 10.5513C7.90416 9.57552 8.33836 7.4137 8.33836 7.4137L9.18218 7.85616C9.08207 8.3607 9.0664 9.31412 9.38215 10.0939C9.6979 10.8736 10.8915 11.4877 10.8915 11.4877C10.8915 11.4877 11.4937 11.622 10.5788 11.7187C9.66387 11.8155 8.77257 11.5271 8.33836 10.5513ZM10.5017 14.395C10.2298 14.395 11.0453 12.5818 11.0453 12.5818L11.297 12.078C11.297 12.078 11.3278 14.2124 11.1555 14.395C11.045 14.5121 10.9192 14.479 10.7714 14.4402C10.6888 14.4185 10.5992 14.395 10.5017 14.395Z" fill="#E31D1C"/>
<path fill-rule="evenodd" clip-rule="evenodd" d="M7.55226 10.2325C7.18849 8.77541 7.756 6.79675 7.756 6.79675L8.32714 7.20483C8.24327 7.95824 8.24327 9.9066 8.72637 10.7508C9.20947 11.595 11.3282 11.9496 11.3282 11.9496C11.3282 11.9496 10.9102 12.2586 10.1437 12.4031C9.37719 12.5476 7.91604 11.6897 7.55226 10.2325ZM9.98121 14.1943L10.3172 12.9947L10.7909 12.4151H11.1314C11.1314 12.4151 10.652 14.4771 10.3172 14.4771C10.0998 14.4771 10.1649 14.3578 10.2372 14.2252C10.2762 14.1537 10.3172 14.0784 10.3172 14.0158C10.3172 13.8373 9.98121 14.1943 9.98121 14.1943Z" fill="#2E42A5"/>
<path fill-rule="evenodd" clip-rule="evenodd" d="M6.99744 10.4822C6.81693 9.228 7.17796 6.2312 7.17796 6.2312L7.7491 6.63928C7.49095 7.36517 7.57089 9.44808 7.7491 10.4822C7.92731 11.5163 9.61361 12.1398 9.61361 12.1398C9.61361 12.1398 9.19559 12.4488 8.42909 12.5932C7.6626 12.7377 7.17796 11.7364 6.99744 10.4822ZM9.80105 12.9886C9.47586 12.9886 9.94284 12.5223 9.94284 12.5223H10.7214C10.7214 12.5223 10.455 13.1809 10.1263 13.1809C9.96141 13.1809 9.96186 13.1325 9.96231 13.0843C9.96276 13.0364 9.96321 12.9886 9.80105 12.9886Z" fill="#FECA00"/>
<path fill-rule="evenodd" clip-rule="evenodd" d="M14.2715 10.5513C14.7057 9.57552 14.2715 7.4137 14.2715 7.4137L13.4277 7.85616C13.5278 8.3607 13.5435 9.31412 13.2277 10.0939C12.912 10.8736 11.7183 11.4877 11.7183 11.4877C11.7183 11.4877 11.1162 11.622 12.0311 11.7187C12.946 11.8155 13.8373 11.5271 14.2715 10.5513ZM12.1082 14.395C12.38 14.395 11.5645 12.5818 11.5645 12.5818L11.3129 12.078C11.3129 12.078 11.2821 14.2124 11.4544 14.395C11.5649 14.5121 11.6907 14.479 11.8384 14.4402C11.9211 14.4185 12.0106 14.395 12.1082 14.395Z" fill="#E31D1C"/>
<path fill-rule="evenodd" clip-rule="evenodd" d="M15.0576 10.2325C15.4214 8.77541 14.8539 6.79675 14.8539 6.79675L14.2827 7.20483C14.3666 7.95824 14.3666 9.9066 13.8835 10.7508C13.4004 11.595 11.2817 11.9496 11.2817 11.9496C11.2817 11.9496 11.6997 12.2586 12.4662 12.4031C13.2327 12.5476 14.6938 11.6897 15.0576 10.2325ZM12.6287 14.1943L12.2926 12.9947L11.819 12.4151H11.4784C11.4784 12.4151 11.9579 14.4771 12.2926 14.4771C12.5101 14.4771 12.445 14.3578 12.3727 14.2252C12.3337 14.1537 12.2926 14.0784 12.2926 14.0158C12.2926 13.8373 12.6287 14.1943 12.6287 14.1943Z" fill="#2E42A5"/>
<path fill-rule="evenodd" clip-rule="evenodd" d="M15.6124 10.4822C15.7929 9.228 15.4319 6.2312 15.4319 6.2312L14.8608 6.63928C15.1189 7.36517 15.039 9.44808 14.8608 10.4822C14.6826 11.5163 12.9963 12.1398 12.9963 12.1398C12.9963 12.1398 13.4143 12.4488 14.1808 12.5932C14.9473 12.7377 15.4319 11.7364 15.6124 10.4822ZM12.8088 12.9886C13.134 12.9886 12.667 12.5223 12.667 12.5223H11.8885C11.8885 12.5223 12.1548 13.1809 12.4836 13.1809C12.6485 13.1809 12.648 13.1325 12.6475 13.0843C12.6471 13.0364 12.6467 12.9886 12.8088 12.9886Z" fill="#FECA00"/>
<path d="M7.46924 6.98495L7.53053 6.61522L8.60208 6.68459L7.78929 5.84262L8.06314 5.58213L9.16241 6.72087L8.22261 4.95382L8.54749 4.76059L9.40313 6.0192L8.995 4.71098L9.34594 4.57141L10.6616 7.19522L10.1569 7.16255L10.2063 7.32105L10.636 7.43499L10.5381 7.79873L10.3389 7.7459L10.525 8.34248L10.2017 7.86691L10.7646 8.9248L9.38153 7.49203L7.46924 6.98495Z" fill="#6FAE21"/>
<path d="M15.3162 6.98495L15.2549 6.61522L14.1833 6.68459L14.9961 5.84262L14.7223 5.58213L13.623 6.72087L14.5628 4.95382L14.2379 4.76059L13.3823 6.0192L13.7904 4.71098L13.4395 4.57141L12.1238 7.19522L12.6285 7.16255L12.5791 7.32105L12.1494 7.43499L12.2473 7.79873L12.4465 7.7459L12.2604 8.34248L12.5837 7.86691L12.0208 8.9248L13.4039 7.49203L15.3162 6.98495Z" fill="#6FAE21"/>
<path d="M8.0477 14.2574L7.77173 13.9991L15.9312 5.40833L16.2071 5.6666L8.0477 14.2574Z" fill="#171401"/>
<path fill-rule="evenodd" clip-rule="evenodd" d="M15.7239 5.47448L16.1422 5.86901L16.378 5.2168L15.7239 5.47448Z" fill="#CECECC"/>
<path fill-rule="evenodd" clip-rule="evenodd" d="M8.25495 14.2556L7.77444 13.9397L7.61877 14.5873L8.25495 14.2556Z" fill="#CECECC"/>
<path d="M7.44077 12.9772L7.16479 12.7189L15.3242 4.12817L15.6002 4.38645L7.44077 12.9772Z" fill="#171401"/>
<path fill-rule="evenodd" clip-rule="evenodd" d="M15.1169 4.19433L15.5353 4.58886L15.7711 3.93665L15.1169 4.19433Z" fill="#CECECC"/>
<path fill-rule="evenodd" clip-rule="evenodd" d="M7.64801 12.9755L7.1675 12.6596L7.01183 13.3071L7.64801 12.9755Z" fill="#CECECC"/>
<path d="M14.8659 14.2574L15.1418 13.9991L6.9824 5.40833L6.70643 5.6666L14.8659 14.2574Z" fill="#171401"/>
<path fill-rule="evenodd" clip-rule="evenodd" d="M7.18958 5.47448L6.77122 5.86901L6.53543 5.2168L7.18958 5.47448Z" fill="#CECECC"/>
<path fill-rule="evenodd" clip-rule="evenodd" d="M14.6586 14.2556L15.1391 13.9397L15.2948 14.5873L14.6586 14.2556Z" fill="#CECECC"/>
<path d="M15.6244 13.2785L15.9004 13.0202L7.74095 4.42944L7.46497 4.68772L15.6244 13.2785Z" fill="#171401"/>
<path fill-rule="evenodd" clip-rule="evenodd" d="M7.94812 4.4956L7.52977 4.89013L7.29397 4.23792L7.94812 4.4956Z" fill="#CECECC"/>
<path fill-rule="evenodd" clip-rule="evenodd" d="M15.4172 13.2768L15.8977 12.9609L16.0534 13.6084L15.4172 13.2768Z" fill="#CECECC"/>
<rect x="9.78784" y="10.9534" width="3.03432" height="1.506" fill="#B74E01"/>
<path d="M11.3145 11.5637C11.9161 11.5637 12.4361 11.1768 12.7971 10.6033C13.1596 10.0276 13.3783 9.24264 13.3783 8.38432C13.3783 7.52601 13.1596 6.74104 12.7971 6.16535C12.4361 5.59187 11.9161 5.20498 11.3145 5.20498C10.7129 5.20498 10.193 5.59187 9.83194 6.16535C9.46948 6.74104 9.25076 7.52601 9.25076 8.38432C9.25076 9.24264 9.46948 10.0276 9.83194 10.6033C10.193 11.1768 10.7129 11.5637 11.3145 11.5637Z" fill="#7DB8FF" stroke="#FECA00" stroke-width="0.334668"/>
<mask id="mask1_58_4505" style="mask-type:luminance" maskUnits="userSpaceOnUse" x="9" y="5" width="5" height="7">
<path d="M11.3145 11.5637C11.9161 11.5637 12.4361 11.1768 12.7971 10.6033C13.1596 10.0276 13.3783 9.24264 13.3783 8.38432C13.3783 7.52601 13.1596 6.74104 12.7971 6.16535C12.4361 5.59187 11.9161 5.20498 11.3145 5.20498C10.7129 5.20498 10.193 5.59187 9.83194 6.16535C9.46948 6.74104 9.25076 7.52601 9.25076 8.38432C9.25076 9.24264 9.46948 10.0276 9.83194 10.6033C10.193 11.1768 10.7129 11.5637 11.3145 11.5637Z" fill="white" stroke="white" stroke-width="0.334668"/>
</mask>
<g mask="url(#mask1_58_4505)">
<path fill-rule="evenodd" clip-rule="evenodd" d="M9.26083 8.43317H10.34C10.34 8.43317 11.0818 8.59754 10.7109 8.72684C10.34 8.85615 10.34 8.89892 10.34 9.08335C10.34 9.26779 10.34 9.9427 10.34 10.0868C10.34 10.231 10.6039 10.5395 10.0477 10.5395C9.49151 10.5395 9.01233 8.25305 9.01233 8.25305L9.26083 8.43317Z" fill="#6FAE21"/>
<path fill-rule="evenodd" clip-rule="evenodd" d="M13.4774 8.5575C13.4774 8.5575 12.4749 8.75552 11.7882 8.68951C11.1014 8.6235 10.8 8.5575 10.8 8.5575C10.8 8.5575 11.2787 8.80646 11.4488 9.01511C11.6189 9.22377 11.9672 9.58451 12.3223 9.58451C12.6774 9.58451 13.2216 9.92129 13.2216 9.92129L13.4774 8.5575Z" fill="#6FAE21"/>
<path fill-rule="evenodd" clip-rule="evenodd" d="M9.55483 6.77722C9.55483 6.77722 10.3812 6.93693 10.5802 7.17607C10.7793 7.41521 10.3173 7.65435 11.5215 7.41521C12.7256 7.17607 13.6814 6.75893 13.6814 7.41521C13.6814 8.07149 13.5762 8.67604 13.058 8.67604C12.5399 8.67604 12.3332 8.67604 10.7529 8.67604C9.17265 8.67604 8.3112 9.1594 8.42185 8.38168C8.53249 7.60397 9.55483 6.77722 9.55483 6.77722Z" fill="#F7FCFF"/>
</g>
</g>
</g>
<defs>
<clipPath id="clip0_58_4505">
<rect width="21.4187" height="16.064" fill="white" transform="translate(0.349609 0.0249023)"/>
</clipPath>
</defs>
</svg>
