<svg width="22" height="17" viewBox="0 0 22 17" fill="none" xmlns="http://www.w3.org/2000/svg">
<g clip-path="url(#clip0_58_4470)">
<rect width="21.4187" height="16.064" transform="translate(0.0249023 0.0249023)" fill="white"/>
<path fill-rule="evenodd" clip-rule="evenodd" d="M0.315552 -0.00708008V16.057H21.7343V-0.00708008H0.315552Z" fill="#F7FCFF"/>
<mask id="mask0_58_4470" style="mask-type:luminance" maskUnits="userSpaceOnUse" x="0" y="-1" width="22" height="18">
<path fill-rule="evenodd" clip-rule="evenodd" d="M0.315552 -0.00708008V16.057H21.7343V-0.00708008H0.315552Z" fill="white"/>
</mask>
<g mask="url(#mask0_58_4470)">
<path fill-rule="evenodd" clip-rule="evenodd" d="M0.315552 -0.00708008V5.3476H21.7343V-0.00708008H0.315552Z" fill="#BF2714"/>
<path fill-rule="evenodd" clip-rule="evenodd" d="M0.315552 10.7023V16.057H21.7343V10.7023H0.315552Z" fill="#272727"/>
<path d="M8.52172 6.83374L9.19035 6.86439L9.02251 10.5255L8.35388 10.4949L8.52172 6.83374Z" fill="#C09302"/>
<path d="M9.22033 7.06091L9.8886 7.09869L9.72076 10.0674L9.05249 10.0296L9.22033 7.06091Z" fill="#C09302"/>
<path d="M9.91942 7.28333L10.5865 7.33806L10.4187 9.38356L9.75159 9.32882L9.91942 7.28333Z" fill="#C09302"/>
<path d="M13.528 6.83374L12.8593 6.86439L13.0272 10.5255L13.6958 10.4949L13.528 6.83374Z" fill="#C09302"/>
<path d="M12.8294 7.06091L12.1611 7.09869L12.3289 10.0674L12.9972 10.0296L12.8294 7.06091Z" fill="#C09302"/>
<path d="M12.1303 7.28333L11.4632 7.33806L11.631 9.38356L12.2981 9.32882L12.1303 7.28333Z" fill="#C09302"/>
<path d="M11.007 10.2516L10.3546 10.1021L10.6308 8.89685L11.2832 9.04633L11.007 10.2516Z" fill="#C09302"/>
<path d="M11.5065 10.2516L12.1589 10.1021L11.8828 8.89685L11.2304 9.04633L11.5065 10.2516Z" fill="#C09302"/>
<path d="M11.341 10.2406H10.6716V9.05725H11.341V10.2406Z" fill="#C09302"/>
<path d="M10.111 7.29761L10.7801 7.31402L10.741 8.90764L10.0719 8.89123L10.111 7.29761Z" fill="#C09302"/>
<path d="M11.2751 7.29761L11.9442 7.31402L11.9051 8.90764L11.236 8.89123L11.2751 7.29761Z" fill="#C09302"/>
<path d="M9.24304 10.6506L9.41687 10.0043C10.1271 10.1953 10.6724 10.2897 11.0442 10.2897C11.4161 10.2897 11.9614 10.1953 12.6716 10.0043L12.8454 10.6506C12.0835 10.8556 11.4859 10.9591 11.0442 10.9591C10.6025 10.9591 10.005 10.8556 9.24304 10.6506Z" fill="#C09302"/>
<path d="M8.53647 6.83533C8.49185 6.39316 8.75064 6.09385 9.18923 6.13202C9.33344 6.14458 9.49542 6.18724 9.71115 6.26043C9.77418 6.28206 9.77418 6.28206 9.83544 6.30374C10.132 6.40923 10.2125 6.43634 10.2293 6.43991C10.1635 6.42503 10.3571 6.07512 10.4015 6.01615C10.4067 6.0536 10.3845 6.04827 10.331 6.03756L9.7272 5.91672L10.157 5.4758C10.3072 5.32168 10.5073 5.24525 10.7356 5.24525C10.7592 5.24525 10.7813 5.24415 10.8539 5.23969C10.9075 5.23643 10.9075 5.23643 10.9678 5.23393C11.3854 5.2204 11.685 5.3385 11.685 5.76798C11.685 5.92163 11.7044 6.16871 11.7364 6.35616C11.7472 6.41922 11.768 6.47824 11.7066 6.50416C11.7091 6.48179 11.8554 6.42407 12.0829 6.32893L12.1102 6.31752C12.7711 6.04166 12.8483 6.01607 13.0614 6.14555C13.2034 6.23183 13.3385 6.38703 13.49 6.61843L12.93 6.98502C12.8323 6.83577 12.7545 6.74521 12.7174 6.71991C12.8016 6.77841 12.518 6.87259 12.368 6.93521L12.3411 6.94644C11.8265 7.16165 11.7587 7.18732 11.6116 7.18732C11.2112 7.18732 11.0674 6.77718 11.0281 6.1898C10.9045 6.59647 10.5359 7.10968 10.2322 7.10968C10.0993 7.10968 10.1632 7.13072 9.61114 6.93438C9.55331 6.9139 9.55331 6.9139 9.49611 6.89428C9.32886 6.83754 9.20821 6.80571 9.1321 6.79892C9.13524 6.79533 9.14645 6.78327 9.15903 6.7725L8.53647 6.83533Z" fill="#C09302"/>
</g>
</g>
<defs>
<clipPath id="clip0_58_4470">
<rect width="21.4187" height="16.064" fill="white" transform="translate(0.0249023 0.0249023)"/>
</clipPath>
</defs>
</svg>
