<svg width="23" height="17" viewBox="0 0 23 17" fill="none" xmlns="http://www.w3.org/2000/svg">
<g clip-path="url(#clip0_58_4458)">
<rect width="21.4187" height="16.064" transform="translate(0.862061 0.0249023)" fill="white"/>
<path fill-rule="evenodd" clip-rule="evenodd" d="M1.15271 -0.00708008H22.5714V16.057H1.15271V-0.00708008Z" fill="#F7FCFF"/>
<path fill-rule="evenodd" clip-rule="evenodd" d="M1.15271 -0.00708008V5.3476H22.5714V-0.00708008H1.15271Z" fill="#272727"/>
<path fill-rule="evenodd" clip-rule="evenodd" d="M1.15271 10.7023V16.057H22.5714V10.7023H1.15271Z" fill="#5EAA22"/>
<path fill-rule="evenodd" clip-rule="evenodd" d="M1.15271 -0.00708008L11.8621 8.02494L1.15271 16.057V-0.00708008Z" fill="#E31D1C"/>
<path fill-rule="evenodd" clip-rule="evenodd" d="M15.6691 10.3523C15.6691 10.3523 14.1465 9.4321 14.1465 7.9115C14.1465 6.3909 15.6691 5.59094 15.6691 5.59094C14.9876 5.15853 12.6245 5.77565 12.6245 7.96103C12.6245 10.1464 14.9654 10.5502 15.6691 10.3523ZM16.9011 7.56479L16.0149 6.73453L16.3209 7.79451L15.4634 8.20071L16.5167 8.54353L16.974 9.69092L17.1741 8.62879L18.2144 8.85852L17.4273 8.08984L17.6935 7.2697L16.9011 7.56479Z" fill="#E31D1C"/>
</g>
<defs>
<clipPath id="clip0_58_4458">
<rect width="21.4187" height="16.064" fill="white" transform="translate(0.862061 0.0249023)"/>
</clipPath>
</defs>
</svg>
