<svg width="23" height="17" viewBox="0 0 23 17" fill="none" xmlns="http://www.w3.org/2000/svg">
<g clip-path="url(#clip0_58_4437)">
<rect width="21.4187" height="16.064" transform="translate(0.699463 0.0249023)" fill="white"/>
<path fill-rule="evenodd" clip-rule="evenodd" d="M0.990112 -0.00708008V8.02494H22.4088V-0.00708008H0.990112Z" fill="#43B764"/>
<path fill-rule="evenodd" clip-rule="evenodd" d="M0.990112 8.0249V16.0569H22.4088V8.0249H0.990112Z" fill="#B4D7F4"/>
<path fill-rule="evenodd" clip-rule="evenodd" d="M0.990112 -0.00708008L23.0782 8.02494L0.990112 16.057V-0.00708008Z" fill="#BE0027"/>
<path fill-rule="evenodd" clip-rule="evenodd" d="M6.41216 12.3863C6.49616 12.3015 6.60311 12.2255 6.73766 12.1797C6.74554 11.7534 6.7405 11.2883 6.71434 10.8464C6.67904 10.7933 6.6175 10.7491 6.5104 10.7491C6.24279 10.7491 5.65499 10.5204 5.65499 10.1911C5.65499 10.1911 6.09344 10.3892 6.21581 10.2901C6.26794 10.2479 6.132 10.1171 5.96769 9.95903C5.74632 9.74602 5.47345 9.48346 5.53965 9.3213C5.53965 9.3213 5.96954 9.70189 6.06132 9.70189C6.10321 9.70189 6.07466 9.57856 6.04594 9.45455C6.01176 9.30694 5.97736 9.15837 6.06132 9.21573C6.21581 9.3213 6.64491 10.0495 6.64491 10.2901C6.64491 10.4211 6.67935 10.6272 6.71075 10.7879L6.71044 10.7831C6.69265 10.5059 6.66701 10.2569 6.63289 10.0437C6.44003 8.83905 6.43314 7.60424 6.70143 6.94704C6.56772 6.86419 6.47017 6.75853 6.47017 6.63787C6.47017 6.63787 6.90862 6.81605 7.03099 6.72696C7.08312 6.689 6.94718 6.57134 6.78287 6.42913C6.5615 6.23752 6.28863 6.00134 6.35483 5.85547C6.35483 5.85547 6.78472 6.19783 6.8765 6.19783C6.91839 6.19783 6.88984 6.08689 6.86112 5.97534C6.82694 5.84255 6.79254 5.70891 6.8765 5.76051C7.03099 5.85547 7.46009 6.51049 7.46009 6.72696L7.46011 6.73212C7.62635 6.52608 7.82014 6.3338 7.92205 6.28564C8.03123 6.23403 7.98649 6.36768 7.94204 6.50046C7.9047 6.61201 7.86757 6.72295 7.92205 6.72295C8.04139 6.72295 8.60042 6.38059 8.60042 6.38059C8.68651 6.52647 8.33167 6.76265 8.0438 6.95425C7.83013 7.09647 7.65336 7.21413 7.72115 7.25208C7.88028 7.34117 8.45044 7.16299 8.45044 7.16299C8.45044 7.45919 7.68606 7.66495 7.33806 7.66495C7.20867 7.66495 7.13042 7.69928 7.08316 7.74241C7.06002 7.94768 7.04939 8.18014 7.0506 8.4292C7.22455 8.2052 7.44178 7.98509 7.55184 7.93307C7.66102 7.88147 7.61628 8.01511 7.57183 8.1479C7.53449 8.25945 7.49736 8.37039 7.55184 8.37039C7.67118 8.37039 8.23021 8.02803 8.23021 8.02803C8.3163 8.17391 7.96146 8.41008 7.67359 8.60169C7.45992 8.74391 7.28315 8.86157 7.35094 8.89952C7.51007 8.98861 8.08023 8.81043 8.08023 8.81043C8.08023 9.07376 7.47605 9.26562 7.09744 9.30495C7.11858 9.52128 7.1467 9.74068 7.18147 9.95786C7.21859 10.1897 7.24593 10.4552 7.26473 10.7483C7.2728 10.8741 7.27917 11.0017 7.28402 11.1298C7.30069 11.0233 7.31306 10.9178 7.31306 10.8393C7.31306 10.5986 7.74217 9.87044 7.89666 9.76488C7.98062 9.70751 7.94622 9.85608 7.91203 10.0037C7.88332 10.1277 7.85476 10.251 7.89666 10.251C7.98843 10.251 8.41833 9.87044 8.41833 9.87044C8.48453 10.0326 8.21166 10.2952 7.99029 10.5082L7.99028 10.5082C7.82598 10.6663 7.69004 10.7971 7.74217 10.8393C7.86454 10.9383 8.30299 10.7402 8.30299 10.7402C8.30299 11.0695 7.71519 11.2982 7.44757 11.2982C7.3777 11.2982 7.32721 11.3171 7.29076 11.3449C7.29782 11.6274 7.29799 11.909 7.29322 12.1764C7.43916 12.224 7.55315 12.3071 7.64093 12.399C7.81275 12.3871 7.98184 12.3611 8.14828 12.3208C8.46963 12.144 9.1812 11.5744 9.36134 11.3504C9.49779 11.1808 9.5499 10.8469 9.59914 10.5313C9.62732 10.3507 9.65455 10.1762 9.69611 10.0419C9.81031 9.67279 10.0124 10.4904 10.0124 10.6177C10.0124 10.745 10.1787 10.1456 10.1787 9.72507C10.1787 9.5144 10.137 9.37918 10.0953 9.24422C10.0538 9.10979 10.0124 8.97562 10.0124 8.76742C10.0124 8.52141 10.1562 8.56505 10.2894 8.69258C10.2285 8.52552 10.1787 8.31886 10.1787 8.10573C10.1787 7.83295 10.1445 7.75106 10.1296 7.73073C10.1431 7.73671 10.1787 7.74011 10.2538 7.69935C10.3826 7.62935 10.4425 7.71523 10.4927 7.78715C10.5366 7.84996 10.573 7.90213 10.6414 7.83047C10.7162 7.75206 10.5547 7.66295 10.3148 7.53057C10.0845 7.40347 9.78184 7.23649 9.5467 7.00081C9.06662 6.51963 9.69611 6.35449 9.80347 6.52226C9.91082 6.69003 10.5506 6.87867 10.1787 6.32019C9.95272 5.98072 9.67408 5.98493 9.4206 5.98877C9.25706 5.99124 9.10398 5.99356 8.98226 5.90332C8.77205 5.74749 9.06483 5.58645 9.22434 5.49872C9.30036 5.4569 9.34611 5.43174 9.29266 5.43174C9.2246 5.43174 9.13784 5.40757 9.03563 5.3791C8.88916 5.33831 8.711 5.28868 8.51076 5.28868C8.17077 5.28868 7.49885 4.98447 7.73124 4.98447C7.81392 4.98447 7.93644 4.95512 8.071 4.92288C8.21882 4.88747 8.38118 4.84857 8.52124 4.84128C8.11333 4.6527 7.64672 4.49368 7.12082 4.36416L7.21032 4.00891C7.73025 4.13696 8.1981 4.29431 8.61339 4.48088C8.5418 4.37075 8.46434 4.25119 8.39992 4.13878C8.17746 3.75059 8.87189 4.35345 9.14683 4.75259L9.14762 4.75374C9.59488 5.01328 9.96388 5.31611 10.2538 5.66212V4.87649C10.5134 4.96543 10.6612 5.80441 10.7389 6.43649C10.7955 6.5635 10.8443 6.69474 10.8853 6.83021C10.9863 6.56039 11.1771 6.27444 11.3487 6.52226C11.553 6.81723 11.1922 8.49053 11.0593 9.06897C11.0535 9.12966 11.0468 9.18992 11.0393 9.24974C11.3558 9.04821 11.5199 8.58297 11.604 8.34451C11.6766 8.1388 11.6896 8.10188 11.6896 8.54872C11.6896 9.12661 11.2398 9.69885 10.8712 10.0707C10.8184 10.2536 10.7559 10.4317 10.6837 10.605C10.9376 10.5248 11.1552 10.384 11.3237 10.275C11.619 10.0839 11.7639 9.99018 11.6896 10.4904C11.6086 11.0358 10.8173 11.2372 10.32 11.3102C10.2838 11.3682 10.2464 11.4255 10.2077 11.4822L10.1867 11.5077C10.1096 11.5857 10.0318 11.6601 9.95315 11.7308C10.0034 11.7095 10.0517 11.6876 10.0989 11.6661C10.293 11.578 10.4699 11.4977 10.6936 11.4977C10.8287 11.4977 10.644 11.5682 10.3826 11.668C10.0737 11.786 9.65761 11.945 9.53558 12.0768C9.48451 12.1319 9.45096 12.1766 9.42386 12.2126C9.34413 12.3188 9.32014 12.3507 9.06992 12.3575C8.6839 12.5626 8.28166 12.692 7.86378 12.745C7.89016 12.8078 7.90122 12.8491 7.90122 12.8491H6.1395C6.1395 12.8491 6.15307 12.7984 6.18602 12.7239C5.81966 12.6617 5.46557 12.5398 5.12417 12.3587C5.11526 12.3589 5.10602 12.359 5.09644 12.359C4.71425 12.359 4.69676 12.3357 4.60431 12.2126C4.5772 12.1766 4.54365 12.1319 4.49258 12.0768C4.37055 11.945 3.95446 11.786 3.64552 11.668L3.64551 11.668L3.6455 11.668L3.64549 11.668L3.64549 11.668L3.64547 11.668L3.64547 11.668L3.64546 11.668C3.3841 11.5682 3.19945 11.4977 3.33453 11.4977C3.5583 11.4977 3.73514 11.578 3.92926 11.6661C3.99082 11.6941 4.05412 11.7228 4.12121 11.75C4.1845 11.7757 4.26935 11.8066 4.3627 11.839C4.24168 11.7369 4.12249 11.6265 4.00516 11.5077L3.98411 11.4822C3.95019 11.4325 3.91726 11.3823 3.88531 11.3316C3.42473 11.2814 2.43884 11.1026 2.34796 10.4904C2.27371 9.99018 2.41853 10.0839 2.71383 10.275C2.89169 10.39 3.12413 10.5405 3.39618 10.6177C3.44565 10.6317 3.48949 10.6433 3.52824 10.6525C3.47588 10.5305 3.42837 10.4061 3.38573 10.2793C3.0099 9.94247 2.34796 9.24975 2.34796 8.54872C2.34796 8.10188 2.36098 8.1388 2.43354 8.34451C2.51995 8.58949 2.69078 9.07382 3.0246 9.26568C3.0246 9.26568 2.44104 6.88004 2.68881 6.52226C2.93658 6.16447 3.22431 6.91929 3.22431 7.1318C3.22431 7.16892 3.22792 7.12889 3.23623 7.03672C3.27547 6.60116 3.41962 5.00123 3.7838 4.87649V5.74129C3.7838 5.78161 3.80179 5.79732 3.83335 5.79353C4.07555 5.47364 4.38147 5.18844 4.75046 4.93804C4.80525 4.87028 4.85318 4.8071 4.89073 4.75259C5.16567 4.35345 5.8601 3.75059 5.63763 4.13878C5.57108 4.25491 5.49062 4.37867 5.41709 4.49178C5.39598 4.52425 5.37543 4.55585 5.35595 4.58613C5.82441 4.35281 6.36652 4.16037 6.9815 4.00891L7.07099 4.36416C6.53276 4.49672 6.05663 4.66018 5.64196 4.8546C5.74866 4.87068 5.86129 4.89767 5.96655 4.92288L5.96655 4.92288C6.10112 4.95512 6.22364 4.98447 6.30632 4.98447C6.53871 4.98447 5.86679 5.28868 5.5268 5.28868C5.32656 5.28868 5.14839 5.33831 5.00193 5.3791C4.89972 5.40757 4.81295 5.43174 4.7449 5.43174C4.69145 5.43174 4.73719 5.4569 4.81322 5.49872C4.97272 5.58645 5.26551 5.74749 5.0553 5.90332C4.93358 5.99356 4.7805 5.99124 4.61696 5.98877C4.43587 5.98603 4.24194 5.98309 4.06353 6.10542C3.94334 6.27764 3.84313 6.46015 3.76278 6.65299C3.8439 6.75931 4.16131 6.63599 4.23409 6.52226C4.34144 6.35449 4.97093 6.51963 4.49086 7.00081C4.25572 7.23649 3.95309 7.40347 3.72275 7.53057L3.72274 7.53057L3.72274 7.53057L3.72273 7.53058C3.64767 7.57199 3.58028 7.60918 3.52541 7.64312C3.51762 7.70902 3.51074 7.77445 3.50476 7.83941C3.51819 7.82532 3.53115 7.80675 3.54484 7.78715C3.59503 7.71523 3.65497 7.62935 3.7838 7.69935C3.85884 7.74011 3.89447 7.73671 3.90795 7.73073C3.89308 7.75106 3.85883 7.83295 3.85883 8.10573C3.85883 8.31886 3.80906 8.52552 3.74813 8.69258C3.88138 8.56505 4.02518 8.52141 4.02518 8.76742C4.02518 8.97562 3.98376 9.10979 3.94225 9.24422C3.90058 9.37918 3.85883 9.5144 3.85883 9.72507C3.85883 10.1456 4.02518 10.745 4.02518 10.6177C4.02518 10.4904 4.22725 9.67279 4.34144 10.0419C4.383 10.1762 4.41024 10.3507 4.43842 10.5313C4.48766 10.8469 4.53977 11.1808 4.67621 11.3504C4.83249 11.5447 5.38874 11.9992 5.74318 12.2316C5.96142 12.3086 6.18437 12.3602 6.41216 12.3863ZM3.91467 7.72507C3.91436 7.72432 3.9118 7.72545 3.90795 7.73073C3.91305 7.72846 3.91498 7.72582 3.91467 7.72507ZM10.1296 7.73073C10.1258 7.72545 10.1232 7.72432 10.1229 7.72507C10.1226 7.72582 10.1245 7.72846 10.1296 7.73073ZM10.2496 10.671C10.2646 10.6396 10.2792 10.608 10.2934 10.5762C10.256 10.6126 10.228 10.6511 10.2496 10.671ZM7.15906 7.32175C7.1496 7.41182 7.12496 7.52217 7.09848 7.62306C7.11453 7.51245 7.13468 7.41136 7.15906 7.32175Z" fill="#F3E294"/>
</g>
<defs>
<clipPath id="clip0_58_4437">
<rect width="21.4187" height="16.064" fill="white" transform="translate(0.699463 0.0249023)"/>
</clipPath>
</defs>
</svg>
