<svg width="22" height="17" viewBox="0 0 22 17" fill="none" xmlns="http://www.w3.org/2000/svg">
<g clip-path="url(#clip0_58_4314)">
<rect width="21.4187" height="16.064" transform="translate(0.536865 0.0249023)" fill="white"/>
<path fill-rule="evenodd" clip-rule="evenodd" d="M0.827515 -0.00708008V16.057H22.2462V-0.00708008H0.827515Z" fill="#FFB400"/>
<mask id="mask0_58_4314" style="mask-type:luminance" maskUnits="userSpaceOnUse" x="0" y="-1" width="23" height="18">
<path fill-rule="evenodd" clip-rule="evenodd" d="M0.827515 -0.00708008V16.057H22.2462V-0.00708008H0.827515Z" fill="white"/>
</mask>
<g mask="url(#mask0_58_4314)">
<path fill-rule="evenodd" clip-rule="evenodd" d="M0.827515 -0.00708008V4.00893H22.2462V-0.00708008H0.827515Z" fill="#C51918"/>
<path fill-rule="evenodd" clip-rule="evenodd" d="M0.827515 12.0409V16.0569H22.2462V12.0409H0.827515Z" fill="#C51918"/>
<rect x="4.17944" y="6.86829" width="0.749655" height="3.89821" fill="#F1F9FF"/>
<path fill-rule="evenodd" clip-rule="evenodd" d="M5.22902 6.19348H3.87964V6.56831H4.10451V6.86823H5.0041V6.56831H5.22902V6.19348Z" fill="#C88A02"/>
<path fill-rule="evenodd" clip-rule="evenodd" d="M5.00412 10.9913H5.22902V11.3661H3.87964V10.9913H4.10454V10.6914H5.00412V10.9913Z" fill="#C88A02"/>
<path fill-rule="evenodd" clip-rule="evenodd" d="M4.5543 6.26847C4.71744 6.26847 4.73402 6.20704 4.83027 6.11529C4.905 6.04405 5.07906 5.95569 5.07906 5.85616C5.07906 5.62845 4.84412 5.44385 4.5543 5.44385C4.26448 5.44385 4.02954 5.62845 4.02954 5.85616C4.02954 5.96705 4.14941 6.04119 4.24004 6.11529C4.33552 6.19336 4.40561 6.26847 4.5543 6.26847Z" fill="#AD1619"/>
<path fill-rule="evenodd" clip-rule="evenodd" d="M3.87964 11.3662H5.22902V11.9659C5.22902 11.9659 5.06035 11.891 4.89167 11.891C4.723 11.891 4.55433 11.9659 4.55433 11.9659C4.55433 11.9659 4.38566 11.891 4.21698 11.891C4.04831 11.891 3.87964 11.9659 3.87964 11.9659V11.3662Z" fill="#005BBF"/>
<mask id="mask1_58_4314" style="mask-type:luminance" maskUnits="userSpaceOnUse" x="3" y="11" width="3" height="1">
<path fill-rule="evenodd" clip-rule="evenodd" d="M3.87964 11.3662H5.22902V11.9659C5.22902 11.9659 5.06035 11.891 4.89167 11.891C4.723 11.891 4.55433 11.9659 4.55433 11.9659C4.55433 11.9659 4.38566 11.891 4.21698 11.891C4.04831 11.891 3.87964 11.9659 3.87964 11.9659V11.3662Z" fill="white"/>
</mask>
<g mask="url(#mask1_58_4314)">
<path d="M3.86747 11.8481L3.83801 11.7763C3.95955 11.7222 4.08152 11.6951 4.20367 11.6951C4.28259 11.6951 4.32381 11.7061 4.39387 11.7373C4.45541 11.7646 4.48731 11.7732 4.55461 11.7732C4.62191 11.7732 4.65381 11.7646 4.71535 11.7373C4.78541 11.7061 4.82662 11.6951 4.90554 11.6951C5.0277 11.6951 5.14967 11.7222 5.2712 11.7763L5.24175 11.8481C5.12933 11.7981 5.01734 11.7732 4.90554 11.7732C4.83824 11.7732 4.80634 11.7817 4.7448 11.8091C4.67474 11.8402 4.63353 11.8512 4.55461 11.8512C4.47569 11.8512 4.43447 11.8402 4.36441 11.8091C4.30287 11.7817 4.27098 11.7732 4.20367 11.7732C4.09187 11.7732 3.97988 11.7981 3.86747 11.8481Z" fill="white"/>
<path d="M3.86747 11.6231L3.83801 11.5513C3.95955 11.4972 4.08152 11.4701 4.20367 11.4701C4.28259 11.4701 4.32381 11.4811 4.39387 11.5123C4.45541 11.5397 4.48731 11.5482 4.55461 11.5482C4.62191 11.5482 4.65381 11.5397 4.71535 11.5123C4.78541 11.4811 4.82662 11.4701 4.90554 11.4701C5.0277 11.4701 5.14967 11.4972 5.2712 11.5513L5.24175 11.6231C5.12933 11.5731 5.01734 11.5482 4.90554 11.5482C4.83824 11.5482 4.80634 11.5567 4.7448 11.5841C4.67474 11.6153 4.63353 11.6263 4.55461 11.6263C4.47569 11.6263 4.43447 11.6153 4.36441 11.5841C4.30287 11.5567 4.27098 11.5482 4.20367 11.5482C4.09187 11.5482 3.97988 11.5731 3.86747 11.6231Z" fill="white"/>
</g>
<rect x="11.5261" y="6.86829" width="0.749655" height="3.89821" fill="#F1F9FF"/>
<path fill-rule="evenodd" clip-rule="evenodd" d="M12.5756 6.19348H11.2262V6.56831H11.4511V6.86823H12.3507V6.56831H12.5756V6.19348Z" fill="#C88A02"/>
<path fill-rule="evenodd" clip-rule="evenodd" d="M12.3507 10.9913H12.5756V11.3661H11.2262V10.9913H11.4511V10.6914H12.3507V10.9913Z" fill="#C88A02"/>
<path fill-rule="evenodd" clip-rule="evenodd" d="M11.9009 6.26847C12.064 6.26847 12.0806 6.20704 12.1768 6.11529C12.2516 6.04405 12.4256 5.95569 12.4256 5.85616C12.4256 5.62845 12.1907 5.44385 11.9009 5.44385C11.611 5.44385 11.3761 5.62845 11.3761 5.85616C11.3761 5.96705 11.496 6.04119 11.5866 6.11529C11.6821 6.19336 11.7522 6.26847 11.9009 6.26847Z" fill="#AD1619"/>
<path fill-rule="evenodd" clip-rule="evenodd" d="M11.2262 11.3662H12.5756V11.9659C12.5756 11.9659 12.4069 11.891 12.2382 11.891C12.0696 11.891 11.9009 11.9659 11.9009 11.9659C11.9009 11.9659 11.7322 11.891 11.5635 11.891C11.3949 11.891 11.2262 11.9659 11.2262 11.9659V11.3662Z" fill="#005BBF"/>
<mask id="mask2_58_4314" style="mask-type:luminance" maskUnits="userSpaceOnUse" x="11" y="11" width="2" height="1">
<path fill-rule="evenodd" clip-rule="evenodd" d="M11.2262 11.3662H12.5756V11.9659C12.5756 11.9659 12.4069 11.891 12.2382 11.891C12.0696 11.891 11.9009 11.9659 11.9009 11.9659C11.9009 11.9659 11.7322 11.891 11.5635 11.891C11.3949 11.891 11.2262 11.9659 11.2262 11.9659V11.3662Z" fill="white"/>
</mask>
<g mask="url(#mask2_58_4314)">
<path d="M11.214 11.8481L11.1846 11.7763C11.3061 11.7222 11.4281 11.6951 11.5502 11.6951C11.6292 11.6951 11.6704 11.7061 11.7404 11.7373C11.802 11.7646 11.8339 11.7732 11.9012 11.7732C11.9685 11.7732 12.0004 11.7646 12.0619 11.7373C12.132 11.7061 12.1732 11.6951 12.2521 11.6951C12.3743 11.6951 12.4962 11.7222 12.6178 11.7763L12.5883 11.8481C12.4759 11.7981 12.3639 11.7732 12.2521 11.7732C12.1848 11.7732 12.1529 11.7817 12.0914 11.8091C12.0213 11.8402 11.9801 11.8512 11.9012 11.8512C11.8222 11.8512 11.781 11.8402 11.711 11.8091C11.6494 11.7817 11.6175 11.7732 11.5502 11.7732C11.4384 11.7732 11.3264 11.7981 11.214 11.8481Z" fill="white"/>
<path d="M11.214 11.6231L11.1846 11.5513C11.3061 11.4972 11.4281 11.4701 11.5502 11.4701C11.6292 11.4701 11.6704 11.4811 11.7404 11.5123C11.802 11.5397 11.8339 11.5482 11.9012 11.5482C11.9685 11.5482 12.0004 11.5397 12.0619 11.5123C12.132 11.4811 12.1732 11.4701 12.2521 11.4701C12.3743 11.4701 12.4962 11.4972 12.6178 11.5513L12.5883 11.6231C12.4759 11.5731 12.3639 11.5482 12.2521 11.5482C12.1848 11.5482 12.1529 11.5567 12.0914 11.5841C12.0213 11.6153 11.9801 11.6263 11.9012 11.6263C11.8222 11.6263 11.781 11.6153 11.711 11.5841C11.6494 11.5567 11.6175 11.5482 11.5502 11.5482C11.4384 11.5482 11.3264 11.5731 11.214 11.6231Z" fill="white"/>
</g>
<path fill-rule="evenodd" clip-rule="evenodd" d="M4.16607 10.4879C4.30123 10.324 4.37681 10.175 4.37681 10.0166C4.37681 9.91682 4.3471 9.83059 4.29505 9.76015L4.30385 9.7562C4.30304 9.75656 4.45212 9.69158 4.50402 9.66669C4.60051 9.62043 4.68551 9.57143 4.76839 9.51115C4.8213 9.47267 4.8922 9.43077 5.00027 9.37273L5.10182 9.31872L5.12925 9.30416C5.18177 9.27613 5.22088 9.25465 5.25722 9.23357C5.37045 9.16789 5.44528 9.11361 5.50251 9.04104C5.63806 8.86914 5.60992 8.63613 5.41997 8.50681C5.3269 8.44344 5.20132 8.40709 5.01723 8.37847L4.97911 8.37257L4.75394 8.33766C4.66585 8.32383 4.58725 8.31092 4.51717 8.29867C4.97805 8.22198 5.63616 8.25017 5.92565 8.39963L6.20078 7.86674C5.61087 7.56217 4.26676 7.59327 3.76467 7.93904C3.3964 8.19266 3.44582 8.57603 3.82898 8.74111C3.98909 8.81009 4.1978 8.85587 4.58404 8.91792C4.51932 8.95547 4.46566 8.98977 4.41566 9.02613C4.36495 9.063 4.31062 9.09432 4.24473 9.12592C4.21321 9.14103 4.1199 9.182 4.07712 9.20079L4.07711 9.20079L4.07711 9.20079L4.0556 9.21026C3.7435 9.35218 3.59203 9.54849 3.6373 9.90288L3.6618 10.0947L3.70575 10.1082L4.16607 10.4879ZM3.78025 9.99214L3.7793 9.99489L3.78003 9.99294L3.78025 9.99214ZM12.0093 10.0166C12.0093 10.175 12.0849 10.324 12.2201 10.4879L12.6804 10.1082L12.7243 10.0947L12.7488 9.90288C12.7941 9.54849 12.6426 9.35218 12.3305 9.21026L12.309 9.20079L12.3089 9.20076C12.2661 9.18196 12.1729 9.14102 12.1414 9.12592C12.0755 9.09432 12.0212 9.06301 11.9705 9.02613C11.9205 8.98977 11.8668 8.95547 11.8021 8.91792C12.1883 8.85587 12.3971 8.81009 12.5572 8.74111C12.9403 8.57603 12.9897 8.19266 12.6215 7.93904C12.1194 7.59327 10.7753 7.56217 10.1854 7.86675L10.4605 8.39963C10.75 8.25017 11.4081 8.22199 11.869 8.29868C11.7989 8.31092 11.7203 8.32383 11.6322 8.33766L11.407 8.37258L11.3689 8.37847C11.1848 8.40709 11.0592 8.44345 10.9662 8.50681C10.7762 8.63614 10.7481 8.86915 10.8836 9.04104C10.9409 9.11361 11.0157 9.1679 11.1289 9.23358C11.1653 9.25466 11.2044 9.27613 11.2569 9.30416L11.2842 9.31867L11.3859 9.37273C11.4939 9.43077 11.5648 9.47268 11.6178 9.51116C11.7006 9.57143 11.7856 9.62043 11.8821 9.66669C11.934 9.69158 12.0831 9.75657 12.0823 9.7562L12.0911 9.76015C12.039 9.83059 12.0093 9.91682 12.0093 10.0166Z" fill="#AD1619"/>
<path d="M4.79212 8.29248L5.01339 8.33826V8.66806C4.77773 8.8561 4.17944 9.17303 4.17944 9.17303V8.29248H4.79212Z" fill="#F1F9FF"/>
<path d="M11.7474 8.29248L11.5262 8.33826V8.66806C11.7618 8.8561 12.3601 9.17303 12.3601 9.17303V8.29248H11.7474Z" fill="#F1F9FF"/>
<path fill-rule="evenodd" clip-rule="evenodd" d="M10.7175 4.8161V4.70634C10.3319 4.42961 9.92813 4.29124 9.50613 4.29124C9.10157 4.11221 8.69208 4.04271 8.27765 4.08276C8.27776 4.08149 8.27782 4.08084 8.27782 4.08084C7.65468 4.01987 7.02669 4.29125 7.02669 4.29125C6.39369 4.29125 5.81531 4.70635 5.81531 4.70635V4.81611L6.57141 5.57549C6.57141 5.57549 6.78423 6.3064 8.27474 6.13462V6.13646C8.27474 6.13646 9.26157 6.10953 9.33091 6.08646C9.35843 6.07731 9.38696 6.06898 9.41612 6.06047C9.60941 6.00404 9.83007 5.93962 9.96141 5.57548L10.7175 4.8161ZM8.27474 4.11632C8.25322 4.36905 8.13035 5.89321 8.27474 6.12948V4.11632Z" fill="#AD1619"/>
<path fill-rule="evenodd" clip-rule="evenodd" d="M6.39213 5.44779L6.39264 5.44546L5.86072 4.94501L5.91209 4.89041L6.41122 5.36001L6.42399 5.30128C6.50565 5.31904 6.56533 5.32557 6.60012 5.32187V5.22L6.71077 5.27988C6.76519 5.30933 6.84313 5.31725 6.94578 5.30055C7.02118 5.28828 7.07205 5.20072 7.08869 5.01413L7.12227 4.63745L7.23492 4.99845C7.28589 5.16181 7.36366 5.23382 7.47436 5.23382C7.58249 5.23382 7.62596 5.19418 7.63075 5.09426L7.64436 4.81088L7.77251 5.064C7.81868 5.15518 7.88235 5.19656 7.97288 5.19656C8.10237 5.19656 8.18886 5.08861 8.18886 4.91924H8.19129H8.33879H8.34122C8.34122 5.08861 8.42771 5.19656 8.55719 5.19656C8.64772 5.19656 8.71139 5.15518 8.75756 5.064L8.88572 4.81088L8.89932 5.09426C8.90412 5.19418 8.94758 5.23382 9.05571 5.23382C9.16642 5.23382 9.24418 5.16181 9.29516 4.99845L9.40781 4.63745L9.44139 5.01413C9.45803 5.20072 9.5089 5.28828 9.5843 5.30055C9.68695 5.31725 9.76489 5.30933 9.81931 5.27988L9.92995 5.22V5.32187C9.96474 5.32557 10.0244 5.31904 10.1061 5.30128L10.1298 5.4103L10.6824 4.89041L10.7337 4.94501L10.0461 5.59193C9.94581 5.77669 9.89529 5.89864 9.89529 5.94929C9.89529 6.02657 9.69423 6.07244 9.30183 6.11956C8.99442 6.15647 8.63162 6.18124 8.33486 6.18494V6.18543L8.29723 6.1853L8.2596 6.18543V6.18494C7.96284 6.18124 7.60004 6.15647 7.29263 6.11956C6.90023 6.07244 6.69917 6.02657 6.69917 5.94929C6.69917 5.93973 6.69737 5.92762 6.69377 5.91302C6.65416 5.86261 6.62632 5.78009 6.60781 5.70568C6.59044 5.67092 6.57061 5.63298 6.54833 5.59193L6.39601 5.44863L6.39213 5.44779ZM10.0771 5.45986C9.95433 5.4816 9.86567 5.4794 9.81864 5.4411C9.74506 5.46251 9.65875 5.46457 9.56021 5.44853C9.45497 5.4314 9.38168 5.3614 9.33758 5.24527C9.27999 5.31864 9.20717 5.36392 9.11994 5.37855C9.59971 5.44659 9.9358 5.54223 9.9358 5.54223C9.9358 5.54223 9.92751 5.61324 9.90738 5.69674C9.9287 5.65302 9.95396 5.60444 9.98316 5.55082L9.99039 5.54145L10.0771 5.45986ZM8.89369 5.35007C8.85194 5.32934 8.8186 5.29927 8.79451 5.26051C8.75872 5.29211 8.71803 5.31522 8.67282 5.32947C8.74829 5.33524 8.82208 5.34222 8.89369 5.35007ZM8.40829 5.3149C8.34987 5.28791 8.30131 5.2447 8.26504 5.18931C8.22902 5.24431 8.18089 5.2873 8.12302 5.31432C8.15731 5.3133 8.19179 5.31258 8.22644 5.31219V5.31185L8.2565 5.31194L8.28656 5.31185V5.31219C8.32738 5.31265 8.36798 5.31357 8.40829 5.3149ZM6.59865 5.53635L6.52874 5.47058C6.61263 5.4789 6.67472 5.471 6.71144 5.4411C6.78502 5.46251 6.87132 5.46457 6.96986 5.44853C7.0751 5.4314 7.14839 5.3614 7.1925 5.24527C7.24842 5.31652 7.3187 5.36128 7.4026 5.37721C6.98902 5.43531 6.68043 5.51436 6.59865 5.53635ZM7.854 5.32843C7.78133 5.33383 7.71018 5.34036 7.641 5.34773C7.6806 5.3271 7.71236 5.29784 7.73557 5.26051C7.77049 5.29136 7.8101 5.31411 7.854 5.32843ZM9.69819 5.9508C9.75071 5.97538 9.79281 5.95087 9.82609 5.90381C9.82322 5.91679 9.82142 5.92852 9.8207 5.93903C9.8163 5.94191 9.80956 5.94538 9.80071 5.94909C9.77602 5.95948 9.73831 5.97053 9.68925 5.98173C9.59282 6.00373 9.45556 6.0256 9.29289 6.04513C8.97523 6.08327 8.59752 6.10836 8.29723 6.11034C7.99695 6.10836 7.61923 6.08327 7.30157 6.04513C7.1389 6.0256 7.00164 6.00373 6.90521 5.98173C6.86412 5.97235 6.83098 5.96307 6.8068 5.9542C6.80944 5.95319 6.81211 5.95206 6.81481 5.9508C6.97857 5.87417 8.06148 5.80226 8.2565 5.78985C8.45152 5.80226 9.53443 5.87417 9.69819 5.9508ZM9.90475 5.93707L9.90362 5.93838L9.9043 5.93743L9.90475 5.93707Z" fill="#C88A02"/>
<path fill-rule="evenodd" clip-rule="evenodd" d="M8.2653 3.57199C8.38951 3.57199 8.4902 3.4713 8.4902 3.34709C8.4902 3.22288 8.38951 3.12219 8.2653 3.12219C8.14109 3.12219 8.04041 3.22288 8.04041 3.34709C8.04041 3.4713 8.14109 3.57199 8.2653 3.57199Z" fill="#005BBF"/>
<path fill-rule="evenodd" clip-rule="evenodd" d="M8.11894 4.67617C8.12374 4.70084 8.13123 4.72382 8.14069 4.74429C8.11165 4.73319 8.07717 4.72676 8.04018 4.72676C7.93668 4.72676 7.85277 4.77711 7.85277 4.83921C7.85277 4.90132 7.93668 4.95166 8.04018 4.95166C8.14369 4.95166 8.2276 4.90132 8.2276 4.83921L8.22751 4.83581L8.22772 4.83587L8.22763 4.83921C8.22763 4.90132 8.31154 4.95166 8.41505 4.95166C8.51855 4.95166 8.60246 4.90132 8.60246 4.83921C8.60246 4.77711 8.51855 4.72676 8.41505 4.72676C8.38898 4.72676 8.36416 4.72996 8.34161 4.73573C8.34704 4.70499 8.3468 4.66975 8.33971 4.63326C8.31996 4.53166 8.25453 4.4589 8.19357 4.47075C8.1326 4.4826 8.09919 4.57457 8.11894 4.67617ZM7.01622 4.81931C7.00673 4.79881 6.99923 4.77581 6.99442 4.7511C6.97467 4.64949 7.00808 4.55752 7.06905 4.54567C7.13001 4.53382 7.19544 4.60658 7.21519 4.70819C7.22229 4.7447 7.22252 4.77998 7.21707 4.81074C7.23963 4.80496 7.26446 4.80177 7.29053 4.80177C7.39404 4.80177 7.47794 4.85212 7.47794 4.91422C7.47794 4.97632 7.39404 5.02667 7.29053 5.02667C7.18702 5.02667 7.10312 4.97632 7.10312 4.91422L7.1032 4.9108L7.10299 4.91073L7.10308 4.91422C7.10308 4.97632 7.01917 5.02667 6.91566 5.02667C6.81216 5.02667 6.72825 4.97632 6.72825 4.91422C6.72825 4.85212 6.81216 4.80177 6.91566 4.80177C6.95267 4.80177 6.98716 4.8082 7.01622 4.81931ZM9.36411 4.88783C9.35547 4.94933 9.26537 4.98751 9.16287 4.9731C9.06037 4.9587 8.98429 4.89717 8.99293 4.83567C9.00157 4.77417 9.09167 4.73599 9.19417 4.7504C9.23076 4.75554 9.26399 4.76669 9.29119 4.7817C9.28467 4.76011 9.28045 4.73631 9.27913 4.71121C9.27372 4.60785 9.3196 4.52142 9.38162 4.51817C9.44364 4.51492 9.4983 4.59608 9.50372 4.69944C9.50567 4.73656 9.501 4.7715 9.49134 4.80118C9.51449 4.7986 9.53953 4.79889 9.56536 4.80252C9.66786 4.81693 9.74394 4.87846 9.7353 4.93996C9.72666 5.00146 9.63656 5.03964 9.53406 5.02523C9.43156 5.01083 9.35548 4.94929 9.36412 4.8878L9.36466 4.88452L9.3645 4.88444L9.36412 4.8878L9.36411 4.88783ZM10.0779 5.18515C10.1693 5.23374 10.267 5.22868 10.2961 5.17385L10.2977 5.1708C10.3067 5.18034 10.3173 5.18727 10.3295 5.19099C10.3889 5.20915 10.4616 5.14363 10.4918 5.04464C10.5221 4.94566 10.4985 4.8507 10.4391 4.83254C10.3797 4.81439 10.307 4.87991 10.2767 4.97889C10.2694 5.00292 10.2652 5.02672 10.264 5.04924C10.2435 5.02581 10.2161 5.00394 10.1835 4.98658C10.0921 4.93798 9.99434 4.94304 9.96518 4.99788C9.93603 5.05271 9.98648 5.13656 10.0779 5.18515ZM6.39954 5.20811C6.30815 5.2567 6.21043 5.25164 6.18127 5.19681C6.18074 5.1958 6.18023 5.19479 6.17975 5.19376C6.17074 5.2033 6.16008 5.21023 6.14792 5.21395C6.08853 5.23211 6.01586 5.16659 5.98559 5.0676C5.95533 4.96862 5.97894 4.87366 6.03833 4.8555C6.09772 4.83734 6.1704 4.90287 6.20066 5.00185C6.20801 5.02588 6.21218 5.04968 6.21344 5.0722C6.23387 5.04876 6.2613 5.0269 6.29396 5.00954C6.38535 4.96094 6.48307 4.966 6.51223 5.02084C6.54138 5.07567 6.49093 5.15952 6.39954 5.20811Z" fill="#C88A02"/>
<path fill-rule="evenodd" clip-rule="evenodd" d="M8.18136 2.72156H8.33754V2.82026H8.43961V2.97644H8.33754V3.28876H8.43961V3.44494H8.07776V3.28876H8.18136V2.97644H8.07776V2.82026H8.18136V2.72156Z" fill="#C88A02"/>
<rect x="8.15259" y="3.56995" width="0.299862" height="0.974552" fill="#C88A02"/>
<path d="M6.94549 3.73313L6.94418 3.80809C6.27947 3.79648 5.89818 3.89349 5.80139 4.08682C5.70132 4.28671 5.71993 4.52969 5.86014 4.81832L5.79271 4.85108C5.64311 4.54312 5.62268 4.27633 5.73435 4.05326C5.8493 3.82366 6.25266 3.72104 6.94549 3.73313Z" fill="white"/>
<path d="M7.07412 4.39789L7.03569 4.46226C6.89093 4.37582 6.81848 4.22832 6.81848 4.02504C6.81848 3.73289 6.96898 3.56157 7.30187 3.44433C7.51433 3.3695 7.80456 3.40018 8.17338 3.5339L8.14783 3.60438C7.79377 3.47601 7.51982 3.44705 7.32678 3.51504C7.02143 3.62257 6.89345 3.76827 6.89345 4.02504C6.89345 4.20343 6.95362 4.32594 7.07412 4.39789Z" fill="white"/>
<path d="M5.95457 4.70341L5.81311 4.75309C5.66634 4.3352 5.70825 4.05139 5.95905 3.92896C6.18004 3.82109 6.50212 3.77719 6.92687 3.7944L6.9208 3.94421C6.51864 3.92791 6.21945 3.96869 6.02482 4.0637C5.86 4.14416 5.82985 4.3483 5.95457 4.70341Z" fill="#C88A02"/>
<path d="M7.60731 3.63333C7.26451 3.63333 7.12374 3.71682 7.04332 3.96333C6.99207 4.12042 7.04178 4.2545 7.20295 4.37965L7.11099 4.49807C6.90233 4.33604 6.82876 4.13759 6.90079 3.91682C7.00328 3.60267 7.20438 3.4834 7.60731 3.4834C7.8714 3.4834 8.07712 3.55278 8.22036 3.69398L8.2427 3.716V4.43886H8.09277V3.78009C7.9809 3.68292 7.8202 3.63333 7.60731 3.63333Z" fill="#C88A02"/>
<path d="M9.56159 3.80808L9.5629 3.88304C10.2276 3.87143 10.6089 3.96844 10.7057 4.16177C10.8058 4.36166 10.7871 4.60464 10.6469 4.89327L10.7144 4.92603C10.864 4.61807 10.8844 4.35128 10.7727 4.12822C10.6578 3.89861 10.2544 3.79599 9.56159 3.80808Z" fill="white"/>
<path d="M9.32676 4.41352L9.36519 4.47788C9.50995 4.39145 9.5824 4.24394 9.5824 4.04067C9.5824 3.74851 9.4319 3.57719 9.09901 3.45995C8.88654 3.38513 8.59631 3.41581 8.2275 3.54953L8.25305 3.62C8.60711 3.49164 8.88106 3.46268 9.0741 3.53066C9.37945 3.6382 9.50743 3.7839 9.50743 4.04067C9.50743 4.21905 9.44725 4.34157 9.32676 4.41352Z" fill="white"/>
<path d="M10.5991 4.77836L10.7406 4.82804C10.8874 4.41015 10.8455 4.12634 10.5947 4.00392C10.3737 3.89604 10.0516 3.85214 9.62684 3.86935L9.63291 4.01916C10.0351 4.00286 10.3343 4.04365 10.5289 4.13865C10.6937 4.21911 10.7239 4.42325 10.5991 4.77836Z" fill="#C88A02"/>
<path d="M8.93798 3.64493C9.28077 3.64493 9.42154 3.72842 9.50197 3.97492C9.55322 4.13202 9.50351 4.26609 9.34234 4.39125L9.4343 4.50967C9.64296 4.34764 9.71653 4.14919 9.6445 3.92842C9.54201 3.61427 9.34091 3.495 8.93798 3.495C8.67389 3.495 8.46817 3.56438 8.32493 3.70558L8.30259 3.7276V4.45046H8.45252V3.79168C8.56439 3.69451 8.72509 3.64493 8.93798 3.64493Z" fill="#C88A02"/>
<path opacity="0.3" fill-rule="evenodd" clip-rule="evenodd" d="M5.82874 6.1936H10.7015V10.5716C10.7015 10.5716 10.3395 12.0409 8.26512 12.0409C6.1907 12.0409 5.82874 10.5329 5.82874 10.5329V6.1936Z" fill="#E1E5E8"/>
<mask id="mask3_58_4314" style="mask-type:luminance" maskUnits="userSpaceOnUse" x="5" y="6" width="6" height="7">
<path fill-rule="evenodd" clip-rule="evenodd" d="M5.82874 6.1936H10.7015V10.5716C10.7015 10.5716 10.3395 12.0409 8.26512 12.0409C6.1907 12.0409 5.82874 10.5329 5.82874 10.5329V6.1936Z" fill="white"/>
</mask>
<g mask="url(#mask3_58_4314)">
<rect x="5.82874" y="8.89233" width="2.47386" height="2.92366" fill="#FFC034"/>
<rect x="6.12854" y="9.04224" width="0.299862" height="2.77372" fill="#AD1619"/>
<rect x="7.1781" y="9.04224" width="0.299862" height="2.77372" fill="#AD1619"/>
<rect x="6.65344" y="9.04224" width="0.299862" height="2.77372" fill="#AD1619"/>
<rect x="7.70288" y="9.04224" width="0.299862" height="2.77372" fill="#AD1619"/>
<rect x="5.82874" y="6.11865" width="2.47386" height="2.84869" fill="#AD1619"/>
<rect x="8.22766" y="8.81738" width="2.47386" height="2.84869" fill="#AD1619"/>
<rect x="8.22766" y="6.1936" width="2.62379" height="2.77372" fill="#F1F9FF"/>
<path fill-rule="evenodd" clip-rule="evenodd" d="M6.87831 6.41858H7.10321V7.04052H7.2531V6.72955H7.47799V7.04052H7.7029V7.42923H7.47804V8.12893H7.7029V8.51764H6.35352V8.12893H6.57845V7.42923H6.35352V7.04052H6.50345V6.72955H6.72834V7.04052H6.87831V6.41858Z" fill="#C88A02"/>
<path d="M9.51465 6.54911L9.66817 6.38477L9.99048 6.68585L9.83696 6.85019L9.51465 6.54911Z" fill="#C88A02"/>
<path fill-rule="evenodd" clip-rule="evenodd" d="M10.4391 10.796V9.15479H8.56494V10.7823L8.56792 10.795C8.66279 11.1992 8.98587 11.4038 9.50201 11.4038C10.0177 11.4038 10.3407 11.2045 10.436 10.809L10.4391 10.796ZM9.50203 11.1788C9.08791 11.1788 8.86176 11.0393 8.78986 10.7558V9.37966H10.2142V10.7688C10.1425 11.0431 9.91632 11.1788 9.50203 11.1788Z" fill="#FFC034"/>
<path fill-rule="evenodd" clip-rule="evenodd" d="M9.57936 9.29187H9.42318V10.0359L8.80751 9.3663L8.69714 9.46778L9.25396 10.0734H8.74944V10.2983H9.13696H9.26619L8.69717 10.9172L8.80754 11.0186L9.42318 10.3491V11.2188H9.57936V10.4273L10.1231 11.0186L10.2334 10.9172L9.66441 10.2983H10.2995V10.0734H9.67664L10.2335 9.46778L10.1231 9.3663L9.57936 9.95767V9.29187Z" fill="#FFC034"/>
<path fill-rule="evenodd" clip-rule="evenodd" d="M9.85194 11.6679C9.85194 11.6679 8.26415 11.7927 8.26415 10.7687C8.26415 10.7687 8.24901 11.6679 6.59106 11.6679V12.4763H9.85194V11.6679Z" fill="#F1F9FF"/>
<path fill-rule="evenodd" clip-rule="evenodd" d="M8.26512 9.49205C8.57564 9.49205 8.82736 9.22355 8.82736 8.89233C8.82736 8.56111 8.57564 8.2926 8.26512 8.2926C7.9546 8.2926 7.70288 8.56111 7.70288 8.89233C7.70288 9.22355 7.9546 9.49205 8.26512 9.49205Z" fill="#005BBF" stroke="#AD1619" stroke-width="0.780891"/>
</g>
</g>
</g>
<defs>
<clipPath id="clip0_58_4314">
<rect width="21.4187" height="16.064" fill="white" transform="translate(0.536865 0.0249023)"/>
</clipPath>
</defs>
</svg>
