<svg width="23" height="17" viewBox="0 0 23 17" fill="none" xmlns="http://www.w3.org/2000/svg">
<g clip-path="url(#clip0_58_4240)">
<rect width="21.4187" height="16.064" transform="translate(0.674805 0.862061)" fill="white"/>
<path fill-rule="evenodd" clip-rule="evenodd" d="M0.965454 0.830078V16.8941H22.3842V0.830078H0.965454Z" fill="#67BFE5"/>
<mask id="mask0_58_4240" style="mask-type:luminance" maskUnits="userSpaceOnUse" x="0" y="0" width="23" height="17">
<path fill-rule="evenodd" clip-rule="evenodd" d="M0.965454 0.830078V16.8941H22.3842V0.830078H0.965454Z" fill="white"/>
</mask>
<g mask="url(#mask0_58_4240)">
</g>
<g clip-path="url(#clip1_58_4240)">
<rect width="12.048" height="9.37069" transform="translate(0.674805 0.862061)" fill="#2E42A5"/>
<path d="M-0.666748 9.56318L1.98445 10.726L12.783 2.12615L14.1814 0.39824L11.3463 0.00960777L6.94188 3.71551L3.39675 6.21242L-0.666748 9.56318Z" fill="#F7FCFF"/>
<path d="M-0.303833 10.378L1.04683 11.0527L13.6792 0.237809H11.7827L-0.303833 10.378Z" fill="#F50100"/>
<path d="M14.0643 9.56318L11.4131 10.726L0.614614 2.12615L-0.783836 0.39824L2.05125 0.00960777L6.4557 3.71551L10.0008 6.21242L14.0643 9.56318Z" fill="#F7FCFF"/>
<path d="M13.9739 10.148L12.6232 10.8228L7.24422 6.19232L5.64946 5.67498L-0.918388 0.404275H0.978103L7.54226 5.54987L9.28585 6.17023L13.9739 10.148Z" fill="#F50100"/>
<path fill-rule="evenodd" clip-rule="evenodd" d="M7.35779 0.862061H6.01912V4.87807H0.674805V6.21674H6.01912V10.2328H7.35779V6.21674H12.7228V4.87807H7.35779V0.862061Z" fill="#F50100"/>
<path fill-rule="evenodd" clip-rule="evenodd" d="M5.01512 0.862061H8.36179V3.87407H12.7228V7.22074H8.36179L8.37216 10.2328H5.02548L5.01512 7.22074H0.674805V3.87407H5.01512V0.862061ZM6.01912 4.87807H0.674805V6.21674H6.01912V10.2328H7.35779V6.21674H12.7228V4.87807H7.35779V0.862061H6.01912V4.87807Z" fill="#F7FCFF"/>
</g>
<path fill-rule="evenodd" clip-rule="evenodd" d="M14.3522 7.52344H20.8147V13.1012C20.8147 13.1012 20.2728 15.5555 17.5834 15.5555C14.8941 15.5555 14.3522 13.1012 14.3522 13.1012V7.52344Z" fill="#F7FCFF"/>
<mask id="mask1_58_4240" style="mask-type:luminance" maskUnits="userSpaceOnUse" x="14" y="7" width="7" height="9">
<path fill-rule="evenodd" clip-rule="evenodd" d="M14.3522 7.52344H20.8147V13.1012C20.8147 13.1012 20.2728 15.5555 17.5834 15.5555C14.8941 15.5555 14.3522 13.1012 14.3522 13.1012V7.52344Z" fill="white"/>
</mask>
<g mask="url(#mask1_58_4240)">
<rect x="14.3522" y="7.52344" width="6.46255" height="2.00801" fill="#C3352C"/>
<rect x="17.1218" y="9.30835" width="0.923221" height="6.24713" fill="#C3352C"/>
<rect x="14.3522" y="11.7626" width="6.46255" height="0.892447" fill="#C3352C"/>
<path fill-rule="evenodd" clip-rule="evenodd" d="M16.0526 14.7102C16.4412 15.2595 16.7579 15.4739 16.9817 15.1502C17.139 14.9227 17.1552 14.6952 16.9311 14.6507C16.8011 14.4855 16.7094 14.3566 16.657 14.2668L16.6645 14.2597C16.7274 14.1985 16.7297 14.1171 16.7173 14.0867C16.7126 14.0451 16.7438 13.9886 16.9457 13.8342C17.1286 13.6944 17.2098 13.5627 17.0899 13.4177C17.0269 13.3415 16.9702 13.3262 16.7916 13.2986L16.7367 13.2901C16.6838 13.2816 16.6454 13.2732 16.6212 13.2659L16.497 13.0279C16.2375 13.0199 16.0348 13.0657 15.8131 13.1593C15.7175 13.1996 15.6532 13.227 15.6102 13.2453L15.6102 13.2453C15.5448 13.2732 15.529 13.2799 15.5285 13.2789C15.5284 13.2786 15.5298 13.2775 15.5316 13.276C15.5367 13.272 15.5453 13.2652 15.5329 13.2652C15.4861 13.2652 15.4354 13.2599 15.2949 13.2421L15.2674 13.2386C14.8634 13.1878 14.7622 13.1894 14.6967 13.3775C14.5971 13.6636 15.1868 14.1881 15.4999 14.2511C15.6567 14.2827 15.8443 14.4328 16.0526 14.7102ZM16.4918 14.3163C16.5298 14.3163 16.5591 14.3148 16.5849 14.3078L16.5927 14.2906C16.5717 14.3049 16.5401 14.3163 16.4918 14.3163ZM15.0175 13.5263C15.0092 13.5166 15.007 13.5041 15.0127 13.4875C15.0116 13.491 15.0153 13.4983 15.0232 13.5087L15.0175 13.5263ZM15.0575 13.5476C15.0427 13.5322 15.031 13.5189 15.0232 13.5087L15.0175 13.5262C15.0257 13.5357 15.0396 13.5425 15.0575 13.5476ZM15.5659 13.923C15.4537 13.9004 15.1683 13.663 15.0575 13.5476C15.0866 13.5559 15.1262 13.56 15.1688 13.5643H15.1688C15.1874 13.5663 15.2065 13.5682 15.2256 13.5706L15.2527 13.574C15.4106 13.5941 15.4657 13.5998 15.5329 13.5998C15.5715 13.5998 15.5636 13.6132 15.5587 13.6213C15.5572 13.6238 15.556 13.6258 15.5566 13.6267C15.5589 13.6305 15.5894 13.6176 15.7419 13.5528L15.7419 13.5528C15.7937 13.5308 15.8596 13.5029 15.9432 13.4676C16.0617 13.4175 16.1699 13.3851 16.2887 13.3705C16.3018 13.4266 16.3344 13.4773 16.3875 13.5185C16.4588 13.5738 16.5393 13.597 16.6778 13.6195C16.5057 13.7611 16.4193 13.8796 16.392 13.9952C16.2372 14.0441 16.2513 14.2186 16.3442 14.3929C16.4089 14.5145 16.5313 14.6868 16.7133 14.9146L16.8441 14.9775C16.8055 14.9775 16.7839 14.9598 16.7676 14.9464C16.7469 14.9294 16.7345 14.9193 16.7064 14.9599C16.7045 14.9626 16.5828 14.8802 16.323 14.5131C16.0673 14.1724 15.8193 13.974 15.5659 13.923ZM16.382 14.1236C16.3844 14.1217 16.3841 14.119 16.3839 14.1164L16.3839 14.1164L16.382 14.1236ZM16.4891 13.9817L16.479 13.9819L16.4837 13.9822C16.4855 13.9819 16.4873 13.9818 16.4891 13.9817ZM16.4918 13.9817C16.4909 13.9817 16.49 13.9817 16.4891 13.9817Z" fill="#979797"/>
<path d="M15.4601 11.6133C15.4601 11.6133 15.1407 11.1715 15.1407 11.014" stroke="#964C36" stroke-width="0.669335"/>
<path d="M15.2618 11.2335C15.2618 11.2335 14.8535 11.0592 14.8535 11.2335" stroke="#2A8E51" stroke-width="0.669335"/>
<path d="M15.2551 11.0503C15.2551 11.0503 14.9679 10.6849 14.752 10.6849C14.5361 10.6849 14.5413 10.8676 14.5413 10.8676" stroke="#2A8E51" stroke-width="0.669335"/>
<path d="M15.0912 10.6841C15.0912 10.6841 14.9631 10.0865 14.7578 10.0865C14.5526 10.0865 14.5526 10.3853 14.5526 10.3853" stroke="#2A8E51" stroke-width="0.669335"/>
<path d="M15.1431 10.683C15.1431 10.683 15.0859 10.1709 15.3502 10.1709" stroke="#2A8E51" stroke-width="0.669335"/>
<path d="M15.8656 11.527C15.8656 11.527 15.7166 11.0026 15.7705 10.8546" stroke="#964C36" stroke-width="0.669335"/>
<path d="M15.8092 11.1022C15.8092 11.1022 15.4851 10.7987 15.4255 10.9625" stroke="#2A8E51" stroke-width="0.669335"/>
<path d="M15.8656 10.9277C15.8656 10.9277 15.7207 10.4862 15.5179 10.4123C15.315 10.3385 15.2573 10.5119 15.2573 10.5119" stroke="#2A8E51" stroke-width="0.669335"/>
<path d="M15.8368 10.5276C15.8368 10.5276 15.9207 9.92225 15.7279 9.85205C15.535 9.78186 15.4328 10.0626 15.4328 10.0626" stroke="#2A8E51" stroke-width="0.669335"/>
<path d="M15.8859 10.5442C15.8859 10.5442 16.0074 10.0434 16.2557 10.1338" stroke="#2A8E51" stroke-width="0.669335"/>
<path d="M16.1943 11.7136C16.1943 11.7136 16.406 11.2113 16.3706 11.0579" stroke="#964C36" stroke-width="0.468535"/>
<path d="M16.3022 11.2989C16.3022 11.2989 16.6608 11.0371 16.7 11.207" stroke="#2A8E51" stroke-width="0.468535"/>
<path d="M16.2673 11.1187C16.2673 11.1187 16.4649 10.6982 16.6753 10.6496C16.8856 10.601 16.9217 10.7802 16.9217 10.7802" stroke="#2A8E51" stroke-width="0.468535"/>
<path d="M16.3447 10.7253C16.3447 10.7253 16.3352 10.1142 16.5351 10.068C16.7351 10.0219 16.8023 10.313 16.8023 10.313" stroke="#2A8E51" stroke-width="0.468535"/>
<path d="M16.2939 10.7358C16.2939 10.7358 16.2344 10.2239 15.9769 10.2834" stroke="#2A8E51" stroke-width="0.468535"/>
<path d="M18.8354 11.4068C18.8354 11.4068 18.9974 10.6615 19.4583 10.6615C19.9193 10.6615 20.1255 11.4489 20.1255 11.4489" stroke="#2A8E51" stroke-width="0.468535"/>
<path d="M18.4547 10.8979C18.4547 10.8979 18.7029 10.4577 19.5221 10.4937C20.3412 10.5297 20.4905 10.8979 20.4905 10.8979" stroke="#2A8E51" stroke-width="0.468535"/>
<path d="M18.2892 10.3382C18.2892 10.3382 18.7392 9.7808 19.3698 10.2532L19.5834 10.3382C19.5834 10.3382 19.7977 9.70652 20.8327 10.3382" stroke="#2A8E51" stroke-width="0.468535"/>
<path d="M19.5318 11.5642C19.5318 11.5642 19.5647 10.8686 19.675 10.6775" stroke="#964C36" stroke-width="0.669335"/>
<path d="M20.4423 13.0881C20.4423 13.0881 20.0286 12.8936 19.9048 13.0881C19.781 13.2827 18.2898 15.0706 18.2898 15.0706" stroke="#964C36" stroke-width="0.669335"/>
<path fill-rule="evenodd" clip-rule="evenodd" d="M19.0137 13.2764L19.9379 13.9225C19.9379 13.9225 20.3633 13.619 20.1506 13.4477C19.9379 13.2764 19.3584 12.9744 19.3584 12.9744L19.0137 13.2764Z" fill="#FFF203"/>
<path fill-rule="evenodd" clip-rule="evenodd" d="M18.9817 13.3094C18.9817 13.3094 18.7676 13.5336 18.7676 13.7049C18.7676 13.8762 18.5684 14.3355 18.5684 14.3355C18.5684 14.3355 19.1255 14.6784 19.2412 14.46C19.3569 14.2415 20.1083 14.3723 19.9758 14.0386C19.8432 13.7049 18.9817 13.3094 18.9817 13.3094Z" fill="#00A651"/>
<path fill-rule="evenodd" clip-rule="evenodd" d="M15.0592 8.3148C15.0592 8.3148 15.5527 8.06157 15.797 8.3148C16.0413 8.56804 16.2415 8.29382 16.2415 8.14106C16.2415 7.98831 16.6294 7.4639 16.6294 7.88935C16.6294 8.3148 16.5086 8.55502 16.8496 8.55502C17.1905 8.55502 18.7258 7.96733 19.0939 8.14106C19.4621 8.3148 19.7438 8.27159 19.6502 8.02231C19.5566 7.77302 19.3161 7.61722 18.853 7.75329C18.3898 7.88935 18.4991 8.02231 18.0988 8.02231C17.6986 8.02231 17.253 7.88935 17.253 7.88935C17.253 7.88935 17.3782 7.6658 17.8352 7.82482C18.2922 7.98384 18.9225 7.62788 19.0939 7.62788C19.2654 7.62788 19.7372 7.61722 19.784 7.75329C19.8307 7.88935 20.1156 8.01421 19.8985 8.14106C19.6813 8.26792 19.3232 8.34737 19.5696 8.5099C19.816 8.67242 20.3825 8.6411 20.4098 8.81015C20.4371 8.97921 20.7057 9.23165 20.5979 9.23165C20.4901 9.23165 20.2954 9.46974 20.114 9.39725C19.9326 9.32475 19.9113 9.2611 20.0852 9.20237C20.2591 9.14364 20.2574 8.89668 20.114 8.89668C19.9706 8.89668 20.0406 8.9832 19.714 8.89668C19.3874 8.81015 18.9552 8.71396 18.9812 8.89668C19.0071 9.07939 19.2198 9.35987 18.8275 9.39725C18.4352 9.43463 18.2516 9.5847 18.1752 9.46385C18.0988 9.34299 17.8259 9.18195 18.0405 9.13031C18.2551 9.07867 18.4602 9.30584 18.5375 9.26875C18.6148 9.23165 18.79 9.21101 18.6433 9.05384C18.4965 8.89668 18.2546 8.80415 18.4789 8.68651C18.7032 8.56888 18.5262 8.56646 18.0988 8.81015C17.6715 9.05384 17.4338 9.26094 17.0587 9.23165C16.6835 9.20237 16.543 9.24187 16.4224 9.20237C16.3018 9.16287 15.7145 9.63884 15.5454 9.51804C15.3763 9.39725 14.8303 9.3509 14.9286 9.20237C15.0269 9.05384 15.1588 8.97737 15.3058 9.05384C15.4528 9.13031 15.5988 9.20678 15.6979 9.13031C15.797 9.05384 16.0832 8.79144 16.0112 8.73898C15.9393 8.68651 16.0089 8.5099 15.6013 8.5099C15.1937 8.5099 15.0504 8.70673 14.9536 8.58271C14.8568 8.45869 15.0592 8.3148 15.0592 8.3148Z" fill="#FFD100"/>
</g>
</g>
<defs>
<clipPath id="clip0_58_4240">
<rect width="21.4187" height="16.064" fill="white" transform="translate(0.674805 0.862061)"/>
</clipPath>
<clipPath id="clip1_58_4240">
<rect width="12.048" height="9.37069" fill="white" transform="translate(0.674805 0.862061)"/>
</clipPath>
</defs>
</svg>
