<svg width="23" height="17" viewBox="0 0 23 17" fill="none" xmlns="http://www.w3.org/2000/svg">
<g clip-path="url(#clip0_58_4141)">
<rect width="21.4187" height="16.064" transform="translate(0.837402 0.699463)" fill="white"/>
<path fill-rule="evenodd" clip-rule="evenodd" d="M1.12805 0.66748V16.7315H22.5468V0.66748H1.12805Z" fill="#2E42A5"/>
<mask id="mask0_58_4141" style="mask-type:luminance" maskUnits="userSpaceOnUse" x="1" y="0" width="22" height="17">
<path fill-rule="evenodd" clip-rule="evenodd" d="M1.12805 0.66748V16.7315H22.5468V0.66748H1.12805Z" fill="white"/>
</mask>
<g mask="url(#mask0_58_4141)">
<path d="M-1.25696 15.584L3.45629 17.5773L22.6536 2.83475L25.1398 -0.127379L20.0996 -0.793606L12.2695 5.55937L5.96703 9.83979L-1.25696 15.584Z" fill="white"/>
<path d="M-0.611694 16.9806L1.78949 18.1373L24.247 -0.402541H20.8755L-0.611694 16.9806Z" fill="#F50100"/>
<path d="M24.9318 15.584L20.2185 17.5773L1.02115 2.83475L-1.46498 -0.127379L3.57517 -0.793606L11.4053 5.55937L17.7078 9.83979L24.9318 15.584Z" fill="white"/>
<path d="M24.771 16.5863L22.3698 17.743L12.8072 9.80516L9.97203 8.91828L-1.70414 -0.117208H1.6674L13.337 8.70381L16.4367 9.76728L24.771 16.5863Z" fill="#F50100"/>
<mask id="path-7-inside-1_58_4141" fill="white">
<path fill-rule="evenodd" clip-rule="evenodd" d="M14.3659 -0.671143H9.30875V6.02221H-0.192261V11.3769H9.30875V18.0702H14.3659V11.3769H23.9038V6.02221H14.3659V-0.671143Z"/>
</mask>
<path fill-rule="evenodd" clip-rule="evenodd" d="M14.3659 -0.671143H9.30875V6.02221H-0.192261V11.3769H9.30875V18.0702H14.3659V11.3769H23.9038V6.02221H14.3659V-0.671143Z" fill="#F50100"/>
<path d="M9.30875 -0.671143V-2.00981H7.97008V-0.671143H9.30875ZM14.3659 -0.671143H15.7046V-2.00981H14.3659V-0.671143ZM9.30875 6.02221V7.36088H10.6474V6.02221H9.30875ZM-0.192261 6.02221V4.68354H-1.53093V6.02221H-0.192261ZM-0.192261 11.3769H-1.53093V12.7156H-0.192261V11.3769ZM9.30875 11.3769H10.6474V10.0382H9.30875V11.3769ZM9.30875 18.0702H7.97008V19.4089H9.30875V18.0702ZM14.3659 18.0702V19.4089H15.7046V18.0702H14.3659ZM14.3659 11.3769V10.0382H13.0273V11.3769H14.3659ZM23.9038 11.3769V12.7156H25.2425V11.3769H23.9038ZM23.9038 6.02221H25.2425V4.68354H23.9038V6.02221ZM14.3659 6.02221H13.0273V7.36088H14.3659V6.02221ZM9.30875 0.667528H14.3659V-2.00981H9.30875V0.667528ZM10.6474 6.02221V-0.671143H7.97008V6.02221H10.6474ZM-0.192261 7.36088H9.30875V4.68354H-0.192261V7.36088ZM1.14641 11.3769V6.02221H-1.53093V11.3769H1.14641ZM9.30875 10.0382H-0.192261V12.7156H9.30875V10.0382ZM10.6474 18.0702V11.3769H7.97008V18.0702H10.6474ZM14.3659 16.7316H9.30875V19.4089H14.3659V16.7316ZM13.0273 11.3769V18.0702H15.7046V11.3769H13.0273ZM23.9038 10.0382H14.3659V12.7156H23.9038V10.0382ZM22.5651 6.02221V11.3769H25.2425V6.02221H22.5651ZM14.3659 7.36088H23.9038V4.68354H14.3659V7.36088ZM13.0273 -0.671143V6.02221H15.7046V-0.671143H13.0273Z" fill="white" mask="url(#path-7-inside-1_58_4141)"/>
</g>
</g>
<defs>
<clipPath id="clip0_58_4141">
<rect width="21.4187" height="16.064" fill="white" transform="translate(0.837402 0.699463)"/>
</clipPath>
</defs>
</svg>
