<svg width="22" height="17" viewBox="0 0 22 17" fill="none" xmlns="http://www.w3.org/2000/svg">
<g clip-path="url(#clip0_58_4103)">
<rect width="21.4187" height="16.064" transform="translate(0.512329 0.699463)" fill="white"/>
<path fill-rule="evenodd" clip-rule="evenodd" d="M0.802979 0.66748H22.2217V16.7315H0.802979V0.66748Z" fill="#C51918"/>
<path fill-rule="evenodd" clip-rule="evenodd" d="M4.81897 4.68347H18.2057V12.7155H4.81897V4.68347Z" fill="#FECA00"/>
<mask id="mask0_58_4103" style="mask-type:luminance" maskUnits="userSpaceOnUse" x="4" y="4" width="15" height="9">
<path fill-rule="evenodd" clip-rule="evenodd" d="M4.81897 4.68347H18.2057V12.7155H4.81897V4.68347Z" fill="white"/>
</mask>
<g mask="url(#mask0_58_4103)">
<path fill-rule="evenodd" clip-rule="evenodd" d="M4.81897 4.68347L11.5123 8.69948L4.81897 12.7155V4.68347Z" fill="#23875F"/>
<path fill-rule="evenodd" clip-rule="evenodd" d="M18.2057 4.68347L11.5123 8.69948L18.2057 12.7155V4.68347Z" fill="#23875F"/>
<mask id="mask1_58_4103" style="mask-type:luminance" maskUnits="userSpaceOnUse" x="11" y="4" width="8" height="9">
<path fill-rule="evenodd" clip-rule="evenodd" d="M18.2057 4.68347L11.5123 8.69948L18.2057 12.7155V4.68347Z" fill="white"/>
</mask>
<g mask="url(#mask1_58_4103)">
</g>
<path fill-rule="evenodd" clip-rule="evenodd" d="M11.5123 11.3768C12.991 11.3768 14.1896 10.1781 14.1896 8.69943C14.1896 7.22078 12.991 6.02209 11.5123 6.02209C10.0336 6.02209 8.83496 7.22078 8.83496 8.69943C8.83496 10.1781 10.0336 11.3768 11.5123 11.3768Z" fill="#C51918"/>
<path fill-rule="evenodd" clip-rule="evenodd" d="M11.4651 9.5785L10.0789 10.5399L10.5218 8.89321L9.50427 7.84127L10.8821 7.78439L11.4651 6.15601L12.048 7.78439H13.4235L12.4083 8.89321L12.9167 10.4428L11.4651 9.5785Z" fill="#FECA00"/>
</g>
<path fill-rule="evenodd" clip-rule="evenodd" d="M6.67749 3.64077L7.43502 3.17103L8.22836 3.59329L7.95049 2.83622L8.50532 2.29448H7.7536L7.43502 1.4989L7.11644 2.29448L6.36345 2.32227L6.91955 2.83622L6.67749 3.64077ZM10.6935 3.64077L11.451 3.17103L12.2444 3.59329L11.9665 2.83622L12.5213 2.29448H11.7696L11.451 1.4989L11.1325 2.29448L10.3795 2.32227L10.9356 2.83622L10.6935 3.64077ZM15.467 3.17103L14.7095 3.64077L14.9516 2.83622L14.3955 2.32227L15.1485 2.29448L15.467 1.4989L15.7856 2.29448H16.5373L15.9825 2.83622L16.2604 3.59329L15.467 3.17103ZM6.67684 15.5048L7.43437 15.0351L8.22771 15.4573L7.94984 14.7003L8.50467 14.1585H7.75295L7.43437 13.3629L7.11579 14.1585L6.36279 14.1863L6.9189 14.7003L6.67684 15.5048ZM11.4504 15.0351L10.6929 15.5048L10.9349 14.7003L10.3788 14.1863L11.1318 14.1585L11.4504 13.3629L11.769 14.1585H12.5207L11.9659 14.7003L12.2437 15.4573L11.4504 15.0351ZM14.7089 15.5048L15.4664 15.0351L16.2597 15.4573L15.9819 14.7003L16.5367 14.1585H15.785L15.4664 13.3629L15.1478 14.1585L14.3948 14.1863L14.9509 14.7003L14.7089 15.5048Z" fill="#FECA00"/>
<path fill-rule="evenodd" clip-rule="evenodd" d="M6.58254 9.21616C6.58254 9.21616 6.94302 9.53707 7.13935 9.64633C7.20705 9.38976 7.056 8.80848 7.056 8.80848C7.01362 8.66953 6.54877 8.42041 6.54877 8.42041C6.54877 8.42041 6.41821 8.85906 6.58254 9.21616Z" fill="#C51918"/>
<path fill-rule="evenodd" clip-rule="evenodd" d="M6.95804 9.99137C6.95804 9.99137 6.03219 9.55893 5.93811 8.9473C5.84402 8.33566 6.04355 7.3606 6.04355 7.3606C6.04355 7.3606 7.54702 7.70274 7.64931 8.4358C7.75159 9.16886 7.41201 9.62938 7.41201 9.62938C7.41201 9.62938 7.06426 8.73576 6.7361 8.63664C6.7361 8.63664 6.7361 9.52227 6.95804 9.99137Z" fill="#FECA00"/>
</g>
<defs>
<clipPath id="clip0_58_4103">
<rect width="21.4187" height="16.064" fill="white" transform="translate(0.512329 0.699463)"/>
</clipPath>
</defs>
</svg>
