<svg width="23" height="17" viewBox="0 0 23 17" fill="none" xmlns="http://www.w3.org/2000/svg">
<g clip-path="url(#clip0_58_4018)">
<rect width="21.4187" height="16.064" transform="translate(0.699463 0.699463)" fill="white"/>
<rect x="0.990112" y="0.66748" width="21.4187" height="16.064" fill="#F7FCFF"/>
<path fill-rule="evenodd" clip-rule="evenodd" d="M0.990112 11.377H22.4088V16.7316H0.990112V11.377Z" fill="#C51918"/>
<path fill-rule="evenodd" clip-rule="evenodd" d="M12.6292 4.01428H10.1006V7.10356H9.46845V5.25H6.93985V7.10356H5.67554V7.72141H6.3077V10.8106H16.4221V7.72141H17.0542V7.10356H15.79V5.25H13.2614V7.10356H12.6292V4.01428ZM17.0542 10.8106H5.67554V11.4285H17.0542V10.8106Z" fill="#DB000B"/>
<path d="M7.57202 6.41677C7.57202 6.11358 7.8178 5.8678 8.12099 5.8678V5.8678C8.42418 5.8678 8.66997 6.11358 8.66997 6.41677V7.22706H7.57202V6.41677Z" fill="#272727"/>
<path d="M13.8936 6.41677C13.8936 6.11358 14.1393 5.8678 14.4425 5.8678V5.8678C14.7457 5.8678 14.9915 6.11358 14.9915 6.41677V7.22706H13.8936V6.41677Z" fill="#272727"/>
<path fill-rule="evenodd" clip-rule="evenodd" d="M7.39392 9.684C7.39392 9.28251 7.7194 8.95703 8.12089 8.95703V8.95703C8.52239 8.95703 8.84787 9.28251 8.84787 9.684V10.9341H7.39392V9.684Z" fill="#272727"/>
<path d="M13.7155 9.684C13.7155 9.28251 14.0409 8.95703 14.4424 8.95703V8.95703C14.8439 8.95703 15.1694 9.28251 15.1694 9.684V10.9341H13.7155V9.684Z" fill="#272727"/>
<path fill-rule="evenodd" clip-rule="evenodd" d="M10.2903 9.79695C10.2903 9.28244 10.7074 8.86536 11.2219 8.86536V8.86536C11.7364 8.86536 12.1535 9.28244 12.1535 9.79695V11.5839H10.2903V9.79695Z" fill="#272727"/>
<path d="M10.7327 5.79885C10.7327 5.49566 10.9784 5.24988 11.2816 5.24988V5.24988C11.5848 5.24988 11.8306 5.49566 11.8306 5.79885V7.22699H10.7327V5.79885Z" fill="#272727"/>
<rect x="5.67554" y="6.4856" width="0.63215" height="0.617848" fill="#DE1A23"/>
<path fill-rule="evenodd" clip-rule="evenodd" d="M9.23516 4.68359H9.90449V5.35293H9.23516V4.68359ZM6.67957 4.68362H7.3489V5.35296H6.67957V4.68362ZM8.8549 4.68359H7.8509V5.35293H8.8549V4.68359Z" fill="#DE1A23"/>
<path fill-rule="evenodd" clip-rule="evenodd" d="M15.5938 4.68359H16.2631V5.35293H15.5938V4.68359ZM13.0989 4.68362H13.7682V5.35296H13.0989V4.68362ZM15.1828 4.68359H14.1788V5.35293H15.1828V4.68359Z" fill="#DE1A23"/>
<path fill-rule="evenodd" clip-rule="evenodd" d="M11.2308 3.36011H10.5615V4.02944H11.2308V3.36011ZM10.2268 3.36012H9.5575V4.02946H10.2268V3.36012ZM11.5655 3.36011H12.2348V4.02944H11.5655V3.36011ZM13.2388 3.36011H12.5695V4.02944H13.2388V3.36011Z" fill="#DE1A23"/>
<rect x="16.3845" y="6.54077" width="0.669335" height="0.561369" fill="#DE1A23"/>
<path fill-rule="evenodd" clip-rule="evenodd" d="M11.3244 13.0189L13.1401 11.8316L11.2029 10.9257L9.26562 12.0392L11.3244 13.0189ZM10.6155 11.9402L11.2095 11.5421L11.8371 11.884L11.2727 12.253L10.6155 11.9402Z" fill="#E8AA00"/>
<path fill-rule="evenodd" clip-rule="evenodd" d="M10.0099 14.7281H10.9963V15.4691V15.219H10.3833V15.4691H10.0099V14.7281Z" fill="#E8AA00"/>
<path fill-rule="evenodd" clip-rule="evenodd" d="M10.9069 12.7916H11.7441V15.469H10.9069V12.7916Z" fill="#E8AA00"/>
</g>
<defs>
<clipPath id="clip0_58_4018">
<rect width="21.4187" height="16.064" fill="white" transform="translate(0.699463 0.699463)"/>
</clipPath>
</defs>
</svg>
