<svg width="23" height="17" viewBox="0 0 23 17" fill="none" xmlns="http://www.w3.org/2000/svg">
<g clip-path="url(#clip0_58_3943)">
<rect width="21.4187" height="16.064" transform="translate(0.674805 0.536865)" fill="white"/>
<path d="M0.674805 0.536865V5.22221H22.0935V0.536865L0.674805 0.536865Z" fill="#002488"/>
<path d="M0.675293 5.22217V16.6009H22.094V5.22217L0.675293 5.22217Z" fill="#DA121A"/>
<path d="M4.0403 1.06537C3.78448 1.48723 3.75396 1.82467 3.92855 2.40735C4.01262 2.67927 4.10496 3.08533 4.14376 3.30545C4.19549 3.61622 4.19007 3.64576 4.19734 3.71333C4.262 3.71333 4.40895 3.71358 4.4769 3.71317C4.48667 3.60558 4.49457 3.4814 4.51751 3.31063C4.54426 3.11152 4.62359 2.69509 4.70891 2.40585C4.87941 1.82786 4.86799 1.47325 4.60287 1.07184C4.50587 0.922937 4.37655 0.799927 4.31835 0.799927C4.26015 0.799927 4.1285 0.913617 4.0403 1.06537Z" fill="#FCDD09"/>
<path d="M4.59767 3.43721C4.5757 3.54852 4.57034 3.58781 4.55933 3.71327C4.63771 3.71359 4.66851 3.71412 4.74492 3.71366C4.76164 3.62927 4.77369 3.58471 4.81055 3.46492C4.95668 3.00162 5.38709 2.81568 5.36769 3.24946C5.36122 3.36923 5.31073 3.43611 5.25453 3.50032C5.324 3.48297 5.47154 3.41403 5.59117 3.34605C6.2572 2.94465 5.99492 1.96109 5.29656 2.2589C4.93444 2.41428 4.71664 2.84443 4.59767 3.43721Z" fill="#FCDD09"/>
<path d="M3.81689 3.87653C4.10914 3.87802 4.61423 3.88071 4.85683 3.87922C4.85711 3.80726 4.85802 3.84398 4.85861 3.78583C4.68001 3.78411 3.9961 3.78695 3.81828 3.78695C3.81869 3.82457 3.81787 3.84278 3.81689 3.87653L3.81689 3.87653Z" fill="#FCDD09"/>
<path d="M3.63293 4.40577C3.63293 4.40577 3.77851 4.42215 3.91428 4.41224C4.05004 4.40233 4.12538 4.38536 4.20561 4.34634C4.18383 4.50832 4.18258 4.66474 4.18258 4.66474C4.20232 4.87319 4.22467 4.92654 4.26981 5.02799C4.33107 5.11262 4.36669 5.11308 4.41173 5.02372C4.4604 4.92366 4.49244 4.82075 4.5026 4.66376C4.49907 4.5461 4.4925 4.49219 4.46467 4.34836C4.55861 4.38906 4.61794 4.39961 4.75808 4.41224C4.90149 4.42517 5.03331 4.41883 5.03331 4.41883C5.03331 4.41883 4.83959 4.32149 4.75433 4.20212C4.67016 4.08428 4.68811 4.10431 4.62691 3.95251C4.55255 3.94898 4.17552 3.95245 4.05589 3.95245C3.99037 4.09085 3.98378 4.11975 3.90285 4.20708C3.7975 4.32077 3.63293 4.40577 3.63293 4.40577Z" fill="#FCDD09"/>
<path d="M3.37057 2.25866C3.73268 2.41404 3.95048 2.84418 4.06945 3.43697C4.09142 3.54828 4.09678 3.58757 4.1078 3.71302C4.02942 3.71334 3.99861 3.71388 3.92221 3.71342C3.90548 3.62902 3.89344 3.58447 3.85657 3.46468C3.71044 3.00138 3.28004 2.81544 3.29944 3.24921C3.3059 3.36899 3.35639 3.43586 3.41259 3.50007C3.34312 3.48273 3.19558 3.41379 3.07596 3.34581C2.40992 2.94441 2.6722 1.96084 3.37057 2.25866V2.25866Z" fill="#FCDD09"/>
<path d="M10.7337 1.06537C10.4778 1.48723 10.4473 1.82467 10.6219 2.40735C10.706 2.67927 10.7983 3.08533 10.8371 3.30545C10.8888 3.61622 10.8834 3.64576 10.8907 3.71333C10.9554 3.71333 11.1023 3.71358 11.1703 3.71317C11.18 3.60558 11.1879 3.4814 11.2109 3.31063C11.2376 3.11152 11.3169 2.69509 11.4023 2.40585C11.5728 1.82786 11.5614 1.47325 11.2962 1.07184C11.1992 0.922937 11.0699 0.799927 11.0117 0.799927C10.9535 0.799927 10.8219 0.913617 10.7337 1.06537Z" fill="#FCDD09"/>
<path d="M11.9899 2.2589C11.6278 2.41428 11.41 2.84443 11.291 3.43721C11.2691 3.54852 11.2637 3.58781 11.2527 3.71327C11.3311 3.71359 11.3619 3.71412 11.4383 3.71366C11.455 3.62927 11.467 3.58471 11.5039 3.46492C11.65 3.00162 12.0804 2.81568 12.061 3.24946C12.0546 3.36923 12.0041 3.43611 11.9479 3.50032C12.0174 3.48297 12.1649 3.41403 12.2845 3.34605C12.9506 2.94465 12.6883 1.96109 11.9899 2.2589V2.2589Z" fill="#FCDD09"/>
<path d="M10.5103 3.87653C10.8025 3.87802 11.3076 3.88071 11.5502 3.87922C11.5505 3.80726 11.5514 3.84398 11.552 3.78583C11.3734 3.78411 10.6895 3.78695 10.5116 3.78695C10.512 3.82457 10.5112 3.84278 10.5103 3.87653L10.5103 3.87653Z" fill="#FCDD09"/>
<path d="M10.5962 4.20708C10.4909 4.32077 10.3263 4.40577 10.3263 4.40577C10.3263 4.40577 10.4719 4.42215 10.6076 4.41224C10.7434 4.40233 10.8187 4.38536 10.899 4.34634C10.8772 4.50832 10.8759 4.66474 10.8759 4.66474C10.8957 4.87319 10.918 4.92654 10.9632 5.02799C11.0244 5.11262 11.0601 5.11308 11.1051 5.02372C11.1538 4.92366 11.1858 4.82075 11.196 4.66376C11.1924 4.5461 11.1859 4.49219 11.158 4.34836C11.252 4.38906 11.3113 4.39961 11.4514 4.41224C11.5949 4.42517 11.7267 4.41883 11.7267 4.41883C11.7267 4.41883 11.533 4.32149 11.4477 4.20212C11.3635 4.08428 11.3815 4.10431 11.3203 3.95251C11.2459 3.94898 10.8689 3.95245 10.7492 3.95245C10.6837 4.09085 10.6771 4.11975 10.5962 4.20708V4.20708Z" fill="#FCDD09"/>
<path d="M10.0638 2.25866C10.4259 2.41404 10.6437 2.84418 10.7627 3.43697C10.7847 3.54828 10.79 3.58757 10.801 3.71302C10.7227 3.71334 10.6918 3.71388 10.6154 3.71342C10.5987 3.62902 10.5867 3.58447 10.5498 3.46468C10.4037 3.00138 9.97327 2.81544 9.99267 3.24921C9.99914 3.36899 10.0496 3.43586 10.1058 3.50007C10.0364 3.48273 9.88882 3.41379 9.76919 3.34581C9.10316 2.94441 9.36544 1.96084 10.0638 2.25866V2.25866Z" fill="#FCDD09"/>
<path d="M17.427 1.06537C17.1712 1.48723 17.1407 1.82467 17.3153 2.40735C17.3993 2.67927 17.4917 3.08533 17.5305 3.30545C17.5822 3.61622 17.5768 3.64576 17.5841 3.71333C17.6487 3.71333 17.7957 3.71358 17.8636 3.71317C17.8734 3.60558 17.8813 3.4814 17.9042 3.31063C17.931 3.11152 18.0103 2.69509 18.0956 2.40585C18.2661 1.82786 18.2547 1.47325 17.9896 1.07184C17.8926 0.922937 17.7633 0.799927 17.7051 0.799927C17.6469 0.799927 17.5152 0.913617 17.427 1.06537Z" fill="#FCDD09"/>
<path d="M18.6833 2.2589C18.3212 2.41428 18.1034 2.84443 17.9844 3.43721C17.9624 3.54852 17.9571 3.58781 17.946 3.71327C18.0244 3.71359 18.0552 3.71412 18.1316 3.71366C18.1484 3.62927 18.1604 3.58471 18.1973 3.46492C18.3434 3.00162 18.7738 2.81568 18.7544 3.24946C18.7479 3.36923 18.6975 3.43611 18.6413 3.50032C18.7107 3.48297 18.8583 3.41403 18.9779 3.34605C19.6439 2.94465 19.3816 1.96109 18.6833 2.2589V2.2589Z" fill="#FCDD09"/>
<path d="M17.2036 3.87653C17.4959 3.87802 18.001 3.88071 18.2435 3.87922C18.2438 3.80726 18.2447 3.84398 18.2453 3.78583C18.0667 3.78411 17.3828 3.78695 17.205 3.78695C17.2054 3.82457 17.2046 3.84278 17.2036 3.87653L17.2036 3.87653Z" fill="#FCDD09"/>
<path d="M17.2896 4.20708C17.1842 4.32077 17.0197 4.40577 17.0197 4.40577C17.0197 4.40577 17.1652 4.42215 17.301 4.41224C17.4368 4.40233 17.5121 4.38536 17.5923 4.34634C17.5705 4.50832 17.5693 4.66474 17.5693 4.66474C17.589 4.87319 17.6114 4.92654 17.6565 5.02799C17.7178 5.11262 17.7534 5.11308 17.7984 5.02372C17.8471 4.92366 17.8792 4.82075 17.8893 4.66376C17.8858 4.5461 17.8792 4.49219 17.8514 4.34836C17.9453 4.38906 18.0047 4.39961 18.1448 4.41224C18.2882 4.42517 18.42 4.41883 18.42 4.41883C18.42 4.41883 18.2263 4.32149 18.141 4.20212C18.0569 4.08428 18.0748 4.10431 18.0136 3.95251C17.9393 3.94898 17.5622 3.95245 17.4426 3.95245C17.3771 4.09085 17.3705 4.11975 17.2896 4.20708V4.20708Z" fill="#FCDD09"/>
<path d="M16.7572 2.25866C17.1193 2.41404 17.3371 2.84418 17.456 3.43697C17.478 3.54828 17.4834 3.58757 17.4944 3.71302C17.416 3.71334 17.3852 3.71388 17.3088 3.71342C17.2921 3.62902 17.28 3.58447 17.2432 3.46468C17.097 3.00138 16.6666 2.81544 16.686 3.24921C16.6925 3.36899 16.743 3.43586 16.7992 3.50007C16.7297 3.48273 16.5822 3.41379 16.4626 3.34581C15.7965 2.94441 16.0588 1.96084 16.7572 2.25866V2.25866Z" fill="#FCDD09"/>
<path d="M8.23747 9.32415C8.37787 9.38969 8.55714 9.44133 8.64754 9.44438C8.75439 9.44798 8.72602 9.42169 8.52661 9.34403C8.37052 9.28303 8.18384 9.18047 8.10097 9.11688C7.95242 8.99533 7.95242 8.99533 7.96799 9.10226C7.97688 9.16336 8.08885 9.25834 8.23747 9.32415V9.32415Z" fill="#008000"/>
<path d="M7.36413 8.06103C7.45466 8.42359 7.82971 9.09043 7.95904 9.11633C8.07544 9.13575 8.07544 9.12928 7.97844 9.01922C7.81678 8.83146 7.4676 8.1452 7.4676 8.01571C7.4676 7.94449 7.43527 7.8927 7.39647 7.8927C7.3512 7.8927 7.33827 7.95744 7.36413 8.06103V8.06103Z" fill="#008000"/>
<path d="M3.47733 7.60633C3.47508 7.61908 3.59646 7.71283 3.74856 7.81857C3.90065 7.92431 4.07785 8.07392 4.13667 8.15005C4.23746 8.28618 4.80837 8.62363 4.86193 8.5805C4.91437 8.54374 4.17897 7.94715 3.86804 7.77392C3.49792 7.56395 3.48519 7.5617 3.47733 7.60633V7.60633Z" fill="#008000"/>
<path d="M3.68567 8.10443C3.68567 8.11738 3.82146 8.1886 3.98959 8.26629C4.15771 8.34398 4.35817 8.46051 4.4293 8.52526C4.55216 8.64179 5.17294 8.87486 5.2182 8.82307C5.26346 8.77775 4.43577 8.31808 4.09952 8.20154C3.6986 8.05911 3.68567 8.05911 3.68567 8.10443Z" fill="#008000"/>
<path d="M6.88745 8.15622C6.88745 8.22744 7.13964 8.71948 7.28837 8.92665C7.37243 9.04319 7.46942 9.10793 7.57935 9.10793C7.74101 9.10793 7.74101 9.10793 7.49529 8.82954C7.35303 8.68063 7.16551 8.45404 7.06851 8.33103C6.97151 8.20801 6.88745 8.13032 6.88745 8.15622H6.88745Z" fill="#008000"/>
<path d="M5.84641 10.1494C5.41963 10.3177 5.3291 10.376 5.3291 10.4666C5.3291 10.5055 5.37437 10.499 5.4455 10.4407C5.50369 10.3825 5.71708 10.3048 5.91108 10.2595C6.10507 10.2141 6.33786 10.1364 6.42839 10.0911L6.59004 10.007H6.39605C6.29259 10.0134 6.0404 10.0782 5.84641 10.1494V10.1494Z" fill="#008000"/>
<path d="M5.00025 9.1348C4.89032 9.21896 4.89679 9.22544 5.13604 9.18659C5.27831 9.16717 5.48523 9.12833 5.58869 9.10243C5.75682 9.05711 5.74388 9.05063 5.4529 9.04416C5.25891 9.03769 5.07785 9.07653 5.00025 9.1348Z" fill="#008000"/>
<path d="M3.39373 8.45406C4.46068 8.64829 6.60105 9.36693 6.47172 9.48994C6.43939 9.52231 5.83802 9.3734 5.75396 9.31513C5.72162 9.28276 5.40477 9.29571 5.05559 9.34103C4.40248 9.41224 4.29255 9.47051 4.30549 9.73596C4.31195 9.86544 4.31195 9.86544 4.34429 9.73596C4.40248 9.49641 4.49948 9.44462 4.86806 9.44462C5.26898 9.44462 6.36826 9.60647 6.85324 9.73596C7.49988 9.91724 7.51928 9.91724 7.30589 9.8007C7.02783 9.64532 6.60752 9.36045 6.52992 9.27629C6.38766 9.11443 3.80758 8.40226 3.43253 8.41521C3.25793 8.42816 3.25147 8.42816 3.39373 8.45406Z" fill="#008000"/>
<path d="M3.88425 8.79908C3.80666 8.85735 3.72259 8.99331 3.7032 9.10337C3.6644 9.29112 3.6644 9.29112 3.76786 9.16811C4.03945 8.82498 4.05885 8.81203 4.3951 8.80556C4.66669 8.79908 4.70548 8.78613 4.57616 8.74729C4.30457 8.66312 4.03298 8.68254 3.88425 8.79908Z" fill="#008000"/>
<path d="M7.18023 9.19861C7.23196 9.28925 7.73634 9.54175 7.77514 9.5029C7.79453 9.48348 7.73634 9.43169 7.65874 9.38637C7.57468 9.34105 7.46475 9.26983 7.41948 9.21804C7.31602 9.12092 7.12203 9.1015 7.18023 9.19861V9.19861Z" fill="#008000"/>
<path d="M7.21917 9.81373C7.2709 9.90436 7.77528 10.1569 7.81408 10.118C7.83347 10.0986 7.77528 10.0468 7.69768 10.0015C7.61362 9.95616 7.50369 9.88494 7.45842 9.83315C7.35496 9.73603 7.16097 9.71661 7.21917 9.81373V9.81373Z" fill="#008000"/>
<path d="M6.49634 9.04283C6.50564 9.03383 6.65114 9.08216 6.82375 9.14928C6.99635 9.2164 7.21933 9.27982 7.31526 9.28607C7.48433 9.29361 8.08301 9.57879 8.07724 9.64737C8.07612 9.71145 7.1709 9.43464 6.85359 9.27343C6.47276 9.08362 6.46377 9.07431 6.49634 9.04283Z" fill="#008000"/>
<path d="M7.56735 9.51596C7.44671 9.56264 7.3254 9.64706 7.28771 9.70746C7.24316 9.77883 7.28086 9.77951 7.43645 9.70127C7.55845 9.64018 7.7346 9.59006 7.83125 9.58182C8.0122 9.57288 8.0122 9.57288 7.89704 9.50083C7.83123 9.45966 7.69141 9.46379 7.56735 9.51596V9.51596Z" fill="#008000"/>
<path d="M4.54103 7.33406C4.74148 7.71604 5.55625 8.59654 6.00889 8.9332C6.13175 9.02384 6.35161 9.11448 6.4874 9.1339L6.73959 9.17274L6.55207 8.96557C6.24815 8.63538 5.78257 8.00091 5.63384 7.72252C5.47218 7.41823 5.45278 7.49592 5.58858 7.88437C5.64031 8.03975 5.84723 8.35052 6.04769 8.57064C6.24815 8.79724 6.37748 8.98499 6.34514 8.98499C6.26108 8.98499 5.71791 8.34404 5.32992 7.78726C4.90961 7.17868 4.89021 7.15926 5.0066 7.49592C5.0648 7.65777 5.19413 7.89732 5.30406 8.0268C5.40752 8.16276 5.47218 8.27283 5.43985 8.27283C5.37519 8.27283 5.09067 7.94911 4.73502 7.48297C4.63802 7.34701 4.50223 7.17221 4.44403 7.09452C4.37937 7.01035 4.42463 7.12041 4.54103 7.33406V7.33406Z" fill="#008000"/>
<path d="M4.91982 9.8396C4.64177 9.90434 4.49304 10.0015 4.49304 10.118C4.49304 10.1633 4.51891 10.1568 4.55124 10.105C4.60297 10.0209 5.13321 9.8655 5.18494 9.91729C5.19788 9.93024 5.17848 10.0274 5.13968 10.1245C5.10088 10.2216 5.08795 10.3187 5.10735 10.3381C5.12675 10.364 5.15908 10.3122 5.17848 10.241C5.25607 9.96261 5.49533 9.87844 6.07084 9.93024C6.36182 9.95614 6.68514 9.98851 6.7886 9.99498C6.89853 10.0015 7.04726 10.0403 7.12486 10.0856C7.29298 10.1763 7.94609 10.1827 7.88789 10.0921C7.86849 10.0597 7.74563 10.0144 7.60983 9.99498C7.48051 9.97556 7.20892 9.91082 7.00846 9.85902C6.60755 9.75543 5.3272 9.74249 4.91982 9.8396V9.8396Z" fill="#008000"/>
<path d="M7.28113 10.5869C6.79377 10.4998 6.56199 10.5776 6.36486 10.8818L6.19666 11.1431L6.41298 10.9377C6.70686 10.652 6.92043 10.6244 7.44868 10.7781C7.69579 10.8513 7.90536 10.8991 7.91259 10.8884C7.95237 10.8293 7.53559 10.626 7.28113 10.5869Z" fill="#008000"/>
<path d="M7.41395 10.7228C6.96131 10.9235 6.81258 11.1177 6.81905 11.4803L6.82551 11.7911L6.89018 11.4997C6.97424 11.0983 7.1359 10.9559 7.65968 10.7876C7.9054 10.7099 8.10586 10.6322 8.10586 10.6192C8.10586 10.548 7.64674 10.6127 7.41395 10.7228Z" fill="#008000"/>
<path d="M7.32818 11.2787C7.25058 11.3823 7.19238 11.5182 7.19238 11.5895C7.19238 11.6736 7.22471 11.6542 7.31524 11.5053C7.38637 11.3888 7.50924 11.2528 7.58683 11.1945C7.73556 11.0909 7.73556 11.0909 7.59976 11.0909C7.52217 11.0909 7.40577 11.1686 7.32818 11.2787V11.2787Z" fill="#008000"/>
<path d="M14.3193 12.3338C14.5293 12.4249 15.6187 12.6999 16.3895 12.9259C17.1603 13.1519 18.0615 13.4121 18.261 13.4402C18.5461 12.8179 18.0272 13.9818 18.3234 13.2764C17.9384 13.1783 16.421 12.8208 15.8121 12.6456C15.2871 12.4985 14.5424 12.2689 14.3517 12.2269C14.1609 12.1848 14.1583 12.2637 14.3193 12.3338Z" fill="#008000"/>
<path d="M14.4526 12.1723C14.6656 12.256 15.7639 12.4928 16.5421 12.6917C17.3204 12.8907 18.2301 13.1192 18.4304 13.1403C18.6937 12.5084 18.2157 13.6897 18.4871 12.9744C18.0989 12.8898 16.57 12.5856 15.9553 12.4318C15.4255 12.3031 14.6733 12.0997 14.4812 12.0643C14.2891 12.0289 14.2892 12.1079 14.4526 12.1723V12.1723Z" fill="#008000"/>
<path d="M14.1509 12.4511C14.3558 12.5531 15.4294 12.8849 16.1873 13.151C16.9452 13.4171 17.8316 13.7241 18.0294 13.7626C18.3467 13.1561 17.7676 14.2912 18.1002 13.6023C17.7209 13.4842 16.2243 13.0477 15.6253 12.8408C15.1088 12.6663 14.3771 12.3981 14.1888 12.3461C14.0005 12.2941 13.9938 12.3727 14.1509 12.4511Z" fill="#008000"/>
<path d="M14.0201 12.5837C14.2194 12.6963 15.2742 13.0839 16.0171 13.3893C16.7601 13.6947 17.6293 14.0478 17.8247 14.0966C18.1733 13.5076 17.5357 14.6107 17.9039 13.9402C17.5312 13.8024 16.0595 13.2881 15.4721 13.0501C14.9654 12.8488 14.2488 12.5425 14.0635 12.4808C13.8782 12.419 13.8673 12.4972 14.0201 12.5837V12.5837Z" fill="#008000"/>
<path d="M13.897 12.7507C14.0923 12.8702 15.1329 13.2944 15.8648 13.6256C16.5967 13.9568 17.4529 14.34 17.6466 14.3956C18.0154 13.8191 17.3398 14.8994 17.7311 14.2421C17.3635 14.0913 15.9106 13.5259 15.3319 13.2675C14.8325 13.0487 14.127 12.7176 13.9439 12.6494C13.7609 12.5811 13.7473 12.6589 13.897 12.7507V12.7507Z" fill="#008000"/>
<path d="M11.7156 14.4289C12.0159 14.6383 12.181 14.9293 12.1646 15.2297L12.1536 15.4777L12.2521 15.2337C12.3599 14.9783 12.3451 14.5915 12.2177 14.3051L12.1434 14.1381L12.3794 14.2409C12.7165 14.3833 12.9385 14.6335 12.9849 14.9308L13.0255 15.1758L13.0712 14.9165C13.1236 14.6441 13.0289 14.2691 12.8448 14.0154L12.7374 13.8674L12.9896 13.9189C13.3489 13.988 13.618 14.1866 13.7251 14.4678L13.8158 14.6989L13.8066 14.4357C13.8013 14.1585 13.6307 13.8113 13.398 13.6015L13.2622 13.4791L13.5196 13.477C13.8854 13.4698 14.1899 13.608 14.353 13.8608L14.4896 14.068L14.426 13.8125C14.3633 13.5425 14.1243 13.2384 13.8531 13.0816L13.6949 12.9901L13.9462 12.9345C14.3025 12.8512 14.6291 12.9231 14.8411 13.1364L15.0178 13.3106L14.9025 13.0739C14.7851 12.8228 14.4881 12.575 14.1903 12.4782L14.0165 12.4217L14.2508 12.315C14.582 12.1594 14.9163 12.1617 15.1681 12.3261L15.3771 12.4598L15.2152 12.2523C15.0482 12.0311 14.7063 11.8506 14.3948 11.8179L14.2132 11.7988L14.4202 11.6456C14.7118 11.4245 15.0394 11.3571 15.3197 11.4656L15.5519 11.5528L15.3505 11.3835C15.1412 11.2019 14.7693 11.0965 14.4578 11.1294L14.2762 11.1484L14.4468 10.9555C14.6862 10.6785 14.9926 10.5445 15.2893 10.5922L15.5346 10.6291L15.3023 10.5056C15.0599 10.3715 14.6743 10.3458 14.3764 10.4427L14.2027 10.4992L14.3295 10.2751C14.5061 9.95424 14.778 9.75937 15.0781 9.74422L15.3257 9.72936L15.0729 9.65681C14.8079 9.57618 14.4254 9.63138 14.1542 9.78807L13.996 9.87952L14.0735 9.63383C14.1797 9.28329 14.4051 9.03612 14.6956 8.95884L14.9346 8.89274L14.6723 8.87441C14.3963 8.85065 14.0336 8.98419 13.8009 9.194L13.6652 9.3164L13.69 9.05997C13.721 8.69489 13.8902 8.40625 14.1583 8.27013L14.3784 8.15577L14.118 8.19239C13.8431 8.22661 13.5161 8.43278 13.332 8.68644L13.2247 8.83444L13.1957 8.57841C13.1502 8.21497 13.2557 7.89726 13.4897 7.70843L13.6812 7.55072L13.4341 7.64074C13.1724 7.73142 12.8953 8.00116 12.7679 8.2876L12.6936 8.45475L12.6121 8.21032C12.4922 7.86427 12.5294 7.53157 12.7191 7.29816L12.8737 7.10403L12.6507 7.2435C12.4135 7.38668 12.1985 7.70819 12.1334 8.01488L12.0954 8.19382L11.9649 7.97177C11.7757 7.65813 11.7431 7.32507 11.8801 7.0572L11.991 6.83515L11.8018 7.01797C11.5996 7.20745 11.456 7.56676 11.456 7.88027V8.06314L11.2823 7.87309C11.0321 7.60583 10.931 7.28669 11.0094 6.99621L11.0717 6.75586L10.9246 6.9742C10.7661 7.20153 10.7004 7.58285 10.7655 7.88962L10.8034 8.06848L10.594 7.91873C10.2938 7.70933 10.1287 7.41828 10.145 7.11779L10.1561 6.86973L10.0575 7.11391C9.94974 7.36932 9.96458 7.75595 10.0919 8.0424L10.1662 8.20954L9.93025 8.10666C9.5931 7.96434 9.37111 7.71403 9.32475 7.41677L9.28409 7.1718L9.23842 7.4311C9.18602 7.70333 9.28075 8.07853 9.4649 8.33219L9.57222 8.4801L9.3201 8.42858C8.96077 8.35954 8.69168 8.16096 8.58456 7.87974L8.49391 7.64862L8.50308 7.91179C8.50834 8.18905 8.679 8.53624 8.91171 8.74601L9.04746 8.86841L8.79011 8.87049C8.4243 8.87776 8.11982 8.73947 7.95667 8.4868L7.82002 8.27956L7.88363 8.53501C7.94635 8.80512 8.18535 9.10924 8.45656 9.26602L8.61473 9.35747L8.36346 9.41304C8.00715 9.49628 7.6806 9.42447 7.46856 9.21123L7.29187 9.03698L7.40715 9.27365C7.52459 9.52478 7.82153 9.77244 8.11937 9.86932L8.29312 9.92586L8.05885 10.0325C7.72762 10.1882 7.39329 10.1858 7.14157 10.0214L6.93254 9.88773L7.09443 10.0952C7.26145 10.3164 7.60333 10.4969 7.91479 10.5297L8.09645 10.5488L7.88947 10.7019C7.59779 10.9231 7.27026 10.9904 6.98992 10.8819L6.75769 10.7948L6.95913 10.964C7.16844 11.1456 7.54033 11.251 7.85179 11.2182L8.03345 11.1991L7.8628 11.392C7.62343 11.669 7.31703 11.803 7.0203 11.7553L6.77506 11.7183L7.00729 11.842C7.24975 11.9761 7.63538 12.0017 7.93322 11.9048L8.10697 11.8483L7.98011 12.0725C7.80351 12.3933 7.53164 12.5882 7.23148 12.6033L6.98392 12.6181L7.23674 12.6907C7.50171 12.7714 7.88425 12.7162 8.15546 12.5594L8.31367 12.4679L8.23615 12.7136C8.13001 13.0643 7.90459 13.3115 7.6141 13.3887L7.37502 13.4548L7.63738 13.4732C7.91332 13.4969 8.27603 13.3633 8.50875 13.1535L8.6445 13.0311L8.61967 13.2876C8.58867 13.6526 8.41949 13.9413 8.15138 14.0773L7.93126 14.1918L8.19171 14.1552C8.46655 14.121 8.79358 13.9147 8.97765 13.661L9.08502 13.5131L9.11401 13.7692C9.15948 14.1326 9.05394 14.4502 8.81996 14.6391L8.62839 14.7968L8.87554 14.7068C9.13725 14.6162 9.41433 14.3463 9.54172 14.0599L9.61598 13.8928L9.69749 14.1372C9.81746 14.4833 9.78019 14.8159 9.59053 15.0494L9.43591 15.2436L9.65896 15.104C9.89612 14.9609 10.1111 14.6393 10.1763 14.3326L10.2142 14.1537L10.3447 14.3758C10.5339 14.6894 10.5665 15.0225 10.4295 15.2904L10.3186 15.5125L10.5078 15.3295C10.7101 15.1402 10.8536 14.7808 10.8536 14.4673V14.2844L11.0274 14.4745C11.2775 14.7418 11.3786 15.0609 11.3002 15.3513L11.2379 15.5917L11.3849 15.3734C11.5434 15.1459 11.6092 14.7647 11.5441 14.458L11.5062 14.2791L11.7156 14.4289Z" fill="#FCDD09"/>
</g>
<defs>
<clipPath id="clip0_58_3943">
<rect width="21.4187" height="16.064" fill="white" transform="translate(0.674805 0.536865)"/>
</clipPath>
</defs>
</svg>
