<svg width="22" height="17" viewBox="0 0 22 17" fill="none" xmlns="http://www.w3.org/2000/svg">
<g clip-path="url(#clip0_58_3914)">
<rect width="21.4187" height="16.064" transform="translate(0.349609 0.536865)" fill="white"/>
<path fill-rule="evenodd" clip-rule="evenodd" d="M0.640259 0.504883V16.5689H22.059V0.504883H0.640259Z" fill="#F7FCFF"/>
<mask id="mask0_58_3914" style="mask-type:luminance" maskUnits="userSpaceOnUse" x="0" y="0" width="23" height="17">
<path fill-rule="evenodd" clip-rule="evenodd" d="M0.640259 0.504883V16.5689H22.059V0.504883H0.640259Z" fill="white"/>
</mask>
<g mask="url(#mask0_58_3914)">
<path fill-rule="evenodd" clip-rule="evenodd" d="M0.640259 0.504883V5.85956H22.059V0.504883H0.640259Z" fill="#009D00"/>
<path fill-rule="evenodd" clip-rule="evenodd" d="M0.640259 5.85962V11.2143H22.059V5.85962H0.640259Z" fill="white"/>
<path fill-rule="evenodd" clip-rule="evenodd" d="M0.640259 11.2142V16.5689H22.059V11.2142H0.640259Z" fill="#F80000"/>
</g>
<path fill-rule="evenodd" clip-rule="evenodd" d="M0.640259 0.504883V16.5689L5.99494 8.63861L0.640259 0.504883Z" fill="#0075D5"/>
<mask id="mask1_58_3914" style="mask-type:luminance" maskUnits="userSpaceOnUse" x="0" y="0" width="6" height="17">
<path fill-rule="evenodd" clip-rule="evenodd" d="M0.640259 0.504883V16.5689L5.99494 8.63861L0.640259 0.504883Z" fill="white"/>
</mask>
<g mask="url(#mask1_58_3914)">
</g>
<path d="M10.3925 6.45044L10.384 6.45238L10.3775 6.44641L10.2392 6.31861L10.2219 6.50615L10.2211 6.51491L10.2134 6.51921L10.0491 6.61129L10.2221 6.68569L10.2302 6.68916L10.2319 6.69779L10.2687 6.88249L10.3929 6.74093L10.3987 6.73432L10.4075 6.73535L10.5945 6.75743L10.4983 6.59555L10.4938 6.58798L10.4975 6.57999L10.5763 6.40893L10.3925 6.45044Z" fill="#FFD500" stroke="black" stroke-width="0.0334668"/>
<path d="M11.0619 6.45044L11.0533 6.45238L11.0468 6.44641L10.9085 6.31861L10.8912 6.50615L10.8904 6.51491L10.8827 6.51921L10.7184 6.61129L10.8914 6.68569L10.8995 6.68916L10.9012 6.69779L10.938 6.88249L11.0623 6.74093L11.0681 6.73432L11.0768 6.73535L11.2638 6.75743L11.1676 6.59555L11.1631 6.58798L11.1668 6.57999L11.2456 6.40893L11.0619 6.45044Z" fill="#FFD500" stroke="black" stroke-width="0.0334668"/>
<path d="M11.7312 6.45044L11.7226 6.45238L11.7161 6.44641L11.5778 6.31861L11.5605 6.50615L11.5597 6.51491L11.552 6.51921L11.3877 6.61129L11.5607 6.68569L11.5688 6.68916L11.5705 6.69779L11.6073 6.88249L11.7316 6.74093L11.7374 6.73432L11.7461 6.73535L11.9331 6.75743L11.8369 6.59555L11.8324 6.58798L11.8361 6.57999L11.9149 6.40893L11.7312 6.45044Z" fill="#FFD500" stroke="black" stroke-width="0.0334668"/>
<path d="M12.4006 6.45044L12.392 6.45238L12.3856 6.44641L12.2472 6.31861L12.2299 6.50615L12.2291 6.51491L12.2215 6.51921L12.0572 6.61129L12.2302 6.68569L12.2383 6.68916L12.24 6.69779L12.2768 6.88249L12.401 6.74093L12.4068 6.73432L12.4155 6.73535L12.6026 6.75743L12.5063 6.59555L12.5018 6.58798L12.5055 6.57999L12.5843 6.40893L12.4006 6.45044Z" fill="#FFD500" stroke="black" stroke-width="0.0334668"/>
<path d="M13.0699 6.45044L13.0613 6.45238L13.0549 6.44641L12.9165 6.31861L12.8992 6.50615L12.8984 6.51491L12.8908 6.51921L12.7265 6.61129L12.8995 6.68569L12.9076 6.68916L12.9093 6.69779L12.9461 6.88249L13.0703 6.74093L13.0761 6.73432L13.0848 6.73535L13.2719 6.75743L13.1756 6.59555L13.1711 6.58798L13.1748 6.57999L13.2536 6.40893L13.0699 6.45044Z" fill="#FFD500" stroke="black" stroke-width="0.0334668"/>
<path d="M13.7392 6.45044L13.7306 6.45238L13.7242 6.44641L13.5858 6.31861L13.5686 6.50615L13.5677 6.51491L13.5601 6.51921L13.3958 6.61129L13.5688 6.68569L13.5769 6.68916L13.5786 6.69779L13.6154 6.88249L13.7396 6.74093L13.7454 6.73432L13.7542 6.73535L13.9412 6.75743L13.845 6.59555L13.8405 6.58798L13.8441 6.57999L13.9229 6.40893L13.7392 6.45044Z" fill="#FFD500" stroke="black" stroke-width="0.0334668"/>
<path d="M10.7138 7.23171H13.3242V9.20625C13.3242 9.92709 12.7398 10.5115 12.019 10.5115C11.2981 10.5115 10.7138 9.92709 10.7138 9.20625V7.23171Z" stroke="#373737" stroke-width="0.0669335"/>
<path fill-rule="evenodd" clip-rule="evenodd" d="M11.8358 8.51C11.8358 8.51 11.7008 10.0932 11.566 10.1891C11.4312 10.2851 12.2119 10.333 12.2865 10.261C12.3611 10.1891 11.946 8.89903 12.0888 8.51C12.2316 8.12097 12.4615 8.08945 12.4615 8.08945C12.4615 8.08945 12.1717 8.02818 12.0888 8.14491C12.006 8.26164 11.7589 8.08945 11.7589 8.08945L11.8358 8.51Z" fill="#6F3E1D"/>
<path fill-rule="evenodd" clip-rule="evenodd" d="M11.8063 8.42057H11.7024C11.7024 8.42057 11.6321 8.6955 11.4708 8.55804C11.3095 8.42057 11.0819 8.46903 11.0819 8.46903C11.0819 8.46903 11.1023 8.30451 11.35 8.23911C11.5977 8.17371 11.7024 7.64264 11.7024 7.64264C11.7024 7.64264 12.0529 7.51218 12.2661 7.77953C12.4794 8.04688 12.7797 7.93282 12.7797 7.93282C12.7797 7.93282 12.9993 8.05765 12.8895 8.23911C12.7797 8.42057 12.5925 8.55332 12.4293 8.42057C12.2661 8.28783 11.8063 8.42057 11.8063 8.42057Z" fill="#009D29"/>
</g>
<defs>
<clipPath id="clip0_58_3914">
<rect width="21.4187" height="16.064" fill="white" transform="translate(0.349609 0.536865)"/>
</clipPath>
</defs>
</svg>
