<svg width="22" height="17" viewBox="0 0 22 17" fill="none" xmlns="http://www.w3.org/2000/svg">
<g clip-path="url(#clip0_58_3849)">
<rect width="21.4187" height="16.064" transform="translate(0.0249023 0.536865)" fill="white"/>
<path fill-rule="evenodd" clip-rule="evenodd" d="M0.315552 0.571777H21.7343V16.6358H0.315552V0.571777Z" fill="#2B409A"/>
<g clip-path="url(#clip1_58_3849)">
<rect width="12.048" height="9.37069" transform="translate(0.0249023 0.536865)" fill="#2E42A5"/>
<path d="M-1.31665 9.23799L1.33455 10.4008L12.1331 1.80095L13.5315 0.0730442L10.6964 -0.315588L6.29198 3.39031L2.74685 5.88723L-1.31665 9.23799Z" fill="#F7FCFF"/>
<path d="M-0.953735 10.0528L0.39693 10.7275L13.0293 -0.0873861H11.1328L-0.953735 10.0528Z" fill="#F50100"/>
<path d="M13.4144 9.23799L10.7632 10.4008L-0.0352883 1.80095L-1.43374 0.0730442L1.40134 -0.315588L5.8058 3.39031L9.35093 5.88723L13.4144 9.23799Z" fill="#F7FCFF"/>
<path d="M13.324 9.82278L11.9733 10.4976L6.59431 5.86713L4.99956 5.34978L-1.56829 0.0790796H0.3282L6.89236 5.22468L8.63594 5.84503L13.324 9.82278Z" fill="#F50100"/>
<path fill-rule="evenodd" clip-rule="evenodd" d="M6.70789 0.536865H5.36922V4.55288H0.0249023V5.89155H5.36922V9.90756H6.70789V5.89155H12.0729V4.55288H6.70789V0.536865Z" fill="#F50100"/>
<path fill-rule="evenodd" clip-rule="evenodd" d="M4.36521 0.536865H7.71189V3.54887H12.0729V6.89555H7.71189L7.72226 9.90756H4.37558L4.36521 6.89555H0.0249023V3.54887H4.36521V0.536865ZM5.36922 4.55288H0.0249023V5.89155H5.36922V9.90756H6.70789V5.89155H12.0729V4.55288H6.70789V0.536865H5.36922V4.55288Z" fill="#F7FCFF"/>
</g>
<path d="M16.3018 12.9539C16.2607 12.9539 16.1114 12.8735 16.1114 12.8735C16.1114 12.8735 16.0033 13.0447 15.9467 13.0545C15.89 13.0646 15.5967 12.9491 15.5967 12.9491C15.5967 12.9491 15.3908 13.1099 15.3445 13.0998C15.2982 13.0899 14.8247 12.9893 14.8247 12.9893L14.5674 12.8283C14.5674 12.8283 14.4233 13.0596 14.4181 13.0545C14.413 13.0495 13.9858 12.9691 13.9858 12.9691C13.9858 12.9691 14.1145 12.7932 14.1145 12.7881C14.1145 12.7831 14.0527 12.7628 14.0527 12.7628L13.9601 12.8384L13.5792 12.8735L13.6719 12.6119L13.8211 12.3908L15.6482 10.6555L16.5488 12.2801L16.4151 12.7679C16.4151 12.7679 16.3429 12.9539 16.3018 12.9539Z" fill="#6A4C2D"/>
<path d="M14.5565 12.6256C14.6201 12.7026 15.4585 13.5595 15.5944 13.9649C15.7303 14.3703 14.4919 13.8525 14.4919 13.8525C14.4919 13.8525 16.0512 12.8397 16.8301 12.8397C17.6091 12.8397 19.1399 13.8525 19.1399 13.8525C19.1399 13.8525 18.1126 14.576 18.1232 14.1198C18.1337 13.6636 18.6054 12.765 19.1683 12.6256" stroke="#FFBB00" stroke-width="0.334668" stroke-linecap="round" stroke-linejoin="round"/>
<path d="M19.7983 12.692L19.5422 12.5966L19.3155 12.2963L18.3765 12.2273L17.5204 11.9937L17.1594 12.2344L17.3538 12.4882L17.8288 12.663L19.7983 12.692Z" fill="#F7FCFF"/>
<path d="M16.048 7.14061C16.0567 7.16254 16.2482 7.12365 16.2889 7.23835C16.495 6.93403 16.7368 7.22425 16.7368 7.22425L16.9404 6.98328L17.1702 7.20089L17.381 7.18448L17.6013 7.70157L15.8627 7.66895C15.8627 7.66895 16.0393 7.11868 16.048 7.14061Z" fill="#656263"/>
<path d="M17.8503 9.34128C17.8363 9.17754 17.6911 9.15839 17.6102 9.16386C17.529 9.16933 17.4564 9.23752 17.4564 9.23752L17.1883 9.07105C17.1883 9.07105 17.3224 8.24394 17.4648 8.19217C17.6 8.09683 17.6239 8.05558 17.6239 8.03391C17.6239 8.01202 17.5738 7.92341 17.5738 7.92341L16.6994 7.82239L15.8726 7.91794C15.8726 7.91794 15.8084 8.04738 15.8168 8.08568C15.8252 8.12377 15.828 8.16481 15.976 8.27678C16.1399 8.39989 16.2525 9.10662 16.2525 9.10662C16.2525 9.10662 16.0208 9.21837 16.0068 9.20469C15.9928 9.19122 15.923 9.17754 15.8866 9.18301C15.8504 9.18849 15.7302 9.24847 15.7302 9.404C15.7302 9.55974 15.8504 9.64981 15.8504 9.64981C15.8504 9.64981 16.6408 10.2291 16.7582 10.4418C16.8727 10.1853 17.6239 9.60604 17.7133 9.56226C17.7497 9.54058 17.8643 9.50502 17.8503 9.34128Z" fill="#656263"/>
<path d="M18.6392 8.56991C18.7049 8.52718 19.1423 8.50572 19.2474 8.56991C19.3523 8.6341 19.3917 8.95042 19.3917 8.95042C19.3917 8.95042 19.4574 9.06154 19.4617 9.14278C19.466 9.22402 19.4748 9.27958 19.4748 9.27958C19.4748 9.27958 19.8248 9.72428 19.8291 10.126C19.8685 10.3996 19.8597 11.1306 19.7505 11.4084C19.746 11.7548 19.5974 11.9812 19.5974 11.9812C19.5974 11.9812 19.6323 12.041 19.628 12.1052C19.6234 12.1694 19.5885 12.2292 19.5885 12.2292L19.2605 12.3702L18.8974 12.3104L18.4861 11.1091L18.5824 9.07859L18.6086 8.97609L18.5649 8.7025C18.5649 8.7025 18.5737 8.61263 18.6392 8.56991Z" fill="black"/>
<path d="M16.2644 9.63581C16.2644 9.63581 16.7069 9.63581 16.7548 9.77619C16.8385 9.58909 17.2212 9.60088 17.2212 9.60088C17.4525 9.59309 17.6838 9.5853 17.9149 9.57751C17.919 10.123 17.9229 10.6685 17.927 11.214C17.7915 11.849 17.321 12.2973 16.8026 12.4882C16.1845 12.2933 15.7938 11.7829 15.6663 11.2023C15.6422 10.6841 15.6183 10.1657 15.5944 9.6476C15.8177 9.6436 16.041 9.63981 16.2644 9.63581Z" fill="#F7FCFF"/>
<path d="M15.833 9.64153L16.8088 12.1826L17.6903 9.58618C17.4168 9.60344 16.8302 9.54409 16.7574 9.7878C16.6445 9.56977 16.0273 9.65774 15.833 9.64153V9.64153Z" fill="#006B00"/>
<path fill-rule="evenodd" clip-rule="evenodd" d="M16.964 10.0401C16.964 10.0401 17.0528 10.2716 16.964 10.3862C16.8753 10.5008 16.9714 10.5947 17.0249 10.5947C17.0785 10.5947 17.2622 10.7767 17.1131 10.7767C16.964 10.7767 16.8799 10.7201 16.8799 10.88C16.8799 11.04 17.0858 11.7603 17.0249 11.9331C16.964 12.1058 16.9792 12.238 17.0665 12.1941C17.1539 12.1502 17.2085 12.0373 17.1608 11.82C17.1131 11.6027 17.0665 11.654 17.0665 11.4662C17.0665 11.2784 17.1131 11.0694 17.1131 11.0694C17.1131 11.0694 17.1915 11.1281 17.1358 11.3425C17.08 11.5569 17.2048 11.8526 17.2048 11.9331C17.2048 12.0135 17.2085 12.2349 17.1608 12.2568C17.1131 12.2788 17.0694 12.4124 17.0249 12.3105C16.9805 12.2087 16.9526 12.0407 16.8957 12.1562C16.8387 12.2718 16.8497 12.5377 16.7905 12.5505C16.7312 12.5633 16.6428 12.6893 16.6428 12.6387C16.6428 12.5881 16.5593 12.4968 16.5847 12.4117C16.6101 12.3266 16.6324 12.3166 16.653 12.3982C16.6736 12.4798 16.7601 12.479 16.7601 12.4117C16.7601 12.3444 16.7298 12.3772 16.7601 12.224C16.7905 12.0708 16.8242 11.868 16.7601 11.8802C16.6961 11.8924 16.5978 11.9921 16.5847 11.8081C16.5716 11.624 16.519 11.5378 16.5614 11.502C16.6037 11.4662 16.6602 11.3381 16.6783 11.4388C16.6964 11.5395 16.6168 11.6357 16.6298 11.672C16.6428 11.7083 16.65 11.7905 16.7051 11.7216C16.7601 11.6528 16.7926 11.5393 16.8338 11.6445C16.875 11.7497 16.8759 11.6667 16.7905 11.4662C16.7051 11.2657 16.6325 11.1542 16.6428 10.9782C16.653 10.8021 16.6392 10.7362 16.653 10.6796C16.6669 10.6231 16.5001 10.3475 16.5424 10.2682C16.5847 10.1888 16.601 9.93266 16.653 9.97878C16.7051 10.0249 16.7319 10.0868 16.7051 10.1558C16.6783 10.2247 16.6515 10.2932 16.6783 10.3397C16.7051 10.3862 16.797 10.5205 16.8154 10.4867C16.8338 10.453 16.8957 10.4856 16.8957 10.2944C16.8957 10.1031 16.8267 10.0359 16.8702 9.9905C16.9136 9.9451 16.964 10.0401 16.964 10.0401Z" fill="#FFD100"/>
<path d="M17.6959 9.58665L17.8274 9.5835L17.5925 9.87435L17.8744 10.1959L17.3198 10.8787L17.8432 11.494C17.7857 11.6319 17.7189 11.7573 17.63 11.8708L17.3293 11.546L17.8744 10.8818L17.4264 10.3858L17.6959 9.58665V9.58665Z" fill="#1E5AA6"/>
<path d="M15.6749 9.64793L15.9381 9.92637L15.6594 10.2663L16.2389 10.8819L15.7595 11.5094C15.817 11.6473 15.8995 11.8003 15.9882 11.9135L16.2734 11.5614L15.6876 10.9246L16.1168 10.3919L15.8159 9.64478L15.6749 9.64793Z" fill="#1E5AA6"/>
<path d="M16.4677 11.2981L16.261 11.5675L17.0003 12.4034C17.1309 12.339 17.2334 12.2656 17.3451 12.177L16.9596 11.7422L17.1164 11.292L17.3419 11.546L16.637 12.4249C16.519 12.3759 16.3885 12.2993 16.2705 12.2043L16.6433 11.7422L16.4677 11.2981V11.2981Z" fill="#1E5AA6"/>
<path d="M19.0242 9.13859C19.0242 9.18132 19.0708 11.7035 19.1219 11.6795C19.2487 11.6195 19.2779 11.7504 19.2779 11.7504C19.2779 11.7504 19.3217 12.1652 19.2123 12.2208C19.0154 12.3233 18.9293 12.3459 18.9293 12.3459L18.74 12.2079C18.74 12.2079 18.5474 11.9385 18.5037 11.8188C18.46 11.6993 18.4074 11.1649 18.4249 11.0494C18.4423 10.934 18.4555 10.2584 18.4468 10.2244C18.438 10.19 18.4031 9.62581 18.4249 9.54036C18.4468 9.45491 18.5823 9.07861 18.578 9.07861C18.578 9.07861 19.0242 9.09587 19.0242 9.13859Z" fill="url(#paint0_linear_58_3849)"/>
<path d="M18.5869 8.70675C18.6786 8.70675 18.7486 8.78378 18.7706 8.85218C18.7749 8.88207 18.7618 8.90353 18.7661 8.95909C18.7706 9.01465 18.1012 8.97172 18.0969 8.96751C18.0969 8.96751 18.4075 8.67266 18.5869 8.70675Z" fill="#FF7000"/>
<path d="M19.3218 12.3618C19.3218 12.3618 19.5318 12.3147 19.5886 12.2421C19.6237 12.2164 19.8074 12.5115 19.3218 12.3618Z" fill="white" stroke="black" stroke-width="0.334668" stroke-linejoin="round"/>
<path d="M18.9731 8.87697C18.9731 8.89546 18.9581 8.91044 18.9396 8.91044C18.9211 8.91044 18.9061 8.89546 18.9061 8.87697C18.9061 8.85849 18.9211 8.84351 18.9396 8.84351C18.9581 8.84351 18.9731 8.85849 18.9731 8.87697Z" fill="black"/>
<path d="M17.3075 8.50781C17.3075 8.50781 17.656 8.87633 17.8815 8.87233C17.9224 8.9805 17.779 9.0811 17.7217 9.12909C17.6069 9.0931 17.5031 9.13561 17.2367 8.81529C17.2533 8.61094 17.3116 8.51581 17.3075 8.50781Z" fill="#F7FCFF"/>
<path d="M18.6931 6.65332C18.7258 6.88967 18.6911 6.94454 18.6757 7.04379C18.6603 7.14304 19.2811 7.17968 19.4409 6.98332C19.4245 7.0715 19.2382 7.43034 18.3937 7.42634C18.7135 7.72287 18.2914 7.95922 18.1109 7.88703C18.443 7.63869 18.0168 7.49053 17.7791 7.65069C17.8241 7.51452 18.1562 6.82969 18.6931 6.65332Z" fill="#F7FCFF"/>
<path fill-rule="evenodd" clip-rule="evenodd" d="M18.1306 8.31219C18.0673 8.05192 18.0367 7.75296 18.1767 7.63864C17.9921 7.51447 17.7914 7.64264 17.7914 7.64264C17.79 7.64575 17.7862 7.65099 17.7809 7.65839C17.738 7.71769 17.5946 7.91591 17.7914 8.27194C17.2667 8.13578 17.4862 8.61202 17.525 8.648C17.5454 8.57182 17.8241 8.49984 17.8939 8.88835C17.9173 8.96707 17.776 9.08061 17.7307 9.11705C17.7206 9.12513 17.7153 9.12942 17.7175 9.12869C17.7175 9.12869 18.1615 9.21882 18.2189 8.63221C18.2951 8.58686 18.6631 8.3413 18.6519 7.835C18.3137 7.84195 18.1641 8.21443 18.1306 8.31219Z" fill="#0000FF"/>
<path d="M16.1476 8.61206C16.1476 8.61206 15.8076 8.90039 15.6148 8.80821C15.4714 8.89239 15.3033 8.74423 15.3033 8.74423C15.3033 8.74423 15.5 9.45306 16.2051 8.94038C16.1929 8.78422 16.1558 8.62406 16.1476 8.61206V8.61206Z" fill="#F7FCFF"/>
<path d="M15.6107 8.79622C15.6393 8.64805 15.7582 8.57586 15.8525 8.71603C15.9796 8.74023 16.1067 8.23155 15.6557 8.31553C15.7828 7.65069 15.4017 7.40234 15.4017 7.40234C15.4017 7.40234 15.2664 8.13937 15.3279 8.27554C15.3894 8.41171 15.2377 8.0232 14.75 7.91502C14.7418 8.4719 15.2951 8.73224 15.2951 8.73224C15.2951 8.73224 15.4509 8.8724 15.6107 8.79622V8.79622Z" fill="#0000FF"/>
<path d="M15.1496 7.99251C15.0061 8.03649 14.6573 7.82617 14.8786 7.55363C14.1531 7.53763 13.7582 6.92472 13.9999 7.04159C14.2417 7.15846 14.4145 6.90942 14.5949 7.04159C14.3735 6.84144 14.6721 6.68127 14.6721 6.68127C14.6721 6.68127 15.291 6.86164 15.4017 7.39831C15.3648 7.50249 15.3484 7.68664 15.3402 7.67864C15.3402 7.67464 14.957 7.67198 15.1496 7.99251Z" fill="#F7FCFF"/>
<path d="M16.3078 5.5108C16.3111 5.49243 16.7747 5.33317 16.806 5.06989C16.8372 4.80661 16.7997 4.98415 16.7997 4.98415C16.7997 4.98415 16.9283 4.86476 16.8814 4.80044C16.8342 4.73615 16.8499 4.88313 16.7747 4.88006C16.6996 4.87698 16.7403 4.72084 16.7403 4.72084C16.7403 4.72084 16.734 4.70247 16.7121 4.69329C16.6806 4.69635 16.6087 4.62899 16.6087 4.62899C16.6087 4.62899 16.5618 4.56775 16.5208 4.76065C16.5428 4.9658 16.6776 4.92598 16.6776 5.06072C16.6776 5.19543 16.5585 5.29953 16.5241 5.3026C16.4896 5.30565 16.5021 5.18931 16.5021 5.18931C16.5021 5.18931 16.4834 5.13419 16.4709 5.13419C16.4584 5.13419 16.5398 5.12194 16.5273 4.96885C16.4991 4.78514 16.4771 5.01172 16.4269 5.00253C16.3768 4.99335 16.4144 4.83414 16.4332 4.81576C16.4519 4.79739 16.4112 4.72085 16.3016 4.91681C16.2921 5.01172 16.2796 4.89231 16.2577 4.89843C16.2202 4.97498 16.2264 5.0301 16.2796 5.10052C16.358 5.17094 16.4082 5.24136 16.405 5.2781C16.4019 5.31485 16.361 5.39752 16.3048 5.39752C16.2484 5.39752 16.3078 5.29647 16.3048 5.26278C16.3016 5.22911 16.2077 5.10664 16.2077 5.10664C16.2077 5.10664 16.1418 5.00253 16.148 4.99947C16.1543 4.9964 15.9977 5.14949 16.0916 5.22911C16.0197 5.21993 16.0134 5.24748 16.0134 5.24748C16.0134 5.28423 16.1106 5.29953 16.123 5.36382C16.1355 5.42814 16.0227 5.46486 16.0227 5.46486C16.0227 5.46486 16.0699 5.52916 16.2012 5.40364C16.2045 5.48324 16.1513 5.53836 16.1513 5.53836C16.195 5.55774 16.2294 5.5557 16.2357 5.60572C16.2357 5.60572 16.3048 5.52915 16.3078 5.5108Z" fill="#CDAD56"/>
<path d="M15.8059 5.60577C15.8059 5.60577 15.7473 5.52081 15.7447 5.50408C15.7419 5.48737 15.4566 5.52521 15.3216 5.18506C15.2337 5.02347 15.3216 5.1182 15.3216 5.1182L15.3269 5.04018C15.3269 5.04018 15.2334 4.92847 15.2733 4.86997C15.3133 4.81146 15.2968 4.94518 15.3482 4.94546C15.412 4.94268 15.3774 4.80058 15.3774 4.80058C15.3774 4.80058 15.3827 4.78387 15.4014 4.77551C15.4279 4.77829 15.4389 4.86212 15.4628 4.86769C15.4867 4.87327 15.5362 4.76905 15.5517 4.74762C15.5737 4.74455 15.5729 4.66128 15.6075 4.8368C15.589 5.02347 15.4307 4.98725 15.4307 5.10985C15.4307 5.23242 15.5317 5.32715 15.561 5.32995C15.5903 5.33272 15.5797 5.22686 15.5797 5.22686C15.5797 5.22686 15.5957 5.17671 15.6062 5.17671C15.617 5.17671 15.5132 5.19618 15.524 5.05687C15.5479 4.92645 15.6009 5.06527 15.6435 5.0569C15.6861 5.04854 15.6385 4.91898 15.6508 4.8992C15.6536 4.87941 15.7163 4.79445 15.7406 4.98195C15.7486 5.06832 15.7968 4.90762 15.8154 4.91319C15.8474 4.98283 15.8014 5.07586 15.7561 5.13994C15.6896 5.20401 15.6594 5.27422 15.6622 5.30766C15.6648 5.34108 15.6805 5.38262 15.7286 5.38262C15.7764 5.38262 15.7447 5.32437 15.7473 5.29373C15.7499 5.26308 15.8298 5.16387 15.8298 5.16387C15.8455 5.1394 15.8324 5.09364 15.849 5.07249C15.875 5.07276 15.8858 5.03741 15.9123 5.13491C15.939 5.23242 15.9708 5.07083 15.9708 5.07083C15.9708 5.07083 16.0081 5.19064 15.9282 5.26308C15.9894 5.25473 15.9948 5.27979 15.9948 5.27979C15.9948 5.31323 15.9657 5.32715 15.9549 5.38565C15.9441 5.44416 15.9868 5.4776 15.9868 5.4776C15.9868 5.4776 15.9469 5.53611 15.8352 5.42187C15.8324 5.49431 15.8778 5.54447 15.8778 5.54447C15.8403 5.56212 15.8113 5.56025 15.8059 5.60577V5.60577Z" fill="#CDAD56"/>
<path d="M16.5411 5.53982C16.4726 5.73991 16.2256 5.66399 16.2256 5.66399C16.2256 5.66399 16.2338 5.76413 16.2092 5.81218C16.2294 5.82709 16.3755 5.93943 16.5288 5.9684C16.7493 6.01007 17.201 5.89607 17.3526 6.06452C17.5042 6.23297 17.4962 6.36893 17.4962 6.36893C17.4962 6.36893 17.2989 6.39146 17.3538 6.46094C17.3894 6.50605 17.4875 6.53957 17.4962 6.5862C17.5239 6.73461 17.4037 7.00164 17.4469 7.10196C17.3786 7.10806 17.3733 7.17793 17.3733 7.17793C17.3694 7.25728 17.1723 7.21013 17.1723 7.21013C17.1723 7.21013 17.2953 6.9016 17.3035 6.82962C17.3117 6.75744 17.2173 6.62927 17.1437 6.62927C17.0698 6.62927 17.0166 6.85761 17.0166 6.85761C17.0166 6.85761 16.9798 7.02977 16.9921 7.04576C17.0043 7.06176 16.9427 6.98978 16.9427 6.98978C16.9427 6.98978 16.9234 7.05971 16.8917 7.10196C16.856 7.14948 16.8075 7.16994 16.8075 7.16994C16.8075 7.16994 16.7707 7.06576 16.7829 7.02577C16.7952 6.98578 16.9839 6.82962 16.9675 6.71745C16.9602 6.66794 16.9537 6.58153 16.8917 6.55286C16.8132 6.51656 16.6692 6.54304 16.5822 6.52513C16.5344 6.60654 16.5124 7.05376 16.5452 7.08196C16.5781 7.10996 16.4633 7.16994 16.4633 7.16994L16.3281 7.17393C16.3259 7.11332 16.4078 6.94769 16.4078 6.80753C16.4078 6.66736 16.4181 6.51713 16.4181 6.51713C16.4181 6.51713 16.3272 6.54002 16.2788 6.62927C16.2382 6.7041 16.2382 6.84555 16.2419 6.86561C16.2501 6.9096 16.291 7.03377 16.2788 7.06997C16.2665 7.10596 16.0535 7.15394 16.0535 7.15394L16.0451 7.03777C16.0451 7.03777 16.1353 6.98179 16.1353 6.84162C16.1353 6.70145 16.1435 6.5011 16.1394 6.4891C16.137 6.48189 16.0656 6.17516 15.9717 5.9684C15.9091 5.83051 15.8125 5.76733 15.8075 5.75611C15.7953 5.72808 15.7953 5.69603 15.7953 5.69603C15.7953 5.69603 15.6598 5.79216 15.5 5.58789C15.6464 5.46576 15.8035 5.55584 15.8035 5.55584C15.8035 5.55584 15.8444 5.44369 16.0328 5.4517C16.2215 5.45972 16.2583 5.56386 16.2501 5.55184C16.2501 5.55184 16.3895 5.43167 16.5411 5.53982Z" fill="#923F00"/>
<path d="M17.2813 7.62366C17.2846 7.62366 17.6294 7.63376 17.6328 7.81391C17.6363 7.99386 17.5271 7.94734 17.5236 7.94734C17.5202 7.94734 17.271 7.91725 17.271 7.91725L17.2813 7.62366Z" fill="#0000FF"/>
<path d="M16.9467 7.57361C16.9467 7.57361 17.3767 7.57046 17.3528 7.75377C17.3289 7.93729 17.2197 7.90067 17.2197 7.90067L17.0115 7.88383L16.9467 7.57361V7.57361Z" fill="#F7FCFF"/>
<path d="M16.7044 7.55359L16.9536 7.57358C16.9536 7.57358 17.1037 7.59358 17.097 7.73374C17.0901 7.87391 16.9432 7.87728 16.9432 7.87728L16.7009 7.86381L16.7044 7.55359Z" fill="#0000FF"/>
<path d="M16.1207 7.62366C16.1172 7.62366 15.7724 7.63376 15.769 7.81391C15.7658 7.99386 15.875 7.94734 15.8784 7.94734C15.8818 7.94734 16.131 7.91725 16.131 7.91725L16.1207 7.62366Z" fill="#F7FCFF"/>
<path d="M16.4551 7.57361C16.4551 7.57361 16.025 7.57046 16.0489 7.75377C16.0728 7.93729 16.182 7.90067 16.182 7.90067L16.3903 7.88383L16.4551 7.57361V7.57361Z" fill="#0000FF"/>
<path d="M16.6977 7.55359L16.4485 7.57358C16.4485 7.57358 16.2981 7.59358 16.305 7.73374C16.3119 7.87391 16.4586 7.87728 16.4586 7.87728L16.7009 7.86381L16.6977 7.55359Z" fill="#F7FCFF"/>
<path d="M17.6196 9.34841C17.6855 9.36988 17.6353 9.5696 17.6039 9.58812L17.3648 9.57886C17.3648 9.57886 17.544 9.32084 17.6196 9.34841Z" fill="#5E0043"/>
<path d="M16.1366 9.62499C16.0801 9.54817 15.9983 9.33624 15.9229 9.39454C15.8568 9.416 15.9072 9.61573 15.9387 9.63425L16.1366 9.62499Z" fill="#5E0043"/>
<path d="M15.8398 8.14284L16.7022 8.69424L17.4788 8.18388C17.4788 8.18388 17.6407 8.09654 17.6267 8.03382C17.6129 7.9709 17.5569 7.99552 17.5289 8.00646C17.5012 8.01741 16.7161 8.5606 16.7161 8.5606L15.881 8.04456C15.881 8.04456 15.8196 8.02561 15.8084 8.06371C15.7972 8.10201 15.8314 8.12369 15.8398 8.14284V8.14284Z" fill="#B4B6B9"/>
<path d="M18.7308 12.2016C18.7308 12.2016 18.3539 12.3154 18.4589 12.3186C18.5366 12.321 18.911 12.3186 18.911 12.3186L18.7308 12.2016Z" fill="#FF7000"/>
<path d="M18.8834 12.3262L18.5488 12.3357C18.5488 12.3357 18.4646 12.4104 18.4592 12.4283C18.454 12.4464 18.5145 12.4514 18.5145 12.4514C18.5145 12.4514 18.8598 12.5392 19.121 12.4824C19.2528 12.4373 19.2758 12.3833 19.1835 12.3504C19.0913 12.3176 18.886 12.3275 18.8834 12.3262Z" fill="#FF7000"/>
<path d="M15.0118 9.23135C15.0118 9.23135 14.9682 9.3652 15.0118 9.43213C15.0554 9.49906 15.3293 10.0406 15.3293 10.0406C15.3293 10.0406 15.5162 9.81538 15.5847 9.80927C15.6531 9.80338 15.6219 10.3935 15.6219 10.3935C15.6219 10.3935 15.5099 10.4968 15.4414 10.4907C15.3729 10.4846 15.6094 10.722 15.6032 10.9228C15.5969 11.1236 15.292 12.1214 15.1799 12.1395C15.0678 12.1578 14.9711 11.9516 14.9711 11.7734C14.9711 11.5952 15.0865 11.3122 15.0803 11.233C15.0741 11.1539 14.5234 12.081 14.49 12.2258C14.4837 12.2533 14.52 12.3525 14.52 12.3525C14.52 12.3525 14.3042 12.3701 14.3519 12.6446C13.7168 12.4255 13.4055 12.0484 13.4117 11.6651C13.4141 11.5182 13.2741 11.1726 13.4117 10.791C13.6334 10.1766 14.1737 9.47544 14.1775 9.40793C14.1838 9.29828 14.2273 9.24966 14.2336 9.18884C14.2398 9.12802 14.2149 8.81759 14.2772 8.76287C14.3394 8.70815 14.6632 8.5743 14.7441 8.5804C14.825 8.58651 14.8935 8.64122 14.8935 8.64122C14.8935 8.64122 15.1986 8.64122 15.2173 8.75677C15.2359 8.87252 15.155 8.91503 15.155 8.91503C15.155 8.91503 15.1986 9.0794 15.0118 9.23135Z" fill="#8A9396"/>
<path d="M15.1933 12.6822C15.2962 12.7534 15.5338 12.7955 15.5338 12.7955C15.5338 12.7955 14.9502 12.9527 14.3572 12.6475C14.3029 12.4099 14.4844 12.3569 14.5293 12.355C14.634 12.3276 15.0905 12.6109 15.1933 12.6822Z" fill="#2B2B2B"/>
<path d="M15.9077 12.6572C16.5463 12.9947 16.6146 12.7675 17.0546 12.4467C17.0851 12.4244 17.2303 12.9619 17.8469 12.6572C18.7194 12.2259 17.0989 11.5072 16.8699 11.5227C16.6409 11.5387 15.2691 12.3197 15.9077 12.6572Z" fill="#00713D"/>
</g>
<defs>
<linearGradient id="paint0_linear_58_3849" x1="18.9505" y1="10.9833" x2="19.4476" y2="10.9778" gradientUnits="userSpaceOnUse">
<stop stop-color="#D5DFFF"/>
<stop offset="1" stop-color="white"/>
</linearGradient>
<clipPath id="clip0_58_3849">
<rect width="21.4187" height="16.064" fill="white" transform="translate(0.0249023 0.536865)"/>
</clipPath>
<clipPath id="clip1_58_3849">
<rect width="12.048" height="9.37069" fill="white" transform="translate(0.0249023 0.536865)"/>
</clipPath>
</defs>
</svg>
