<svg width="23" height="17" viewBox="0 0 23 17" fill="none" xmlns="http://www.w3.org/2000/svg">
<g clip-path="url(#clip0_58_3786)">
<rect width="21.4187" height="16.064" transform="translate(0.862061 0.536865)" fill="white"/>
<path fill-rule="evenodd" clip-rule="evenodd" d="M15.8781 0.504883H22.5714V16.5689H15.8781V0.504883Z" fill="#58A5FF"/>
<path fill-rule="evenodd" clip-rule="evenodd" d="M1.15271 0.504883H9.18473V16.5689H1.15271V0.504883Z" fill="#58A5FF"/>
<path fill-rule="evenodd" clip-rule="evenodd" d="M7.84607 0.504883H15.8781V16.5689H7.84607V0.504883Z" fill="white"/>
<path fill-rule="evenodd" clip-rule="evenodd" d="M9.02979 11.0258L9.37899 11.483L10.9649 9.33313V8.95251L9.02979 11.0258Z" fill="#6C301F"/>
<path d="M10.1246 8.62772L10.2406 8.46802C11.7424 9.59725 12.8064 10.4641 13.4014 11.1865L13.0299 11.4925C12.4644 10.8059 11.5986 9.73597 10.1246 8.62772Z" fill="#979797"/>
<path d="M12.5456 7.6839L12.3728 7.51639L13.3197 6.5397L13.5272 6.74125L14.5103 5.82581L14.6743 6.00192L13.5237 7.07334L13.3248 6.88015L12.5456 7.6839Z" fill="#979797"/>
<path fill-rule="evenodd" clip-rule="evenodd" d="M9.52326 6.15776C9.47271 5.93799 9.41568 5.6665 9.41568 5.6665C9.28886 5.9558 9.24894 6.219 9.29989 6.45435C9.24599 6.5285 9.19719 6.59796 9.15349 6.66276C9.01712 6.48266 8.84695 6.14571 8.84695 6.14571C8.85286 6.24379 8.85017 6.34387 8.84756 6.44104C8.84143 6.6694 8.83572 6.88175 8.94299 7.0147L8.94172 7.01731C8.92032 7.06136 8.90006 7.10532 8.88092 7.14919C8.73315 7.00186 8.48788 6.73612 8.48788 6.73612C8.50706 7.05474 8.59524 7.30581 8.75549 7.48496C8.72649 7.57833 8.70256 7.67121 8.68361 7.76349C8.55969 7.63531 8.44016 7.50865 8.44016 7.50865C8.45766 7.7994 8.50632 7.99146 8.63269 8.15285C8.63014 8.19875 8.62883 8.24448 8.62876 8.29001C8.49785 8.15498 8.36475 8.01392 8.36475 8.01392C8.38321 8.3207 8.50284 8.52257 8.66041 8.69063C8.67604 8.78777 8.6974 8.88387 8.72435 8.97884L8.73875 9.0289C8.5606 8.94283 8.36587 8.84506 8.36587 8.84506C8.48212 9.11312 8.65185 9.2608 8.84491 9.3641C8.88619 9.48421 8.92974 9.60031 8.97539 9.7121C8.76638 9.6553 8.45428 9.5619 8.45428 9.5619C8.63937 9.84212 8.86642 9.95346 9.11039 10.0175C9.16021 10.1217 9.21198 10.2212 9.2655 10.3157C9.06747 10.2601 8.83503 10.1905 8.83503 10.1905C9.01479 10.4627 9.23414 10.5756 9.47011 10.6405C9.62575 10.8617 9.79242 11.0436 9.96626 11.1797C9.77466 11.2667 9.5334 11.3708 9.5334 11.3708C9.80584 11.4518 10.0236 11.4208 10.2223 11.344L10.2458 11.3556C10.3315 11.3966 10.4276 11.4354 10.5359 11.4732C10.3788 11.5431 10.2291 11.6077 10.2291 11.6077C10.4953 11.6868 10.7092 11.659 10.9042 11.5861L10.9254 11.5919C11.0211 11.618 11.1184 11.6429 11.2467 11.6747C11.1618 11.6537 11.475 11.7309 11.5386 11.7471C11.7422 11.7989 11.8581 11.8353 11.9138 11.8667C11.9189 11.8696 11.9228 11.872 11.9252 11.8735C11.9276 11.8751 11.9286 11.8757 11.9281 11.875L12.0838 11.7618C12.0658 11.737 12.0407 11.7172 12.0083 11.6989C11.9319 11.6559 11.808 11.617 11.5861 11.5606C11.5229 11.5445 11.2196 11.4697 11.2883 11.4867C11.1637 11.4558 11.0688 11.4315 10.976 11.4062C10.9483 11.3986 10.9213 11.3911 10.8948 11.3836C10.917 11.1789 10.8912 10.9667 10.7516 10.7303C10.7516 10.7303 10.6909 11.0996 10.6497 11.3085C10.5266 11.2674 10.4205 11.2258 10.3289 11.1819C10.298 11.1671 10.2671 11.1505 10.2363 11.1323C10.224 10.9235 10.1627 10.7157 9.98124 10.5037C9.98124 10.5037 9.98395 10.7384 9.98293 10.9418C9.85641 10.8263 9.73349 10.6826 9.61639 10.5139L9.69849 10.5574C9.70752 10.2969 9.66738 10.0403 9.44206 9.77695C9.44206 9.77695 9.44499 10.0308 9.44361 10.2394C9.37044 10.1116 9.30031 9.97355 9.23388 9.82617C9.29558 9.62368 9.31048 9.40545 9.21133 9.14104C9.21133 9.14104 9.1524 9.30896 9.0906 9.47833C9.07249 9.43017 9.05475 9.38124 9.03741 9.33155C9.16361 9.1197 9.24461 8.88507 9.18443 8.56208C9.18443 8.56208 9.04098 8.8173 8.93158 9.00235C8.92414 8.97715 8.91679 8.95179 8.90955 8.92627C8.88654 8.84519 8.86793 8.76319 8.85384 8.68035C9.03369 8.52794 9.1791 8.33806 9.2307 8.02791C9.2307 8.02791 8.99019 8.2345 8.82256 8.3715C8.82025 8.30262 8.82101 8.23321 8.82489 8.16331C9.01858 8.04572 9.18535 7.8852 9.286 7.60011C9.286 7.60011 9.04881 7.74072 8.86364 7.84551C8.87677 7.77551 8.893 7.70509 8.91238 7.63425L8.91262 7.64086C9.14268 7.51846 9.34492 7.35535 9.46028 7.02857C9.46028 7.02857 9.22201 7.16983 9.03665 7.27469C9.06066 7.21716 9.08673 7.1594 9.11488 7.10142C9.1484 7.03242 9.19597 6.95008 9.25755 6.85453C9.4629 6.78946 9.65405 6.67665 9.81662 6.43962C9.81662 6.43962 9.65247 6.48564 9.48217 6.53122C9.58094 6.39674 9.69675 6.24628 9.82954 6.08004L9.67912 5.95989C9.62437 6.02843 9.57242 6.09439 9.52326 6.15776Z" fill="#5AB92D"/>
<path fill-rule="evenodd" clip-rule="evenodd" d="M14.2942 6.15773C14.3448 5.93797 14.4018 5.6665 14.4018 5.6665C14.5286 5.95579 14.5686 6.21898 14.5176 6.45432C14.5715 6.52847 14.6203 6.59794 14.664 6.66274C14.8004 6.48264 14.9705 6.14571 14.9705 6.14571C14.9646 6.24379 14.9673 6.34387 14.9699 6.44104C14.9761 6.66938 14.9818 6.88172 14.8745 7.01468L14.8758 7.01731C14.8972 7.06135 14.9175 7.1053 14.9366 7.14917C15.0844 7.00184 15.3296 6.73612 15.3296 6.73612C15.3104 7.05473 15.2223 7.30579 15.062 7.48493C15.091 7.57831 15.115 7.67118 15.1339 7.76347C15.2578 7.6353 15.3773 7.50865 15.3773 7.50865C15.3598 7.79938 15.3112 7.99144 15.1848 8.15282C15.1874 8.19872 15.1887 8.24445 15.1888 8.28999C15.3197 8.15496 15.4528 8.01392 15.4528 8.01392C15.4343 8.32068 15.3147 8.52254 15.1571 8.69059C15.1415 8.78774 15.1201 8.88386 15.0932 8.97884L15.0788 9.02889C15.2569 8.94282 15.4516 8.84506 15.4516 8.84506C15.3354 9.1131 15.1657 9.26078 14.9726 9.36409C14.9313 9.4842 14.8878 9.6003 14.8421 9.71209C15.0512 9.65529 15.3632 9.5619 15.3632 9.5619C15.1781 9.8421 14.9511 9.95345 14.7071 10.0175C14.6573 10.1217 14.6056 10.2212 14.552 10.3157C14.7501 10.2601 14.9825 10.1905 14.9825 10.1905C14.8027 10.4627 14.5834 10.5755 14.3474 10.6405C14.1918 10.8617 14.0251 11.0436 13.8513 11.1797C14.0429 11.2667 14.2841 11.3708 14.2841 11.3708C14.0117 11.4518 13.794 11.4208 13.5952 11.344L13.5718 11.3556C13.486 11.3966 13.39 11.4354 13.2816 11.4732C13.4388 11.5431 13.5884 11.6077 13.5884 11.6077C13.3222 11.6868 13.1083 11.659 12.9133 11.5861L12.8921 11.5919C12.7965 11.618 12.6991 11.6429 12.5709 11.6747C12.6557 11.6537 12.3426 11.7309 12.2789 11.7471C12.0754 11.7989 11.9594 11.8353 11.9038 11.8667C11.8986 11.8696 11.8948 11.872 11.8924 11.8735C11.8899 11.8751 11.8889 11.8757 11.8895 11.875L11.7337 11.7618C11.7518 11.737 11.7769 11.7172 11.8093 11.6989C11.8856 11.6559 12.0096 11.617 12.2315 11.5606C12.2946 11.5445 12.5979 11.4697 12.5292 11.4867C12.6539 11.4558 12.7487 11.4315 12.8415 11.4062C12.8692 11.3986 12.8963 11.3911 12.9227 11.3836C12.9005 11.1789 12.9263 10.9667 13.0659 10.7303C13.0659 10.7303 13.1266 11.0996 13.1678 11.3085C13.2909 11.2674 13.397 11.2258 13.4886 11.1819C13.5196 11.1671 13.5504 11.1506 13.5812 11.1323C13.5935 10.9235 13.6548 10.7157 13.8363 10.5037C13.8363 10.5037 13.8336 10.7384 13.8346 10.9419C13.9611 10.8263 14.084 10.6826 14.2012 10.5139L14.119 10.5574C14.11 10.2969 14.1501 10.0403 14.3754 9.77695C14.3754 9.77695 14.3725 10.0309 14.3739 10.2394C14.4471 10.1116 14.5172 9.97359 14.5836 9.8262C14.5219 9.6237 14.507 9.40546 14.6062 9.14104C14.6062 9.14104 14.6651 9.30898 14.7269 9.47837C14.745 9.43021 14.7628 9.38127 14.7801 9.33158C14.6539 9.11972 14.5729 8.88509 14.6331 8.56208C14.6331 8.56208 14.7765 8.81733 14.8859 9.00238C14.8934 8.97717 14.9007 8.9518 14.908 8.92627C14.931 8.84519 14.9496 8.76321 14.9637 8.68037C14.7838 8.52796 14.6384 8.33807 14.5868 8.02791C14.5868 8.02791 14.8273 8.23452 14.995 8.37152C14.9973 8.30264 14.9965 8.23323 14.9926 8.16333C14.7989 8.04573 14.6322 7.88522 14.5315 7.60011C14.5315 7.60011 14.7687 7.74074 14.9539 7.84553C14.9408 7.77549 14.9245 7.70503 14.9051 7.63417L14.9049 7.64086C14.6748 7.51846 14.4726 7.35535 14.3572 7.02857C14.3572 7.02857 14.5955 7.16985 14.7809 7.27471C14.7569 7.21717 14.7308 7.1594 14.7026 7.10142C14.6691 7.03242 14.6216 6.95008 14.56 6.85454C14.3546 6.78947 14.1635 6.67666 14.0009 6.43962C14.0009 6.43962 14.1651 6.48565 14.3354 6.53123C14.2366 6.39674 14.1208 6.24628 13.988 6.08004L14.1384 5.95989C14.1932 6.02842 14.2451 6.09437 14.2942 6.15773Z" fill="#5AB92D"/>
<path fill-rule="evenodd" clip-rule="evenodd" d="M10.1334 6.74498L10.9414 8.88633H10.3475C10.3475 8.88633 10.1334 9.5621 10.5374 9.5621C10.9414 9.5621 13.0233 9.5621 13.0233 9.5621C13.0233 9.5621 13.294 9.39265 13.1587 8.88633C13.0233 8.38 12.3395 6.98226 12.3395 6.98226C12.3395 6.98226 12.6317 6.75029 12.6317 6.57834C12.6317 6.40639 12.3395 6.38745 12.3395 6.38745H10.4952C10.2598 6.4256 10.1334 6.74498 10.1334 6.74498Z" fill="#EFE298"/>
<path d="M10.8206 7.53338L12.0755 7.45545Z" fill="#C5A042"/>
<path d="M10.8206 7.53338L12.0755 7.45545" stroke="#B47D00" stroke-width="0.334668"/>
<path d="M11.126 8.21625L12.3809 8.13831Z" fill="#C5A042"/>
<path d="M11.126 8.21625L12.3809 8.13831" stroke="#B47D00" stroke-width="0.334668"/>
<path d="M11.3645 8.89923L12.6194 8.82129Z" fill="#C5A042"/>
<path d="M11.3645 8.89923L12.6194 8.82129" stroke="#B47D00" stroke-width="0.334668"/>
<path fill-rule="evenodd" clip-rule="evenodd" d="M11.7821 5.5835C11.7821 5.5835 11.5889 5.62276 11.5889 5.74485C11.5889 5.86694 11.5366 5.97105 11.5366 5.97105C11.5366 5.97105 11.5956 6.52791 12.0363 6.65713C12.4769 6.78636 12.7352 6.81738 12.9207 7.0766C13.1062 7.33581 13.6753 8.06761 13.4471 8.69874C13.2189 9.32987 13.0397 9.65193 13.0397 9.65193C13.0397 9.65193 13.8721 8.86787 13.8721 8.49614C13.8721 8.12441 13.7491 7.76421 13.3803 7.29221C13.0115 6.8202 12.84 6.54428 12.5652 6.33161C12.2905 6.11894 11.8969 5.9227 11.8969 5.9227C11.8969 5.9227 12.037 5.77288 11.9669 5.70244C11.8969 5.632 11.7821 5.5835 11.7821 5.5835Z" fill="#5AB92D"/>
</g>
<defs>
<clipPath id="clip0_58_3786">
<rect width="21.4187" height="16.064" fill="white" transform="translate(0.862061 0.536865)"/>
</clipPath>
</defs>
</svg>
