<svg width="23" height="17" viewBox="0 0 23 17" fill="none" xmlns="http://www.w3.org/2000/svg">
<g clip-path="url(#clip0_58_3764)">
<rect width="21.4187" height="16.064" transform="translate(0.699463 0.536865)" fill="white"/>
<path fill-rule="evenodd" clip-rule="evenodd" d="M0.990112 0.504883H22.4088V16.5689H0.990112V0.504883Z" fill="#C51918"/>
<path fill-rule="evenodd" clip-rule="evenodd" d="M3.66748 3.18225H19.7315V13.8916H3.66748V3.18225Z" fill="#4564F9"/>
<path d="M4.33682 3.85159H19.0622V13.2223H4.33682V3.85159Z" stroke="#CBDAFF" stroke-opacity="0.1" stroke-width="1.33867"/>
<mask id="mask0_58_3764" style="mask-type:luminance" maskUnits="userSpaceOnUse" x="3" y="3" width="17" height="11">
<path fill-rule="evenodd" clip-rule="evenodd" d="M3.66748 3.18225H19.7315V13.8916H3.66748V3.18225Z" fill="white"/>
<path d="M4.33682 3.85159H19.0622V13.2223H4.33682V3.85159Z" stroke="white" stroke-width="1.33867"/>
</mask>
<g mask="url(#mask0_58_3764)">
<path d="M12.0341 3.85156L12.4402 2.97006L12.0247 2.77864L11.6126 2.97736L12.0341 3.85156ZM12.0341 3.85156C12.4402 2.97006 12.4405 2.97019 12.4408 2.97033L12.4415 2.97064L12.4431 2.97138L12.4473 2.97334L12.4597 2.97918L12.4999 2.99847C12.5332 3.01469 12.5795 3.03767 12.637 3.06727C12.7517 3.1264 12.9115 3.21238 13.1016 3.32422C13.4795 3.54665 13.9878 3.87773 14.5009 4.3109C15.4915 5.14718 16.686 6.52429 16.686 8.37158C16.686 10.1998 15.5114 11.6553 14.5373 12.5653C14.0308 13.0383 13.5284 13.4108 13.1542 13.6647C12.9661 13.7922 12.8081 13.8914 12.6949 13.96C12.6382 13.9942 12.5926 14.021 12.5599 14.0398L12.5207 14.0621L12.5088 14.0688L12.5048 14.071L12.5033 14.0718L12.5027 14.0722C12.5024 14.0723 12.5022 14.0725 12.0341 13.2223M12.0341 3.85156C11.6126 2.97736 11.6123 2.97749 11.612 2.97763L11.6114 2.97794L11.6098 2.97869L11.6057 2.98069L11.5935 2.98667L11.5539 3.00656C11.5208 3.02331 11.4749 3.04706 11.4178 3.07761C11.3038 3.13865 11.1448 3.22727 10.9556 3.34198C10.5794 3.57015 10.0735 3.90794 9.56274 4.34461C8.58247 5.18277 7.38225 6.56017 7.38225 8.37158C7.38225 10.1634 8.56183 11.6198 9.52691 12.5317C10.0313 13.0082 10.5317 13.3873 10.9043 13.6468C11.0916 13.7772 11.2489 13.8789 11.3614 13.9493C11.4177 13.9845 11.463 14.012 11.4954 14.0313L11.5341 14.0542L11.5458 14.061L11.5497 14.0632L11.5511 14.0641L11.5517 14.0644C11.552 14.0646 11.5522 14.0647 12.0341 13.2223M12.0341 13.2223L12.5022 14.0725L12.025 14.3351L11.5522 14.0647L12.0341 13.2223Z" stroke="#C1C9F1" stroke-opacity="0.1182" stroke-width="1.94107"/>
<path d="M11.9673 4.54553L12.4268 3.69067L11.9566 3.43792L11.4913 3.69971L11.9673 4.54553ZM11.9673 4.54553C12.4268 3.69067 12.4271 3.69083 12.4274 3.691L12.4281 3.69136L12.4296 3.69219L12.4334 3.69426L12.4439 3.70004L12.4763 3.71814C12.5026 3.73311 12.5385 3.75388 12.5825 3.78036C12.6705 3.83325 12.7916 3.90934 12.935 4.00779C13.22 4.20352 13.6019 4.49387 13.987 4.87329C14.7392 5.61428 15.6151 6.80803 15.6151 8.38139C15.6151 9.93883 14.7542 11.1955 14.0211 11.9945C13.6433 12.4063 13.2682 12.7308 12.9879 12.9527C12.8471 13.0642 12.7282 13.1513 12.6422 13.212C12.5992 13.2424 12.5642 13.2663 12.5387 13.2835L12.5077 13.3041L12.4978 13.3106L12.4943 13.3128L12.4929 13.3137L12.4923 13.3141C12.492 13.3143 12.4918 13.3145 11.9673 12.4979M11.9673 4.54553C11.4913 3.69971 11.491 3.69987 11.4907 3.70003L11.4901 3.70039L11.4886 3.70122L11.485 3.70331L11.4747 3.70919L11.443 3.72775C11.417 3.74312 11.3815 3.7645 11.3379 3.79174C11.2509 3.84615 11.1306 3.92435 10.9883 4.0251C10.7052 4.2254 10.3258 4.52104 9.9431 4.9029C9.20015 5.64414 8.31938 6.83774 8.31938 8.38139C8.31938 9.90852 9.18453 11.1657 9.90971 11.9652C10.2854 12.3794 10.6584 12.7092 10.9369 12.9355C11.0769 13.0492 11.195 13.1384 11.2802 13.2005C11.3228 13.2317 11.3574 13.2561 11.3825 13.2736L11.413 13.2947L11.4227 13.3012L11.426 13.3035L11.4274 13.3044L11.4279 13.3048C11.4282 13.3049 11.4284 13.3051 11.9673 12.4979M11.9673 12.4979L12.4918 13.3145L11.957 13.6579L11.4284 13.3051L11.9673 12.4979Z" fill="#CCE0E5"/>
<path d="M11.9673 4.54553L12.4268 3.69067L11.9566 3.43792L11.4913 3.69971L11.9673 4.54553ZM11.9673 4.54553C12.4268 3.69067 12.4271 3.69083 12.4274 3.691L12.4281 3.69136L12.4296 3.69219L12.4334 3.69426L12.4439 3.70004L12.4763 3.71814C12.5026 3.73311 12.5385 3.75388 12.5825 3.78036C12.6705 3.83325 12.7916 3.90934 12.935 4.00779C13.22 4.20352 13.6019 4.49387 13.987 4.87329C14.7392 5.61428 15.6151 6.80803 15.6151 8.38139C15.6151 9.93883 14.7542 11.1955 14.0211 11.9945C13.6433 12.4063 13.2682 12.7308 12.9879 12.9527C12.8471 13.0642 12.7282 13.1513 12.6422 13.212C12.5992 13.2424 12.5642 13.2663 12.5387 13.2835L12.5077 13.3041L12.4978 13.3106L12.4943 13.3128L12.4929 13.3137L12.4923 13.3141C12.492 13.3143 12.4918 13.3145 11.9673 12.4979M11.9673 4.54553C11.4913 3.69971 11.491 3.69987 11.4907 3.70003L11.4901 3.70039L11.4886 3.70122L11.485 3.70331L11.4747 3.70919L11.443 3.72775C11.417 3.74312 11.3815 3.7645 11.3379 3.79174C11.2509 3.84615 11.1306 3.92435 10.9883 4.0251C10.7052 4.2254 10.3258 4.52104 9.9431 4.9029C9.20015 5.64414 8.31938 6.83774 8.31938 8.38139C8.31938 9.90852 9.18453 11.1657 9.90971 11.9652C10.2854 12.3794 10.6584 12.7092 10.9369 12.9355C11.0769 13.0492 11.195 13.1384 11.2802 13.2005C11.3228 13.2317 11.3574 13.2561 11.3825 13.2736L11.413 13.2947L11.4227 13.3012L11.426 13.3035L11.4274 13.3044L11.4279 13.3048C11.4282 13.3049 11.4284 13.3051 11.9673 12.4979M11.9673 12.4979L12.4918 13.3145L11.957 13.6579L11.4284 13.3051L11.9673 12.4979Z" stroke="#C1C9F1" stroke-opacity="0.748217" stroke-width="1.94107"/>
<path d="M11.9673 4.54553L12.4268 3.69067L11.9566 3.43792L11.4913 3.69971L11.9673 4.54553ZM11.9673 4.54553C12.4268 3.69067 12.4271 3.69083 12.4274 3.691L12.4281 3.69136L12.4296 3.69219L12.4334 3.69426L12.4439 3.70004L12.4763 3.71814C12.5026 3.73311 12.5385 3.75388 12.5825 3.78036C12.6705 3.83325 12.7916 3.90934 12.935 4.00779C13.22 4.20352 13.6019 4.49387 13.987 4.87329C14.7392 5.61428 15.6151 6.80803 15.6151 8.38139C15.6151 9.93883 14.7542 11.1955 14.0211 11.9945C13.6433 12.4063 13.2682 12.7308 12.9879 12.9527C12.8471 13.0642 12.7282 13.1513 12.6422 13.212C12.5992 13.2424 12.5642 13.2663 12.5387 13.2835L12.5077 13.3041L12.4978 13.3106L12.4943 13.3128L12.4929 13.3137L12.4923 13.3141C12.492 13.3143 12.4918 13.3145 11.9673 12.4979M11.9673 4.54553C11.4913 3.69971 11.491 3.69987 11.4907 3.70003L11.4901 3.70039L11.4886 3.70122L11.485 3.70331L11.4747 3.70919L11.443 3.72775C11.417 3.74312 11.3815 3.7645 11.3379 3.79174C11.2509 3.84615 11.1306 3.92435 10.9883 4.0251C10.7052 4.2254 10.3258 4.52104 9.9431 4.9029C9.20015 5.64414 8.31938 6.83774 8.31938 8.38139C8.31938 9.90852 9.18453 11.1657 9.90971 11.9652C10.2854 12.3794 10.6584 12.7092 10.9369 12.9355C11.0769 13.0492 11.195 13.1384 11.2802 13.2005C11.3228 13.2317 11.3574 13.2561 11.3825 13.2736L11.413 13.2947L11.4227 13.3012L11.426 13.3035L11.4274 13.3044L11.4279 13.3048C11.4282 13.3049 11.4284 13.3051 11.9673 12.4979M11.9673 12.4979L12.4918 13.3145L11.957 13.6579L11.4284 13.3051L11.9673 12.4979Z" stroke="#C51918" stroke-width="1.94107"/>
<mask id="mask1_58_3764" style="mask-type:luminance" maskUnits="userSpaceOnUse" x="9" y="4" width="6" height="9">
<path d="M12.5908 10.6823C12.3772 10.915 12.1622 11.1142 11.9753 11.2731C11.7852 11.1083 11.5655 10.9015 11.3475 10.6611C10.734 9.98472 10.2605 9.18361 10.2605 8.38139C10.2605 7.59571 10.7184 6.87137 11.3141 6.27702C11.5455 6.04608 11.7792 5.85387 11.9759 5.70683C12.1693 5.84806 12.3981 6.03275 12.6248 6.25609C13.2113 6.83385 13.6741 7.55803 13.6741 8.38139C13.6741 9.22069 13.1963 10.0223 12.5908 10.6823Z" fill="white"/>
<path d="M12.5908 10.6823C12.3772 10.915 12.1622 11.1142 11.9753 11.2731C11.7852 11.1083 11.5655 10.9015 11.3475 10.6611C10.734 9.98472 10.2605 9.18361 10.2605 8.38139C10.2605 7.59571 10.7184 6.87137 11.3141 6.27702C11.5455 6.04608 11.7792 5.85387 11.9759 5.70683C12.1693 5.84806 12.3981 6.03275 12.6248 6.25609C13.2113 6.83385 13.6741 7.55803 13.6741 8.38139C13.6741 9.22069 13.1963 10.0223 12.5908 10.6823Z" stroke="white" stroke-width="1.94107"/>
</mask>
<g mask="url(#mask1_58_3764)">
<rect x="9.64685" y="9.87561" width="4.9977" height="1.004" fill="#91CBCB"/>
<path fill-rule="evenodd" clip-rule="evenodd" d="M10.0942 10.6773C10.0942 10.6773 13.6377 10.6786 13.9634 10.5563C14.2891 10.434 13.352 12.904 12.1547 12.904C10.9573 12.904 10.0942 10.6773 10.0942 10.6773Z" fill="#FDF9A1"/>
<path d="M13.4354 10.381L12.7989 10.8708C11.7956 9.56706 11.3748 8.21832 11.5544 6.8418L12.3508 6.94572C12.2004 8.09867 12.5559 9.23804 13.4354 10.381Z" fill="#A68861"/>
<path fill-rule="evenodd" clip-rule="evenodd" d="M11.963 6.95507L11.3557 7.66667C11.3329 7.69337 11.2896 7.67144 11.2976 7.63727L11.5065 6.75003H10.5565C10.5203 6.75003 10.5099 6.70046 10.5431 6.68591L11.3549 6.33003L10.7787 5.57041C10.7583 5.5435 10.7861 5.50673 10.8175 5.519L11.7236 5.8722L11.9304 5.03993C11.9388 5.00605 11.987 5.00608 11.9954 5.03997L12.2011 5.8722L13.0993 5.52249C13.1315 5.50998 13.1592 5.54835 13.1373 5.57496L12.5151 6.33003L13.3737 6.68564C13.4075 6.69966 13.3975 6.75003 13.3608 6.75003H12.5151L12.6438 7.65775C12.6485 7.69092 12.607 7.70965 12.5852 7.68417L11.963 6.95507Z" fill="#239E46"/>
<path fill-rule="evenodd" clip-rule="evenodd" d="M11.4318 9.2063H14.6446V9.9091H11.4318V9.2063Z" fill="#239E46"/>
<path fill-rule="evenodd" clip-rule="evenodd" d="M10.9445 8.79965H10.9413C10.932 8.83408 10.9094 8.86272 10.8733 8.88556C10.8372 8.90841 10.7907 8.91983 10.7335 8.91983C10.6879 8.91983 10.6459 8.91157 10.6077 8.89505C10.5695 8.87854 10.5368 8.85429 10.5097 8.82231C10.4826 8.79033 10.4613 8.75063 10.446 8.70319C10.4306 8.65575 10.423 8.60111 10.423 8.53926C10.423 8.47811 10.4305 8.42382 10.4455 8.37638C10.4605 8.32894 10.4819 8.28924 10.5097 8.25726C10.5376 8.22528 10.5711 8.20086 10.6104 8.18399C10.6497 8.16712 10.6932 8.15869 10.741 8.15869C10.8082 8.15869 10.8642 8.17345 10.9092 8.20297C10.9542 8.23249 10.9888 8.27149 11.0131 8.31998L10.9392 8.36426C10.922 8.3249 10.8965 8.29398 10.8626 8.27149C10.8287 8.249 10.7882 8.23776 10.741 8.23776C10.7082 8.23776 10.6782 8.24355 10.6511 8.25515C10.624 8.26675 10.6006 8.28309 10.5809 8.30417C10.5613 8.32526 10.5461 8.35056 10.5354 8.38007C10.5247 8.40959 10.5194 8.44262 10.5194 8.47917V8.59829C10.5194 8.63484 10.5247 8.66805 10.5354 8.69792C10.5461 8.72779 10.5613 8.75326 10.5809 8.77435C10.6006 8.79543 10.6247 8.81177 10.6532 8.82337C10.6818 8.83496 10.7139 8.84076 10.7496 8.84076C10.7753 8.84076 10.7998 8.83742 10.823 8.83075C10.8462 8.82407 10.8665 8.81405 10.884 8.8007C10.9015 8.78735 10.9152 8.77066 10.9252 8.75063C10.9352 8.7306 10.9402 8.70688 10.9402 8.67947V8.60673H10.7753V8.52872H11.0281V8.90718H10.9445V8.79965ZM11.5035 8.1713V8.62672C11.5035 8.697 11.5167 8.75024 11.5431 8.78643C11.5696 8.82263 11.616 8.84072 11.6824 8.84072C11.7488 8.84072 11.7952 8.82263 11.8216 8.78643C11.848 8.75024 11.8612 8.697 11.8612 8.62672V8.1713H11.9512V8.60564C11.9512 8.65905 11.9464 8.70543 11.9367 8.74479C11.9271 8.78415 11.9115 8.81683 11.8901 8.84283C11.8687 8.86884 11.8407 8.88816 11.8061 8.90081C11.7714 8.91346 11.7291 8.91979 11.6792 8.91979C11.6292 8.91979 11.5872 8.91346 11.5533 8.90081C11.5194 8.88816 11.4921 8.86884 11.4714 8.84283C11.4507 8.81683 11.4359 8.78415 11.4269 8.74479C11.418 8.70543 11.4136 8.65905 11.4136 8.60564V8.1713H11.5035ZM12.8133 8.90714L12.7383 8.68997H12.4363L12.3614 8.90714H12.2703L12.5316 8.1713H12.6462L12.9075 8.90714H12.8133ZM12.5895 8.2535H12.5841L12.4578 8.61193H12.7159L12.5895 8.2535ZM13.8286 8.28727H13.8232L13.76 8.41061L13.5812 8.73109L13.4023 8.41061L13.3392 8.28727H13.3338V8.90714H13.246V8.1713H13.3659L13.5801 8.56769H13.5855L13.8007 8.1713H13.9164V8.90714H13.8286V8.28727Z" fill="#C51918"/>
</g>
</g>
</g>
<defs>
<clipPath id="clip0_58_3764">
<rect width="21.4187" height="16.064" fill="white" transform="translate(0.699463 0.536865)"/>
</clipPath>
</defs>
</svg>
