<svg width="23" height="17" viewBox="0 0 23 17" fill="none" xmlns="http://www.w3.org/2000/svg">
<g clip-path="url(#clip0_58_3727)">
<rect width="21.4187" height="16.064" transform="translate(0.837402 0.374023)" fill="white"/>
<path fill-rule="evenodd" clip-rule="evenodd" d="M1.12805 0.342041V16.4061H22.5468V0.342041H1.12805Z" fill="#EA1A1A"/>
<mask id="mask0_58_3727" style="mask-type:luminance" maskUnits="userSpaceOnUse" x="1" y="0" width="22" height="17">
<path fill-rule="evenodd" clip-rule="evenodd" d="M1.12805 0.342041V16.4061H22.5468V0.342041H1.12805Z" fill="white"/>
</mask>
<g mask="url(#mask0_58_3727)">
<path fill-rule="evenodd" clip-rule="evenodd" d="M11.7501 8.08944C11.7501 8.08944 7.87483 4.63348 12.4992 2.61987C12.4992 2.61987 13.844 4.10353 12.8351 5.76915C12.5041 6.31543 12.225 6.70553 12.0152 6.99869L12.0152 6.99869C11.5854 7.59931 11.4467 7.79303 11.7501 8.08944ZM6.03076 5.60804C5.76461 10.6447 10.5885 8.7235 10.5885 8.7235C10.1879 8.86225 10.0766 8.65165 9.73159 7.99892C9.56313 7.68018 9.33896 7.25603 8.99818 6.71566C7.95941 5.06845 6.03076 5.60804 6.03076 5.60804ZM13.3355 8.2583C13.3355 8.2583 18.3099 9.74752 14.9739 13.5304C14.9739 13.5304 13.127 12.7558 13.3355 10.8198C13.4039 10.185 13.4915 9.71348 13.5573 9.35909C13.6922 8.63274 13.7358 8.39839 13.3355 8.2583ZM12.028 9.41936C12.028 9.41936 12.9198 14.5346 8.04474 13.2419C8.04474 13.2419 7.91202 11.2437 9.73695 10.5647C10.3356 10.3419 10.7966 10.2094 11.143 10.1098L11.143 10.1098C11.8528 9.90581 12.0817 9.84001 12.028 9.41936ZM18.1818 7.21967C15.1327 3.20219 12.69 7.78403 12.69 7.78403C12.9064 7.41935 13.1274 7.50828 13.8121 7.78386C14.1466 7.91847 14.5918 8.09761 15.2011 8.29017C17.0578 8.87698 18.1818 7.21967 18.1818 7.21967Z" fill="white"/>
<path d="M7.78809 7.26444L8.07055 7.08496C8.69059 8.06077 9.4953 8.54092 10.4995 8.54092V8.87559C9.37602 8.87559 8.46729 8.33337 7.78809 7.26444Z" fill="#EA1A1A"/>
<path fill-rule="evenodd" clip-rule="evenodd" d="M15.6861 7.53745C15.9633 7.53745 16.1881 7.3127 16.1881 7.03545C16.1881 6.7582 15.9633 6.53345 15.6861 6.53345C15.4088 6.53345 15.1841 6.7582 15.1841 7.03545C15.1841 7.3127 15.4088 7.53745 15.6861 7.53745Z" fill="#EA1A1A"/>
<path fill-rule="evenodd" clip-rule="evenodd" d="M14.487 10.8694C14.7642 10.8694 14.989 10.6446 14.989 10.3674C14.989 10.0901 14.7642 9.86536 14.487 9.86536C14.2097 9.86536 13.985 10.0901 13.985 10.3674C13.985 10.6446 14.2097 10.8694 14.487 10.8694Z" fill="#EA1A1A"/>
<path fill-rule="evenodd" clip-rule="evenodd" d="M10.471 12.208C10.7482 12.208 10.973 11.9832 10.973 11.706C10.973 11.4287 10.7482 11.204 10.471 11.204C10.1937 11.204 9.96899 11.4287 9.96899 11.706C9.96899 11.9832 10.1937 12.208 10.471 12.208Z" fill="#EA1A1A"/>
<path fill-rule="evenodd" clip-rule="evenodd" d="M7.79363 7.52268C8.07087 7.52268 8.29563 7.29793 8.29563 7.02068C8.29563 6.74343 8.07087 6.51868 7.79363 6.51868C7.51638 6.51868 7.29163 6.74343 7.29163 7.02068C7.29163 7.29793 7.51638 7.52268 7.79363 7.52268Z" fill="#EA1A1A"/>
<path fill-rule="evenodd" clip-rule="evenodd" d="M11.8096 5.51462C12.0869 5.51462 12.3116 5.28987 12.3116 5.01262C12.3116 4.73537 12.0869 4.51062 11.8096 4.51062C11.5324 4.51062 11.3076 4.73537 11.3076 5.01262C11.3076 5.28987 11.5324 5.51462 11.8096 5.51462Z" fill="#EA1A1A"/>
<path d="M11.5928 5.06276L11.8871 5.22225C11.3298 6.25034 11.2905 7.19861 11.7624 8.08617L11.4669 8.24329C10.9399 7.25223 10.9842 6.18568 11.5928 5.06276Z" fill="#EA1A1A"/>
<path d="M15.8635 6.82504L15.8134 7.15592C14.5043 6.95747 13.5244 7.23365 12.8534 7.97882L12.6047 7.75488C13.3575 6.91888 14.4505 6.61082 15.8635 6.82504Z" fill="#EA1A1A"/>
<path d="M14.7499 10.6263L14.4218 10.6923C14.1606 9.3943 13.5659 8.56796 12.6362 8.19233L12.7615 7.88203C13.8046 8.30344 14.4679 9.22518 14.7499 10.6263Z" fill="#EA1A1A"/>
<path d="M10.4362 11.8212L10.262 11.5355C11.3923 10.8461 11.9654 10.0047 12.0004 9.00254L12.3349 9.01422C12.2956 10.1385 11.6564 11.0771 10.4362 11.8212Z" fill="#EA1A1A"/>
</g>
</g>
<defs>
<clipPath id="clip0_58_3727">
<rect width="21.4187" height="16.064" fill="white" transform="translate(0.837402 0.374023)"/>
</clipPath>
</defs>
</svg>
