<svg width="23" height="17" viewBox="0 0 23 17" fill="none" xmlns="http://www.w3.org/2000/svg">
<g clip-path="url(#clip0_58_3714)">
<rect width="21.4187" height="16.064" transform="translate(0.674805 0.374023)" fill="white"/>
<path fill-rule="evenodd" clip-rule="evenodd" d="M0.965454 0.342041V16.4061H22.3842V0.342041H0.965454Z" fill="#2E42A5"/>
<g clip-path="url(#clip1_58_3714)">
<rect width="12.048" height="9.37069" transform="translate(0.674805 0.374023)" fill="#2E42A5"/>
<path d="M-0.666748 9.07515L1.98445 10.2379L12.783 1.63811L14.1814 -0.0897976L11.3463 -0.478429L6.94188 3.22747L3.39675 5.72438L-0.666748 9.07515Z" fill="#F7FCFF"/>
<path d="M-0.303833 9.88992L1.04683 10.5647L13.6792 -0.250228H11.7827L-0.303833 9.88992Z" fill="#F50100"/>
<path d="M14.0643 9.07515L11.4131 10.2379L0.614614 1.63811L-0.783836 -0.0897976L2.05125 -0.478429L6.4557 3.22747L10.0008 5.72438L14.0643 9.07515Z" fill="#F7FCFF"/>
<path d="M13.9739 9.65994L12.6232 10.3347L7.24422 5.70429L5.64946 5.18694L-0.918388 -0.0837622H0.978103L7.54226 5.06183L9.28585 5.68219L13.9739 9.65994Z" fill="#F50100"/>
<path fill-rule="evenodd" clip-rule="evenodd" d="M7.35779 0.374023H6.01912V4.39003H0.674805V5.7287H6.01912V9.74471H7.35779V5.7287H12.7228V4.39003H7.35779V0.374023Z" fill="#F50100"/>
<path fill-rule="evenodd" clip-rule="evenodd" d="M5.01512 0.374023H8.36179V3.38603H12.7228V6.73271H8.36179L8.37216 9.74471H5.02548L5.01512 6.73271H0.674805V3.38603H5.01512V0.374023ZM6.01912 4.39003H0.674805V5.7287H6.01912V9.74471H7.35779V5.7287H12.7228V4.39003H7.35779V0.374023H6.01912V4.39003Z" fill="#F7FCFF"/>
</g>
<g clip-path="url(#clip2_58_3714)">
<path d="M6.98945 14.0634L6.11821 14.8685L6.20449 13.6854L5.03179 13.5062L6.01062 12.836L5.41953 11.8074L6.55383 12.1548L6.98945 11.0514L7.42507 12.1548L8.55937 11.8074L7.96828 12.836L8.94711 13.5062L7.77441 13.6854L7.86069 14.8685L6.98945 14.0634Z" fill="#F7FCFF"/>
<path d="M15.6908 9.04341L15.11 9.58017L15.1675 8.79139L14.3857 8.67195L15.0383 8.22513L14.6442 7.53942L15.4004 7.77102L15.6908 7.0354L15.9813 7.77102L16.7375 7.53942L16.3434 8.22513L16.9959 8.67195L16.2142 8.79139L16.2717 9.58017L15.6908 9.04341Z" fill="#F7FCFF"/>
<path d="M17.0295 3.68867L16.4486 4.22543L16.5062 3.43666L15.7244 3.31722L16.3769 2.87039L15.9829 2.18469L16.7391 2.41628L17.0295 1.68066L17.3199 2.41628L18.0761 2.18469L17.682 2.87039L18.3346 3.31722L17.5528 3.43666L17.6103 4.22543L17.0295 3.68867Z" fill="#F7FCFF"/>
<path d="M20.3761 6.36604L19.7953 6.9028L19.8528 6.11403L19.071 5.99458L19.7236 5.54776L19.3295 4.86206L20.0857 5.09365L20.3761 4.35803L20.6666 5.09365L21.4228 4.86206L21.0287 5.54776L21.6813 5.99458L20.8995 6.11403L20.957 6.9028L20.3761 6.36604Z" fill="#F7FCFF"/>
<path d="M17.6988 15.0673L17.118 15.6041L17.1755 14.8153L16.3937 14.6959L17.0462 14.2491L16.6522 13.5633L17.4084 13.7949L17.6988 13.0593L17.9892 13.7949L18.7454 13.5633L18.3513 14.2491L19.0039 14.6959L18.2221 14.8153L18.2796 15.6041L17.6988 15.0673Z" fill="#F7FCFF"/>
<path d="M20.0415 9.88003L19.4513 10.1903L19.564 9.53315L19.0866 9.06777L19.7464 8.9719L20.0415 8.37402L20.3365 8.9719L20.9963 9.06777L20.5189 9.53315L20.6316 10.1903L20.0415 9.88003Z" fill="#F7FCFF"/>
</g>
</g>
<defs>
<clipPath id="clip0_58_3714">
<rect width="21.4187" height="16.064" fill="white" transform="translate(0.674805 0.374023)"/>
</clipPath>
<clipPath id="clip1_58_3714">
<rect width="12.048" height="9.37069" fill="white" transform="translate(0.674805 0.374023)"/>
</clipPath>
<clipPath id="clip2_58_3714">
<rect width="16.7334" height="14.056" fill="white" transform="translate(4.98145 1.68066)"/>
</clipPath>
</defs>
</svg>
