<svg width="22" height="17" viewBox="0 0 22 17" fill="none" xmlns="http://www.w3.org/2000/svg">
<g clip-path="url(#clip0_58_3640)">
<rect width="21.4187" height="16.064" transform="translate(0.349609 0.374023)" fill="white"/>
<path fill-rule="evenodd" clip-rule="evenodd" d="M0.640259 0.342041V16.4061H22.059V0.342041H0.640259Z" fill="#F7FCFF"/>
<mask id="mask0_58_3640" style="mask-type:luminance" maskUnits="userSpaceOnUse" x="0" y="0" width="23" height="17">
<path fill-rule="evenodd" clip-rule="evenodd" d="M0.640259 0.342041V16.4061H22.059V0.342041H0.640259Z" fill="white"/>
</mask>
<g mask="url(#mask0_58_3640)">
<path fill-rule="evenodd" clip-rule="evenodd" d="M0.640259 0.342041V5.69672H22.059V0.342041H0.640259Z" fill="#E31D1C"/>
<path fill-rule="evenodd" clip-rule="evenodd" d="M0.640259 11.0514V16.4061H22.059V11.0514H0.640259Z" fill="#3D58DB"/>
<rect x="7.38477" y="4.62402" width="7.63042" height="2.67734" fill="#E31D1C"/>
<path d="M7.77005 6.33927H14.5494C14.5609 6.85396 14.5643 7.75181 14.5643 8.61614C14.5642 9.17432 14.5627 9.71169 14.5613 10.1096C14.5605 10.3085 14.5598 10.4725 14.5593 10.5868L14.5586 10.719L14.5585 10.738L14.5582 10.7402C14.5552 10.7581 14.5502 10.7861 14.5425 10.8229C14.5271 10.8966 14.5011 11.0047 14.4598 11.1358C14.377 11.3991 14.2344 11.7481 13.9969 12.095C13.532 12.7736 12.6881 13.4713 11.1151 13.4713C9.5442 13.4713 8.74108 12.7745 8.31359 12.1024C8.09408 11.7573 7.96873 11.4094 7.89857 11.1464C7.86366 11.0155 7.84291 10.9074 7.83105 10.8338C7.82512 10.797 7.82144 10.769 7.81932 10.7513L7.81805 10.7397L7.81769 10.7102L7.8161 10.5789L7.81041 10.1046C7.80571 9.7091 7.79944 9.17455 7.79317 8.6183C7.78359 7.76837 7.77404 6.87041 7.77005 6.33927ZM7.81694 10.7293C7.81692 10.7291 7.81692 10.7291 7.81693 10.7292L7.81694 10.7293Z" fill="#F7FCFF" stroke="#E31D1C" stroke-width="0.753002"/>
<mask id="mask1_58_3640" style="mask-type:luminance" maskUnits="userSpaceOnUse" x="7" y="5" width="8" height="9">
<path d="M7.77005 6.33927H14.5494C14.5609 6.85396 14.5643 7.75181 14.5643 8.61614C14.5642 9.17432 14.5627 9.71169 14.5613 10.1096C14.5605 10.3085 14.5598 10.4725 14.5593 10.5868L14.5586 10.719L14.5585 10.738L14.5582 10.7402C14.5552 10.7581 14.5502 10.7861 14.5425 10.8229C14.5271 10.8966 14.5011 11.0047 14.4598 11.1358C14.377 11.3991 14.2344 11.7481 13.9969 12.095C13.532 12.7736 12.6881 13.4713 11.1151 13.4713C9.5442 13.4713 8.74108 12.7745 8.31359 12.1024C8.09408 11.7573 7.96873 11.4094 7.89857 11.1464C7.86366 11.0155 7.84291 10.9074 7.83105 10.8338C7.82512 10.797 7.82144 10.769 7.81932 10.7513L7.81805 10.7397L7.81769 10.7102L7.8161 10.5789L7.81041 10.1046C7.80571 9.7091 7.79944 9.17455 7.79317 8.6183C7.78359 7.76837 7.77404 6.87041 7.77005 6.33927ZM7.81694 10.7293C7.81692 10.7291 7.81692 10.7291 7.81693 10.7292L7.81694 10.7293Z" fill="white" stroke="white" stroke-width="0.753002"/>
</mask>
<g mask="url(#mask1_58_3640)">
<path fill-rule="evenodd" clip-rule="evenodd" d="M7.66716 6.39282H9.07904V7.82646H10.4909V6.39285H11.9028L11.9027 7.82646H13.3146L13.3146 6.39285H14.7265V7.8265H13.3146L13.3146 9.26011H11.9027L11.9028 7.8265H10.4909V9.26011H9.07899V7.82647H7.66716V6.39282ZM10.4909 10.6938H9.07899V9.26016H7.66711V10.6938H9.07899V12.1274H10.4909V10.6938H11.9028L11.9027 12.1274H13.3146L13.3146 10.6938H14.7265V9.26016H13.3146L13.3146 10.6938H11.9027L11.9028 9.26016H10.4909V10.6938ZM14.7265 12.1275H13.3146V13.5611H14.7265V12.1275ZM10.4909 12.1275H11.9028V13.5611H10.4909V12.1275ZM9.07899 12.1275H7.66711V13.5611H9.07899V12.1275Z" fill="#F50100"/>
</g>
<path fill-rule="evenodd" clip-rule="evenodd" d="M7.63682 5.80553C7.63682 5.80553 8.07351 5.57227 8.44599 5.45206C8.81846 5.33185 9.11286 5.26617 9.11286 5.26617L8.55869 3.2233L7.44872 2.80859L6.82007 3.84479L7.63682 5.80553Z" fill="#56C6F5" stroke="white" stroke-width="0.334668"/>
<path d="M7.45471 4.6865L7.58226 4.62501C7.71397 4.90675 7.88759 4.99377 8.12556 4.90496C8.36864 4.81424 8.46775 4.64269 8.43278 4.37074L8.57278 4.35217C8.61619 4.68976 8.48005 4.92541 8.17427 5.03952C7.86337 5.15555 7.61604 5.03158 7.45471 4.6865Z" fill="white"/>
<path fill-rule="evenodd" clip-rule="evenodd" d="M7.75678 4.05134L7.63484 4.12521C7.60786 4.14155 7.57431 4.11806 7.58045 4.08712L7.60815 3.94727L7.48321 3.8786C7.45557 3.8634 7.45914 3.82261 7.489 3.81244L7.62397 3.76651L7.62096 3.62398C7.6203 3.59244 7.65742 3.57513 7.68115 3.59591L7.78841 3.68983L7.91035 3.61596C7.93733 3.59962 7.97088 3.62311 7.96475 3.65405L7.93704 3.7939L8.06198 3.86257C8.08963 3.87777 8.08606 3.91857 8.05619 3.92873L7.92123 3.97466L7.92423 4.11719C7.92489 4.14873 7.88778 4.16604 7.86404 4.14526L7.75678 4.05134Z" fill="#FECA00"/>
<path fill-rule="evenodd" clip-rule="evenodd" d="M10.3727 5.07809C10.3727 5.07809 10.7451 5.04486 11.1364 5.05246C11.5278 5.06006 11.8588 5.06284 11.8588 5.06284L12.0499 3.04849L11.2117 2.29122L10.28 3.06629L10.3727 5.07809Z" fill="#56C6F5" stroke="white" stroke-width="0.334668"/>
<path fill-rule="evenodd" clip-rule="evenodd" d="M11.1823 4.74939C11.5051 4.74939 11.5361 4.4007 11.5361 4.16316C11.4535 4.03141 11.4701 3.93713 11.2055 3.93713C10.9409 3.93713 10.9107 4.01709 10.8335 4.16316C10.8335 4.4007 10.8594 4.74939 11.1823 4.74939Z" fill="#FECA00"/>
<path fill-rule="evenodd" clip-rule="evenodd" d="M11.5456 3.76429C11.8684 3.76429 11.8993 3.41559 11.8993 3.17805C11.8168 3.04631 11.8334 2.95203 11.5688 2.95203C11.3042 2.95203 11.274 3.03199 11.1968 3.17805C11.1968 3.41559 11.2227 3.76429 11.5456 3.76429Z" fill="#FECA00"/>
<path fill-rule="evenodd" clip-rule="evenodd" d="M10.8396 3.76429C11.1625 3.76429 11.1934 3.41559 11.1934 3.17805C11.1109 3.04631 11.1275 2.95203 10.8629 2.95203C10.5983 2.95203 10.5681 3.03199 10.4908 3.17805C10.4908 3.41559 10.5168 3.76429 10.8396 3.76429Z" fill="#FECA00"/>
<path d="M8.96978 5.43223L8.92157 5.26845L8.34155 3.2981L8.31407 3.20473L8.38164 3.13468L9.2106 2.27531L9.31055 2.17169L9.42792 2.25505L10.34 2.90284L10.4032 2.9477L10.4099 3.02489L10.5787 4.9823L10.5938 5.15669L10.4189 5.16387L10.4189 5.16387L10.4189 5.16387L10.4189 5.16387L10.4187 5.16388L10.418 5.16391L10.4149 5.16404L10.4029 5.16458L10.3575 5.16678C10.3187 5.16877 10.2643 5.17179 10.2018 5.17592C10.076 5.18425 9.92142 5.19685 9.79743 5.21408C9.67899 5.23054 9.51496 5.27115 9.37509 5.30966C9.30633 5.32859 9.24545 5.34643 9.20178 5.35954L9.15058 5.37512L9.13697 5.37935L9.13356 5.38042L9.13276 5.38068L9.13258 5.38073L9.13256 5.38074L8.96978 5.43223ZM8.96978 5.43223L9.13255 5.38074L8.96978 5.43223Z" fill="#2E42A5" stroke="white" stroke-width="0.334668"/>
<mask id="mask2_58_3640" style="mask-type:luminance" maskUnits="userSpaceOnUse" x="8" y="1" width="3" height="5">
<path d="M8.96978 5.43223L8.92157 5.26845L8.34155 3.2981L8.31407 3.20473L8.38164 3.13468L9.2106 2.27531L9.31055 2.17169L9.42792 2.25505L10.34 2.90284L10.4032 2.9477L10.4099 3.02489L10.5787 4.9823L10.5938 5.15669L10.4189 5.16387L10.4189 5.16387L10.4189 5.16387L10.4189 5.16387L10.4187 5.16388L10.418 5.16391L10.4149 5.16404L10.4029 5.16458L10.3575 5.16678C10.3187 5.16877 10.2643 5.17179 10.2018 5.17592C10.076 5.18425 9.92142 5.19685 9.79743 5.21408C9.67899 5.23054 9.51496 5.27115 9.37509 5.30966C9.30633 5.32859 9.24545 5.34643 9.20178 5.35954L9.15058 5.37512L9.13697 5.37935L9.13356 5.38042L9.13276 5.38068L9.13258 5.38073L9.13256 5.38074L8.96978 5.43223ZM8.96978 5.43223L9.13255 5.38074L8.96978 5.43223Z" fill="white" stroke="white" stroke-width="0.334668"/>
</mask>
<g mask="url(#mask2_58_3640)">
<path d="M8.96442 4.7849L8.79675 4.38994C9.15686 4.23231 9.76518 4.1356 10.4053 4.09778L10.4299 4.52715C9.83482 4.5623 9.27191 4.65031 8.96442 4.7849Z" fill="#C51918"/>
<path d="M8.68134 3.82958L8.51367 3.43462C8.87378 3.277 9.6478 3.14939 10.2879 3.11157L10.3125 3.54094C9.71745 3.5761 8.98883 3.69499 8.68134 3.82958Z" fill="#C51918"/>
</g>
<path d="M13.3367 5.43341L13.3822 5.2648L13.9148 3.2912L13.9388 3.20258L13.8769 3.13478L13.0953 2.27866L12.9955 2.16935L12.8748 2.25505L11.9627 2.90284L11.8995 2.9477L11.8929 3.02489L11.724 4.9823L11.709 5.15669L11.8839 5.16387L11.8839 5.16387L11.8839 5.16387L11.8839 5.16387L11.8841 5.16388L11.8848 5.16391L11.8878 5.16404L11.8998 5.16458L11.9452 5.16678C11.984 5.16877 12.0385 5.17179 12.1009 5.17592C12.2268 5.18425 12.3813 5.19685 12.5053 5.21408C12.6238 5.23054 12.7878 5.27115 12.9277 5.30966C12.9964 5.32859 13.0573 5.34643 13.101 5.35954L13.1522 5.37512L13.1658 5.37935L13.1692 5.38042L13.17 5.38068L13.1702 5.38073L13.1702 5.38074L13.3367 5.43341ZM13.3367 5.43341L13.1702 5.38074L13.3367 5.43341Z" fill="#2E42A5" stroke="white" stroke-width="0.334668"/>
<mask id="mask3_58_3640" style="mask-type:luminance" maskUnits="userSpaceOnUse" x="11" y="1" width="4" height="5">
<path d="M13.3367 5.43341L13.3822 5.2648L13.9148 3.2912L13.9388 3.20258L13.8769 3.13478L13.0953 2.27866L12.9955 2.16935L12.8748 2.25505L11.9627 2.90284L11.8995 2.9477L11.8929 3.02489L11.724 4.9823L11.709 5.15669L11.8839 5.16387L11.8839 5.16387L11.8839 5.16387L11.8839 5.16387L11.8841 5.16388L11.8848 5.16391L11.8878 5.16404L11.8998 5.16458L11.9452 5.16678C11.984 5.16877 12.0385 5.17179 12.1009 5.17592C12.2268 5.18425 12.3813 5.19685 12.5053 5.21408C12.6238 5.23054 12.7878 5.27115 12.9277 5.30966C12.9964 5.32859 13.0573 5.34643 13.101 5.35954L13.1522 5.37512L13.1658 5.37935L13.1692 5.38042L13.17 5.38068L13.1702 5.38073L13.1702 5.38074L13.3367 5.43341ZM13.3367 5.43341L13.1702 5.38074L13.3367 5.43341Z" fill="white" stroke="white" stroke-width="0.334668"/>
</mask>
<g mask="url(#mask3_58_3640)">
<path fill-rule="evenodd" clip-rule="evenodd" d="M12.9546 4.67032C12.9546 4.67032 13.1514 4.5608 13.1797 4.37614C13.2081 4.19149 13.5125 3.96405 13.3603 3.99112C13.2081 4.01819 13.2951 4.03933 13.0748 3.99112C12.8544 3.94291 12.5692 3.91102 12.5692 3.77555C12.5692 3.64009 12.711 3.53257 12.5951 3.53257C12.4792 3.53257 12.232 3.40435 12.2816 3.50235C12.3313 3.60035 12.1674 3.48954 12.2493 3.693C12.3313 3.89645 12.232 4.10141 12.2816 4.15535C12.3313 4.20928 12.2493 4.47379 12.2493 4.47379C12.2493 4.47379 12.2794 4.57204 12.3321 4.42489C12.3847 4.27774 12.4999 4.17459 12.4423 4.29974C12.3847 4.42489 12.3112 4.72256 12.3768 4.67032C12.4423 4.61808 12.5075 4.47363 12.5075 4.42489C12.5075 4.37614 12.6729 4.18481 12.6729 4.3293C12.6729 4.47379 12.5173 4.58758 12.5951 4.58758C12.6729 4.58758 12.7165 4.61829 12.7654 4.47379C12.8143 4.3293 12.9331 4.23371 12.9818 4.3293C13.0306 4.42489 13.0198 4.41978 12.9546 4.54505C12.8895 4.67032 12.9546 4.67032 12.9546 4.67032Z" fill="#FECA00"/>
<path fill-rule="evenodd" clip-rule="evenodd" d="M12.4925 3.59943L12.4193 3.47687C12.5507 3.39587 12.6714 3.37429 12.7774 3.41945C12.8256 3.43998 12.8619 3.46337 12.9565 3.52994L12.9689 3.53863C13.0675 3.60774 13.1196 3.63589 13.1517 3.63589V3.77925C13.0782 3.77925 13.0146 3.74494 12.8887 3.65659L12.8761 3.64779C12.791 3.58788 12.7581 3.56669 12.7228 3.55165C12.6641 3.52667 12.5887 3.54016 12.4925 3.59943ZM12.2607 4.53444C12.3023 4.53444 12.336 4.50114 12.336 4.46007C12.336 4.419 12.3023 4.3857 12.2607 4.3857C12.2191 4.3857 12.1854 4.419 12.1854 4.46007C12.1854 4.50114 12.2191 4.53444 12.2607 4.53444ZM12.4772 4.60346C12.4772 4.64454 12.4435 4.67783 12.4019 4.67783C12.3603 4.67783 12.3266 4.64454 12.3266 4.60346C12.3266 4.56239 12.3603 4.52909 12.4019 4.52909C12.4435 4.52909 12.4772 4.56239 12.4772 4.60346ZM12.6555 4.67228C12.6971 4.67228 12.7308 4.63898 12.7308 4.59791C12.7308 4.55683 12.6971 4.52354 12.6555 4.52354C12.6139 4.52354 12.5802 4.55683 12.5802 4.59791C12.5802 4.63898 12.6139 4.67228 12.6555 4.67228ZM12.9667 4.71695C12.9667 4.75803 12.933 4.79132 12.8914 4.79132C12.8498 4.79132 12.8161 4.75803 12.8161 4.71695C12.8161 4.67588 12.8498 4.64258 12.8914 4.64258C12.933 4.64258 12.9667 4.67588 12.9667 4.71695Z" fill="#C51918"/>
</g>
<path d="M14.86 5.98763L14.9322 5.82115L15.761 3.91141L15.7955 3.832L15.7506 3.758L15.122 2.7218L15.0501 2.60336L14.9203 2.65184L13.8104 3.06655L13.7311 3.09616L13.708 3.17754L13.1417 5.16941L13.0932 5.33989L14.86 5.98763ZM14.86 5.98763L14.6999 5.90214M14.86 5.98763L14.6999 5.90214M14.6999 5.90214L14.6999 5.90213M14.6999 5.90214L14.6999 5.90213M14.6999 5.90213L14.6999 5.90212M14.6999 5.90213L14.6999 5.90212M14.6999 5.90212L14.6997 5.90204L14.6989 5.90163L14.6955 5.89983L14.6818 5.89261C14.6696 5.88626 14.6517 5.87697 14.6289 5.8654C14.5833 5.84225 14.5186 5.81009 14.4425 5.77426C14.2892 5.70205 14.0944 5.61717 13.9181 5.5603C13.7356 5.50137 13.5719 5.45576 13.4541 5.42491C13.3952 5.4095 13.3478 5.3978 13.3154 5.39L13.2783 5.38125L13.269 5.37911L13.2668 5.37861L13.2663 5.3785L13.2662 5.37848M14.6999 5.90212L13.2662 5.37848M13.2662 5.37848L13.2662 5.37848L13.2662 5.37848L13.2662 5.37848Z" fill="#56C6F5" stroke="white" stroke-width="0.334668"/>
<mask id="mask4_58_3640" style="mask-type:luminance" maskUnits="userSpaceOnUse" x="12" y="2" width="4" height="5">
<path d="M14.86 5.98763L14.9322 5.82115L15.761 3.91141L15.7955 3.832L15.7506 3.758L15.122 2.7218L15.0501 2.60336L14.9203 2.65184L13.8104 3.06655L13.7311 3.09616L13.708 3.17754L13.1417 5.16941L13.0932 5.33989L14.86 5.98763ZM14.86 5.98763L14.6999 5.90214M14.86 5.98763L14.6999 5.90214M14.6999 5.90214L14.6999 5.90213M14.6999 5.90214L14.6999 5.90213M14.6999 5.90213L14.6999 5.90212M14.6999 5.90213L14.6999 5.90212M14.6999 5.90212L14.6997 5.90204L14.6989 5.90163L14.6955 5.89983L14.6818 5.89261C14.6696 5.88626 14.6517 5.87697 14.6289 5.8654C14.5833 5.84225 14.5186 5.81009 14.4425 5.77426C14.2892 5.70205 14.0944 5.61717 13.9181 5.5603C13.7356 5.50137 13.5719 5.45576 13.4541 5.42491C13.3952 5.4095 13.3478 5.3978 13.3154 5.39L13.2783 5.38125L13.269 5.37911L13.2668 5.37861L13.2663 5.3785L13.2662 5.37848M14.6999 5.90212L13.2662 5.37848M13.2662 5.37848L13.2662 5.37848L13.2662 5.37848L13.2662 5.37848Z" fill="white" stroke="white" stroke-width="0.334668"/>
</mask>
<g mask="url(#mask4_58_3640)">
<path fill-rule="evenodd" clip-rule="evenodd" d="M14.7815 3.7483L14.6865 3.85459C14.6655 3.87811 14.6266 3.86546 14.6234 3.83407L14.609 3.69223L14.4694 3.6631C14.4385 3.65665 14.43 3.61659 14.4556 3.59814L14.5713 3.51475L14.5267 3.37932C14.5169 3.34936 14.5473 3.32195 14.5761 3.33489L14.7061 3.39334L14.8011 3.28705C14.8221 3.26353 14.8611 3.27619 14.8643 3.30757L14.8787 3.44941L15.0182 3.47855C15.0491 3.485 15.0576 3.52506 15.032 3.54351L14.9164 3.62689L14.9609 3.76232C14.9708 3.79229 14.9403 3.81969 14.9116 3.80676L14.7815 3.7483Z" fill="#FECA00"/>
<path d="M13.3542 4.68438L13.4964 4.12939C14.1261 4.29572 14.7825 4.5089 15.2641 4.71504L15.0447 5.24346C14.5898 5.04872 13.9589 4.8441 13.3542 4.68438Z" fill="#E31D1C"/>
<path d="M13.547 4.17186L13.5805 4.03259C14.1842 4.1824 14.8258 4.42144 15.2921 4.64407L15.232 4.77381C14.7747 4.55545 14.1419 4.3195 13.547 4.17186Z" fill="white"/>
<path d="M13.3682 4.74388L13.4017 4.60461C14.0054 4.75442 14.5633 4.9577 15.0296 5.18033L14.9695 5.31007C14.5122 5.09171 13.9631 4.89152 13.3682 4.74388Z" fill="white"/>
<path d="M13.6406 4.47524L13.7699 4.41687C13.8243 4.54425 13.8915 4.57232 14.0039 4.51772C14.2693 4.38876 14.9277 4.56897 14.9277 4.81196C14.9277 4.90676 14.8727 4.96423 14.7888 4.9609C14.7415 4.95903 14.691 4.94032 14.6168 4.90367C14.6078 4.89922 14.6019 4.89624 14.5873 4.88883C14.5053 4.84702 14.4991 4.84397 14.4773 4.83611L14.524 4.69913C14.5543 4.71002 14.559 4.71235 14.6501 4.75879C14.6641 4.76593 14.6696 4.76869 14.678 4.77285C14.7348 4.80094 14.7728 4.815 14.7943 4.81586C14.7963 4.81593 14.7865 4.82618 14.7865 4.81196C14.7865 4.70505 14.2507 4.55838 14.0642 4.64896C13.8783 4.73929 13.7263 4.67583 13.6406 4.47524Z" fill="#272727"/>
</g>
</g>
</g>
<defs>
<clipPath id="clip0_58_3640">
<rect width="21.4187" height="16.064" fill="white" transform="translate(0.349609 0.374023)"/>
</clipPath>
</defs>
</svg>
