<svg width="22" height="17" viewBox="0 0 22 17" fill="none" xmlns="http://www.w3.org/2000/svg">
<g clip-path="url(#clip0_58_3601)">
<rect width="21.4187" height="16.064" transform="translate(0.187134 0.374023)" fill="white"/>
<path fill-rule="evenodd" clip-rule="evenodd" d="M0.477783 0.342041V16.4061H21.8965V0.342041H0.477783Z" fill="#2E42A5"/>
<mask id="mask0_58_3601" style="mask-type:luminance" maskUnits="userSpaceOnUse" x="0" y="0" width="22" height="17">
<path fill-rule="evenodd" clip-rule="evenodd" d="M0.477783 0.342041V16.4061H21.8965V0.342041H0.477783Z" fill="white"/>
</mask>
<g mask="url(#mask0_58_3601)">
<path fill-rule="evenodd" clip-rule="evenodd" d="M0.477783 8.37402V16.406H21.8965V8.37402H0.477783Z" fill="#E31D1C"/>
<rect x="7.17114" y="5.69666" width="8.03202" height="5.35468" fill="white"/>
<mask id="mask1_58_3601" style="mask-type:luminance" maskUnits="userSpaceOnUse" x="7" y="5" width="9" height="7">
<rect x="7.17114" y="5.69666" width="8.03202" height="5.35468" fill="white"/>
</mask>
<g mask="url(#mask1_58_3601)">
<path fill-rule="evenodd" clip-rule="evenodd" d="M7.17114 10.0995C7.17114 10.0995 9.09906 9.59255 11.1872 9.62348C13.2753 9.65442 15.2032 10.2184 15.2032 10.2184V11.0514H7.17114V10.0995Z" fill="#279E19"/>
<path d="M11.2364 6.29987C11.2364 6.29987 10.6132 6.01917 10.1782 6.01917C9.74313 6.01917 9.50146 6.44761 9.50146 6.44761" stroke="#026A16" stroke-width="0.334668"/>
<path d="M11.3749 6.5812C11.3749 6.5812 10.8014 6.3761 10.4011 6.3761C10.0008 6.3761 9.77844 6.68915 9.77844 6.68915" stroke="#026A16" stroke-width="0.334668"/>
<path d="M11.3749 6.81923C11.3749 6.81923 10.9507 6.61414 10.6546 6.61414C10.3585 6.61414 10.194 6.92718 10.194 6.92718" stroke="#026A16" stroke-width="0.334668"/>
<path d="M11.2004 7.05727C11.2004 7.05727 10.9384 6.85217 10.7554 6.85217C10.5725 6.85217 10.4708 7.16522 10.4708 7.16522" stroke="#026A16" stroke-width="0.334668"/>
<path d="M11.1781 7.21958C11.1781 7.21958 11.0733 7.09009 11.0001 7.09009C10.927 7.09009 10.8864 7.28773 10.8864 7.28773" stroke="#026A16" stroke-width="0.334668"/>
<path d="M11.1379 6.29987C11.1379 6.29987 11.7611 6.01917 12.1961 6.01917C12.6311 6.01917 12.8728 6.44761 12.8728 6.44761" stroke="#026A16" stroke-width="0.334668"/>
<path d="M10.9994 6.5812C10.9994 6.5812 11.5728 6.3761 11.9731 6.3761C12.3734 6.3761 12.5958 6.68915 12.5958 6.68915" stroke="#026A16" stroke-width="0.334668"/>
<path d="M10.9994 6.81923C10.9994 6.81923 11.4237 6.61414 11.7198 6.61414C12.0159 6.61414 12.1804 6.92718 12.1804 6.92718" stroke="#026A16" stroke-width="0.334668"/>
<path d="M11.1738 7.05727C11.1738 7.05727 11.4359 6.85217 11.6189 6.85217C11.8018 6.85217 11.9034 7.16522 11.9034 7.16522" stroke="#026A16" stroke-width="0.334668"/>
<path d="M11.1962 7.21958C11.1962 7.21958 11.301 7.09009 11.3741 7.09009C11.4473 7.09009 11.4879 7.28773 11.4879 7.28773" stroke="#026A16" stroke-width="0.334668"/>
<path fill-rule="evenodd" clip-rule="evenodd" d="M11.1119 7.30188C11.1119 7.30188 11.0354 8.19706 11.0354 8.56137C11.0354 8.92569 11.1119 9.71178 11.1119 9.71178H11.3085C11.3085 9.71178 11.3085 8.86551 11.3085 8.56137C11.3085 8.25724 11.1931 7.30188 11.1931 7.30188H11.1119Z" fill="#FECA00"/>
<path fill-rule="evenodd" clip-rule="evenodd" d="M10.3386 8.31946C10.3386 8.31946 9.85388 8.5789 9.85388 9.34697L10.3386 10.2744H11.2134V8.74713L10.3386 8.31946Z" fill="#C51918"/>
<path fill-rule="evenodd" clip-rule="evenodd" d="M9.62024 7.58813C9.62024 7.58813 8.48853 7.9234 8.48853 9.16021L9.95478 9.28529C9.95478 9.28529 9.87468 8.56673 10.3259 8.23434L9.62024 7.58813Z" fill="#0A328C"/>
<path d="M9.15308 7.11621L11.0945 8.89534" stroke="#FFD018" stroke-width="0.334668"/>
<path d="M8.47888 7.51904L11.1867 9.27737" stroke="#FFD018" stroke-width="0.334668"/>
<path d="M8.0127 8.19958L11.0646 9.59533" stroke="#FFD018" stroke-width="0.334668"/>
<path fill-rule="evenodd" clip-rule="evenodd" d="M8.49634 9.15051L10.5215 9.37694L10.4075 9.65957H10.0864L10.3051 9.81926L10.7982 9.93466V9.65957H11.2301V10.244H10.3051L9.95034 9.81926C9.95034 9.81926 9.65239 10.113 9.3616 10.113C9.07081 10.113 8.78412 10.0176 8.78412 9.69726C8.78412 9.37694 8.78412 9.47441 8.78412 9.47441L8.49634 9.37694V9.15051Z" fill="#FECA00"/>
<path fill-rule="evenodd" clip-rule="evenodd" d="M11.759 8.31946C11.759 8.31946 12.2438 8.5789 12.2438 9.34697L11.759 10.2744H10.8843V8.74713L11.759 8.31946Z" fill="#C51918"/>
<path fill-rule="evenodd" clip-rule="evenodd" d="M12.4773 7.58813C12.4773 7.58813 13.609 7.9234 13.609 9.16021L12.1428 9.28529C12.1428 9.28529 12.2228 8.56673 11.7716 8.23434L12.4773 7.58813Z" fill="#0A328C"/>
<path d="M12.9445 7.11621L11.0031 8.89534" stroke="#FFD018" stroke-width="0.334668"/>
<path d="M13.6187 7.51904L10.9109 9.27737" stroke="#FFD018" stroke-width="0.334668"/>
<path d="M14.0848 8.19958L11.0329 9.59533" stroke="#FFD018" stroke-width="0.334668"/>
<path fill-rule="evenodd" clip-rule="evenodd" d="M13.6012 9.15051L11.576 9.37694L11.69 9.65957H12.0111L11.7924 9.81926L11.2993 9.93466V9.65957H10.8675V10.244H11.7924L12.1472 9.81926C12.1472 9.81926 12.4451 10.113 12.7359 10.113C13.0267 10.113 13.3134 10.0176 13.3134 9.69726C13.3134 9.37694 13.3134 9.47441 13.3134 9.47441L13.6012 9.37694V9.15051Z" fill="#FECA00"/>
</g>
</g>
</g>
<defs>
<clipPath id="clip0_58_3601">
<rect width="21.4187" height="16.064" fill="white" transform="translate(0.187134 0.374023)"/>
</clipPath>
</defs>
</svg>
