<svg width="22" height="17" viewBox="0 0 22 17" fill="none" xmlns="http://www.w3.org/2000/svg">
<g clip-path="url(#clip0_58_3550)">
<rect width="21.4187" height="16.064" transform="translate(0 0.211914)" fill="white"/>
<path fill-rule="evenodd" clip-rule="evenodd" d="M0.290649 0.179932V16.244H21.7094V0.179932H0.290649Z" fill="#E31D1C"/>
<mask id="mask0_58_3550" style="mask-type:luminance" maskUnits="userSpaceOnUse" x="0" y="0" width="22" height="17">
<path fill-rule="evenodd" clip-rule="evenodd" d="M0.290649 0.179932V16.244H21.7094V0.179932H0.290649Z" fill="white"/>
</mask>
<g mask="url(#mask0_58_3550)">
<path fill-rule="evenodd" clip-rule="evenodd" d="M4.36939 2.95149C4.36425 2.88957 4.43835 2.85954 4.48026 2.90542C4.78088 3.2345 5.57541 4.05375 6.0349 4.05375C6.60986 4.05375 8.86792 2.15107 9.53535 2.46102C10.2028 2.77097 11.5541 6.01164 11.5541 6.01164L10.6735 7.11622L9.53535 6.49533L9.32025 4.05375C9.32025 4.05375 7.12948 5.18056 6.0349 4.77155L5.41959 5.28859C5.41959 5.28859 4.82704 4.11524 4.59369 3.75636C4.4393 3.5189 4.38706 3.16428 4.36939 2.95149Z" fill="#F7FCFF"/>
<path fill-rule="evenodd" clip-rule="evenodd" d="M5.82081 5.6177L5.44612 5.84472L5.51768 5.36389L5.21455 5.02337L5.63347 4.95322L5.82081 4.51575L6.00816 4.95322L6.42707 5.02337L6.12394 5.36389L6.1955 5.84472L5.82081 5.6177Z" fill="#FECA00"/>
<path fill-rule="evenodd" clip-rule="evenodd" d="M9.00061 2.718C9.00061 2.58391 9.10931 2.47522 9.24339 2.47522V2.47522C9.37747 2.47522 9.48616 2.58391 9.48616 2.718V3.86497C9.48616 3.99905 9.37747 4.10774 9.24339 4.10774V4.10774C9.10931 4.10774 9.00061 3.99905 9.00061 3.86497L9.00061 2.718Z" fill="#FECA00"/>
<path fill-rule="evenodd" clip-rule="evenodd" d="M17.1715 3.59575C17.2268 3.6242 17.213 3.70296 17.1519 3.71419C16.7135 3.79474 15.5977 4.03441 15.3542 4.42408C15.0495 4.91167 15.4665 7.83489 14.8499 8.23665C14.2334 8.63841 10.7691 8.0671 10.7691 8.0671L10.299 6.73497L11.4286 6.09879L13.6132 7.21021C13.6132 7.21021 13.8186 4.75521 14.7454 4.0437L14.633 3.2479C14.633 3.2479 15.9421 3.36716 16.3701 3.35946C16.6533 3.35436 16.9817 3.49798 17.1715 3.59575Z" fill="#F7FCFF"/>
<path fill-rule="evenodd" clip-rule="evenodd" d="M14.1414 3.41356L14.1474 2.97551L14.5173 3.29099L14.9667 3.21437L14.8042 3.60681L15.0759 3.99751L14.6056 3.92456L14.3241 4.24265L14.196 3.80513L13.7503 3.61102L14.1414 3.41356Z" fill="#FECA00"/>
<path fill-rule="evenodd" clip-rule="evenodd" d="M14.9588 7.67958C15.079 7.75415 15.1185 7.91063 15.0479 8.03327V8.03327C14.9723 8.16482 14.8011 8.2049 14.6749 8.12061L13.6384 7.42833C13.5453 7.36621 13.5072 7.24831 13.5462 7.14349V7.14349C13.5994 7.00067 13.77 6.9423 13.8995 7.02262L14.9588 7.67958Z" fill="#FECA00"/>
<path fill-rule="evenodd" clip-rule="evenodd" d="M10.2387 14.225C10.1865 14.2586 10.1252 14.2073 10.146 14.1487C10.2954 13.7288 10.6458 12.6426 10.4301 12.2369C10.1601 11.7293 7.42008 10.6288 7.38041 9.89396C7.34074 9.15915 9.56768 6.4446 9.56768 6.4446L10.9564 6.70355L10.9425 7.99997L8.88769 9.33615C8.88769 9.33615 10.9111 10.7415 11.0639 11.9L11.8092 12.2005C11.8092 12.2005 11.0514 13.2746 10.8441 13.6491C10.7069 13.8969 10.4183 14.1095 10.2387 14.225Z" fill="#F7FCFF"/>
<path fill-rule="evenodd" clip-rule="evenodd" d="M11.9115 11.6918L12.2878 11.916L11.8297 12.0786L11.6713 12.5061L11.4127 12.1692L10.9385 12.2091L11.2368 11.8383L11.1021 11.4355L11.5451 11.5433L11.936 11.2544L11.9115 11.6918Z" fill="#FECA00"/>
<path fill-rule="evenodd" clip-rule="evenodd" d="M7.72252 10.1913C7.57321 10.2483 7.40717 10.165 7.36369 10.0112V10.0112C7.32558 9.87634 7.39608 9.73462 7.5266 9.68369L8.64324 9.24795C8.76731 9.19953 8.90826 9.24643 8.97859 9.35953V9.35953C9.07039 9.50717 9.0048 9.7019 8.84237 9.7639L7.72252 10.1913Z" fill="#FECA00"/>
<path d="M9.43559 6.71587C9.35229 6.68676 9.3078 6.59398 9.33621 6.50865C9.36463 6.42332 9.49809 6.28078 9.58139 6.30989L10.7432 6.71587C10.8032 6.73681 10.8453 6.79213 10.8506 6.85679L10.9545 8.13111C10.9618 8.22095 10.8309 8.29364 10.7432 8.30114C10.6555 8.30865 10.5785 8.24189 10.5711 8.15204L10.4749 7.05617L9.43559 6.71587Z" fill="#FECA00"/>
<path d="M11.4556 6.04828C11.5251 5.99289 11.6491 6.05709 11.7032 6.12823C11.7572 6.19937 11.7448 6.30194 11.6753 6.35734L10.8705 7.18224C10.8011 7.23763 10.6449 7.12958 10.5908 7.05844C10.5367 6.9873 10.5214 6.79351 10.5908 6.73812L11.4556 6.04828Z" fill="#FECA00"/>
</g>
</g>
<defs>
<clipPath id="clip0_58_3550">
<rect width="21.4187" height="16.064" fill="white" transform="translate(0 0.211914)"/>
</clipPath>
</defs>
</svg>
