<svg width="23" height="17" viewBox="0 0 23 17" fill="none" xmlns="http://www.w3.org/2000/svg">
<g clip-path="url(#clip0_58_3537)">
<rect width="21.4187" height="16.064" transform="translate(0.837402 0.211914)" fill="white"/>
<path fill-rule="evenodd" clip-rule="evenodd" d="M1.12805 0.179932V16.244H22.5468V0.179932H1.12805Z" fill="#F7FCFF"/>
<mask id="mask0_58_3537" style="mask-type:luminance" maskUnits="userSpaceOnUse" x="1" y="0" width="22" height="17">
<path fill-rule="evenodd" clip-rule="evenodd" d="M1.12805 0.179932V16.244H22.5468V0.179932H1.12805Z" fill="white"/>
</mask>
<g mask="url(#mask0_58_3537)">
<path fill-rule="evenodd" clip-rule="evenodd" d="M1.12805 0.179932V5.53461H22.5468V0.179932H1.12805Z" fill="#FF8C1A"/>
<path fill-rule="evenodd" clip-rule="evenodd" d="M1.12805 10.8893V16.244H22.5468V10.8893H1.12805Z" fill="#5EAA22"/>
<path fill-rule="evenodd" clip-rule="evenodd" d="M9.16016 8.21189C9.16016 9.69054 10.3588 10.8892 11.8375 10.8892C13.3162 10.8892 14.5148 9.69054 14.5148 8.21189C14.5148 6.73323 13.3162 5.53455 11.8375 5.53455C10.3588 5.53455 9.16016 6.73323 9.16016 8.21189ZM13.8455 8.21191C13.8455 9.3209 12.9465 10.2199 11.8375 10.2199C10.7285 10.2199 9.82951 9.3209 9.82951 8.21191C9.82951 7.10292 10.7285 6.2039 11.8375 6.2039C12.9465 6.2039 13.8455 7.10292 13.8455 8.21191Z" fill="#3D58DB"/>
<path fill-rule="evenodd" clip-rule="evenodd" d="M11.8338 8.78799L11.4518 10.8767L11.6736 8.76495L10.7186 10.6614L11.5264 8.69771L10.0757 10.2483L11.404 8.5917L9.5753 9.67076L11.3165 8.45553L9.25786 8.97566L11.2709 8.30022L9.14911 8.21928L11.2709 8.13834L9.25786 7.4629L11.3165 7.98303L9.5753 6.7678L11.404 7.84686L10.0757 6.19029L11.5264 7.74085L10.7186 5.77716L11.6736 7.67361L11.4518 5.56187L11.8338 7.65057L12.2159 5.56187L11.9941 7.67361L12.9491 5.77716L12.1413 7.74085L13.592 6.19029L12.2636 7.84686L14.0924 6.7678L12.3512 7.98303L14.4098 7.4629L12.3968 8.13834L14.5186 8.21928L12.3968 8.30022L14.4098 8.97566L12.3512 8.45553L14.0924 9.67076L12.2636 8.5917L13.592 10.2483L12.1413 8.69771L12.9491 10.6614L11.9941 8.76495L12.2159 10.8767L11.8338 8.78799Z" fill="#3D58DB"/>
</g>
</g>
<defs>
<clipPath id="clip0_58_3537">
<rect width="21.4187" height="16.064" fill="white" transform="translate(0.837402 0.211914)"/>
</clipPath>
</defs>
</svg>
