<svg width="23" height="17" viewBox="0 0 23 17" fill="none" xmlns="http://www.w3.org/2000/svg">
<g clip-path="url(#clip0_58_3465)">
<rect width="21.4187" height="16.064" transform="translate(0.674805 0.211914)" fill="white"/>
<path fill-rule="evenodd" clip-rule="evenodd" d="M0.965454 0.179932V16.244H22.3842V0.179932H0.965454Z" fill="#F7FCFF"/>
<mask id="mask0_58_3465" style="mask-type:luminance" maskUnits="userSpaceOnUse" x="0" y="0" width="23" height="17">
<path fill-rule="evenodd" clip-rule="evenodd" d="M0.965454 0.179932V16.244H22.3842V0.179932H0.965454Z" fill="white"/>
</mask>
<g mask="url(#mask0_58_3465)">
<path fill-rule="evenodd" clip-rule="evenodd" d="M-0.0423067 2.38302L0.953091 3.33148C1.77505 2.55448 2.55062 2.18791 3.28767 2.18791C3.64378 2.18791 3.79543 2.27393 4.20611 2.66215C4.85753 3.27793 5.29594 3.52658 6.11995 3.52658C6.94396 3.52658 7.38237 3.27793 8.03379 2.66215C8.44448 2.27393 8.59613 2.18791 8.95223 2.18791C9.30833 2.18791 9.45998 2.27393 9.87067 2.66215C10.5221 3.27793 10.9605 3.52658 11.7845 3.52658C12.6085 3.52658 13.0469 3.27793 13.6983 2.66215C14.109 2.27393 14.2607 2.18791 14.6168 2.18791C14.9729 2.18791 15.1245 2.27393 15.5352 2.66215C16.1866 3.27793 16.6251 3.52658 17.4491 3.52658C18.2731 3.52658 18.7115 3.27793 19.3629 2.66215C19.7736 2.27393 19.9252 2.18791 20.2813 2.18791C21.0184 2.18791 21.794 2.55448 22.6159 3.33148L23.6113 2.38302C22.5451 1.37512 21.4325 0.849243 20.2813 0.849243C19.4573 0.849243 19.0189 1.0979 18.3675 1.71368C17.9568 2.1019 17.8052 2.18791 17.4491 2.18791C17.093 2.18791 16.9413 2.1019 16.5306 1.71368C15.8792 1.0979 15.4408 0.849243 14.6168 0.849243C13.7928 0.849243 13.3544 1.0979 12.7029 1.71368C12.2923 2.1019 12.1406 2.18791 11.7845 2.18791C11.4284 2.18791 11.2768 2.1019 10.8661 1.71368C10.2146 1.0979 9.77624 0.849243 8.95223 0.849243C8.12822 0.849243 7.68981 1.0979 7.03839 1.71368C6.62771 2.1019 6.47606 2.18791 6.11995 2.18791C5.76385 2.18791 5.6122 2.1019 5.20151 1.71368C4.55009 1.0979 4.11168 0.849243 3.28767 0.849243C2.13653 0.849243 1.02392 1.37512 -0.0423067 2.38302ZM0.95304 6.0088L-0.0423584 5.06033C1.02387 4.05244 2.13648 3.52656 3.28762 3.52656C4.11163 3.52656 4.55004 3.77522 5.20146 4.391C5.61214 4.77922 5.7638 4.86523 6.1199 4.86523C6.476 4.86523 6.62765 4.77922 7.03834 4.391C7.68976 3.77522 8.12817 3.52656 8.95218 3.52656C9.77619 3.52656 10.2146 3.77522 10.866 4.391C11.2767 4.77922 11.4284 4.86523 11.7845 4.86523C12.1406 4.86523 12.2922 4.77922 12.7029 4.391C13.3543 3.77522 13.7927 3.52656 14.6167 3.52656C15.4407 3.52656 15.8792 3.77522 16.5306 4.391C16.9413 4.77922 17.0929 4.86523 17.449 4.86523C17.8051 4.86523 17.9568 4.77922 18.3675 4.391C19.0189 3.77522 19.4573 3.52656 20.2813 3.52656C21.4324 3.52656 22.545 4.05244 23.6113 5.06033L22.6159 6.0088C21.7939 5.2318 21.0183 4.86523 20.2813 4.86523C19.9252 4.86523 19.7735 4.95124 19.3629 5.33946C18.7114 5.95525 18.273 6.2039 17.449 6.2039C16.625 6.2039 16.1866 5.95525 15.5352 5.33946C15.1245 4.95124 14.9728 4.86523 14.6167 4.86523C14.2606 4.86523 14.109 4.95124 13.6983 5.33946C13.0469 5.95525 12.6085 6.2039 11.7845 6.2039C10.9604 6.2039 10.522 5.95525 9.87062 5.33946C9.45993 4.95124 9.30828 4.86523 8.95218 4.86523C8.59607 4.86523 8.44442 4.95124 8.03374 5.33946C7.38232 5.95525 6.94391 6.2039 6.1199 6.2039C5.29589 6.2039 4.85748 5.95525 4.20606 5.33946C3.79537 4.95124 3.64372 4.86523 3.28762 4.86523C2.55057 4.86523 1.775 5.2318 0.95304 6.0088ZM0.95304 8.68614L-0.0423584 7.73767C1.02387 6.72978 2.13648 6.2039 3.28762 6.2039C4.11163 6.2039 4.55004 6.45256 5.20146 7.06834C5.61214 7.45656 5.7638 7.54257 6.1199 7.54257C6.476 7.54257 6.62765 7.45656 7.03834 7.06834C7.68976 6.45256 8.12817 6.2039 8.95218 6.2039C9.77619 6.2039 10.2146 6.45256 10.866 7.06834C11.2767 7.45656 11.4284 7.54257 11.7845 7.54257C12.1406 7.54257 12.2922 7.45656 12.7029 7.06834C13.3543 6.45256 13.7927 6.2039 14.6167 6.2039C15.4407 6.2039 15.8792 6.45256 16.5306 7.06834C16.9413 7.45656 17.0929 7.54257 17.449 7.54257C17.8051 7.54257 17.9568 7.45656 18.3675 7.06834C19.0189 6.45256 19.4573 6.2039 20.2813 6.2039C21.4324 6.2039 22.545 6.72978 23.6113 7.73767L22.6159 8.68614C21.7939 7.90914 21.0183 7.54257 20.2813 7.54257C19.9252 7.54257 19.7735 7.62858 19.3629 8.0168C18.7114 8.63259 18.273 8.88124 17.449 8.88124C16.625 8.88124 16.1866 8.63259 15.5352 8.0168C15.1245 7.62858 14.9728 7.54257 14.6167 7.54257C14.2606 7.54257 14.109 7.62858 13.6983 8.0168C13.0469 8.63259 12.6085 8.88124 11.7845 8.88124C10.9604 8.88124 10.522 8.63259 9.87062 8.0168C9.45993 7.62858 9.30828 7.54257 8.95218 7.54257C8.59607 7.54257 8.44442 7.62858 8.03374 8.0168C7.38232 8.63259 6.94391 8.88124 6.1199 8.88124C5.29589 8.88124 4.85748 8.63259 4.20606 8.0168C3.79537 7.62858 3.64372 7.54257 3.28762 7.54257C2.55057 7.54257 1.775 7.90914 0.95304 8.68614ZM0.95304 11.3635L-0.0423584 10.415C1.02387 9.40712 2.13648 8.88124 3.28762 8.88124C4.11163 8.88124 4.55004 9.1299 5.20146 9.74568C5.61214 10.1339 5.7638 10.2199 6.1199 10.2199C6.476 10.2199 6.62765 10.1339 7.03834 9.74568C7.68976 9.1299 8.12817 8.88124 8.95218 8.88124C9.77619 8.88124 10.2146 9.1299 10.866 9.74568C11.2767 10.1339 11.4284 10.2199 11.7845 10.2199C12.1406 10.2199 12.2922 10.1339 12.7029 9.74568C13.3543 9.1299 13.7927 8.88124 14.6167 8.88124C15.4407 8.88124 15.8792 9.1299 16.5306 9.74568C16.9413 10.1339 17.0929 10.2199 17.449 10.2199C17.8051 10.2199 17.9568 10.1339 18.3675 9.74568C19.0189 9.1299 19.4573 8.88124 20.2813 8.88124C21.4324 8.88124 22.545 9.40712 23.6113 10.415L22.6159 11.3635C21.7939 10.5865 21.0183 10.2199 20.2813 10.2199C19.9252 10.2199 19.7735 10.3059 19.3629 10.6941C18.7114 11.3099 18.273 11.5586 17.449 11.5586C16.625 11.5586 16.1866 11.3099 15.5352 10.6941C15.1245 10.3059 14.9728 10.2199 14.6167 10.2199C14.2606 10.2199 14.109 10.3059 13.6983 10.6941C13.0469 11.3099 12.6085 11.5586 11.7845 11.5586C10.9604 11.5586 10.522 11.3099 9.87062 10.6941C9.45993 10.3059 9.30828 10.2199 8.95218 10.2199C8.59607 10.2199 8.44442 10.3059 8.03374 10.6941C7.38232 11.3099 6.94391 11.5586 6.1199 11.5586C5.29589 11.5586 4.85748 11.3099 4.20606 10.6941C3.79537 10.3059 3.64372 10.2199 3.28762 10.2199C2.55057 10.2199 1.775 10.5865 0.95304 11.3635ZM0.95304 14.0408L-0.0423584 13.0924C1.02387 12.0845 2.13648 11.5586 3.28762 11.5586C4.11163 11.5586 4.55004 11.8072 5.20146 12.423C5.61214 12.8112 5.7638 12.8973 6.1199 12.8973C6.476 12.8973 6.62765 12.8112 7.03834 12.423C7.68976 11.8072 8.12817 11.5586 8.95218 11.5586C9.77619 11.5586 10.2146 11.8072 10.866 12.423C11.2767 12.8112 11.4284 12.8973 11.7845 12.8973C12.1406 12.8973 12.2922 12.8112 12.7029 12.423C13.3543 11.8072 13.7927 11.5586 14.6167 11.5586C15.4407 11.5586 15.8792 11.8072 16.5306 12.423C16.9413 12.8112 17.0929 12.8973 17.449 12.8973C17.8051 12.8973 17.9568 12.8112 18.3675 12.423C19.0189 11.8072 19.4573 11.5586 20.2813 11.5586C21.4324 11.5586 22.545 12.0845 23.6113 13.0924L22.6159 14.0408C21.7939 13.2638 21.0183 12.8973 20.2813 12.8973C19.9252 12.8973 19.7735 12.9833 19.3629 13.3715C18.7114 13.9873 18.273 14.2359 17.449 14.2359C16.625 14.2359 16.1866 13.9873 15.5352 13.3715C15.1245 12.9833 14.9728 12.8973 14.6167 12.8973C14.2606 12.8973 14.109 12.9833 13.6983 13.3715C13.0469 13.9873 12.6085 14.2359 11.7845 14.2359C10.9604 14.2359 10.522 13.9873 9.87062 13.3715C9.45993 12.9833 9.30828 12.8973 8.95218 12.8973C8.59607 12.8973 8.44442 12.9833 8.03374 13.3715C7.38232 13.9873 6.94391 14.2359 6.1199 14.2359C5.29589 14.2359 4.85748 13.9873 4.20606 13.3715C3.79537 12.9833 3.64372 12.8973 3.28762 12.8973C2.55057 12.8973 1.775 13.2638 0.95304 14.0408ZM0.95304 16.7182L-0.0423584 15.7697C1.02387 14.7618 2.13648 14.2359 3.28762 14.2359C4.11163 14.2359 4.55004 14.4846 5.20146 15.1004C5.61214 15.4886 5.7638 15.5746 6.1199 15.5746C6.476 15.5746 6.62765 15.4886 7.03834 15.1004C7.68976 14.4846 8.12817 14.2359 8.95218 14.2359C9.77619 14.2359 10.2146 14.4846 10.866 15.1004C11.2767 15.4886 11.4284 15.5746 11.7845 15.5746C12.1406 15.5746 12.2922 15.4886 12.7029 15.1004C13.3543 14.4846 13.7927 14.2359 14.6167 14.2359C15.4407 14.2359 15.8792 14.4846 16.5306 15.1004C16.9413 15.4886 17.0929 15.5746 17.449 15.5746C17.8051 15.5746 17.9568 15.4886 18.3675 15.1004C19.0189 14.4846 19.4573 14.2359 20.2813 14.2359C21.4324 14.2359 22.545 14.7618 23.6113 15.7697L22.6159 16.7182C21.7939 15.9412 21.0183 15.5746 20.2813 15.5746C19.9252 15.5746 19.7735 15.6606 19.3629 16.0488C18.7114 16.6646 18.273 16.9133 17.449 16.9133C16.625 16.9133 16.1866 16.6646 15.5352 16.0488C15.1245 15.6606 14.9728 15.5746 14.6167 15.5746C14.2606 15.5746 14.109 15.6606 13.6983 16.0488C13.0469 16.6646 12.6085 16.9133 11.7845 16.9133C10.9604 16.9133 10.522 16.6646 9.87062 16.0488C9.45993 15.6606 9.30828 15.5746 8.95218 15.5746C8.59607 15.5746 8.44442 15.6606 8.03374 16.0488C7.38232 16.6646 6.94391 16.9133 6.1199 16.9133C5.29589 16.9133 4.85748 16.6646 4.20606 16.0488C3.79537 15.6606 3.64372 15.5746 3.28762 15.5746C2.55057 15.5746 1.775 15.9412 0.95304 16.7182Z" fill="#2E42A5"/>
<rect x="0.965454" y="0.179932" width="9.37069" height="8.03202" fill="#2E42A5"/>
<g clip-path="url(#clip1_58_3465)">
<rect width="9.37069" height="6.69335" transform="translate(0.674805 0.211914)" fill="#2E42A5"/>
<path d="M-0.36853 6.97953L1.69352 7.88391L10.0924 1.19517L11.18 -0.148755L8.97498 -0.451024L5.54929 2.43134L2.79197 4.37339L-0.36853 6.97953Z" fill="#F7FCFF"/>
<path d="M-0.0863037 7.61311L0.964214 8.13794L10.7894 -0.273669H9.31434L-0.0863037 7.61311Z" fill="#F50100"/>
<path d="M11.0889 6.97953L9.02682 7.88391L0.627976 1.19517L-0.459707 -0.148755L1.74536 -0.451024L5.17104 2.43134L7.92837 4.37339L11.0889 6.97953Z" fill="#F7FCFF"/>
<path d="M11.0186 7.43428L9.96804 7.95911L5.78437 4.35766L4.54401 3.95528L-0.564319 -0.144155H0.910729L6.01619 3.85798L7.37231 4.34047L11.0186 7.43428Z" fill="#F50100"/>
<path fill-rule="evenodd" clip-rule="evenodd" d="M5.87268 -0.0855713H4.83149V3.03799H0.674805V4.07918H4.83149V7.20274H5.87268V4.07918H10.0455V3.03799H5.87268V-0.0855713Z" fill="#F50100"/>
<path fill-rule="evenodd" clip-rule="evenodd" d="M4.0506 -0.0855713H6.65357V2.2571H10.0455V4.86007H6.65357L6.66164 7.20274H4.05867L4.0506 4.86007H0.674805V2.2571H4.0506V-0.0855713ZM4.83149 3.03799H0.674805V4.07918H4.83149V7.20274H5.87268V4.07918H10.0455V3.03799H5.87268V-0.0855713H4.83149V3.03799Z" fill="#F7FCFF"/>
</g>
<rect x="14.62" y="6.45728" width="0.669335" height="8.44792" rx="0.334668" fill="#D86D00"/>
<mask id="path-12-outside-1_58_3465" maskUnits="userSpaceOnUse" x="10.3485" y="0.557007" width="9" height="8" fill="black">
<rect fill="white" x="10.3485" y="0.557007" width="9" height="8"/>
<path fill-rule="evenodd" clip-rule="evenodd" d="M14.6227 1.55701C15.1765 2.31636 15.4035 3.21372 15.4239 4.12669C16.049 3.27966 17.0916 2.58771 17.5792 2.2918C17.1318 2.60467 16.8994 3.06851 16.6379 3.59044C16.5096 3.84659 16.3743 4.11673 16.2031 4.38988C17.2684 4.00717 18.3266 3.90891 18.3266 3.90891C17.6167 4.11035 16.9618 4.52162 16.3255 4.92125L16.3255 4.92125C16.0934 5.06706 15.8637 5.21132 15.6347 5.34326C17.6907 6.11767 18.007 7.23759 18.007 7.23759C17.7549 7.01509 17.2112 6.77701 16.1843 6.3274C15.9876 6.24125 15.7731 6.14733 15.5395 6.04427C15.6928 6.609 15.8788 7.05076 16.0564 7.4725L16.1093 7.59815C16.1093 7.59815 14.6866 7.21401 14.4163 6.11104C13.6181 6.75201 12.7557 7.11686 12.3511 7.26142C12.3511 7.26142 13.3145 6.2156 14.022 5.5216C13.093 5.41688 11.3485 5.33115 11.3485 5.33115L11.4725 5.30165C12.174 5.13453 13.2593 4.87595 14.2538 4.88949C13.1873 4.29189 12.5314 3.48294 12.3299 3.21107C12.4997 3.36112 12.9725 3.549 13.6176 3.80536L13.6176 3.80536C13.8899 3.91356 14.1929 4.03396 14.5167 4.16886C14.5784 3.04173 14.6227 1.55701 14.6227 1.55701ZM12.2633 3.11759C12.27 3.14715 12.2927 3.1782 12.3299 3.21107C12.2856 3.15139 12.2633 3.11759 12.2633 3.11759ZM17.8457 2.13679C17.7488 2.18311 17.6604 2.23496 17.5792 2.2918C17.7443 2.19158 17.8457 2.13679 17.8457 2.13679ZM14.8137 4.87609C14.8552 4.85769 14.9011 4.84747 14.9494 4.84747C14.9747 4.84747 14.9994 4.85029 15.0232 4.85563C15.0301 4.83586 15.0374 4.81613 15.045 4.79644L14.8234 4.81171L14.8137 4.87609Z"/>
</mask>
<path fill-rule="evenodd" clip-rule="evenodd" d="M14.6227 1.55701C15.1765 2.31636 15.4035 3.21372 15.4239 4.12669C16.049 3.27966 17.0916 2.58771 17.5792 2.2918C17.1318 2.60467 16.8994 3.06851 16.6379 3.59044C16.5096 3.84659 16.3743 4.11673 16.2031 4.38988C17.2684 4.00717 18.3266 3.90891 18.3266 3.90891C17.6167 4.11035 16.9618 4.52162 16.3255 4.92125L16.3255 4.92125C16.0934 5.06706 15.8637 5.21132 15.6347 5.34326C17.6907 6.11767 18.007 7.23759 18.007 7.23759C17.7549 7.01509 17.2112 6.77701 16.1843 6.3274C15.9876 6.24125 15.7731 6.14733 15.5395 6.04427C15.6928 6.609 15.8788 7.05076 16.0564 7.4725L16.1093 7.59815C16.1093 7.59815 14.6866 7.21401 14.4163 6.11104C13.6181 6.75201 12.7557 7.11686 12.3511 7.26142C12.3511 7.26142 13.3145 6.2156 14.022 5.5216C13.093 5.41688 11.3485 5.33115 11.3485 5.33115L11.4725 5.30165C12.174 5.13453 13.2593 4.87595 14.2538 4.88949C13.1873 4.29189 12.5314 3.48294 12.3299 3.21107C12.4997 3.36112 12.9725 3.549 13.6176 3.80536L13.6176 3.80536C13.8899 3.91356 14.1929 4.03396 14.5167 4.16886C14.5784 3.04173 14.6227 1.55701 14.6227 1.55701ZM12.2633 3.11759C12.27 3.14715 12.2927 3.1782 12.3299 3.21107C12.2856 3.15139 12.2633 3.11759 12.2633 3.11759ZM17.8457 2.13679C17.7488 2.18311 17.6604 2.23496 17.5792 2.2918C17.7443 2.19158 17.8457 2.13679 17.8457 2.13679ZM14.8137 4.87609C14.8552 4.85769 14.9011 4.84747 14.9494 4.84747C14.9747 4.84747 14.9994 4.85029 15.0232 4.85563C15.0301 4.83586 15.0374 4.81613 15.045 4.79644L14.8234 4.81171L14.8137 4.87609Z" fill="#449A01"/>
<path d="M15.4239 4.12669L15.1897 4.13192L15.205 4.81785L15.6124 4.2658L15.4239 4.12669ZM14.6227 1.55701L14.812 1.41898L14.409 0.866281L14.3886 1.55001L14.6227 1.55701ZM16.6379 3.59044L16.4285 3.48551L16.4285 3.48551L16.6379 3.59044ZM16.2031 4.38988L16.0046 4.26547L15.6449 4.83933L16.2823 4.61035L16.2031 4.38988ZM18.3266 3.90891L18.3905 4.13428L18.3049 3.67565L18.3266 3.90891ZM16.3255 4.92125L16.2009 4.72279L16.1956 4.72633L16.3255 4.92125ZM16.3255 4.92125L16.4502 5.11971L16.4555 5.11617L16.3255 4.92125ZM15.6347 5.34326L15.5177 5.14028L15.0882 5.38777L15.5521 5.5625L15.6347 5.34326ZM18.007 7.23759L17.8519 7.41321L18.4488 7.94012L18.2324 7.17391L18.007 7.23759ZM16.1843 6.3274L16.2783 6.1128L16.2783 6.1128L16.1843 6.3274ZM15.5395 6.04427L15.6341 5.82994L15.1847 5.63167L15.3134 6.10566L15.5395 6.04427ZM16.0564 7.4725L16.2724 7.38171L16.2723 7.38159L16.0564 7.4725ZM16.1093 7.59815L16.0482 7.82431L16.511 7.94928L16.3252 7.50736L16.1093 7.59815ZM14.4163 6.11104L14.6438 6.05528L14.5563 5.69814L14.2696 5.92838L14.4163 6.11104ZM12.3511 7.26142L12.1788 7.10269L12.4299 7.48202L12.3511 7.26142ZM14.022 5.5216L14.1861 5.68884L14.5376 5.34397L14.0483 5.2888L14.022 5.5216ZM11.3485 5.33115L11.2943 5.10323L11.337 5.56513L11.3485 5.33115ZM11.4725 5.30165L11.5267 5.52956L11.5268 5.52954L11.4725 5.30165ZM14.2538 4.88949L14.2506 5.12373L14.3683 4.68511L14.2538 4.88949ZM13.6176 3.80536L13.7099 3.58996L13.7041 3.58765L13.6176 3.80536ZM13.6176 3.80536L13.5253 4.02076L13.5311 4.02307L13.6176 3.80536ZM14.5167 4.16886L14.4267 4.38511L14.7326 4.51253L14.7507 4.18165L14.5167 4.16886ZM12.2633 3.11759L12.4587 2.98837L12.0349 3.16972L12.2633 3.11759ZM17.8457 2.13679L17.9571 2.34292L17.7447 1.92541L17.8457 2.13679ZM14.8137 4.87609L14.582 4.8415L14.5191 5.26316L14.9088 5.09022L14.8137 4.87609ZM15.0232 4.85563L14.9717 5.08418L15.175 5.12992L15.2441 4.93344L15.0232 4.85563ZM15.045 4.79644L15.2636 4.88075L15.396 4.53745L15.0289 4.56273L15.045 4.79644ZM14.8234 4.81171L14.8073 4.57799L14.6195 4.59093L14.5917 4.77712L14.8234 4.81171ZM15.6581 4.12147C15.6369 3.17382 15.4008 2.22639 14.812 1.41898L14.4335 1.69503C14.9521 2.40633 15.1701 3.25362 15.1897 4.13192L15.6581 4.12147ZM17.4576 2.09153C16.967 2.38932 15.8897 3.10101 15.2354 3.98759L15.6124 4.2658C16.2083 3.45831 17.2162 2.7861 17.7007 2.49207L17.4576 2.09153ZM16.8474 3.69536C17.1139 3.16345 17.3227 2.757 17.7134 2.48378L17.4449 2.09982C16.9408 2.45235 16.6849 2.97357 16.4285 3.48551L16.8474 3.69536ZM16.4016 4.51429C16.5796 4.23028 16.7196 3.95046 16.8474 3.69536L16.4285 3.48551C16.2996 3.74271 16.169 4.00317 16.0046 4.26547L16.4016 4.51429ZM18.3266 3.90891C18.3049 3.67565 18.3049 3.67565 18.3049 3.67566C18.3048 3.67566 18.3048 3.67566 18.3048 3.67566C18.3047 3.67567 18.3046 3.67568 18.3045 3.67569C18.3043 3.67571 18.304 3.67573 18.3037 3.67577C18.303 3.67583 18.3021 3.67592 18.3009 3.67604C18.2985 3.67627 18.2951 3.6766 18.2908 3.67704C18.2821 3.67792 18.2695 3.67924 18.2533 3.68104C18.2208 3.68463 18.1737 3.69015 18.1141 3.69797C17.995 3.71359 17.8256 3.73841 17.6224 3.7754C17.2169 3.84922 16.6726 3.97229 16.1239 4.16941L16.2823 4.61035C16.7989 4.42476 17.3164 4.30735 17.7063 4.23636C17.9008 4.20095 18.0625 4.17729 18.1751 4.16252C18.2313 4.15515 18.2753 4.15 18.3048 4.14673C18.3196 4.14509 18.3308 4.14392 18.3381 4.14318C18.3418 4.14281 18.3445 4.14254 18.3462 4.14238C18.347 4.14229 18.3476 4.14224 18.348 4.1422C18.3481 4.14219 18.3483 4.14218 18.3483 4.14217C18.3483 4.14217 18.3483 4.14217 18.3483 4.14217C18.3483 4.14217 18.3483 4.14217 18.3483 4.14217C18.3483 4.14217 18.3483 4.14218 18.3266 3.90891ZM16.4501 5.11963C17.0922 4.71637 17.7186 4.32495 18.3905 4.13428L18.2626 3.68354C17.5148 3.89575 16.8315 4.32687 16.2009 4.72286L16.4501 5.11963ZM16.4555 5.11617L16.4555 5.11617L16.1956 4.72633L16.1956 4.72633L16.4555 5.11617ZM15.7516 5.54625C15.9852 5.41169 16.2187 5.265 16.4501 5.11964L16.2009 4.72286C15.9681 4.86912 15.7422 5.01094 15.5177 5.14028L15.7516 5.54625ZM18.007 7.23759C18.2324 7.17391 18.2324 7.17374 18.2323 7.17356C18.2323 7.1735 18.2323 7.17332 18.2322 7.17319C18.2321 7.17293 18.2321 7.17266 18.232 7.17237C18.2318 7.17178 18.2316 7.17113 18.2314 7.17041C18.231 7.16897 18.2305 7.16725 18.2299 7.16527C18.2286 7.16131 18.227 7.15628 18.225 7.15023C18.2209 7.13813 18.2152 7.12195 18.2073 7.10206C18.1916 7.06227 18.1677 7.00765 18.1326 6.94118C18.0624 6.80811 17.9479 6.62812 17.7667 6.42489C17.4032 6.01744 16.7775 5.52338 15.7172 5.12403L15.5521 5.5625C16.5479 5.93756 17.1083 6.39066 17.417 6.73677C17.5718 6.91031 17.6649 7.0587 17.7182 7.15982C17.7449 7.21044 17.7618 7.24937 17.7714 7.27385C17.7762 7.28609 17.7793 7.29473 17.7809 7.29941C17.7816 7.30176 17.7821 7.30311 17.7822 7.30343C17.7822 7.30359 17.7822 7.3035 17.7821 7.30314C17.782 7.30296 17.7819 7.30271 17.7819 7.3024C17.7818 7.30224 17.7818 7.30207 17.7817 7.30188C17.7817 7.30179 17.7816 7.30163 17.7816 7.30158C17.7816 7.30143 17.7815 7.30126 18.007 7.23759ZM16.0904 6.542C16.6056 6.76758 16.9932 6.93737 17.2839 7.07842C17.5786 7.22143 17.7519 7.32494 17.8519 7.41321L18.162 7.06196C18.01 6.92773 17.7854 6.80096 17.4885 6.65689C17.1876 6.51089 16.7899 6.33683 16.2783 6.1128L16.0904 6.542ZM15.4449 6.25861C15.6788 6.36182 15.8936 6.45586 16.0904 6.542L16.2783 6.1128C16.0815 6.02664 15.8673 5.93285 15.6341 5.82994L15.4449 6.25861ZM16.2723 7.38159C16.0947 6.95979 15.9144 6.53091 15.7656 5.98288L15.3134 6.10566C15.4713 6.68708 15.663 7.14173 15.8405 7.56342L16.2723 7.38159ZM16.3252 7.50736L16.2724 7.38171L15.8405 7.56329L15.8933 7.68894L16.3252 7.50736ZM14.1887 6.1668C14.3456 6.80681 14.8315 7.22157 15.2435 7.46904C15.4525 7.59458 15.6516 7.68263 15.7982 7.73937C15.8717 7.76783 15.9327 7.78865 15.976 7.80254C15.9976 7.80949 16.0149 7.81472 16.0271 7.81832C16.0333 7.82012 16.0381 7.82151 16.0417 7.8225C16.0434 7.823 16.0449 7.8234 16.0459 7.8237C16.0465 7.82385 16.047 7.82398 16.0473 7.82408C16.0475 7.82413 16.0477 7.82418 16.0478 7.82422C16.0479 7.82424 16.048 7.82426 16.048 7.82427C16.0481 7.82429 16.0482 7.82431 16.1093 7.59815C16.1703 7.37198 16.1704 7.372 16.1705 7.37201C16.1705 7.37202 16.1705 7.37203 16.1706 7.37204C16.1706 7.37206 16.1706 7.37207 16.1707 7.37207C16.1707 7.37208 16.1706 7.37206 16.1705 7.37202C16.1702 7.37195 16.1696 7.37178 16.1687 7.37152C16.1668 7.37099 16.1637 7.37009 16.1593 7.36881C16.1505 7.36624 16.137 7.36214 16.1192 7.35643C16.0836 7.345 16.0313 7.3272 15.9673 7.30241C15.8387 7.25266 15.6652 7.17574 15.4847 7.06738C15.1179 6.84704 14.7572 6.51824 14.6438 6.05528L14.1887 6.1668ZM12.4299 7.48202C12.8486 7.33245 13.7373 6.9568 14.5629 6.2937L14.2696 5.92838C13.499 6.54723 12.6629 6.90126 12.2723 7.04081L12.4299 7.48202ZM13.858 5.35436C13.501 5.70451 13.0808 6.14203 12.751 6.4908C12.5859 6.66543 12.4429 6.8183 12.3412 6.92754C12.2904 6.98216 12.2498 7.02589 12.222 7.05599C12.208 7.07104 12.1973 7.08268 12.19 7.09058C12.1863 7.09453 12.1836 7.09754 12.1817 7.09958C12.1808 7.10059 12.18 7.10136 12.1796 7.10189C12.1793 7.10215 12.1791 7.10234 12.179 7.10248C12.179 7.10255 12.1789 7.1026 12.1789 7.10263C12.1789 7.10265 12.1788 7.10267 12.1788 7.10268C12.1788 7.10269 12.1788 7.10269 12.3511 7.26142C12.5234 7.42014 12.5234 7.42014 12.5234 7.42013C12.5234 7.42012 12.5234 7.42011 12.5235 7.4201C12.5235 7.42007 12.5235 7.42003 12.5236 7.41997C12.5237 7.41985 12.5239 7.41967 12.5241 7.41942C12.5245 7.41893 12.5252 7.4182 12.5261 7.41721C12.5279 7.41525 12.5307 7.4123 12.5342 7.40842C12.5414 7.40066 12.552 7.38916 12.5658 7.37426C12.5934 7.34445 12.6337 7.30106 12.6842 7.24679C12.7852 7.13825 12.9273 6.98629 13.0915 6.81272C13.4202 6.46507 13.8355 6.03269 14.1861 5.68884L13.858 5.35436ZM11.3485 5.33115C11.337 5.56513 11.337 5.56513 11.337 5.56513C11.337 5.56513 11.3371 5.56513 11.3371 5.56513C11.3371 5.56514 11.3372 5.56514 11.3373 5.56514C11.3375 5.56515 11.3378 5.56517 11.3382 5.56519C11.339 5.56523 11.3403 5.56529 11.3419 5.56537C11.3452 5.56554 11.3501 5.56578 11.3566 5.56611C11.3695 5.56675 11.3886 5.56772 11.4132 5.56899C11.4626 5.57153 11.5341 5.57528 11.6229 5.5801C11.8005 5.58975 12.0469 5.6037 12.3223 5.62091C12.8744 5.65543 13.5377 5.70275 13.9958 5.75439L14.0483 5.2888C13.5774 5.23573 12.9039 5.18782 12.3515 5.15329C12.0746 5.13598 11.8268 5.12195 11.6483 5.11226C11.559 5.10741 11.487 5.10364 11.4373 5.10108C11.4125 5.0998 11.3932 5.09882 11.3801 5.09816C11.3735 5.09783 11.3685 5.09758 11.3652 5.09742C11.3635 5.09733 11.3622 5.09727 11.3613 5.09723C11.3609 5.0972 11.3606 5.09719 11.3604 5.09718C11.3602 5.09717 11.3602 5.09717 11.3601 5.09717C11.3601 5.09716 11.3601 5.09716 11.36 5.09716C11.36 5.09716 11.36 5.09716 11.3485 5.33115ZM11.4183 5.07374L11.2943 5.10323L11.4027 5.55906L11.5267 5.52956L11.4183 5.07374ZM14.257 4.65524C13.2285 4.64125 12.115 4.90776 11.4182 5.07376L11.5268 5.52954C12.233 5.36129 13.29 5.11066 14.2506 5.12373L14.257 4.65524ZM12.1417 3.35058C12.3534 3.63616 13.0326 4.47376 14.1393 5.09386L14.3683 4.68511C13.3419 4.11002 12.7095 3.32971 12.5181 3.07155L12.1417 3.35058ZM13.7041 3.58765C13.38 3.45884 13.1055 3.34971 12.8906 3.25426C12.667 3.15493 12.539 3.08325 12.485 3.03552L12.1748 3.38661C12.2905 3.48894 12.4838 3.58623 12.7004 3.68244C12.9257 3.78253 13.2101 3.89551 13.5311 4.02307L13.7041 3.58765ZM13.7099 3.59004L13.7099 3.59003L13.5253 4.02068L13.5253 4.02069L13.7099 3.59004ZM14.6068 3.9526C14.2809 3.81686 13.9763 3.69579 13.7041 3.58765L13.5311 4.02307C13.8035 4.13133 14.1048 4.25105 14.4267 4.38511L14.6068 3.9526ZM14.6227 1.55701C14.3886 1.55001 14.3886 1.55001 14.3886 1.55002C14.3886 1.55003 14.3886 1.55005 14.3886 1.55007C14.3886 1.55011 14.3886 1.55017 14.3886 1.55026C14.3886 1.55044 14.3886 1.5507 14.3886 1.55105C14.3885 1.55176 14.3885 1.55282 14.3885 1.55423C14.3884 1.55705 14.3882 1.56126 14.3881 1.56681C14.3877 1.57791 14.3872 1.59436 14.3866 1.61571C14.3852 1.6584 14.3833 1.72068 14.3807 1.79896C14.3756 1.95551 14.3681 2.176 14.3587 2.43166C14.34 2.94326 14.3135 3.59459 14.2828 4.15606L14.7507 4.18165C14.7816 3.61599 14.8082 2.9614 14.827 2.44885C14.8364 2.19244 14.8439 1.97131 14.849 1.81426C14.8516 1.73573 14.8535 1.67321 14.8549 1.6303C14.8555 1.60885 14.8561 1.5923 14.8564 1.5811C14.8566 1.5755 14.8567 1.57124 14.8568 1.56837C14.8568 1.56694 14.8569 1.56585 14.8569 1.56512C14.8569 1.56476 14.8569 1.56448 14.8569 1.56429C14.8569 1.5642 14.8569 1.56413 14.8569 1.56408C14.8569 1.56406 14.8569 1.56404 14.8569 1.56403C14.8569 1.56401 14.8569 1.56401 14.6227 1.55701ZM12.0349 3.16972C12.058 3.2709 12.1248 3.34248 12.1748 3.38661L12.485 3.03552C12.4755 3.02711 12.4737 3.02401 12.4756 3.02662C12.4774 3.0292 12.4864 3.04233 12.4917 3.06546L12.0349 3.16972ZM12.5181 3.07155C12.4973 3.04355 12.4819 3.02195 12.472 3.00776C12.4671 3.00066 12.4635 2.99541 12.4612 2.99214C12.4601 2.9905 12.4594 2.98936 12.4589 2.98872C12.4587 2.98841 12.4586 2.98822 12.4586 2.98816C12.4585 2.98813 12.4585 2.98813 12.4586 2.98816C12.4586 2.98818 12.4586 2.98821 12.4586 2.98824C12.4586 2.98826 12.4586 2.98828 12.4586 2.9883C12.4587 2.98831 12.4587 2.98832 12.4587 2.98833C12.4587 2.98834 12.4587 2.98834 12.4587 2.98835C12.4587 2.98836 12.4587 2.98837 12.2633 3.11759C12.0679 3.24681 12.0679 3.24682 12.0679 3.24683C12.0679 3.24684 12.0679 3.24685 12.0679 3.24685C12.0679 3.24687 12.0679 3.24688 12.0679 3.2469C12.068 3.24693 12.068 3.24696 12.068 3.24699C12.068 3.24706 12.0681 3.24713 12.0682 3.24721C12.0683 3.24738 12.0684 3.24758 12.0685 3.24781C12.0689 3.24828 12.0693 3.24887 12.0697 3.24959C12.0707 3.25104 12.072 3.25301 12.0737 3.25547C12.0771 3.2604 12.0818 3.26733 12.088 3.27614C12.1003 3.29376 12.1182 3.31891 12.1417 3.35058L12.5181 3.07155ZM17.7447 1.92541C17.6363 1.97723 17.5368 2.03556 17.4449 2.09982L17.7134 2.48378C17.7841 2.43437 17.8613 2.38899 17.9467 2.34817L17.7447 1.92541ZM17.7007 2.49207C17.7813 2.44317 17.8461 2.4055 17.8904 2.38024C17.9125 2.36761 17.9296 2.35808 17.9409 2.35181C17.9465 2.34868 17.9508 2.34636 17.9535 2.34487C17.9548 2.34413 17.9558 2.34359 17.9564 2.34326C17.9567 2.3431 17.9569 2.34299 17.957 2.34293C17.9571 2.34291 17.9571 2.34289 17.9571 2.34289C17.9571 2.34289 17.9571 2.34289 17.9571 2.3429C17.9571 2.3429 17.9571 2.3429 17.9571 2.34291C17.9571 2.34291 17.9571 2.34291 17.9571 2.34291C17.9571 2.34292 17.9571 2.34292 17.8457 2.13679C17.7344 1.93066 17.7344 1.93067 17.7344 1.93067C17.7344 1.93067 17.7344 1.93068 17.7344 1.93068C17.7344 1.93069 17.7344 1.9307 17.7343 1.93071C17.7343 1.93073 17.7343 1.93075 17.7342 1.93078C17.7341 1.93083 17.734 1.93089 17.7339 1.93097C17.7336 1.93113 17.7332 1.93134 17.7327 1.9316C17.7317 1.93213 17.7304 1.93286 17.7286 1.93381C17.7252 1.93571 17.7202 1.93846 17.7137 1.94202C17.7009 1.94916 17.6822 1.9596 17.6584 1.97319C17.6107 2.00038 17.5422 2.04022 17.4576 2.09153L17.7007 2.49207ZM14.9494 4.6132C14.8677 4.6132 14.7895 4.63054 14.7187 4.66197L14.9088 5.09022C14.9209 5.08484 14.9345 5.08174 14.9494 5.08174V4.6132ZM15.0746 4.62708C15.0341 4.61796 14.9922 4.6132 14.9494 4.6132V5.08174C14.9573 5.08174 14.9648 5.08261 14.9717 5.08418L15.0746 4.62708ZM15.2441 4.93344C15.2503 4.91589 15.2568 4.89833 15.2636 4.88075L14.8264 4.71214C14.818 4.73393 14.81 4.75583 14.8022 4.77782L15.2441 4.93344ZM15.0289 4.56273L14.8073 4.57799L14.8395 5.04542L15.0611 5.03016L15.0289 4.56273ZM14.5917 4.77712L14.582 4.8415L15.0454 4.91068L15.0551 4.8463L14.5917 4.77712Z" fill="white" mask="url(#path-12-outside-1_58_3465)"/>
<path fill-rule="evenodd" clip-rule="evenodd" d="M17.2204 10.768V10.6472C16.8679 10.3427 16.4987 10.1905 16.1129 10.1905C15.743 9.99346 15.3686 9.91699 14.9897 9.96106C14.9898 9.95964 14.9898 9.95891 14.9898 9.95891C14.4201 9.89182 13.846 10.1904 13.846 10.1904C13.2672 10.1904 12.7384 10.6472 12.7384 10.6472V10.768L13.4297 11.6035C13.4297 11.6035 13.6243 12.4078 14.987 12.2187V12.2208C14.987 12.2208 15.8893 12.1912 15.9527 12.1658C15.9778 12.1557 16.0039 12.1465 16.0306 12.1372C16.2073 12.0751 16.409 12.0042 16.5291 11.6035L17.2204 10.768ZM14.987 9.99786C14.9674 10.2757 14.855 11.9531 14.987 12.2131V9.99786Z" fill="#F50100"/>
<path fill-rule="evenodd" clip-rule="evenodd" d="M13.8611 9.82947C13.9347 9.55823 14.0634 9.46636 14.3768 9.46636C14.5714 9.46636 14.7184 9.52092 14.8206 9.62784V10.3527H14.8754V10.4386C14.8319 10.4704 14.8096 10.5399 14.824 10.6139C14.8289 10.6392 14.8376 10.6624 14.849 10.6826C14.826 10.6742 14.8 10.6696 14.7725 10.6696C14.6779 10.6696 14.6012 10.725 14.6012 10.7933C14.6012 10.8616 14.6779 10.917 14.7725 10.917C14.8672 10.917 14.9439 10.8616 14.9439 10.7933C14.9439 10.7806 14.9412 10.7684 14.9363 10.7569C14.941 10.7581 14.9457 10.759 14.9504 10.7596C14.9462 10.7703 14.9439 10.7816 14.9439 10.7933C14.9439 10.8277 14.9634 10.8589 14.9949 10.8813H14.9107H14.9084C14.9084 11.0677 14.8293 11.1865 14.7109 11.1865C14.6282 11.1865 14.57 11.1409 14.5277 11.0406L14.4106 10.7621L14.3981 11.0739C14.3937 11.1839 14.354 11.2275 14.2552 11.2275C14.1592 11.2275 14.0903 11.1562 14.0436 10.9955C14.0575 10.9981 14.0721 10.9995 14.0872 10.9995C14.1818 10.9995 14.2585 10.9441 14.2585 10.8758C14.2585 10.8075 14.1818 10.7521 14.0872 10.7521C14.0682 10.7521 14.05 10.7543 14.033 10.7584C14.0437 10.7266 14.0464 10.6885 14.0388 10.6492C14.0207 10.5563 13.9517 10.4916 13.8846 10.5046C13.8176 10.5176 13.7778 10.6035 13.7959 10.6964C13.8008 10.7217 13.8095 10.7449 13.8209 10.7651C13.7979 10.7568 13.7719 10.7521 13.7444 10.7521C13.6498 10.7521 13.5731 10.8075 13.5731 10.8758C13.5731 10.9441 13.6498 10.9995 13.7444 10.9995C13.8211 10.9995 13.8861 10.9631 13.9079 10.9129L13.9025 10.9857C13.8873 11.191 13.8408 11.2874 13.7719 11.3009C13.678 11.3193 13.6068 11.3105 13.557 11.2781L13.4558 11.2123V11.3243C13.424 11.3284 13.3695 11.3212 13.2948 11.3017L13.2831 11.3664L13.1574 11.224C13.1955 11.2295 13.2402 11.2216 13.2823 11.1992C13.3658 11.1548 13.4076 11.0699 13.3755 11.0095C13.3434 10.9492 13.2497 10.9363 13.1661 10.9807C13.1486 10.9901 13.1329 11.0012 13.1193 11.0134C13.1177 10.9999 13.1149 10.9861 13.1106 10.9722C13.083 10.8817 13.0076 10.8245 12.9422 10.8445C12.913 10.8535 12.8907 10.8764 12.8775 10.9071L12.8267 10.8496L12.7798 10.9097L12.8658 11.0071C12.8674 11.0194 12.8702 11.032 12.874 11.0445C12.8979 11.1227 12.9573 11.1759 13.0151 11.1762L13.2661 11.4604L13.2657 11.4629L13.2691 11.4638L13.4084 11.6215C13.4289 11.6668 13.447 11.7087 13.4629 11.747C13.4799 11.8287 13.5053 11.9193 13.5414 11.9747C13.5447 11.9908 13.5464 12.0042 13.5464 12.0147C13.5464 12.0998 13.7302 12.1503 14.089 12.2021C14.37 12.2427 14.7018 12.27 14.9731 12.274V12.2746L15.0075 12.2744L15.0418 12.2746V12.274C15.3132 12.27 15.6449 12.2427 15.926 12.2021C16.2848 12.1503 16.4686 12.0998 16.4686 12.0147C16.4686 11.959 16.5148 11.8248 16.6065 11.6215L17.2352 10.9097L17.1882 10.8496L17.0315 11.0271L17.034 11.0193C17.0617 10.9288 17.0312 10.8392 16.9658 10.8193C16.9005 10.7993 16.8251 10.8565 16.7974 10.947C16.7932 10.9608 16.7903 10.9746 16.7887 10.9881C16.7751 10.9758 16.7594 10.9647 16.7419 10.9554C16.6584 10.911 16.5646 10.9239 16.5325 10.9842C16.5005 11.0445 16.5422 11.1295 16.6257 11.1739C16.7093 11.2183 16.803 11.2054 16.8351 11.1451C16.837 11.1416 16.8386 11.1381 16.8399 11.1345C16.8477 11.1399 16.8563 11.1442 16.8656 11.147C16.8859 11.1532 16.9072 11.152 16.9278 11.1446L16.683 11.4217L16.6613 11.3017C16.5867 11.3212 16.5321 11.3284 16.5003 11.3243V11.2123L16.3991 11.2781C16.3494 11.3105 16.2781 11.3193 16.1843 11.3009C16.1153 11.2874 16.0688 11.191 16.0536 10.9857L16.0524 10.9694C16.076 10.9834 16.1043 10.9936 16.1354 10.9979C16.2291 11.0111 16.3128 10.9669 16.3223 10.8993C16.3318 10.8316 16.2635 10.7661 16.1698 10.7529C16.1483 10.7499 16.1273 10.7499 16.1077 10.7525C16.1246 10.7216 16.1338 10.6821 16.1316 10.6395C16.1266 10.545 16.0673 10.4713 15.9991 10.4749C15.9308 10.4784 15.8795 10.558 15.8845 10.6525C15.8856 10.6747 15.8898 10.6958 15.8964 10.715C15.8767 10.7057 15.8544 10.6989 15.8305 10.6955C15.7368 10.6824 15.6531 10.7265 15.6436 10.7942C15.6341 10.8619 15.7023 10.9274 15.7961 10.9406C15.8492 10.948 15.8991 10.9371 15.9341 10.9138L15.9199 10.9685C15.8733 11.1482 15.8022 11.2275 15.701 11.2275C15.6021 11.2275 15.5624 11.1839 15.558 11.0739L15.5456 10.7621L15.4284 11.0406C15.3862 11.1409 15.328 11.1865 15.2452 11.1865C15.1324 11.1865 15.0553 11.0786 15.0483 10.9072C15.0689 10.9135 15.0915 10.917 15.1153 10.917C15.2099 10.917 15.2866 10.8616 15.2866 10.7933C15.2866 10.725 15.2099 10.6696 15.1153 10.6696C15.0963 10.6696 15.0781 10.6718 15.0611 10.6759C15.0718 10.6441 15.0745 10.606 15.0669 10.5667C15.0594 10.528 15.0431 10.4943 15.0218 10.469H15.1495V9.64055C15.2518 9.53366 15.3987 9.47911 15.5933 9.47911C15.9068 9.47911 16.0355 9.57098 16.109 9.84221C16.1558 10.0151 16.1104 10.1626 15.963 10.3003L16.0471 10.4306C16.2117 10.2768 16.2844 10.0931 16.2589 9.88959C16.6115 9.8755 16.8749 9.92074 17.048 10.0224C17.1987 10.1109 17.2263 10.3356 17.1122 10.7263L17.2416 10.781C17.3757 10.3211 17.3374 10.0089 17.1081 9.87415C16.9061 9.75545 16.6116 9.70715 16.2233 9.72609L16.2237 9.73797C16.1256 9.43186 15.9422 9.31414 15.5933 9.31414C15.4162 9.31414 15.2677 9.35524 15.1495 9.43849V9.39666H14.8754V9.46928C14.7495 9.3568 14.5825 9.30139 14.3768 9.30139C14.035 9.30139 13.8521 9.41435 13.7526 9.70669L13.7547 9.64356C13.3664 9.62462 13.0719 9.67293 12.8698 9.79163C12.6405 9.92634 12.6022 10.2386 12.7364 10.6984L12.8657 10.6438C12.7517 10.253 12.7793 10.0284 12.93 9.93988C13.1038 9.83778 13.3688 9.7926 13.7236 9.80725C13.6705 10.0386 13.7398 10.2467 13.923 10.4179L14.0071 10.2876C13.8597 10.1499 13.8143 10.0023 13.8611 9.82947ZM13.9125 10.8516C13.9113 10.8474 13.9099 10.8434 13.9082 10.8394L13.9133 10.8406L13.9125 10.8516ZM16.6349 11.4762C16.5226 11.5001 16.4415 11.4977 16.3985 11.4555C16.3313 11.4791 16.2524 11.4814 16.1623 11.4637C16.066 11.4449 15.999 11.3678 15.9587 11.2401C15.9061 11.3208 15.8395 11.3706 15.7597 11.3867C16.1984 11.4616 16.5057 11.5668 16.5057 11.5668C16.5057 11.5668 16.4981 11.645 16.4796 11.7369C16.4991 11.6888 16.5222 11.6353 16.549 11.5763L16.5556 11.566L16.6349 11.4762ZM15.5529 11.3554C15.5147 11.3326 15.4842 11.2995 15.4622 11.2568C15.4295 11.2916 15.3923 11.317 15.3509 11.3327C15.4199 11.3391 15.4874 11.3467 15.5529 11.3554ZM15.1091 11.3167C15.0556 11.287 15.0112 11.2394 14.9781 11.1784C14.9451 11.239 14.9011 11.2863 14.8482 11.316C14.8796 11.3149 14.9111 11.3141 14.9428 11.3137V11.3133L14.9703 11.3134L14.9977 11.3133V11.3137C15.0351 11.3142 15.0722 11.3152 15.1091 11.3167ZM13.4544 11.5604L13.3905 11.488C13.4672 11.4971 13.524 11.4885 13.5576 11.4555C13.6249 11.4791 13.7038 11.4814 13.7939 11.4637C13.8901 11.4449 13.9571 11.3678 13.9974 11.2401C14.0486 11.3185 14.1128 11.3677 14.1895 11.3852C13.8113 11.4492 13.5291 11.5362 13.4544 11.5604ZM14.6022 11.3316C14.5358 11.3375 14.4708 11.3447 14.4075 11.3528C14.4437 11.3301 14.4728 11.2979 14.494 11.2568C14.5259 11.2908 14.5621 11.3158 14.6022 11.3316ZM16.2884 12.0164C16.3364 12.0434 16.3749 12.0164 16.4054 11.9646C16.4027 11.9789 16.4011 11.9919 16.4004 12.0035C16.3964 12.0066 16.3902 12.0104 16.3821 12.0145C16.3596 12.026 16.3251 12.0381 16.2802 12.0504C16.1921 12.0746 16.0666 12.0987 15.9179 12.1202C15.6274 12.1622 15.282 12.1898 15.0075 12.1919C14.7329 12.1898 14.3876 12.1622 14.0971 12.1202C13.9484 12.0987 13.8229 12.0746 13.7347 12.0504C13.6972 12.0401 13.6669 12.0299 13.6447 12.0201C13.6472 12.019 13.6497 12.0178 13.6521 12.0164C13.8019 11.932 14.792 11.8529 14.9703 11.8393C15.1485 11.8529 16.1387 11.932 16.2884 12.0164ZM16.4873 12.0012L16.4862 12.0026L16.4869 12.0016L16.4873 12.0012Z" fill="#FECA00"/>
<path d="M13.7717 9.57612L13.7706 9.6586C13.1628 9.64583 12.8142 9.75256 12.7257 9.9653C12.6342 10.1852 12.6512 10.4526 12.7794 10.7702L12.7178 10.8062C12.581 10.4674 12.5623 10.1738 12.6644 9.92837C12.7695 9.67573 13.1383 9.56281 13.7717 9.57612Z" fill="white"/>
<path d="M13.8894 10.3076L13.8542 10.3784C13.7219 10.2833 13.6556 10.121 13.6556 9.89736C13.6556 9.5759 13.7932 9.38739 14.0976 9.25839C14.2918 9.17606 14.5572 9.20982 14.8944 9.35695L14.871 9.4345C14.5473 9.29325 14.2969 9.26139 14.1204 9.33619C13.8412 9.45452 13.7242 9.61483 13.7242 9.89736C13.7242 10.0936 13.7792 10.2285 13.8894 10.3076Z" fill="white"/>
<path d="M16.1636 9.65864L16.1648 9.74112C16.7725 9.72835 17.1211 9.83508 17.2096 10.0478C17.3011 10.2678 17.2841 10.5351 17.1559 10.8527L17.2175 10.8887C17.3543 10.5499 17.373 10.2563 17.2709 10.0109C17.1658 9.75825 16.797 9.64533 16.1636 9.65864Z" fill="white"/>
<path d="M15.949 10.3248L15.9841 10.3957C16.1165 10.3005 16.1827 10.1382 16.1827 9.91457C16.1827 9.59311 16.0451 9.40461 15.7408 9.2756C15.5465 9.19327 15.2812 9.22703 14.944 9.37416L14.9673 9.45171C15.291 9.31046 15.5415 9.2786 15.718 9.35341C15.9972 9.47173 16.1142 9.63204 16.1142 9.91457C16.1142 10.1109 16.0592 10.2457 15.949 10.3248Z" fill="white"/>
</g>
</g>
<defs>
<clipPath id="clip0_58_3465">
<rect width="21.4187" height="16.064" fill="white" transform="translate(0.674805 0.211914)"/>
</clipPath>
<clipPath id="clip1_58_3465">
<rect width="9.37069" height="6.69335" fill="white" transform="translate(0.674805 0.211914)"/>
</clipPath>
</defs>
</svg>
