<svg width="22" height="17" viewBox="0 0 22 17" fill="none" xmlns="http://www.w3.org/2000/svg">
<g clip-path="url(#clip0_58_3449)">
<rect width="21.4187" height="16.064" transform="translate(0.512329 0.211914)" fill="white"/>
<path fill-rule="evenodd" clip-rule="evenodd" d="M0.802979 0.179932V16.244H22.2217V0.179932H0.802979Z" fill="#F7FCFF"/>
<mask id="mask0_58_3449" style="mask-type:luminance" maskUnits="userSpaceOnUse" x="0" y="0" width="23" height="17">
<path fill-rule="evenodd" clip-rule="evenodd" d="M0.802979 0.179932V16.244H22.2217V0.179932H0.802979Z" fill="white"/>
</mask>
<g mask="url(#mask0_58_3449)">
<path fill-rule="evenodd" clip-rule="evenodd" d="M0.802979 0.179932V5.53461H22.2217V0.179932H0.802979Z" fill="#BF2714"/>
<path fill-rule="evenodd" clip-rule="evenodd" d="M0.802979 10.8893V16.244H22.2217V10.8893H0.802979Z" fill="#272727"/>
<path fill-rule="evenodd" clip-rule="evenodd" d="M4.37497 8.75483C4.9838 9.62858 4.14966 10.2199 4.14966 10.2199C4.14966 10.2199 4.87889 10.2199 5.15818 9.63463H11.1269V8.3456C11.1269 8.3456 11.002 7.72659 10.4706 7.72659C9.93908 7.72659 9.81933 8.3456 9.81933 8.3456H7.71997L9.7512 6.55249L9.35627 6.20386L7.10009 8.19554V8.61782H10.3029V8.36923C10.3029 8.36923 10.3209 8.22533 10.4706 8.22533C10.6202 8.22533 10.5838 8.36923 10.5838 8.36923V8.90019H6.54763V8.17417L6.1106 8.36923V8.90019C6.1106 8.90019 5.57535 8.75483 5.2371 8.75483C4.89885 8.75483 4.87889 8.36923 4.87889 8.36923L4.37497 8.75483ZM12.4805 8.80446L12.8079 9.61955H11.5054V6.34738L12.0548 6.52325V8.80446H12.4805ZM18.5477 8.80446L18.875 9.61955H17.5725V6.34738L18.1219 6.52325V8.80446H18.5477ZM16.935 6.38128L16.5956 6.61099V8.80225H16.2499V7.04481L15.6804 7.37313V8.80225H15.2982V7.81001L14.8653 8.08862V8.35799C14.8653 8.35799 14.0326 8.4154 14.0326 9.59267H16.9316L16.935 6.38128ZM5.81745 10.1969C5.92217 10.1969 6.00705 10.122 6.00705 10.0296C6.00705 9.93714 5.92217 9.8622 5.81745 9.8622C5.71274 9.8622 5.62786 9.93714 5.62786 10.0296C5.62786 10.122 5.71274 10.1969 5.81745 10.1969ZM15.4711 6.63337C15.3239 6.82742 14.8771 6.63337 14.8771 6.63337L16.1439 6.4866C16.0131 6.74201 15.4711 6.63337 15.4711 6.63337Z" fill="#009C4E"/>
</g>
</g>
<defs>
<clipPath id="clip0_58_3449">
<rect width="21.4187" height="16.064" fill="white" transform="translate(0.512329 0.211914)"/>
</clipPath>
</defs>
</svg>
