<svg width="22" height="17" viewBox="0 0 22 17" fill="none" xmlns="http://www.w3.org/2000/svg">
<g clip-path="url(#clip0_58_3349)">
<rect width="21.4187" height="16.064" transform="translate(0.349609 0.211914)" fill="white"/>
<path fill-rule="evenodd" clip-rule="evenodd" d="M0.640259 0.179932V16.244H22.059V0.179932H0.640259Z" fill="#F7FCFF"/>
<mask id="mask0_58_3349" style="mask-type:luminance" maskUnits="userSpaceOnUse" x="0" y="0" width="23" height="17">
<path fill-rule="evenodd" clip-rule="evenodd" d="M0.640259 0.179932V16.244H22.059V0.179932H0.640259Z" fill="white"/>
</mask>
<g mask="url(#mask0_58_3349)">
<path fill-rule="evenodd" clip-rule="evenodd" d="M0.640259 0.179932V5.53461H22.059V0.179932H0.640259Z" fill="#5EAA22"/>
<path fill-rule="evenodd" clip-rule="evenodd" d="M0.640259 10.8893V16.244H22.059V10.8893H0.640259Z" fill="#E31D1C"/>
<path fill-rule="evenodd" clip-rule="evenodd" d="M3.71952 11.1516V11.5759H2.15946V11.1516H3.71952ZM1.01878 12.2173H0.880246V12.0478H1.18459V12.6416H1.57248V12.6462H1.94828V11.4136H1.70817V12.2219H1.67108V11.3493H1.43097V12.2173H1.4247V12.0478V11.3493H1.18459V11.6235H0.640137V12.6416H0.760191H1.01878V12.2173ZM2.02334 12.4552H2.26345V12.0345H2.53118V12.646H3.28446V11.6109H2.89816V12.0352H3.04435V12.2218H2.77129V11.6102H2.02334V12.4552ZM3.55742 12.2173H3.69596V12.6416H3.43737H3.31731V11.6235H3.86177V11.3493H4.10187V12.0478V12.2173H4.10814V11.3493H4.34825V12.2219H4.38535V11.4136H4.62545V12.6462H4.24966V12.6416H3.86177V12.0478H3.55742V12.2173ZM6.3967 11.1516V11.5759H4.83664V11.1516H6.3967ZM4.70051 12.4552H4.94062V12.0345H5.20836V12.646H5.96163V11.6109H5.57534V12.0352H5.72152V12.2218H5.44847V11.6102H4.70051V12.4552ZM6.2824 12.2173H6.42093V12.6416H6.16234H6.04229V11.6235H6.58674V11.3493H6.82685V12.0478V12.2173H6.83312V11.3493H7.07323V12.2219H7.11032V11.4136H7.35043V12.6462H6.97464V12.6416H6.58674V12.0478H6.2824V12.2173ZM9.12167 11.1516V11.5759H7.56161V11.1516H9.12167ZM7.42549 12.4552H7.6656V12.0345H7.93333V12.646H8.68661V11.6109H8.30032V12.0352H8.4465V12.2218H8.17344V11.6102H7.42549V12.4552ZM8.95958 12.2173H9.09811V12.6416H8.83952H8.71947V11.6235H9.26392V11.3493H9.50403V12.0478V12.2173H9.51029V11.3493H9.7504V12.2219H9.7875V11.4136H10.0276V12.6462H9.65181V12.6416H9.26392V12.0478H8.95958V12.2173ZM11.7988 11.1516V11.5759H10.2388V11.1516H11.7988ZM10.1027 12.4552H10.3428V12.0345H10.6105V12.646H11.3638V11.6109H10.9775V12.0352H11.1237V12.2218H10.8506V11.6102H10.1027V12.4552ZM11.6368 12.2173H11.7753V12.6416H11.5167H11.3966V11.6235H11.9411V11.3493H12.1812V12.0478V12.2173H12.1875V11.3493H12.4276V12.2219H12.4647V11.4136H12.7048V12.6462H12.329V12.6416H11.9411V12.0478H11.6368V12.2173ZM14.476 11.1516V11.5759H12.916V11.1516H14.476ZM12.7798 12.4552H13.02V12.0345H13.2877V12.646H14.041V11.6109H13.6547V12.0352H13.8009V12.2218H13.5278V11.6102H12.7798V12.4552ZM14.3617 12.2173H14.5003V12.6416H14.2417H14.1216V11.6235H14.6661V11.3493H14.9062V12.0478V12.2173H14.9124V11.3493H15.1526V12.2219H15.1896V11.4136H15.4298V12.6462H15.054V12.6416H14.6661V12.0478H14.3617V12.2173ZM17.2011 11.1516V11.5759H15.641V11.1516H17.2011ZM15.5048 12.4552H15.7449V12.0345H16.0127V12.646H16.7659V11.6109H16.3796V12.0352H16.5258V12.2218H16.2528V11.6102H15.5048V12.4552ZM17.0868 12.2173H17.2253V12.6416H16.9667H16.8467V11.6235H17.3911V11.3493H17.6312V12.0478V12.2173H17.6375V11.3493H17.8776V12.2219H17.9146V11.4136H18.1547V12.6462H17.7789V12.6416H17.3911V12.0478H17.0868V12.2173ZM19.9261 11.1516V11.5759H18.366V11.1516H19.9261ZM18.2299 12.4552H18.47V12.0345H18.7377V12.646H19.491V11.6109H19.1047V12.0352H19.2509V12.2218H18.9778V11.6102H18.2299V12.4552ZM19.8118 12.2173H19.9503V12.6416H19.6917H19.5716V11.6235H20.1161V11.3493H20.3562V12.0478V12.2173H20.3625V11.3493H20.6026V12.2219H20.6396V11.4136H20.8797V12.6462H20.5039V12.6416H20.1161V12.0478H19.8118V12.2173ZM22.651 11.1516V11.5759H21.091V11.1516H22.651ZM20.9548 12.4552H21.195V12.0345H21.4627V12.646H22.216V11.6109H21.8297V12.0352H21.9759V12.2218H21.7028V11.6102H20.9548V12.4552ZM22.4889 12.2173H22.6275V12.6416H22.3689H22.2488V11.6235H22.7933V11.3493H23.0334V12.0478V12.2173H23.0397V11.3493H23.2798V12.2219H23.3168V11.4136H23.5569V12.6462H23.1811V12.6416H22.7933V12.0478H22.4889V12.2173ZM25.3282 11.1516V11.5759H23.7681V11.1516H25.3282ZM23.632 12.4552H23.8721V12.0345H24.1399V12.646H24.8931V11.6109H24.5069V12.0352H24.653V12.2218H24.38V11.6102H23.632V12.4552ZM25.3095 12.2173H25.448V12.6416H25.1894H25.0694V11.6235H25.6138V11.3493H25.854V12.0478V12.2173H25.8602V11.3493H26.1003V12.2219H26.1374V11.4136H26.3775V12.6462H26.0017V12.6416H25.6138V12.0478H25.3095V12.2173ZM28.1488 11.1516V11.5759H26.5887V11.1516H28.1488ZM26.4526 12.4552H26.6927V12.0345H26.9604V12.646H27.7137V11.6109H27.3274V12.0352H27.4736V12.2218H27.2005V11.6102H26.4526V12.4552Z" fill="#F7FCFF"/>
<path fill-rule="evenodd" clip-rule="evenodd" d="M0.964514 3.78894V4.21322H-0.595546V3.78894H0.964514ZM-1.73622 4.85465H-1.87476V4.68515H-1.57042V5.27893H-1.18252V5.28353H-0.806727V4.05089H-1.04684V4.85925H-1.08393V3.98659H-1.32404V4.85465H-1.33031V4.68515V3.98659H-1.57042V4.26087H-2.11487V5.27893H-1.99481H-1.73622V4.85465ZM-0.731668 5.09248H-0.491559V4.67183H-0.223825V5.28337H0.529452V4.24823H0.143158V4.67251H0.289343V4.8591H0.0162845V4.24756H-0.731668V5.09248ZM0.802418 4.85465H0.940953V5.27893H0.682364H0.562309V4.26087H1.10676V3.98659H1.34687V4.68515V4.85465H1.35314V3.98659H1.59325V4.85925H1.63034V4.05089H1.87045V5.28353H1.49466V5.27893H1.10676V4.68515H0.802418V4.85465ZM3.64169 3.78894V4.21322H2.08163V3.78894H3.64169ZM1.94551 5.09248H2.18562V4.67183H2.45335V5.28337H3.20663V4.24823H2.82034V4.67251H2.96652V4.8591H2.69346V4.24756H1.94551V5.09248ZM3.52739 4.85465H3.66593V5.27893H3.40734H3.28728V4.26087H3.83174V3.98659H4.07185V4.68515V4.85465H4.07811V3.98659H4.31822V4.85925H4.35532V4.05089H4.59542V5.28353H4.21963V5.27893H3.83174V4.68515H3.52739V4.85465ZM6.36667 3.78894V4.21322H4.80661V3.78894H6.36667ZM4.67048 5.09248H4.91059V4.67183H5.17833V5.28337H5.9316V4.24823H5.54531V4.67251H5.69149V4.8591H5.41844V4.24756H4.67048V5.09248ZM6.20457 4.85465H6.3431V5.27893H6.08452H5.96446V4.26087H6.50891V3.98659H6.74902V4.68515V4.85465H6.75529V3.98659H6.9954V4.85925H7.03249V4.05089H7.2726V5.28353H6.89681V5.27893H6.50891V4.68515H6.20457V4.85465ZM9.04384 3.78894V4.21322H7.48378V3.78894H9.04384ZM7.34766 5.09248H7.58777V4.67183H7.8555V5.28337H8.60878V4.24823H8.22249V4.67251H8.36867V4.8591H8.09561V4.24756H7.34766V5.09248ZM8.88175 4.85465H9.02028V5.27893H8.76169H8.64164V4.26087H9.18609V3.98659H9.4262V4.68515V4.85465H9.43247V3.98659H9.67257V4.85925H9.70967V4.05089H9.94978V5.28353H9.57398V5.27893H9.18609V4.68515H8.88175V4.85465ZM11.721 3.78894V4.21322H10.161V3.78894H11.721ZM10.0248 5.09248H10.2649V4.67183H10.5327V5.28337H11.286V4.24823H10.8997V4.67251H11.0458V4.8591H10.7728V4.24756H10.0248V5.09248ZM11.6067 4.85465H11.7453V5.27893H11.4867H11.3666V4.26087H11.9111V3.98659H12.1512V4.68515V4.85465H12.1574V3.98659H12.3976V4.85925H12.4346V4.05089H12.6748V5.28353H12.299V5.27893H11.9111V4.68515H11.6067V4.85465ZM14.4461 3.78894V4.21322H12.886V3.78894H14.4461ZM12.7498 5.09248H12.9899V4.67183H13.2577V5.28337H14.0109V4.24823H13.6246V4.67251H13.7708V4.8591H13.4978V4.24756H12.7498V5.09248ZM14.3318 4.85465H14.4703V5.27893H14.2117H14.0917V4.26087H14.6361V3.98659H14.8762V4.68515V4.85465H14.8825V3.98659H15.1226V4.85925H15.1596V4.05089H15.3997V5.28353H15.0239V5.27893H14.6361V4.68515H14.3318V4.85465ZM17.1711 3.78894V4.21322H15.611V3.78894H17.1711ZM15.4749 5.09248H15.715V4.67183H15.9827V5.28337H16.736V4.24823H16.3497V4.67251H16.4959V4.8591H16.2228V4.24756H15.4749V5.09248ZM17.0568 4.85465H17.1953V5.27893H16.9367H16.8166V4.26087H17.3611V3.98659H17.6012V4.68515V4.85465H17.6075V3.98659H17.8476V4.85925H17.8846V4.05089H18.1247V5.28353H17.7489V5.27893H17.3611V4.68515H17.0568V4.85465ZM19.896 3.78894V4.21322H18.336V3.78894H19.896ZM18.1998 5.09248H18.44V4.67183H18.7077V5.28337H19.461V4.24823H19.0747V4.67251H19.2209V4.8591H18.9478V4.24756H18.1998V5.09248ZM19.7339 4.85465H19.8725V5.27893H19.6139H19.4938V4.26087H20.0383V3.98659H20.2784V4.68515V4.85465H20.2846V3.98659H20.5248V4.85925H20.5619V4.05089H20.802V5.28353H20.4262V5.27893H20.0383V4.68515H19.7339V4.85465ZM22.5732 3.78894V4.21322H21.0131V3.78894H22.5732ZM20.877 5.09248H21.1171V4.67183H21.3849V5.28337H22.1381V4.24823H21.7518V4.67251H21.898V4.8591H21.625V4.24756H20.877V5.09248ZM22.5545 4.85465H22.693V5.27893H22.4344H22.3144V4.26087H22.8588V3.98659H23.099V4.68515V4.85465H23.1052V3.98659H23.3453V4.85925H23.3824V4.05089H23.6225V5.28353H23.2467V5.27893H22.8588V4.68515H22.5545V4.85465ZM25.3938 3.78894V4.21322H23.8337V3.78894H25.3938ZM23.6976 5.09248H23.9377V4.67183H24.2054V5.28337H24.9587V4.24823H24.5724V4.67251H24.7186V4.8591H24.4455V4.24756H23.6976V5.09248Z" fill="#F7FCFF"/>
<path fill-rule="evenodd" clip-rule="evenodd" d="M10.4167 5.7019C10.4167 5.7019 10.7027 5.8525 10.9955 5.8525C11.2882 5.8525 11.5828 5.7019 11.5828 5.7019V5.9027C11.5828 5.9027 11.2612 6.05331 10.9764 6.05331C10.6916 6.05331 10.4167 5.9027 10.4167 5.9027V5.7019ZM8.30835 8.07174C8.30835 6.88166 9.94286 6.10349 9.94286 6.10349C9.94286 6.10349 8.99814 6.60964 8.99814 8.02186C8.99814 9.43408 9.48857 10.0456 9.48857 10.0456C9.48857 10.0456 8.30835 9.26182 8.30835 8.07174ZM13.8221 8.00606C13.8221 6.81598 12.1891 6.10349 12.1891 6.10349C12.1891 6.10349 13.1339 6.60964 13.1339 8.02186C13.1339 9.43408 12.6434 10.0456 12.6434 10.0456C12.6434 10.0456 13.8221 9.19614 13.8221 8.00606ZM9.42417 8.33078C9.36189 7.14234 10.3505 6.07709 10.3505 6.07709C10.3505 6.07709 9.9907 6.56659 10.0646 7.97687C10.09 8.46111 10.2807 9.18156 10.521 9.60629V6.15374H11.525V9.63631C11.7657 9.23957 11.9511 8.56306 11.9769 8.07176C12.0508 6.66148 11.7082 6.07709 11.7082 6.07709C11.7082 6.07709 12.6968 7.14234 12.6346 8.33078C12.5975 9.03859 12.0528 9.78716 11.6183 10.2769C11.8294 10.3239 12.1124 10.3813 12.5013 10.4581C12.5096 10.5011 12.423 10.4992 12.2507 10.4952C12.0606 10.4908 11.7662 10.4841 11.3801 10.5328C11.2026 10.7147 11.0791 10.8226 11.0791 10.8226C11.0791 10.8226 11.0596 10.7962 11.0294 10.7596C10.9992 10.7962 10.9796 10.8226 10.9796 10.8226C10.9796 10.8226 10.8561 10.7147 10.6786 10.5328C10.2926 10.4841 9.99814 10.4908 9.80799 10.4952C9.63577 10.4992 9.54909 10.5011 9.55739 10.4581C9.94633 10.3813 10.2293 10.3239 10.4404 10.2769C10.0059 9.78716 9.46127 9.03859 9.42417 8.33078Z" fill="#E31D1C"/>
</g>
</g>
<defs>
<clipPath id="clip0_58_3349">
<rect width="21.4187" height="16.064" fill="white" transform="translate(0.349609 0.211914)"/>
</clipPath>
</defs>
</svg>
