<svg width="23" height="17" viewBox="0 0 23 17" fill="none" xmlns="http://www.w3.org/2000/svg">
<g clip-path="url(#clip0_58_3317)">
<rect width="21.4187" height="16.064" transform="translate(0.862061 0.211914)" fill="white"/>
<path fill-rule="evenodd" clip-rule="evenodd" d="M1.15271 0.179932H22.5714V16.244H1.15271V0.179932Z" fill="#F7FCFF"/>
<path d="M-0.655491 1.01314L-2.02665 0.184038V1.78638V15.1731V16.7754L-0.655491 15.9463L10.4138 9.25296L11.6926 8.47973L10.4138 7.70649L-0.655491 1.01314Z" fill="#F7FCFF" stroke="#E31D1C" stroke-width="1.8072"/>
<path d="M24.5264 1.00499L25.8838 0.216668V1.78638V15.1731V16.7428L24.5264 15.9545L13.0013 9.26111L11.6558 8.47973L13.0013 7.69834L24.5264 1.00499Z" fill="#F7FCFF" stroke="#E31D1C" stroke-width="1.8072"/>
<path fill-rule="evenodd" clip-rule="evenodd" d="M10.3056 3.32788C10.3056 3.32788 9.73086 5.87022 11.7153 6.84666C11.7153 6.84666 13.6203 5.8083 13.1924 3.32788C13.1924 3.32788 12.3743 3.0542 11.7237 3.0542C11.0732 3.0542 10.3056 3.32788 10.3056 3.32788Z" fill="#E31D1C"/>
<path fill-rule="evenodd" clip-rule="evenodd" d="M10.5115 3.8603C10.5115 3.8603 10.7238 3.76634 10.8288 3.8603C10.9339 3.95426 11.02 3.85251 11.02 3.79583C11.02 3.73915 11.1868 3.54458 11.1868 3.70244C11.1868 3.8603 11.1349 3.94943 11.2815 3.94943C11.4281 3.94943 12.0884 3.73137 12.2468 3.79583C12.4051 3.8603 12.5262 3.84426 12.486 3.75177C12.4457 3.65927 12.3423 3.60146 12.1431 3.65195C11.9439 3.70244 11.9909 3.75177 11.8188 3.75177C11.6466 3.75177 11.455 3.70244 11.455 3.70244C11.455 3.70244 11.5089 3.61949 11.7054 3.67849C11.9019 3.73749 12.173 3.60542 12.2468 3.60542C12.3205 3.60542 12.5234 3.60146 12.5435 3.65195C12.5636 3.70244 12.6861 3.74877 12.5928 3.79583C12.4994 3.8429 12.3454 3.87238 12.4513 3.93268C12.5573 3.99299 12.8009 3.98136 12.8127 4.04409C12.8244 4.10682 12.9399 4.20049 12.8936 4.20049C12.8472 4.20049 12.7634 4.28883 12.6854 4.26193C12.6075 4.23503 12.5983 4.21141 12.6731 4.18962C12.7479 4.16783 12.7471 4.0762 12.6854 4.0762C12.6238 4.0762 12.6539 4.1083 12.5134 4.0762C12.373 4.04409 12.1871 4.0084 12.1982 4.0762C12.2094 4.14399 12.3009 4.24806 12.1322 4.26193C11.9634 4.2758 11.8845 4.33148 11.8516 4.28664C11.8188 4.2418 11.7014 4.18204 11.7937 4.16288C11.886 4.14372 11.9742 4.22801 12.0075 4.21425C12.0407 4.20049 12.116 4.19282 12.0529 4.13451C11.9898 4.0762 11.8858 4.04186 11.9822 3.99822C12.0787 3.95457 12.0026 3.95367 11.8188 4.04409C11.635 4.13451 11.5328 4.21135 11.3714 4.20049C11.2101 4.18962 11.1497 4.20428 11.0978 4.18962C11.0459 4.17496 10.7934 4.35157 10.7206 4.30675C10.6479 4.26193 10.4131 4.24473 10.4554 4.18962C10.4976 4.13451 10.5544 4.10614 10.6176 4.13451C10.6808 4.16288 10.7436 4.19126 10.7862 4.16288C10.8288 4.13451 10.9519 4.03715 10.921 4.01768C10.89 3.99822 10.92 3.93268 10.7447 3.93268C10.5694 3.93268 10.5077 4.00572 10.4661 3.9597C10.4245 3.91368 10.5115 3.8603 10.5115 3.8603Z" fill="#FFD100"/>
<path fill-rule="evenodd" clip-rule="evenodd" d="M10.6868 4.6957C10.6868 4.6957 10.8734 4.61309 10.9657 4.6957C11.0581 4.77831 11.1338 4.68886 11.1338 4.63902C11.1338 4.58919 11.2804 4.41813 11.2804 4.55692C11.2804 4.6957 11.2348 4.77406 11.3637 4.77406C11.4926 4.77406 12.0731 4.58235 12.2123 4.63902C12.3515 4.6957 12.458 4.6816 12.4226 4.60029C12.3872 4.51897 12.2963 4.46814 12.1212 4.51253C11.9461 4.55692 11.9874 4.60029 11.836 4.60029C11.6847 4.60029 11.5162 4.55692 11.5162 4.55692C11.5162 4.55692 11.5636 4.48399 11.7364 4.53586C11.9091 4.58774 12.1475 4.47162 12.2123 4.47162C12.2771 4.47162 12.4555 4.46814 12.4732 4.51253C12.4909 4.55692 12.5986 4.59765 12.5165 4.63902C12.4344 4.6804 12.299 4.70632 12.3921 4.75934C12.4853 4.81236 12.6995 4.80214 12.7098 4.85728C12.7202 4.91243 12.8217 4.99478 12.7809 4.99478C12.7402 4.99478 12.6665 5.07245 12.598 5.0488C12.5294 5.02515 12.5213 5.00439 12.5871 4.98523C12.6528 4.96607 12.6522 4.88551 12.598 4.88551C12.5437 4.88551 12.5702 4.91374 12.4467 4.88551C12.3233 4.85728 12.1598 4.82591 12.1696 4.88551C12.1795 4.94511 12.2599 5.0366 12.1115 5.0488C11.9632 5.06099 11.8938 5.10995 11.8649 5.07052C11.836 5.0311 11.7329 4.97857 11.814 4.96172C11.8951 4.94488 11.9727 5.01898 12.0019 5.00688C12.0311 4.99478 12.0974 4.98805 12.0419 4.93678C11.9864 4.88551 11.8949 4.85533 11.9797 4.81695C12.0645 4.77858 11.9976 4.77779 11.836 4.85728C11.6745 4.93678 11.5846 5.00433 11.4427 4.99478C11.3009 4.98523 11.2478 4.99812 11.2022 4.98523C11.1566 4.97234 10.9345 5.12761 10.8706 5.0882C10.8066 5.0488 10.6002 5.03368 10.6374 4.98523C10.6745 4.93678 10.7244 4.91183 10.78 4.93678C10.8356 4.96172 10.8908 4.98667 10.9283 4.96172C10.9657 4.93678 11.0739 4.85118 11.0467 4.83407C11.0195 4.81695 11.0458 4.75934 10.8917 4.75934C10.7376 4.75934 10.6834 4.82355 10.6468 4.78309C10.6102 4.74264 10.6868 4.6957 10.6868 4.6957Z" fill="#FFD100"/>
<path fill-rule="evenodd" clip-rule="evenodd" d="M10.9345 5.54375C10.9345 5.54375 11.076 5.48111 11.146 5.54375C11.2161 5.60639 11.2735 5.53856 11.2735 5.50077C11.2735 5.46298 11.3847 5.33327 11.3847 5.43851C11.3847 5.54375 11.3501 5.60317 11.4478 5.60317C11.5456 5.60317 11.9857 5.45779 12.0913 5.50077C12.1969 5.54375 12.2776 5.53306 12.2508 5.47139C12.224 5.40973 12.155 5.37119 12.0222 5.40485C11.8894 5.43851 11.9208 5.47139 11.806 5.47139C11.6912 5.47139 11.5635 5.43851 11.5635 5.43851C11.5635 5.43851 11.5994 5.38321 11.7304 5.42254C11.8614 5.46188 12.0421 5.37383 12.0913 5.37383C12.1405 5.37383 12.2757 5.37119 12.2891 5.40485C12.3025 5.43851 12.3842 5.46939 12.322 5.50077C12.2597 5.53215 12.157 5.5518 12.2277 5.592C12.2983 5.63221 12.4608 5.62446 12.4686 5.66628C12.4764 5.70809 12.5534 5.77054 12.5225 5.77054C12.4916 5.77054 12.4358 5.82943 12.3838 5.8115C12.3318 5.79357 12.3257 5.77782 12.3755 5.7633C12.4254 5.74877 12.4249 5.68768 12.3838 5.68768C12.3426 5.68768 12.3627 5.70908 12.2691 5.68768C12.1754 5.66628 12.0515 5.64248 12.059 5.68768C12.0664 5.73288 12.1274 5.80225 12.0149 5.8115C11.9024 5.82075 11.8498 5.85787 11.8279 5.82797C11.806 5.79808 11.7277 5.75824 11.7893 5.74547C11.8508 5.7327 11.9096 5.78889 11.9318 5.77971C11.9539 5.77054 12.0042 5.76543 11.9621 5.72655C11.92 5.68768 11.8507 5.66479 11.915 5.63569C11.9793 5.60659 11.9285 5.606 11.806 5.66628C11.6835 5.72655 11.6153 5.77778 11.5078 5.77054C11.4002 5.7633 11.3599 5.77307 11.3253 5.7633C11.2908 5.75352 11.1224 5.87126 11.0739 5.84138C11.0254 5.8115 10.8689 5.80004 10.897 5.7633C10.9252 5.72655 10.9631 5.70764 11.0052 5.72655C11.0473 5.74547 11.0892 5.76439 11.1176 5.74547C11.146 5.72655 11.2281 5.66165 11.2074 5.64867C11.1868 5.63569 11.2068 5.592 11.0899 5.592C10.973 5.592 10.9319 5.64069 10.9042 5.61002C10.8765 5.57934 10.9345 5.54375 10.9345 5.54375Z" fill="#FFD100"/>
<g filter="url(#filter0_d_58_3317)">
<path fill-rule="evenodd" clip-rule="evenodd" d="M9.79095 2.19713C10.0671 2.34894 10.2738 3.35111 10.2738 3.35111C10.2738 3.35111 11.0853 3.0688 11.7235 3.06858C12.3618 3.06858 13.1739 3.35111 13.1739 3.35111C13.1739 3.35111 13.3807 2.34895 13.6568 2.19713C13.7562 2.1425 13.7406 2.14981 13.6732 2.18155C13.5531 2.23802 13.2685 2.37185 13.1739 2.37185C13.1109 2.37185 13.0811 2.4521 13.047 2.5441C13.0013 2.66767 12.9476 2.81244 12.7948 2.81244C12.6377 2.81244 12.5508 2.73951 12.5059 2.67962C12.5838 2.65444 12.6392 2.58963 12.6392 2.51365C12.6392 2.4158 12.5473 2.33647 12.4339 2.33647C12.3205 2.33647 12.2285 2.4158 12.2285 2.51365C12.2285 2.57662 12.2666 2.63192 12.324 2.66334C12.2593 2.68548 12.1787 2.70518 12.0967 2.70518C11.9097 2.70518 11.8264 2.5987 11.8264 2.43121C11.8264 2.26371 12.1913 2.19713 12.1913 2.19713C12.1913 2.19713 12.1913 1.89165 11.8264 2.04388C11.8264 2.04388 11.8985 1.69321 11.7243 1.51941V1.51868L11.7239 1.51904L11.7235 1.51868V1.51941C11.5493 1.69321 11.6214 2.04388 11.6214 2.04388C11.2565 1.89165 11.2565 2.19713 11.2565 2.19713C11.2565 2.19713 11.6214 2.26371 11.6214 2.4312C11.6214 2.5987 11.5381 2.70518 11.351 2.70518C11.2691 2.70518 11.1885 2.68548 11.1238 2.66334C11.1812 2.63192 11.2193 2.57662 11.2193 2.51365C11.2193 2.4158 11.1273 2.33647 11.0139 2.33647C10.9005 2.33647 10.8085 2.4158 10.8085 2.51365C10.8085 2.58963 10.864 2.65444 10.9419 2.67962C10.897 2.73951 10.8101 2.81244 10.6529 2.81244C10.5001 2.81244 10.4465 2.66767 10.4007 2.5441C10.3666 2.4521 10.3369 2.37185 10.2738 2.37185C10.1793 2.37185 9.8947 2.23802 9.77462 2.18155C9.70713 2.1498 9.69159 2.1425 9.79095 2.19713Z" fill="#FECA00"/>
</g>
</g>
<defs>
<filter id="filter0_d_58_3317" x="9.72021" y="1.51868" width="4.00732" height="1.8324" filterUnits="userSpaceOnUse" color-interpolation-filters="sRGB">
<feFlood flood-opacity="0" result="BackgroundImageFix"/>
<feColorMatrix in="SourceAlpha" type="matrix" values="0 0 0 0 0 0 0 0 0 0 0 0 0 0 0 0 0 0 127 0" result="hardAlpha"/>
<feOffset/>
<feColorMatrix type="matrix" values="0 0 0 0 0.0313726 0 0 0 0 0.368627 0 0 0 0 0 0 0 0 0.28 0"/>
<feBlend mode="normal" in2="BackgroundImageFix" result="effect1_dropShadow_58_3317"/>
<feBlend mode="normal" in="SourceGraphic" in2="effect1_dropShadow_58_3317" result="shape"/>
</filter>
<clipPath id="clip0_58_3317">
<rect width="21.4187" height="16.064" fill="white" transform="translate(0.862061 0.211914)"/>
</clipPath>
</defs>
</svg>
