<svg width="22" height="17" viewBox="0 0 22 17" fill="none" xmlns="http://www.w3.org/2000/svg">
<g clip-path="url(#clip0_58_3298)">
<rect width="21.4187" height="16.064" transform="translate(0.536865 0.211914)" fill="white"/>
<path fill-rule="evenodd" clip-rule="evenodd" d="M0.827515 0.179932V16.244H22.2462V0.179932H0.827515Z" fill="#F7FCFF"/>
<mask id="mask0_58_3298" style="mask-type:luminance" maskUnits="userSpaceOnUse" x="0" y="0" width="23" height="17">
<path fill-rule="evenodd" clip-rule="evenodd" d="M0.827515 0.179932V16.244H22.2462V0.179932H0.827515Z" fill="white"/>
</mask>
<g mask="url(#mask0_58_3298)">
<path fill-rule="evenodd" clip-rule="evenodd" d="M0.827515 0.179932V5.53461H22.2462V0.179932H0.827515Z" fill="#272727"/>
<path fill-rule="evenodd" clip-rule="evenodd" d="M0.827515 10.8893V16.244H22.2462V10.8893H0.827515Z" fill="#009933"/>
</g>
<path fill-rule="evenodd" clip-rule="evenodd" d="M0.827515 0.179932V16.244L14.2142 8.21195L0.827515 0.179932Z" fill="#E31D1C"/>
<mask id="mask1_58_3298" style="mask-type:luminance" maskUnits="userSpaceOnUse" x="0" y="0" width="15" height="17">
<path fill-rule="evenodd" clip-rule="evenodd" d="M0.827515 0.179932V16.244L14.2142 8.21195L0.827515 0.179932Z" fill="white"/>
</mask>
<g mask="url(#mask1_58_3298)">
<path fill-rule="evenodd" clip-rule="evenodd" d="M6.85271 9.4641L5.60061 10.22L5.8862 8.74494L4.84351 7.64101L6.25538 7.58131L6.85271 6.20398L7.45005 7.58131H8.85952L7.81922 8.74494L8.13241 10.22L6.85271 9.4641Z" fill="#F7FCFF"/>
</g>
</g>
<defs>
<clipPath id="clip0_58_3298">
<rect width="21.4187" height="16.064" fill="white" transform="translate(0.536865 0.211914)"/>
</clipPath>
</defs>
</svg>
