<svg width="22" height="17" viewBox="0 0 22 17" fill="none" xmlns="http://www.w3.org/2000/svg">
<g clip-path="url(#clip0_58_3025)">
<rect width="21.4187" height="16.064" transform="translate(0.187134 0.0495605)" fill="white"/>
<path fill-rule="evenodd" clip-rule="evenodd" d="M0.477783 0.0175781H21.8965V16.0816H0.477783V0.0175781Z" fill="#0067C3"/>
<path fill-rule="evenodd" clip-rule="evenodd" d="M0.477783 0.0175781V5.37226H21.8965V0.0175781H0.477783Z" fill="#272727"/>
<path fill-rule="evenodd" clip-rule="evenodd" d="M0.477783 10.7269V16.0816H21.8965V10.7269H0.477783Z" fill="#4E8B1D"/>
<path d="M0.477783 4.70298H-0.191552V5.37231V10.727V11.3963H0.477783H21.8965H22.5658V10.727V5.37231V4.70298H21.8965H0.477783Z" fill="#E31D1C" stroke="#F7FCFF" stroke-width="1.33867"/>
<ellipse cx="10.8965" cy="8.08161" rx="2.67734" ry="5.35468" fill="#AC2317"/>
<path d="M13.3218 2.74738C13.4747 2.47247 13.8856 2.17226 14.5547 1.84676C14.5777 1.83557 14.6054 1.83493 14.6291 1.84504C14.6691 1.86215 14.6857 1.90446 14.6659 1.93944L7.73327 14.4079L7.37231 14.2535L13.4834 3.26262C13.2067 3.22308 13.1528 3.05133 13.3218 2.74738Z" fill="white"/>
<path d="M8.46376 2.74738C8.63276 3.05133 8.5789 3.22308 8.30217 3.26262L14.4133 14.2535L14.0523 14.4079L7.11964 1.93944C7.09992 1.90446 7.11652 1.86215 7.15651 1.84504C7.18014 1.83493 7.20791 1.83557 7.2309 1.84676C7.89995 2.17226 8.3109 2.47247 8.46376 2.74738Z" fill="white"/>
<path fill-rule="evenodd" clip-rule="evenodd" d="M13.3552 11.1922C13.6756 10.3096 13.8645 9.22377 13.8645 8.04969C13.8645 6.8952 13.6818 5.82604 13.3711 4.95154C12.6564 5.83191 12.2352 6.91309 12.2352 8.08171C12.2352 9.24163 12.6501 10.3154 13.3552 11.1922Z" fill="black"/>
<path fill-rule="evenodd" clip-rule="evenodd" d="M8.83827 10.6217C9.29728 9.86587 9.55781 9.00082 9.55781 8.08168C9.55781 7.15453 9.29272 6.28243 8.82624 5.52197C8.6243 6.27485 8.50977 7.1355 8.50977 8.04965C8.50977 8.9818 8.62886 9.85832 8.83827 10.6217Z" fill="black"/>
<path fill-rule="evenodd" clip-rule="evenodd" d="M11.0572 7.68007C11.4239 7.45168 11.6998 6.45648 11.6998 5.26337C11.6998 4.07027 11.4239 3.07507 11.0572 2.84668V7.68007ZM10.6556 7.61637C10.3298 7.30207 10.0934 6.36746 10.0934 5.26337C10.0934 4.15929 10.3298 3.22468 10.6556 2.91037V7.61637ZM10.6556 8.61728V13.3234C10.3297 13.0091 10.0934 12.0745 10.0934 10.9703C10.0934 9.86619 10.3297 8.93153 10.6556 8.61728ZM10.8952 13.4363C10.8956 13.4363 10.8961 13.4363 10.8966 13.4363C10.8971 13.4363 10.8975 13.4363 10.898 13.4363H10.8952ZM11.0572 13.387V8.55368C11.4238 8.78214 11.6998 9.7773 11.6998 10.9703C11.6998 12.1634 11.4238 13.1585 11.0572 13.387Z" fill="#F7FCFF"/>
<path d="M10.8966 7.7293C11.3402 7.7293 11.6998 8.04474 11.6998 8.43386C11.6998 8.82298 11.3402 9.13843 10.8966 9.13843C10.453 9.13843 10.0934 8.82298 10.0934 8.43386C10.0934 8.04474 10.453 7.7293 10.8966 7.7293Z" fill="#F7FCFF"/>
</g>
<defs>
<clipPath id="clip0_58_3025">
<rect width="21.4187" height="16.064" fill="white" transform="translate(0.187134 0.0495605)"/>
</clipPath>
</defs>
</svg>
