<svg width="23" height="17" viewBox="0 0 23 17" fill="none" xmlns="http://www.w3.org/2000/svg">
<g clip-path="url(#clip0_58_3269)">
<rect width="21.4187" height="16.064" transform="translate(0.837402 0.0495605)" fill="white"/>
<path fill-rule="evenodd" clip-rule="evenodd" d="M1.12805 0.0175781V16.0816H22.5468V0.0175781H1.12805Z" fill="#C51918"/>
<mask id="mask0_58_3269" style="mask-type:luminance" maskUnits="userSpaceOnUse" x="1" y="0" width="22" height="17">
<path fill-rule="evenodd" clip-rule="evenodd" d="M1.12805 0.0175781V16.0816H22.5468V0.0175781H1.12805Z" fill="white"/>
</mask>
<g mask="url(#mask0_58_3269)">
<path fill-rule="evenodd" clip-rule="evenodd" d="M11.8255 11.9765C11.8972 11.9765 11.9685 11.9746 12.0393 11.9709L12.4523 13.288L12.548 11.912C12.6862 11.887 12.8219 11.855 12.9547 11.8164L13.6629 13.0034L13.4359 11.6422C13.5639 11.5864 13.6883 11.5241 13.8089 11.4558L14.7746 12.4496L14.2368 11.1758C14.3479 11.0926 14.4544 11.0038 14.556 10.9098L15.7276 11.6565L14.908 10.5398C14.9967 10.4338 15.08 10.3232 15.1573 10.2083L16.4705 10.6667L15.4142 9.76833C15.4759 9.64509 15.5313 9.51821 15.58 9.38811L16.9632 9.53366L15.7271 8.90142C15.7582 8.76781 15.7824 8.63162 15.7995 8.49323L17.1793 8.31845L15.8295 7.98602C15.8288 7.84616 15.8208 7.708 15.806 7.57191L17.1069 7.08659L15.7183 7.0719C15.6854 6.93614 15.6454 6.80309 15.5988 6.67317L16.7501 5.90448L15.3969 6.20752C15.3332 6.0833 15.2631 5.96284 15.1871 5.84658L16.1281 4.83585L14.8824 5.43996C14.7917 5.33375 14.6955 5.23232 14.5942 5.13613L15.2744 3.9383L14.2041 4.80998C14.0912 4.72718 13.9738 4.65013 13.8523 4.57925L14.235 3.26024L13.3976 4.35142C13.2685 4.29671 13.1359 4.24853 13.0003 4.20731L13.066 2.8382L12.5052 4.09061C12.3673 4.06722 12.227 4.05082 12.0847 4.0418L11.8303 2.69495L11.576 4.0412C11.4334 4.0499 11.2929 4.06599 11.1547 4.08911L10.5947 2.8382L10.6601 4.20446C10.5238 4.24555 10.3905 4.29366 10.2607 4.34837L9.42562 3.26024L9.80695 4.57449C9.68433 4.64563 9.56587 4.72304 9.45202 4.8063L8.38622 3.9383L9.06303 5.13024C8.96051 5.2272 8.86316 5.3295 8.77144 5.43668L7.53249 4.83585L8.46793 5.84056C8.39076 5.95808 8.3197 6.07991 8.25518 6.2056L6.91046 5.90448L8.05412 6.66802C8.0067 6.79961 7.96608 6.93441 7.93268 7.072L6.55366 7.08659L7.84547 7.56849C7.83026 7.70645 7.82217 7.84653 7.82158 7.98837L6.48132 8.31845L7.85135 8.492C7.86864 8.63232 7.89332 8.77038 7.92497 8.90578L6.69735 9.53366L8.0714 9.38908C8.1208 9.52084 8.17704 9.6493 8.23971 9.77403L7.1901 10.6667L8.49553 10.211C8.57387 10.3271 8.65821 10.4389 8.74813 10.5459L7.933 11.6565L9.09894 10.9134C9.20159 11.0081 9.30926 11.0976 9.42151 11.1813L8.88601 12.4496L9.84835 11.4593C9.96975 11.5278 10.0951 11.5902 10.224 11.6461L9.99774 13.0034L10.7044 11.8187C10.8378 11.8572 10.974 11.889 11.1127 11.9137L11.2083 13.288L11.6211 11.9714C11.6888 11.9748 11.757 11.9765 11.8255 11.9765ZM14.8375 7.99317C14.8375 9.65634 13.4782 11.0046 11.8014 11.0046C10.1246 11.0046 8.76525 9.65634 8.76525 7.99317C8.76525 6.33 10.1246 4.98173 11.8014 4.98173C13.4782 4.98173 14.8375 6.33 14.8375 7.99317ZM13.9192 8.97428C14.0459 8.68944 14.1164 8.37401 14.1164 8.04213C14.1164 7.71798 14.0492 7.40952 13.928 7.12992C13.404 7.16716 12.9598 7.30508 12.5995 7.48157C13.3992 7.83139 13.761 8.40726 13.9192 8.97428ZM13.6612 9.41442C13.5957 9.50203 13.5242 9.58481 13.4471 9.66213C13.4044 8.87193 13.0663 8.2694 12.4602 7.61937C13.2107 7.97897 13.6341 8.83846 13.6612 9.41442ZM13.0867 9.9573C13.0443 9.98538 13.0009 10.0121 12.9565 10.0374C12.7764 9.14947 12.4352 8.4489 11.9602 7.88903L12.0754 7.80223C12.0907 7.79069 12.1062 7.77917 12.1221 7.76767C12.7298 8.46654 13.1132 9.06611 13.0867 9.9573ZM11.8211 10.3374C12.0904 10.3374 12.3489 10.291 12.589 10.2058C12.4145 9.36099 12.1106 8.57412 11.6707 8.00634C11.1451 8.6321 10.8776 9.33921 10.8677 10.1307C11.1581 10.2635 11.481 10.3374 11.8211 10.3374ZM11.3792 7.73442C11.3975 7.74873 11.415 7.76299 11.4316 7.77715C10.8717 8.41395 10.5654 9.13202 10.5132 9.92865C10.4445 9.88088 10.3784 9.82945 10.3154 9.77465C10.5264 8.93241 10.8762 8.23754 11.3792 7.73442ZM9.70753 7.14543C10.2336 7.20468 10.6489 7.33261 10.9601 7.48068C10.1669 7.81771 9.85452 8.36073 9.69739 8.91456C9.58677 8.64559 9.52577 8.35099 9.52577 8.04213C9.52577 7.72396 9.59051 7.42091 9.70753 7.14543ZM9.9956 9.43375C9.97791 9.41058 9.96065 9.38706 9.94383 9.36321C9.98357 8.78156 10.354 7.95629 11.1023 7.6161C10.6003 8.10322 10.2248 8.65771 9.9956 9.43375ZM10.1654 6.45242C10.5831 6.01752 11.1705 5.74683 11.8211 5.74683C12.4615 5.74683 13.0407 6.00914 13.4571 6.43218C12.8019 6.50816 12.2462 6.67243 11.7951 6.92798C11.3929 6.69722 10.8493 6.54124 10.1654 6.45242Z" fill="#FFDC17"/>
</g>
</g>
<defs>
<clipPath id="clip0_58_3269">
<rect width="21.4187" height="16.064" fill="white" transform="translate(0.837402 0.0495605)"/>
</clipPath>
</defs>
</svg>
