<svg width="22" height="17" viewBox="0 0 22 17" fill="none" xmlns="http://www.w3.org/2000/svg">
<g clip-path="url(#clip0_58_3065)">
<rect width="21.4187" height="16.064" transform="translate(0.512329 0.0495605)" fill="white"/>
<path fill-rule="evenodd" clip-rule="evenodd" d="M0.802979 0.0175781V16.0816H22.2217V0.0175781H0.802979Z" fill="#E31D1C"/>
<mask id="mask0_58_3065" style="mask-type:luminance" maskUnits="userSpaceOnUse" x="0" y="0" width="23" height="17">
<path fill-rule="evenodd" clip-rule="evenodd" d="M0.802979 0.0175781V16.0816H22.2217V0.0175781H0.802979Z" fill="white"/>
</mask>
<g mask="url(#mask0_58_3065)">
<path fill-rule="evenodd" clip-rule="evenodd" d="M11.5186 6.68481L11.5519 6.68807C11.5901 6.55688 11.6578 6.34172 11.7447 6.13823C11.8825 5.81557 12.2805 5.63445 12.2805 5.63445C12.2805 5.63445 12.0838 5.85628 12.0321 6.20785C12.0005 6.42265 11.9894 6.64104 11.9855 6.77845L12.0132 6.7874C12.0825 6.66887 12.1984 6.48031 12.3295 6.30714C12.5412 6.02739 12.9712 5.94793 12.9712 5.94793C12.9712 5.94793 12.7267 6.11559 12.5915 6.44421C12.513 6.63502 12.4516 6.83344 12.414 6.9663C12.4278 6.97421 12.4415 6.98225 12.4551 6.99044C12.5502 6.89022 12.6986 6.74101 12.8573 6.60846C13.1265 6.38351 13.5633 6.40281 13.5633 6.40281C13.5633 6.40281 13.2874 6.51118 13.0818 6.80097C12.9689 6.95998 12.8695 7.12905 12.8027 7.24926C12.8173 7.26262 12.8318 7.27618 12.8461 7.28993C12.9613 7.21447 13.1286 7.11066 13.3013 7.02312C13.6142 6.8645 14.0355 6.98157 14.0355 6.98157C14.0355 6.98157 13.7423 7.02508 13.4767 7.26119C13.3409 7.38188 13.2145 7.51369 13.1234 7.61371C13.136 7.63166 13.1483 7.64981 13.1603 7.66814C13.2887 7.62404 13.464 7.56869 13.6406 7.52831C13.9827 7.45011 14.3631 7.66562 14.3631 7.66562C14.3631 7.66562 14.068 7.6369 13.7533 7.80174C13.6062 7.87877 13.4644 7.9667 13.3551 8.03853C13.3665 8.0664 13.3773 8.09455 13.3875 8.12298C13.5181 8.11013 13.6856 8.09805 13.8513 8.0984C14.2021 8.09914 14.5243 8.39471 14.5243 8.39471C14.5243 8.39471 14.2433 8.30035 13.8995 8.39015C13.7519 8.42871 13.6066 8.47726 13.4888 8.5201C13.4942 8.55503 13.4988 8.59022 13.5026 8.62567C13.6268 8.64253 13.7778 8.66709 13.9249 8.70139C14.2666 8.78104 14.5141 9.14152 14.5141 9.14152C14.5141 9.14152 14.2615 8.98635 13.9063 8.99652C13.7662 9.00052 13.6262 9.01317 13.508 9.02702C13.5049 9.06562 13.5009 9.10393 13.4959 9.14194C13.6066 9.18673 13.736 9.24307 13.8601 9.30667C14.1724 9.4666 14.3253 9.87625 14.3253 9.87625C14.3253 9.87625 14.1177 9.66458 13.7706 9.58851C13.646 9.56119 13.5196 9.54083 13.4088 9.52595C13.3946 9.56928 13.3792 9.61202 13.3625 9.65412C13.4543 9.71919 13.5575 9.79649 13.6551 9.87874C13.9233 10.1048 13.9802 10.5384 13.9802 10.5384C13.9802 10.5384 13.8256 10.2854 13.5045 10.1332C13.3972 10.0824 13.2872 10.0371 13.1882 9.9993C13.1621 10.0412 13.1346 10.0821 13.1058 10.1221C13.1762 10.2019 13.2528 10.2934 13.3238 10.388C13.5343 10.6686 13.4922 11.1039 13.4922 11.1039C13.4922 11.1039 13.3984 10.8226 13.1198 10.6021C13.0321 10.5327 12.9408 10.4674 12.8569 10.4107C12.8208 10.4459 12.7834 10.4799 12.7449 10.5125C12.7919 10.6037 12.8413 10.7061 12.8852 10.81C13.0216 11.1332 12.8754 11.5453 12.8754 11.5453C12.8754 11.5453 12.8524 11.2497 12.6354 10.9684C12.5707 10.8844 12.502 10.8035 12.4375 10.7311C12.3907 10.7586 12.3429 10.7845 12.294 10.8086C12.3181 10.9044 12.3419 11.0104 12.3604 11.1165C12.4206 11.4621 12.1854 11.8308 12.1854 11.8308C12.1854 11.8308 12.2296 11.5376 12.0814 11.2146C12.0383 11.1206 11.9908 11.0284 11.9452 10.9449C11.8923 10.9605 11.8385 10.9743 11.784 10.986C11.7857 11.0828 11.7849 11.1887 11.7792 11.2936C11.7601 11.6439 11.4481 11.9502 11.4481 11.9502C11.4481 11.9502 11.557 11.6745 11.4853 11.3265C11.4645 11.2252 11.439 11.1247 11.4133 11.0332C11.3814 11.0346 11.3493 11.0353 11.3171 11.0353C11.2952 11.0353 11.2734 11.0349 11.2518 11.0343C11.2299 11.1296 11.2032 11.2334 11.172 11.3349C11.0687 11.6702 10.6918 11.892 10.6918 11.892C10.6918 11.892 10.8642 11.6508 10.8789 11.2957C10.8831 11.1918 10.8827 11.0876 10.8799 10.9921C10.8259 10.9813 10.7726 10.9685 10.7201 10.9539C10.6769 11.0428 10.627 11.1392 10.573 11.2323C10.397 11.5358 9.97987 11.667 9.97987 11.667C9.97987 11.667 10.2021 11.4708 10.2962 11.1282C10.3248 11.0241 10.3485 10.9185 10.3677 10.8219C10.3195 10.799 10.2724 10.7744 10.2263 10.7482C10.1627 10.8274 10.0901 10.9132 10.0139 10.9945C9.7741 11.2506 9.33817 11.2847 9.33817 11.2847C9.33817 11.2847 9.59885 11.1435 9.76765 10.8308C9.82197 10.7302 9.87129 10.6267 9.91322 10.5326C9.87567 10.5017 9.83918 10.4695 9.80381 10.4362C9.71905 10.501 9.622 10.5714 9.52225 10.6358C9.22761 10.8263 8.79638 10.7539 8.79638 10.7539C8.79638 10.7539 9.08348 10.68 9.32291 10.4174C9.40463 10.3278 9.48168 10.2337 9.54774 10.1486C9.51963 10.1108 9.49272 10.0721 9.46706 10.0325C9.36551 10.0791 9.24812 10.1292 9.12926 10.1722C8.79932 10.2915 8.39543 10.124 8.39543 10.124C8.39543 10.124 8.6918 10.1165 8.98416 9.91454C9.09239 9.83978 9.19646 9.75862 9.28461 9.68606C9.26814 9.64645 9.25281 9.60625 9.23867 9.5655C9.12378 9.58968 8.98874 9.61439 8.8539 9.63066C8.50559 9.67268 8.14974 9.41858 8.14974 9.41858C8.14974 9.41858 8.44018 9.47799 8.77049 9.34695C8.90437 9.29384 9.03512 9.23215 9.14327 9.17756C9.138 9.14226 9.13359 9.10668 9.13004 9.07085C9.00583 9.06698 8.85544 9.05831 8.70775 9.03986C8.35961 8.99637 8.07581 8.66373 8.07581 8.66373C8.07581 8.66373 8.34325 8.79164 8.69544 8.74441C8.85039 8.72363 9.00419 8.69214 9.12787 8.6634C9.13078 8.63039 9.13443 8.5976 9.1388 8.56503C9.01326 8.5326 8.8562 8.4876 8.7048 8.43213C8.37537 8.31145 8.17367 7.92349 8.17367 7.92349C8.17367 7.92349 8.40549 8.10828 8.75928 8.14148C8.92955 8.15746 9.10137 8.16066 9.23381 8.15967C9.24274 8.13337 9.25216 8.10729 9.26206 8.08144C9.14287 8.02022 8.98778 7.93545 8.84188 7.84027C8.54805 7.64857 8.43878 7.22518 8.43878 7.22518C8.43878 7.22518 8.62309 7.45738 8.96034 7.56932C9.13723 7.62803 9.31933 7.67236 9.45252 7.70125C9.46304 7.68457 9.47377 7.66805 9.48472 7.65168C9.38097 7.56192 9.23861 7.43249 9.10977 7.29374C8.87104 7.03664 8.86745 6.5994 8.86745 6.5994C8.86745 6.5994 8.9901 6.8693 9.29026 7.0595C9.45797 7.16577 9.63537 7.25764 9.75927 7.31803C9.77208 7.30526 9.78505 7.29265 9.79817 7.2802C9.71618 7.16894 9.59848 7.00103 9.49808 6.82628C9.3233 6.52207 9.41816 6.09523 9.41816 6.09523C9.41816 6.09523 9.47696 6.3858 9.72664 6.63865C9.8747 6.78859 10.0371 6.92518 10.1447 7.01153C10.1569 7.00385 10.1693 6.99628 10.1817 6.98883C10.1265 6.86241 10.0449 6.66322 9.98356 6.46098C9.88169 6.12525 10.0701 5.73068 10.0701 5.73068C10.0701 5.73068 10.0621 6.02704 10.2485 6.32957C10.3637 6.51664 10.4974 6.69306 10.5826 6.80047C10.5909 6.79755 10.5992 6.79469 10.6076 6.79187C10.5844 6.65707 10.5512 6.43476 10.5401 6.21454C10.5225 5.86414 10.8008 5.52688 10.8008 5.52688C10.8008 5.52688 10.7212 5.81248 10.8289 6.15112C10.8962 6.36273 10.9843 6.56833 11.041 6.6928C11.0519 6.69145 11.0627 6.69018 11.0736 6.68899C11.0812 6.55298 11.0988 6.32589 11.1381 6.10602C11.1997 5.76064 11.5467 5.49463 11.5467 5.49463C11.5467 5.49463 11.405 5.75502 11.4337 6.1092C11.4517 6.33057 11.4914 6.55079 11.5186 6.68481Z" fill="#FFC84A"/>
<path fill-rule="evenodd" clip-rule="evenodd" d="M0.27293 9.33487L2.02314 8.62458C2.27826 8.52105 2.56391 8.52231 2.8181 8.62809L5.24829 9.63942C5.52325 9.75384 5.83396 9.74559 6.10246 9.61674L8.06268 8.67602C8.34383 8.5411 8.67052 8.5387 8.95362 8.66948L11.0068 9.61798C11.2834 9.74576 11.6019 9.74654 11.8792 9.62012L13.98 8.66205C14.2572 8.53567 14.5756 8.53641 14.8522 8.66408L16.9264 9.62162C17.1986 9.74729 17.5116 9.75006 17.786 9.62924L20.0525 8.63127C20.2978 8.52322 20.5753 8.51356 20.8276 8.60427L22.8596 9.33487V16.0374H0.213379L0.27293 9.33487Z" fill="#F7FCFF"/>
<mask id="mask1_58_3065" style="mask-type:luminance" maskUnits="userSpaceOnUse" x="0" y="8" width="23" height="9">
<path fill-rule="evenodd" clip-rule="evenodd" d="M0.27293 9.33487L2.02314 8.62458C2.27826 8.52105 2.56391 8.52231 2.8181 8.62809L5.24829 9.63942C5.52325 9.75384 5.83396 9.74559 6.10246 9.61674L8.06268 8.67602C8.34383 8.5411 8.67052 8.5387 8.95362 8.66948L11.0068 9.61798C11.2834 9.74576 11.6019 9.74654 11.8792 9.62012L13.98 8.66205C14.2572 8.53567 14.5756 8.53641 14.8522 8.66408L16.9264 9.62162C17.1986 9.74729 17.5116 9.75006 17.786 9.62924L20.0525 8.63127C20.2978 8.52322 20.5753 8.51356 20.8276 8.60427L22.8596 9.33487V16.0374H0.213379L0.27293 9.33487Z" fill="white"/>
</mask>
<g mask="url(#mask1_58_3065)">
<path d="M0.272949 10.8915L2.02316 10.1812C2.27827 10.0777 2.56393 10.0789 2.81812 10.1847L5.24831 11.196C5.52327 11.3105 5.83398 11.3022 6.10248 11.1734L8.0627 10.2326C8.34385 10.0977 8.67054 10.0953 8.95364 10.2261L11.0068 11.1746C11.2834 11.3024 11.602 11.3032 11.8792 11.1767L13.9801 10.2187C14.2572 10.0923 14.5757 10.093 14.8522 10.2207L16.9264 11.1782C17.1986 11.3039 17.5117 11.3067 17.786 11.1859L20.0525 10.1879C20.2979 10.0798 20.5754 10.0702 20.8277 10.1609L22.8596 10.8915" stroke="#015989" stroke-width="1.33867"/>
<path d="M0.272949 13.1196L2.02316 12.4093C2.27827 12.3058 2.56393 12.3071 2.81812 12.4129L5.24831 13.4242C5.52327 13.5386 5.83398 13.5304 6.10248 13.4015L8.0627 12.4608C8.34385 12.3259 8.67054 12.3235 8.95364 12.4543L11.0068 13.4027C11.2834 13.5305 11.602 13.5313 11.8792 13.4049L13.9801 12.4468C14.2572 12.3204 14.5757 12.3212 14.8522 12.4488L16.9264 13.4064C17.1986 13.5321 17.5117 13.5348 17.786 13.414L20.0525 12.416C20.2979 12.308 20.5754 12.2983 20.8277 12.389L22.8596 13.1196" stroke="#015989" stroke-width="1.33867"/>
<path fill-rule="evenodd" clip-rule="evenodd" d="M0.272949 14.8952L1.00364 14.5986C1.91193 14.23 2.92895 14.2345 3.83395 14.6111L5.24831 15.1997C5.52327 15.3141 5.83398 15.3059 6.10248 15.177L6.9261 14.7818C7.92707 14.3014 9.09021 14.2929 10.0981 14.7585L11.0068 15.1783C11.2834 15.3061 11.602 15.3068 11.8792 15.1804L12.8624 14.732C13.8491 14.2821 14.9829 14.2847 15.9675 14.7392L16.9264 15.1819C17.1986 15.3076 17.5117 15.3104 17.786 15.1895L19.0739 14.6224C19.9476 14.2378 20.9356 14.2034 21.8338 14.5263L22.8596 14.8952V17.1139H0.395851L0.272949 14.8952Z" fill="#015989"/>
</g>
<path fill-rule="evenodd" clip-rule="evenodd" d="M7.34912 2.30569C7.34912 2.30569 8.28079 2.30569 8.59444 2.30569C8.9081 2.30569 9.61572 1.82609 10.025 1.98596C10.4343 2.14582 11.1233 2.66195 11.1233 2.66195C11.1233 2.66195 12.2608 1.76403 12.9393 1.76403C13.6178 1.76403 14.8416 1.66418 14.8416 1.66418C14.8416 1.66418 14.5545 2.40947 13.7469 2.53571C12.9393 2.66195 11.9731 3.28024 11.9731 3.28024C11.9731 3.28024 13.0855 3.28024 13.2856 3.28024C13.4858 3.28024 13.7469 3.58196 13.7469 3.58196C13.7469 3.58196 13.2082 3.94799 12.9393 3.94799C12.6704 3.94799 12.3734 3.94799 12.3734 3.94799C12.3734 3.94799 11.8016 4.43859 11.0953 4.3342C10.3891 4.22982 9.82238 3.58196 9.82238 3.58196C9.82238 3.58196 9.20445 3.49339 9.20445 3.38681C9.20445 3.38681 9.13134 3.3532 9.09766 3.35411C8.90327 3.35942 8.77368 3.39434 8.70906 3.38681C9.0644 3.24816 9.20445 3.12548 9.20445 3.12548C9.20445 3.12548 9.44901 2.89606 9.6357 2.89606C9.82238 2.89606 10.4458 3.28024 10.4458 3.28024L10.5947 3.12548L9.82238 2.53571C8.24716 2.70076 7.34912 2.30569 7.34912 2.30569Z" fill="#FFC84A"/>
</g>
</g>
<defs>
<clipPath id="clip0_58_3065">
<rect width="21.4187" height="16.064" fill="white" transform="translate(0.512329 0.0495605)"/>
</clipPath>
</defs>
</svg>
