<svg width="22" height="17" viewBox="0 0 22 17" fill="none" xmlns="http://www.w3.org/2000/svg">
<g clip-path="url(#clip0_58_3049)">
<rect width="21.4187" height="16.064" transform="translate(0.349609 0.0495605)" fill="white"/>
<path fill-rule="evenodd" clip-rule="evenodd" d="M0.640259 0.0175781V16.0816H22.059V0.0175781H0.640259Z" fill="#5196ED"/>
<mask id="mask0_58_3049" style="mask-type:luminance" maskUnits="userSpaceOnUse" x="0" y="0" width="23" height="17">
<path fill-rule="evenodd" clip-rule="evenodd" d="M0.640259 0.0175781V16.0816H22.059V0.0175781H0.640259Z" fill="white"/>
</mask>
<g mask="url(#mask0_58_3049)">
<path fill-rule="evenodd" clip-rule="evenodd" d="M0.640259 8.04956V12.0656H22.059V8.04956H0.640259Z" fill="#AF0100"/>
<path fill-rule="evenodd" clip-rule="evenodd" d="M0.640259 4.03357V8.04958H22.059V4.03357H0.640259Z" fill="#F7FCFF"/>
<path fill-rule="evenodd" clip-rule="evenodd" d="M0.640259 0.0175781V4.03359H22.059V0.0175781H0.640259Z" fill="#FECA00"/>
<path fill-rule="evenodd" clip-rule="evenodd" d="M0.640259 0.0175781L13.3576 8.0496L0.640259 16.0816V0.0175781Z" fill="#5EAA22"/>
<path fill-rule="evenodd" clip-rule="evenodd" d="M5.52943 11.0624C5.52943 11.0624 3.13096 10.2437 3.21579 7.68099C3.30063 5.11824 5.74282 4.61608 5.74282 4.61608C4.88753 3.99843 1.8271 4.72221 1.72916 7.68099C1.63122 10.6398 4.61746 11.2971 5.52943 11.0624ZM5.60149 6.58317L5.67663 6.14509L5.35834 5.83483L5.79821 5.77092L5.99492 5.37233L6.19163 5.77092L6.63149 5.83483L6.31321 6.14509L6.38834 6.58317L5.99492 6.37634L5.60149 6.58317ZM5.67663 7.48376L5.60149 7.92184L5.99492 7.71501L6.38834 7.92184L6.31321 7.48376L6.63149 7.1735L6.19163 7.10959L5.99492 6.711L5.79821 7.10959L5.35834 7.1735L5.67663 7.48376ZM5.60149 9.26051L5.67663 8.82243L5.35834 8.51217L5.79821 8.44826L5.99492 8.04967L6.19163 8.44826L6.63149 8.51217L6.31321 8.82243L6.38834 9.26051L5.99492 9.05368L5.60149 9.26051ZM5.60149 10.5992L5.67663 10.1611L5.35834 9.85084L5.79821 9.78693L5.99492 9.38834L6.19163 9.78693L6.63149 9.85084L6.31321 10.1611L6.38834 10.5992L5.99492 10.3923L5.60149 10.5992Z" fill="#F7FCFF"/>
</g>
</g>
<defs>
<clipPath id="clip0_58_3049">
<rect width="21.4187" height="16.064" fill="white" transform="translate(0.349609 0.0495605)"/>
</clipPath>
</defs>
</svg>
