<svg width="23" height="17" viewBox="0 0 23 17" fill="none" xmlns="http://www.w3.org/2000/svg">
<g clip-path="url(#clip0_58_2971)">
<rect width="21.4187" height="16.064" transform="translate(0.699463 0.0495605)" fill="white"/>
<path fill-rule="evenodd" clip-rule="evenodd" d="M0.990112 0.0175781V16.0816H22.4088V0.0175781H0.990112Z" fill="#F7FCFF"/>
<mask id="mask0_58_2971" style="mask-type:luminance" maskUnits="userSpaceOnUse" x="0" y="0" width="23" height="17">
<path fill-rule="evenodd" clip-rule="evenodd" d="M0.990112 0.0175781V16.0816H22.4088V0.0175781H0.990112Z" fill="white"/>
</mask>
<g mask="url(#mask0_58_2971)">
<path fill-rule="evenodd" clip-rule="evenodd" d="M11.6994 12.2126C13.8431 12.2126 15.5809 10.3671 15.5809 8.09051C15.5809 5.81392 13.8431 3.96838 11.6994 3.96838C9.55568 3.96838 7.81787 5.81392 7.81787 8.09051C7.81787 10.3671 9.55568 12.2126 11.6994 12.2126Z" fill="#3D58DB"/>
<mask id="mask1_58_2971" style="mask-type:luminance" maskUnits="userSpaceOnUse" x="7" y="3" width="9" height="10">
<path fill-rule="evenodd" clip-rule="evenodd" d="M11.6994 12.2126C13.8431 12.2126 15.5809 10.3671 15.5809 8.09051C15.5809 5.81392 13.8431 3.96838 11.6994 3.96838C9.55568 3.96838 7.81787 5.81392 7.81787 8.09051C7.81787 10.3671 9.55568 12.2126 11.6994 12.2126Z" fill="white"/>
</mask>
<g mask="url(#mask1_58_2971)">
<path fill-rule="evenodd" clip-rule="evenodd" d="M15.7167 8.40624C15.7167 8.40624 15.4988 6.46252 13.8853 6.357C12.2717 6.25149 11.8366 7.78241 11.7435 8.18801C11.6504 8.5936 11.4148 9.67559 9.71589 9.67559C8.01701 9.67559 7.86377 6.92433 7.86377 6.92433V3.68018H15.7167V8.40624Z" fill="#E31D1C"/>
</g>
<path fill-rule="evenodd" clip-rule="evenodd" d="M5.87575 1.39124L6.48817 1.94513L3.65001 5.25961L3.0376 4.70572L5.87575 1.39124ZM6.88583 2.28761L7.49825 2.8415L4.76183 6.10797L4.14941 5.55407L6.88583 2.28761ZM8.50365 3.74893L7.89123 3.19503L5.14721 6.48629L5.75962 7.04018L8.50365 3.74893Z" fill="#272727"/>
<path fill-rule="evenodd" clip-rule="evenodd" d="M17.9669 1.15894L17.3544 1.71075L18.4169 2.95762L19.0295 2.4058L17.9669 1.15894ZM19.8556 3.4525L19.243 4.00432L20.3055 5.25118L20.9181 4.69936L19.8556 3.4525ZM15.3327 3.50673L15.9452 2.95491L17.0077 4.20177L16.3952 4.75359L15.3327 3.50673ZM17.8338 5.24848L17.2212 5.8003L18.2837 7.04716L18.8963 6.49534L17.8338 5.24848ZM16.3819 2.58199L16.9944 2.03017L19.9519 5.63177L19.3394 6.18359L16.3819 2.58199Z" fill="#272727"/>
<path fill-rule="evenodd" clip-rule="evenodd" d="M18.4295 9.55104L17.8118 8.99707L16.7403 10.2488L17.358 10.8028L18.4295 9.55104ZM16.6281 11.7538L16.0104 11.1999L14.939 12.4516L15.5567 13.0056L16.6281 11.7538ZM19.7625 10.7489L20.3802 11.3029L19.3088 12.5546L18.6911 12.0007L19.7625 10.7489ZM18.6669 13.5568L18.0492 13.0028L16.9778 14.2545L17.5955 14.8085L18.6669 13.5568ZM17.0316 12.051L17.6493 12.605L16.5309 13.9416L15.9132 13.3876L17.0316 12.051ZM19.4843 10.3777L18.8666 9.82377L17.7482 11.1604L18.3659 11.7144L19.4843 10.3777Z" fill="#272727"/>
<path fill-rule="evenodd" clip-rule="evenodd" d="M5.27821 9.98395L5.89079 9.43152L8.62476 12.5643L8.01218 13.1167L5.27821 9.98395ZM5.91597 12.724L6.52855 12.1716L7.68336 13.4403L7.07078 13.9928L5.91597 12.724ZM3.87458 11.1894L3.262 11.7418L6.01016 14.9167L6.62274 14.3643L3.87458 11.1894ZM4.31038 10.8289L4.92296 10.2765L5.92407 11.4504L5.31149 12.0028L4.31038 10.8289Z" fill="#272727"/>
</g>
</g>
<defs>
<clipPath id="clip0_58_2971">
<rect width="21.4187" height="16.064" fill="white" transform="translate(0.699463 0.0495605)"/>
</clipPath>
</defs>
</svg>
