<svg width="22" height="17" viewBox="0 0 22 17" fill="none" xmlns="http://www.w3.org/2000/svg">
<g clip-path="url(#clip0_58_2909)">
<rect width="21.4187" height="16.064" transform="translate(0 0.886719)" fill="white"/>
<g clip-path="url(#clip1_58_2909)">
<path fill-rule="evenodd" clip-rule="evenodd" d="M0.290649 0.854736V16.9188H21.7094V0.854736H0.290649Z" fill="#2E42A5"/>
<mask id="mask0_58_2909" style="mask-type:luminance" maskUnits="userSpaceOnUse" x="0" y="0" width="22" height="17">
<path fill-rule="evenodd" clip-rule="evenodd" d="M0.290649 0.854736V16.9188H21.7094V0.854736H0.290649Z" fill="white"/>
</mask>
<g mask="url(#mask0_58_2909)">
<path d="M-1.0509 9.55586L1.6003 10.7186L12.3988 2.11882L13.7973 0.390915L10.9622 0.00228355L6.55773 3.70818L3.01259 6.2051L-1.0509 9.55586Z" fill="#F7FCFF"/>
<path d="M-0.687988 10.3706L0.662677 11.0454L13.2951 0.230485H11.3986L-0.687988 10.3706Z" fill="#F50100"/>
<path d="M13.6802 9.55586L11.029 10.7186L0.230459 2.11882L-1.16799 0.390915L1.66709 0.00228355L6.07155 3.70818L9.61668 6.2051L13.6802 9.55586Z" fill="#F7FCFF"/>
<path d="M13.5897 10.1407L12.2391 10.8154L6.86006 6.185L5.2653 5.66765L-1.30254 0.396951H0.593948L7.15811 5.54255L8.90169 6.1629L13.5897 10.1407Z" fill="#F50100"/>
<mask id="path-7-outside-1_58_2909" maskUnits="userSpaceOnUse" x="-1.70935" y="-1.14526" width="16" height="13" fill="black">
<rect fill="white" x="-1.70935" y="-1.14526" width="16" height="13"/>
<path fill-rule="evenodd" clip-rule="evenodd" d="M6.97362 0.854736H5.63495V4.87075H0.290649V6.20942H5.63495V10.2254H6.97362V6.20942H12.3387V4.87075H6.97362V0.854736Z"/>
</mask>
<path fill-rule="evenodd" clip-rule="evenodd" d="M6.97362 0.854736H5.63495V4.87075H0.290649V6.20942H5.63495V10.2254H6.97362V6.20942H12.3387V4.87075H6.97362V0.854736Z" fill="#F50100"/>
<path d="M5.63495 0.854736V-0.149266H4.63095V0.854736H5.63495ZM6.97362 0.854736H7.97763V-0.149266H6.97362V0.854736ZM5.63495 4.87075V5.87475H6.63896V4.87075H5.63495ZM0.290649 4.87075V3.86674H-0.713353V4.87075H0.290649ZM0.290649 6.20942H-0.713353V7.21342H0.290649V6.20942ZM5.63495 6.20942H6.63896V5.20541H5.63495V6.20942ZM5.63495 10.2254H4.63095V11.2294H5.63495V10.2254ZM6.97362 10.2254V11.2294H7.97763V10.2254H6.97362ZM6.97362 6.20942V5.20541H5.96962V6.20942H6.97362ZM12.3387 6.20942V7.21342H13.3427V6.20942H12.3387ZM12.3387 4.87075H13.3427V3.86674H12.3387V4.87075ZM6.97362 4.87075H5.96962V5.87475H6.97362V4.87075ZM5.63495 1.85874H6.97362V-0.149266H5.63495V1.85874ZM6.63896 4.87075V0.854736H4.63095V4.87075H6.63896ZM0.290649 5.87475H5.63495V3.86674H0.290649V5.87475ZM1.29465 6.20942V4.87075H-0.713353V6.20942H1.29465ZM5.63495 5.20541H0.290649V7.21342H5.63495V5.20541ZM6.63896 10.2254V6.20942H4.63095V10.2254H6.63896ZM6.97362 9.22142H5.63495V11.2294H6.97362V9.22142ZM5.96962 6.20942V10.2254H7.97763V6.20942H5.96962ZM12.3387 5.20541H6.97362V7.21342H12.3387V5.20541ZM11.3347 4.87075V6.20942H13.3427V4.87075H11.3347ZM6.97362 5.87475H12.3387V3.86674H6.97362V5.87475ZM5.96962 0.854736V4.87075H7.97763V0.854736H5.96962Z" fill="#F7FCFF" mask="url(#path-7-outside-1_58_2909)"/>
<g clip-path="url(#clip2_58_2909)">
<path d="M14.3852 10.7085V8.25075H19.6074V8.251V8.25527V8.25954V8.26383V8.26812V8.27242V8.27674V8.28107V8.2854V8.28975V8.2941V8.29847V8.30285V8.30723V8.31163V8.31604V8.32045V8.32488V8.32931V8.33376V8.33821V8.34268V8.34715V8.35164V8.35613V8.36063V8.36514V8.36966V8.37419V8.37873V8.38328V8.38784V8.39241V8.39699V8.40157V8.40616V8.41077V8.41538V8.42V8.42463V8.42927V8.43391V8.43857V8.44323V8.44791V8.45259V8.45728V8.46197V8.46668V8.47139V8.47612V8.48085V8.48559V8.49033V8.49509V8.49985V8.50462V8.5094V8.51419V8.51898V8.52378V8.52859V8.53341V8.53823V8.54307V8.54791V8.55275V8.55761V8.56247V8.56734V8.57222V8.5771V8.58199V8.58689V8.59179V8.5967V8.60162V8.60655V8.61148V8.61642V8.62137V8.62632V8.63128V8.63625V8.64122V8.6462V8.65119V8.65618V8.66118V8.66618V8.67119V8.67621V8.68123V8.68626V8.6913V8.69634V8.70139V8.70644V8.7115V8.71657V8.72164V8.72672V8.7318V8.73689V8.74198V8.74708V8.75219V8.7573V8.76241V8.76753V8.77266V8.77779V8.78293V8.78807V8.79322V8.79837V8.80353V8.80869V8.81386V8.81903V8.82421V9.50939V9.51478V9.52018V9.52557V9.53096V9.53634V9.54173V9.54711V9.5525V9.55788V9.56326V9.56863V9.57401V9.57938V9.58475V9.59012V9.59549V9.60085V9.60621V9.61157V9.61693V9.62229V9.62764V9.63299V9.63834V9.64368V9.64902V9.65436V9.6597V9.66503V9.67037V9.67569V9.68102V9.68634V9.69166V9.69698V9.70229V9.7076V9.71291V9.71821V9.72351V9.72881V9.7341V9.7394V9.74468V9.74997V9.75525V9.76052V9.76579V9.77106V9.77633V9.78159V9.78685V9.7921V9.79735V9.80259V9.80783V9.81307V9.8183V9.82353V9.82876V9.83398V9.83919V9.8444V9.84961V9.85481V9.86001V9.8652V9.87039V9.87557V9.88075V9.88593V9.8911V9.89626V9.90142V9.90657V9.91172V9.91687V9.92201V9.92714V9.93227V9.93739V9.94251V9.94762V9.95273V9.95783V9.96293V9.96802V9.9731V9.97818V9.98326V9.98832V9.99339V9.99844V10.0035V10.0085V10.0136V10.0186V10.0236V10.0287V10.0337V10.0387V10.0437V10.0487V10.0537V10.0586V10.0636V10.0686V10.0735V10.0785V10.0835V10.0884V10.0933V10.0983V10.1032V10.1081V10.113V10.1179V10.1228V10.1277V10.1326V10.1374V10.1423V10.1472V10.152V10.1568V10.1617V10.1665V10.1713V10.1761V10.1809V10.1857V10.1905V10.1953V10.2001V10.2049V10.2096V10.2144V10.2191V10.2238V10.2286V10.2333V10.238V10.2427V10.2474V10.2521V10.2567V10.2614V10.2661V10.2707V10.2754V10.28V10.2846V10.2892V10.2938V10.2984V10.303V10.3076V10.3122V10.3167V10.3213V10.3258V10.3304V10.3349V10.3394V10.3439V10.3484V10.3529V10.3574V10.3618V10.3663V10.3707V10.3752V10.3796V10.384V10.3884V10.3928V10.3972V10.4016V10.406V10.4103V10.4147V10.419V10.4234V10.4277V10.432V10.4363V10.4406V10.4449V10.4491V10.4534V10.4576V10.4619V10.4661V10.4703V10.4745V10.4787V10.4829V10.487V10.4912V10.4954V10.4995V10.5036V10.5077V10.5118V10.5159V10.52V10.5241V10.5281V10.5322V10.5362V10.5402V10.5443V10.5483V10.5522V10.5562V10.5602V10.5641V10.5681V10.572V10.5759V10.5798V10.5837V10.5876V10.5915V10.5953V10.5992V10.603V10.6068V10.6106V10.6144V10.6182V10.622V10.6257V10.6295V10.6332V10.6369V10.6406V10.6443V10.648V10.6517V10.6553V10.659V10.6626V10.6662V10.6698V10.6734V10.677V10.6805V10.6841V10.6876V10.6911V10.6946V10.6981V10.7016V10.7051V10.7085C19.6074 12.2827 18.999 13.3252 18.3792 13.9744C18.0691 14.2992 17.756 14.5256 17.5144 14.6708C17.3936 14.7434 17.2908 14.7956 17.2155 14.8295C17.1778 14.8465 17.1472 14.8587 17.1248 14.8667C17.1136 14.8707 17.1048 14.8735 17.0983 14.8753C17.0944 14.8763 17.092 14.8768 17.091 14.877C17.0899 14.8768 17.0875 14.8763 17.0833 14.8752C17.0765 14.8734 17.0672 14.8706 17.0553 14.8666C17.0317 14.8585 16.9992 14.8462 16.9591 14.8292C16.8789 14.7952 16.7689 14.743 16.6393 14.6703C16.3802 14.525 16.0432 14.2984 15.7091 13.9735C15.0415 13.3241 14.3852 12.2819 14.3852 10.7085Z" fill="white"/>
<path d="M14.3852 10.7085V8.25075H19.6074V8.251V8.25527V8.25954V8.26383V8.26812V8.27242V8.27674V8.28107V8.2854V8.28975V8.2941V8.29847V8.30285V8.30723V8.31163V8.31604V8.32045V8.32488V8.32931V8.33376V8.33821V8.34268V8.34715V8.35164V8.35613V8.36063V8.36514V8.36966V8.37419V8.37873V8.38328V8.38784V8.39241V8.39699V8.40157V8.40616V8.41077V8.41538V8.42V8.42463V8.42927V8.43391V8.43857V8.44323V8.44791V8.45259V8.45728V8.46197V8.46668V8.47139V8.47612V8.48085V8.48559V8.49033V8.49509V8.49985V8.50462V8.5094V8.51419V8.51898V8.52378V8.52859V8.53341V8.53823V8.54307V8.54791V8.55275V8.55761V8.56247V8.56734V8.57222V8.5771V8.58199V8.58689V8.59179V8.5967V8.60162V8.60655V8.61148V8.61642V8.62137V8.62632V8.63128V8.63625V8.64122V8.6462V8.65119V8.65618V8.66118V8.66618V8.67119V8.67621V8.68123V8.68626V8.6913V8.69634V8.70139V8.70644V8.7115V8.71657V8.72164V8.72672V8.7318V8.73689V8.74198V8.74708V8.75219V8.7573V8.76241V8.76753V8.77266V8.77779V8.78293V8.78807V8.79322V8.79837V8.80353V8.80869V8.81386V8.81903V8.82421V9.50939V9.51478V9.52018V9.52557V9.53096V9.53634V9.54173V9.54711V9.5525V9.55788V9.56326V9.56863V9.57401V9.57938V9.58475V9.59012V9.59549V9.60085V9.60621V9.61157V9.61693V9.62229V9.62764V9.63299V9.63834V9.64368V9.64902V9.65436V9.6597V9.66503V9.67037V9.67569V9.68102V9.68634V9.69166V9.69698V9.70229V9.7076V9.71291V9.71821V9.72351V9.72881V9.7341V9.7394V9.74468V9.74997V9.75525V9.76052V9.76579V9.77106V9.77633V9.78159V9.78685V9.7921V9.79735V9.80259V9.80783V9.81307V9.8183V9.82353V9.82876V9.83398V9.83919V9.8444V9.84961V9.85481V9.86001V9.8652V9.87039V9.87557V9.88075V9.88593V9.8911V9.89626V9.90142V9.90657V9.91172V9.91687V9.92201V9.92714V9.93227V9.93739V9.94251V9.94762V9.95273V9.95783V9.96293V9.96802V9.9731V9.97818V9.98326V9.98832V9.99339V9.99844V10.0035V10.0085V10.0136V10.0186V10.0236V10.0287V10.0337V10.0387V10.0437V10.0487V10.0537V10.0586V10.0636V10.0686V10.0735V10.0785V10.0835V10.0884V10.0933V10.0983V10.1032V10.1081V10.113V10.1179V10.1228V10.1277V10.1326V10.1374V10.1423V10.1472V10.152V10.1568V10.1617V10.1665V10.1713V10.1761V10.1809V10.1857V10.1905V10.1953V10.2001V10.2049V10.2096V10.2144V10.2191V10.2238V10.2286V10.2333V10.238V10.2427V10.2474V10.2521V10.2567V10.2614V10.2661V10.2707V10.2754V10.28V10.2846V10.2892V10.2938V10.2984V10.303V10.3076V10.3122V10.3167V10.3213V10.3258V10.3304V10.3349V10.3394V10.3439V10.3484V10.3529V10.3574V10.3618V10.3663V10.3707V10.3752V10.3796V10.384V10.3884V10.3928V10.3972V10.4016V10.406V10.4103V10.4147V10.419V10.4234V10.4277V10.432V10.4363V10.4406V10.4449V10.4491V10.4534V10.4576V10.4619V10.4661V10.4703V10.4745V10.4787V10.4829V10.487V10.4912V10.4954V10.4995V10.5036V10.5077V10.5118V10.5159V10.52V10.5241V10.5281V10.5322V10.5362V10.5402V10.5443V10.5483V10.5522V10.5562V10.5602V10.5641V10.5681V10.572V10.5759V10.5798V10.5837V10.5876V10.5915V10.5953V10.5992V10.603V10.6068V10.6106V10.6144V10.6182V10.622V10.6257V10.6295V10.6332V10.6369V10.6406V10.6443V10.648V10.6517V10.6553V10.659V10.6626V10.6662V10.6698V10.6734V10.677V10.6805V10.6841V10.6876V10.6911V10.6946V10.6981V10.7016V10.7051V10.7085C19.6074 12.2827 18.999 13.3252 18.3792 13.9744C18.0691 14.2992 17.756 14.5256 17.5144 14.6708C17.3936 14.7434 17.2908 14.7956 17.2155 14.8295C17.1778 14.8465 17.1472 14.8587 17.1248 14.8667C17.1136 14.8707 17.1048 14.8735 17.0983 14.8753C17.0944 14.8763 17.092 14.8768 17.091 14.877C17.0899 14.8768 17.0875 14.8763 17.0833 14.8752C17.0765 14.8734 17.0672 14.8706 17.0553 14.8666C17.0317 14.8585 16.9992 14.8462 16.9591 14.8292C16.8789 14.7952 16.7689 14.743 16.6393 14.6703C16.3802 14.525 16.0432 14.2984 15.7091 13.9735C15.0415 13.3241 14.3852 12.2819 14.3852 10.7085Z" stroke="#0B50A0" stroke-width="0.0669335"/>
<path d="M14.3852 10.7085V8.25075H19.6074V8.251V8.25527V8.25954V8.26383V8.26812V8.27242V8.27674V8.28107V8.2854V8.28975V8.2941V8.29847V8.30285V8.30723V8.31163V8.31604V8.32045V8.32488V8.32931V8.33376V8.33821V8.34268V8.34715V8.35164V8.35613V8.36063V8.36514V8.36966V8.37419V8.37873V8.38328V8.38784V8.39241V8.39699V8.40157V8.40616V8.41077V8.41538V8.42V8.42463V8.42927V8.43391V8.43857V8.44323V8.44791V8.45259V8.45728V8.46197V8.46668V8.47139V8.47612V8.48085V8.48559V8.49033V8.49509V8.49985V8.50462V8.5094V8.51419V8.51898V8.52378V8.52859V8.53341V8.53823V8.54307V8.54791V8.55275V8.55761V8.56247V8.56734V8.57222V8.5771V8.58199V8.58689V8.59179V8.5967V8.60162V8.60655V8.61148V8.61642V8.62137V8.62632V8.63128V8.63625V8.64122V8.6462V8.65119V8.65618V8.66118V8.66618V8.67119V8.67621V8.68123V8.68626V8.6913V8.69634V8.70139V8.70644V8.7115V8.71657V8.72164V8.72672V8.7318V8.73689V8.74198V8.74708V8.75219V8.7573V8.76241V8.76753V8.77266V8.77779V8.78293V8.78807V8.79322V8.79837V8.80353V8.80869V8.81386V8.81903V8.82421V9.50939V9.51478V9.52018V9.52557V9.53096V9.53634V9.54173V9.54711V9.5525V9.55788V9.56326V9.56863V9.57401V9.57938V9.58475V9.59012V9.59549V9.60085V9.60621V9.61157V9.61693V9.62229V9.62764V9.63299V9.63834V9.64368V9.64902V9.65436V9.6597V9.66503V9.67037V9.67569V9.68102V9.68634V9.69166V9.69698V9.70229V9.7076V9.71291V9.71821V9.72351V9.72881V9.7341V9.7394V9.74468V9.74997V9.75525V9.76052V9.76579V9.77106V9.77633V9.78159V9.78685V9.7921V9.79735V9.80259V9.80783V9.81307V9.8183V9.82353V9.82876V9.83398V9.83919V9.8444V9.84961V9.85481V9.86001V9.8652V9.87039V9.87557V9.88075V9.88593V9.8911V9.89626V9.90142V9.90657V9.91172V9.91687V9.92201V9.92714V9.93227V9.93739V9.94251V9.94762V9.95273V9.95783V9.96293V9.96802V9.9731V9.97818V9.98326V9.98832V9.99339V9.99844V10.0035V10.0085V10.0136V10.0186V10.0236V10.0287V10.0337V10.0387V10.0437V10.0487V10.0537V10.0586V10.0636V10.0686V10.0735V10.0785V10.0835V10.0884V10.0933V10.0983V10.1032V10.1081V10.113V10.1179V10.1228V10.1277V10.1326V10.1374V10.1423V10.1472V10.152V10.1568V10.1617V10.1665V10.1713V10.1761V10.1809V10.1857V10.1905V10.1953V10.2001V10.2049V10.2096V10.2144V10.2191V10.2238V10.2286V10.2333V10.238V10.2427V10.2474V10.2521V10.2567V10.2614V10.2661V10.2707V10.2754V10.28V10.2846V10.2892V10.2938V10.2984V10.303V10.3076V10.3122V10.3167V10.3213V10.3258V10.3304V10.3349V10.3394V10.3439V10.3484V10.3529V10.3574V10.3618V10.3663V10.3707V10.3752V10.3796V10.384V10.3884V10.3928V10.3972V10.4016V10.406V10.4103V10.4147V10.419V10.4234V10.4277V10.432V10.4363V10.4406V10.4449V10.4491V10.4534V10.4576V10.4619V10.4661V10.4703V10.4745V10.4787V10.4829V10.487V10.4912V10.4954V10.4995V10.5036V10.5077V10.5118V10.5159V10.52V10.5241V10.5281V10.5322V10.5362V10.5402V10.5443V10.5483V10.5522V10.5562V10.5602V10.5641V10.5681V10.572V10.5759V10.5798V10.5837V10.5876V10.5915V10.5953V10.5992V10.603V10.6068V10.6106V10.6144V10.6182V10.622V10.6257V10.6295V10.6332V10.6369V10.6406V10.6443V10.648V10.6517V10.6553V10.659V10.6626V10.6662V10.6698V10.6734V10.677V10.6805V10.6841V10.6876V10.6911V10.6946V10.6981V10.7016V10.7051V10.7085C19.6074 12.2827 18.999 13.3252 18.3792 13.9744C18.0691 14.2992 17.756 14.5256 17.5144 14.6708C17.3936 14.7434 17.2908 14.7956 17.2155 14.8295C17.1778 14.8465 17.1472 14.8587 17.1248 14.8667C17.1136 14.8707 17.1048 14.8735 17.0983 14.8753C17.0944 14.8763 17.092 14.8768 17.091 14.877C17.0899 14.8768 17.0875 14.8763 17.0833 14.8752C17.0765 14.8734 17.0672 14.8706 17.0553 14.8666C17.0317 14.8585 16.9992 14.8462 16.9591 14.8292C16.8789 14.7952 16.7689 14.743 16.6393 14.6703C16.3802 14.525 16.0432 14.2984 15.7091 13.9735C15.0415 13.3241 14.3852 12.2819 14.3852 10.7085Z" stroke="#F7FCFF" stroke-width="0.0669335"/>
<mask id="mask1_58_2909" style="mask-type:luminance" maskUnits="userSpaceOnUse" x="14" y="8" width="6" height="7">
<path d="M14.3852 10.7085V8.25075H19.6074V8.251V8.25527V8.25954V8.26383V8.26812V8.27242V8.27674V8.28107V8.2854V8.28975V8.2941V8.29847V8.30285V8.30723V8.31163V8.31604V8.32045V8.32488V8.32931V8.33376V8.33821V8.34268V8.34715V8.35164V8.35613V8.36063V8.36514V8.36966V8.37419V8.37873V8.38328V8.38784V8.39241V8.39699V8.40157V8.40616V8.41077V8.41538V8.42V8.42463V8.42927V8.43391V8.43857V8.44323V8.44791V8.45259V8.45728V8.46197V8.46668V8.47139V8.47612V8.48085V8.48559V8.49033V8.49509V8.49985V8.50462V8.5094V8.51419V8.51898V8.52378V8.52859V8.53341V8.53823V8.54307V8.54791V8.55275V8.55761V8.56247V8.56734V8.57222V8.5771V8.58199V8.58689V8.59179V8.5967V8.60162V8.60655V8.61148V8.61642V8.62137V8.62632V8.63128V8.63625V8.64122V8.6462V8.65119V8.65618V8.66118V8.66618V8.67119V8.67621V8.68123V8.68626V8.6913V8.69634V8.70139V8.70644V8.7115V8.71657V8.72164V8.72672V8.7318V8.73689V8.74198V8.74708V8.75219V8.7573V8.76241V8.76753V8.77266V8.77779V8.78293V8.78807V8.79322V8.79837V8.80353V8.80869V8.81386V8.81903V8.82421V9.50939V9.51478V9.52018V9.52557V9.53096V9.53634V9.54173V9.54711V9.5525V9.55788V9.56326V9.56863V9.57401V9.57938V9.58475V9.59012V9.59549V9.60085V9.60621V9.61157V9.61693V9.62229V9.62764V9.63299V9.63834V9.64368V9.64902V9.65436V9.6597V9.66503V9.67037V9.67569V9.68102V9.68634V9.69166V9.69698V9.70229V9.7076V9.71291V9.71821V9.72351V9.72881V9.7341V9.7394V9.74468V9.74997V9.75525V9.76052V9.76579V9.77106V9.77633V9.78159V9.78685V9.7921V9.79735V9.80259V9.80783V9.81307V9.8183V9.82353V9.82876V9.83398V9.83919V9.8444V9.84961V9.85481V9.86001V9.8652V9.87039V9.87557V9.88075V9.88593V9.8911V9.89626V9.90142V9.90657V9.91172V9.91687V9.92201V9.92714V9.93227V9.93739V9.94251V9.94762V9.95273V9.95783V9.96293V9.96802V9.9731V9.97818V9.98326V9.98832V9.99339V9.99844V10.0035V10.0085V10.0136V10.0186V10.0236V10.0287V10.0337V10.0387V10.0437V10.0487V10.0537V10.0586V10.0636V10.0686V10.0735V10.0785V10.0835V10.0884V10.0933V10.0983V10.1032V10.1081V10.113V10.1179V10.1228V10.1277V10.1326V10.1374V10.1423V10.1472V10.152V10.1568V10.1617V10.1665V10.1713V10.1761V10.1809V10.1857V10.1905V10.1953V10.2001V10.2049V10.2096V10.2144V10.2191V10.2238V10.2286V10.2333V10.238V10.2427V10.2474V10.2521V10.2567V10.2614V10.2661V10.2707V10.2754V10.28V10.2846V10.2892V10.2938V10.2984V10.303V10.3076V10.3122V10.3167V10.3213V10.3258V10.3304V10.3349V10.3394V10.3439V10.3484V10.3529V10.3574V10.3618V10.3663V10.3707V10.3752V10.3796V10.384V10.3884V10.3928V10.3972V10.4016V10.406V10.4103V10.4147V10.419V10.4234V10.4277V10.432V10.4363V10.4406V10.4449V10.4491V10.4534V10.4576V10.4619V10.4661V10.4703V10.4745V10.4787V10.4829V10.487V10.4912V10.4954V10.4995V10.5036V10.5077V10.5118V10.5159V10.52V10.5241V10.5281V10.5322V10.5362V10.5402V10.5443V10.5483V10.5522V10.5562V10.5602V10.5641V10.5681V10.572V10.5759V10.5798V10.5837V10.5876V10.5915V10.5953V10.5992V10.603V10.6068V10.6106V10.6144V10.6182V10.622V10.6257V10.6295V10.6332V10.6369V10.6406V10.6443V10.648V10.6517V10.6553V10.659V10.6626V10.6662V10.6698V10.6734V10.677V10.6805V10.6841V10.6876V10.6911V10.6946V10.6981V10.7016V10.7051V10.7085C19.6074 12.2827 18.999 13.3252 18.3792 13.9744C18.0691 14.2992 17.756 14.5256 17.5144 14.6708C17.3936 14.7434 17.2908 14.7956 17.2155 14.8295C17.1778 14.8465 17.1472 14.8587 17.1248 14.8667C17.1136 14.8707 17.1048 14.8735 17.0983 14.8753C17.0944 14.8763 17.092 14.8768 17.091 14.877C17.0899 14.8768 17.0875 14.8763 17.0833 14.8752C17.0765 14.8734 17.0672 14.8706 17.0553 14.8666C17.0317 14.8585 16.9992 14.8462 16.9591 14.8292C16.8789 14.7952 16.7689 14.743 16.6393 14.6703C16.3802 14.525 16.0432 14.2984 15.7091 13.9735C15.0415 13.3241 14.3852 12.2819 14.3852 10.7085Z" fill="white"/>
<path d="M14.3852 10.7085V8.25075H19.6074V8.251V8.25527V8.25954V8.26383V8.26812V8.27242V8.27674V8.28107V8.2854V8.28975V8.2941V8.29847V8.30285V8.30723V8.31163V8.31604V8.32045V8.32488V8.32931V8.33376V8.33821V8.34268V8.34715V8.35164V8.35613V8.36063V8.36514V8.36966V8.37419V8.37873V8.38328V8.38784V8.39241V8.39699V8.40157V8.40616V8.41077V8.41538V8.42V8.42463V8.42927V8.43391V8.43857V8.44323V8.44791V8.45259V8.45728V8.46197V8.46668V8.47139V8.47612V8.48085V8.48559V8.49033V8.49509V8.49985V8.50462V8.5094V8.51419V8.51898V8.52378V8.52859V8.53341V8.53823V8.54307V8.54791V8.55275V8.55761V8.56247V8.56734V8.57222V8.5771V8.58199V8.58689V8.59179V8.5967V8.60162V8.60655V8.61148V8.61642V8.62137V8.62632V8.63128V8.63625V8.64122V8.6462V8.65119V8.65618V8.66118V8.66618V8.67119V8.67621V8.68123V8.68626V8.6913V8.69634V8.70139V8.70644V8.7115V8.71657V8.72164V8.72672V8.7318V8.73689V8.74198V8.74708V8.75219V8.7573V8.76241V8.76753V8.77266V8.77779V8.78293V8.78807V8.79322V8.79837V8.80353V8.80869V8.81386V8.81903V8.82421V9.50939V9.51478V9.52018V9.52557V9.53096V9.53634V9.54173V9.54711V9.5525V9.55788V9.56326V9.56863V9.57401V9.57938V9.58475V9.59012V9.59549V9.60085V9.60621V9.61157V9.61693V9.62229V9.62764V9.63299V9.63834V9.64368V9.64902V9.65436V9.6597V9.66503V9.67037V9.67569V9.68102V9.68634V9.69166V9.69698V9.70229V9.7076V9.71291V9.71821V9.72351V9.72881V9.7341V9.7394V9.74468V9.74997V9.75525V9.76052V9.76579V9.77106V9.77633V9.78159V9.78685V9.7921V9.79735V9.80259V9.80783V9.81307V9.8183V9.82353V9.82876V9.83398V9.83919V9.8444V9.84961V9.85481V9.86001V9.8652V9.87039V9.87557V9.88075V9.88593V9.8911V9.89626V9.90142V9.90657V9.91172V9.91687V9.92201V9.92714V9.93227V9.93739V9.94251V9.94762V9.95273V9.95783V9.96293V9.96802V9.9731V9.97818V9.98326V9.98832V9.99339V9.99844V10.0035V10.0085V10.0136V10.0186V10.0236V10.0287V10.0337V10.0387V10.0437V10.0487V10.0537V10.0586V10.0636V10.0686V10.0735V10.0785V10.0835V10.0884V10.0933V10.0983V10.1032V10.1081V10.113V10.1179V10.1228V10.1277V10.1326V10.1374V10.1423V10.1472V10.152V10.1568V10.1617V10.1665V10.1713V10.1761V10.1809V10.1857V10.1905V10.1953V10.2001V10.2049V10.2096V10.2144V10.2191V10.2238V10.2286V10.2333V10.238V10.2427V10.2474V10.2521V10.2567V10.2614V10.2661V10.2707V10.2754V10.28V10.2846V10.2892V10.2938V10.2984V10.303V10.3076V10.3122V10.3167V10.3213V10.3258V10.3304V10.3349V10.3394V10.3439V10.3484V10.3529V10.3574V10.3618V10.3663V10.3707V10.3752V10.3796V10.384V10.3884V10.3928V10.3972V10.4016V10.406V10.4103V10.4147V10.419V10.4234V10.4277V10.432V10.4363V10.4406V10.4449V10.4491V10.4534V10.4576V10.4619V10.4661V10.4703V10.4745V10.4787V10.4829V10.487V10.4912V10.4954V10.4995V10.5036V10.5077V10.5118V10.5159V10.52V10.5241V10.5281V10.5322V10.5362V10.5402V10.5443V10.5483V10.5522V10.5562V10.5602V10.5641V10.5681V10.572V10.5759V10.5798V10.5837V10.5876V10.5915V10.5953V10.5992V10.603V10.6068V10.6106V10.6144V10.6182V10.622V10.6257V10.6295V10.6332V10.6369V10.6406V10.6443V10.648V10.6517V10.6553V10.659V10.6626V10.6662V10.6698V10.6734V10.677V10.6805V10.6841V10.6876V10.6911V10.6946V10.6981V10.7016V10.7051V10.7085C19.6074 12.2827 18.999 13.3252 18.3792 13.9744C18.0691 14.2992 17.756 14.5256 17.5144 14.6708C17.3936 14.7434 17.2908 14.7956 17.2155 14.8295C17.1778 14.8465 17.1472 14.8587 17.1248 14.8667C17.1136 14.8707 17.1048 14.8735 17.0983 14.8753C17.0944 14.8763 17.092 14.8768 17.091 14.877C17.0899 14.8768 17.0875 14.8763 17.0833 14.8752C17.0765 14.8734 17.0672 14.8706 17.0553 14.8666C17.0317 14.8585 16.9992 14.8462 16.9591 14.8292C16.8789 14.7952 16.7689 14.743 16.6393 14.6703C16.3802 14.525 16.0432 14.2984 15.7091 13.9735C15.0415 13.3241 14.3852 12.2819 14.3852 10.7085Z" stroke="white" stroke-width="0.0669335"/>
</mask>
<g mask="url(#mask1_58_2909)">
<rect x="14.012" y="7.88257" width="6.02402" height="2.27574" fill="#F50100"/>
<path d="M16.6974 10.6269C16.8902 10.6269 17.2757 10.4171 17.3721 10.3687C17.7255 10.1588 17.9825 10.3525 18.1914 10.4493C18.4163 10.5462 18.8339 10.6592 19.0909 10.4493C19.348 10.2395 19.4926 10.2557 19.6693 10.2557C19.7014 10.0136 19.7014 9.7715 19.7014 9.49714V9.30347C19.4765 9.25505 19.364 9.31961 19.1231 9.52941C18.8821 9.73922 18.609 9.69081 18.2556 9.56169C17.9183 9.41644 17.5809 9.15821 17.2436 9.56169C17.1472 9.67467 16.9223 9.83606 16.6974 9.83606C16.4564 9.83606 16.2476 9.67467 16.1512 9.56169C15.7978 9.15821 15.4765 9.41644 15.1392 9.56169C14.7858 9.69081 14.4966 9.73922 14.2557 9.52941C14.0308 9.31961 13.9183 9.25505 13.6774 9.30347V9.49714C13.6774 9.7715 13.6934 10.0136 13.7256 10.2557C13.9023 10.2557 14.0308 10.2395 14.2878 10.4493C14.5448 10.6592 14.9786 10.5462 15.1874 10.4493C15.4123 10.3525 15.6693 10.1588 16.0227 10.3687C16.1191 10.4171 16.4886 10.6269 16.6974 10.6269H16.6974Z" fill="#F50100"/>
<path fill-rule="evenodd" clip-rule="evenodd" d="M15.072 8.91933C15.072 8.91933 15.2172 8.92606 15.3891 9.10354C15.5611 9.28102 16.1937 9.16806 16.1937 9.061C16.1937 8.95394 15.8098 8.88998 15.9573 8.70692C16.1048 8.52385 16.3547 8.52353 16.5555 8.61889C16.6131 8.61889 16.6067 9.2451 16.7381 9.21072C17.1544 9.10186 17.8257 8.88615 18.0227 8.9787C18.2817 9.10046 18.48 9.07018 18.4142 8.89546C18.3483 8.72075 18.179 8.61155 17.8531 8.70692C17.5271 8.80228 17.604 8.89546 17.3223 8.89546C17.0406 8.89546 16.5573 9.04787 16.7719 8.70692C16.9643 8.40139 17.1937 8.39542 17.2813 8.52385C17.3261 8.58956 16.9606 8.73466 16.9606 8.80228C16.9606 8.89546 17.902 8.61903 18.0227 8.61903C18.1433 8.61903 18.4754 8.61155 18.5083 8.70692C18.5412 8.80228 18.7417 8.88979 18.5888 8.9787C18.436 9.0676 18.184 9.12329 18.3574 9.23719C18.5308 9.3511 18.9702 9.4029 18.9894 9.52138C19.0086 9.63986 19.1976 9.81679 19.1217 9.81679C19.0459 9.81679 18.9088 9.98366 18.7812 9.93285C18.6535 9.88204 18.6385 9.83743 18.7609 9.79627C18.8833 9.75511 18.8821 9.58202 18.7812 9.58202C18.6802 9.58202 18.6889 9.56891 18.459 9.50827C18.2292 9.44763 17.925 9.38021 17.9433 9.50827C17.9616 9.63633 18.1172 9.91118 17.8411 9.93738C17.565 9.96358 17.4358 10.0688 17.382 9.98406C17.3283 9.89935 17.1362 9.78649 17.2873 9.7503C17.4383 9.71411 17.5826 9.87332 17.637 9.84732C17.6914 9.82132 17.8087 9.72857 17.7055 9.61842C17.6022 9.50827 17.4016 9.50454 17.5595 9.42209C17.7173 9.33965 17.6231 9.27684 17.3223 9.44763C17.0216 9.61842 16.8543 9.76356 16.5903 9.74304C16.3262 9.72252 16.2078 9.81643 16.1229 9.78875C16.038 9.76106 15.6247 10.0946 15.5057 10.01C15.3867 9.92533 15.0025 9.89285 15.0716 9.78875C15.1408 9.68465 15.2337 9.63106 15.3371 9.68465C15.4405 9.73824 15.5433 9.79184 15.613 9.73824C15.6828 9.68465 15.9038 9.43451 15.8531 9.39775C15.8025 9.36098 15.624 9.29802 15.3371 9.29802C15.0502 9.29802 15.0436 9.10741 14.9755 9.02049C14.9074 8.93357 15.072 8.91933 15.072 8.91933Z" fill="#FFD100"/>
<path d="M16.6974 12.2333C16.8902 12.2333 17.2757 12.0235 17.3721 11.9751C17.7255 11.7653 17.9825 11.959 18.1914 12.0558C18.4163 12.1526 18.8339 12.2656 19.0909 12.0558C19.348 11.846 19.4926 11.8621 19.6693 11.8621C19.7014 11.62 19.7014 11.3779 19.7014 11.1036V10.9099C19.4765 10.8615 19.364 10.9261 19.1231 11.1359C18.8821 11.3457 18.609 11.2973 18.2556 11.1681C17.9183 11.0229 17.5809 10.7647 17.2436 11.1681C17.1472 11.2811 16.9223 11.4425 16.6974 11.4425C16.4564 11.4425 16.2476 11.2811 16.1512 11.1681C15.7978 10.7647 15.4765 11.0229 15.1392 11.1681C14.7858 11.2973 14.4966 11.3457 14.2557 11.1359C14.0308 10.9261 13.9183 10.8615 13.6774 10.9099V11.1036C13.6774 11.3779 13.6934 11.62 13.7256 11.8621C13.9023 11.8621 14.0308 11.846 14.2878 12.0558C14.5448 12.2656 14.9786 12.1526 15.1874 12.0558C15.4123 11.959 15.6693 11.7653 16.0227 11.9751C16.1191 12.0235 16.4886 12.2333 16.6974 12.2333H16.6974Z" fill="#0B50A0"/>
<path d="M16.6974 13.7728C16.8902 13.7728 17.2757 13.5629 17.3721 13.5145C17.7255 13.3047 17.9825 13.4984 18.1914 13.5952C18.4163 13.6921 18.8339 13.805 19.0909 13.5952C19.348 13.3854 19.4926 13.4016 19.6693 13.4016C19.7014 13.1595 19.7014 12.9174 19.7014 12.643V12.4493C19.4765 12.4009 19.364 12.4655 19.1231 12.6753C18.8821 12.8851 18.609 12.8367 18.2556 12.7076C17.9183 12.5623 17.5809 12.3041 17.2436 12.7076C17.1472 12.8205 16.9223 12.9819 16.6974 12.9819C16.4564 12.9819 16.2476 12.8205 16.1512 12.7076C15.7978 12.3041 15.4765 12.5623 15.1392 12.7076C14.7858 12.8367 14.4966 12.8851 14.2557 12.6753C14.0308 12.4655 13.9183 12.4009 13.6774 12.4493V12.643C13.6774 12.9174 13.6934 13.1595 13.7256 13.4016C13.9023 13.4016 14.0308 13.3854 14.2878 13.5952C14.5448 13.805 14.9786 13.6921 15.1874 13.5952C15.4123 13.4984 15.6693 13.3047 16.0227 13.5145C16.1191 13.5629 16.4886 13.7728 16.6974 13.7728H16.6974Z" fill="#0B50A0"/>
<path d="M16.6974 15.3122C16.8902 15.3122 17.2757 15.1024 17.3721 15.054C17.7255 14.8441 17.9825 15.0378 18.1914 15.1347C18.4163 15.2315 18.8339 15.3445 19.0909 15.1347C19.348 14.9248 19.4926 14.941 19.6693 14.941C19.7014 14.6989 19.7014 14.4568 19.7014 14.1824V13.9888C19.4765 13.9404 19.364 14.0049 19.1231 14.2147C18.8821 14.4245 18.609 14.3761 18.2556 14.247C17.9183 14.1017 17.5809 13.8435 17.2436 14.247C17.1472 14.36 16.9223 14.5214 16.6974 14.5214C16.4564 14.5214 16.2476 14.36 16.1512 14.247C15.7978 13.8435 15.4765 14.1017 15.1392 14.247C14.7858 14.3761 14.4966 14.4245 14.2557 14.2147C14.0308 14.0049 13.9183 13.9404 13.6774 13.9888V14.1824C13.6774 14.4568 13.6934 14.6989 13.7256 14.941C13.9023 14.941 14.0308 14.9248 14.2878 15.1347C14.5448 15.3445 14.9786 15.2315 15.1874 15.1347C15.4123 15.0378 15.6693 14.8441 16.0227 15.054C16.1191 15.1024 16.4886 15.3122 16.6974 15.3122H16.6974Z" fill="#0B50A0"/>
<path d="M17.0791 13.2671L17.0459 13.2496L17.0137 13.2687L16.7348 13.434L16.8168 13.0881L16.8258 13.05L16.7971 13.0235L16.5257 12.7727H16.8732H16.9199L16.9361 12.7289L17.0521 12.4136L17.1897 12.7323L17.2072 12.7727H17.2512H17.5377L17.2973 13.0266L17.2697 13.0558L17.2824 13.0939L17.3964 13.4347L17.0791 13.2671Z" fill="#059334" stroke="#FFD100" stroke-width="0.133867"/>
<path d="M15.7405 11.9285L15.7073 11.911L15.6751 11.9301L15.3962 12.0954L15.4782 11.7495L15.4872 11.7114L15.4585 11.6849L15.1871 11.4341H15.5346H15.5813L15.5974 11.3903L15.7135 11.075L15.8511 11.3937L15.8685 11.4341H15.9125H16.1991L15.9587 11.688L15.9311 11.7172L15.9438 11.7553L16.0578 12.0961L15.7405 11.9285Z" fill="#059334" stroke="#FFD100" stroke-width="0.133867"/>
<path d="M18.4178 11.9285L18.3847 11.911L18.3524 11.9301L18.0735 12.0954L18.1556 11.7495L18.1646 11.7114L18.1359 11.6849L17.8644 11.4341H18.212H18.2587L18.2748 11.3903L18.3909 11.075L18.5285 11.3937L18.5459 11.4341H18.5899H18.8765L18.636 11.688L18.6084 11.7172L18.6212 11.7553L18.7352 12.0961L18.4178 11.9285Z" fill="#059334" stroke="#FFD100" stroke-width="0.133867"/>
</g>
</g>
<path d="M13.9029 14.6658C13.9644 14.7974 14.405 14.9702 14.9174 14.7481C15.2659 14.5918 15.4913 14.3697 15.7066 13.975C15.768 13.8763 15.7988 13.7529 15.6553 13.6789C15.5426 13.6131 15.3581 13.539 15.2761 13.4732C15.2351 13.4403 15.1941 13.4157 15.1634 13.391C15.1839 13.4074 15.2044 13.4239 15.2249 13.4486C15.4298 13.646 15.2146 13.9338 14.9892 14.1066C14.8252 14.2299 14.528 14.5342 14.0976 14.2464C14.0053 14.1806 13.7901 14.452 13.9029 14.6658L13.9029 14.6658Z" fill="#FFD100"/>
<path d="M20.1338 14.6658C20.062 14.7974 19.6214 14.9702 19.1192 14.7481C18.7708 14.5918 18.5453 14.3697 18.3198 13.975C18.2686 13.8763 18.2379 13.7529 18.3813 13.6789C18.4941 13.6131 18.6785 13.539 18.7605 13.4732C18.8015 13.4403 18.8322 13.4157 18.8732 13.391C18.8527 13.4074 18.8322 13.4239 18.8118 13.4486C18.6068 13.646 18.822 13.9338 19.0372 14.1066C19.2012 14.2299 19.5086 14.5342 19.9391 14.2464C20.0313 14.1806 20.2363 14.452 20.1338 14.6658L20.1338 14.6658Z" fill="#FFD100"/>
<path d="M17.0184 15.3733C17.8383 15.3733 19.0988 15.0772 19.7752 14.0409C19.8879 13.8681 19.7752 13.7777 19.6419 13.7201C19.4985 13.6707 19.3242 13.5556 19.232 13.4816C19.396 13.6132 19.3652 13.7036 19.2525 13.8517C18.7298 14.5508 18.0125 14.9045 17.0184 14.9045C16.0243 14.9045 15.307 14.5508 14.7843 13.8517C14.6716 13.7036 14.6408 13.6132 14.7945 13.4816C14.7126 13.5556 14.5281 13.6707 14.3846 13.7201C14.2514 13.7777 14.1387 13.8681 14.2514 14.0409C14.9278 15.0772 16.1986 15.3733 17.0184 15.3733H17.0184Z" fill="#FFD100"/>
<path d="M15.1224 13.9833C15.1019 13.9011 14.9687 13.934 14.9277 14.0327C14.8765 13.9751 14.8252 13.9175 14.7842 13.8517C14.6612 13.7037 14.6407 13.605 14.815 13.4651C14.897 13.3993 15.0609 13.3253 15.1737 13.4076C15.4094 13.5638 15.2864 13.8188 15.1224 13.9833L15.1224 13.9833Z" fill="#F50100"/>
<path d="M18.904 13.9833C18.9245 13.9011 19.068 13.934 19.109 14.0327C19.1602 13.9751 19.2115 13.9175 19.2525 13.8517C19.3754 13.7037 19.3959 13.605 19.2115 13.4651C19.1397 13.3993 18.9758 13.3253 18.8528 13.4076C18.6273 13.5638 18.7401 13.8188 18.904 13.9833L18.904 13.9833Z" fill="#F50100"/>
<path fill-rule="evenodd" clip-rule="evenodd" d="M18.0268 6.48346C18.0254 6.44864 18.0229 6.4143 18.0192 6.38052C18.2777 5.9762 18.6552 5.70404 18.8661 5.55196C18.9622 5.4827 19.0237 5.43835 19.0237 5.41777C19.0237 5.35626 18.4581 5.53506 17.9154 5.98631L17.9125 5.97995C18.0384 5.6495 18.3608 5.34515 18.5319 5.18366L18.5319 5.18366L18.5319 5.18366C18.6015 5.11801 18.646 5.07597 18.6422 5.06539C18.6303 5.03278 18.1499 5.31943 17.7613 5.74185C17.7109 5.68484 17.655 5.63827 17.5949 5.60428L17.8942 5.20528H16.8902L17.1711 5.57989C17.0908 5.615 17.0167 5.67209 16.9519 5.74653C16.5626 5.32156 16.0787 5.0327 16.0668 5.06542C16.0629 5.07601 16.1075 5.11805 16.177 5.1837L16.177 5.1837L16.177 5.1837C16.3499 5.34684 16.6772 5.65578 16.8003 5.99014C16.8001 5.99057 16.7999 5.991 16.7997 5.99143C16.2552 5.53643 15.6853 5.35607 15.6853 5.4178C15.6853 5.43839 15.7468 5.48274 15.8429 5.552L15.8429 5.552C16.0557 5.70548 16.4383 5.9813 16.697 6.39186C16.6937 6.42442 16.6914 6.45749 16.6903 6.491C16.4542 6.27048 16.2208 6.18376 16.2208 6.21574C16.2208 6.227 16.2489 6.25127 16.2928 6.28917C16.3987 6.38055 16.5963 6.55115 16.713 6.80973C16.7907 7.23524 17.0503 7.54795 17.3587 7.54795C17.6738 7.54795 17.938 7.22131 18.0092 6.78145C18.1271 6.53864 18.3142 6.37715 18.4161 6.28914C18.4601 6.25124 18.4882 6.22697 18.4882 6.21571C18.4882 6.18409 18.2601 6.26848 18.0268 6.48346Z" fill="#FFD100"/>
<path d="M15.9692 7.12255C15.8887 7.01259 15.6701 6.96372 15.578 7.06146C15.5435 7.08589 15.4975 7.08589 15.463 7.09811C15.4055 7.09811 15.332 7.12888 15.355 7.25105C15.417 7.25105 15.417 7.28137 15.4515 7.28137C15.4745 7.26916 15.5343 7.49327 15.6494 7.48105C15.7759 7.48105 15.8887 7.53794 15.9117 7.56238C15.9462 7.59903 15.9922 7.69677 15.9347 7.74564C15.8541 7.81895 15.7966 7.98999 15.9347 8.12439C16.0842 8.24656 16.4639 8.42983 16.8896 8.07552C17.3037 7.73342 17.948 7.92891 17.994 8.05108C18.0515 8.17326 18.0745 8.24656 18.086 8.30765C18.0976 8.35652 18.4082 8.42983 18.4542 8.46648C18.5117 8.50313 18.5922 8.49092 18.5692 8.38096C18.5232 8.03887 18.3276 7.99 18.3046 7.83117C18.4197 7.84338 18.5002 7.84338 18.5462 7.79451C18.5807 7.74564 18.6268 7.66012 18.6728 7.63569C18.7073 7.61125 18.7073 7.58681 18.6613 7.59903C18.6038 7.61125 18.5692 7.63569 18.4657 7.62347C18.2207 7.59519 18.2813 6.66841 17.4713 6.48813C16.9707 6.37672 16.3465 7.14071 16.1753 7.21634C16.1716 7.21799 16.1681 7.21931 16.1648 7.22029C16.0842 7.22029 16.0152 7.18363 15.9692 7.12255Z" fill="#059334"/>
</g>
</g>
</g>
<defs>
<clipPath id="clip0_58_2909">
<rect width="21.4187" height="16.064" fill="white" transform="translate(0 0.886719)"/>
</clipPath>
<clipPath id="clip1_58_2909">
<rect width="21.4187" height="16.064" fill="white" transform="translate(0.290649 0.854736)"/>
</clipPath>
<clipPath id="clip2_58_2909">
<rect width="5.35468" height="6.69335" fill="white" transform="translate(14.3467 8.21729)"/>
</clipPath>
</defs>
</svg>
