<svg width="23" height="17" viewBox="0 0 23 17" fill="none" xmlns="http://www.w3.org/2000/svg">
<g clip-path="url(#clip0_58_2779)">
<rect width="21.4187" height="16.064" transform="translate(0.837402 0.886719)" fill="white"/>
<path fill-rule="evenodd" clip-rule="evenodd" d="M1.12805 0.854736V16.9188H22.5468V0.854736H1.12805Z" fill="#4EC7EE"/>
<mask id="mask0_58_2779" style="mask-type:luminance" maskUnits="userSpaceOnUse" x="1" y="0" width="22" height="17">
<path fill-rule="evenodd" clip-rule="evenodd" d="M1.12805 0.854736V16.9188H22.5468V0.854736H1.12805Z" fill="white"/>
</mask>
<g mask="url(#mask0_58_2779)">
<path d="M3.86559 16.4083C3.82312 16.7229 4.02462 16.9469 4.36265 17.0911C4.81707 17.285 5.2756 17.1035 5.69737 16.6361L5.15078 16.1428C4.96343 16.3504 4.82804 16.4304 4.72353 16.4291C4.92816 16.2829 5.19035 16.1024 5.50971 15.8879L5.66299 15.6659C5.78611 15.1378 5.40329 14.8516 4.81947 14.8516C4.4756 14.8516 4.20067 14.9197 4.02624 15.0659C3.73968 15.3062 3.78874 15.6898 4.0903 15.8893C4.11422 15.9051 4.1385 15.9194 4.16311 15.9321C3.99394 16.0749 3.89069 16.2224 3.86559 16.4083Z" fill="#FFE402"/>
<path d="M4.18347 15.912C4.18347 15.912 4.26699 15.7269 4.22523 15.6306" stroke="#FFE402" stroke-width="0.736269"/>
<path d="M6.8639 16.4083C6.90638 16.7229 6.70487 16.9469 6.36684 17.0911C5.91242 17.285 5.4539 17.1035 5.03212 16.6361L5.57871 16.1428C5.76606 16.3504 5.90145 16.4304 6.00597 16.4291C5.80133 16.2829 5.53914 16.1024 5.21978 15.8879L5.0665 15.6659C4.94338 15.1378 5.3262 14.8516 5.91002 14.8516C6.2539 14.8516 6.52882 14.9197 6.70325 15.0659C6.98981 15.3062 6.94075 15.6898 6.63919 15.8893C6.61527 15.9051 6.59099 15.9194 6.56638 15.9321C6.73555 16.0749 6.8388 16.2224 6.8639 16.4083Z" fill="#FFE402"/>
<path d="M6.88159 15.7605L6.21047 16.0634C6.11627 15.8546 6.08812 15.6649 6.16652 15.4841L6.84203 15.777C6.86474 15.7246 6.86443 15.7225 6.88159 15.7605Z" fill="#FFE402"/>
<path d="M3.86559 1.36554C3.82312 1.05095 4.02462 0.826876 4.36265 0.682664C4.81707 0.488796 5.2756 0.670335 5.69737 1.13767L5.15078 1.63097C4.96343 1.42337 4.82804 1.34338 4.72353 1.34474C4.92816 1.49094 5.19035 1.67142 5.50971 1.88589L5.66299 2.10793C5.78611 2.63603 5.40329 2.92218 4.81947 2.92218C4.4756 2.92218 4.20067 2.85414 4.02624 2.70789C3.73968 2.46761 3.78874 2.08405 4.0903 1.8845C4.11422 1.86867 4.1385 1.85443 4.16311 1.84174C3.99394 1.69887 3.89069 1.55138 3.86559 1.36554Z" fill="#FFE402"/>
<path d="M6.8639 1.36554C6.90638 1.05095 6.70487 0.826876 6.36684 0.682664C5.91242 0.488796 5.4539 0.670335 5.03212 1.13767L5.57871 1.63097C5.76606 1.42337 5.90145 1.34338 6.00597 1.34474C5.80133 1.49094 5.53914 1.67142 5.21978 1.88589L5.0665 2.10793C4.94338 2.63603 5.3262 2.92218 5.91002 2.92218C6.2539 2.92218 6.52882 2.85414 6.70325 2.70789C6.98981 2.46761 6.94075 2.08405 6.63919 1.8845C6.61527 1.86867 6.59099 1.85443 6.56638 1.84174C6.73555 1.69887 6.8388 1.55138 6.8639 1.36554Z" fill="#FFE402"/>
<path fill-rule="evenodd" clip-rule="evenodd" d="M4.53744 14.2838C4.11508 14.296 3.85228 14.3831 3.85228 14.7902C3.85228 15.2392 4.28845 15.3796 4.75249 15.3796C5.17285 15.3796 5.64641 15.1187 5.64641 14.6515C5.64641 14.3673 5.285 13.7937 4.37495 12.5502C4.34341 12.5209 4.32604 12.5059 4.31213 12.5058C4.36732 12.4751 4.46451 12.4391 4.59275 12.4391C4.63728 12.4391 4.69514 12.4616 4.75249 12.4905V12.9781H5.71598V12.61C5.71598 12.1941 5.10116 11.7028 4.59275 11.7028C4.14875 11.7028 3.7923 11.914 3.61175 12.2179C3.43332 12.5182 3.56976 12.8064 3.826 13.0357C4.20731 13.5616 4.50338 13.9969 4.68905 14.283C4.62083 14.2824 4.58338 14.2825 4.53744 14.2838ZM4.58267 14.6233C4.56931 14.6203 4.55645 14.6171 4.54444 14.6136C4.55339 14.623 4.58853 14.6649 4.58853 14.7902C4.58853 14.8585 4.58524 14.9065 4.58083 14.9403C4.45661 14.8307 4.42188 14.6397 4.51278 14.4926L4.51503 14.489L4.58267 14.6233ZM4.54446 14.6136L4.5317 14.6097C4.53307 14.6101 4.53487 14.611 4.53698 14.6123L4.54446 14.6136ZM4.91013 14.6515C4.91013 14.6389 4.90586 14.6314 4.89847 14.6274L4.90276 14.6321C4.90765 14.6422 4.91013 14.6487 4.91013 14.6515ZM4.515 14.489L4.50114 14.4614C4.50298 14.4605 4.50482 14.4596 4.50663 14.4586C4.52803 14.4476 4.54562 14.4385 4.515 14.489Z" fill="#FFE402"/>
<path fill-rule="evenodd" clip-rule="evenodd" d="M6.19193 14.2838C6.61429 14.296 6.87709 14.3831 6.87709 14.7902C6.87709 15.2392 6.44092 15.3796 5.97688 15.3796C5.55652 15.3796 5.08296 15.1187 5.08296 14.6515C5.08296 14.3673 5.44437 13.7937 6.35442 12.5502C6.38596 12.5209 6.40333 12.5059 6.41724 12.5058C6.36205 12.4751 6.26486 12.4391 6.13662 12.4391C6.09209 12.4391 6.03423 12.4616 5.97688 12.4905V12.9781H5.01339V12.61C5.01339 12.1941 5.62821 11.7028 6.13662 11.7028C6.58062 11.7028 6.93707 11.914 7.11762 12.2179C7.29605 12.5182 7.15961 12.8064 6.90337 13.0357C6.52206 13.5616 6.22599 13.9969 6.04032 14.283C6.10854 14.2824 6.14599 14.2825 6.19193 14.2838ZM6.14667 14.6233C6.16003 14.6203 6.17288 14.6171 6.18489 14.6136C6.17595 14.623 6.14081 14.6649 6.14081 14.7902C6.14081 14.8585 6.1441 14.9065 6.14851 14.9403C6.27273 14.8307 6.30745 14.6397 6.21655 14.4926L6.2143 14.489L6.14667 14.6233ZM6.18487 14.6136L6.19764 14.6097C6.19626 14.6101 6.19446 14.611 6.19235 14.6123L6.18487 14.6136ZM5.8192 14.6515C5.8192 14.6389 5.82347 14.6314 5.83086 14.6274L5.82658 14.6321C5.82168 14.6422 5.8192 14.6487 5.8192 14.6515ZM6.21433 14.489L6.2282 14.4614C6.22636 14.4605 6.22452 14.4596 6.2227 14.4586C6.2013 14.4476 6.18371 14.4385 6.21433 14.489Z" fill="#FFE402"/>
<path fill-rule="evenodd" clip-rule="evenodd" d="M4.53744 9.79371C4.11508 9.78156 3.85228 9.69443 3.85228 9.28729C3.85228 8.83834 4.28845 8.69788 4.75249 8.69788C5.17285 8.69788 5.64641 8.95877 5.64641 9.42601C5.64641 9.71025 5.285 10.2838 4.37495 11.5273C4.34341 11.5566 4.32604 11.5716 4.31213 11.5717C4.36732 11.6024 4.46451 11.6384 4.59275 11.6384C4.63728 11.6384 4.69514 11.6159 4.75249 11.5871V11.0994H5.71598V11.4675C5.71598 11.8835 5.10116 12.3747 4.59275 12.3747C4.14875 12.3747 3.7923 12.1635 3.61175 11.8596C3.43332 11.5593 3.56976 11.2711 3.826 11.0418C4.20731 10.5159 4.50338 10.0806 4.68905 9.79456C4.62083 9.79512 4.58338 9.79504 4.53744 9.79371ZM4.58267 9.45422C4.56931 9.45719 4.55645 9.46044 4.54444 9.46393C4.55339 9.45455 4.58853 9.41266 4.58853 9.28728C4.58853 9.21901 4.58524 9.17099 4.58083 9.13722C4.45661 9.2468 4.42188 9.43784 4.51278 9.58489L4.51503 9.58856L4.58267 9.45422ZM4.54446 9.46396L4.5317 9.46786C4.53307 9.46742 4.53487 9.46657 4.53698 9.46521L4.54446 9.46396ZM4.91013 9.42605C4.91013 9.43862 4.90586 9.44609 4.89847 9.4501L4.90276 9.4454C4.90765 9.43534 4.91013 9.42883 4.91013 9.42605ZM4.515 9.58856L4.50114 9.6161C4.50298 9.61702 4.50482 9.61797 4.50663 9.6189C4.52803 9.62992 4.54562 9.63898 4.515 9.58856Z" fill="#FFE402"/>
<path fill-rule="evenodd" clip-rule="evenodd" d="M6.19193 9.79371C6.61429 9.78156 6.87709 9.69443 6.87709 9.28729C6.87709 8.83834 6.44092 8.69788 5.97688 8.69788C5.55652 8.69788 5.08296 8.95877 5.08296 9.42601C5.08296 9.71025 5.44437 10.2838 6.35442 11.5273C6.38596 11.5566 6.40333 11.5716 6.41724 11.5717C6.36205 11.6024 6.26486 11.6384 6.13662 11.6384C6.09209 11.6384 6.03423 11.6159 5.97688 11.5871V11.0994H5.01339V11.4675C5.01339 11.8835 5.62821 12.3747 6.13662 12.3747C6.58062 12.3747 6.93707 12.1635 7.11762 11.8596C7.29605 11.5593 7.15961 11.2711 6.90337 11.0418C6.52206 10.5159 6.22599 10.0806 6.04032 9.79456C6.10854 9.79512 6.14599 9.79504 6.19193 9.79371ZM6.14667 9.45422C6.16003 9.45719 6.17288 9.46044 6.18489 9.46393C6.17595 9.45455 6.14081 9.41266 6.14081 9.28728C6.14081 9.21901 6.1441 9.17099 6.14851 9.13722C6.27273 9.2468 6.30745 9.43784 6.21655 9.58489L6.2143 9.58856L6.14667 9.45422ZM6.18487 9.46396L6.19764 9.46786C6.19626 9.46742 6.19446 9.46657 6.19235 9.46521L6.18487 9.46396ZM5.8192 9.42605C5.8192 9.43862 5.82347 9.44609 5.83086 9.4501L5.82658 9.4454C5.82168 9.43534 5.8192 9.42883 5.8192 9.42605ZM6.21433 9.58856L6.2282 9.6161C6.22636 9.61702 6.22452 9.61797 6.2227 9.6189C6.2013 9.62992 6.18371 9.63898 6.21433 9.58856Z" fill="#FFE402"/>
<path fill-rule="evenodd" clip-rule="evenodd" d="M4.53744 7.98009C4.11508 7.99225 3.85228 8.07937 3.85228 8.48651C3.85228 8.93547 4.28845 9.07593 4.75249 9.07593C5.17285 9.07593 5.64641 8.81503 5.64641 8.3478C5.64641 8.06355 5.285 7.48996 4.37495 6.24654C4.34341 6.21716 4.32604 6.20219 4.31213 6.20209C4.36732 6.17136 4.46451 6.13538 4.59275 6.13538C4.63728 6.13538 4.69514 6.1579 4.75249 6.18674V6.6744H5.71598V6.30626C5.71598 5.89035 5.10116 5.39911 4.59275 5.39911C4.14875 5.39911 3.7923 5.61032 3.61175 5.91418C3.43332 6.21447 3.56976 6.50273 3.826 6.73201C4.20731 7.25791 4.50338 7.69323 4.68905 7.97925C4.62083 7.97868 4.58338 7.97877 4.53744 7.98009ZM4.58267 8.31957C4.56931 8.31659 4.55645 8.31335 4.54444 8.30986C4.55339 8.31924 4.58853 8.36113 4.58853 8.48651C4.58853 8.55478 4.58524 8.6028 4.58083 8.63657C4.45661 8.52698 4.42188 8.33595 4.51278 8.1889L4.51503 8.18523L4.58267 8.31957ZM4.54446 8.30983L4.5317 8.30592C4.53307 8.30637 4.53487 8.30722 4.53698 8.30858L4.54446 8.30983ZM4.91013 8.34774C4.91013 8.33517 4.90586 8.32769 4.89847 8.32369L4.90276 8.32838C4.90765 8.33845 4.91013 8.34495 4.91013 8.34774ZM4.515 8.18522L4.50114 8.15769C4.50298 8.15676 4.50482 8.15582 4.50663 8.15488C4.52803 8.14386 4.54562 8.13481 4.515 8.18522Z" fill="#FFE402"/>
<path fill-rule="evenodd" clip-rule="evenodd" d="M6.19193 7.98009C6.61429 7.99225 6.87709 8.07937 6.87709 8.48651C6.87709 8.93547 6.44092 9.07593 5.97688 9.07593C5.55652 9.07593 5.08296 8.81503 5.08296 8.3478C5.08296 8.06355 5.44437 7.48996 6.35442 6.24654C6.38596 6.21716 6.40333 6.20219 6.41724 6.20209C6.36205 6.17136 6.26486 6.13538 6.13662 6.13538C6.09209 6.13538 6.03423 6.1579 5.97688 6.18674V6.6744H5.01339V6.30626C5.01339 5.89035 5.62821 5.39911 6.13662 5.39911C6.58062 5.39911 6.93707 5.61032 7.11762 5.91418C7.29605 6.21447 7.15961 6.50273 6.90337 6.73201C6.52206 7.25791 6.22599 7.69323 6.04032 7.97925C6.10854 7.97868 6.14599 7.97877 6.19193 7.98009ZM6.14667 8.31957C6.16003 8.31659 6.17288 8.31335 6.18489 8.30986C6.17595 8.31924 6.14081 8.36113 6.14081 8.48651C6.14081 8.55478 6.1441 8.6028 6.14851 8.63657C6.27273 8.52698 6.30745 8.33595 6.21655 8.1889L6.2143 8.18523L6.14667 8.31957ZM6.18487 8.30983L6.19764 8.30592C6.19626 8.30637 6.19446 8.30722 6.19235 8.30858L6.18487 8.30983ZM5.8192 8.34774C5.8192 8.33517 5.82347 8.32769 5.83086 8.32369L5.82658 8.32838C5.82168 8.33845 5.8192 8.34495 5.8192 8.34774ZM6.21433 8.18522L6.2282 8.15769C6.22636 8.15676 6.22452 8.15582 6.2227 8.15488C6.2013 8.14386 6.18371 8.13481 6.21433 8.18522Z" fill="#FFE402"/>
<path fill-rule="evenodd" clip-rule="evenodd" d="M4.53744 3.49C4.11508 3.47785 3.85228 3.39072 3.85228 2.98358C3.85228 2.53462 4.28845 2.39417 4.75249 2.39417C5.17285 2.39417 5.64641 2.65506 5.64641 3.1223C5.64641 3.40654 5.285 3.98014 4.37495 5.22356C4.34341 5.25293 4.32604 5.2679 4.31213 5.268C4.36732 5.29873 4.46451 5.33472 4.59275 5.33472C4.63728 5.33472 4.69514 5.3122 4.75249 5.28335V4.79569H5.71598V5.16383C5.71598 5.57975 5.10116 6.07099 4.59275 6.07099C4.14875 6.07099 3.7923 5.85977 3.61175 5.55591C3.43332 5.25562 3.56976 4.96736 3.826 4.73808C4.20731 4.21218 4.50338 3.77687 4.68905 3.49084C4.62083 3.49141 4.58338 3.49132 4.53744 3.49ZM4.58267 3.15048C4.56931 3.15346 4.55645 3.15671 4.54444 3.16019C4.55339 3.15082 4.58853 3.10893 4.58853 2.98354C4.58853 2.91528 4.58524 2.86725 4.58083 2.83348C4.45661 2.94307 4.42188 3.1341 4.51278 3.28115L4.51503 3.28482L4.58267 3.15048ZM4.54446 3.16023L4.5317 3.16413C4.53307 3.16368 4.53487 3.16284 4.53698 3.16147L4.54446 3.16023ZM4.91013 3.12232C4.91013 3.13488 4.90586 3.14236 4.89847 3.14636L4.90276 3.14167C4.90765 3.1316 4.91013 3.1251 4.91013 3.12232ZM4.515 3.28483L4.50114 3.31236C4.50298 3.31329 4.50482 3.31424 4.50663 3.31517C4.52803 3.32619 4.54562 3.33525 4.515 3.28483Z" fill="#FFE402"/>
<path fill-rule="evenodd" clip-rule="evenodd" d="M6.19193 3.49C6.61429 3.47785 6.87709 3.39072 6.87709 2.98358C6.87709 2.53462 6.44092 2.39417 5.97688 2.39417C5.55652 2.39417 5.08296 2.65506 5.08296 3.1223C5.08296 3.40654 5.44437 3.98014 6.35442 5.22356C6.38596 5.25293 6.40333 5.2679 6.41724 5.268C6.36205 5.29873 6.26486 5.33472 6.13662 5.33472C6.09209 5.33472 6.03423 5.3122 5.97688 5.28335V4.79569H5.01339V5.16383C5.01339 5.57975 5.62821 6.07099 6.13662 6.07099C6.58062 6.07099 6.93707 5.85977 7.11762 5.55591C7.29605 5.25562 7.15961 4.96736 6.90337 4.73808C6.52206 4.21218 6.22599 3.77687 6.04032 3.49084C6.10854 3.49141 6.14599 3.49132 6.19193 3.49ZM6.14667 3.15048C6.16003 3.15346 6.17288 3.15671 6.18489 3.16019C6.17595 3.15082 6.14081 3.10893 6.14081 2.98354C6.14081 2.91528 6.1441 2.86725 6.14851 2.83348C6.27273 2.94307 6.30745 3.1341 6.21655 3.28115L6.2143 3.28482L6.14667 3.15048ZM6.18487 3.16023L6.19764 3.16413C6.19626 3.16368 6.19446 3.16284 6.19235 3.16147L6.18487 3.16023ZM5.8192 3.12232C5.8192 3.13488 5.82347 3.14236 5.83086 3.14636L5.82658 3.14167C5.82168 3.1316 5.8192 3.1251 5.8192 3.12232ZM6.21433 3.28483L6.2282 3.31236C6.22636 3.31329 6.22452 3.31424 6.2227 3.31517C6.2013 3.32619 6.18371 3.33525 6.21433 3.28483Z" fill="#FFE402"/>
<path fill-rule="evenodd" clip-rule="evenodd" d="M13.8365 2.71875L14.1106 3.7413C14.1106 3.7413 14.1138 3.97362 13.8513 3.97362C13.5889 3.97362 13.5756 3.7413 13.5756 3.7413L13.8365 2.71875ZM16.1547 6.62447C16.1547 7.95526 15.1389 9.03408 13.8857 9.03408C12.6325 9.03408 11.6167 7.95526 11.6167 6.62447C11.6167 5.29369 12.6325 4.21487 13.8857 4.21487C15.1389 4.21487 16.1547 5.29369 16.1547 6.62447ZM14.9037 3.94747L14.9406 2.88947L14.3922 3.79107C14.3922 3.79107 14.3369 4.01711 14.5879 4.09384C14.8389 4.17057 14.9037 3.94747 14.9037 3.94747ZM15.9475 3.39048L15.6029 4.39146C15.6029 4.39146 15.4756 4.58587 15.258 4.4391C15.0405 4.29234 15.1594 4.09234 15.1594 4.09234L15.9475 3.39048ZM16.1457 5.03387L16.7679 4.17738L15.8091 4.61816C15.8091 4.61816 15.6369 4.77465 15.802 4.97862C15.9672 5.18258 16.1457 5.03387 16.1457 5.03387ZM17.3332 5.19048L16.4768 5.81279C16.4768 5.81279 16.2611 5.89905 16.167 5.65403C16.073 5.40901 16.2851 5.3134 16.2851 5.3134L17.3332 5.19048ZM16.5814 6.66612L17.5824 6.3214L16.5441 6.13251C16.5441 6.13251 16.3133 6.16191 16.3316 6.42373C16.3499 6.68554 16.5814 6.66612 16.5814 6.66612ZM17.5003 7.47843L16.4423 7.51544C16.4423 7.51544 16.2152 7.46632 16.2742 7.2106C16.3333 6.95487 16.5626 6.99424 16.5626 6.99424L17.5003 7.47843ZM16.0714 8.28515L17.094 8.55908L16.3389 7.8219C16.3389 7.8219 16.1311 7.7172 15.9999 7.94449C15.8686 8.17178 16.0714 8.28515 16.0714 8.28515ZM16.3997 9.46753L15.5019 8.90659C15.5019 8.90659 15.3411 8.73888 15.5331 8.55989C15.725 8.3809 15.8931 8.54178 15.8931 8.54178L16.3997 9.46753ZM14.7844 9.32439L15.4789 10.1233L15.2651 9.0899C15.2651 9.0899 15.1514 8.8869 14.9155 9.00195C14.6796 9.117 14.7844 9.32439 14.7844 9.32439ZM14.4132 10.4683L13.9825 9.50118C13.9825 9.50118 13.943 9.27223 14.2022 9.23117C14.4614 9.19011 14.5109 9.4175 14.5109 9.4175L14.4132 10.4683ZM13.1753 9.41749L13.286 10.4703L13.7037 9.50117C13.7037 9.50117 13.7269 9.26964 13.4677 9.22858C13.2085 9.18753 13.1753 9.41749 13.1753 9.41749ZM12.2191 10.1291L12.421 9.0899C12.421 9.0899 12.52 8.87969 12.7559 8.99474C12.9918 9.10979 12.9018 9.3244 12.9018 9.3244L12.2191 10.1291ZM11.793 8.54186L11.296 9.47662L12.1842 8.90668C12.1842 8.90668 12.333 8.72774 12.141 8.54875C11.9491 8.36976 11.793 8.54186 11.793 8.54186ZM10.5987 8.57054L11.3473 7.82192C11.3473 7.82192 11.5468 7.70297 11.6781 7.93026C11.8093 8.15755 11.6147 8.28517 11.6147 8.28517L10.5987 8.57054ZM11.1236 6.99431L10.1889 7.49137L11.2439 7.51552C11.2439 7.51552 11.4673 7.45036 11.4083 7.19464C11.3492 6.93891 11.1236 6.99431 11.1236 6.99431ZM10.1028 6.33458L11.142 6.13251C11.142 6.13251 11.3739 6.1455 11.3556 6.40732C11.3373 6.66913 11.1046 6.66613 11.1046 6.66613L10.1028 6.33458ZM11.401 5.3134L10.3482 5.20281L11.2093 5.81279C11.2093 5.81279 11.431 5.88369 11.525 5.63867C11.6191 5.39365 11.401 5.3134 11.401 5.3134ZM10.9099 4.18765L11.8771 4.61817C11.8771 4.61817 12.0596 4.76187 11.8945 4.96584C11.7293 5.1698 11.5404 5.03388 11.5404 5.03388L10.9099 4.18765ZM12.5267 4.09243L11.7277 3.39795L12.0832 4.39155C12.0832 4.39155 12.2241 4.57675 12.4417 4.42999C12.6593 4.28322 12.5267 4.09243 12.5267 4.09243ZM12.7329 2.8934L13.2939 3.79114C13.2939 3.79114 13.3649 4.01237 13.1139 4.0891C12.8629 4.16584 12.7824 3.94754 12.7824 3.94754L12.7329 2.8934Z" fill="#FFE402"/>
<path fill-rule="evenodd" clip-rule="evenodd" d="M9.3079 7.99785C9.29874 7.96266 9.29036 7.92831 9.28277 7.8948L9.32964 7.98917L9.3079 7.99785ZM9.37213 8.21877C9.3476 8.14169 9.32619 8.06808 9.3079 7.99785L9.02109 8.11237L9.06357 8.21877H9.03263L9.02067 8.22471C9.0035 8.13731 8.99486 8.05447 8.99486 7.97588V7.3152L9.28277 7.8948C9.24629 7.73379 9.22797 7.59214 9.22797 7.46867V6.64491L9.56125 7.47963L9.2448 7.57867L9.36911 7.97586H9.36298L9.32964 7.98917L9.4476 8.22665L9.56142 8.59029C9.45495 8.39484 9.40076 8.26511 9.40076 8.21877H9.37213ZM9.73833 9.14691C9.57924 8.79373 9.45702 8.48551 9.37213 8.21877H9.06357L9.37712 9.00407L9.26099 8.88018C9.13944 8.63667 9.05891 8.41937 9.02067 8.22471L8.76542 8.3515L8.71461 8.29729V8.37674L8.70293 8.38254L8.71461 8.40606V8.4959C8.68114 8.39142 8.66452 8.29983 8.66452 8.21881V6.65018L8.99486 7.3152V6.06108L9.22797 6.64491V5.05994L10.1589 8.03424L10.0934 8.05556C10.0071 7.79759 9.96426 7.60022 9.96426 7.46871H9.59613L9.56125 7.47963L9.82599 8.14267L9.76207 8.16349C9.74136 8.08997 9.73111 8.02721 9.73111 7.97586H9.36911L9.4476 8.22665L9.85877 9.05439L9.84172 9.06087C9.72566 8.87853 9.63204 8.71995 9.56142 8.59029L9.72284 9.10607L9.84172 9.06087L9.85825 9.08676L9.73833 9.14691ZM9.86598 9.09881L9.7385 9.14728L9.73833 9.14691L9.58371 9.22446L9.37712 9.00407L9.47554 9.25055C9.46368 9.24074 9.45649 9.23395 9.45313 9.23064C9.38061 9.10813 9.31652 8.99142 9.26099 8.88018L8.76542 8.3515L8.71461 8.37674V8.40606L9.12305 9.22833H9.08271L9.07999 9.23089C8.89834 8.93088 8.77709 8.69093 8.71461 8.4959V9.0337L7.25232 7.99195L9.11459 10.2083C9.70972 10.9165 10.443 11.4608 11.3105 11.8389L9.62416 11.8031L11.3381 12.2869L10.4514 12.9394L11.9829 12.4688L12.4005 12.5867C12.9625 12.7453 13.2754 12.9045 13.2959 12.9528L13.3748 13.1392L13.5745 13.1725C14.0121 13.2452 14.8195 13.1318 15.8596 12.9013C16.213 12.8229 16.5677 12.7357 16.8422 12.6616C16.9572 12.6306 17.0472 12.6047 17.098 12.5881L17.1174 12.5815C17.124 12.5792 17.1305 12.5766 17.1455 12.5709L17.1576 12.5658C17.1661 12.5621 17.1742 12.5577 17.202 12.5426L17.2021 12.5426L17.2021 12.5426C17.2357 12.5379 17.2604 12.5346 17.2769 12.5211C17.3227 12.4839 17.3059 12.3697 17.2426 11.9389C16.9526 11.8612 16.9122 11.8504 16.9013 11.8637C16.8995 11.8659 16.8986 11.8687 16.8974 11.8719C16.7979 11.8925 16.6428 11.8902 16.436 11.8636C18.1668 11.0125 19.3037 10.1598 19.8484 9.28234L20.8447 7.67747L20.2411 8.1178L20.4586 7.41871L19.5984 7.97151C19.7092 7.82462 19.7948 7.6784 19.8553 7.53226L20.5032 5.96622L19.4807 6.92012L20.0354 5.09197L18.7193 6.85507L13.3315 10.8199L13.2474 10.8004C11.9211 10.4929 10.9897 9.55598 10.4354 7.94416L10.1589 8.03424L10.1625 8.04573L10.0973 8.06697L10.0934 8.05556L9.82599 8.14267L9.83046 8.15387L9.76539 8.17507L9.76207 8.16349L9.73544 8.17216C9.82499 8.46311 9.92272 8.73575 10.0286 8.98983L9.85877 9.05439L9.87153 9.08009L9.85825 9.08676L9.86598 9.09881ZM9.87847 9.09406L9.86598 9.09881L9.8923 9.13964L9.62832 9.27205L9.58371 9.22446L9.49732 9.26778C9.48878 9.2613 9.48156 9.25553 9.47554 9.25055L9.4849 9.27401L9.49732 9.26778C9.5124 9.27925 9.53157 9.29296 9.55544 9.3086L9.51295 9.32991C9.49241 9.2964 9.47247 9.26332 9.45313 9.23064L9.45085 9.22833H9.12305L9.19713 9.37745L9.14905 9.3432C9.12513 9.30485 9.10211 9.26742 9.07999 9.23089L9.04173 9.26674L8.71461 9.0337V9.22831C8.71461 9.57678 8.95981 9.84019 9.38099 10.0566L9.18287 10.2712L11.3857 11.8405L11.3105 11.8389C11.3826 11.8704 11.4557 11.9007 11.5297 11.9298L11.7209 12.0052L11.3381 12.2869L11.9829 12.4688L12.497 12.3109L14.3265 13.0317L13.7364 12.6113C13.8084 12.6107 13.8784 12.6098 13.9463 12.6086C13.9176 12.5558 13.881 12.5058 13.8363 12.4581C13.7821 12.4567 13.7349 12.4527 13.6953 12.4462L13.6751 12.5676L13.0587 12.1285C13.2946 12.0471 13.5237 11.9618 13.746 11.8725C14.6591 11.8627 15.2063 11.8138 15.2876 11.7535L15.4285 11.649L15.5984 11.6926C15.7621 11.7347 15.9128 11.7696 16.05 11.7977L16.1667 11.9938C16.258 11.9504 16.3478 11.907 16.436 11.8636C16.4141 11.8608 16.3917 11.8577 16.3687 11.8544L19.7526 9.38564L19.4694 9.12285C19.8277 8.93837 20.0612 8.69634 20.1581 8.38466L20.2411 8.1178L19.8764 8.38386L19.8067 8.27526L19.4551 8.16591C19.4227 8.27034 19.3168 8.37483 19.1292 8.47075C19.3173 8.30295 19.4738 8.13681 19.5984 7.97151L19.0671 8.31297L19.7662 7.66073L19.3299 7.35824C19.3679 7.27236 19.3996 7.18762 19.4249 7.10398L19.4807 6.92012L19.2343 7.14996L18.8679 6.9648L19.0374 6.62101L18.7193 6.85507L17.9662 7.86398L17.7098 7.64928C17.0219 9.04511 15.7839 10.1533 13.9832 10.971L13.3315 10.8199L13.1453 10.9569L13.1643 10.7909C11.9366 10.7909 11.0316 9.88056 10.4392 7.9556L10.1625 8.04573L10.4255 8.88611L10.1627 8.98601L10.1464 8.94506L10.4098 8.8449C10.2748 8.54511 10.1707 8.28477 10.0973 8.06697L9.83046 8.15387L10.1464 8.94506L10.1232 8.95385L10.1407 8.94512C9.94485 8.62567 9.82102 8.36546 9.76539 8.17507L9.7392 8.1836C9.83585 8.46465 9.94389 8.72905 10.0632 8.97666L10.0286 8.98983L10.0326 8.99932L9.87153 9.08009L9.87847 9.09406ZM10.0457 9.03049L9.87847 9.09406L9.89936 9.1361L9.8923 9.13964L9.91754 9.17844L9.67219 9.31885L9.62832 9.27205L9.55544 9.3086C9.57407 9.32081 9.59556 9.3342 9.62019 9.3486L9.36313 9.49571L9.19713 9.37745L9.27961 9.5435L9.36313 9.49571L9.40194 9.52336L9.30111 9.58106C9.24691 9.49806 9.19623 9.41884 9.14905 9.3432L9.04173 9.26674L8.81413 9.48009L9.28644 9.98396L9.55502 9.73219L9.59237 9.65902L10.7925 10.514L11.236 10.9871C10.6319 10.6696 10.1135 10.2525 9.67831 9.73458L9.38099 10.0566L9.38768 10.0601L11.2656 11.0187L11.236 10.9871C11.4162 11.0819 11.6041 11.1677 11.7996 11.2448L11.4753 11.8424L11.3857 11.8405L11.4511 11.8871L11.4753 11.8424L11.9289 11.8521L11.7209 12.0052L12.497 12.3109L12.5242 12.3025C12.7061 12.2467 12.8843 12.1886 13.0587 12.1285L12.925 12.0332L13.1421 11.8734C13.3581 11.8749 13.5597 11.8745 13.746 11.8725C14.0181 11.7633 14.2799 11.6482 14.5315 11.5272H15.889L16.05 11.7977C16.0808 11.804 16.111 11.81 16.1405 11.8156L16.2257 11.9587L16.3687 11.8544C16.298 11.844 16.2219 11.8311 16.1405 11.8156L15.9688 11.5272H16.382L15.9027 11.416L15.8507 11.3288C17.2748 10.6522 18.2818 9.98778 18.8708 9.34948C19.098 9.28623 19.298 9.21113 19.4694 9.12285L19.3464 9.00866L20.0057 8.58496L19.8764 8.38386L18.7652 9.19454L18.6263 8.87021C18.8135 8.73577 18.9812 8.60275 19.1292 8.47075C19.0241 8.52449 18.8933 8.57555 18.7354 8.6224L19.0671 8.31297L18.0595 8.96045C18.6875 8.38094 19.1121 7.85066 19.3299 7.35824L19.2855 7.32744L19.3677 7.21733L19.2343 7.14996L18.3872 7.94024L18.8679 6.9648L18.7204 6.89023C18.6303 7.18704 18.4067 7.53655 18.0473 7.93194L17.9662 7.86398L17.5122 8.47211L17.6254 8.57415L14.2761 11.0389L13.9832 10.971C13.7033 11.0981 13.4097 11.2182 13.1025 11.3313L13.1453 10.9569L12.5819 11.3715C11.5015 10.9852 10.6698 10.2018 10.0936 9.0387L10.1687 9.00101L10.1627 8.98601L10.0826 9.01646L10.0661 8.98251L10.1232 8.95385L10.0632 8.97666L10.0661 8.98251L10.0326 8.99932L10.0457 9.03049ZM10.057 9.05704L9.89936 9.1361L9.93904 9.216L9.70261 9.3513L9.67219 9.31885L9.62019 9.3486C9.63381 9.35657 9.64839 9.36484 9.66398 9.3734L9.40194 9.52336L9.59237 9.65902L9.7224 9.40431C9.70152 9.39365 9.68207 9.38333 9.66398 9.3734L9.70261 9.3513L10.7925 10.514L12.2938 11.5836L11.9289 11.8521L12.4409 11.8629L12.6343 12.2471L12.925 12.0332L12.693 11.8679C12.8489 11.8706 12.9986 11.8724 13.1421 11.8734L13.6126 11.5272H14.5315C14.7291 11.4321 14.9204 11.3335 15.1053 11.2312L15.81 11.3946L15.889 11.5272H15.9688L15.9027 11.416L15.81 11.3946L15.7917 11.3638L18.3889 9.46912L18.716 9.38972C18.7689 9.37688 18.8205 9.36347 18.8708 9.34948C18.8963 9.32178 18.9211 9.29413 18.9451 9.26654L19.3464 9.00866L19.2229 8.89407C19.1465 9.01712 19.0539 9.14131 18.9451 9.26654L18.8282 9.34163L18.7652 9.19454L18.3889 9.46912L17.0555 9.79275C17.2048 9.64424 17.3461 9.49112 17.4792 9.33338L17.906 9.05911L18.0515 9.2503C18.2601 9.12216 18.4517 8.99557 18.6263 8.87021L18.5816 8.76584L18.7354 8.6224C18.675 8.6403 18.6107 8.65759 18.5424 8.67418L18.5816 8.76584L18.11 9.20584L17.9679 9.0193L18.0563 8.96251L18.0568 8.96295L18.0595 8.96045L18.0563 8.96251L17.8824 8.80578C17.8954 8.78698 17.9082 8.76813 17.921 8.74921L18.1022 8.91256L19.2855 7.32744L19.1749 7.2508C19.0552 7.54006 18.7394 7.87811 18.2259 8.25101C18.2761 8.16014 18.3242 8.06805 18.3702 7.97475L18.3872 7.94024L18.2311 8.08587L18.0473 7.93194C17.9053 8.08818 17.7421 8.25157 17.5576 8.42172L17.6812 8.5331L17.6254 8.57415L17.6673 8.61188L17.6077 8.66744L17.801 8.92127C17.6996 9.06198 17.5923 9.19934 17.4792 9.33338L16.5876 9.90631L17.0555 9.79275C16.5121 10.3333 15.8617 10.8127 15.1053 11.2312L14.2761 11.0389L13.6126 11.5272H13.1643C12.9903 11.5272 12.8217 11.5136 12.6585 11.4867C12.7038 11.4716 12.7487 11.4564 12.7934 11.4411C12.8875 11.4695 12.9835 11.495 13.0812 11.5177L13.1025 11.3313C13.001 11.3687 12.8979 11.4053 12.7934 11.4411C12.7219 11.4196 12.6514 11.3964 12.5819 11.3715L12.4751 11.4502C11.4382 11.2081 10.631 10.3981 10.057 9.05704ZM10.057 9.05704L10.0936 9.0387L10.0826 9.01646L10.0457 9.03049L10.057 9.05704ZM12.313 11.5972L12.2938 11.5836L12.4751 11.4502C12.5355 11.4642 12.5966 11.4764 12.6585 11.4867C12.5451 11.5244 12.4299 11.5612 12.313 11.5972ZM17.8456 8.85865C17.858 8.84108 17.8702 8.82346 17.8824 8.80578L17.6741 8.61806L17.7342 8.58084L17.921 8.74921C18.0301 8.5874 18.1317 8.42133 18.2259 8.25101C18.0783 8.35819 17.9144 8.46824 17.7342 8.58084L17.7171 8.56543L18.0152 8.28734L18.2582 8.10851L18.2311 8.08587L18.0152 8.28734L17.6812 8.5331L17.7171 8.56543L17.6673 8.61188L17.6741 8.61806L17.6661 8.62298L17.8456 8.85865ZM17.8456 8.85865L17.9679 9.0193L17.906 9.05911L17.801 8.92127C17.816 8.90047 17.8309 8.8796 17.8456 8.85865ZM12.313 11.5972L12.693 11.8679C12.6323 11.8669 12.5708 11.8657 12.5083 11.8644L12.4409 11.8629L12.308 11.5987L12.313 11.5972ZM13.6751 12.5676L13.6678 12.6118L13.7364 12.6113L13.6751 12.5676ZM15.7262 12.3449L15.6189 12.2003C15.5651 12.212 15.5118 12.2234 15.4593 12.2344L15.4153 12.4058C15.4583 12.4168 15.5006 12.4274 15.5422 12.4376C15.6184 12.4103 15.6795 12.3795 15.7262 12.3449Z" fill="#FFE402"/>
</g>
</g>
<defs>
<clipPath id="clip0_58_2779">
<rect width="21.4187" height="16.064" fill="white" transform="translate(0.837402 0.886719)"/>
</clipPath>
</defs>
</svg>
