<svg width="22" height="17" viewBox="0 0 22 17" fill="none" xmlns="http://www.w3.org/2000/svg">
<g clip-path="url(#clip0_58_2761)">
<rect width="21.4187" height="16.064" transform="translate(0.512329 0.886719)" fill="white"/>
<path fill-rule="evenodd" clip-rule="evenodd" d="M22.2217 0.854736H0.803V4.87075H22.2217V0.854736ZM22.2217 12.9027H0.802979V16.9187H22.2217V12.9027Z" fill="#F50101"/>
<path fill-rule="evenodd" clip-rule="evenodd" d="M0.802979 4.87073H22.2217V12.9027H0.802979V4.87073Z" fill="#F7FCFF"/>
<path fill-rule="evenodd" clip-rule="evenodd" d="M15.2036 9.23029C15.2535 9.81083 13.1111 8.98942 13.1111 9.22187C13.1111 9.45432 15.4061 9.86245 15.4023 10.3828C15.3985 10.9032 12.6809 10.2343 13.2903 10.4683C13.8997 10.7023 15.2081 11.2625 15.0594 11.6115C14.7418 12.3568 12.6324 11.0944 12.4569 11.3433C12.1738 11.7447 14.0136 12.6811 13.998 12.7706C13.968 12.9422 12.7415 12.5009 12.4569 12.8572C12.2266 12.7922 12.1201 12.4821 12.0486 12.4409L11.5959 6.60205C11.5959 6.60205 12.0024 12.0996 11.483 12.2577C10.9637 12.4158 9.52094 12.8965 9.47896 12.6564C9.46334 12.5669 11.2161 11.7447 10.9329 11.3433C10.7244 11.0475 8.60919 12.0965 8.47423 11.4891C7.87306 11.0557 10.4212 10.6807 10.4212 10.2376C10.4212 9.79433 8.09013 10.7621 8.36899 10.1452C8.64785 9.52821 10.514 9.30732 10.5488 9.22187C10.6125 9.06561 8.47423 9.46513 8.47423 9.22187C8.47423 8.76157 9.75412 8.671 10.5488 8.25676C10.5958 7.78407 8.62093 8.72213 8.47423 8.3432C8.32753 7.96428 10.9984 6.9826 10.9329 6.90613C10.8296 6.78536 8.67706 7.33031 9.03204 7.04414C9.721 6.48872 11.0658 5.73346 11.3752 5.532C11.3752 5.532 11.4125 5.45599 11.4523 5.48178C11.4922 5.45599 11.5361 5.42773 11.5361 5.42773C11.5361 5.42773 11.5361 5.90298 11.5295 5.532C11.5229 5.16102 14.6818 6.78432 14.7177 7.19584C14.7594 7.67658 12.7658 6.83341 12.8127 7.30611C13.218 7.55719 14.3706 8.0431 14.8469 8.25676C15.0629 8.35368 13.2553 8.05164 13.2935 8.19993C13.3908 8.57788 15.1515 8.6248 15.2036 9.23029Z" fill="#52AB0B"/>
</g>
<defs>
<clipPath id="clip0_58_2761">
<rect width="21.4187" height="16.064" fill="white" transform="translate(0.512329 0.886719)"/>
</clipPath>
</defs>
</svg>
