<svg width="22" height="17" viewBox="0 0 22 17" fill="none" xmlns="http://www.w3.org/2000/svg">
<g clip-path="url(#clip0_58_2738)">
<rect width="21.4187" height="16.064" transform="translate(0.187134 0.886719)" fill="white"/>
<path fill-rule="evenodd" clip-rule="evenodd" d="M0.477783 0.854736V16.9188H21.8965V0.854736H0.477783Z" fill="#E31D1C"/>
<mask id="mask0_58_2738" style="mask-type:luminance" maskUnits="userSpaceOnUse" x="0" y="0" width="22" height="17">
<path fill-rule="evenodd" clip-rule="evenodd" d="M0.477783 0.854736V16.9188H21.8965V0.854736H0.477783Z" fill="white"/>
</mask>
<g mask="url(#mask0_58_2738)">
<path fill-rule="evenodd" clip-rule="evenodd" d="M0.477783 0.854736V8.88676H21.8965V0.854736H0.477783Z" fill="#2E42A5"/>
<path fill-rule="evenodd" clip-rule="evenodd" d="M3.68958 8.253C3.68958 8.253 4.49724 8.75573 6.36881 8.75573C8.24039 8.75573 9.23382 8.253 9.23382 8.253C9.23382 8.253 7.76607 7.39978 6.45372 7.39978C5.14137 7.39978 3.68958 8.253 3.68958 8.253Z" fill="black"/>
<path d="M3.73792 5.36747L3.59329 5.45163L3.64168 5.5348H3.73792H9.31029H9.4329L9.46985 5.41789L9.31029 5.36747C9.46985 5.41789 9.46986 5.41784 9.46988 5.41778L9.46993 5.41764L9.47005 5.41726L9.4704 5.41612L9.47155 5.41238L9.4755 5.39917C9.47882 5.38787 9.48345 5.37169 9.48898 5.35112C9.50005 5.31002 9.51481 5.25129 9.53007 5.17907C9.56051 5.03508 9.59347 4.83528 9.60264 4.61359C9.62059 4.17972 9.54898 3.61404 9.12785 3.24794C8.69871 2.87489 8.15421 2.93295 7.68447 3.05036C7.5246 3.09031 7.36158 3.14052 7.20892 3.18753C7.13683 3.20973 7.06706 3.23122 7.00102 3.25058C6.78596 3.31363 6.60668 3.35547 6.4624 3.35547C6.31881 3.35547 6.16054 3.31684 5.97471 3.25834C5.91835 3.2406 5.85851 3.22067 5.79624 3.19994C5.66258 3.15543 5.51779 3.10722 5.37255 3.06899C4.93159 2.95295 4.42262 2.90911 3.85846 3.22862C3.56463 3.39503 3.39663 3.62668 3.31708 3.88055C3.23909 4.12944 3.24887 4.39003 3.29039 4.61847C3.33209 4.84787 3.4077 5.05526 3.47184 5.20395C3.50409 5.2787 3.53388 5.33962 3.55583 5.38224C3.56681 5.40357 3.57587 5.42038 3.58232 5.43212L3.58999 5.44587L3.59222 5.44977L3.5929 5.45096L3.59313 5.45136L3.59322 5.45151C3.59325 5.45157 3.59329 5.45163 3.73792 5.36747Z" fill="#FFD83D" stroke="black" stroke-width="0.334668"/>
<path d="M3.07897 5.47712L3.15698 5.62516C3.07897 5.47712 3.07903 5.47709 3.0791 5.47705L3.07926 5.47697L3.07966 5.47676L3.08075 5.47619L3.08414 5.47445L3.09576 5.46863C3.10566 5.46375 3.11985 5.45691 3.13837 5.4484C3.17539 5.43138 3.22968 5.40766 3.30133 5.37951C3.44463 5.32321 3.65734 5.2492 3.94026 5.17554C4.50624 5.0282 5.35246 4.88247 6.48523 4.88247C7.618 4.88247 8.46422 5.0282 9.0302 5.17554C9.31312 5.2492 9.52583 5.32321 9.66914 5.37951C9.74078 5.40766 9.79507 5.43138 9.8321 5.4484C9.85061 5.45691 9.86481 5.46375 9.8747 5.46863L9.88632 5.47445L9.88971 5.47619L9.89081 5.47676L9.8912 5.47697L9.89136 5.47705C9.89143 5.47709 9.8915 5.47712 9.81348 5.62516L9.8915 5.47712L10.0218 5.5458L9.97021 5.68377L9.17712 7.80447L9.12184 7.95228L8.97108 7.90576L8.97108 7.90576L8.97105 7.90575L8.97101 7.90574L8.97052 7.90559L8.96823 7.90489L8.95843 7.90194L8.91877 7.89036C8.8837 7.88029 8.83178 7.86579 8.76527 7.84832C8.63222 7.81336 8.44107 7.76662 8.21003 7.71984C7.74701 7.62609 7.12827 7.53315 6.49791 7.53315C5.8674 7.53315 5.23679 7.62613 4.76164 7.72C4.5246 7.76682 4.32746 7.81363 4.18987 7.84864C4.1211 7.86614 4.06728 7.88068 4.03086 7.89077L3.98962 7.9024L3.97939 7.90537L3.97697 7.90608L3.97645 7.90623L3.97639 7.90625L3.07897 5.47712ZM3.07897 5.47712L2.94981 5.54519L2.99974 5.68238L3.77146 7.80308L3.82534 7.95115L3.97636 7.90626L3.07897 5.47712Z" fill="#FFD83D" stroke="black" stroke-width="0.334668"/>
<path d="M6.4175 3.70953C6.79214 3.70953 7.03481 3.34354 7.03481 2.97642C7.03481 2.60931 6.79214 2.24331 6.4175 2.24331C6.04286 2.24331 5.8002 2.60931 5.8002 2.97642C5.8002 3.34354 6.04286 3.70953 6.4175 3.70953Z" fill="#FFD83D" stroke="black" stroke-width="0.334668"/>
<mask id="path-8-outside-1_58_2738" maskUnits="userSpaceOnUse" x="4.91125" y="-0.145264" width="3" height="4" fill="black">
<rect fill="white" x="4.91125" y="-0.145264" width="3" height="4"/>
<path fill-rule="evenodd" clip-rule="evenodd" d="M6.58618 0.854736H6.2487L6.29215 1.47238L5.91125 1.42055V1.84488L6.29799 1.79161L6.2487 2.76424H6.58618L6.53622 1.78997L6.92369 1.84488V1.42055L6.54324 1.47516L6.58618 0.854736Z"/>
</mask>
<path fill-rule="evenodd" clip-rule="evenodd" d="M6.58618 0.854736H6.2487L6.29215 1.47238L5.91125 1.42055V1.84488L6.29799 1.79161L6.2487 2.76424H6.58618L6.53622 1.78997L6.92369 1.84488V1.42055L6.54324 1.47516L6.58618 0.854736Z" fill="#FFD83D"/>
<path d="M6.2487 0.854736V0.520069H5.88967L5.91486 0.878219L6.2487 0.854736ZM6.58618 0.854736L6.92005 0.877845L6.94481 0.520069H6.58618V0.854736ZM6.29215 1.47238L6.24702 1.80399L6.65487 1.85949L6.62599 1.4489L6.29215 1.47238ZM5.91125 1.42055L5.95638 1.08894L5.57659 1.03726V1.42055H5.91125ZM5.91125 1.84488H5.57659V2.22881L5.95692 2.17642L5.91125 1.84488ZM6.29799 1.79161L6.63223 1.80855L6.65269 1.40493L6.25233 1.46008L6.29799 1.79161ZM6.2487 2.76424L5.91446 2.7473L5.89664 3.0989H6.2487V2.76424ZM6.58618 2.76424V3.0989H6.93845L6.92041 2.7471L6.58618 2.76424ZM6.53622 1.78997L6.58318 1.45861L6.1812 1.40164L6.20199 1.80711L6.53622 1.78997ZM6.92369 1.84488L6.87673 2.17624L7.25836 2.23033V1.84488H6.92369ZM6.92369 1.42055H7.25836V1.03441L6.87614 1.08928L6.92369 1.42055ZM6.54324 1.47516L6.20937 1.45205L6.18077 1.86529L6.59079 1.80643L6.54324 1.47516ZM6.2487 1.1894H6.58618V0.520069H6.2487V1.1894ZM6.62599 1.4489L6.58254 0.831254L5.91486 0.878219L5.9583 1.49586L6.62599 1.4489ZM5.86613 1.75216L6.24702 1.80399L6.33727 1.14077L5.95638 1.08894L5.86613 1.75216ZM6.24592 1.84488V1.42055H5.57659V1.84488H6.24592ZM6.25233 1.46008L5.86559 1.51335L5.95692 2.17642L6.34366 2.12315L6.25233 1.46008ZM6.58294 2.78117L6.63223 1.80855L5.96375 1.77467L5.91446 2.7473L6.58294 2.78117ZM6.58618 2.42957H6.2487V3.0989H6.58618V2.42957ZM6.20199 1.80711L6.25195 2.78137L6.92041 2.7471L6.87045 1.77283L6.20199 1.80711ZM6.97066 1.51353L6.58318 1.45861L6.48926 2.12132L6.87673 2.17624L6.97066 1.51353ZM6.58903 1.42055V1.84488H7.25836V1.42055H6.58903ZM6.59079 1.80643L6.97125 1.75182L6.87614 1.08928L6.49569 1.14389L6.59079 1.80643ZM6.25231 0.831628L6.20937 1.45205L6.87711 1.49827L6.92005 0.877845L6.25231 0.831628Z" fill="black" mask="url(#path-8-outside-1_58_2738)"/>
</g>
</g>
<defs>
<clipPath id="clip0_58_2738">
<rect width="21.4187" height="16.064" fill="white" transform="translate(0.187134 0.886719)"/>
</clipPath>
</defs>
</svg>
