<svg width="22" height="17" viewBox="0 0 22 17" fill="none" xmlns="http://www.w3.org/2000/svg">
<g clip-path="url(#clip0_58_2719)">
<rect width="21.4187" height="16.064" transform="translate(0.0249023 0.886719)" fill="white"/>
<path fill-rule="evenodd" clip-rule="evenodd" d="M0.315552 0.854736H21.7343V16.9188H0.315552V0.854736Z" fill="#FECA00"/>
<rect x="1.65417" y="2.19336" width="4.01601" height="13.3867" fill="#1F8A6E"/>
<rect x="5.67029" y="2.19336" width="4.01601" height="13.3867" fill="#F56800"/>
<rect x="9.68628" y="2.19336" width="10.7094" height="13.3867" fill="#B01D00"/>
<rect x="8.34753" y="2.19336" width="1.33867" height="13.3867" fill="#E8AA00"/>
<path fill-rule="evenodd" clip-rule="evenodd" d="M11.7616 4.98682C11.7616 4.98682 10.909 4.98434 10.909 6.4688V8.64559C10.909 8.64559 10.5032 8.71795 10.5032 8.97005C10.5032 9.22216 10.5892 9.44275 10.7491 9.44275C10.909 9.44275 11.0689 10.1823 10.909 10.1823C10.7491 10.1823 10.5892 10.4996 10.7491 10.4996C10.7874 10.4996 10.8165 10.4944 10.8386 10.4905C10.909 10.478 10.909 10.478 10.909 10.6972C10.909 10.9854 10.7491 11.1019 10.7491 11.1019C10.7491 11.1019 10.5985 11.0599 10.5985 11.2295C10.5985 11.3991 10.7491 11.442 10.7491 11.442C10.7491 11.442 10.8353 11.4793 10.6692 11.5596C10.5032 11.6399 10.5032 11.6787 10.5032 11.6787H10.909L11.1123 12.0506L11.3062 11.6787H11.7068C11.7068 11.6787 11.5051 11.5497 11.4814 11.5226C11.4578 11.4956 11.4292 11.4561 11.4814 11.4109C11.4967 11.3977 11.519 11.3876 11.5429 11.3768C11.6012 11.3505 11.6691 11.3199 11.6691 11.2295C11.6691 11.1019 11.4134 11.1019 11.4134 11.1019C11.4134 11.1019 11.2574 10.8202 11.3062 10.6972C11.3199 10.6628 11.3277 10.6322 11.3343 10.6059C11.3515 10.5383 11.3614 10.4996 11.4453 10.4996C11.5617 10.4996 11.6286 10.3526 11.4814 10.1823C11.4814 10.1823 11.6501 10.3636 11.6005 10.5989C11.551 10.8342 11.6521 10.9408 11.7068 10.9408C11.7616 10.9408 11.8486 10.8599 11.8486 10.8599C11.8486 10.8599 12.3034 11.2665 12.5033 11.2665C12.7032 11.2665 12.9897 10.9408 12.9897 10.9408L13.4012 11.1718C13.4012 11.1718 13.7023 11.5937 13.6579 11.8837C13.6135 12.1738 13.4419 12.3354 13.2399 12.2905C13.0379 12.2457 12.7093 12.3377 12.6843 12.4628C12.6805 12.4817 12.6749 12.5048 12.6687 12.5301L12.6687 12.5301C12.6341 12.6721 12.5823 12.8846 12.7407 12.8322C12.9272 12.7704 12.9638 12.723 12.9638 12.723C12.9638 12.723 12.9393 12.8322 13.0896 12.8322C13.2399 12.8322 13.2833 12.723 13.2833 12.723C13.2833 12.723 13.4391 12.8322 13.5485 12.8322C13.6579 12.8322 13.7805 12.7481 13.7805 12.7481C13.7805 12.7481 13.8611 12.8731 14.0395 12.8322C14.2179 12.7913 14.3527 12.3258 14.223 12.2215C14.223 12.2215 14.6533 12.159 14.7638 11.785C14.7638 11.785 14.3475 11.7788 14.3904 11.5226C14.4333 11.2665 14.6531 11.1019 14.6531 11.1019C14.6531 11.1019 15.2862 10.7955 15.5585 10.6972C15.8309 10.5989 16.2836 10.4996 16.3957 10.4996C16.4414 10.4996 16.474 10.6062 16.5182 10.7506C16.5826 10.9611 16.6716 11.2521 16.8614 11.4109C17.1816 11.6787 16.9633 12.2905 16.9633 12.2905C16.9633 12.2905 16.2508 12.3623 16.2508 12.5552C16.2508 12.7481 16.2623 12.8322 16.3957 12.8322C16.5292 12.8322 16.5265 12.723 16.5265 12.723C16.5265 12.723 16.6057 12.8322 16.7336 12.8322C16.8614 12.8322 16.9633 12.723 16.9633 12.723C16.9633 12.723 16.9973 12.8322 17.1648 12.8322C17.3324 12.8322 17.3312 12.723 17.3312 12.723C17.3312 12.723 17.3613 12.8322 17.509 12.8322C17.6567 12.8322 17.9598 12.723 17.9598 12.723C17.9598 12.723 18.0072 12.8322 18.1606 12.8322C18.3139 12.8322 18.3175 12.723 18.3175 12.723C18.3175 12.723 18.3994 12.8322 18.5322 12.8322C18.6651 12.8322 18.7429 12.723 18.7429 12.723C18.7429 12.723 18.9339 12.8322 19.0656 12.8322C19.1973 12.8322 19.15 12.6351 19.0656 12.4628C19.0443 12.4192 19.0195 12.382 18.9969 12.348C18.9302 12.2475 18.8821 12.1752 18.9952 12.0506C19.0272 12.0153 19.0639 11.9796 19.1006 11.9439C19.2375 11.8107 19.3751 11.6768 19.2743 11.5596C19.2444 11.5248 19.2094 11.5005 19.1741 11.476C19.0587 11.3958 18.9413 11.3142 18.9952 10.8599C19.0275 10.5878 19.0889 10.3666 19.1459 10.1612C19.2132 9.91891 19.2743 9.69862 19.2743 9.44275C19.2743 8.97005 18.9952 8.42953 18.9952 8.42953C18.9952 8.42953 19.3711 8.16719 19.3711 7.63353C19.3711 7.09988 18.5322 7.04168 18.5322 7.04168C18.5322 7.04168 17.6991 7.25615 17.3312 7.14892C17.2482 7.12471 17.1787 7.10731 17.1209 7.09283L17.1209 7.09283C16.9225 7.04314 16.8614 7.02785 16.8614 6.89036C16.8614 6.7128 16.5937 7.04168 16.5937 7.04168C16.5937 7.04168 16.3838 6.95744 16.5265 6.78312C16.6692 6.60881 16.7336 6.54047 16.7336 6.54047C16.7336 6.54047 16.6079 6.39712 16.3957 6.4688C16.1836 6.54047 16.1458 6.65925 16.1458 6.65925C16.1458 6.65925 15.904 6.41171 16.0547 6.23196C16.2054 6.05222 16.3957 6.23196 16.3957 6.23196C16.3957 6.23196 16.6124 6.34507 16.6298 6.19661C16.6473 6.04814 16.6298 5.92975 16.6298 5.92975C16.6298 5.92975 17.1733 6.08564 17.0197 6.32809C16.8661 6.57055 16.9633 6.65925 16.9633 6.65925C16.9633 6.65925 17.3368 6.68224 17.4043 6.42456C17.4299 6.3271 17.4256 6.23259 17.407 6.15831C17.5146 6.20901 17.6365 6.26908 17.6025 6.36873C17.54 6.55182 17.4043 6.78312 17.4043 6.78312C17.4043 6.78312 17.7776 6.76131 17.8888 6.4688C18.0001 6.17628 17.9598 6.54047 17.9598 6.54047C17.9598 6.54047 18.1028 6.53538 18.3175 6.65925C18.5322 6.78312 18.3175 6.4688 18.3175 6.4688C18.3175 6.4688 18.7632 7.02141 19.1848 6.95588C19.6063 6.89036 19.5829 6.54047 19.5829 6.54047C19.5829 6.54047 19.4831 6.36873 19.2743 6.36873C19.0656 6.36873 19.1848 6.54047 19.1848 6.54047C19.1848 6.54047 19.3883 6.65639 19.0656 6.54047C18.9721 6.5069 18.8327 6.39852 18.6596 6.26404C18.2352 5.93423 17.6088 5.44741 16.9633 5.52196C16.0547 5.62692 15.7376 6.03296 15.7376 6.03296V5.69487C15.7376 5.69487 15.5849 5.92975 15.4426 5.92975C15.3002 5.92975 14.905 5.69487 14.905 5.69487L14.6531 5.92975C14.6531 5.92975 14.5578 5.69487 14.3904 5.69487C14.223 5.69487 14.223 5.92975 14.223 5.92975C14.223 5.92975 14.0124 5.82621 13.7805 5.82621C13.6854 5.82621 13.6046 5.7915 13.5423 5.76475C13.4525 5.7262 13.4012 5.70415 13.4012 5.82621C13.4012 5.85098 13.4017 5.87462 13.4023 5.89712V5.89712C13.4063 6.06237 13.4089 6.16548 13.1684 6.19661C12.8953 6.23196 12.6843 6.23196 12.6843 6.23196C12.6843 6.23196 12.5207 6.03296 12.3935 6.03296C12.2663 6.03296 12.1189 6.18738 12.1189 6.32809C12.1189 6.4688 12.2837 6.87009 12.3935 6.95588C12.4224 6.97848 12.4171 6.97601 12.3935 6.96514C12.3275 6.93475 12.1189 6.83868 12.1189 7.04168C12.1189 7.18164 12.1539 7.21663 12.1794 7.24218C12.2041 7.26695 12.22 7.28285 12.1866 7.37682C12.1728 7.41593 12.1537 7.46116 12.1339 7.50836C12.0567 7.69164 11.967 7.9047 12.1189 7.9047C12.2009 7.9047 12.2786 7.88663 12.3338 7.87377C12.4073 7.85667 12.4412 7.84877 12.3935 7.9047C12.3745 7.92699 12.349 7.95383 12.3232 7.98089C12.2356 8.07284 12.1455 8.16744 12.3014 8.09565C12.3834 8.05791 12.4527 8.00315 12.5098 7.958C12.5932 7.89199 12.6508 7.84649 12.6843 7.9047C12.7054 7.94151 12.6885 7.9907 12.6739 8.03287C12.6497 8.10299 12.6323 8.15368 12.8081 8.09565C12.8697 8.0753 12.9058 8.05943 12.9259 8.04804C12.9267 8.05945 12.9361 8.07533 12.9638 8.09565C13.0228 8.13896 13.0115 8.18 13.0028 8.21136C12.9931 8.24685 12.9867 8.26996 13.0896 8.26996C13.188 8.26996 13.3269 8.19367 13.4092 8.14845C13.489 8.10466 13.5156 8.09002 13.4012 8.20196C13.329 8.27251 13.2246 8.31954 13.1088 8.37174C12.851 8.48793 12.5363 8.62973 12.3935 9.11344C12.2008 9.76635 12.2872 9.9009 12.3 9.91629L11.7068 9.26689C11.7068 9.26689 11.8486 9.15604 11.8486 8.97005C11.8486 8.78407 11.4814 8.64559 11.4814 8.64559C11.4814 8.64559 11.4943 6.33119 11.6005 5.82621C11.7068 5.32122 11.7616 4.98682 11.7616 4.98682ZM12.9444 8.02617C12.9377 8.02618 12.9248 8.03348 12.9259 8.04804C12.9516 8.03343 12.9511 8.02616 12.9444 8.02617ZM17.407 6.15831L17.3991 6.15461C17.3123 6.11376 17.2375 6.07862 17.2663 6.03296C17.3066 5.96879 17.3763 6.0362 17.407 6.15831ZM17.7994 11.1662C17.7994 11.1662 17.5183 11.4419 17.6968 11.5025C17.7509 11.5209 17.8168 11.5311 17.878 11.5406C18.0186 11.5625 18.1347 11.5806 18.0282 11.6847C17.8752 11.8341 17.7458 12.0359 17.7458 12.2198C17.7458 12.4036 17.7502 12.5588 17.7994 12.4812C17.8264 12.4386 17.9374 12.394 18.057 12.346C18.1552 12.3065 18.2593 12.2647 18.3272 12.2198C18.4557 12.1349 18.4539 12.0431 18.4505 11.8781V11.8781C18.4499 11.8495 18.4493 11.8188 18.4493 11.7856C18.4493 11.5601 17.7994 11.1662 17.7994 11.1662ZM15.6186 7.47417C15.6841 7.4221 15.6883 6.77943 15.6883 6.77943C15.6883 6.77943 15.9181 6.85594 15.9181 6.95634C15.9181 7.01886 15.9007 7.05462 15.8745 7.10859C15.8586 7.14129 15.8394 7.18067 15.8189 7.23672C15.7684 7.37479 15.9058 7.46128 16.0334 7.54162C16.0432 7.54775 16.0529 7.55384 16.0624 7.55992C16.1489 7.61508 16.1732 7.49539 16.192 7.403C16.2024 7.35178 16.2111 7.30895 16.2278 7.30895C16.2744 7.30895 16.6227 7.38791 16.8849 7.52112C17.1136 7.63736 17.3381 7.58029 17.8521 7.4496C17.9272 7.43051 18.0085 7.40984 18.0969 7.38791C18.7902 7.2159 18.8812 7.47417 18.9523 7.67751C19.0234 7.88084 18.4851 8.1626 18.0969 8.21367C17.9263 8.2361 17.7785 8.22896 17.6426 8.2224C17.4691 8.21402 17.3149 8.20657 17.1571 8.26267C16.9098 8.35061 16.1363 8.34186 15.8344 8.33844C15.7927 8.33797 15.76 8.3376 15.7389 8.3376C15.6003 8.3376 15.5741 8.29384 15.5215 8.20605C15.5081 8.18374 15.493 8.15859 15.4739 8.13059C15.3799 7.9924 15.494 7.90205 15.568 7.90205C15.642 7.90205 15.6186 7.74031 15.568 7.67751C15.5174 7.61471 15.5531 7.52624 15.6186 7.47417Z" fill="#FECA00"/>
<path fill-rule="evenodd" clip-rule="evenodd" d="M9.80085 2.27525V2.5169C9.80085 2.54666 9.78801 2.58724 9.77361 2.63274C9.72798 2.77695 9.66675 2.97047 9.94942 3.02486C10.3213 3.09641 10.5952 3.25901 10.6785 3.41252C10.7318 3.5109 10.7168 3.34697 10.6991 3.15417V3.15417C10.6892 3.04611 10.6785 2.92899 10.6785 2.84388C10.6785 2.60691 10.413 2.14513 10.2249 2.27525C10.0368 2.40536 9.80085 2.27525 9.80085 2.27525ZM9.80085 15.2503V15.492C9.80085 15.492 10.0368 15.3619 10.2249 15.492C10.413 15.6221 10.6785 15.1603 10.6785 14.9234C10.6785 14.8383 10.6892 14.7211 10.6991 14.6131C10.7168 14.4203 10.7318 14.2563 10.6785 14.3547C10.5952 14.5082 10.3213 14.6708 9.94942 14.7424C9.66675 14.7968 9.72798 14.9903 9.77361 15.1345C9.78801 15.18 9.80085 15.2206 9.80085 15.2503ZM20.2856 15.2503V15.492C20.2856 15.492 20.0496 15.3619 19.8615 15.492C19.6734 15.6221 19.408 15.1603 19.408 14.9234C19.408 14.8383 19.3972 14.7212 19.3873 14.6131V14.6131L19.3873 14.6131C19.3696 14.4203 19.3546 14.2563 19.408 14.3547C19.4913 14.5082 19.7652 14.6708 20.137 14.7424C20.4197 14.7968 20.3585 14.9903 20.3128 15.1345C20.2984 15.18 20.2856 15.2206 20.2856 15.2503ZM20.2856 2.5169V2.27525C20.2856 2.27525 20.0496 2.40536 19.8615 2.27525C19.6734 2.14513 19.408 2.60691 19.408 2.84388C19.408 2.92899 19.3972 3.04611 19.3873 3.15417C19.3696 3.34697 19.3546 3.5109 19.408 3.41252C19.4913 3.25901 19.7652 3.09641 20.137 3.02486C20.4197 2.97047 20.3585 2.77695 20.3128 2.63274C20.2984 2.58724 20.2856 2.54666 20.2856 2.5169Z" fill="#FECA00"/>
</g>
<defs>
<clipPath id="clip0_58_2719">
<rect width="21.4187" height="16.064" fill="white" transform="translate(0.0249023 0.886719)"/>
</clipPath>
</defs>
</svg>
