<svg width="23" height="17" viewBox="0 0 23 17" fill="none" xmlns="http://www.w3.org/2000/svg">
<g clip-path="url(#clip0_58_2677)">
<rect width="21.4187" height="16.064" transform="translate(0.699463 0.886719)" fill="white"/>
<path fill-rule="evenodd" clip-rule="evenodd" d="M0.990112 11.5641H22.4088V16.9188H0.990112V11.5641Z" fill="#55BA07"/>
<path fill-rule="evenodd" clip-rule="evenodd" d="M0.990112 6.20947H22.4088V11.5642H0.990112V6.20947Z" fill="#F7FCFF"/>
<path fill-rule="evenodd" clip-rule="evenodd" d="M0.990112 0.854736H22.4088V6.20942H0.990112V0.854736Z" fill="#3D58DB"/>
<path fill-rule="evenodd" clip-rule="evenodd" d="M11.1974 6.37039C10.8476 6.46433 10.6629 6.7061 10.6629 7.13389C10.6629 7.62277 10.9029 8.08164 11.1974 8.31829V6.37039ZM12.0341 8.30519C12.3205 8.06528 12.5507 7.61495 12.5507 7.13514C12.5507 6.71966 12.3688 6.47897 12.0341 6.37909V8.30519ZM12.0059 6.03039C12.5537 6.15208 12.9502 6.52514 12.9502 7.13126C12.9502 7.57211 12.7404 8.10803 12.4153 8.4758L14.0443 10.0735L14.4461 9.94121L15.0461 10.8513C15.0461 10.8513 13.5295 11.5643 11.6549 11.5643C9.78032 11.5643 8.35278 10.8513 8.35278 10.8513L8.86359 10.0735L9.27612 10.2087L10.7875 8.50349C10.4481 8.13532 10.2276 7.5833 10.2276 7.13126C10.2276 6.50372 10.6525 6.126 11.2305 6.01844C11.2941 5.86849 11.4426 5.76331 11.6158 5.76331C11.7935 5.76331 11.9453 5.87411 12.0059 6.03039ZM9.02321 10.424L8.85348 10.6599H9.18383L9.02321 10.424ZM9.21678 10.753L8.92505 10.8118L9.21678 10.9134V10.753ZM9.36553 10.4132L9.51467 10.7614L9.88516 10.6604L9.8117 10.5204L9.36553 10.4132ZM10.1712 11.1077L9.62717 11.0004L9.56489 10.8959L9.97522 10.8066L10.1712 11.1077ZM10.203 10.6093L10.3721 10.9136L10.744 10.8004L10.6405 10.664L10.203 10.6093ZM10.5079 11.1684L10.4414 11.0426L10.8528 10.9327L11.0896 11.2221L10.5079 11.1684ZM11.2762 10.9595L11.8065 10.8193L11.7413 10.6989H11.053L11.2762 10.9595ZM11.4664 11.2276L11.3821 11.0973L11.8914 10.9306L12.1616 11.2276H11.4664ZM12.1108 10.7081L12.2737 10.9076L12.7147 10.7548L12.6594 10.6506L12.1108 10.7081ZM13.068 11.123L12.4751 11.1889L12.3878 11.0416L12.8363 10.8944L13.068 11.123ZM13.0304 10.6118L13.1965 10.816L13.5946 10.6118L13.4841 10.5505L13.0304 10.6118ZM13.3748 11.0681L13.3028 10.9577L13.6816 10.7303L13.8741 10.9577L13.3748 11.0681ZM13.7508 10.4329L13.9914 10.6624L14.2254 10.4329L14.1513 10.3395L13.7508 10.4329ZM14.1322 10.7412L14.3283 10.5472L14.4692 10.7412L14.1322 10.8496V10.7412Z" fill="#1D1D1D"/>
</g>
<defs>
<clipPath id="clip0_58_2677">
<rect width="21.4187" height="16.064" fill="white" transform="translate(0.699463 0.886719)"/>
</clipPath>
</defs>
</svg>
