<svg width="23" height="17" viewBox="0 0 23 17" fill="none" xmlns="http://www.w3.org/2000/svg">
<g clip-path="url(#clip0_58_2643)">
<rect width="21.4187" height="16.064" transform="translate(0.674805 0.724243)" fill="white"/>
<path fill-rule="evenodd" clip-rule="evenodd" d="M0.965454 12.7402H22.3842V16.7562H0.965454V12.7402Z" fill="#55BA07"/>
<path fill-rule="evenodd" clip-rule="evenodd" d="M0.965454 4.70825H22.3842V12.7403H0.965454V4.70825Z" fill="#1D1D1D"/>
<path fill-rule="evenodd" clip-rule="evenodd" d="M0.965454 0.692261H22.3842V4.70827H0.965454V0.692261Z" fill="#E11C1B"/>
<path fill-rule="evenodd" clip-rule="evenodd" d="M11.5394 10.7764C10.3399 10.5285 10.0287 9.90088 10.0416 8.93273C10.0416 7.90831 10.581 6.8714 11.5272 6.75804C12.4734 6.64468 13.2484 6.99763 13.6546 7.49017C13.3148 6.15316 12.1893 6.00693 11.3251 6.00693C10.0241 5.99556 8.6897 6.9842 8.6897 8.84396C8.6897 10.4642 9.86589 11.6824 11.3627 11.7125C13.234 11.7125 13.5269 10.4203 13.5807 9.98005C13.4725 10.0577 13.3718 10.1504 13.2685 10.2455C12.8922 10.5919 12.4805 10.971 11.5394 10.7764ZM14.5283 8.24982L13.6422 8.52866L14.6345 8.91696L14.4964 9.95708L15.1689 9.24139L16.1447 9.4423L15.4854 8.67136L16.0691 7.88354L15.2541 8.05553L14.6783 7.4048L14.5283 8.24982Z" fill="white"/>
</g>
<defs>
<clipPath id="clip0_58_2643">
<rect width="21.4187" height="16.064" fill="white" transform="translate(0.674805 0.724243)"/>
</clipPath>
</defs>
</svg>
