<svg width="22" height="17" viewBox="0 0 22 17" fill="none" xmlns="http://www.w3.org/2000/svg">
<g clip-path="url(#clip0_58_2583)">
<rect width="21.4187" height="16.064" transform="translate(0.187134 0.724243)" fill="white"/>
<path fill-rule="evenodd" clip-rule="evenodd" d="M15.2031 0.692261H21.8965V16.7563H15.2031V0.692261Z" fill="#D9071E"/>
<path fill-rule="evenodd" clip-rule="evenodd" d="M0.477783 0.692261H8.5098V16.7563H0.477783V0.692261Z" fill="#3D58DB"/>
<path fill-rule="evenodd" clip-rule="evenodd" d="M7.17114 0.692261H15.2032V16.7563H7.17114V0.692261Z" fill="#FBCD17"/>
<path fill-rule="evenodd" clip-rule="evenodd" d="M15.0146 13.8207L14.3098 14.2058L11.9734 9.92954L12.6783 9.54443L15.0146 13.8207ZM7.51477 13.9235L8.21963 14.3086L10.556 10.0323L9.85112 9.64722L7.51477 13.9235Z" fill="#FD1900"/>
<path fill-rule="evenodd" clip-rule="evenodd" d="M8.09354 6.97667V10.6924C8.09354 11.5178 7.3828 12.5935 7.02435 12.9937C6.6659 13.3939 5.95398 14.3107 5.95398 14.3107V4.31224C5.95398 3.19072 7.02435 2.80546 7.02435 2.80546C7.02435 2.80546 7.91311 2.98129 8.09354 4.31224V5.60937C8.36859 5.82597 9.2872 6.49041 9.88061 6.20994C10.5852 5.87694 10.8285 4.92183 10.8285 4.92183C10.8285 4.92183 10.7626 3.95806 10.4735 3.95806C10.1843 3.95806 10.1612 2.60046 11.2687 2.60046C12.3762 2.60046 12.5053 3.12376 12.5053 3.54091C12.5053 3.75957 12.33 4.1105 12.1632 4.44445L12.1632 4.44445C12.0118 4.74758 11.8673 5.03671 11.8673 5.20025C11.8673 5.54394 12.1263 6.20994 12.5053 6.20994C12.771 6.20994 14.0493 5.71332 14.7892 5.41666V4.31224C14.9696 2.98129 15.8583 2.80546 15.8583 2.80546C15.8583 2.80546 16.9287 3.19072 16.9287 4.31224V14.3107C16.9287 14.3107 16.2168 13.3939 15.8583 12.9937C15.4999 12.5935 14.7892 11.5178 14.7892 10.6924V6.97667H8.09354ZM9.27966 13.9666C10.0036 13.4953 11.0626 11.3816 11.0626 11.3816L11.4142 11.4633C11.4142 11.4633 11.951 12.8633 13.5296 13.9666C11.847 14.4157 11.4142 15.3173 11.4142 15.3173C11.4142 14.596 9.27966 13.9666 9.27966 13.9666ZM9.1631 12.6287C9.65105 12.6287 10.0466 12.2541 10.0466 11.7921C10.0466 11.33 9.65105 10.9554 9.1631 10.9554C8.67514 10.9554 8.27958 11.33 8.27958 11.7921C8.27958 12.2541 8.67514 12.6287 9.1631 12.6287ZM14.3464 11.7921C14.3464 12.2541 13.9508 12.6287 13.4629 12.6287C12.9749 12.6287 12.5794 12.2541 12.5794 11.7921C12.5794 11.33 12.9749 10.9554 13.4629 10.9554C13.9508 10.9554 14.3464 11.33 14.3464 11.7921Z" fill="#A77B3B"/>
<path d="M17.3049 7.65845L17.9193 7.92401L15.4163 13.715L14.8019 13.4495L17.3049 7.65845Z" fill="#FDFF00"/>
<path opacity="0.3" fill-rule="evenodd" clip-rule="evenodd" d="M7.86719 5.9353H14.9354V11.0483C14.9354 11.0483 13.1368 11.59 11.4013 12.479C10.1201 11.5286 7.86719 11.0483 7.86719 11.0483V5.9353Z" fill="#E1E5E8"/>
<mask id="mask0_58_2583" style="mask-type:luminance" maskUnits="userSpaceOnUse" x="7" y="5" width="8" height="8">
<path fill-rule="evenodd" clip-rule="evenodd" d="M7.86719 5.9353H14.9354V11.0483C14.9354 11.0483 13.1368 11.59 11.4013 12.479C10.1201 11.5286 7.86719 11.0483 7.86719 11.0483V5.9353Z" fill="white"/>
</mask>
<g mask="url(#mask0_58_2583)">
<rect x="7.86719" y="9.28198" width="7.06818" height="3.34668" fill="#3D58DB"/>
<rect x="7.86719" y="5.9353" width="7.06818" height="3.34668" fill="#FD1900"/>
<path fill-rule="evenodd" clip-rule="evenodd" d="M11.0443 7.44046L10.5086 7.4848L10.8175 7.06803L10.4883 6.63641L11.0267 6.70574L11.2332 6.22979L11.4626 6.71589L11.9983 6.67155L11.6894 7.08832L12.0186 7.51994L11.4802 7.45061L11.2737 7.92656L11.0443 7.44046Z" fill="#FDFF00"/>
<path fill-rule="evenodd" clip-rule="evenodd" d="M10.0827 6.49643C10.0827 6.49643 8.64366 7.37192 9.12334 8.00038C9.60301 8.62884 10.2068 8.70929 10.2068 8.70929C10.2068 8.70929 8.7348 10.9176 11.3256 12.1792C14.0993 10.9613 12.6406 8.70929 12.6406 8.70929C12.6406 8.70929 13.4944 8.5204 13.6654 7.84087C13.8363 7.16135 12.5493 6.38196 12.5493 6.38196C12.5493 6.38196 13.3523 7.5458 13.169 7.84087C12.9857 8.13595 12.0037 8.43636 11.3256 8.43636C10.6475 8.43636 9.60037 8.24596 9.43139 7.73034C9.2624 7.21473 10.0827 6.49643 10.0827 6.49643Z" fill="#FDFF00"/>
<path fill-rule="evenodd" clip-rule="evenodd" d="M8.75071 8.72412L9.63423 9.2819L8.75071 9.83968L7.86719 9.2819L8.75071 8.72412Z" fill="#FDFF00"/>
<path fill-rule="evenodd" clip-rule="evenodd" d="M14.0519 8.72412L14.9354 9.2819L14.0519 9.83968L13.1683 9.2819L14.0519 8.72412Z" fill="#FDFF00"/>
<path fill-rule="evenodd" clip-rule="evenodd" d="M8.72391 10.9329C8.87178 10.9329 8.99164 10.8131 8.99164 10.6652C8.99164 10.5173 8.87178 10.3975 8.72391 10.3975C8.57605 10.3975 8.45618 10.5173 8.45618 10.6652C8.45618 10.8131 8.57605 10.9329 8.72391 10.9329Z" fill="#FDFF00"/>
<path fill-rule="evenodd" clip-rule="evenodd" d="M14.4199 10.4261C14.1901 10.24 13.8379 10.2941 13.6331 10.5469C13.4284 10.7997 13.4488 11.1555 13.6786 11.3416C13.8035 11.4428 13.7383 11.0409 13.9274 10.7852C14.0862 10.5704 14.5249 10.5111 14.4199 10.4261Z" fill="#FDFF00"/>
</g>
<path fill-rule="evenodd" clip-rule="evenodd" d="M3.64819 8.40907C3.64819 8.40907 4.35376 9.2432 5.01811 8.97048C5.68247 8.69775 5.5214 7.71997 5.5214 7.71997L5.01811 8.17654H4.5897V8.40907L4.2551 8.17654V8.40907H3.64819ZM4.12536 9.69093C4.12536 9.69093 4.98531 10.4409 5.56468 10.229C6.14405 10.0171 5.99857 9.00183 5.99857 9.00183L5.49528 9.4584H5.06687V9.69093L4.73226 9.4584V9.69093H4.12536ZM6.44114 11.393C5.86177 11.6049 5.00182 10.8549 5.00182 10.8549H5.60872V10.6224L5.94333 10.8549V10.6224H6.37174L6.87503 10.1658C6.87503 10.1658 7.02051 11.181 6.44114 11.393Z" fill="#048F02"/>
<path fill-rule="evenodd" clip-rule="evenodd" d="M9.83473 2.19727H9.1654V2.59591H8.85034V3.26524H9.1654V4.43299H9.83473V3.26524H10.2177V2.59591H9.83473V2.19727Z" fill="#FDFF00"/>
<path fill-rule="evenodd" clip-rule="evenodd" d="M10.6236 2.95764L9.07336 3.357L10.6236 3.84687V2.95764Z" fill="#DB4400"/>
</g>
<defs>
<clipPath id="clip0_58_2583">
<rect width="21.4187" height="16.064" fill="white" transform="translate(0.187134 0.724243)"/>
</clipPath>
</defs>
</svg>
