<svg width="22" height="17" viewBox="0 0 22 17" fill="none" xmlns="http://www.w3.org/2000/svg">
<g clip-path="url(#clip0_58_2541)">
<rect width="21.4187" height="16.064" transform="translate(0.0249023 0.724243)" fill="white"/>
<path fill-rule="evenodd" clip-rule="evenodd" d="M0.315552 0.692261H21.7343V16.7563H0.315552V0.692261Z" fill="#E8AA00"/>
<path fill-rule="evenodd" clip-rule="evenodd" d="M2.99292 3.36963H19.057V14.079H2.99292V3.36963Z" fill="#C51918"/>
<mask id="mask0_58_2541" style="mask-type:luminance" maskUnits="userSpaceOnUse" x="2" y="3" width="18" height="12">
<path fill-rule="evenodd" clip-rule="evenodd" d="M2.99292 3.36963H19.057V14.079H2.99292V3.36963Z" fill="white"/>
</mask>
<g mask="url(#mask0_58_2541)">
<path fill-rule="evenodd" clip-rule="evenodd" d="M13.8568 11.2352C14.1298 11.2352 14.3511 11.0084 14.3511 10.7287C14.3511 10.4489 14.1298 10.2222 13.8568 10.2222C13.5838 10.2222 13.3625 10.4489 13.3625 10.7287C13.3625 11.0084 13.5838 11.2352 13.8568 11.2352Z" fill="#1E5E91"/>
<path fill-rule="evenodd" clip-rule="evenodd" d="M7.42904 8.94653C6.13237 7.43955 7.99078 4.82434 7.99078 4.82434C7.99078 4.82434 8.26861 6.38627 9.29695 7.4373C9.29695 7.51193 9.19984 7.62204 9.10153 7.73353C9.03287 7.81138 8.96362 7.8899 8.92644 7.95748C8.83603 8.12181 9.14642 8.21548 9.29695 8.21548C9.36451 8.21548 9.40184 8.31346 9.43553 8.40189C9.47691 8.51048 9.51279 8.60468 9.59244 8.48535C9.73696 8.26884 9.44793 7.79314 9.44793 7.79314L9.90547 7.31055L10.0602 6.99859H9.90547V6.67742L9.79705 6.76644C9.79705 6.76644 9.67809 6.47927 9.44793 6.47927C9.21777 6.47927 9.14642 6.34795 9.14642 6.34795H9.44793C9.59891 6.34795 9.4238 6.14789 9.29695 6.04368C9.24009 5.99697 9.15383 6.01307 9.07595 6.02761C8.9801 6.04551 8.89694 6.06103 8.89694 5.95412C8.89694 5.83694 8.98818 5.82142 9.0936 5.80348C9.1625 5.79176 9.23746 5.779 9.29695 5.73616C9.39536 5.66531 9.52798 5.68709 9.67156 5.71067C9.74761 5.72317 9.82673 5.73616 9.90547 5.73616H10.2783C10.4129 5.73616 10.0602 5.95412 10.0602 5.95412L10.2783 6.14789L10.6025 6.47927L10.4404 6.57553L10.775 6.90002C10.775 6.90002 10.6614 7.0847 10.775 7.0847C10.8218 7.0847 10.8526 7.12304 10.8726 7.16813C10.8927 7.12304 10.9235 7.0847 10.9703 7.0847C11.0839 7.0847 10.9703 6.90002 10.9703 6.90002L11.3049 6.57553L11.1427 6.47927L11.467 6.14789L11.6851 5.95412C11.6851 5.95412 11.3324 5.73616 11.467 5.73616H11.8398C11.9186 5.73616 11.9977 5.72317 12.0737 5.71067C12.2173 5.68709 12.3499 5.66531 12.4483 5.73616C12.5078 5.779 12.5828 5.79176 12.6517 5.80348C12.7571 5.82142 12.8483 5.83694 12.8483 5.95412C12.8483 6.06103 12.7652 6.04551 12.6693 6.02761C12.5915 6.01307 12.5052 5.99697 12.4483 6.04368C12.3215 6.14789 12.1464 6.34795 12.2974 6.34795H12.5989C12.5989 6.34795 12.5275 6.47927 12.2974 6.47927C12.0672 6.47927 11.9482 6.76644 11.9482 6.76644L11.8398 6.67742V6.99859H11.6851L11.8398 7.31055L12.2974 7.79314C12.2974 7.79314 12.0083 8.26884 12.1528 8.48535C12.2325 8.60468 12.2684 8.51048 12.3098 8.40189C12.3434 8.31346 12.3808 8.21548 12.4483 8.21548C12.5989 8.21548 12.9093 8.12181 12.8188 7.95748C12.7817 7.8899 12.7124 7.81138 12.6438 7.73353C12.5454 7.62204 12.4483 7.51193 12.4483 7.4373C13.4767 6.38627 13.7545 4.82434 13.7545 4.82434C13.7545 4.82434 15.6129 7.43955 14.3163 8.94653C13.0196 10.4535 12.0672 9.99908 12.0672 9.99908L12.5989 10.4758L12.4483 10.6061H12.8913L12.7284 10.715L12.8483 10.7675L12.9753 10.8231C12.9753 10.8231 12.6331 11.0748 12.9753 11.0748C13.0293 11.0748 13.0866 11.0732 13.1455 11.0715C13.21 11.0697 13.2766 11.0679 13.3431 11.068C13.361 11.0681 13.321 10.9694 13.2812 10.8716C13.242 10.7751 13.2032 10.6794 13.2207 10.6802C13.2577 10.6818 13.3304 10.7695 13.4033 10.8575C13.4614 10.9277 13.5197 10.9981 13.5602 11.0252C13.5863 11.0426 13.6882 11.0072 13.7826 10.9744C13.8624 10.9467 13.9368 10.9209 13.9556 10.9303C14.0352 10.9705 14.0149 11.0518 13.9955 11.1292C13.9905 11.1491 13.9856 11.1687 13.9825 11.1873C13.9796 11.2042 14.0815 11.1381 14.1887 11.0686C14.3013 10.9955 14.4197 10.9187 14.4287 10.9303C14.4306 10.9328 14.4327 10.9353 14.4348 10.9378C14.4731 10.9839 14.5347 11.0581 14.0796 11.4089C14.0796 11.4763 14.082 11.5313 14.0839 11.576C14.0902 11.7196 14.0918 11.7568 13.9946 11.7568C13.9512 11.7568 13.8906 11.7782 13.8204 11.8031C13.6404 11.8669 13.3973 11.9531 13.2207 11.7568C12.9753 11.4838 12.5989 11.0748 12.5989 11.0748V11.2758L12.1528 10.8231L12.0672 11.0748L11.467 10.3854L11.3049 10.4758C11.3049 10.4758 11.8573 12.0004 12.1528 12.011C12.2997 12.0163 12.0767 12.1588 11.7813 12.3475C11.4823 12.5386 11.1091 12.7771 10.9703 12.9687C10.929 13.0257 10.8971 12.9388 10.8726 12.7499C10.8482 12.9388 10.8163 13.0257 10.775 12.9687C10.6362 12.7771 10.263 12.5386 9.96394 12.3475C9.66858 12.1588 9.44561 12.0163 9.59244 12.011C9.88794 12.0004 10.4404 10.4758 10.4404 10.4758L10.2783 10.3854L9.67809 11.0748L9.59244 10.8231L9.14642 11.2758V11.0748C9.14642 11.0748 8.77001 11.4838 8.52458 11.7568C8.34801 11.9531 8.10488 11.8669 7.92485 11.8031C7.85465 11.7782 7.79405 11.7568 7.75073 11.7568C7.59632 11.7568 7.54463 11.5407 7.75073 11.2758C7.92428 11.0528 8.28568 11.0628 8.59983 11.0715C8.65873 11.0732 8.71598 11.0748 8.77001 11.0748C9.1122 11.0748 8.77001 10.8231 8.77001 10.8231L8.89694 10.7675L9.01685 10.715L8.85397 10.6061H9.29695L9.14642 10.4758L9.67809 9.99908C9.67809 9.99908 8.7257 10.4535 7.42904 8.94653Z" fill="#F6C540"/>
<path fill-rule="evenodd" clip-rule="evenodd" d="M8.63754 12.0914L8.0518 11.0645C8.0518 11.0645 7.28596 9.2987 7.28596 9.08432C7.28596 8.86994 6.97766 8.23508 6.97766 8.41936C6.97766 8.60365 6.97766 9.08432 6.97766 9.08432L8.26979 11.9953V12.2246H8.4438L8.63754 12.0914Z" fill="#F6C540"/>
<path d="M13.3287 10.7089L13.4178 10.4131L14.5061 10.7409L14.417 11.0367L13.3287 10.7089Z" fill="#F6C540"/>
<path d="M13.9084 10.1703L14.2026 10.2666L13.9151 11.189L13.6208 11.0926L13.9084 10.1703Z" fill="#F6C540"/>
<path fill-rule="evenodd" clip-rule="evenodd" d="M14.1825 9.86964L14.1193 9.85522L14.0935 9.95698L13.9773 9.92843L13.963 9.99053L14.0779 10.0188L14.0486 10.1347L14.1119 10.1491L14.1409 10.0342L14.2553 10.0623L14.2696 10.0002L14.1565 9.97244L14.1825 9.86964Z" fill="#F6C540"/>
<path fill-rule="evenodd" clip-rule="evenodd" d="M10.8205 4.18787L10.8523 4.29882H10.9489L10.9807 4.18787C11.0611 4.21207 11.1341 4.23961 11.1995 4.27036L11.2017 4.24606C11.7183 4.29325 11.9864 4.50949 11.9577 4.8897C11.9339 5.20443 11.7746 5.36931 11.5089 5.36508V5.60018C11.5089 5.60018 11.0764 5.7662 10.8602 5.7662C10.644 5.7662 10.2115 5.60018 10.2115 5.60018V5.3611C9.99278 5.33403 9.86219 5.17225 9.84084 4.8897C9.8121 4.50949 10.0802 4.29325 10.5968 4.24606L10.5992 4.27158C10.6652 4.24034 10.739 4.21239 10.8205 4.18787ZM10.2736 5.15457C10.2445 5.16271 10.224 5.16873 10.2157 5.17121C10.0971 5.14896 10.0392 5.05419 10.0257 4.87616C10.0121 4.69617 10.0967 4.57094 10.2961 4.49872C10.16 4.67283 10.1501 4.8943 10.2736 5.15457ZM10.4577 5.1066C10.5667 5.08041 10.6928 5.05438 10.7939 5.04543V4.39574C10.379 4.54133 10.2794 4.76407 10.4577 5.1066ZM10.9792 5.05129C11.1183 5.06952 11.2871 5.1113 11.3962 5.14068L11.3415 5.11045C11.5266 4.7581 11.4192 4.53202 10.9792 4.38614V5.05129ZM11.5062 4.5001C11.645 4.67883 11.6513 4.90731 11.5171 5.17632C11.6805 5.17877 11.7571 5.08444 11.7728 4.87616C11.7863 4.69731 11.7029 4.57253 11.5062 4.5001Z" fill="#F6C540"/>
<path fill-rule="evenodd" clip-rule="evenodd" d="M10.8603 4.38647C10.9797 4.38647 11.0765 4.28966 11.0765 4.17023C11.0765 4.0508 10.9797 3.95398 10.8603 3.95398C10.7409 3.95398 10.644 4.0508 10.644 4.17023C10.644 4.28966 10.7409 4.38647 10.8603 4.38647Z" fill="#3D58DB"/>
<path fill-rule="evenodd" clip-rule="evenodd" d="M10.8904 3.7032L10.8255 3.70451L10.8252 3.80947L10.7055 3.8099L10.7067 3.8736L10.825 3.87318L10.8246 3.99279L10.8895 3.99148L10.8899 3.87295L11.0077 3.87253L11.0065 3.80882L10.8901 3.80924L10.8904 3.7032Z" fill="#F6C540"/>
<path fill-rule="evenodd" clip-rule="evenodd" d="M9.65545 7.62613C9.65545 7.62613 10.4169 7.48242 10.8294 7.48242C11.1995 7.48242 12.0033 7.62613 12.0033 7.62613C12.0033 8.53646 12.2594 9.09378 12.0033 9.71554C11.7471 10.3373 11.1211 10.0384 10.8377 10.6334C10.4756 10.069 9.98655 10.3797 9.65545 9.57608C9.32434 8.77246 9.85674 8.40233 9.65545 7.62613Z" fill="#1E5E91"/>
<mask id="mask1_58_2541" style="mask-type:luminance" maskUnits="userSpaceOnUse" x="9" y="7" width="4" height="4">
<path fill-rule="evenodd" clip-rule="evenodd" d="M9.65545 7.62613C9.65545 7.62613 10.4169 7.48242 10.8294 7.48242C11.1995 7.48242 12.0033 7.62613 12.0033 7.62613C12.0033 8.53646 12.2594 9.09378 12.0033 9.71554C11.7471 10.3373 11.1211 10.0384 10.8377 10.6334C10.4756 10.069 9.98655 10.3797 9.65545 9.57608C9.32434 8.77246 9.85674 8.40233 9.65545 7.62613Z" fill="white"/>
</mask>
<g mask="url(#mask1_58_2541)">
<rect x="9.6554" y="9.52551" width="2.34782" height="1.13968" fill="#5EAA22"/>
<path fill-rule="evenodd" clip-rule="evenodd" d="M10.3496 8.07466C10.2599 7.884 10.821 7.86182 10.821 7.86182C10.821 7.86182 10.942 8.07466 10.821 8.37753C10.733 8.59779 10.8798 8.57815 11.0823 8.55105C11.1583 8.54088 11.242 8.52967 11.3242 8.52967C11.4501 8.52967 11.5163 8.52044 11.5714 8.54111C11.648 8.56992 11.7029 8.65681 11.8669 8.90771C11.9418 9.02225 11.9385 9.09769 11.8934 9.1428C11.8973 9.25933 11.7704 9.35593 11.536 9.41776L11.5052 9.29513C11.6291 9.26244 11.705 9.23117 11.7403 9.19663C11.5636 9.20737 11.3242 9.12005 11.3242 9.00786C11.3242 8.84194 10.7587 8.87688 10.4183 8.8979C10.3316 8.90326 10.2596 8.90771 10.2152 8.90771C10.0172 8.90771 10.169 8.66581 10.3071 8.44568C10.3216 8.42262 10.3359 8.3998 10.3496 8.37753C10.4206 8.26259 10.4436 8.23325 10.4381 8.21096C10.4323 8.18767 10.3955 8.17206 10.3496 8.07466ZM11.6958 8.04514C11.3568 7.99133 11.1666 8.04339 11.1666 8.23308C11.1666 8.41363 11.3471 8.49193 11.6771 8.49072C11.69 8.49491 11.7013 8.49904 11.7109 8.50305C11.6986 8.50889 11.6835 8.51507 11.6658 8.52145L11.7069 8.6409C11.915 8.56586 11.915 8.43232 11.7043 8.36676L11.6953 8.36396L11.6859 8.36403C11.4115 8.3663 11.2902 8.31484 11.2902 8.23308C11.2902 8.15869 11.4053 8.12717 11.6769 8.17028L11.6958 8.04514Z" fill="#F6C540"/>
</g>
</g>
</g>
<defs>
<clipPath id="clip0_58_2541">
<rect width="21.4187" height="16.064" fill="white" transform="translate(0.0249023 0.724243)"/>
</clipPath>
</defs>
</svg>
