<svg width="22" height="17" viewBox="0 0 22 17" fill="none" xmlns="http://www.w3.org/2000/svg">
<g clip-path="url(#clip0_58_2518)">
<rect width="21.4187" height="16.064" transform="translate(0.536865 0.724243)" fill="white"/>
<path fill-rule="evenodd" clip-rule="evenodd" d="M0.827515 0.692261V16.7563H22.2462V0.692261H0.827515Z" fill="#3D58DB"/>
<mask id="mask0_58_2518" style="mask-type:luminance" maskUnits="userSpaceOnUse" x="0" y="0" width="23" height="17">
<path fill-rule="evenodd" clip-rule="evenodd" d="M0.827515 0.692261V16.7563H22.2462V0.692261H0.827515Z" fill="white"/>
</mask>
<g mask="url(#mask0_58_2518)">
<path fill-rule="evenodd" clip-rule="evenodd" d="M6.18215 8.0549L5.6353 10.0255L5.64039 7.98044L4.58217 9.73042L5.13882 7.76257L3.64769 9.16216L4.71463 7.41746L2.90119 8.36285L4.39927 6.97071L2.39802 7.39177L4.21614 6.45544L2.1755 6.32096L4.17882 5.90986L2.25014 5.22981L4.29008 5.37445L2.61639 4.19927L4.54167 4.88892L3.2471 3.30575L4.91492 4.48926L4.09549 2.61554L5.38216 4.20513L5.09864 2.17981L5.90872 4.05759L6.18215 2.03088L6.45557 4.05759L7.26565 2.17981L6.98214 4.20513L8.2688 2.61554L7.44938 4.48926L9.11719 3.30575L7.82263 4.88892L9.7479 4.19927L8.07421 5.37445L10.1142 5.22981L8.18547 5.90986L10.1888 6.32096L8.14815 6.45544L9.96628 7.39177L7.96503 6.97071L9.46311 8.36285L7.64967 7.41746L8.7166 9.16216L7.22548 7.76257L7.78213 9.73042L6.7239 7.98044L6.72899 10.0255L6.18215 8.0549Z" fill="#F7FCFF"/>
<path d="M0.304077 17.2551L23.0884 1.50537V6.63968L0.304077 17.2551Z" fill="white"/>
<path d="M0.304077 17.2551L23.0884 -2.51062V2.62369L0.304077 17.2551Z" fill="#E2AE57"/>
</g>
</g>
<defs>
<clipPath id="clip0_58_2518">
<rect width="21.4187" height="16.064" fill="white" transform="translate(0.536865 0.724243)"/>
</clipPath>
</defs>
</svg>
