<svg width="22" height="17" viewBox="0 0 22 17" fill="none" xmlns="http://www.w3.org/2000/svg">
<g clip-path="url(#clip0_58_2465)">
<rect width="21.4187" height="16.064" transform="translate(0.512329 0.561523)" fill="white"/>
<path fill-rule="evenodd" clip-rule="evenodd" d="M7.49634 0.529541H15.5284V16.5936H7.49634V0.529541Z" fill="#4C67E8"/>
<path fill-rule="evenodd" clip-rule="evenodd" d="M15.5283 0.529541H22.2217V16.5936H15.5283V0.529541Z" fill="#C51918"/>
<path fill-rule="evenodd" clip-rule="evenodd" d="M0.802979 0.529541H8.835V16.5936H0.802979V0.529541Z" fill="#C51918"/>
<path fill-rule="evenodd" clip-rule="evenodd" d="M4.82827 5.13743C4.15 5.13743 4.23903 4.47657 4.23903 4.47657L4.56062 3.78207V4.06183V4.47657C4.56062 4.5659 4.68251 4.38724 4.68251 4.17218C4.68251 3.95711 4.82827 3.63507 4.82827 3.63507C4.82827 3.63507 4.83412 3.52738 4.83815 3.42105C4.86148 3.47576 4.90825 3.52313 4.97925 3.59504C4.99163 3.60758 5.00474 3.62087 5.0186 3.63507C5.1024 3.72094 5.0911 3.94842 5.08132 4.14523C5.07246 4.32347 5.06485 4.47657 5.13026 4.47657C5.2679 4.47657 5.25767 3.8616 5.25767 3.8616L5.48868 4.47657C5.48868 4.47657 5.50653 5.13743 4.82827 5.13743ZM4.82827 3.25012C4.84553 3.14922 4.84335 3.28401 4.83815 3.42105C4.81867 3.37538 4.81553 3.32458 4.82827 3.25012ZM5.84868 6.34192C5.84868 6.87919 5.39917 7.31474 4.84468 7.31474C4.29018 7.31474 3.84068 6.87919 3.84068 6.34192C3.84068 5.80465 4.29018 5.36911 4.84468 5.36911C5.39917 5.36911 5.84868 5.80465 5.84868 6.34192ZM3.32581 8.1628H2.1416V13.8999H3.32581V8.1628ZM7.49624 8.1628H6.31204V13.8999H7.49624V8.1628ZM3.6347 8.21272L4.78911 8.92747L6.09022 8.21272H3.6347ZM4.78911 13.9163L3.6347 13.2015H6.09022L4.78911 13.9163ZM3.6347 9.16059H6.0546V9.60958H3.6347V9.16059ZM6.0546 12.5031H3.6347V12.9521H6.0546V12.5031ZM4.87039 12.2536C5.55285 12.2536 6.10609 11.7176 6.10609 11.0563C6.10609 10.3951 5.55285 9.85901 4.87039 9.85901C4.18794 9.85901 3.6347 10.3951 3.6347 11.0563C3.6347 11.7176 4.18794 12.2536 4.87039 12.2536ZM3.4824 6.6983C3.4824 6.6983 3.524 7.94818 4.75592 7.94818C5.98783 7.94818 6.18666 6.6983 6.18666 6.6983C6.18666 6.6983 5.70983 7.46393 4.83453 7.46393C3.95923 7.46393 3.4824 6.6983 3.4824 6.6983Z" fill="#F8D000"/>
<path d="M5.059 9.88175L5.11421 9.63574C5.39029 9.93779 5.51536 10.1073 5.45627 10.384C5.39031 10.693 5.04353 11.037 4.64064 11.3205C4.39662 11.4922 4.24713 11.9556 4.36823 12.103L4.25275 12.3131C3.98287 11.9847 4.19857 11.365 4.571 11.103C4.91298 10.8623 5.15181 10.61 5.19347 10.4114C5.22059 10.2821 5.27116 10.1139 5.059 9.88175Z" fill="#C51918"/>
<path fill-rule="evenodd" clip-rule="evenodd" d="M5.15364 11.9082C5.33847 11.9082 5.4883 11.7584 5.4883 11.5736C5.4883 11.3887 5.33847 11.2389 5.15364 11.2389C4.96881 11.2389 4.81897 11.3887 4.81897 11.5736C4.81897 11.7584 4.96881 11.9082 5.15364 11.9082Z" fill="#C51918"/>
<path fill-rule="evenodd" clip-rule="evenodd" d="M4.4012 11.005C4.58603 11.005 4.73586 10.8552 4.73586 10.6704C4.73586 10.4855 4.58603 10.3357 4.4012 10.3357C4.21636 10.3357 4.06653 10.4855 4.06653 10.6704C4.06653 10.8552 4.21636 11.005 4.4012 11.005Z" fill="#C51918"/>
</g>
<defs>
<clipPath id="clip0_58_2465">
<rect width="21.4187" height="16.064" fill="white" transform="translate(0.512329 0.561523)"/>
</clipPath>
</defs>
</svg>
