<svg width="22" height="17" viewBox="0 0 22 17" fill="none" xmlns="http://www.w3.org/2000/svg">
<g clip-path="url(#clip0_58_2436)">
<rect width="21.4187" height="16.064" transform="translate(0.349609 0.561523)" fill="white"/>
<path fill-rule="evenodd" clip-rule="evenodd" d="M0.640259 0.529541V16.5936H22.059V0.529541H0.640259Z" fill="#1C9975"/>
<mask id="mask0_58_2436" style="mask-type:luminance" maskUnits="userSpaceOnUse" x="0" y="0" width="23" height="17">
<path fill-rule="evenodd" clip-rule="evenodd" d="M0.640259 0.529541V16.5936H22.059V0.529541H0.640259Z" fill="white"/>
</mask>
<g mask="url(#mask0_58_2436)">
<path fill-rule="evenodd" clip-rule="evenodd" d="M11.3641 5.11694L10.2706 5.77709L10.52 4.48888L9.60938 3.52478L10.8424 3.47265L11.3641 2.26978L11.8858 3.47265H13.1167L12.2082 4.48888L12.4817 5.77709L11.3641 5.11694Z" fill="#FECA00"/>
<path fill-rule="evenodd" clip-rule="evenodd" d="M8.25904 5.60604L7.58291 6.01423L7.73713 5.2177L7.17407 4.62157L7.93648 4.58934L8.25904 3.84558L8.5816 4.58934H9.34272L8.78096 5.2177L8.95008 6.01423L8.25904 5.60604Z" fill="#FECA00"/>
<path fill-rule="evenodd" clip-rule="evenodd" d="M14.4158 5.60604L13.7396 6.01423L13.8939 5.2177L13.3308 4.62157L14.0932 4.58934L14.4158 3.84558L14.7383 4.58934H15.4995L14.9377 5.2177L15.1068 6.01423L14.4158 5.60604Z" fill="#FECA00"/>
<path fill-rule="evenodd" clip-rule="evenodd" d="M6.50799 6.96228L5.96541 7.28983L6.08916 6.65064L5.63733 6.17227L6.24914 6.14641L6.50799 5.54956L6.76683 6.14641H7.3776L6.92681 6.65064L7.06252 7.28983L6.50799 6.96228Z" fill="#FECA00"/>
<path fill-rule="evenodd" clip-rule="evenodd" d="M16.4103 6.96228L15.8677 7.28983L15.9915 6.65064L15.5397 6.17227L16.1515 6.14641L16.4103 5.54956L16.6692 6.14641H17.2799L16.8291 6.65064L16.9649 7.28983L16.4103 6.96228Z" fill="#FECA00"/>
<mask id="mask1_58_2436" style="mask-type:luminance" maskUnits="userSpaceOnUse" x="5" y="4" width="12" height="12">
<path fill-rule="evenodd" clip-rule="evenodd" d="M11.3496 15.2549C14.3069 15.2549 16.7042 12.8575 16.7042 9.90021C16.7042 6.9429 14.3069 4.54553 11.3496 4.54553C8.39225 4.54553 5.99487 6.9429 5.99487 9.90021C5.99487 12.8575 8.39225 15.2549 11.3496 15.2549Z" fill="white"/>
</mask>
<g mask="url(#mask1_58_2436)">
<path fill-rule="evenodd" clip-rule="evenodd" d="M9.12793 14.6283H13.5712V15.3461H9.12793V14.6283Z" fill="#F7FCFF"/>
<path fill-rule="evenodd" clip-rule="evenodd" d="M7.30505 13.5548H15.8498V14.2128H7.30505V13.5548Z" fill="#F7FCFF"/>
<path d="M9.08744 13.2607H6.47388V12.5914L9.08273 12.5914C10.0069 12.5784 10.6822 12.3145 11.1328 11.8066L11.3573 11.5536L11.6079 11.7808C12.2097 12.3264 12.8108 12.5914 13.4188 12.5914H16.2998V13.2607H13.4188C12.7203 13.2607 12.0458 12.9979 11.4009 12.4834C10.8298 12.9896 10.0543 13.2472 9.08744 13.2607Z" fill="#F7FCFF"/>
</g>
<path fill-rule="evenodd" clip-rule="evenodd" d="M11.3729 5.6217C11.3729 5.6217 10.2291 6.75154 10.2291 8.30211C10.2291 8.63402 10.2815 8.94757 10.3639 9.23543C9.99533 8.41869 9.96976 7.53305 10.2878 6.56697L9.85494 6.42447C9.53142 7.40716 9.53003 8.33107 9.85122 9.18732C9.18683 8.78702 8.42244 8.51806 7.63785 8.43133L7.58778 8.88429C8.27343 8.96008 8.94265 9.1887 9.53021 9.52712C9.38515 9.46863 9.23306 9.41776 9.07439 9.37726C7.62665 9.00777 6.2063 9.5317 6.2063 9.5317C6.2063 9.5317 7.02563 11.3698 8.61255 11.6409C8.6915 11.6544 8.76955 11.6649 8.8466 11.6727L8.83506 11.6727C8.07844 11.6727 7.37483 11.3634 6.71596 10.7349L6.40141 11.0647C7.14147 11.7706 7.95545 12.1284 8.83506 12.1284C9.69523 12.1284 10.4941 11.7862 11.2241 11.111C11.3414 11.0401 11.41 10.9894 11.4209 10.9812L11.4497 11.0057C11.4346 11.0315 11.4271 11.0456 11.4271 11.0456C11.4271 11.0456 11.499 11.0891 11.6287 11.1505C12.3495 11.7092 13.2514 12.1284 13.965 12.1284C14.8446 12.1284 15.6586 11.7706 16.3986 11.0647L16.0841 10.7349C15.4252 11.3634 14.7216 11.6727 13.965 11.6727C13.6886 11.6727 13.4177 11.6283 13.152 11.5389C13.5241 11.559 13.9339 11.5255 14.3582 11.3957C15.9214 10.9178 16.573 9.4723 16.573 9.4723C16.573 9.4723 15.7415 9.02359 14.6852 9.01846C14.9218 8.95746 15.1687 8.91274 15.4261 8.88429L15.3761 8.43133C14.3853 8.54086 13.528 8.87531 12.8089 9.43337C13.2294 8.50888 13.262 7.50202 12.9072 6.42447L12.4744 6.56697C12.7642 7.44727 12.7687 8.26079 12.4883 9.01624C12.5363 8.79295 12.5647 8.5543 12.5647 8.30211C12.5647 6.6675 11.3729 5.6217 11.3729 5.6217ZM11.876 10.4059L11.8593 10.4299L11.8796 10.4057L11.876 10.4059ZM10.7705 10.2992L10.8154 10.2579C10.8561 10.3257 10.8968 10.3894 10.9365 10.4489C10.885 10.4004 10.8296 10.3502 10.7705 10.2992Z" fill="#F7FCFF"/>
</g>
</g>
<defs>
<clipPath id="clip0_58_2436">
<rect width="21.4187" height="16.064" fill="white" transform="translate(0.349609 0.561523)"/>
</clipPath>
</defs>
</svg>
