<svg width="22" height="17" viewBox="0 0 22 17" fill="none" xmlns="http://www.w3.org/2000/svg">
<g clip-path="url(#clip0_58_2398)">
<rect width="21.4187" height="16.064" transform="translate(0.187134 0.561523)" fill="white"/>
<path fill-rule="evenodd" clip-rule="evenodd" d="M0.477783 0.529541H23.2352V16.5936H0.477783V0.529541Z" fill="#2993EC"/>
<path fill-rule="evenodd" clip-rule="evenodd" d="M4.63611 8.28275C4.63611 11.8254 7.56906 14.6972 11.187 14.6972C14.805 14.6972 17.738 11.8254 17.738 8.28275C17.738 4.74014 14.805 1.86829 11.187 1.86829C7.56906 1.86829 4.63611 4.74014 4.63611 8.28275ZM16.3138 8.28278C16.3138 11.0553 14.0185 13.3028 11.187 13.3028C8.35555 13.3028 6.0602 11.0553 6.0602 8.28278C6.0602 5.5103 8.35555 3.26276 11.187 3.26276C14.0185 3.26276 16.3138 5.5103 16.3138 8.28278Z" fill="#F1F9FF"/>
<path fill-rule="evenodd" clip-rule="evenodd" d="M5.20581 8.28283C5.20581 11.5174 7.88373 14.1395 11.1871 14.1395C14.4905 14.1395 17.1684 11.5174 17.1684 8.28283C17.1684 5.04827 14.4905 2.42615 11.1871 2.42615C7.88373 2.42615 5.20581 5.04827 5.20581 8.28283ZM16.8836 8.28275C16.8836 11.3633 14.3332 13.8605 11.1871 13.8605C8.04106 13.8605 5.49067 11.3633 5.49067 8.28275C5.49067 5.20222 8.04106 2.70496 11.1871 2.70496C14.3332 2.70496 16.8836 5.20222 16.8836 8.28275Z" fill="#E31D1C"/>
<path fill-rule="evenodd" clip-rule="evenodd" d="M11.1871 2.00781C11.1149 2.15686 11.0788 2.36865 11.0788 2.64319C11.0788 2.91773 10.9724 3.19256 10.7598 3.46765C10.7203 3.16478 10.7006 2.88996 10.7006 2.64319C10.7006 2.39643 10.8628 2.18463 11.1871 2.00781ZM12.6839 2.23449C12.58 2.36347 12.4972 2.56172 12.4354 2.82922C12.3737 3.09673 12.2082 3.34059 11.9392 3.56081C11.9688 3.25681 12.0114 2.9846 12.0669 2.74416C12.1224 2.50371 12.3281 2.33383 12.6839 2.23449ZM13.7125 3.31936C13.8371 3.07474 13.9654 2.90242 14.0974 2.80241C13.7282 2.81272 13.4876 2.92781 13.3755 3.14768C13.2635 3.36755 13.1563 3.62138 13.054 3.90917C13.3684 3.76058 13.5878 3.56398 13.7125 3.31936ZM15.331 3.6649C15.1799 3.73266 15.0161 3.8717 14.8396 4.08201C14.6632 4.29232 14.4051 4.43451 14.0654 4.50858C14.2298 4.25118 14.3913 4.02796 14.55 3.83893C14.7086 3.6499 14.9689 3.59189 15.331 3.6649ZM15.7572 5.07859C15.9765 4.91337 16.1673 4.81474 16.3298 4.78271C15.9934 4.63012 15.7267 4.62807 15.5296 4.77658C15.3325 4.92509 15.1249 5.10625 14.9068 5.32006C15.2545 5.32431 15.5379 5.24382 15.7572 5.07859ZM17.0414 6.10942C16.876 6.10119 16.6669 6.15071 16.4142 6.25798C16.1615 6.36526 15.867 6.37478 15.5307 6.28655C15.7941 6.13186 16.0393 6.0063 16.2665 5.90988C16.4936 5.81346 16.7519 5.87998 17.0414 6.10942ZM16.7777 7.55159C17.048 7.50392 17.2629 7.5027 17.4222 7.54792C17.1918 7.25924 16.955 7.13632 16.712 7.17917C16.469 7.22203 16.2018 7.28919 15.9104 7.38068C16.2182 7.54229 16.5073 7.59927 16.7777 7.55159ZM4.54993 7.06888C4.68417 7.16587 4.88647 7.23821 5.15685 7.28588C5.42722 7.33355 5.6794 7.48597 5.9134 7.74313C5.60827 7.72943 5.33419 7.70115 5.09118 7.6583C4.84816 7.61545 4.66774 7.41898 4.54993 7.06888ZM5.57883 6.00961C5.32611 5.90234 5.14526 5.78635 5.03628 5.66165C5.07233 6.02927 5.20392 6.26129 5.43107 6.35771C5.65822 6.45413 5.91891 6.54334 6.21314 6.62533C6.04298 6.32212 5.83155 6.11688 5.57883 6.00961ZM5.85054 4.3942C5.92612 4.54156 6.07354 4.69785 6.2928 4.86308C6.51206 5.0283 6.66756 5.27859 6.75931 5.61396C6.49366 5.46322 6.26229 5.3136 6.06521 5.16509C5.86814 5.01658 5.79658 4.75962 5.85054 4.3942ZM7.25474 3.90854C7.07826 3.69823 6.96978 3.51278 6.92929 3.35219C6.79451 3.69611 6.80643 3.96259 6.96505 4.15162C7.12367 4.34065 7.31544 4.53849 7.54038 4.74512C7.52642 4.39771 7.43121 4.11885 7.25474 3.90854ZM8.22368 2.58163C8.22701 2.74721 8.29099 2.95231 8.41563 3.19693C8.54027 3.44155 8.57032 3.73468 8.50576 4.07632C8.33307 3.82438 8.19072 3.58848 8.07869 3.36861C7.96666 3.14874 8.01499 2.88642 8.22368 2.58163ZM9.71522 2.76849C9.65347 2.50098 9.641 2.2865 9.67783 2.12503C9.4016 2.37028 9.29124 2.61312 9.34675 2.85356C9.40226 3.094 9.48332 3.35734 9.58994 3.64357C9.73522 3.32769 9.77698 3.036 9.71522 2.76849Z" fill="#FDDA33"/>
<path fill-rule="evenodd" clip-rule="evenodd" d="M10.2408 4.3783C9.99527 4.3783 9.81265 4.6052 9.86513 4.84501L10.1241 6.02821C10.1468 6.13217 10.2104 6.21854 10.2957 6.27198C10.217 6.33316 10.1624 6.42452 10.1498 6.53013L9.2211 14.3249C9.20406 14.4679 9.26803 14.6081 9.39307 14.6795C9.74261 14.8794 10.5005 15.255 11.2583 15.255C12.0162 15.255 12.774 14.8794 13.1236 14.6795C13.2486 14.6081 13.3126 14.4679 13.2955 14.3249L12.3668 6.53012C12.3542 6.42452 12.2996 6.33316 12.2209 6.27198C12.3062 6.21854 12.3698 6.13217 12.3926 6.02821L12.6515 4.84501C12.704 4.6052 12.5214 4.3783 12.2759 4.3783H10.2408Z" fill="#A7A7A7"/>
<path d="M4.84131 8.57014C4.87583 8.45967 4.99527 8.39753 5.10809 8.43133C5.2209 8.46513 5.28437 8.58208 5.24985 8.69255C5.19012 8.88367 5.19012 9.16596 5.25601 9.53529C5.28128 9.67696 5.31133 9.78634 5.34829 9.88296C5.36301 9.92146 5.37824 9.95669 5.39858 10.0004C5.38952 9.98094 5.43917 10.0864 5.45124 10.1137C5.51509 10.2582 5.54332 10.3849 5.54332 10.5704C5.54332 10.6859 5.44768 10.7796 5.32971 10.7796C5.21173 10.7796 5.11609 10.6859 5.11609 10.5704C5.11609 10.4436 5.10039 10.3732 5.05913 10.2798C5.04941 10.2578 5.00303 10.1593 5.00978 10.1738C4.98568 10.122 4.9668 10.0783 4.94819 10.0297C4.90182 9.90843 4.8649 9.77405 4.83515 9.60728C4.75871 9.1788 4.75871 8.83447 4.84131 8.57014Z" fill="#73BE4A"/>
<path fill-rule="evenodd" clip-rule="evenodd" d="M11.3295 11.359L8.57553 13.2354L9.5471 10.091L6.87348 8.1062L10.2279 8.03927L11.3295 4.93616L12.4311 8.03927L15.7855 8.1062L13.1119 10.091L14.0835 13.2354L11.3295 11.359Z" fill="#F7FCFF"/>
<path d="M17.5856 8.84907C17.551 8.7386 17.4316 8.67646 17.3188 8.71026C17.206 8.74406 17.1425 8.86101 17.177 8.97148C17.2368 9.1626 17.2368 9.44489 17.1709 9.81422C17.1456 9.95589 17.1155 10.0653 17.0786 10.1619C17.0639 10.2004 17.0486 10.2356 17.0283 10.2793C17.0374 10.2599 16.9877 10.3653 16.9756 10.3927C16.9118 10.5372 16.8836 10.6638 16.8836 10.8493C16.8836 10.9649 16.9792 11.0585 17.0972 11.0585C17.2152 11.0585 17.3108 10.9649 17.3108 10.8493C17.3108 10.7226 17.3265 10.6522 17.3678 10.5588C17.3775 10.5368 17.4239 10.4382 17.4171 10.4528C17.4412 10.401 17.4601 10.3573 17.4787 10.3086C17.5251 10.1874 17.562 10.053 17.5917 9.88621C17.6682 9.45773 17.6682 9.1134 17.5856 8.84907Z" fill="#73BE4A"/>
<path d="M11.2278 2.63635C11.2278 2.63635 12.0071 2.98356 11.6706 3.53024" stroke="#73BE4A" stroke-width="0.669335" stroke-linecap="round" stroke-linejoin="round"/>
<path d="M11.7974 2.63635C11.7974 2.63635 12.5767 2.98356 12.2401 3.53024" stroke="#73BE4A" stroke-width="0.669335" stroke-linecap="round" stroke-linejoin="round"/>
<path d="M6.6756 4.78441C6.7321 4.6866 6.85078 4.65715 6.94068 4.71863C7.03058 4.7801 7.05765 4.90923 7.00114 5.00703C6.89273 5.19468 6.83629 5.45213 6.83629 5.78225C6.83629 5.89777 6.75022 5.99142 6.64404 5.99142C6.53786 5.99142 6.45178 5.89777 6.45178 5.78225C6.45178 5.37881 6.5249 5.04525 6.6756 4.78441Z" fill="#73BE4A"/>
<path d="M6.37353 6.69586C6.37353 6.81138 6.28745 6.90503 6.18127 6.90503C6.07509 6.90503 5.98901 6.81138 5.98901 6.69586V6.10004C5.98901 5.67845 6.05514 5.34644 6.19458 5.10398C6.2509 5.00605 6.36953 4.97634 6.45954 5.03762C6.54955 5.09889 6.57687 5.22795 6.52054 5.32588C6.42493 5.49214 6.37353 5.7502 6.37353 6.10004V6.69586Z" fill="#73BE4A"/>
<path d="M16.1964 6.41693C16.1964 6.53245 16.2825 6.6261 16.3887 6.6261C16.4949 6.6261 16.5809 6.53245 16.5809 6.41693V5.82111C16.5809 5.39952 16.5148 5.06751 16.3754 4.82505C16.319 4.72712 16.2004 4.69741 16.1104 4.75868C16.0204 4.81996 15.9931 4.94902 16.0494 5.04695C16.145 5.21321 16.1964 5.47127 16.1964 5.82111V6.41693Z" fill="#73BE4A"/>
<path d="M16.7661 7.39313C16.7661 7.50865 16.8522 7.60229 16.9584 7.60229C17.0646 7.60229 17.1506 7.50865 17.1506 7.39313V6.79731C17.1506 6.37571 17.0845 6.0437 16.9451 5.80125C16.8887 5.70332 16.7701 5.67361 16.6801 5.73488C16.5901 5.79616 16.5628 5.92522 16.6191 6.02315C16.7147 6.18941 16.7661 6.44747 16.7661 6.79731V7.39313Z" fill="#73BE4A"/>
</g>
<defs>
<clipPath id="clip0_58_2398">
<rect width="21.4187" height="16.064" fill="white" transform="translate(0.187134 0.561523)"/>
</clipPath>
</defs>
</svg>
