<svg width="22" height="17" viewBox="0 0 22 17" fill="none" xmlns="http://www.w3.org/2000/svg">
<g clip-path="url(#clip0_58_2339)">
<rect width="21.4187" height="16.064" transform="translate(0 0.398926)" fill="white"/>
<mask id="path-1-inside-1_58_2339" fill="white">
<path fill-rule="evenodd" clip-rule="evenodd" d="M6.98408 3.04431H4.30673V5.04733C4.01185 5.11729 3.79248 5.38233 3.79248 5.69861C3.79248 5.70632 3.79261 5.714 3.79287 5.72165H1.62939V8.39899H3.85877C3.94523 8.57796 4.10901 8.71257 4.30673 8.75948V11.0763H6.98408V8.76809C7.20068 8.73138 7.38188 8.5906 7.47444 8.39899H9.66142V5.72165H7.54035C7.54061 5.714 7.54074 5.70632 7.54074 5.69861C7.54074 5.36735 7.30009 5.09229 6.98408 5.03872V3.04431Z"/>
</mask>
<path fill-rule="evenodd" clip-rule="evenodd" d="M6.98408 3.04431H4.30673V5.04733C4.01185 5.11729 3.79248 5.38233 3.79248 5.69861C3.79248 5.70632 3.79261 5.714 3.79287 5.72165H1.62939V8.39899H3.85877C3.94523 8.57796 4.10901 8.71257 4.30673 8.75948V11.0763H6.98408V8.76809C7.20068 8.73138 7.38188 8.5906 7.47444 8.39899H9.66142V5.72165H7.54035C7.54061 5.714 7.54074 5.70632 7.54074 5.69861C7.54074 5.36735 7.30009 5.09229 6.98408 5.03872V3.04431Z" fill="#A0A0A0"/>
<path d="M4.30673 3.04431V2.37498H3.6374V3.04431H4.30673ZM6.98408 3.04431H7.65341V2.37498H6.98408V3.04431ZM4.30673 5.04733L4.46123 5.69859L4.97607 5.57646V5.04733H4.30673ZM3.79287 5.72165V6.39099H4.48522L4.46182 5.69903L3.79287 5.72165ZM1.62939 5.72165V5.05232H0.960059V5.72165H1.62939ZM1.62939 8.39899H0.960059V9.06833H1.62939V8.39899ZM3.85877 8.39899L4.46147 8.10783L4.27877 7.72966H3.85877V8.39899ZM4.30673 8.75948H4.97607V8.23035L4.46123 8.10822L4.30673 8.75948ZM4.30673 11.0763H3.6374V11.7457H4.30673V11.0763ZM6.98408 11.0763V11.7457H7.65341V11.0763H6.98408ZM6.98408 8.76809L6.87221 8.10817L6.31474 8.20267V8.76809H6.98408ZM7.47444 8.39899V7.72966H7.05445L6.87175 8.10783L7.47444 8.39899ZM9.66142 8.39899V9.06833H10.3308V8.39899H9.66142ZM9.66142 5.72165H10.3308V5.05232H9.66142V5.72165ZM7.54035 5.72165L6.8714 5.69901L6.84797 6.39099H7.54035V5.72165ZM6.98408 5.03872H6.31474V5.60414L6.87221 5.69864L6.98408 5.03872ZM4.30673 3.71365H6.98408V2.37498H4.30673V3.71365ZM4.97607 5.04733V3.04431H3.6374V5.04733H4.97607ZM4.46181 5.69861L4.46123 5.69859L4.15224 4.39607C3.56245 4.53598 3.12314 5.06518 3.12314 5.69861H4.46181ZM4.46182 5.69903L4.46181 5.69861H3.12314C3.12314 5.71387 3.1234 5.72909 3.12391 5.74428L4.46182 5.69903ZM1.62939 6.39099H3.79287V5.05232H1.62939V6.39099ZM2.29873 8.39899V5.72165H0.960059V8.39899H2.29873ZM3.85877 7.72966H1.62939V9.06833H3.85877V7.72966ZM4.46123 8.10822L4.46147 8.10783L3.25608 8.69015C3.42861 9.04728 3.75512 9.31653 4.15224 9.41074L4.46123 8.10822ZM4.97607 11.0763V8.75948H3.6374V11.0763H4.97607ZM6.98408 10.407H4.30673V11.7457H6.98408V10.407ZM6.31474 8.76809V11.0763H7.65341V8.76809H6.31474ZM7.09594 9.42801C7.53117 9.35424 7.89252 9.0723 8.07713 8.69015L6.87175 8.10783L6.87221 8.10817L7.09594 9.42801ZM9.66142 7.72966H7.47444V9.06833H9.66142V7.72966ZM8.99208 5.72165V8.39899H10.3308V5.72165H8.99208ZM7.54035 6.39099H9.66142V5.05232H7.54035V6.39099ZM6.8714 5.69861C6.8714 5.69879 6.8714 5.69892 6.8714 5.69901L8.2093 5.7443C8.20982 5.72909 8.21007 5.71386 8.21007 5.69861H6.8714ZM6.87221 5.69864L6.8714 5.69861H8.21007C8.21007 5.03541 7.72847 4.48602 7.09594 4.3788L6.87221 5.69864ZM6.31474 3.04431V5.03872H7.65341V3.04431H6.31474Z" fill="#FECA00" mask="url(#path-1-inside-1_58_2339)"/>
<path fill-rule="evenodd" clip-rule="evenodd" d="M11.0001 0.366943H21.7095V16.431H11.0001V0.366943Z" fill="#E31D1C"/>
<mask id="mask0_58_2339" style="mask-type:luminance" maskUnits="userSpaceOnUse" x="11" y="0" width="11" height="17">
<path fill-rule="evenodd" clip-rule="evenodd" d="M11.0001 0.366943H21.7095V16.431H11.0001V0.366943Z" fill="white"/>
</mask>
<g mask="url(#mask0_58_2339)">
</g>
</g>
<defs>
<clipPath id="clip0_58_2339">
<rect width="21.4187" height="16.064" fill="white" transform="translate(0 0.398926)"/>
</clipPath>
</defs>
</svg>
