<svg width="22" height="17" viewBox="0 0 22 17" fill="none" xmlns="http://www.w3.org/2000/svg">
<g clip-path="url(#clip0_58_2303)">
<rect width="21.4187" height="16.064" transform="translate(0.512329 0.398926)" fill="white"/>
<path fill-rule="evenodd" clip-rule="evenodd" d="M0.802979 0.366943V16.431H22.2217V0.366943H0.802979Z" fill="#E11C1B"/>
<mask id="mask0_58_2303" style="mask-type:luminance" maskUnits="userSpaceOnUse" x="0" y="0" width="23" height="17">
<path fill-rule="evenodd" clip-rule="evenodd" d="M0.802979 0.366943V16.431H22.2217V0.366943H0.802979Z" fill="white"/>
</mask>
<g mask="url(#mask0_58_2303)">
<path fill-rule="evenodd" clip-rule="evenodd" d="M0.802979 0.366943V7.06029H22.2217V0.366943H0.802979Z" fill="#272727"/>
<path fill-rule="evenodd" clip-rule="evenodd" d="M0.802979 11.0763V16.431H22.2217V11.0763H0.802979Z" fill="#5EAA22"/>
<path fill-rule="evenodd" clip-rule="evenodd" d="M3.48141 8.36275V8.36111L3.4751 8.36219L3.48141 8.36275ZM3.90215 5.80657H3.97134L3.86529 5.79033L3.90215 5.80657ZM5.86145 5.80657C5.89651 5.73918 5.93311 5.67253 5.97122 5.60663L4.43882 4.59226L6.24627 5.18022C6.34735 5.03886 6.45573 4.90181 6.57095 4.76945L5.24273 3.50487L6.93535 4.38814C7.05952 4.26957 7.18967 4.15576 7.32538 4.04706L6.25118 2.56313L7.76824 3.72368C7.90937 3.62986 8.05524 3.54111 8.20549 3.45773L7.43175 1.79729L8.71328 3.20403C8.86602 3.13574 9.02241 3.0727 9.18213 3.01519L8.74651 1.23197L9.73882 2.84101C9.89858 2.79832 10.0611 2.76097 10.226 2.72922L10.1532 0.885348L10.8132 2.64127C10.9762 2.6237 11.1411 2.61152 11.3078 2.60494L11.6066 0.768555L11.9055 2.60548C12.0719 2.61235 12.2367 2.62482 12.3994 2.64265L13.06 0.885348L12.9871 2.73176C13.1514 2.76371 13.3133 2.80122 13.4725 2.84405L14.4667 1.23197L14.03 3.01957C14.1888 3.07708 14.3442 3.14006 14.4961 3.20823L15.7814 1.79729L15.005 3.46356C15.154 3.54664 15.2988 3.63502 15.4388 3.72838L16.962 2.56313L15.883 4.05377C16.0174 4.16181 16.1463 4.27486 16.2693 4.3926L17.9705 3.50487L16.635 4.77633C16.749 4.90765 16.8562 5.04356 16.9562 5.1837L18.7744 4.59226L17.2324 5.61296C17.2692 5.67679 17.3046 5.74134 17.3385 5.80657H16.0234C15.117 4.5502 13.4604 3.70907 11.567 3.70907C9.67364 3.70907 8.01707 4.5502 7.11074 5.80657H5.86145ZM7.87082 5.80657C8.72951 4.92089 10.0778 4.35022 11.5939 4.35022C13.1101 4.35022 14.4584 4.92089 15.3171 5.80657H7.87082ZM19.2419 5.80657H19.311L19.3479 5.79033L19.2419 5.80657ZM19.7328 8.36129L19.7381 8.36219L19.7328 8.36266V8.36129Z" fill="#E11C1B"/>
</g>
</g>
<defs>
<clipPath id="clip0_58_2303">
<rect width="21.4187" height="16.064" fill="white" transform="translate(0.512329 0.398926)"/>
</clipPath>
</defs>
</svg>
