<svg width="22" height="17" viewBox="0 0 22 17" fill="none" xmlns="http://www.w3.org/2000/svg">
<g clip-path="url(#clip0_58_2282)">
<rect width="21.4187" height="16.064" transform="translate(0.349609 0.398926)" fill="white"/>
<path fill-rule="evenodd" clip-rule="evenodd" d="M15.3656 0.366943H22.059V16.431H15.3656V0.366943Z" fill="#D9071E"/>
<path fill-rule="evenodd" clip-rule="evenodd" d="M0.640259 0.366943H8.67228V16.431H0.640259V0.366943Z" fill="#006923"/>
<path fill-rule="evenodd" clip-rule="evenodd" d="M7.33362 0.366943H15.3656V16.431H7.33362V0.366943Z" fill="white"/>
<path fill-rule="evenodd" clip-rule="evenodd" d="M9.37875 5.95054C9.3076 6.2552 9.35392 6.32711 9.69788 6.32711C9.71575 6.32711 9.7441 6.3776 9.77493 6.43253C9.80875 6.49278 9.84557 6.55836 9.87486 6.5685C9.86231 6.58512 9.73153 6.82149 9.73091 7.23784C9.73078 7.32357 9.77066 7.46485 9.80897 7.60055C9.85064 7.74815 9.89044 7.88914 9.87486 7.94486C9.84949 8.03556 9.73579 7.93672 9.64769 7.86013C9.5973 7.81633 9.55528 7.77981 9.54295 7.79018C9.48003 7.84311 9.44756 7.42401 9.42793 7.17079C9.4192 7.05804 9.41301 6.97817 9.40782 6.9875C9.38585 6.93907 9.37688 6.87958 9.36802 6.82079C9.34876 6.69297 9.33 6.5685 9.17916 6.5685H8.79089V6.85437C8.79089 6.85437 9.01554 6.85437 9.01554 7.38621C9.01925 7.46569 9.12411 8.16502 9.37875 8.16863C9.22951 8.172 9.23063 8.20179 9.23129 8.21921L9.23137 8.22234C9.23137 8.65015 9.58891 8.6964 9.92308 8.57564C10.1239 8.50306 10.3371 8.36137 10.4968 8.18668C10.7221 7.94022 10.7499 7.62107 10.4541 7.44608C10.3488 7.38378 10.2345 7.35973 10.0746 7.35082C10.1063 7.25703 10.0763 7.17324 10.053 7.10788C10.0335 7.05322 10.0186 7.01145 10.0481 6.9875C10.3831 6.71573 10.413 6.46525 10.1692 6.24058C10.1376 6.21143 10.107 6.17191 10.0755 6.13124C10.0161 6.05456 9.95347 5.97377 9.87486 5.95054C9.91118 5.87724 9.96014 5.78842 10.0216 5.6861L9.44774 5.34155C9.3437 5.51482 9.3611 5.65034 9.37625 5.76845C9.38457 5.83327 9.39222 5.89285 9.37875 5.95054ZM10.0028 7.73502L9.99238 7.74617L9.99946 7.73976C10.0005 7.73785 10.0017 7.73626 10.0028 7.73502ZM9.69914 7.94481C9.699 7.94487 9.69938 7.94479 9.70012 7.94463L9.69914 7.94481ZM9.37877 8.16859C9.38092 8.16855 9.3831 8.1685 9.38532 8.16846ZM9.40784 8.16828C9.39999 8.16828 9.39249 8.16834 9.38532 8.16846L9.39766 8.16822L9.40784 8.16828Z" fill="#A8AC71"/>
<path fill-rule="evenodd" clip-rule="evenodd" d="M10.268 5.66382C10.268 5.66382 9.80831 6.02035 9.89428 6.40045C9.98025 6.78055 10.8862 6.40045 10.7767 6.03213C10.6672 5.66382 10.268 5.66382 10.268 5.66382Z" fill="#FCCA3D"/>
<path fill-rule="evenodd" clip-rule="evenodd" d="M13.5359 8.6687C13.5359 8.6687 14.155 6.83382 13.1708 5.88401C12.1867 4.9342 11.0494 4.99776 11.0494 4.99776C11.0494 4.99776 10.7219 5.24109 11.0494 5.42667C11.3769 5.61225 11.2397 5.79019 11.2397 5.79019C11.2397 5.79019 10.6912 5.23327 10.3271 5.55864C9.96301 5.88401 10.667 5.83449 10.5925 6.07948C10.518 6.32447 10.2022 7.41218 10.6636 7.96133C11.1249 8.51049 10.2274 8.39131 10.4099 8.39131C10.5925 8.39131 11.2397 8.51914 11.2397 8.39131C11.2397 8.26349 11.4647 8.88828 11.6573 8.88828C11.8498 8.88828 11.9984 8.6687 11.9984 8.6687C11.9984 8.6687 12.2684 8.88828 12.4328 8.88828C12.5973 8.88828 13.1708 8.74458 13.1708 8.74458L12.0869 7.83126C12.0869 7.83126 12.1522 7.42841 11.9984 7.34122C11.8447 7.25403 13.2312 8.11392 13.3398 8.39131C13.4484 8.6687 13.5359 8.6687 13.5359 8.6687Z" fill="#8F4620"/>
<path d="M8.04736 8.21606C8.04736 8.21606 8.14786 7.89575 8.25546 7.87351C8.34868 7.85425 8.5447 8.02702 8.5447 8.02702C8.89292 9.9613 9.7349 10.7168 11.132 10.7168C12.5455 10.7168 13.4022 10.1427 13.9021 8.35877C13.9021 8.35877 14.1679 8.08736 14.2616 8.11753C14.3637 8.15037 14.4917 8.50946 14.4917 8.50946C13.9181 10.556 12.8345 11.4672 11.132 11.4672C9.41298 11.4672 8.44719 10.4371 8.04736 8.21606Z" fill="#9FAB2F"/>
<path fill-rule="evenodd" clip-rule="evenodd" d="M9.56521 9.50781C9.56521 9.50781 11.5761 9.93441 12.3699 9.93441C13.1636 9.93441 11.6734 10.5822 11.092 10.5822C10.8377 10.5822 10.5311 10.428 10.1723 10.1196C10.108 10.0644 10.1703 9.9407 9.9744 9.93901C9.70125 9.93665 9.36191 9.87259 9.39438 9.83352C9.42525 9.79638 9.82267 9.78518 9.78437 9.74459C9.72118 9.67761 9.56521 9.50781 9.56521 9.50781Z" fill="#2FC2DC"/>
<rect x="10.4572" y="9.80457" width="1.33867" height="0.717145" rx="0.111556" fill="#F9AA51"/>
<path d="M8.78979 8.49004C8.78979 8.49004 8.78979 8.23899 8.95979 8.10562C9.15467 7.95273 9.33773 8.10562 9.33773 8.10562C10.0509 9.12209 11.1173 9.45648 12.6089 9.10747C12.6089 9.10747 13.0548 9.25321 13.0772 9.34895C13.1057 9.47045 12.7614 9.7592 12.7614 9.7592C11.0178 10.1672 9.66996 9.74459 8.78979 8.49004Z" fill="#259485"/>
<path fill-rule="evenodd" clip-rule="evenodd" d="M11.7454 8.63342C11.7454 8.63342 10.933 9.06105 11.2038 9.06105C11.4746 9.06105 12.5343 9.27486 12.3281 9.06105C12.1219 8.84723 11.7454 8.63342 11.7454 8.63342Z" fill="#FCCA3D"/>
<path fill-rule="evenodd" clip-rule="evenodd" d="M10.785 8.12343C10.785 8.12343 10.6306 7.67761 10.3094 7.67761C9.98819 7.67761 10.0789 8.04332 9.92439 8.04332C9.76993 8.04332 10.0683 8.30067 10.2013 8.30067C10.3343 8.30067 10.785 8.12343 10.785 8.12343Z" fill="#FCCA3D"/>
</g>
<defs>
<clipPath id="clip0_58_2282">
<rect width="21.4187" height="16.064" fill="white" transform="translate(0.349609 0.398926)"/>
</clipPath>
</defs>
</svg>
