<svg width="22" height="17" viewBox="0 0 22 17" fill="none" xmlns="http://www.w3.org/2000/svg">
<g clip-path="url(#clip0_58_2268)">
<rect width="21.4187" height="16.064" transform="translate(0.187134 0.398926)" fill="white"/>
<path fill-rule="evenodd" clip-rule="evenodd" d="M0.477783 0.366943H21.8965V16.431H0.477783V0.366943Z" fill="#F7FCFF"/>
<rect x="0.495972" y="3.71362" width="21.4187" height="1.94107" fill="#E31D1C"/>
<rect x="0.495972" y="7.19421" width="21.4187" height="1.94107" fill="#E31D1C"/>
<rect x="0.55249" y="10.5409" width="21.4187" height="1.67334" fill="#E31D1C"/>
<rect x="0.55249" y="13.8876" width="21.4187" height="1.8072" fill="#E31D1C"/>
<path fill-rule="evenodd" clip-rule="evenodd" d="M0.477783 0.366943H21.8965V2.04028H0.477783V0.366943Z" fill="#E31D1C"/>
<path fill-rule="evenodd" clip-rule="evenodd" d="M0.477783 0.366943H11.1871V8.39896H0.477783V0.366943Z" fill="#3D58DB"/>
<path fill-rule="evenodd" clip-rule="evenodd" d="M2.88306 4.51838C2.88306 5.43953 3.31693 6.31061 4.19962 6.31061C5.52395 6.31061 5.7816 6.02827 6.39956 5.63874C6.54566 5.9669 6.05286 7.37123 4.18154 7.37123C2.68474 7.3411 1.4751 6.13861 1.4751 4.51838C1.4751 2.65862 2.84293 1.65425 4.14398 1.66562C5.29258 1.66562 6.51079 2.31739 6.47346 3.14886C5.93227 2.62019 5.34463 2.62019 4.36641 2.62019C3.38818 2.62019 2.88306 3.59711 2.88306 4.51838Z" fill="#FECA00"/>
<path fill-rule="evenodd" clip-rule="evenodd" d="M7.84052 5.2531L7.22002 6.15882L7.25039 5.06135L6.21601 5.42937L6.88566 4.55935L5.83252 4.24909L6.88566 3.93884L6.21601 3.06882L7.25039 3.43684L7.22002 2.33937L7.84052 3.24509L8.46103 2.33937L8.43066 3.43684L9.46504 3.06882L8.79539 3.93884L9.84853 4.24909L8.79539 4.55935L9.46504 5.42937L8.43066 5.06135L8.46103 6.15882L7.84052 5.2531Z" fill="#FECA00"/>
</g>
<defs>
<clipPath id="clip0_58_2268">
<rect width="21.4187" height="16.064" fill="white" transform="translate(0.187134 0.398926)"/>
</clipPath>
</defs>
</svg>
