<svg width="23" height="17" viewBox="0 0 23 17" fill="none" xmlns="http://www.w3.org/2000/svg">
<g clip-path="url(#clip0_58_2235)">
<rect width="21.4187" height="16.064" transform="translate(0.862061 0.398926)" fill="white"/>
<path fill-rule="evenodd" clip-rule="evenodd" d="M1.15271 0.366943V16.431H22.5714V0.366943H1.15271Z" fill="#009933"/>
<mask id="mask0_58_2235" style="mask-type:luminance" maskUnits="userSpaceOnUse" x="1" y="0" width="22" height="17">
<path fill-rule="evenodd" clip-rule="evenodd" d="M1.15271 0.366943V16.431H22.5714V0.366943H1.15271Z" fill="white"/>
</mask>
<g mask="url(#mask0_58_2235)">
<path fill-rule="evenodd" clip-rule="evenodd" d="M1.15271 0.366943V16.431L22.5714 0.366943H1.15271Z" fill="#3195F9"/>
<path d="M0.474942 18.5016L0.830062 19.145L1.43757 18.7315L24.7518 2.86201L25.2217 2.54213L24.9821 2.0266L23.4146 -1.3463L23.0858 -2.05384L22.4365 -1.62123L-1.22831 14.146L-1.74071 14.4874L-1.44318 15.0264L0.474942 18.5016Z" fill="#E31D1C" stroke="#F7FCFF" stroke-width="1.33867"/>
<path fill-rule="evenodd" clip-rule="evenodd" d="M5.32236 6.5548L4.45618 7.63545L4.24636 6.26649L2.95591 6.76926L3.45868 5.4788L2.08972 5.26899L3.17037 4.40281L2.08972 3.53662L3.45868 3.32681L2.95591 2.03635L4.24636 2.53912L4.45618 1.17017L5.32236 2.25081L6.18855 1.17017L6.39836 2.53912L7.68882 2.03635L7.18604 3.32681L8.555 3.53662L7.47436 4.40281L8.555 5.26899L7.18604 5.4788L7.68882 6.76926L6.39836 6.26649L6.18855 7.63545L5.32236 6.5548ZM5.32236 6.07614C6.24652 6.07614 6.9957 5.32697 6.9957 4.40281C6.9957 3.47865 6.24652 2.72947 5.32236 2.72947C4.3982 2.72947 3.64902 3.47865 3.64902 4.40281C3.64902 5.32697 4.3982 6.07614 5.32236 6.07614ZM6.66108 4.40278C6.66108 5.1421 6.06174 5.74145 5.32241 5.74145C4.58308 5.74145 3.98374 5.1421 3.98374 4.40278C3.98374 3.66345 4.58308 3.06411 5.32241 3.06411C6.06174 3.06411 6.66108 3.66345 6.66108 4.40278Z" fill="#FECA00"/>
</g>
</g>
<defs>
<clipPath id="clip0_58_2235">
<rect width="21.4187" height="16.064" fill="white" transform="translate(0.862061 0.398926)"/>
</clipPath>
</defs>
</svg>
