<svg width="22" height="17" viewBox="0 0 22 17" fill="none" xmlns="http://www.w3.org/2000/svg">
<g clip-path="url(#clip0_58_2192)">
<rect width="21.4187" height="16.064" transform="translate(0 0.23645)" fill="white"/>
<path fill-rule="evenodd" clip-rule="evenodd" d="M15.016 0.204468H21.7093V16.2685H15.016V0.204468Z" fill="#409100"/>
<path fill-rule="evenodd" clip-rule="evenodd" d="M0.290649 0.204468H6.984V16.2685H0.290649V0.204468Z" fill="#409100"/>
<path fill-rule="evenodd" clip-rule="evenodd" d="M6.98401 0.204468H15.016V16.2685H6.98401V0.204468Z" fill="white"/>
<path fill-rule="evenodd" clip-rule="evenodd" d="M8.78812 12.7682C7.74688 12.9376 7.41856 12.4294 7.41856 12.4294L7.5497 12.3217C7.63777 12.2494 7.93442 12.2742 8.22252 12.2983C8.36341 12.3101 8.50225 12.3217 8.61365 12.3217C8.77617 12.3217 8.96318 12.2972 9.15802 12.2717L9.15804 12.2717C9.36988 12.2439 9.59097 12.2149 9.79985 12.2149C10.2009 12.2149 8.61365 11.6905 8.27445 12.0121C7.93524 12.3337 6.98401 11.8631 6.98401 11.5947C6.98401 11.4116 7.3342 11.4784 7.65362 11.5393C7.80234 11.5676 7.9444 11.5947 8.04133 11.5947C8.34645 11.5947 7.73621 10.9995 7.41856 10.9995C7.10091 10.9995 7.73621 10.8612 8.04133 10.8612C8.21507 10.8612 8.37652 10.906 8.51555 10.9447C8.62068 10.9738 8.713 10.9995 8.78812 10.9995C8.96258 10.9995 7.91204 10.5479 7.73621 10.5479H8.61365C8.9148 10.5479 8.98792 10.5904 9.05722 10.6306C9.11963 10.6668 9.17893 10.7012 9.39884 10.7012C9.86296 10.7012 9.60883 10.4474 9.60883 10.4474C9.60883 10.4474 8.04133 10.2846 7.73621 10.0599C7.52988 9.90787 8.08356 9.96142 8.60688 10.012C8.85748 10.0363 9.10112 10.0599 9.251 10.0599C9.71389 10.0599 8.27445 9.72943 8.04133 9.72943H9.10214C9.33436 9.72943 9.58931 9.80411 9.8568 9.88246C10.152 9.96892 10.4624 10.0599 10.7745 10.0599C11.1035 10.0599 10.461 9.86361 9.75513 9.64802C9.18475 9.4738 8.57303 9.28696 8.39922 9.18084C8.21938 9.07104 8.35618 9.11357 8.60534 9.19101L8.60534 9.19102C8.89498 9.28105 9.33645 9.41827 9.60883 9.41827C10.1155 9.41827 8.93472 8.92119 8.61365 8.92119C8.29258 8.92119 7.9852 8.77668 8.27445 8.64311C8.45204 8.5611 8.91458 8.68463 9.31744 8.79221L9.31745 8.79221C9.57072 8.85985 9.80041 8.92119 9.92086 8.92119C10.0669 8.92119 10.1749 8.97806 10.2898 9.03856C10.4204 9.10735 10.5599 9.18084 10.7745 9.18084C11.1778 9.18084 9.92086 8.64311 9.39884 8.64311C8.87682 8.64311 8.78812 8.38986 9.10214 8.38986C9.41616 8.38986 8.39922 7.9584 8.39922 7.9584C8.39922 7.9584 8.25179 7.65239 8.61365 7.65239H9.10214C9.26955 7.65239 8.93472 7.12168 8.61365 7.12168C8.29258 7.12168 8.57259 6.96135 9.10214 6.96135C9.42414 6.96135 9.61253 7.07249 9.8392 7.20622C9.98529 7.29241 10.1473 7.38798 10.3712 7.46923C10.9426 7.67654 10.5116 7.12168 10.3712 7.12168C10.2308 7.12168 8.78812 6.66945 8.78812 6.66945C8.78812 6.66945 8.93472 6.50286 8.78812 6.27602C8.67748 6.10484 9.1379 6.19202 9.41827 6.2451L9.41828 6.24511C9.50943 6.26237 9.58155 6.27602 9.60883 6.27602C9.67519 6.27602 9.8658 6.32339 10.0999 6.38157L10.0999 6.38158L10.1 6.38159C10.2579 6.42084 10.4356 6.46501 10.6083 6.50286C11.037 6.59682 9.15217 5.81072 8.93472 5.81072C8.71728 5.81072 9.39884 5.68155 9.79985 5.68155C9.99702 5.68155 10.0921 5.71277 10.1888 5.74452C10.2888 5.77734 10.3904 5.81072 10.6083 5.81072C11.037 5.81072 9.79985 5.35126 9.39884 5.35126C8.99783 5.35126 9.23492 4.95564 9.39884 4.95564C9.46266 4.95564 9.62418 4.97686 9.82145 5.00279C10.1309 5.04345 10.5282 5.09568 10.7745 5.09568C10.962 5.09568 10.7906 5.04314 10.5414 4.96673L10.5414 4.96673C10.2546 4.87878 9.8646 4.7592 9.79985 4.6517C9.72839 4.53304 9.87381 4.55454 10.1274 4.59203H10.1274C10.1732 4.59881 10.2226 4.60611 10.2749 4.61319C10.4478 4.70379 10.5922 4.7623 10.6133 4.69321C10.6194 4.67333 10.633 4.65913 10.6502 4.64891C10.6911 4.6507 10.7325 4.6517 10.7745 4.6517C11.0135 4.6517 10.9031 4.61527 10.673 4.57169L10.6524 4.56538C10.3033 4.45866 9.54792 4.2305 9.8305 4.3713C9.88585 4.39887 9.94805 4.4329 10.0126 4.46883C9.82211 4.44359 9.66202 4.42609 9.60883 4.42609C9.4178 4.42609 9.22623 4.27849 9.60883 4.27849H10.3712C10.1341 4.27849 9.79985 4.27849 9.79985 4.09223C9.79985 3.96546 10.0645 4.01125 10.3083 4.05344L10.3083 4.05344C10.4228 4.07323 10.5326 4.09223 10.6083 4.09223C10.8454 4.09223 10.9044 4.09223 10.7745 3.98143C10.6511 3.87622 10.2258 3.87673 9.96157 3.87705L9.92086 3.87709C9.66208 3.87709 10.4696 3.74186 10.7745 3.74186C10.8257 3.74186 10.8484 3.74186 10.8484 3.7409C10.8484 3.74013 10.8344 3.73876 10.8092 3.73631H10.8092L10.8092 3.73631L10.8091 3.73631C10.6765 3.72341 10.2357 3.68055 9.92086 3.53814C9.63923 3.41074 9.88595 3.44267 10.209 3.48449H10.209L10.209 3.48449L10.209 3.48449H10.209C10.4025 3.50954 10.6234 3.53814 10.7745 3.53814C11.1778 3.53814 10.6083 3.26693 10.1796 3.26693C9.83558 3.26693 9.99953 3.17295 10.2123 3.05099C10.2646 3.021 10.3198 2.98932 10.3712 2.95694C10.5259 2.85944 10.6391 3.02577 10.7056 3.12336C10.7509 3.19004 10.7745 3.22463 10.7745 3.12105C10.7745 3.01995 10.7484 2.9558 10.7272 2.92208C10.7386 2.93158 10.754 2.94327 10.7745 2.95694C10.9407 3.06781 10.7745 2.66606 10.7745 2.66606C10.7745 2.66606 10.6083 2.55512 10.7745 2.55512C10.9407 2.55512 10.721 2.36439 10.6083 2.36439C10.4956 2.36439 10.9044 2.18192 10.9044 2.18192L10.9945 1.4093C10.9945 1.4093 11.2173 2.25118 11.2173 2.36439V2.95694C11.2173 3.098 11.1176 3.19643 11.0509 3.26228C10.9672 3.34486 10.9354 3.37623 11.2173 3.37623C11.724 3.37623 11.7024 3.53814 11.394 3.53814C11.0856 3.53814 11.4825 3.74186 12.0363 3.74186C12.5901 3.74186 11.5719 3.98143 11.2173 3.98143C10.8627 3.98143 11.5719 4.09223 12.0363 4.09223C12.3499 4.09223 12.0282 4.20062 11.7315 4.30062C11.5887 4.34871 11.4518 4.39487 11.394 4.42609C11.3019 4.47584 11.5288 4.47411 11.7693 4.46086C11.6429 4.4981 11.5174 4.53626 11.4222 4.56538L11.4222 4.56538C11.3067 4.6007 11.2676 4.61264 11.2685 4.61745C11.2689 4.6199 11.2798 4.62049 11.2962 4.62138C11.3447 4.62402 11.4417 4.6293 11.4613 4.69321C11.4904 4.78859 11.7546 4.64078 12.0042 4.50111C12.0442 4.47874 12.0838 4.45657 12.122 4.43565C12.1877 4.4301 12.2299 4.42609 12.2299 4.42609C12.2299 4.42609 12.4594 4.6909 12.4594 4.8526C12.4594 4.94692 12.1575 4.97471 11.8355 5.00435L11.803 5.00735C11.8191 4.9861 11.7507 4.99722 11.6501 5.02209C11.4831 5.03927 11.3254 5.06054 11.2173 5.09568C11.114 5.12923 11.1314 5.14324 11.2154 5.14624L11.1925 5.15322C11.1134 5.1774 11.0863 5.18569 11.0869 5.19046C11.0872 5.19295 11.0951 5.19448 11.1071 5.1968C11.1421 5.20358 11.2121 5.21713 11.2316 5.28104C11.2608 5.37643 11.4372 5.25545 11.6039 5.14113L11.6196 5.13032C11.6719 5.12695 11.7254 5.12333 11.7783 5.11975C11.9597 5.10748 12.1342 5.09568 12.2299 5.09568C12.5288 5.09568 11.931 5.23977 11.7024 5.23977C11.6051 5.23977 11.7277 5.2618 11.9146 5.2954C12.167 5.34076 12.5367 5.40722 12.6412 5.46902C12.766 5.54288 12.3994 5.51531 12.0732 5.49078L12.0732 5.49078C11.9244 5.47958 11.7839 5.46902 11.7024 5.46902C11.4423 5.46902 11.394 5.68155 11.5719 5.68155H12.2299C12.4787 5.68155 12.7378 6.06225 12.6412 6.06225C12.6119 6.06225 12.5492 6.08187 12.4617 6.10922C12.2606 6.17216 11.9286 6.27602 11.5719 6.27602C11.0603 6.27602 12.2299 6.27657 12.4594 6.27602C12.6889 6.27547 13.3436 6.27657 13.3436 6.50286C13.3436 6.64363 13.2196 6.67455 13.0572 6.71507C12.9586 6.73969 12.8457 6.76785 12.7378 6.82634C12.4523 6.98109 13.5916 7.12168 13.5916 7.12168C13.5916 7.12168 13.1407 7.26193 12.9212 7.26193C12.7018 7.26193 13.0233 7.46923 13.5916 7.46923C14.0312 7.46923 13.9022 7.70813 13.8212 7.85797C13.7975 7.9018 13.7779 7.93802 13.7779 7.9584C13.7779 7.9978 13.6948 8.0318 13.5743 8.08102C13.4196 8.14426 13.2034 8.23263 13.0233 8.38986C12.816 8.57076 13.0678 8.51757 13.3523 8.45748C13.5076 8.4247 13.6725 8.38986 13.7779 8.38986C14.0766 8.38986 14.2039 8.40231 14.1066 8.54716C14.0093 8.69201 13.1407 8.92119 12.9212 8.92119H14.1066C14.4353 8.92119 14.0146 9.18084 13.5916 9.18084C13.3079 9.18084 13.1491 9.28762 13.0445 9.35796C12.9932 9.39251 12.9548 9.41827 12.9212 9.41827H13.7779C13.8216 9.41827 13.8696 9.3485 13.9135 9.28457C13.9522 9.22835 13.9878 9.17663 14.0146 9.18084C14.4021 9.24166 14.2282 9.72943 14.0146 9.72943C13.7693 9.72943 13.0233 9.89389 13.1407 10.0599C13.1975 10.1402 13.2862 10.1039 13.4301 10.045C13.5835 9.98228 13.7996 9.89389 14.1066 9.89389C14.7015 9.89389 14.1638 10.0599 14.0146 10.0599C13.8653 10.0599 13.2337 10.1804 13.0233 10.2846C12.8828 10.3542 13.3716 10.3309 13.8578 10.3077H13.8578H13.8578C14.1 10.2961 14.3414 10.2846 14.5042 10.2846C14.9938 10.2846 13.3436 10.7012 12.7378 10.7012C12.132 10.7012 13.1407 10.8612 13.3436 10.8612C13.4214 10.8612 13.5725 10.8816 13.7587 10.9066C14.0579 10.9469 14.4479 10.9995 14.7709 10.9995C15.2949 10.9995 14.2469 11.3447 13.7779 11.3447L13.6707 11.3444C13.2526 11.3427 12.9382 11.3414 13.1407 11.5947C13.2532 11.7356 13.6278 11.6972 14.0188 11.6572C14.3899 11.6192 14.7758 11.5797 14.9663 11.6905C15.3086 11.8896 13.7941 11.8724 13.1408 11.865C13.0473 11.8639 12.9715 11.8631 12.9212 11.8631C12.5195 11.8631 13.323 12.0121 14.0146 12.0121L14.1018 12.0121C14.7197 12.0117 14.8662 12.0116 14.8662 12.2149C14.8662 12.3935 13.5201 12.3473 12.9583 12.3281H12.9583L12.9583 12.3281L12.9577 12.328L12.9575 12.328L12.9571 12.328L12.9566 12.328L12.9565 12.328C12.8508 12.3244 12.7732 12.3217 12.7378 12.3217C12.6302 12.3217 12.5678 12.3867 12.5033 12.454C12.4341 12.5262 12.3625 12.6009 12.2299 12.6009C12.1207 12.6009 12.0694 12.531 12.0227 12.4673C11.9597 12.3815 11.9049 12.3069 11.7279 12.4294C11.4195 12.6429 12.0363 14.796 12.0363 14.796H10.3712V12.7682C10.3712 12.7682 9.82935 12.5988 8.78812 12.7682ZM10.7011 2.89286C10.6988 2.89334 10.7052 2.90357 10.7272 2.92208C10.7144 2.90163 10.7034 2.89237 10.7011 2.89286ZM10.1218 10.9297C9.85865 10.8307 10.5254 10.8256 10.8338 10.8256C10.9332 10.8256 10.9685 10.8256 10.9707 10.8341C10.9719 10.8388 10.9631 10.8461 10.9494 10.8574C10.9109 10.8892 10.8338 10.9528 10.8338 11.0801C10.8338 11.27 10.5838 11.1479 10.3476 11.0325C10.2673 10.9933 10.1885 10.9549 10.1218 10.9297ZM10.6668 10.1546C10.3584 10.1546 9.69173 10.1597 9.95483 10.2587C10.0216 10.2839 10.1004 10.3223 10.1807 10.3616C10.4169 10.4769 10.6668 10.599 10.6668 10.4091C10.6668 10.2819 10.7439 10.2182 10.7825 10.1864C10.7962 10.1751 10.805 10.1678 10.8038 10.1631C10.8016 10.1546 10.7663 10.1546 10.6668 10.1546ZM10.1107 9.70608C9.89591 9.65406 10.4402 9.65138 10.692 9.65138C10.7747 9.65138 10.8031 9.65138 10.8039 9.65612C10.8043 9.65859 10.7972 9.66236 10.7864 9.66809C10.755 9.6848 10.692 9.71822 10.692 9.78505C10.692 9.8848 10.4879 9.82068 10.2951 9.76009L10.2951 9.76009L10.2951 9.76009L10.2951 9.76008C10.2295 9.73948 10.1652 9.71928 10.1107 9.70608ZM10.6524 7.58466C10.3033 7.47794 9.54792 7.24978 9.8305 7.39058C9.90222 7.42631 9.98545 7.47288 10.0704 7.52039C10.32 7.66006 10.5842 7.80787 10.6133 7.71249C10.6329 7.64858 10.7299 7.6433 10.7784 7.64066C10.7948 7.63977 10.8057 7.63918 10.8061 7.63673C10.807 7.63192 10.7679 7.61998 10.6524 7.58466L10.6524 7.58466ZM9.8305 6.71969C9.54792 6.5789 10.3033 6.80705 10.6524 6.91377L10.6524 6.91378C10.7679 6.94909 10.807 6.96103 10.8061 6.96584C10.8057 6.96829 10.7948 6.96888 10.7784 6.96977C10.7299 6.97241 10.6329 6.97769 10.6133 7.0416C10.5842 7.13699 10.32 6.98917 10.0704 6.8495C9.98545 6.80199 9.90222 6.75542 9.8305 6.71969ZM10.6524 6.07506C10.3033 5.96834 9.54792 5.74018 9.8305 5.88098C9.90222 5.91671 9.98545 5.96328 10.0704 6.01079C10.32 6.15046 10.5842 6.29828 10.6133 6.20289C10.6329 6.13898 10.7299 6.1337 10.7784 6.13106C10.7948 6.13017 10.8057 6.12958 10.8061 6.12713C10.807 6.12232 10.7679 6.11038 10.6524 6.07506L10.6524 6.07506ZM11.4077 10.6578C11.7161 10.6578 12.3828 10.6629 12.1197 10.762C12.053 10.7871 11.9742 10.8256 11.8939 10.8648C11.6577 10.9802 11.4077 11.1022 11.4077 10.9123C11.4077 10.7851 11.3306 10.7215 11.2921 10.6896C11.2784 10.6784 11.2696 10.6711 11.2708 10.6664C11.273 10.6578 11.3083 10.6578 11.4077 10.6578ZM12.1197 10.2587C12.3828 10.1597 11.7161 10.1546 11.4077 10.1546C11.3083 10.1546 11.273 10.1546 11.2708 10.1631C11.2696 10.1678 11.2784 10.1751 11.2921 10.1864C11.3306 10.2182 11.4077 10.2819 11.4077 10.4091C11.4077 10.599 11.6577 10.4769 11.8939 10.3616C11.9742 10.3223 12.053 10.2839 12.1197 10.2587ZM12.5324 9.09843L12.5324 9.09843L12.5324 9.09843L12.5324 9.09842C12.5599 9.09207 12.5608 9.09187 12.525 9.10054C12.4541 9.11771 12.3055 9.17614 12.1383 9.24191C11.7988 9.37539 11.3825 9.53911 11.3825 9.44957C11.3825 9.38273 11.3196 9.34932 11.2881 9.33261C11.2773 9.32687 11.2702 9.32311 11.2707 9.32063C11.2715 9.3159 11.2998 9.3159 11.3825 9.3159C11.5924 9.3159 12.3949 9.13023 12.5324 9.09843ZM12.2441 7.05509C12.5267 6.9143 11.7712 7.14245 11.4222 7.24918L11.4222 7.24918L11.4221 7.24919L11.4221 7.2492L11.4221 7.2492L11.4221 7.24921L11.4221 7.24921C11.3066 7.2845 11.2676 7.29644 11.2685 7.30124C11.2689 7.30369 11.2797 7.30429 11.2962 7.30518H11.2962C11.3447 7.30782 11.4417 7.31309 11.4613 7.37701C11.4904 7.47239 11.7546 7.32458 12.0042 7.1849C12.0891 7.13739 12.1724 7.09083 12.2441 7.05509ZM11.4222 7.92015C11.7712 7.81342 12.5267 7.58527 12.2441 7.72606C12.1724 7.7618 12.0891 7.80836 12.0042 7.85587C11.7546 7.99555 11.4904 8.14336 11.4613 8.04798C11.4417 7.98406 11.3447 7.97878 11.2962 7.97615H11.2962C11.2797 7.97525 11.2689 7.97466 11.2685 7.97221C11.2676 7.96741 11.3066 7.95547 11.4221 7.92018L11.4221 7.92017L11.4221 7.92017L11.4221 7.92016L11.4222 7.92015L11.4222 7.92015ZM12.2441 6.3842C12.5267 6.24341 11.7712 6.47157 11.4222 6.57829L11.4222 6.57829L11.4221 6.5783L11.4221 6.57831L11.4221 6.57832C11.3066 6.61361 11.2676 6.62555 11.2685 6.63035C11.2689 6.63281 11.2798 6.6334 11.2962 6.63429C11.3447 6.63693 11.4417 6.6422 11.4613 6.70612C11.4904 6.8015 11.7546 6.65369 12.0042 6.51402C12.0891 6.46651 12.1724 6.41994 12.2441 6.3842ZM11.1925 5.99193C11.4333 5.91831 11.9546 5.76172 11.7644 5.87428C11.7162 5.90283 11.6606 5.94091 11.604 5.97977L11.6039 5.97978L11.6039 5.97983L11.6039 5.97984C11.4372 6.09416 11.2608 6.21514 11.2316 6.11976C11.2121 6.05584 11.1421 6.04229 11.1071 6.03551C11.0951 6.03319 11.0872 6.03166 11.0869 6.02917C11.0863 6.0244 11.1134 6.01611 11.1925 5.99193ZM11.3462 8.54473C11.0697 8.54473 11.3462 8.32621 11.3462 8.32621H11.4886C11.5374 8.32621 11.5811 8.30609 11.6384 8.27965C11.748 8.22908 11.9077 8.15543 12.2499 8.15543C12.7708 8.15543 11.6227 8.54473 11.3462 8.54473Z" fill="#409100"/>
</g>
<defs>
<clipPath id="clip0_58_2192">
<rect width="21.4187" height="16.064" fill="white" transform="translate(0 0.23645)"/>
</clipPath>
</defs>
</svg>
