<svg width="23" height="17" viewBox="0 0 23 17" fill="none" xmlns="http://www.w3.org/2000/svg">
<g clip-path="url(#clip0_58_2162)">
<rect width="21.4187" height="16.064" transform="translate(0.674805 0.23645)" fill="white"/>
<path fill-rule="evenodd" clip-rule="evenodd" d="M0.965454 0.204468V16.2685H22.3842V0.204468H0.965454Z" fill="#F7FCFF"/>
<mask id="mask0_58_2162" style="mask-type:luminance" maskUnits="userSpaceOnUse" x="0" y="0" width="23" height="17">
<path fill-rule="evenodd" clip-rule="evenodd" d="M0.965454 0.204468V16.2685H22.3842V0.204468H0.965454Z" fill="white"/>
</mask>
<g mask="url(#mask0_58_2162)">
<path fill-rule="evenodd" clip-rule="evenodd" d="M0.965454 0.204468V5.55915H22.3842V0.204468H0.965454Z" fill="#0080EC"/>
<path fill-rule="evenodd" clip-rule="evenodd" d="M0.965454 10.9138V16.2685H22.3842V10.9138H0.965454Z" fill="#0080EC"/>
<path fill-rule="evenodd" clip-rule="evenodd" d="M11.6749 5.55908C11.801 5.55908 11.9251 5.56781 12.0466 5.58468L11.9141 6.43877C11.8358 6.42846 11.756 6.42314 11.6749 6.42314C11.557 6.42314 11.4417 6.43439 11.3301 6.45588L11.2681 5.58978C11.4008 5.56957 11.5366 5.55908 11.6749 5.55908ZM12.4461 5.67181L12.2134 6.50444C12.9519 6.7338 13.4882 7.42249 13.4882 8.23643C13.4882 8.25644 13.4879 8.27638 13.4872 8.29623L14.349 8.36929C14.3512 8.32527 14.3522 8.28097 14.3522 8.23642C14.3522 7.02585 13.5488 6.00293 12.4461 5.67181ZM14.0266 9.51725C13.6023 10.2946 12.8038 10.8384 11.8732 10.9065V10.039C12.369 9.98508 12.8047 9.73132 13.0983 9.35996L14.0266 9.51725ZM9.38363 9.62219C9.82805 10.3554 10.6145 10.8583 11.5217 10.9095V10.0433C10.993 9.99911 10.5288 9.72803 10.2267 9.32774L9.38363 9.62219ZM8.99998 8.35123C8.99837 8.31316 8.99756 8.27489 8.99756 8.23642C8.99756 7.0996 9.70608 6.12827 10.7056 5.73992L10.9291 6.58313C10.3033 6.86585 9.86676 7.4934 9.86166 8.2235L8.99998 8.35123Z" fill="#D0AB00"/>
<path fill-rule="evenodd" clip-rule="evenodd" d="M11.6581 6.1947L9.82617 9.36118H13.5187L11.6581 6.1947Z" fill="#7CDFFF"/>
<mask id="mask1_58_2162" style="mask-type:luminance" maskUnits="userSpaceOnUse" x="9" y="6" width="5" height="4">
<path fill-rule="evenodd" clip-rule="evenodd" d="M11.6581 6.1947L9.82617 9.36118H13.5187L11.6581 6.1947Z" fill="white"/>
</mask>
<g mask="url(#mask1_58_2162)">
<path d="M11.675 10.3235C12.5588 10.3235 13.2753 9.607 13.2753 8.72317C13.2753 7.83934 12.5588 7.12285 11.675 7.12285C10.7911 7.12285 10.0746 7.83934 10.0746 8.72317C10.0746 9.607 10.7911 10.3235 11.675 10.3235Z" stroke="#E31D1C" stroke-width="0.669335"/>
<path d="M11.675 10.3235C12.5588 10.3235 13.2753 9.607 13.2753 8.72317C13.2753 7.83934 12.5588 7.12285 11.675 7.12285C10.7911 7.12285 10.0746 7.83934 10.0746 8.72317C10.0746 9.607 10.7911 10.3235 11.675 10.3235Z" stroke="#FFD018" stroke-width="0.669335"/>
<path d="M11.675 10.3235C12.5588 10.3235 13.2753 9.607 13.2753 8.72317C13.2753 7.83934 12.5588 7.12285 11.675 7.12285C10.7911 7.12285 10.0746 7.83934 10.0746 8.72317C10.0746 9.607 10.7911 10.3235 11.675 10.3235Z" stroke="#4EDD00" stroke-width="0.669335"/>
<path d="M11.675 10.3235C12.5588 10.3235 13.2753 9.607 13.2753 8.72317C13.2753 7.83934 12.5588 7.12285 11.675 7.12285C10.7911 7.12285 10.0746 7.83934 10.0746 8.72317C10.0746 9.607 10.7911 10.3235 11.675 10.3235Z" stroke="#3D58DB" stroke-width="0.669335"/>
<rect x="9.67908" y="8.38232" width="4.18639" height="1.21697" fill="#3D58DB"/>
<path fill-rule="evenodd" clip-rule="evenodd" d="M9.95935 8.89969L10.7937 8.06995L11.0498 8.48482L11.2287 7.97888L11.4274 8.35813L11.636 8.06995L11.906 8.35813L12.1536 7.97888L12.3652 8.35813L12.608 8.06995L13.1753 8.67281L13.2774 8.89969L9.95935 9.068V8.89969Z" fill="#97C923"/>
</g>
</g>
</g>
<defs>
<clipPath id="clip0_58_2162">
<rect width="21.4187" height="16.064" fill="white" transform="translate(0.674805 0.23645)"/>
</clipPath>
</defs>
</svg>
