<svg width="22" height="17" viewBox="0 0 22 17" fill="none" xmlns="http://www.w3.org/2000/svg">
<g clip-path="url(#clip0_58_2136)">
<rect width="21.4187" height="16.064" transform="translate(0.187134 0.23645)" fill="white"/>
<rect x="0.187134" y="0.23645" width="21.4187" height="16.064" fill="white"/>
<path d="M8.25271 8.45074L14.4886 15.9338H0.812451V0.768229L13.8907 7.90182H8.5098H7.79527L8.25271 8.45074Z" fill="#C51918" stroke="#4857A1" stroke-width="0.669335"/>
<mask id="mask0_58_2136" style="mask-type:luminance" maskUnits="userSpaceOnUse" x="0" y="0" width="16" height="17">
<path d="M8.25271 8.45074L14.4886 15.9338H0.812451V0.768229L13.8907 7.90182H8.5098H7.79527L8.25271 8.45074Z" fill="white" stroke="white" stroke-width="0.669335"/>
</mask>
<g mask="url(#mask0_58_2136)">
<path fill-rule="evenodd" clip-rule="evenodd" d="M4.37971 13.5981L3.55966 14.6623L3.52181 13.3193L2.2328 13.6983L2.9916 12.5895L1.72598 12.1385L2.9916 11.6875L2.2328 10.5787L3.52181 10.9577L3.55966 9.61465L4.37971 10.6789L5.19976 9.61465L5.23761 10.9577L6.52662 10.5787L5.76783 11.6875L7.03344 12.1385L5.76783 12.5895L6.52662 13.6983L5.23761 13.3193L5.19976 14.6623L4.37971 13.5981Z" fill="#F7FCFF"/>
<path fill-rule="evenodd" clip-rule="evenodd" d="M4.35991 5.65206L3.93165 6.20788L3.91188 5.50648L3.2387 5.70443L3.63498 5.12536L2.97402 4.88982L3.63498 4.65427L3.2387 4.07521L3.91188 4.27315L3.93165 3.57175L4.35991 4.12758L4.78817 3.57175L4.80794 4.27315L5.48112 4.07521L5.08484 4.65427L5.7458 4.88982L5.08484 5.12536L5.48112 5.70443L4.80794 5.50648L4.78817 6.20788L4.35991 5.65206Z" fill="#F7FCFF"/>
<path fill-rule="evenodd" clip-rule="evenodd" d="M4.27033 5.48826C5.76048 5.49421 6.55498 4.64884 6.55498 4.64884C6.71216 5.61346 5.49864 6.25525 4.28485 6.25525C3.07106 6.25525 2.33617 5.38042 1.88342 4.64884C1.88342 4.64884 2.78017 5.48231 4.27033 5.48826Z" fill="#F9FAFA"/>
</g>
</g>
<defs>
<clipPath id="clip0_58_2136">
<rect width="21.4187" height="16.064" fill="white" transform="translate(0.187134 0.23645)"/>
</clipPath>
</defs>
</svg>
