<svg width="23" height="17" viewBox="0 0 23 17" fill="none" xmlns="http://www.w3.org/2000/svg">
<g clip-path="url(#clip0_58_2097)">
<rect width="21.4187" height="16.064" transform="translate(0.862061 0.23645)" fill="white"/>
<path fill-rule="evenodd" clip-rule="evenodd" d="M1.15271 0.204468V16.2685H22.5714V0.204468H1.15271Z" fill="#2E42A5"/>
<mask id="mask0_58_2097" style="mask-type:luminance" maskUnits="userSpaceOnUse" x="1" y="0" width="22" height="17">
<path fill-rule="evenodd" clip-rule="evenodd" d="M1.15271 0.204468V16.2685H22.5714V0.204468H1.15271Z" fill="white"/>
</mask>
<g mask="url(#mask0_58_2097)">
<path fill-rule="evenodd" clip-rule="evenodd" d="M1.15271 10.9138V16.2685H22.5714V10.9138H1.15271Z" fill="#FECA00"/>
<path d="M-0.36145 10.3312L3.88395 11.3134L12.9341 6.3128L13.8917 5.75282L22.4884 1.2578L24.525 -0.161881L19.8666 -0.5915L12.3556 3.6454L6.92771 6.3128L-0.36145 10.3312Z" fill="white"/>
<path d="M0.0115967 10.9265L2.29734 11.6763L23.6752 -0.340314H20.4658L0.0115967 10.9265Z" fill="#F50100"/>
<path d="M24.1582 10.0643L24.3268 11.075L19.8401 11.3132L12.6072 7.07678L11.9253 7.30977L-1.5785 0.479353L3.99694 -0.593816L11.4506 3.52385L17.2815 6.34126L24.1582 10.0643Z" fill="white"/>
<path d="M24.1737 10.6708L21.888 11.4205L12.785 6.27561L10.0862 5.70078L-1.02859 -0.155555H2.18086L13.2894 5.56177L16.2401 6.25106L24.1737 10.6708Z" fill="#F50100"/>
<path d="M9.98055 -0.632202V-1.46887H9.14388V-0.632202H9.98055ZM9.98055 3.38381V4.22048H10.8172V3.38381H9.98055ZM0.31604 3.38381V2.54714H-0.520629V3.38381H0.31604ZM0.31604 7.73449H-0.520629V8.57115H0.31604V7.73449ZM9.98055 7.73449H10.8172V6.89782H9.98055V7.73449ZM9.98055 13.0892H9.14388V13.9258H9.98055V13.0892ZM13.7881 13.0892V13.9258H14.6248V13.0892H13.7881ZM13.7881 7.73449V6.89782H12.9514V7.73449H13.7881ZM23.4081 7.73449V8.57115H24.2448V7.73449H23.4081ZM23.4081 3.38381H24.2448V2.54714H23.4081V3.38381ZM13.7881 3.38381H12.9514V4.22048H13.7881V3.38381ZM13.7881 -0.632202H14.6248V-1.46887H13.7881V-0.632202ZM12.1148 3.38381V4.22048H12.9514V3.38381H12.1148ZM12.1148 1.04114H12.9514V0.204467H12.1148V1.04114ZM11.6539 1.04114V0.204467H10.8172V1.04114H11.6539ZM11.6539 3.38381H10.8172V4.22048H11.6539V3.38381ZM12.1148 5.05715H12.9514V4.22048H12.1148V5.05715ZM11.6539 5.05715V4.22048H10.8172V5.05715H11.6539ZM12.1148 6.06115V6.89782H12.9514V6.06115H12.1148ZM11.6539 6.06115H10.8172V6.89782H11.6539V6.06115ZM9.98055 5.05715H10.8172V4.22048H9.98055V5.05715ZM1.98938 5.05715V4.22048H1.15271V5.05715H1.98938ZM1.98938 6.06115H1.15271V6.89782H1.98938V6.06115ZM9.98055 6.06115V6.89782H10.8172V6.06115H9.98055ZM11.6539 7.73449V6.89782H10.8172V7.73449H11.6539ZM11.6539 11.4158H10.8172V12.2525H11.6539V11.4158ZM12.1148 11.4158V12.2525H12.9514V11.4158H12.1148ZM12.1148 7.73449H12.9514V6.89782H12.1148V7.73449ZM13.7881 5.05715V4.22048H12.9514V5.05715H13.7881ZM13.7881 6.06115H12.9514V6.89782H13.7881V6.06115ZM21.7348 5.05715H22.5714V4.22048H21.7348V5.05715ZM21.7348 6.06115V6.89782H22.5714V6.06115H21.7348ZM9.98055 0.204467H10.8172V-1.46887H9.98055V0.204467ZM10.8172 0.204467V-0.632202H9.14388V0.204467H10.8172ZM10.8172 3.38381V0.204467H9.14388V3.38381H10.8172ZM1.15271 4.22048H9.98055V2.54714H1.15271V4.22048ZM0.31604 4.22048H1.15271V2.54714H0.31604V4.22048ZM1.15271 4.22048V3.38381H-0.520629V4.22048H1.15271ZM1.15271 6.89782V4.22048H-0.520629V6.89782H1.15271ZM1.15271 7.73449V6.89782H-0.520629V7.73449H1.15271ZM1.15271 6.89782H0.31604V8.57115H1.15271V6.89782ZM9.98055 6.89782H1.15271V8.57115H9.98055V6.89782ZM10.8172 12.2525V7.73449H9.14388V12.2525H10.8172ZM10.8172 13.0892V12.2525H9.14388V13.0892H10.8172ZM10.8172 12.2525H9.98055V13.9258H10.8172V12.2525ZM12.9514 12.2525H10.8172V13.9258H12.9514V12.2525ZM13.7881 12.2525H12.9514V13.9258H13.7881V12.2525ZM12.9514 12.2525V13.0892H14.6248V12.2525H12.9514ZM12.9514 7.73449V12.2525H14.6248V7.73449H12.9514ZM22.5714 6.89782H13.7881V8.57115H22.5714V6.89782ZM23.4081 6.89782H22.5714V8.57115H23.4081V6.89782ZM22.5714 6.89782V7.73449H24.2448V6.89782H22.5714ZM22.5714 4.22048V6.89782H24.2448V4.22048H22.5714ZM22.5714 3.38381V4.22048H24.2448V3.38381H22.5714ZM22.5714 4.22048H23.4081V2.54714H22.5714V4.22048ZM13.7881 4.22048H22.5714V2.54714H13.7881V4.22048ZM12.9514 0.204467V3.38381H14.6248V0.204467H12.9514ZM12.9514 -0.632202V0.204467H14.6248V-0.632202H12.9514ZM12.9514 0.204467H13.7881V-1.46887H12.9514V0.204467ZM10.8172 0.204467H12.9514V-1.46887H10.8172V0.204467ZM12.9514 3.38381V1.04114H11.2781V3.38381H12.9514ZM12.1148 0.204467H11.6539V1.8778H12.1148V0.204467ZM10.8172 1.04114V3.38381H12.4906V1.04114H10.8172ZM11.6539 4.22048H12.1148V2.54714H11.6539V4.22048ZM12.1148 4.22048H11.6539V5.89381H12.1148V4.22048ZM12.9514 6.06115V5.05715H11.2781V6.06115H12.9514ZM11.6539 6.89782H12.1148V5.22448H11.6539V6.89782ZM10.8172 5.05715V6.06115H12.4906V5.05715H10.8172ZM9.98055 4.22048H1.98938V5.89381H9.98055V4.22048ZM1.15271 5.05715V6.06115H2.82605V5.05715H1.15271ZM1.98938 6.89782H9.98055V5.22448H1.98938V6.89782ZM10.8172 6.06115V5.05715H9.14388V6.06115H10.8172ZM10.8172 7.73449V11.4158H12.4906V7.73449H10.8172ZM11.6539 12.2525H12.1148V10.5792H11.6539V12.2525ZM12.9514 11.4158V7.73449H11.2781V11.4158H12.9514ZM12.1148 6.89782H11.6539V8.57115H12.1148V6.89782ZM12.9514 5.05715V6.06115H14.6248V5.05715H12.9514ZM21.7348 4.22048H13.7881V5.89381H21.7348V4.22048ZM22.5714 6.06115V5.05715H20.8981V6.06115H22.5714ZM13.7881 6.89782H21.7348V5.22448H13.7881V6.89782Z" fill="white"/>
<path fill-rule="evenodd" clip-rule="evenodd" d="M12.9948 -0.687988H10.7294V4.2205H1.15271V6.89784H10.7294V13.1449H12.9948V6.89784H23.9101V4.2205H12.9948V-0.687988Z" fill="#F50100"/>
<path fill-rule="evenodd" clip-rule="evenodd" d="M11.8956 7.29951C12.9122 7.29951 13.7363 6.47541 13.7363 5.45884C13.7363 4.44226 12.9122 3.61816 11.8956 3.61816C10.879 3.61816 10.0549 4.44226 10.0549 5.45884C10.0549 6.47541 10.879 7.29951 11.8956 7.29951Z" fill="#2E42A5"/>
<path fill-rule="evenodd" clip-rule="evenodd" d="M11.929 6.02187L11.0603 6.62638L11.3668 5.61338L10.5234 4.97399L11.5816 4.95243L11.929 3.95276L12.2765 4.95243L13.3346 4.97399L12.4913 5.61338L12.7978 6.62638L11.929 6.02187Z" fill="#FECA00"/>
<path fill-rule="evenodd" clip-rule="evenodd" d="M5.90498 5.94484L5.18105 6.4486L5.43644 5.60443L4.73364 5.07161L5.61541 5.05364L5.90498 4.22058L6.19455 5.05364L7.07632 5.07161L6.37351 5.60443L6.6289 6.4486L5.90498 5.94484Z" fill="#FECA00"/>
<path fill-rule="evenodd" clip-rule="evenodd" d="M17.953 5.94484L17.229 6.4486L17.4844 5.60443L16.7816 5.07161L17.6634 5.05364L17.953 4.22058L18.2425 5.05364L19.1243 5.07161L18.4215 5.60443L18.6769 6.4486L17.953 5.94484Z" fill="#FECA00"/>
<path fill-rule="evenodd" clip-rule="evenodd" d="M11.929 2.73195L11.2051 3.2357L11.4605 2.39154L10.7577 1.85872L11.6395 1.84075L11.929 1.00769L12.2186 1.84075L13.1004 1.85872L12.3976 2.39154L12.653 3.2357L11.929 2.73195Z" fill="#FECA00"/>
<path fill-rule="evenodd" clip-rule="evenodd" d="M11.929 9.82692L11.2051 10.3307L11.4605 9.48651L10.7577 8.95369L11.6395 8.93572L11.929 8.10266L12.2186 8.93572L13.1004 8.95369L12.3976 9.48651L12.653 10.3307L11.929 9.82692Z" fill="#FECA00"/>
</g>
</g>
<defs>
<clipPath id="clip0_58_2097">
<rect width="21.4187" height="16.064" fill="white" transform="translate(0.862061 0.23645)"/>
</clipPath>
</defs>
</svg>
