<svg width="23" height="17" viewBox="0 0 23 17" fill="none" xmlns="http://www.w3.org/2000/svg">
<g clip-path="url(#clip0_58_2084)">
<rect width="21.4187" height="16.064" transform="translate(0.699463 0.23645)" fill="white"/>
<path fill-rule="evenodd" clip-rule="evenodd" d="M0.990112 0.204468V16.2685H22.4088V0.204468H0.990112Z" fill="#2E42A5"/>
<mask id="mask0_58_2084" style="mask-type:luminance" maskUnits="userSpaceOnUse" x="0" y="0" width="23" height="17">
<path fill-rule="evenodd" clip-rule="evenodd" d="M0.990112 0.204468V16.2685H22.4088V0.204468H0.990112Z" fill="white"/>
</mask>
<g mask="url(#mask0_58_2084)">
</g>
<g clip-path="url(#clip1_58_2084)">
<rect width="12.048" height="9.37069" transform="translate(0.699463 0.23645)" fill="#2E42A5"/>
<path d="M-0.64209 8.93757L2.00911 10.1003L12.8076 1.50054L14.2061 -0.227371L11.371 -0.616003L6.96654 3.0899L3.42141 5.58681L-0.64209 8.93757Z" fill="#F7FCFF"/>
<path d="M-0.279175 9.75235L1.07149 10.4271L13.7039 -0.387801H11.8074L-0.279175 9.75235Z" fill="#F50100"/>
<path d="M14.089 8.93757L11.4378 10.1003L0.639272 1.50054L-0.759177 -0.227371L2.0759 -0.616003L6.48036 3.0899L10.0255 5.58681L14.089 8.93757Z" fill="#F7FCFF"/>
<path d="M13.9985 9.52237L12.6479 10.1971L7.26887 5.56671L5.67412 5.04937L-0.89373 -0.221335H1.00276L7.56692 4.92426L9.3105 5.54462L13.9985 9.52237Z" fill="#F50100"/>
<path fill-rule="evenodd" clip-rule="evenodd" d="M7.38245 0.23645H6.04378V4.25246H0.699463V5.59113H6.04378V9.60714H7.38245V5.59113H12.7475V4.25246H7.38245V0.23645Z" fill="#F50100"/>
<path fill-rule="evenodd" clip-rule="evenodd" d="M5.03977 0.23645H8.38645V3.24846H12.7475V6.59513H8.38645L8.39682 9.60714H5.05014L5.03977 6.59513H0.699463V3.24846H5.03977V0.23645ZM6.04378 4.25246H0.699463V5.59113H6.04378V9.60714H7.38245V5.59113H12.7475V4.25246H7.38245V0.23645H6.04378V4.25246Z" fill="#F7FCFF"/>
</g>
<path fill-rule="evenodd" clip-rule="evenodd" d="M17.121 5.20478L16.9472 6.21817L17.8573 5.73971L18.7674 6.21817L18.5935 5.20478L19.3298 4.4871L18.3123 4.33925L17.8573 3.41724L17.4022 4.33925L16.3847 4.4871L17.121 5.20478ZM14.4437 8.95304L14.2699 9.96643L15.1799 9.48797L16.09 9.96643L15.9162 8.95304L16.6525 8.23536L15.635 8.08751L15.1799 7.1655L14.7249 8.08751L13.7074 8.23536L14.4437 8.95304ZM16.6702 13.232L16.4448 14.5463L17.6251 13.9258L18.8054 14.5463L18.5799 13.232L19.5348 12.3013L18.2152 12.1095L17.6251 10.9138L17.0349 12.1095L15.7154 12.3013L16.6702 13.232ZM18.9546 9.96332L19.1282 8.95106L18.3927 8.23417L19.4091 8.08648L19.8636 7.1655L20.3182 8.08648L21.3345 8.23417L20.5991 8.95106L20.7727 9.96332L19.8636 9.48539L18.9546 9.96332Z" fill="#F50100"/>
<path d="M16.9472 6.21817L16.8153 6.19554L16.7694 6.46288L17.0095 6.33666L16.9472 6.21817ZM17.121 5.20478L17.2529 5.22741L17.2648 5.15805L17.2144 5.10892L17.121 5.20478ZM17.8573 5.73971L17.9196 5.62122L17.8573 5.58847L17.795 5.62122L17.8573 5.73971ZM18.7674 6.21817L18.7051 6.33666L18.9451 6.46288L18.8993 6.19554L18.7674 6.21817ZM18.5935 5.20478L18.5001 5.10892L18.4497 5.15805L18.4616 5.22741L18.5935 5.20478ZM19.3298 4.4871L19.4233 4.58296L19.6175 4.39363L19.3491 4.35462L19.3298 4.4871ZM18.3123 4.33925L18.1923 4.39849L18.2234 4.4616L18.2931 4.47172L18.3123 4.33925ZM17.8573 3.41724L17.9773 3.35799L17.8573 3.11476L17.7372 3.35799L17.8573 3.41724ZM17.4022 4.33925L17.4215 4.47172L17.4911 4.4616L17.5223 4.39849L17.4022 4.33925ZM16.3847 4.4871L16.3655 4.35462L16.0971 4.39363L16.2913 4.58296L16.3847 4.4871ZM14.2699 9.96643L14.1379 9.9438L14.0921 10.2111L14.3322 10.0849L14.2699 9.96643ZM14.4437 8.95304L14.5756 8.97567L14.5875 8.90631L14.5371 8.85718L14.4437 8.95304ZM15.1799 9.48797L15.2422 9.36948L15.1799 9.33673L15.1176 9.36948L15.1799 9.48797ZM16.09 9.96643L16.0277 10.0849L16.2678 10.2111L16.222 9.9438L16.09 9.96643ZM15.9162 8.95304L15.8228 8.85718L15.7724 8.90631L15.7843 8.97567L15.9162 8.95304ZM16.6525 8.23536L16.7459 8.33122L16.9401 8.14189L16.6717 8.10288L16.6525 8.23536ZM15.635 8.08751L15.5149 8.14675L15.5461 8.20986L15.6157 8.21998L15.635 8.08751ZM15.1799 7.1655L15.3 7.10625L15.1799 6.86302L15.0599 7.10625L15.1799 7.1655ZM14.7249 8.08751L14.7441 8.21998L14.8138 8.20986L14.8449 8.14675L14.7249 8.08751ZM13.7074 8.23536L13.6881 8.10288L13.4197 8.14189L13.614 8.33122L13.7074 8.23536ZM16.4448 14.5463L16.3129 14.5236L16.267 14.791L16.5071 14.6648L16.4448 14.5463ZM16.6702 13.232L16.8022 13.2546L16.8141 13.1853L16.7637 13.1362L16.6702 13.232ZM17.6251 13.9258L17.6874 13.8073L17.6251 13.7745L17.5628 13.8073L17.6251 13.9258ZM18.8054 14.5463L18.7431 14.6648L18.9831 14.791L18.9373 14.5236L18.8054 14.5463ZM18.5799 13.232L18.4865 13.1362L18.4361 13.1853L18.448 13.2546L18.5799 13.232ZM19.5348 12.3013L19.6282 12.3971L19.8225 12.2078L19.5541 12.1688L19.5348 12.3013ZM18.2152 12.1095L18.0952 12.1688L18.1263 12.2319L18.196 12.242L18.2152 12.1095ZM17.6251 10.9138L17.7451 10.8545L17.6251 10.6113L17.505 10.8545L17.6251 10.9138ZM17.0349 12.1095L17.0542 12.242L17.1238 12.2319L17.155 12.1688L17.0349 12.1095ZM15.7154 12.3013L15.6961 12.1688L15.4277 12.2078L15.6219 12.3971L15.7154 12.3013ZM19.1282 8.95106L19.2601 8.97369L19.272 8.90432L19.2216 8.8552L19.1282 8.95106ZM18.9546 9.96332L18.8226 9.94069L18.7768 10.208L19.0169 10.0818L18.9546 9.96332ZM18.3927 8.23417L18.3735 8.10169L18.1051 8.1407L18.2993 8.33003L18.3927 8.23417ZM19.4091 8.08648L19.4284 8.21896L19.498 8.20884L19.5292 8.14573L19.4091 8.08648ZM19.8636 7.1655L19.9837 7.10625L19.8636 6.86302L19.7436 7.10625L19.8636 7.1655ZM20.3182 8.08648L20.1981 8.14573L20.2293 8.20884L20.2989 8.21896L20.3182 8.08648ZM21.3345 8.23417L21.428 8.33003L21.6222 8.1407L21.3538 8.10169L21.3345 8.23417ZM20.5991 8.95106L20.5057 8.8552L20.4553 8.90432L20.4672 8.97369L20.5991 8.95106ZM20.7727 9.96332L20.7104 10.0818L20.9505 10.208L20.9046 9.94069L20.7727 9.96332ZM19.8636 9.48539L19.9259 9.3669L19.8636 9.33415L19.8013 9.3669L19.8636 9.48539ZM17.0791 6.2408L17.2529 5.22741L16.9891 5.18215L16.8153 6.19554L17.0791 6.2408ZM17.795 5.62122L16.8849 6.09968L17.0095 6.33666L17.9196 5.8582L17.795 5.62122ZM18.8296 6.09968L17.9196 5.62122L17.795 5.8582L18.7051 6.33666L18.8296 6.09968ZM18.4616 5.22741L18.6354 6.2408L18.8993 6.19554L18.7255 5.18215L18.4616 5.22741ZM19.2364 4.39124L18.5001 5.10892L18.687 5.30064L19.4233 4.58296L19.2364 4.39124ZM18.2931 4.47172L19.3106 4.61957L19.3491 4.35462L18.3316 4.20677L18.2931 4.47172ZM17.7372 3.47648L18.1923 4.39849L18.4324 4.28L17.9773 3.35799L17.7372 3.47648ZM17.5223 4.39849L17.9773 3.47648L17.7372 3.35799L17.2822 4.28L17.5223 4.39849ZM16.404 4.61957L17.4215 4.47172L17.383 4.20677L16.3655 4.35462L16.404 4.61957ZM17.2144 5.10892L16.4782 4.39124L16.2913 4.58296L17.0276 5.30064L17.2144 5.10892ZM14.4018 9.98906L14.5756 8.97567L14.3117 8.93041L14.1379 9.9438L14.4018 9.98906ZM15.1176 9.36948L14.2076 9.84794L14.3322 10.0849L15.2422 9.60646L15.1176 9.36948ZM16.1523 9.84794L15.2422 9.36948L15.1176 9.60646L16.0277 10.0849L16.1523 9.84794ZM15.7843 8.97567L15.9581 9.98906L16.222 9.9438L16.0481 8.93041L15.7843 8.97567ZM16.559 8.1395L15.8228 8.85718L16.0096 9.0489L16.7459 8.33122L16.559 8.1395ZM15.6157 8.21998L16.6332 8.36783L16.6717 8.10288L15.6542 7.95503L15.6157 8.21998ZM15.0599 7.22474L15.5149 8.14675L15.755 8.02826L15.3 7.10625L15.0599 7.22474ZM14.8449 8.14675L15.3 7.22474L15.0599 7.10625L14.6049 8.02826L14.8449 8.14675ZM13.7266 8.36783L14.7441 8.21998L14.7056 7.95503L13.6881 8.10288L13.7266 8.36783ZM14.5371 8.85718L13.8008 8.1395L13.614 8.33122L14.3502 9.0489L14.5371 8.85718ZM16.5767 14.5689L16.8022 13.2546L16.5383 13.2094L16.3129 14.5236L16.5767 14.5689ZM17.5628 13.8073L16.3825 14.4278L16.5071 14.6648L17.6874 14.0443L17.5628 13.8073ZM18.8676 14.4278L17.6874 13.8073L17.5628 14.0443L18.7431 14.6648L18.8676 14.4278ZM18.448 13.2546L18.6734 14.5689L18.9373 14.5236L18.7119 13.2094L18.448 13.2546ZM19.4414 12.2054L18.4865 13.1362L18.6734 13.3279L19.6282 12.3971L19.4414 12.2054ZM18.196 12.242L19.5156 12.4337L19.5541 12.1688L18.2345 11.977L18.196 12.242ZM17.505 10.973L18.0952 12.1688L18.3353 12.0503L17.7451 10.8545L17.505 10.973ZM17.155 12.1688L17.7451 10.973L17.505 10.8545L16.9149 12.0503L17.155 12.1688ZM15.7346 12.4337L17.0542 12.242L17.0157 11.977L15.6961 12.1688L15.7346 12.4337ZM16.7637 13.1362L15.8088 12.2054L15.6219 12.3971L16.5768 13.3279L16.7637 13.1362ZM18.9963 8.92843L18.8226 9.94069L19.0865 9.98595L19.2601 8.97369L18.9963 8.92843ZM18.2993 8.33003L19.0348 9.04692L19.2216 8.8552L18.4862 8.13831L18.2993 8.33003ZM19.3899 7.95401L18.3735 8.10169L18.412 8.36664L19.4284 8.21896L19.3899 7.95401ZM19.7436 7.10625L19.2891 8.02724L19.5292 8.14573L19.9837 7.22474L19.7436 7.10625ZM20.4382 8.02724L19.9837 7.10625L19.7436 7.22474L20.1981 8.14573L20.4382 8.02724ZM21.3538 8.10169L20.3374 7.95401L20.2989 8.21896L21.3153 8.36664L21.3538 8.10169ZM20.6925 9.04692L21.428 8.33003L21.2411 8.13831L20.5057 8.8552L20.6925 9.04692ZM20.9046 9.94069L20.731 8.92843L20.4672 8.97369L20.6408 9.98595L20.9046 9.94069ZM19.8013 9.60388L20.7104 10.0818L20.835 9.84483L19.9259 9.3669L19.8013 9.60388ZM19.0169 10.0818L19.9259 9.60388L19.8013 9.3669L18.8923 9.84483L19.0169 10.0818Z" fill="#F7FCFF"/>
</g>
<defs>
<clipPath id="clip0_58_2084">
<rect width="21.4187" height="16.064" fill="white" transform="translate(0.699463 0.23645)"/>
</clipPath>
<clipPath id="clip1_58_2084">
<rect width="12.048" height="9.37069" fill="white" transform="translate(0.699463 0.23645)"/>
</clipPath>
</defs>
</svg>
