<svg width="22" height="17" viewBox="0 0 22 17" fill="none" xmlns="http://www.w3.org/2000/svg">
<g clip-path="url(#clip0_58_2059)">
<rect width="21.4187" height="16.064" transform="translate(0.536865 0.23645)" fill="white"/>
<path fill-rule="evenodd" clip-rule="evenodd" d="M0.827515 0.204468V16.2685H22.2462V0.204468H0.827515Z" fill="#F50101"/>
<mask id="mask0_58_2059" style="mask-type:luminance" maskUnits="userSpaceOnUse" x="0" y="0" width="23" height="17">
<path fill-rule="evenodd" clip-rule="evenodd" d="M0.827515 0.204468V16.2685H22.2462V0.204468H0.827515Z" fill="white"/>
</mask>
<g mask="url(#mask0_58_2059)">
<path fill-rule="evenodd" clip-rule="evenodd" d="M0.827515 0.204468V5.55915H22.2462V0.204468H0.827515Z" fill="#F7FCFF"/>
<path fill-rule="evenodd" clip-rule="evenodd" d="M0.827515 10.9138V16.2685H22.2462V10.9138H0.827515Z" fill="#5EAA22"/>
<rect x="0.827515" y="0.204468" width="8.03202" height="16.064" fill="#F50101"/>
<path fill-rule="evenodd" clip-rule="evenodd" d="M8.03663 1.56514C8.04296 1.50409 7.96486 1.4806 7.93372 1.5335C7.69084 1.9461 7.08203 2.92763 6.07988 4.21119V3.59693C5.98428 3.49304 5.67953 3.21354 5.67953 3.21354V2.60021L6.23085 2.1013L5.47365 1.5431L4.67557 2.1013L5.27881 2.60021V3.21354C5.27881 3.50764 4.91309 3.59693 4.91309 3.59693L4.84613 4.13792C3.91381 2.92726 3.33254 1.98329 3.08638 1.56137C3.05462 1.50692 2.97471 1.53257 2.9841 1.59491C3.0584 2.08831 3.28061 3.1831 3.89447 4.35199H3.72982V4.3302C3.72982 4.29806 3.70376 4.272 3.67161 4.272H2.26019C2.22804 4.272 2.20199 4.29806 2.20199 4.3302V5.2178C2.20199 5.24995 2.22804 5.276 2.26019 5.276H3.67161C3.70376 5.276 3.72982 5.24995 3.72982 5.2178V4.75183H3.90758C3.96788 4.89083 4.10633 4.9888 4.26824 4.99164C4.38134 5.16615 4.504 5.34018 4.63701 5.51203C4.33113 5.48178 2.30869 5.30957 2.30869 6.04532C2.30869 6.48448 2.80059 6.71693 3.41749 6.83708C2.79633 7.39957 2.21003 7.92882 1.94028 8.17219C1.89651 8.21168 1.93072 8.28008 1.98794 8.2659C2.46966 8.14652 3.73237 7.77819 4.9344 6.95814L4.97179 6.95819C5.31031 6.95819 5.54577 6.81133 5.70941 6.61255C6.93198 7.61049 8.31512 8.07139 8.91551 8.23653C8.97781 8.25367 9.01149 8.17304 8.95841 8.1362C8.47075 7.7977 7.37109 6.98305 6.24668 5.79978L6.27613 5.76529C6.50554 5.49458 6.70543 5.21611 6.87959 4.93691C6.95249 4.8943 7.01054 4.82946 7.04422 4.75183H7.22199V5.2178C7.22199 5.24995 7.24805 5.276 7.28019 5.276H8.69162C8.72376 5.276 8.74982 5.24995 8.74982 5.2178V4.3302C8.74982 4.29806 8.72376 4.272 8.69162 4.272H7.28019C7.26525 4.272 7.25162 4.27763 7.24131 4.28689C7.81852 3.11855 7.98797 2.03446 8.03663 1.56514ZM7.22199 4.35199V4.3302L7.22219 4.32532L7.20877 4.35199H7.22199ZM4.60283 4.59587C4.60283 4.77474 4.45625 4.91974 4.27543 4.91974C4.09462 4.91974 3.94804 4.77474 3.94804 4.59587C3.94804 4.417 4.09462 4.272 4.27543 4.272C4.45625 4.272 4.60283 4.417 4.60283 4.59587ZM6.34885 4.59586C6.34885 4.77473 6.49543 4.91973 6.67625 4.91973C6.85706 4.91973 7.00364 4.77473 7.00364 4.59586C7.00364 4.41699 6.85706 4.27199 6.67625 4.27199C6.49543 4.27199 6.34885 4.41699 6.34885 4.59586Z" fill="#F7FCFF"/>
</g>
</g>
<defs>
<clipPath id="clip0_58_2059">
<rect width="21.4187" height="16.064" fill="white" transform="translate(0.536865 0.23645)"/>
</clipPath>
</defs>
</svg>
