<svg width="23" height="17" viewBox="0 0 23 17" fill="none" xmlns="http://www.w3.org/2000/svg">
<g clip-path="url(#clip0_58_2005)">
<rect width="21.4187" height="16.064" transform="translate(0.837402 0.0738525)" fill="white"/>
<path fill-rule="evenodd" clip-rule="evenodd" d="M6.48279 0.0418701H17.8615V16.1059H6.48279V0.0418701Z" fill="#F7FCFF"/>
<path fill-rule="evenodd" clip-rule="evenodd" d="M17.1921 0.0418701H22.5468V16.1059H17.1921V0.0418701Z" fill="#F50101"/>
<path fill-rule="evenodd" clip-rule="evenodd" d="M1.12805 0.0418701H6.48273V16.1059H1.12805V0.0418701Z" fill="#F50101"/>
<path d="M11.6643 5.89522L11.6867 6.13748C11.0184 6.20507 10.6573 5.87853 10.6573 5.2008C10.6573 4.52831 11.0106 4.17086 11.6748 4.16663L11.6762 4.41002C11.1381 4.41344 10.8902 4.66431 10.8902 5.2008C10.8902 5.73207 11.1303 5.94922 11.6643 5.89522Z" fill="#A2BB6A"/>
<path d="M11.9602 5.89522L11.9378 6.13748C12.6061 6.20507 12.9672 5.87853 12.9672 5.2008C12.9672 4.52831 12.6139 4.17086 11.9497 4.16663L11.9483 4.41002C12.4864 4.41344 12.7344 4.66431 12.7344 5.2008C12.7344 5.73207 12.4942 5.94922 11.9602 5.89522Z" fill="#A2BB6A"/>
<path fill-rule="evenodd" clip-rule="evenodd" d="M12.4325 11.5028C12.6247 11.5717 13.9275 11.5028 13.9275 11.5028V11.8657H13.0638C12.7755 11.8657 12.6666 11.9173 12.5666 11.9646C12.4819 12.0047 12.4037 12.0417 12.2283 12.0417C11.8868 12.0417 11.893 11.7877 11.8982 11.5762C11.8989 11.5509 11.8995 11.5263 11.8995 11.5028C11.8995 11.413 11.8854 11.3628 11.8745 11.3238C11.8586 11.267 11.8493 11.2338 11.8995 11.1362C11.9841 10.9713 12.7887 10.9933 12.7887 11.1362C12.7887 11.2035 12.6667 11.2736 12.558 11.3361C12.4362 11.406 12.331 11.4664 12.4325 11.5028ZM11.2616 11.5029C11.0694 11.5717 9.7666 11.5029 9.7666 11.5029V11.8657H10.6304C10.9186 11.8657 11.0275 11.9173 11.1275 11.9647C11.2122 12.0048 11.2904 12.0418 11.4658 12.0418C11.8073 12.0418 11.8011 11.7877 11.7959 11.5762C11.7952 11.551 11.7946 11.5264 11.7946 11.5029C11.7946 11.413 11.8087 11.3629 11.8196 11.3239C11.8355 11.2671 11.8448 11.2339 11.7946 11.1362C11.71 10.9714 10.9054 10.9934 10.9054 11.1362C10.9054 11.2036 11.0274 11.2737 11.1361 11.3361C11.2579 11.4061 11.3631 11.4665 11.2616 11.5029Z" fill="#E31D1C"/>
<path fill-rule="evenodd" clip-rule="evenodd" d="M12.11 11.5376C12.11 11.5376 13.1267 11.4366 13.3566 11.0699C13.5865 10.7033 13.9695 10.0773 14.1042 9.92579C14.2389 9.77424 14.2476 10.1422 14.2476 10.1422C14.2476 10.1422 14.4698 10.4574 14.4698 10.0544C14.4698 9.65146 14.3117 9.93299 14.1042 9.3267C13.8967 8.7204 13.78 8.1257 13.8383 8.03569C13.8967 7.94567 14.0349 8.1257 14.0349 8.03569C14.0349 7.94567 14.0349 7.76947 14.0349 7.76947L14.2476 8.03569L14.4698 7.95136C14.4698 7.95136 14.6527 8.34306 14.7654 8.46432C14.878 8.58558 14.9439 8.30191 14.911 8.03569C14.878 7.76947 14.4698 7.76947 14.4698 7.76947C14.4698 7.76947 13.9477 7.48805 13.9477 7.37011C13.9477 7.25218 14.1734 7.2873 14.1734 7.2873L14.1042 6.92212C14.1042 6.92212 14.2908 7.14392 14.3803 7.03302C14.4698 6.92212 14.2476 6.72751 14.2476 6.72751H14.6018V6.55648L14.7654 6.64802L14.6018 6.27456C14.6018 6.27456 14.1221 6.34679 14.0349 6.27456C13.9477 6.20233 13.673 5.9208 13.673 5.9208V5.78716H13.5147L13.673 5.51908V5.0922L14.2476 5.20676V4.89111C14.2476 4.89111 15.0566 5.28546 14.911 5.60313C14.7654 5.9208 14.7654 6.27456 14.7654 6.27456V6.55648C14.7654 6.55648 14.7896 6.47018 14.911 6.47018C15.0323 6.47018 15.1704 6.5329 15.1704 6.72751C15.1704 6.92212 15.4176 6.64802 15.4176 6.64802V7.45765C15.4176 7.45765 15.4757 7.54519 15.6027 7.45765C15.7298 7.37011 15.6741 7.4384 15.2925 7.95136C14.911 8.46432 15.0484 8.4657 15.1704 8.34002C15.2925 8.21434 15.7879 7.85704 15.6027 8.03569C15.4176 8.21434 15.4053 8.58862 15.6027 8.46432C15.8001 8.34002 15.762 8.25158 15.762 8.46432C15.762 8.67706 15.4146 9.40118 15.2925 9.51461C15.1704 9.62805 15.0566 9.69779 14.911 9.81179C14.7654 9.92579 14.6018 10.0605 14.6018 10.1422C14.6018 10.224 14.911 10.0544 14.911 10.0544L14.7654 10.5742H15.0483C15.0483 10.5742 14.8231 11.2644 14.3803 11.2644C13.9375 11.2644 13.6037 11.2644 13.5147 11.2644C13.4257 11.2644 13.0237 11.454 13.0237 11.454L12.7296 11.5376C12.7296 11.5376 13.1985 11.5824 13.3566 11.7232C13.5147 11.864 13.3566 11.9621 13.3566 11.9621C13.3566 11.9621 12.9226 11.9191 12.5987 11.8211C12.2748 11.7232 12.11 11.9088 12.11 11.7232C12.11 11.5376 12.11 11.5376 12.11 11.5376Z" fill="#00A854"/>
<path fill-rule="evenodd" clip-rule="evenodd" d="M15.0387 6.00512C15.0387 6.07233 14.9865 6.12682 14.9223 6.12682C14.858 6.12682 14.8058 6.07233 14.8058 6.00512C14.8058 5.93791 14.858 5.88342 14.9223 5.88342C14.9865 5.88342 15.0387 5.93791 15.0387 6.00512ZM14.4567 6.49192C14.4567 6.55914 14.4045 6.61362 14.3403 6.61362C14.276 6.61362 14.2239 6.55914 14.2239 6.49192C14.2239 6.42471 14.276 6.37023 14.3403 6.37023C14.4045 6.37023 14.4567 6.42471 14.4567 6.49192ZM15.0387 6.37022C15.103 6.37022 15.1551 6.31573 15.1551 6.24852C15.1551 6.18131 15.103 6.12682 15.0387 6.12682C14.9744 6.12682 14.9223 6.18131 14.9223 6.24852C14.9223 6.31573 14.9744 6.37022 15.0387 6.37022ZM14.8059 8.19566C14.8059 8.26287 14.7538 8.31735 14.6895 8.31735C14.6252 8.31735 14.5731 8.26287 14.5731 8.19566C14.5731 8.12844 14.6252 8.07396 14.6895 8.07396C14.7538 8.07396 14.8059 8.12844 14.8059 8.19566ZM14.2238 9.77777C14.2881 9.77777 14.3402 9.72328 14.3402 9.65607C14.3402 9.58886 14.2881 9.53437 14.2238 9.53437C14.1595 9.53437 14.1074 9.58886 14.1074 9.65607C14.1074 9.72328 14.1595 9.77777 14.2238 9.77777ZM15.1551 10.0211C15.1551 10.0883 15.103 10.1428 15.0387 10.1428C14.9744 10.1428 14.9223 10.0883 14.9223 10.0211C14.9223 9.95392 14.9744 9.89943 15.0387 9.89943C15.103 9.89943 15.1551 9.95392 15.1551 10.0211ZM15.2715 9.89943C15.3358 9.89943 15.3879 9.84494 15.3879 9.77773C15.3879 9.71052 15.3358 9.65603 15.2715 9.65603C15.2072 9.65603 15.1551 9.71052 15.1551 9.77773C15.1551 9.84494 15.2072 9.89943 15.2715 9.89943ZM15.2715 8.074C15.2715 8.14121 15.2194 8.19569 15.1551 8.19569C15.0908 8.19569 15.0387 8.14121 15.0387 8.074C15.0387 8.00678 15.0908 7.9523 15.1551 7.9523C15.2194 7.9523 15.2715 8.00678 15.2715 8.074Z" fill="#C51918"/>
<path fill-rule="evenodd" clip-rule="evenodd" d="M11.627 11.3233C11.627 11.3233 9.77721 10.9577 9.67604 10.2501C9.57487 9.54244 9.57629 8.78909 9.57629 8.78909L9.40476 9.24947C9.40476 9.24947 9.3961 8.62273 9.74793 8.17567C10.0998 7.72861 9.30812 8.4719 9.30812 8.4719C9.30812 8.4719 9.70896 7.83989 9.87584 7.77972C10.0427 7.71955 9.20531 8.17567 9.20531 8.17567C9.20531 8.17567 9.44521 7.64534 9.63169 7.49533C9.81817 7.34533 9.20531 7.77972 9.20531 7.77972C9.20531 7.77972 9.34398 7.25371 9.50984 7.12822C9.6757 7.00273 8.96785 7.77972 8.96785 7.77972C8.96785 7.77972 9.34126 6.57782 9.55165 6.46565C9.76203 6.35349 9.20531 6.68601 9.20531 6.68601C9.20531 6.68601 9.54632 6.17197 9.85176 5.91643C10.1572 5.66089 9.29968 6.0254 9.40476 6.0254C9.40476 6.0254 9.71485 5.67522 9.893 5.57638C10.0712 5.47754 9.20531 5.91643 9.20531 5.91643C9.20531 5.91643 9.82684 5.23059 10.0131 5.12962C10.1995 5.02864 9.09853 5.67428 9.09853 5.67428C9.09853 5.67428 9.16283 5.37521 9.19058 5.16148C9.21834 4.94775 8.68054 5.74724 8.75355 6.46565C8.82657 7.18407 8.46097 5.91643 8.46097 5.91643C8.46097 5.91643 8.31386 6.19163 8.67125 6.91248L8.2839 6.36959C8.2839 6.36959 8.33686 6.86226 8.46097 7.12822C8.58509 7.39418 8.10869 6.68601 8.10869 6.68601C8.10869 6.68601 8.01754 7.12822 8.10869 7.12822C8.10869 7.12822 8.65267 7.85499 8.67283 8.06688C8.693 8.27878 8.0619 7.31033 7.97744 7.31033C7.89298 7.31033 7.84619 7.62136 7.97744 7.62136C8.10869 7.62136 8.35731 8.06688 8.35731 8.06688C8.35731 8.06688 8.0342 7.83337 7.96492 7.81957C7.89564 7.80577 8.0193 7.95809 8.10869 8.06688C8.10869 8.06688 7.85593 8.27297 7.87514 8.42908C7.89434 8.58519 8.56401 8.61823 8.85586 9.35933C8.85586 9.35933 8.25246 9.04024 8.10869 9.04024C7.96492 9.04024 8.3402 9.37342 8.46097 9.4834C8.58175 9.59337 8.27489 9.37342 8.19179 9.4834C8.10869 9.59337 8.65125 10.0631 8.75355 10.0631C8.85586 10.0631 8.35731 10.0631 8.35731 10.0631C8.35731 10.0631 8.48981 10.2501 8.67283 10.2501C8.85586 10.2501 9.50984 10.544 9.50984 10.6392C9.50984 10.7345 8.95816 10.5173 8.85586 10.5173C8.75355 10.5173 9.57612 11.2937 10.0131 11.3233C10.4502 11.3529 10.7263 11.4702 10.9147 11.4702C11.1031 11.4702 11.2356 11.4702 11.2356 11.4702L10.3455 11.9237C10.3455 11.9237 10.2556 11.9237 10.6418 11.9237C11.0279 11.9237 11.3233 12.031 11.4751 11.8092C11.627 11.5874 11.627 11.3233 11.627 11.3233Z" fill="#00A854"/>
<mask id="path-10-outside-1_58_2005" maskUnits="userSpaceOnUse" x="8.94788" y="3.98645" width="6" height="8" fill="black">
<rect fill="white" x="8.94788" y="3.98645" width="6" height="8"/>
<path fill-rule="evenodd" clip-rule="evenodd" d="M11.8954 6.00251C11.9133 5.99239 11.9233 5.98645 11.9233 5.98645V6.01806C12.0521 6.08916 12.3766 6.25572 12.5875 6.25572C12.8557 6.25572 13.2202 5.9865 13.2202 5.9865L13.8302 6.84776C13.8302 6.84776 13.4194 7.70872 13.7337 8.76079C14.0481 9.81286 13.7171 10.6241 12.3193 10.7142C12.3193 10.7142 12.0439 10.7665 11.9233 10.8499V10.9269C11.9233 10.9077 11.913 10.8895 11.8955 10.8724C11.878 10.8895 11.8677 10.9078 11.8677 10.9269V10.8498C11.747 10.7664 11.4717 10.7141 11.4717 10.7141C10.0739 10.624 9.74292 9.81281 10.0572 8.76074C10.3716 7.70867 9.96078 6.84771 9.96078 6.84771L10.5707 5.98645C10.5707 5.98645 10.9353 6.25567 11.2035 6.25567C11.4144 6.25567 11.7388 6.08911 11.8677 6.01801V5.9865C11.8677 5.9865 11.8777 5.99242 11.8954 6.00251Z"/>
</mask>
<path fill-rule="evenodd" clip-rule="evenodd" d="M11.8954 6.00251C11.9133 5.99239 11.9233 5.98645 11.9233 5.98645V6.01806C12.0521 6.08916 12.3766 6.25572 12.5875 6.25572C12.8557 6.25572 13.2202 5.9865 13.2202 5.9865L13.8302 6.84776C13.8302 6.84776 13.4194 7.70872 13.7337 8.76079C14.0481 9.81286 13.7171 10.6241 12.3193 10.7142C12.3193 10.7142 12.0439 10.7665 11.9233 10.8499V10.9269C11.9233 10.9077 11.913 10.8895 11.8955 10.8724C11.878 10.8895 11.8677 10.9078 11.8677 10.9269V10.8498C11.747 10.7664 11.4717 10.7141 11.4717 10.7141C10.0739 10.624 9.74292 9.81281 10.0572 8.76074C10.3716 7.70867 9.96078 6.84771 9.96078 6.84771L10.5707 5.98645C10.5707 5.98645 10.9353 6.25567 11.2035 6.25567C11.4144 6.25567 11.7388 6.08911 11.8677 6.01801V5.9865C11.8677 5.9865 11.8777 5.99242 11.8954 6.00251Z" fill="#E8AA00"/>
<path d="M11.9233 5.98645H12.5926V4.80818L11.5805 5.41153L11.9233 5.98645ZM11.8954 6.00251L11.5654 6.5848L11.8954 6.77189L12.2255 6.58482L11.8954 6.00251ZM11.9233 6.01806H11.2539V6.41323L11.5999 6.60412L11.9233 6.01806ZM13.2202 5.9865L13.7665 5.59966L13.3718 5.04246L12.8226 5.44808L13.2202 5.9865ZM13.8302 6.84776L14.4343 7.13599L14.6034 6.78147L14.3764 6.46092L13.8302 6.84776ZM13.7337 8.76079L13.0924 8.9524L13.0924 8.9524L13.7337 8.76079ZM12.3193 10.7142L12.2763 10.0462L12.235 10.0489L12.1944 10.0566L12.3193 10.7142ZM11.9233 10.8499L11.5428 10.2992L11.2539 10.4988V10.8499H11.9233ZM11.8955 10.8724L12.3643 10.3946L11.8957 9.93494L11.427 10.3943L11.8955 10.8724ZM11.8677 10.8498H12.5371V10.4987L12.2482 10.2992L11.8677 10.8498ZM11.4717 10.7141L11.5966 10.0565L11.556 10.0488L11.5147 10.0461L11.4717 10.7141ZM10.0572 8.76074L9.41592 8.56913L9.41592 8.56913L10.0572 8.76074ZM9.96078 6.84771L9.41456 6.46086L9.18754 6.78142L9.35669 7.13594L9.96078 6.84771ZM10.5707 5.98645L10.9684 5.44803L10.4191 5.0424L10.0245 5.5996L10.5707 5.98645ZM11.8677 6.01801L12.191 6.60407L12.5371 6.41318V6.01801H11.8677ZM11.8677 5.9865L12.2105 5.41158L11.1984 4.80824V5.9865H11.8677ZM11.9233 5.98645C11.5805 5.41153 11.5805 5.41152 11.5805 5.41151C11.5806 5.41151 11.5806 5.4115 11.5806 5.4115C11.5806 5.41149 11.5806 5.41148 11.5806 5.41147C11.5806 5.41146 11.5807 5.41144 11.5807 5.41143C11.5807 5.41139 11.5808 5.41136 11.5808 5.41133C11.5809 5.41128 11.581 5.41122 11.5811 5.41118C11.5813 5.41108 11.5814 5.41101 11.5815 5.41096C11.5817 5.41086 11.5817 5.41084 11.5816 5.41091C11.5813 5.41104 11.5806 5.4115 11.5792 5.41226C11.5766 5.41379 11.5719 5.41651 11.5654 5.4202L12.2255 6.58482C12.2368 6.5784 12.246 6.57308 12.2529 6.56911C12.2563 6.56712 12.2591 6.56546 12.2613 6.56417C12.2624 6.56352 12.2633 6.56296 12.2641 6.56249C12.2645 6.56226 12.2649 6.56205 12.2652 6.56186C12.2653 6.56177 12.2655 6.56168 12.2656 6.5616C12.2657 6.56156 12.2658 6.56152 12.2658 6.56148C12.2659 6.56146 12.2659 6.56145 12.2659 6.56143C12.2659 6.56142 12.2659 6.56141 12.266 6.5614C12.266 6.5614 12.266 6.56139 12.266 6.56139C12.266 6.56138 12.266 6.56138 11.9233 5.98645ZM12.5926 6.01806V5.98645H11.2539V6.01806H12.5926ZM11.5999 6.60412C11.6759 6.64603 11.8143 6.71892 11.9713 6.78311C12.107 6.83858 12.3434 6.92506 12.5875 6.92506V5.58639C12.6155 5.58639 12.6184 5.59075 12.5869 5.58229C12.5596 5.57493 12.5227 5.56231 12.4779 5.544C12.3877 5.50714 12.2995 5.46119 12.2466 5.432L11.5999 6.60412ZM12.5875 6.92506C12.9007 6.92506 13.186 6.78376 13.3224 6.71009C13.4059 6.665 13.4769 6.62071 13.527 6.58775C13.5523 6.57107 13.5732 6.55675 13.5885 6.54599C13.5962 6.54059 13.6026 6.53605 13.6075 6.5325C13.6099 6.53072 13.6121 6.52919 13.6138 6.52792C13.6147 6.52729 13.6154 6.52672 13.6161 6.52622C13.6165 6.52597 13.6168 6.52574 13.6171 6.52552C13.6172 6.52541 13.6174 6.52531 13.6175 6.52521C13.6176 6.52516 13.6177 6.52509 13.6177 6.52506C13.6178 6.52499 13.6179 6.52492 13.2202 5.9865C12.8226 5.44808 12.8227 5.44802 12.8228 5.44795C12.8228 5.44793 12.8229 5.44786 12.823 5.44782C12.8231 5.44774 12.8232 5.44766 12.8233 5.44758C12.8235 5.44743 12.8237 5.4473 12.8238 5.44718C12.8242 5.44693 12.8244 5.44675 12.8246 5.44663C12.8249 5.44638 12.825 5.44636 12.8247 5.44656C12.8241 5.44695 12.8224 5.44819 12.8196 5.45016C12.814 5.45411 12.8042 5.46083 12.7912 5.46939C12.7646 5.48691 12.7276 5.50992 12.6865 5.53214C12.644 5.55508 12.6065 5.57205 12.5778 5.58211C12.5443 5.59387 12.5507 5.58639 12.5875 5.58639V6.92506ZM12.674 6.37335L13.284 7.23461L14.3764 6.46092L13.7665 5.59966L12.674 6.37335ZM13.8302 6.84776C13.2261 6.55953 13.226 6.55976 13.2259 6.56C13.2258 6.56008 13.2257 6.56032 13.2257 6.56048C13.2255 6.56082 13.2253 6.56116 13.2252 6.56152C13.2248 6.56224 13.2245 6.56301 13.2241 6.56384C13.2233 6.5655 13.2224 6.56738 13.2214 6.56948C13.2195 6.57367 13.2172 6.57874 13.2145 6.58466C13.2093 6.59651 13.2026 6.61179 13.1949 6.63034C13.1795 6.6674 13.1599 6.71773 13.1384 6.77995C13.0954 6.90405 13.0444 7.07762 13.0057 7.28935C12.9285 7.71137 12.8977 8.30055 13.0924 8.9524L14.3751 8.56919C14.2555 8.16896 14.2729 7.80163 14.3225 7.53015C14.3472 7.39513 14.3792 7.2877 14.4035 7.21749C14.4156 7.18257 14.4256 7.15741 14.4314 7.14328C14.4343 7.13623 14.4362 7.13199 14.4368 7.13071C14.4371 7.13007 14.437 7.13018 14.4366 7.13105C14.4364 7.13148 14.4361 7.13211 14.4357 7.13293C14.4356 7.13335 14.4353 7.13381 14.4351 7.13431C14.435 7.13457 14.4348 7.13484 14.4347 7.13512C14.4346 7.13525 14.4345 7.13547 14.4345 7.13554C14.4344 7.13576 14.4343 7.13599 13.8302 6.84776ZM13.0924 8.9524C13.2246 9.39496 13.1719 9.63118 13.1026 9.7409C13.0448 9.83239 12.8646 10.0083 12.2763 10.0462L12.3624 11.3821C13.1718 11.3299 13.856 11.0552 14.2345 10.4555C14.6016 9.87412 14.5572 9.17869 14.3751 8.56919L13.0924 8.9524ZM12.3193 10.7142C12.1944 10.0566 12.1943 10.0566 12.1942 10.0566C12.1942 10.0566 12.1941 10.0566 12.1941 10.0566C12.194 10.0567 12.1939 10.0567 12.1938 10.0567C12.1936 10.0567 12.1933 10.0568 12.1931 10.0568C12.1926 10.0569 12.192 10.057 12.1913 10.0572C12.1901 10.0574 12.1885 10.0577 12.1867 10.0581C12.183 10.0588 12.1783 10.0597 12.1727 10.0609C12.1614 10.0632 12.1462 10.0664 12.128 10.0705C12.0921 10.0786 12.0421 10.0905 11.986 10.1062C11.9021 10.1297 11.7045 10.1875 11.5428 10.2992L12.3038 11.4005C12.2719 11.4225 12.2567 11.4258 12.2786 11.4173C12.2945 11.4111 12.3181 11.4034 12.3471 11.3953C12.3749 11.3875 12.4013 11.3811 12.4208 11.3768C12.4303 11.3746 12.4375 11.3731 12.4418 11.3722C12.4439 11.3718 12.4453 11.3715 12.4457 11.3714C12.4459 11.3714 12.4459 11.3714 12.4457 11.3714C12.4456 11.3715 12.4454 11.3715 12.4452 11.3715C12.4451 11.3716 12.4449 11.3716 12.4448 11.3716C12.4447 11.3716 12.4446 11.3717 12.4445 11.3717C12.4445 11.3717 12.4444 11.3717 12.4444 11.3717C12.4443 11.3717 12.4443 11.3717 12.3193 10.7142ZM12.5926 10.9269V10.8499H11.2539V10.9269H12.5926ZM11.4268 11.3502C11.3799 11.3042 11.2539 11.1607 11.2539 10.9269H12.5926C12.5926 10.6547 12.446 10.4748 12.3643 10.3946L11.4268 11.3502ZM11.427 10.3943C11.3452 10.4745 11.1984 10.6545 11.1984 10.9269H12.5371C12.5371 11.161 12.4108 11.3045 12.364 11.3504L11.427 10.3943ZM12.5371 10.9269V10.8498H11.1984V10.9269H12.5371ZM11.4717 10.7141C11.3467 11.3717 11.3466 11.3717 11.3466 11.3716C11.3466 11.3716 11.3465 11.3716 11.3465 11.3716C11.3464 11.3716 11.3463 11.3716 11.3462 11.3716C11.3461 11.3715 11.3459 11.3715 11.3458 11.3715C11.3456 11.3714 11.3454 11.3714 11.3453 11.3714C11.345 11.3713 11.345 11.3713 11.3453 11.3714C11.3457 11.3715 11.3471 11.3717 11.3492 11.3722C11.3534 11.3731 11.3607 11.3746 11.3702 11.3767C11.3897 11.3811 11.416 11.3874 11.4439 11.3952C11.4729 11.4033 11.4964 11.4111 11.5124 11.4173C11.5343 11.4258 11.5191 11.4225 11.4872 11.4005L12.2482 10.2992C12.0865 10.1874 11.8889 10.1297 11.8049 10.1061C11.7489 10.0905 11.6989 10.0785 11.663 10.0704C11.6448 10.0664 11.6296 10.0632 11.6183 10.0608C11.6126 10.0597 11.6079 10.0587 11.6043 10.058C11.6025 10.0577 11.6009 10.0574 11.5996 10.0571C11.599 10.057 11.5984 10.0569 11.5979 10.0568C11.5977 10.0567 11.5974 10.0567 11.5972 10.0566C11.5971 10.0566 11.597 10.0566 11.5969 10.0566C11.5969 10.0566 11.5968 10.0566 11.5968 10.0566C11.5967 10.0565 11.5966 10.0565 11.4717 10.7141ZM9.41592 8.56913C9.23382 9.17864 9.18937 9.87407 9.55644 10.4555C9.93502 11.0551 10.6192 11.3299 11.4286 11.382L11.5147 10.0461C10.9264 10.0082 10.7462 9.83234 10.6884 9.74084C10.6191 9.63112 10.5663 9.39491 10.6986 8.95234L9.41592 8.56913ZM9.96078 6.84771C9.35669 7.13594 9.35658 7.13571 9.35647 7.13549C9.35644 7.13542 9.35634 7.1352 9.35627 7.13506C9.35614 7.13478 9.35601 7.13452 9.35589 7.13426C9.35565 7.13375 9.35543 7.13329 9.35524 7.13288C9.35485 7.13206 9.35456 7.13143 9.35436 7.13099C9.35396 7.13012 9.35391 7.13002 9.3542 7.13066C9.35477 7.13194 9.35665 7.13618 9.35957 7.14323C9.36543 7.15736 9.3754 7.18251 9.38748 7.21744C9.41177 7.28765 9.44378 7.39508 9.46847 7.53009C9.51811 7.80157 9.53549 8.16891 9.41592 8.56913L10.6986 8.95234C10.8933 8.3005 10.8625 7.71132 10.7853 7.2893C10.7466 7.07757 10.6955 6.904 10.6526 6.7799C10.6311 6.71768 10.6114 6.66735 10.5961 6.63028C10.5884 6.61174 10.5817 6.59645 10.5764 6.58461C10.5738 6.57869 10.5715 6.57362 10.5695 6.56942C10.5686 6.56733 10.5677 6.56545 10.5669 6.56379C10.5665 6.56296 10.5662 6.56219 10.5658 6.56147C10.5657 6.56111 10.5655 6.56076 10.5653 6.56043C10.5653 6.56027 10.5651 6.56003 10.5651 6.55994C10.565 6.55971 10.5649 6.55948 9.96078 6.84771ZM10.0245 5.5996L9.41456 6.46086L10.507 7.23455L11.117 6.3733L10.0245 5.5996ZM11.2035 5.58634C11.2403 5.58634 11.2467 5.59382 11.2132 5.58206C11.1845 5.572 11.147 5.55503 11.1045 5.53209C11.0634 5.50987 11.0264 5.48686 10.9998 5.46933C10.9868 5.46078 10.977 5.45406 10.9714 5.4501C10.9686 5.44814 10.9668 5.4469 10.9663 5.4465C10.966 5.44631 10.9661 5.44633 10.9664 5.44657C10.9666 5.4467 10.9668 5.44688 10.9671 5.44712C10.9673 5.44724 10.9675 5.44738 10.9677 5.44753C10.9678 5.44761 10.9679 5.44769 10.968 5.44777C10.9681 5.44781 10.9682 5.44788 10.9682 5.4479C10.9683 5.44796 10.9684 5.44803 10.5707 5.98645C10.1731 6.52487 10.1732 6.52494 10.1733 6.52501C10.1733 6.52503 10.1734 6.52511 10.1735 6.52516C10.1736 6.52526 10.1738 6.52536 10.1739 6.52547C10.1742 6.52568 10.1745 6.52592 10.1749 6.52617C10.1756 6.52667 10.1763 6.52724 10.1772 6.52787C10.1789 6.52914 10.181 6.53067 10.1835 6.53244C10.1884 6.53599 10.1948 6.54054 10.2025 6.54593C10.2178 6.5567 10.2387 6.57101 10.264 6.5877C10.3141 6.62065 10.385 6.66495 10.4685 6.71003C10.605 6.78371 10.8903 6.92501 11.2035 6.92501V5.58634ZM11.5444 5.43195C11.4915 5.46114 11.4032 5.50708 11.3131 5.54395C11.2683 5.56226 11.2313 5.57488 11.204 5.58224C11.1726 5.5907 11.1754 5.58634 11.2035 5.58634V6.92501C11.4475 6.92501 11.684 6.83853 11.8197 6.78306C11.9767 6.71887 12.1151 6.64598 12.191 6.60407L11.5444 5.43195ZM12.5371 6.01801V5.9865H11.1984V6.01801H12.5371ZM11.8677 5.9865C11.525 6.56143 11.525 6.56144 11.525 6.56144C11.525 6.56144 11.525 6.56145 11.525 6.56146C11.525 6.56146 11.5251 6.56147 11.5251 6.56148C11.5251 6.5615 11.5251 6.56152 11.5252 6.56154C11.5252 6.56157 11.5253 6.56161 11.5254 6.56165C11.5255 6.56174 11.5256 6.56182 11.5258 6.56192C11.5261 6.5621 11.5265 6.56231 11.5269 6.56254C11.5276 6.56301 11.5286 6.56357 11.5297 6.56421C11.5319 6.56551 11.5347 6.56716 11.5381 6.56914C11.5449 6.5731 11.5541 6.5784 11.5654 6.5848L12.2255 5.42022C12.219 5.41653 12.2143 5.41383 12.2117 5.41231C12.2104 5.41155 12.2096 5.41109 12.2094 5.41096C12.2093 5.41089 12.2093 5.41091 12.2095 5.41101C12.2096 5.41106 12.2097 5.41113 12.2099 5.41123C12.21 5.41128 12.21 5.41133 12.2101 5.41139C12.2102 5.41142 12.2102 5.41145 12.2103 5.41148C12.2103 5.41149 12.2103 5.41151 12.2104 5.41153C12.2104 5.41153 12.2104 5.41154 12.2104 5.41155C12.2104 5.41156 12.2104 5.41156 12.2104 5.41156C12.2104 5.41157 12.2105 5.41158 11.8677 5.9865Z" fill="#E8AA00" mask="url(#path-10-outside-1_58_2005)"/>
<mask id="mask0_58_2005" style="mask-type:luminance" maskUnits="userSpaceOnUse" x="9" y="4" width="6" height="8">
<mask id="path-12-outside-2_58_2005" maskUnits="userSpaceOnUse" x="8.94788" y="3.98645" width="6" height="8" fill="black">
<rect fill="white" x="8.94788" y="3.98645" width="6" height="8"/>
<path fill-rule="evenodd" clip-rule="evenodd" d="M11.8954 6.00251C11.9133 5.99239 11.9233 5.98645 11.9233 5.98645V6.01806C12.0521 6.08916 12.3766 6.25572 12.5875 6.25572C12.8557 6.25572 13.2202 5.9865 13.2202 5.9865L13.8302 6.84776C13.8302 6.84776 13.4194 7.70872 13.7337 8.76079C14.0481 9.81286 13.7171 10.6241 12.3193 10.7142C12.3193 10.7142 12.0439 10.7665 11.9233 10.8499V10.9269C11.9233 10.9077 11.913 10.8895 11.8955 10.8724C11.878 10.8895 11.8677 10.9078 11.8677 10.9269V10.8498C11.747 10.7664 11.4717 10.7141 11.4717 10.7141C10.0739 10.624 9.74292 9.81281 10.0572 8.76074C10.3716 7.70867 9.96078 6.84771 9.96078 6.84771L10.5707 5.98645C10.5707 5.98645 10.9353 6.25567 11.2035 6.25567C11.4144 6.25567 11.7388 6.08911 11.8677 6.01801V5.9865C11.8677 5.9865 11.8777 5.99242 11.8954 6.00251Z"/>
</mask>
<path fill-rule="evenodd" clip-rule="evenodd" d="M11.8954 6.00251C11.9133 5.99239 11.9233 5.98645 11.9233 5.98645V6.01806C12.0521 6.08916 12.3766 6.25572 12.5875 6.25572C12.8557 6.25572 13.2202 5.9865 13.2202 5.9865L13.8302 6.84776C13.8302 6.84776 13.4194 7.70872 13.7337 8.76079C14.0481 9.81286 13.7171 10.6241 12.3193 10.7142C12.3193 10.7142 12.0439 10.7665 11.9233 10.8499V10.9269C11.9233 10.9077 11.913 10.8895 11.8955 10.8724C11.878 10.8895 11.8677 10.9078 11.8677 10.9269V10.8498C11.747 10.7664 11.4717 10.7141 11.4717 10.7141C10.0739 10.624 9.74292 9.81281 10.0572 8.76074C10.3716 7.70867 9.96078 6.84771 9.96078 6.84771L10.5707 5.98645C10.5707 5.98645 10.9353 6.25567 11.2035 6.25567C11.4144 6.25567 11.7388 6.08911 11.8677 6.01801V5.9865C11.8677 5.9865 11.8777 5.99242 11.8954 6.00251Z" fill="white"/>
<path d="M11.9233 5.98645H12.5926V4.80818L11.5805 5.41153L11.9233 5.98645ZM11.8954 6.00251L11.5654 6.5848L11.8954 6.77189L12.2255 6.58482L11.8954 6.00251ZM11.9233 6.01806H11.2539V6.41323L11.5999 6.60412L11.9233 6.01806ZM13.2202 5.9865L13.7665 5.59966L13.3718 5.04246L12.8226 5.44808L13.2202 5.9865ZM13.8302 6.84776L14.4343 7.13599L14.6034 6.78147L14.3764 6.46092L13.8302 6.84776ZM13.7337 8.76079L13.0924 8.9524L13.0924 8.9524L13.7337 8.76079ZM12.3193 10.7142L12.2763 10.0462L12.235 10.0489L12.1944 10.0566L12.3193 10.7142ZM11.9233 10.8499L11.5428 10.2992L11.2539 10.4988V10.8499H11.9233ZM11.8955 10.8724L12.3643 10.3946L11.8957 9.93494L11.427 10.3943L11.8955 10.8724ZM11.8677 10.8498H12.5371V10.4987L12.2482 10.2992L11.8677 10.8498ZM11.4717 10.7141L11.5966 10.0565L11.556 10.0488L11.5147 10.0461L11.4717 10.7141ZM10.0572 8.76074L9.41592 8.56913L9.41592 8.56913L10.0572 8.76074ZM9.96078 6.84771L9.41456 6.46086L9.18754 6.78142L9.35669 7.13594L9.96078 6.84771ZM10.5707 5.98645L10.9684 5.44803L10.4191 5.0424L10.0245 5.5996L10.5707 5.98645ZM11.8677 6.01801L12.191 6.60407L12.5371 6.41318V6.01801H11.8677ZM11.8677 5.9865L12.2105 5.41158L11.1984 4.80824V5.9865H11.8677ZM11.9233 5.98645C11.5805 5.41153 11.5805 5.41152 11.5805 5.41151C11.5806 5.41151 11.5806 5.4115 11.5806 5.4115C11.5806 5.41149 11.5806 5.41148 11.5806 5.41147C11.5806 5.41146 11.5807 5.41144 11.5807 5.41143C11.5807 5.41139 11.5808 5.41136 11.5808 5.41133C11.5809 5.41128 11.581 5.41122 11.5811 5.41118C11.5813 5.41108 11.5814 5.41101 11.5815 5.41096C11.5817 5.41086 11.5817 5.41084 11.5816 5.41091C11.5813 5.41104 11.5806 5.4115 11.5792 5.41226C11.5766 5.41379 11.5719 5.41651 11.5654 5.4202L12.2255 6.58482C12.2368 6.5784 12.246 6.57308 12.2529 6.56911C12.2563 6.56712 12.2591 6.56546 12.2613 6.56417C12.2624 6.56352 12.2633 6.56296 12.2641 6.56249C12.2645 6.56226 12.2649 6.56205 12.2652 6.56186C12.2653 6.56177 12.2655 6.56168 12.2656 6.5616C12.2657 6.56156 12.2658 6.56152 12.2658 6.56148C12.2659 6.56146 12.2659 6.56145 12.2659 6.56143C12.2659 6.56142 12.2659 6.56141 12.266 6.5614C12.266 6.5614 12.266 6.56139 12.266 6.56139C12.266 6.56138 12.266 6.56138 11.9233 5.98645ZM12.5926 6.01806V5.98645H11.2539V6.01806H12.5926ZM11.5999 6.60412C11.6759 6.64603 11.8143 6.71892 11.9713 6.78311C12.107 6.83858 12.3434 6.92506 12.5875 6.92506V5.58639C12.6155 5.58639 12.6184 5.59075 12.5869 5.58229C12.5596 5.57493 12.5227 5.56231 12.4779 5.544C12.3877 5.50714 12.2995 5.46119 12.2466 5.432L11.5999 6.60412ZM12.5875 6.92506C12.9007 6.92506 13.186 6.78376 13.3224 6.71009C13.4059 6.665 13.4769 6.62071 13.527 6.58775C13.5523 6.57107 13.5732 6.55675 13.5885 6.54599C13.5962 6.54059 13.6026 6.53605 13.6075 6.5325C13.6099 6.53072 13.6121 6.52919 13.6138 6.52792C13.6147 6.52729 13.6154 6.52672 13.6161 6.52622C13.6165 6.52597 13.6168 6.52574 13.6171 6.52552C13.6172 6.52541 13.6174 6.52531 13.6175 6.52521C13.6176 6.52516 13.6177 6.52509 13.6177 6.52506C13.6178 6.52499 13.6179 6.52492 13.2202 5.9865C12.8226 5.44808 12.8227 5.44802 12.8228 5.44795C12.8228 5.44793 12.8229 5.44786 12.823 5.44782C12.8231 5.44774 12.8232 5.44766 12.8233 5.44758C12.8235 5.44743 12.8237 5.4473 12.8238 5.44718C12.8242 5.44693 12.8244 5.44675 12.8246 5.44663C12.8249 5.44638 12.825 5.44636 12.8247 5.44656C12.8241 5.44695 12.8224 5.44819 12.8196 5.45016C12.814 5.45411 12.8042 5.46083 12.7912 5.46939C12.7646 5.48691 12.7276 5.50992 12.6865 5.53214C12.644 5.55508 12.6065 5.57205 12.5778 5.58211C12.5443 5.59387 12.5507 5.58639 12.5875 5.58639V6.92506ZM12.674 6.37335L13.284 7.23461L14.3764 6.46092L13.7665 5.59966L12.674 6.37335ZM13.8302 6.84776C13.2261 6.55953 13.226 6.55976 13.2259 6.56C13.2258 6.56008 13.2257 6.56032 13.2257 6.56048C13.2255 6.56082 13.2253 6.56116 13.2252 6.56152C13.2248 6.56224 13.2245 6.56301 13.2241 6.56384C13.2233 6.5655 13.2224 6.56738 13.2214 6.56948C13.2195 6.57367 13.2172 6.57874 13.2145 6.58466C13.2093 6.59651 13.2026 6.61179 13.1949 6.63034C13.1795 6.6674 13.1599 6.71773 13.1384 6.77995C13.0954 6.90405 13.0444 7.07762 13.0057 7.28935C12.9285 7.71137 12.8977 8.30055 13.0924 8.9524L14.3751 8.56919C14.2555 8.16896 14.2729 7.80163 14.3225 7.53015C14.3472 7.39513 14.3792 7.2877 14.4035 7.21749C14.4156 7.18257 14.4256 7.15741 14.4314 7.14328C14.4343 7.13623 14.4362 7.13199 14.4368 7.13071C14.4371 7.13007 14.437 7.13018 14.4366 7.13105C14.4364 7.13148 14.4361 7.13211 14.4357 7.13293C14.4356 7.13335 14.4353 7.13381 14.4351 7.13431C14.435 7.13457 14.4348 7.13484 14.4347 7.13512C14.4346 7.13525 14.4345 7.13547 14.4345 7.13554C14.4344 7.13576 14.4343 7.13599 13.8302 6.84776ZM13.0924 8.9524C13.2246 9.39496 13.1719 9.63118 13.1026 9.7409C13.0448 9.83239 12.8646 10.0083 12.2763 10.0462L12.3624 11.3821C13.1718 11.3299 13.856 11.0552 14.2345 10.4555C14.6016 9.87412 14.5572 9.17869 14.3751 8.56919L13.0924 8.9524ZM12.3193 10.7142C12.1944 10.0566 12.1943 10.0566 12.1942 10.0566C12.1942 10.0566 12.1941 10.0566 12.1941 10.0566C12.194 10.0567 12.1939 10.0567 12.1938 10.0567C12.1936 10.0567 12.1933 10.0568 12.1931 10.0568C12.1926 10.0569 12.192 10.057 12.1913 10.0572C12.1901 10.0574 12.1885 10.0577 12.1867 10.0581C12.183 10.0588 12.1783 10.0597 12.1727 10.0609C12.1614 10.0632 12.1462 10.0664 12.128 10.0705C12.0921 10.0786 12.0421 10.0905 11.986 10.1062C11.9021 10.1297 11.7045 10.1875 11.5428 10.2992L12.3038 11.4005C12.2719 11.4225 12.2567 11.4258 12.2786 11.4173C12.2945 11.4111 12.3181 11.4034 12.3471 11.3953C12.3749 11.3875 12.4013 11.3811 12.4208 11.3768C12.4303 11.3746 12.4375 11.3731 12.4418 11.3722C12.4439 11.3718 12.4453 11.3715 12.4457 11.3714C12.4459 11.3714 12.4459 11.3714 12.4457 11.3714C12.4456 11.3715 12.4454 11.3715 12.4452 11.3715C12.4451 11.3716 12.4449 11.3716 12.4448 11.3716C12.4447 11.3716 12.4446 11.3717 12.4445 11.3717C12.4445 11.3717 12.4444 11.3717 12.4444 11.3717C12.4443 11.3717 12.4443 11.3717 12.3193 10.7142ZM12.5926 10.9269V10.8499H11.2539V10.9269H12.5926ZM11.4268 11.3502C11.3799 11.3042 11.2539 11.1607 11.2539 10.9269H12.5926C12.5926 10.6547 12.446 10.4748 12.3643 10.3946L11.4268 11.3502ZM11.427 10.3943C11.3452 10.4745 11.1984 10.6545 11.1984 10.9269H12.5371C12.5371 11.161 12.4108 11.3045 12.364 11.3504L11.427 10.3943ZM12.5371 10.9269V10.8498H11.1984V10.9269H12.5371ZM11.4717 10.7141C11.3467 11.3717 11.3466 11.3717 11.3466 11.3716C11.3466 11.3716 11.3465 11.3716 11.3465 11.3716C11.3464 11.3716 11.3463 11.3716 11.3462 11.3716C11.3461 11.3715 11.3459 11.3715 11.3458 11.3715C11.3456 11.3714 11.3454 11.3714 11.3453 11.3714C11.345 11.3713 11.345 11.3713 11.3453 11.3714C11.3457 11.3715 11.3471 11.3717 11.3492 11.3722C11.3534 11.3731 11.3607 11.3746 11.3702 11.3767C11.3897 11.3811 11.416 11.3874 11.4439 11.3952C11.4729 11.4033 11.4964 11.4111 11.5124 11.4173C11.5343 11.4258 11.5191 11.4225 11.4872 11.4005L12.2482 10.2992C12.0865 10.1874 11.8889 10.1297 11.8049 10.1061C11.7489 10.0905 11.6989 10.0785 11.663 10.0704C11.6448 10.0664 11.6296 10.0632 11.6183 10.0608C11.6126 10.0597 11.6079 10.0587 11.6043 10.058C11.6025 10.0577 11.6009 10.0574 11.5996 10.0571C11.599 10.057 11.5984 10.0569 11.5979 10.0568C11.5977 10.0567 11.5974 10.0567 11.5972 10.0566C11.5971 10.0566 11.597 10.0566 11.5969 10.0566C11.5969 10.0566 11.5968 10.0566 11.5968 10.0566C11.5967 10.0565 11.5966 10.0565 11.4717 10.7141ZM9.41592 8.56913C9.23382 9.17864 9.18937 9.87407 9.55644 10.4555C9.93502 11.0551 10.6192 11.3299 11.4286 11.382L11.5147 10.0461C10.9264 10.0082 10.7462 9.83234 10.6884 9.74084C10.6191 9.63112 10.5663 9.39491 10.6986 8.95234L9.41592 8.56913ZM9.96078 6.84771C9.35669 7.13594 9.35658 7.13571 9.35647 7.13549C9.35644 7.13542 9.35634 7.1352 9.35627 7.13506C9.35614 7.13478 9.35601 7.13452 9.35589 7.13426C9.35565 7.13375 9.35543 7.13329 9.35524 7.13288C9.35485 7.13206 9.35456 7.13143 9.35436 7.13099C9.35396 7.13012 9.35391 7.13002 9.3542 7.13066C9.35477 7.13194 9.35665 7.13618 9.35957 7.14323C9.36543 7.15736 9.3754 7.18251 9.38748 7.21744C9.41177 7.28765 9.44378 7.39508 9.46847 7.53009C9.51811 7.80157 9.53549 8.16891 9.41592 8.56913L10.6986 8.95234C10.8933 8.3005 10.8625 7.71132 10.7853 7.2893C10.7466 7.07757 10.6955 6.904 10.6526 6.7799C10.6311 6.71768 10.6114 6.66735 10.5961 6.63028C10.5884 6.61174 10.5817 6.59645 10.5764 6.58461C10.5738 6.57869 10.5715 6.57362 10.5695 6.56942C10.5686 6.56733 10.5677 6.56545 10.5669 6.56379C10.5665 6.56296 10.5662 6.56219 10.5658 6.56147C10.5657 6.56111 10.5655 6.56076 10.5653 6.56043C10.5653 6.56027 10.5651 6.56003 10.5651 6.55994C10.565 6.55971 10.5649 6.55948 9.96078 6.84771ZM10.0245 5.5996L9.41456 6.46086L10.507 7.23455L11.117 6.3733L10.0245 5.5996ZM11.2035 5.58634C11.2403 5.58634 11.2467 5.59382 11.2132 5.58206C11.1845 5.572 11.147 5.55503 11.1045 5.53209C11.0634 5.50987 11.0264 5.48686 10.9998 5.46933C10.9868 5.46078 10.977 5.45406 10.9714 5.4501C10.9686 5.44814 10.9668 5.4469 10.9663 5.4465C10.966 5.44631 10.9661 5.44633 10.9664 5.44657C10.9666 5.4467 10.9668 5.44688 10.9671 5.44712C10.9673 5.44724 10.9675 5.44738 10.9677 5.44753C10.9678 5.44761 10.9679 5.44769 10.968 5.44777C10.9681 5.44781 10.9682 5.44788 10.9682 5.4479C10.9683 5.44796 10.9684 5.44803 10.5707 5.98645C10.1731 6.52487 10.1732 6.52494 10.1733 6.52501C10.1733 6.52503 10.1734 6.52511 10.1735 6.52516C10.1736 6.52526 10.1738 6.52536 10.1739 6.52547C10.1742 6.52568 10.1745 6.52592 10.1749 6.52617C10.1756 6.52667 10.1763 6.52724 10.1772 6.52787C10.1789 6.52914 10.181 6.53067 10.1835 6.53244C10.1884 6.53599 10.1948 6.54054 10.2025 6.54593C10.2178 6.5567 10.2387 6.57101 10.264 6.5877C10.3141 6.62065 10.385 6.66495 10.4685 6.71003C10.605 6.78371 10.8903 6.92501 11.2035 6.92501V5.58634ZM11.5444 5.43195C11.4915 5.46114 11.4032 5.50708 11.3131 5.54395C11.2683 5.56226 11.2313 5.57488 11.204 5.58224C11.1726 5.5907 11.1754 5.58634 11.2035 5.58634V6.92501C11.4475 6.92501 11.684 6.83853 11.8197 6.78306C11.9767 6.71887 12.1151 6.64598 12.191 6.60407L11.5444 5.43195ZM12.5371 6.01801V5.9865H11.1984V6.01801H12.5371ZM11.8677 5.9865C11.525 6.56143 11.525 6.56144 11.525 6.56144C11.525 6.56144 11.525 6.56145 11.525 6.56146C11.525 6.56146 11.5251 6.56147 11.5251 6.56148C11.5251 6.5615 11.5251 6.56152 11.5252 6.56154C11.5252 6.56157 11.5253 6.56161 11.5254 6.56165C11.5255 6.56174 11.5256 6.56182 11.5258 6.56192C11.5261 6.5621 11.5265 6.56231 11.5269 6.56254C11.5276 6.56301 11.5286 6.56357 11.5297 6.56421C11.5319 6.56551 11.5347 6.56716 11.5381 6.56914C11.5449 6.5731 11.5541 6.5784 11.5654 6.5848L12.2255 5.42022C12.219 5.41653 12.2143 5.41383 12.2117 5.41231C12.2104 5.41155 12.2096 5.41109 12.2094 5.41096C12.2093 5.41089 12.2093 5.41091 12.2095 5.41101C12.2096 5.41106 12.2097 5.41113 12.2099 5.41123C12.21 5.41128 12.21 5.41133 12.2101 5.41139C12.2102 5.41142 12.2102 5.41145 12.2103 5.41148C12.2103 5.41149 12.2103 5.41151 12.2104 5.41153C12.2104 5.41153 12.2104 5.41154 12.2104 5.41155C12.2104 5.41156 12.2104 5.41156 12.2104 5.41156C12.2104 5.41157 12.2105 5.41158 11.8677 5.9865Z" fill="white" mask="url(#path-12-outside-2_58_2005)"/>
</mask>
<g mask="url(#mask0_58_2005)">
<rect x="10.0331" y="5.8833" width="1.8625" height="2.55564" fill="#67BAFF"/>
<rect x="11.8956" y="5.8833" width="1.8625" height="2.55564" fill="white"/>
<rect x="9.80029" y="8.68225" width="4.65624" height="2.92073" fill="#C51918"/>
<path d="M12.7978 8.2578H12.5649V6.50769H12.7978V8.2578Z" fill="#C9A951"/>
<path d="M12.7035 7.4618L12.59 7.66508L12.1881 7.4407L12.3016 7.23743L12.7035 7.4618Z" fill="#C9A951"/>
<path d="M12.7035 6.97499L12.59 7.17826L12.1881 6.95388L12.3016 6.75061L12.7035 6.97499Z" fill="#C9A951"/>
<path d="M12.6537 7.4618L12.7672 7.66508L13.1691 7.4407L13.0556 7.23743L12.6537 7.4618Z" fill="#C9A951"/>
<path d="M12.6537 6.97499L12.7672 7.17826L13.1691 6.95388L13.0556 6.75061L12.6537 6.97499Z" fill="#C9A951"/>
<path fill-rule="evenodd" clip-rule="evenodd" d="M12.9948 9.21493C12.9948 9.21493 13.1568 9.02974 13.1568 9.12233C13.1568 9.21493 13.1568 9.37061 13.0758 9.37061C12.9948 9.37061 12.6176 9.29654 12.4739 9.12233C12.3302 8.94813 12.0262 8.64485 11.6348 8.71626C11.2435 8.78767 10.7793 9.29499 10.6649 9.29499C10.5505 9.29499 10.2997 9.68604 10.4823 9.99143C10.6649 10.2968 10.9755 10.2021 10.9755 10.2907C10.9755 10.3793 11.0531 10.3895 11.344 10.3895C11.6348 10.3895 11.7412 10.492 11.993 10.492C12.2447 10.492 11.9098 10.4883 12.3154 10.3895C12.7209 10.2907 13.028 9.99143 12.7917 9.99143C12.5554 9.99143 12.4791 9.99143 12.3154 9.99143C12.1517 9.99143 11.7873 10.1094 11.7873 9.99143C11.7873 9.87344 11.8682 9.62084 12.0918 9.74714C12.3154 9.87344 12.9366 9.96975 13.1568 9.74714C13.377 9.52453 13.454 9.3903 13.4155 9.12233C13.377 8.85437 13.0758 8.93149 13.0758 8.93149L12.9948 9.21493Z" fill="#FBCD17"/>
<path fill-rule="evenodd" clip-rule="evenodd" d="M11.4198 6.44727C11.2795 6.57001 11.37 7.01858 11.1401 7.01858C10.9101 7.01858 10.5865 6.68269 10.505 6.90433C10.4236 7.12597 10.505 7.0515 10.505 7.24027C10.505 7.42905 10.3099 7.95361 10.4075 8.04229C10.505 8.13096 10.605 8.36462 10.5877 8.25524C10.5704 8.14586 10.4966 7.98524 10.5274 7.81074C10.4976 7.63047 10.6918 7.45709 10.6918 7.45709C10.6918 7.45709 10.6707 7.64425 10.6554 7.71402C10.6554 7.71402 10.5914 7.85487 10.6174 7.94842C10.6174 7.94842 10.6832 8.21207 10.7103 8.23029C10.7103 8.23029 10.7279 7.60601 10.7479 7.50312C10.7679 7.40023 10.9106 7.61917 10.9581 7.59436C10.9581 7.59436 10.9744 8.02124 10.9497 8.07211C10.9497 8.07211 10.8997 8.17309 10.9183 8.20534C10.9183 8.20534 10.9647 8.32221 11.0043 8.28817C11.0043 8.28817 11.0057 8.28574 11.0258 8.17199C11.0258 8.17199 11.0025 8.1033 11.039 7.9469C11.039 7.9469 11.0774 7.60251 11.0933 7.67723C11.0933 7.67723 11.0862 7.83982 11.1045 7.92363C11.1045 7.92363 11.1338 8.1317 11.1397 8.15454C11.1397 8.15454 11.2802 8.35466 11.2839 8.27015C11.2839 8.27015 11.1493 8.10955 11.1781 7.98734C11.1781 7.98734 11.101 7.64114 11.2086 7.56395C11.2086 7.56395 11.4942 7.43187 11.5114 7.20577C11.5114 7.20577 11.5527 6.94812 11.5602 6.83C11.5602 6.83 11.4975 6.79527 11.627 6.73429C11.627 6.73429 11.8354 6.65429 11.7056 6.54304" fill="#D18219"/>
</g>
</g>
<defs>
<clipPath id="clip0_58_2005">
<rect width="21.4187" height="16.064" fill="white" transform="translate(0.837402 0.0738525)"/>
</clipPath>
</defs>
</svg>
