<svg width="23" height="17" viewBox="0 0 23 17" fill="none" xmlns="http://www.w3.org/2000/svg">
<g clip-path="url(#clip0_58_1957)">
<rect width="21.4187" height="16.064" transform="translate(0.674805 0.0738525)" fill="white"/>
<path fill-rule="evenodd" clip-rule="evenodd" d="M0.965454 0.0418701V16.1059H22.3842V0.0418701H0.965454Z" fill="#F7FCFF"/>
<mask id="mask0_58_1957" style="mask-type:luminance" maskUnits="userSpaceOnUse" x="0" y="0" width="23" height="17">
<path fill-rule="evenodd" clip-rule="evenodd" d="M0.965454 0.0418701V16.1059H22.3842V0.0418701H0.965454Z" fill="white"/>
</mask>
<g mask="url(#mask0_58_1957)">
<path fill-rule="evenodd" clip-rule="evenodd" d="M0.965454 0.0418701V4.05788H22.3842V0.0418701H0.965454Z" fill="#BF2714"/>
<path fill-rule="evenodd" clip-rule="evenodd" d="M0.965454 12.0898V16.1059H22.3842V12.0898H0.965454Z" fill="#BF2714"/>
<mask id="mask1_58_1957" style="mask-type:luminance" maskUnits="userSpaceOnUse" x="7" y="4" width="9" height="9">
<path fill-rule="evenodd" clip-rule="evenodd" d="M11.6748 12.0899C13.8928 12.0899 15.6908 10.2919 15.6908 8.07387C15.6908 5.85589 13.8928 4.05786 11.6748 4.05786C9.45684 4.05786 7.65881 5.85589 7.65881 8.07387C7.65881 10.2919 9.45684 12.0899 11.6748 12.0899Z" fill="white"/>
</mask>
<g mask="url(#mask1_58_1957)">
<path fill-rule="evenodd" clip-rule="evenodd" d="M8.02611 9.25504C7.98947 9.14027 8.11343 9.04064 8.21763 9.1011L8.46776 9.24625C8.50507 9.2679 8.55062 9.26991 8.58968 9.25161L9.20712 8.96252C9.2504 8.94225 9.30126 8.94703 9.34001 8.975L10.007 9.45638L10.929 8.95998C10.9645 8.94085 11.0068 8.93907 11.0439 8.95515L11.7382 9.2568C11.7733 9.27205 11.8133 9.27127 11.8478 9.25468L12.4708 8.9548C12.504 8.9388 12.5425 8.93748 12.5767 8.95117L13.3474 9.25902C13.3822 9.27289 13.4211 9.27134 13.4547 9.25476L14.0517 8.95941C14.0894 8.94074 14.1338 8.94125 14.1711 8.96079L14.7187 9.24753C14.7583 9.26828 14.8058 9.2675 14.8447 9.24545L15.1295 9.08413C15.231 9.02663 15.3516 9.11977 15.3216 9.23252L15.2621 9.45638H8.09039L8.02611 9.25504Z" fill="#5277B9"/>
<path fill-rule="evenodd" clip-rule="evenodd" d="M8.0236 10.0488C7.98803 9.93332 8.11377 9.83492 8.21731 9.8972L8.44486 10.0341C8.48301 10.057 8.53017 10.0591 8.57022 10.0397L9.15738 9.75474C9.20169 9.73324 9.2543 9.73826 9.29374 9.76776L9.9336 10.2464L10.8196 9.752C10.856 9.7317 10.8998 9.72981 10.9378 9.74692L11.6003 10.0452C11.6363 10.0614 11.6777 10.0606 11.7131 10.043L12.3073 9.74652C12.3414 9.7295 12.3812 9.7281 12.4164 9.74268L13.1528 10.0476C13.1885 10.0623 13.2289 10.0607 13.2632 10.0431L13.832 9.75143C13.8707 9.73159 13.9167 9.73213 13.9549 9.75287L14.4754 10.0354C14.5159 10.0574 14.5651 10.0566 14.6049 10.0332L14.866 9.87989C14.9669 9.82061 15.0893 9.91272 15.0602 10.0261L15.0037 10.2464H8.08447L8.0236 10.0488Z" fill="#5277B9"/>
<path fill-rule="evenodd" clip-rule="evenodd" d="M8.15519 10.5755C8.11962 10.4601 8.24536 10.3617 8.3489 10.4239L8.57646 10.5608C8.6146 10.5837 8.66176 10.5859 8.70181 10.5664L9.28897 10.2815C9.33328 10.26 9.38589 10.265 9.42533 10.2945L10.0652 10.7731L10.9512 10.2787C10.9875 10.2584 11.0314 10.2565 11.0694 10.2737L11.7319 10.5719C11.7679 10.5882 11.8093 10.5873 11.8447 10.5697L12.4389 10.2733C12.473 10.2562 12.5128 10.2548 12.548 10.2694L13.2844 10.5743C13.3201 10.5891 13.3605 10.5874 13.3948 10.5698L13.9636 10.2782C14.0023 10.2583 14.0483 10.2589 14.0865 10.2796L14.607 10.5621C14.6475 10.5841 14.6967 10.5833 14.7365 10.5599L14.9976 10.4066C15.0985 10.3473 15.2208 10.4395 15.1918 10.5529L15.1353 10.7731H8.21606L8.15519 10.5755Z" fill="#5277B9"/>
<path fill-rule="evenodd" clip-rule="evenodd" d="M8.94523 11.1023C8.90966 10.9868 9.0354 10.8884 9.13894 10.9507L9.36649 11.0875C9.40464 11.1105 9.4518 11.1126 9.49185 11.0932L10.079 10.8082C10.1233 10.7867 10.1759 10.7917 10.2154 10.8212L10.8552 11.2999L11.7412 10.8055C11.7776 10.7852 11.8214 10.7833 11.8594 10.8004L12.5219 11.0987C12.5579 11.1149 12.5994 11.1141 12.6347 11.0964L13.2289 10.8C13.263 10.783 13.3028 10.7816 13.3381 10.7962L14.0744 11.101C14.1101 11.1158 14.1505 11.1142 14.1849 11.0965L14.7536 10.8049C14.7923 10.7851 14.8383 10.7856 14.8765 10.8063L15.397 11.0888C15.4376 11.1109 15.4867 11.11 15.5265 11.0867L15.7876 10.9334C15.8886 10.8741 16.0109 10.9662 15.9818 11.0796L15.9253 11.2999H9.0061L8.94523 11.1023Z" fill="#5277B9"/>
<path fill-rule="evenodd" clip-rule="evenodd" d="M7.89189 11.7605C7.85632 11.645 7.98205 11.5466 8.08559 11.6089L8.31315 11.7457C8.3513 11.7687 8.39846 11.7708 8.43851 11.7514L9.02567 11.4664C9.06998 11.4449 9.12259 11.4499 9.16203 11.4794L9.80188 11.9581L10.6879 11.4637C10.7242 11.4434 10.7681 11.4415 10.8061 11.4586L11.4686 11.7569C11.5046 11.7731 11.546 11.7723 11.5814 11.7546L12.1756 11.4582C12.2097 11.4412 12.2495 11.4398 12.2847 11.4544L13.0211 11.7592C13.0568 11.774 13.0972 11.7724 13.1315 11.7547L13.7003 11.4631C13.739 11.4433 13.785 11.4438 13.8232 11.4645L14.3437 11.747C14.3842 11.7691 14.4333 11.7682 14.4731 11.7449L14.7342 11.5916C14.8352 11.5323 14.9575 11.6244 14.9285 11.7378L14.872 11.9581H7.95276L7.89189 11.7605Z" fill="#5277B9"/>
<path d="M10.619 9.50498V10.1743C10.0538 10.1743 9.65402 9.82727 9.4596 9.21105L9.44409 9.11036V6.36438H10.1134V9.05656C10.2249 9.3781 10.3818 9.50498 10.619 9.50498Z" fill="#FF0000"/>
<path d="M12.4726 9.50498V10.1743C13.0377 10.1743 13.4375 9.82727 13.632 9.21105L13.6475 9.11036V6.36438H12.9781V9.05656C12.8666 9.3781 12.7097 9.50498 12.4726 9.50498Z" fill="#FF0000"/>
<path fill-rule="evenodd" clip-rule="evenodd" d="M12.1599 4.6661C12.1599 4.6661 11.0496 4.37576 11.0496 5.11199C11.0496 5.84822 11.0496 7.42933 11.0496 7.42933L12.344 7.81375V5.91966C12.344 5.91966 11.6968 5.52418 11.6968 5.2149C11.6968 4.90562 12.1599 4.6661 12.1599 4.6661Z" fill="#FF0000"/>
<path d="M10.2919 8.66993L10.714 8.13049" stroke="black" stroke-width="0.669335"/>
<path d="M10.6768 8.65216L10.2723 8.1095" stroke="black" stroke-width="0.669335"/>
<path d="M10.8975 8.66993L11.3196 8.13049" stroke="black" stroke-width="0.669335"/>
<path d="M11.2824 8.65216L10.8779 8.1095" stroke="black" stroke-width="0.669335"/>
<path d="M11.4767 8.66993L11.8988 8.13049" stroke="black" stroke-width="0.669335"/>
<path d="M11.8616 8.65216L11.4572 8.1095" stroke="black" stroke-width="0.669335"/>
<path d="M12.0825 8.66993L12.5047 8.13049" stroke="black" stroke-width="0.669335"/>
<path d="M12.4675 8.65216L12.063 8.1095" stroke="black" stroke-width="0.669335"/>
<path d="M12.6882 8.66993L13.1104 8.13049" stroke="black" stroke-width="0.669335"/>
<path d="M13.0732 8.65216L12.6687 8.1095" stroke="black" stroke-width="0.669335"/>
<path fill-rule="evenodd" clip-rule="evenodd" d="M9.97103 4.79071L10.7721 6.3558L10.8708 4.79071L10.7721 4.48242L9.97103 4.79071ZM9.56968 6.12631L8.99252 5.51434L9.56968 4.82657L10.7828 6.76586V7.25879L10.1995 6.76586V6.12631H9.56968ZM8.299 6.59775L9.35175 7.10174L9.434 6.3231L8.55751 5.57418L8.299 6.59775ZM9.40492 7.89027L8.02013 7.74862V6.77199L9.40492 7.30465V7.89027ZM7.98259 8.84958L7.81824 8.01915L9.37913 8.09697V8.84958H7.98259ZM10.1804 7.48509V7.01637L10.7641 7.48509L10.7008 7.73258L10.1804 7.48509ZM15.6109 8.01915L15.4466 8.84958H14.05V8.09697L15.6109 8.01915ZM14.0243 7.89027L15.409 7.74862V6.77199L14.0243 7.30465V7.89027ZM15.1302 6.59775L14.0774 7.10174L13.9952 6.3231L14.8717 5.57418L15.1302 6.59775ZM13.8595 6.12631L14.4367 5.51434L13.8595 4.82657L12.6464 6.76586V7.25879L13.2297 6.76586V6.12631H13.8595ZM13.4582 4.79071L12.657 6.3558L12.5584 4.79071L12.657 4.48242L13.4582 4.79071ZM13.2488 7.48509V7.01637L12.6651 7.48509L12.7284 7.73258L13.2488 7.48509Z" fill="#FA8F21"/>
</g>
</g>
</g>
<defs>
<clipPath id="clip0_58_1957">
<rect width="21.4187" height="16.064" fill="white" transform="translate(0.674805 0.0738525)"/>
</clipPath>
</defs>
</svg>
