<svg width="22" height="17" viewBox="0 0 22 17" fill="none" xmlns="http://www.w3.org/2000/svg">
<g clip-path="url(#clip0_58_1944)">
<rect width="21.4187" height="16.064" transform="translate(0.512329 0.0738525)" fill="white"/>
<rect x="0.802979" y="0.0418701" width="21.4187" height="16.064" rx="1.33867" fill="#E11C1B"/>
<path fill-rule="evenodd" clip-rule="evenodd" d="M0.802979 0.0418701L22.2217 16.1059H0.802979V0.0418701Z" fill="#1D1D1D"/>
<path fill-rule="evenodd" clip-rule="evenodd" d="M5.54407 12.2697H6.4355L6.85945 11.2701L7.35776 12.2629L8.27108 12.3129L7.49054 13.1624L7.89132 14.1859L6.89918 13.6162L5.98301 14.191L6.32861 13.1973L5.54407 12.2697Z" fill="#EEEEF6"/>
<path fill-rule="evenodd" clip-rule="evenodd" d="M2.8667 9.59229H3.75813L4.18208 8.59277L4.68039 9.58555L5.59371 9.6355L4.81318 10.4851L5.21395 11.5085L4.22181 10.9388L3.30564 11.5136L3.65124 10.5199L2.8667 9.59229Z" fill="#EEEEF6"/>
<path fill-rule="evenodd" clip-rule="evenodd" d="M5.54407 8.25366H6.4355L6.85945 7.25415L7.35776 8.24693L8.27108 8.29688L7.49054 9.14643L7.89132 10.1699L6.89918 9.60018L5.98301 10.175L6.32861 9.18127L5.54407 8.25366Z" fill="#EEEEF6"/>
<path fill-rule="evenodd" clip-rule="evenodd" d="M7.30298 11.1289L7.91574 11.1086L8.13693 10.4766L8.38526 11.1052L8.94911 11.1594L8.44137 11.5184L8.85087 12.1541L8.1404 11.8883L7.52464 12.1626L7.84982 11.5359L7.30298 11.1289Z" fill="#EEEEF6"/>
<path fill-rule="evenodd" clip-rule="evenodd" d="M8.6416 9.7903L9.25436 9.76993L9.47555 9.13794L9.72389 9.76655L10.2877 9.82076L9.77999 10.1798L10.1895 10.8155L9.47903 10.5497L8.86326 10.824L9.18844 10.1972L8.6416 9.7903Z" fill="#EEEEF6"/>
<path fill-rule="evenodd" clip-rule="evenodd" d="M14.9151 1.38062C14.9151 1.38062 12.8477 1.79306 13.4279 4.66695H13.1329C13.1329 4.66695 13.1571 4.51698 12.8735 4.42905C12.5899 4.34113 12.6467 4.37413 12.5004 4.42905C12.354 4.48397 11.4637 4.42905 11.4637 4.42905V4.53907L12.0937 4.81116C12.0937 4.81116 12.0782 5.03773 12.3416 5.16328C12.605 5.28883 12.7962 5.34932 12.7962 5.34932C12.7962 5.34932 12.8352 5.59934 12.5884 5.59934C12.3416 5.59934 11.3489 5.27756 10.9959 6.06812C10.6428 6.85869 10.1736 7.43874 10.1736 7.43874H10.703L10.5609 7.61528H11.157L10.9959 7.70674C10.9959 7.70674 11.7333 7.69854 11.7908 7.61528C11.8483 7.53202 11.7908 7.84099 11.7908 7.84099C11.7908 7.84099 12.5052 7.51477 12.5443 7.43874L12.8778 7.66747L12.9727 7.28041L13.3305 7.43874L13.4279 7.06995C13.4279 7.06995 14.44 8.76257 15.2076 8.66542V8.3845L15.9081 8.66542L15.997 8.5405C15.997 8.5405 16.8433 8.88556 17.1037 8.91754L16.9179 8.5405H17.1037L16.9179 7.84099H17.1037L16.7321 7.28041L16.8362 7.12862L16.7673 6.92915C16.7673 6.92915 18.1297 7.36316 18.0683 8.05367C18.0069 8.74419 17.4001 9.02283 17.4001 9.02283C17.4001 9.02283 16.8182 9.20108 16.2927 9.16272C16.2927 9.16272 16.7099 9.65552 17.5926 9.48854C18.4753 9.32156 18.7679 8.46566 18.7679 8.46566C18.7679 8.46566 19.1726 9.30636 18.8394 9.7484C18.5062 10.1904 17.0226 10.5008 17.0226 10.5008C17.0226 10.5008 17.5594 10.8155 18.0683 10.7349C18.5772 10.6542 19.3687 10.2113 19.5221 9.48854C19.6756 8.76581 18.9928 7.43219 18.6835 7.28041L18.5613 6.81771L18.8394 6.92915L18.2689 5.53395L18.5455 5.59456L17.7383 4.59046L17.9606 4.52199L16.8454 3.72039L17.1791 3.63223C17.1791 3.63223 16.3548 3.21449 15.4145 3.72039L15.4234 3.54561L15.1763 3.58738L15.191 3.39513L15.4365 3.02304L15.0679 2.88099C15.0679 2.88099 15.3659 2.43326 15.3212 2.43941C15.3212 2.43941 14.989 2.53474 15.0079 2.49478C15.0079 2.49478 15.1754 2.06328 15.1313 2.07483C15.1313 2.07483 14.7461 2.20584 14.8031 2.14028L14.9512 1.87666L14.9151 1.38062Z" fill="#FBCD17"/>
</g>
<defs>
<clipPath id="clip0_58_1944">
<rect width="21.4187" height="16.064" fill="white" transform="translate(0.512329 0.0738525)"/>
</clipPath>
</defs>
</svg>
