<svg width="22" height="17" viewBox="0 0 22 17" fill="none" xmlns="http://www.w3.org/2000/svg">
<g clip-path="url(#clip0_58_1904)">
<rect width="21.4187" height="16.064" transform="translate(0.349609 0.0738525)" fill="white"/>
<path fill-rule="evenodd" clip-rule="evenodd" d="M0.640259 0.0418701V16.1059H22.059V0.0418701H0.640259Z" fill="#BF2714"/>
<mask id="mask0_58_1904" style="mask-type:luminance" maskUnits="userSpaceOnUse" x="0" y="0" width="23" height="17">
<path fill-rule="evenodd" clip-rule="evenodd" d="M0.640259 0.0418701V16.1059H22.059V0.0418701H0.640259Z" fill="white"/>
</mask>
<g mask="url(#mask0_58_1904)">
<path fill-rule="evenodd" clip-rule="evenodd" d="M0.640259 -1.29675V8.07394H22.059V-1.29675H0.640259Z" fill="#3D58DB"/>
</g>
<path fill-rule="evenodd" clip-rule="evenodd" d="M0.640259 0.0418701V16.1059L12.6883 8.07389L0.640259 0.0418701Z" fill="#F7FCFF"/>
<mask id="mask1_58_1904" style="mask-type:luminance" maskUnits="userSpaceOnUse" x="0" y="0" width="13" height="17">
<path fill-rule="evenodd" clip-rule="evenodd" d="M0.640259 0.0418701V16.1059L12.6883 8.07389L0.640259 0.0418701Z" fill="white"/>
</mask>
<g mask="url(#mask1_58_1904)">
<path fill-rule="evenodd" clip-rule="evenodd" d="M9.74652 7.3511L10.6005 7.68043L11.1086 7.08249L11.1221 7.88219L11.9081 8.13784L11.0808 8.41865L11.1353 9.15351L10.5904 8.5906L9.7339 8.75351L10.2396 8.10516L9.74652 7.3511Z" fill="#FECA00"/>
<path fill-rule="evenodd" clip-rule="evenodd" d="M1.71454 11.3671L2.49952 11.7141L3.07663 11.0985L3.02109 11.9159L3.87608 12.1538L2.97977 12.4524L3.10331 13.1695L2.47924 12.6571L1.70192 12.7695L2.13858 12.1389L1.71454 11.3671Z" fill="#FECA00"/>
<path fill-rule="evenodd" clip-rule="evenodd" d="M1.71454 3.33511L2.58318 3.6552L3.07663 3.0665L3.10475 3.85696L3.87608 4.12185L3.06343 4.39342L3.10331 5.13752L2.5629 4.59813L1.70192 4.73751L2.22224 4.07992L1.71454 3.33511Z" fill="#FECA00"/>
<path fill-rule="evenodd" clip-rule="evenodd" d="M6.07629 9.76916C7.00045 9.76916 7.74963 9.01998 7.74963 8.09582C7.74963 7.17166 7.00045 6.42249 6.07629 6.42249C5.15213 6.42249 4.40295 7.17166 4.40295 8.09582C4.40295 9.01998 5.15213 9.76916 6.07629 9.76916Z" fill="#FECA00"/>
<path fill-rule="evenodd" clip-rule="evenodd" d="M5.87849 5.55699L5.96841 6.63194C5.97701 6.69721 6.02723 6.74922 6.09216 6.76009C6.17374 6.77374 6.25094 6.71868 6.26459 6.63711L6.38327 5.5658C6.38535 5.55334 6.38651 5.54074 6.38673 5.52811C6.38919 5.38717 6.27693 5.27093 6.13599 5.26846C6.12336 5.26824 6.11073 5.26896 6.09821 5.27061C5.95846 5.28902 5.86008 5.41723 5.87849 5.55699ZM5.59859 6.07653L5.73756 6.54415C5.75046 6.58756 5.79381 6.61444 5.84283 6.60579C5.88302 6.59629 5.9079 6.55601 5.89841 6.51583L5.7875 6.04652C5.77475 5.99255 5.72246 5.9576 5.66771 5.96646C5.66406 5.96705 5.66044 5.96788 5.65689 5.96894C5.61108 5.98255 5.58498 6.03072 5.59859 6.07653ZM6.35013 6.56362C6.33924 6.60345 6.3627 6.64458 6.4069 6.65653C6.45122 6.66582 6.49549 6.64047 6.50989 6.59754L6.66509 6.13506C6.6803 6.08975 6.65589 6.0407 6.61059 6.02549C6.60708 6.02431 6.60349 6.02336 6.59986 6.02264C6.54545 6.01188 6.49197 6.04498 6.47734 6.09847L6.35013 6.56362ZM7.74048 6.09367L6.99236 6.91977C6.95228 6.972 6.95102 7.04428 6.98925 7.09789C7.03728 7.16523 7.1308 7.18088 7.19813 7.13285L8.09118 6.45683C8.10147 6.4495 8.11119 6.44141 8.12028 6.43263C8.22168 6.33471 8.2245 6.17313 8.12658 6.07173C8.1178 6.06265 8.10837 6.05422 8.09834 6.04654C7.98651 5.96073 7.82629 5.98183 7.74048 6.09367ZM7.51286 7.84727L8.62995 7.76081C8.7697 7.7424 8.89792 7.84078 8.91632 7.98053C8.91797 7.99305 8.91869 8.00568 8.91847 8.01831C8.91601 8.15925 8.79976 8.27151 8.65882 8.26905C8.64619 8.26883 8.6336 8.26767 8.62114 8.26559L7.50769 8.14345C7.42611 8.12979 7.37105 8.05259 7.38471 7.97102C7.39558 7.90608 7.44758 7.85586 7.51286 7.84727ZM8.09267 9.62644L7.22512 8.87115C7.17289 8.83108 7.1006 8.82981 7.047 8.86804C6.97966 8.91607 6.96401 9.00959 7.01204 9.07693L7.7295 9.97714C7.73684 9.98742 7.74493 9.99715 7.7537 10.0062C7.85162 10.1076 8.0132 10.1105 8.1146 10.0125C8.12369 10.0038 8.13211 9.99432 8.1398 9.9843C8.2256 9.87246 8.2045 9.71224 8.09267 9.62644ZM6.2976 9.39174L6.36383 10.5196C6.38224 10.6593 6.28387 10.7876 6.14411 10.806C6.13159 10.8076 6.11896 10.8083 6.10633 10.8081C5.96539 10.8056 5.85313 10.6894 5.85559 10.5485C5.85581 10.5358 5.85697 10.5232 5.85906 10.5108L6.00142 9.38657C6.01507 9.30499 6.09227 9.24993 6.17385 9.26359C6.23878 9.27446 6.289 9.32646 6.2976 9.39174ZM4.53653 10.001L5.27366 9.10392C5.31374 9.05168 5.315 8.9794 5.27677 8.92579C5.22875 8.85846 5.13522 8.8428 5.06789 8.89083L4.18583 9.63785C4.17554 9.64518 4.16582 9.65327 4.15673 9.66204C4.05533 9.75996 4.05251 9.92154 4.15043 10.0229C4.15921 10.032 4.16864 10.0405 4.17866 10.0481C4.2905 10.1339 4.45072 10.1128 4.53653 10.001ZM4.75312 8.17646L3.62917 8.26907C3.48941 8.28748 3.3612 8.18911 3.34279 8.04935C3.34114 8.03683 3.34042 8.0242 3.34064 8.01157C3.3431 7.87063 3.45935 7.75837 3.60029 7.76083C3.61292 7.76105 3.62552 7.76221 3.63798 7.7643L4.75829 7.88027C4.83986 7.89393 4.89492 7.97113 4.88127 8.0527C4.8704 8.11764 4.81839 8.16786 4.75312 8.17646ZM4.0876 6.41538L5.04089 7.15251C5.09313 7.19259 5.16541 7.19385 5.21901 7.15562C5.28635 7.10759 5.302 7.01407 5.25398 6.94674L4.45077 6.06467C4.44343 6.05439 4.43534 6.04467 4.42657 6.03558C4.32865 5.93418 4.16707 5.93136 4.06567 6.02928C4.05658 6.03805 4.04816 6.04749 4.04047 6.05751C3.95466 6.16935 3.97577 6.32957 4.0876 6.41538ZM6.89126 6.69444L7.12365 6.26552C7.14642 6.2235 7.19894 6.2079 7.24095 6.23066C7.24421 6.23243 7.24735 6.2344 7.25036 6.23657C7.29533 6.26901 7.3076 6.3307 7.27845 6.37788L7.02502 6.78815C7.00332 6.82328 6.95725 6.83417 6.92211 6.81247C6.88133 6.78392 6.86968 6.73426 6.89126 6.69444ZM8.06833 7.47748L7.60071 7.61645C7.5573 7.62935 7.53042 7.6727 7.53907 7.72172C7.54856 7.76191 7.58884 7.78679 7.62903 7.77729L8.09834 7.66639C8.15231 7.65364 8.18725 7.60135 8.17839 7.5466C8.1778 7.54294 8.17698 7.53933 8.17592 7.53578C8.16231 7.48997 8.11414 7.46387 8.06833 7.47748ZM7.45039 8.77011L7.8793 9.0025C7.92132 9.02527 7.93693 9.07778 7.91416 9.1198C7.9124 9.12306 7.91043 9.1262 7.90826 9.1292C7.87581 9.17418 7.81413 9.18645 7.76695 9.1573L7.35668 8.90387C7.32154 8.88217 7.31065 8.83609 7.33236 8.80096C7.36091 8.76018 7.41057 8.74853 7.45039 8.77011ZM6.66734 9.94717L6.52838 9.47956C6.51548 9.43615 6.47213 9.40927 6.4231 9.41791C6.38292 9.42741 6.35803 9.46769 6.36753 9.50788L6.47843 9.97718C6.49119 10.0312 6.54348 10.0661 6.59822 10.0572C6.60188 10.0567 6.6055 10.0558 6.60905 10.0548C6.65486 10.0412 6.68096 9.99298 6.66734 9.94717ZM5.37472 9.32923L5.14233 9.75815C5.11956 9.80017 5.06704 9.81578 5.02502 9.79301C5.02177 9.79125 5.01863 9.78927 5.01562 9.78711C4.97064 9.75466 4.95838 9.69298 4.98753 9.64579L5.24096 9.23552C5.26266 9.20039 5.30873 9.1895 5.34387 9.2112C5.38465 9.23976 5.39629 9.28942 5.37472 9.32923ZM4.19765 8.54619L4.66527 8.40723C4.70868 8.39433 4.73556 8.35098 4.72691 8.30195C4.71741 8.26176 4.67714 8.23688 4.63695 8.24638L4.16764 8.35728C4.11367 8.37004 4.07872 8.42233 4.08758 8.47707C4.08818 8.48073 4.089 8.48435 4.09006 8.4879C4.10367 8.53371 4.15184 8.55981 4.19765 8.54619ZM4.81559 7.25357L4.38667 7.02117C4.34466 6.99841 4.32905 6.94589 4.35181 6.90387C4.35358 6.90062 4.35555 6.89747 4.35772 6.89447C4.39017 6.84949 4.45185 6.83723 4.49903 6.86637L4.9093 7.1198C4.94444 7.14151 4.95532 7.18758 4.93362 7.22271C4.90507 7.2635 4.85541 7.27514 4.81559 7.25357ZM7.31062 7.14137C7.27475 7.16184 7.26226 7.2075 7.28507 7.24721C7.30984 7.28512 7.35906 7.2985 7.39961 7.27833L7.83638 7.06104C7.87916 7.03976 7.89659 6.98782 7.87531 6.94503C7.87366 6.94171 7.8718 6.9385 7.86973 6.93543C7.83888 6.88934 7.77766 6.87493 7.72949 6.90242L7.31062 7.14137ZM7.48833 8.28579C7.50028 8.24159 7.5414 8.21813 7.58123 8.22902L8.04639 8.35623C8.09988 8.37086 8.13298 8.42434 8.12221 8.47874C8.12149 8.48238 8.12054 8.48596 8.11936 8.48948C8.10416 8.53478 8.05511 8.55918 8.0098 8.54398L7.54732 8.38878C7.50438 8.37438 7.47903 8.33011 7.48833 8.28579ZM7.00345 9.18947C6.98299 9.1536 6.93732 9.14111 6.89761 9.16392C6.8597 9.18869 6.84633 9.23791 6.8665 9.27846L7.08378 9.71522C7.10507 9.75801 7.15701 9.77544 7.1998 9.75416C7.20311 9.75251 7.20632 9.75064 7.2094 9.74858C7.25548 9.71773 7.26989 9.65651 7.24241 9.60834L7.00345 9.18947ZM5.85903 9.36718C5.90324 9.37913 5.9267 9.42025 5.91581 9.46008L5.78859 9.92523C5.77396 9.97873 5.72049 10.0118 5.66608 10.0011C5.66245 10.0003 5.65886 9.99939 5.65535 9.99821C5.61004 9.98301 5.58564 9.93396 5.60085 9.88865L5.75605 9.42616C5.77045 9.38323 5.81471 9.35788 5.85903 9.36718ZM4.95536 8.8823C4.99122 8.86184 5.00371 8.81617 4.9809 8.77646C4.95614 8.73855 4.90692 8.72518 4.86637 8.74535L4.4296 8.96263C4.38682 8.98392 4.36938 9.03586 4.39067 9.07865C4.39232 9.08196 4.39418 9.08517 4.39624 9.08825C4.4271 9.13433 4.48832 9.14874 4.53649 9.12126L4.95536 8.8823ZM4.77765 7.73788C4.7657 7.78209 4.72458 7.80555 4.68474 7.79466L4.21959 7.66744C4.1661 7.65281 4.133 7.59933 4.14376 7.54493C4.14448 7.5413 4.14544 7.53771 4.14661 7.5342C4.16182 7.48889 4.21087 7.46449 4.25618 7.47969L4.71866 7.63489C4.76159 7.6493 4.78694 7.69356 4.77765 7.73788ZM5.26252 6.8342C5.28299 6.87007 5.32865 6.88256 5.36836 6.85975C5.40628 6.83499 5.41965 6.78576 5.39948 6.74522L5.18219 6.30845C5.16091 6.26566 5.10897 6.24823 5.06618 6.26952C5.06286 6.27117 5.05966 6.27303 5.05658 6.27509C5.01049 6.30595 4.99609 6.36717 5.02357 6.41534L5.26252 6.8342Z" fill="#FECA00"/>
</g>
</g>
<defs>
<clipPath id="clip0_58_1904">
<rect width="21.4187" height="16.064" fill="white" transform="translate(0.349609 0.0738525)"/>
</clipPath>
</defs>
</svg>
