<svg width="22" height="17" viewBox="0 0 22 17" fill="none" xmlns="http://www.w3.org/2000/svg">
<g clip-path="url(#clip0_58_1894)">
<rect width="21.4187" height="16.064" transform="translate(0.187134 0.0738525)" fill="white"/>
<path fill-rule="evenodd" clip-rule="evenodd" d="M5.83252 0.0418701H21.8966V16.1059H5.83252V0.0418701Z" fill="#2F8D00"/>
<path fill-rule="evenodd" clip-rule="evenodd" d="M0.477783 0.0418701H5.83246V16.1059H0.477783V0.0418701Z" fill="#F7FCFF"/>
<path fill-rule="evenodd" clip-rule="evenodd" d="M15.4906 10.2869C15.4906 10.2869 12.5015 11.0662 10.1289 9.47652C7.75638 7.88689 8.94902 4.22371 8.94902 4.22371C7.71146 4.40379 5.76794 8.91903 8.90071 11.1837C12.0335 13.4484 15.0346 11.2714 15.4906 10.2869ZM12.1736 5.97657L10.5863 6.75276L12.2608 7.05101L12.4869 8.68788L13.4354 7.29379L15.3018 7.41964L13.8399 6.32936L14.6182 4.87265L13.1628 5.53921L12.0817 4.5227L12.1736 5.97657Z" fill="#F1F9FF"/>
</g>
<defs>
<clipPath id="clip0_58_1894">
<rect width="21.4187" height="16.064" fill="white" transform="translate(0.187134 0.0738525)"/>
</clipPath>
</defs>
</svg>
