<svg width="22" height="17" viewBox="0 0 22 17" fill="none" xmlns="http://www.w3.org/2000/svg">
<g clip-path="url(#clip0_58_1758)">
<rect width="21.4187" height="16.064" transform="translate(0.536865 0.0738525)" fill="white"/>
<path fill-rule="evenodd" clip-rule="evenodd" d="M0.827515 0.0418701V16.1059H22.2462V0.0418701H0.827515Z" fill="#2E42A5"/>
<mask id="mask0_58_1758" style="mask-type:luminance" maskUnits="userSpaceOnUse" x="0" y="0" width="23" height="17">
<path fill-rule="evenodd" clip-rule="evenodd" d="M0.827515 0.0418701V16.1059H22.2462V0.0418701H0.827515Z" fill="white"/>
</mask>
<g mask="url(#mask0_58_1758)">
</g>
<g clip-path="url(#clip1_58_1758)">
<rect width="12.048" height="9.37069" transform="translate(0.536865 0.0738525)" fill="#2E42A5"/>
<path d="M-0.804688 8.77497L1.84652 9.93774L12.645 1.33794L14.0435 -0.389968L11.2084 -0.7786L6.80394 2.9273L3.25881 5.42421L-0.804688 8.77497Z" fill="#F7FCFF"/>
<path d="M-0.441772 9.58975L0.908893 10.2645L13.5413 -0.550399H11.6448L-0.441772 9.58975Z" fill="#F50100"/>
<path d="M13.9264 8.77497L11.2752 9.93774L0.476675 1.33794L-0.921775 -0.389968L1.91331 -0.7786L6.31776 2.9273L9.8629 5.42421L13.9264 8.77497Z" fill="#F7FCFF"/>
<path d="M13.8359 9.35977L12.4853 10.0345L7.10628 5.40411L5.51152 4.88677L-1.05633 -0.383933H0.840163L7.40432 4.76166L9.14791 5.38202L13.8359 9.35977Z" fill="#F50100"/>
<path fill-rule="evenodd" clip-rule="evenodd" d="M7.21985 0.0738525H5.88118V4.08986H0.536865V5.42853H5.88118V9.44454H7.21985V5.42853H12.5849V4.08986H7.21985V0.0738525Z" fill="#F50100"/>
<path fill-rule="evenodd" clip-rule="evenodd" d="M4.87718 0.0738525H8.22385V3.08586H12.5849V6.43254H8.22385L8.23422 9.44454H4.88754L4.87718 6.43254H0.536865V3.08586H4.87718V0.0738525ZM5.88118 4.08986H0.536865V5.42853H5.88118V9.44454H7.21985V5.42853H12.5849V4.08986H7.21985V0.0738525H5.88118V4.08986Z" fill="#F7FCFF"/>
</g>
<path fill-rule="evenodd" clip-rule="evenodd" d="M14.6265 7.24189C14.6265 7.24189 14.6926 7.9746 14.5477 8.38978C14.4028 8.80497 14.3292 9.04597 14.3292 8.78059C14.3292 8.5152 14.2274 8.30488 14.1456 8.30488C14.0638 8.30488 14.1284 8.56806 14.0461 8.56806C13.9639 8.56806 13.6805 8.61331 13.6805 8.45909C13.6805 8.30488 13.6432 8.87279 13.8271 8.92358C14.0109 8.97437 13.7378 9.13196 13.6158 9.08315C13.6158 9.08315 14.1175 9.2462 14.3142 9.38513C14.3142 9.38513 14.9039 10.1213 15.4554 10.0315C15.4554 10.0315 14.7044 9.77224 14.8367 9.27689C14.9691 8.78153 15.4554 8.70988 15.4554 8.70988C15.4554 8.70988 15.6837 8.78622 15.6768 8.98617C15.67 9.18613 15.8437 8.92358 15.8437 8.92358C15.8437 8.92358 15.8717 8.67094 15.8409 8.60929C15.81 8.54765 16.3636 8.42831 16.3986 8.16815C16.3986 8.16815 15.8329 8.19402 15.7941 8.12719C15.7552 8.06036 15.9691 7.95558 15.9022 7.8253C15.8353 7.69502 14.8367 8.56806 14.8367 8.56806C14.8367 8.56806 15.1816 7.97383 15.1816 7.65473C15.1816 7.33562 15.094 7.11755 14.8367 7.11755C14.5795 7.11755 14.6265 7.24189 14.6265 7.24189Z" fill="#5EAA22"/>
<path fill-rule="evenodd" clip-rule="evenodd" d="M19.8256 7.4161C19.8249 7.41719 19.8263 7.41813 19.8272 7.41725C19.8644 7.38064 20.0935 7.16994 20.2855 7.33661C20.4952 7.51858 20.1799 7.69591 20.1799 7.69591C20.1799 7.69591 20.3273 7.83886 20.4958 7.83886C20.6644 7.83886 20.7057 7.69591 20.7057 7.69591C20.7057 7.69591 20.7186 8.01403 21.2682 8.13449C21.2682 8.13449 21.4644 7.8529 21.2682 7.69874C21.2682 7.69874 21.4999 7.65067 21.4831 7.46302C21.4831 7.46302 21.2926 7.52791 21.1568 7.37879C21.021 7.22967 20.7563 7.1609 20.5638 7.19529C20.0753 7.0191 19.8554 7.36422 19.8256 7.4161Z" fill="#5EAA22"/>
<path fill-rule="evenodd" clip-rule="evenodd" d="M16.4924 9.02103C16.4924 9.02103 17.0608 10.0902 16.7056 10.3117C16.3503 10.5333 18.3948 10.3757 18.5874 10.3117C18.7801 10.2478 18.5486 9.91069 18.3349 9.8171C18.1213 9.72351 17.243 9.41215 17.0093 9.17731C16.7757 8.94248 16.9184 8.85915 17.1066 8.62734C17.2948 8.39553 17.9914 8.30283 17.9914 8.08615C17.9914 7.86948 18.4333 6.97589 18.7421 6.90847C19.051 6.84105 18.8841 6.73488 18.8131 6.73488C18.7421 6.73488 18.3152 7.17499 18.1533 7.09558C17.9914 7.01618 17.9716 7.02177 18.1533 6.82983C18.3349 6.6379 18.4717 6.41699 18.2315 6.57594C17.9914 6.73488 17.5955 6.98643 17.4052 6.98643C17.2149 6.98643 16.5373 6.90063 16.6215 7.09558C16.7056 7.29053 16.7412 7.62893 17.1066 7.85754C17.4719 8.08615 17.3131 8.25345 17.0093 8.47374C16.7056 8.69404 16.4924 9.02103 16.4924 9.02103Z" fill="#96877D"/>
<path d="M20.264 7.60718L19.1809 9.7794C19.1809 9.7794 19.1493 10.393 19.9237 9.98413C20.698 9.57526 20.6675 9.28526 20.8908 9.28526C21.114 9.28526 21.1849 9.16129 21.1849 9.16129L21.0362 9.04435C21.0362 9.04435 21.019 8.83105 21.1132 8.78315C21.1132 8.78315 20.9284 8.68135 20.902 8.76634C20.8756 8.85133 20.7453 8.58856 20.819 8.58856C20.819 8.58856 20.6561 8.85237 20.6217 8.9553C20.6217 8.9553 20.386 8.85944 20.3973 8.41533C20.4086 7.97121 20.264 7.60718 20.264 7.60718Z" fill="#FFD018"/>
<path d="M15.1087 7.26321C15.1087 7.26321 14.5572 7.3916 14.6167 7.52522C14.6762 7.65883 14.7638 7.52161 14.4938 7.68263C14.4938 7.68263 14.0194 8.04941 13.916 8.00966C13.8126 7.96992 13.9893 8.10205 13.9893 7.68263C13.9893 7.26321 13.7138 7.60462 13.9893 7.32463C14.2647 7.04464 14.3613 7.26321 14.4938 7.1021C14.6263 6.94099 14.5072 7.02666 14.8665 7.02666C15.2259 7.02666 15.1087 7.26321 15.1087 7.26321Z" fill="#FFD018"/>
<path d="M16.7916 9.42212C16.7916 9.42212 15.2474 10.6356 14.9387 10.7262C14.6301 10.8168 15.5735 10.7013 15.804 10.5411C16.0344 10.3809 16.7916 9.42212 16.7916 9.42212Z" fill="#FFD018"/>
<path fill-rule="evenodd" clip-rule="evenodd" d="M19.853 11.5508C19.853 11.5508 20.0013 12.5069 19.6143 12.4128C19.2274 12.3187 19.0668 12.2701 19.0668 12.2701C19.0668 12.2701 19.2087 12.7154 19.4115 12.7154C19.4115 12.7154 19.7571 13.3888 19.6241 13.6014C19.6241 13.6014 20.2193 13.1185 20.1231 12.7346C20.0268 12.3507 20.2769 12.7978 20.2769 12.7978C20.2769 12.7978 20.4959 12.9035 20.6543 12.7854C20.8126 12.6673 20.6523 12.7198 20.4939 12.4949C20.3356 12.2701 20.3747 11.6385 19.8931 11.3112C19.4115 10.9839 19.2994 10.9944 19.2994 10.9944C19.2994 10.9944 18.9447 10.4145 19.1573 10.4528C19.1573 10.4528 20.6801 10.9749 20.7197 11.1087C20.7592 11.2425 21.1631 11.2179 20.9611 10.8354C20.7592 10.4528 19.6707 10.2223 19.5411 10.1144C19.4115 10.0065 19.5321 9.59731 19.2994 9.50817C19.0668 9.41903 18.4312 8.7865 18.4316 8.48168C18.432 8.17686 18.1329 8.03338 17.8728 8.03338C17.6128 8.03338 17.1231 7.95825 16.9162 7.95825C16.7094 7.95825 16.5166 8.30431 16.7164 8.30431C16.9162 8.30431 16.7455 8.95221 16.4109 9.0938C16.0763 9.23539 15.8176 9.43891 15.4355 9.43891C15.0533 9.43891 15.9764 9.76838 16.1235 9.63827C16.2706 9.50817 16.2224 9.3143 16.7164 9.0938C17.2105 8.8733 17.682 8.74274 17.6223 8.91827C17.5626 9.0938 17.7149 9.3874 17.9477 9.28113C18.1804 9.17487 18.2551 8.90646 18.2551 9.0938C18.2551 9.28113 18.6119 10.2433 18.8846 10.6188C19.1573 10.9944 19.853 11.5508 19.853 11.5508Z" fill="#5EAA22"/>
<path d="M16.6044 8.03748C16.6044 8.03748 16.4234 8.32594 16.6044 8.32594C16.7855 8.32594 17.0767 8.32594 16.8993 8.18171C16.7219 8.03748 16.6044 8.03748 16.6044 8.03748Z" fill="#FFD018"/>
<path d="M17.2095 8.03058C17.2095 8.03058 17.2103 8.22237 17.3358 8.22237C17.4613 8.22237 17.573 8.41416 17.573 8.22237C17.573 8.03058 17.7473 8.09418 17.4784 8.03058C17.2095 7.96698 17.2095 8.03058 17.2095 8.03058Z" fill="#FFD018"/>
<path d="M17.9822 8.07446C17.9822 8.07446 17.8613 8.16554 17.9218 8.328C17.9822 8.49046 18.1191 8.81195 17.9218 8.81195C17.7245 8.81195 17.5621 8.92786 17.7162 8.92786C17.8704 8.92786 18.1446 9.04377 18.1446 8.92786C18.1446 8.81195 18.2561 9.11898 18.2561 8.92786C18.2561 8.73674 18.2561 8.64541 18.2561 8.53333C18.2561 8.42124 18.3677 8.38902 18.2561 8.23174C18.1446 8.07446 17.9822 8.07446 17.9822 8.07446Z" fill="#FFD018"/>
<path d="M18.2618 9.19287C18.2618 9.19287 18.5139 9.98633 18.651 10.0886C18.7881 10.1909 18.8497 11.0526 18.9098 11.1463C18.97 11.24 19.7898 11.7129 19.7898 11.9666C19.7898 12.2204 20.0422 11.7716 19.916 11.5203C19.7898 11.2691 19.3924 10.7341 19.1066 10.6174C18.8208 10.5007 18.857 10.2182 18.7969 10.0196C18.7369 9.82108 19.1525 10.1801 18.7969 9.72969C18.4414 9.27931 18.4508 9.52099 18.5509 9.52099C18.651 9.52099 18.7512 9.46777 18.651 9.39778C18.5509 9.3278 18.2618 9.19287 18.2618 9.19287Z" fill="#FFD018"/>
<path d="M15.5891 10.8292C15.5891 10.8292 14.7702 12.2754 14.6241 12.3501C14.478 12.4248 14.3691 12.44 14.2944 12.3501C14.2197 12.2602 14.212 12.5914 14.2944 12.6821C14.3767 12.7727 14.6241 12.7727 14.7614 12.6117C14.7614 12.6117 14.7831 13.0186 14.997 13.3253C15.2109 13.632 15.3 13.5473 15.3 13.7208C15.3 13.8942 15.3505 14.1239 15.4158 14.1239C15.4811 14.1239 15.5316 14.6698 15.4158 14.6698C15.3 14.6698 15.6842 14.7146 15.8517 14.5781C16.0192 14.4415 16.0908 14.3375 16.055 14.3375C16.0192 14.3375 15.5891 14.1112 15.5891 13.951C15.5891 13.7908 15.3 13.6654 15.3 13.4277C15.3 13.1899 15.1497 12.9072 15.1497 12.7946C15.1497 12.6821 15.2782 12.8381 15.4158 12.7315C15.5534 12.6249 15.5891 12.3501 15.5891 12.3501C15.5891 12.3501 15.3724 12.4955 15.3 12.4228C15.2275 12.3501 14.9995 12.2066 15.1497 11.9604C15.3 11.7143 15.5891 10.8292 15.5891 10.8292Z" fill="#FFD018"/>
<path fill-rule="evenodd" clip-rule="evenodd" d="M17.0081 6.26819C17.0081 6.26819 16.7149 6.39861 16.8126 6.59239C16.9104 6.78617 16.9455 6.87197 17.0081 6.82907C17.0707 6.78617 17.51 6.70505 17.4116 6.48662C17.3132 6.26819 17.1071 6.26819 17.1071 6.26819H17.0081Z" fill="#5EAA22"/>
<path d="M18.0253 6.16345C18.0253 6.16345 17.638 5.99207 17.7671 6.16345C17.8962 6.33482 18.0614 6.42517 18.1802 6.42517C18.299 6.42517 18.5459 6.38975 18.4225 6.32061C18.299 6.25146 18.0253 6.16345 18.0253 6.16345Z" fill="#FFD018"/>
<path fill-rule="evenodd" clip-rule="evenodd" d="M14.2017 10.6178C14.2036 10.6074 14.1912 10.6001 14.1835 10.6074C14.1026 10.6846 13.8612 10.9409 13.9638 11.1638C14.0863 11.4299 14.2088 11.5223 14.2088 11.5223C14.2088 11.5223 14.2834 11.9296 14.4375 12.0405C14.4375 12.0405 14.6446 12.0299 14.6548 11.7128C14.6548 11.7128 15.0065 11.6097 15.1098 11.8292C15.1098 11.8292 15.0416 11.8539 15.0416 12.0405C15.0416 12.227 15.2007 12.4292 15.2007 12.4292C15.2007 12.4292 15.2736 11.7857 15.601 11.3708C15.9284 10.9559 16.0221 10.8741 16.0221 10.8741V10.4072C16.0221 10.4072 15.3447 10.9592 15.2007 11.4182C15.2007 11.4182 14.8596 11.4296 14.721 11.3708C14.5824 11.312 14.8941 11.2156 14.721 11.0068C14.5479 10.7979 14.6272 11.3009 14.4375 11.1638C14.1409 11.0813 14.1811 10.7287 14.2017 10.6178Z" fill="#5EAA22"/>
<path fill-rule="evenodd" clip-rule="evenodd" d="M15.6779 10.2124L19.1481 10.2124V12.3326C19.1481 12.3326 18.8652 14.0651 17.3539 14.9185C17.3539 14.9185 15.8901 14.0533 15.6779 12.3326V10.2124Z" fill="#5EAA22"/>
<mask id="mask1_58_1758" style="mask-type:luminance" maskUnits="userSpaceOnUse" x="15" y="10" width="5" height="5">
<path fill-rule="evenodd" clip-rule="evenodd" d="M15.6779 10.2124L19.1481 10.2124V12.3326C19.1481 12.3326 18.8652 14.0651 17.3539 14.9185C17.3539 14.9185 15.8901 14.0533 15.6779 12.3326V10.2124Z" fill="white"/>
</mask>
<g mask="url(#mask1_58_1758)">
<path fill-rule="evenodd" clip-rule="evenodd" d="M17.3277 10.0978L15.8115 13.2441L17.8677 11.3769L19.2828 13.7224V10.0978L17.8677 11.2578L17.3277 10.0978Z" fill="#58A5FF"/>
<path d="M17.2799 12.3669C17.2799 12.3044 17.3306 12.2538 17.393 12.2538V12.2538C17.4555 12.2538 17.5062 12.3044 17.5062 12.3669V14.3872C17.5062 14.4497 17.4555 14.5003 17.393 14.5003V14.5003C17.3306 14.5003 17.2799 14.4497 17.2799 14.3872L17.2799 12.3669Z" fill="#FFD018"/>
<path d="M16.8864 12.865C16.825 12.865 16.7753 12.8152 16.7753 12.7538V12.7538C16.7753 12.6925 16.825 12.6427 16.8864 12.6427H17.9086C17.97 12.6427 18.0198 12.6925 18.0198 12.7538V12.7538C18.0198 12.8152 17.97 12.865 17.9086 12.865H16.8864Z" fill="#FFD018"/>
<path d="M17.4376 14.4251L17.3501 14.4962C17.221 14.3395 17.1033 14.2641 16.9993 14.2641C16.8462 14.2641 16.7217 14.1363 16.6201 13.894L16.7246 13.8508C16.8105 14.0558 16.9039 14.1517 16.9993 14.1517C17.1439 14.1517 17.2892 14.2448 17.4376 14.4251Z" fill="#FFD018"/>
<path fill-rule="evenodd" clip-rule="evenodd" d="M16.5189 13.5084C16.5182 13.5077 16.5171 13.5082 16.5171 13.5092V14.0554C16.5171 14.0562 16.5179 14.0567 16.5186 14.0564L16.9294 13.8873C16.9301 13.887 16.9303 13.886 16.9297 13.8855L16.5189 13.5084Z" fill="#FFD018"/>
<path d="M17.3448 14.4251L17.4324 14.4962C17.5615 14.3395 17.6791 14.2641 17.7831 14.2641C17.9363 14.2641 18.0608 14.1363 18.1624 13.894L18.0579 13.8508C17.972 14.0558 17.8785 14.1517 17.7831 14.1517C17.6386 14.1517 17.4932 14.2448 17.3448 14.4251Z" fill="#FFD018"/>
<path fill-rule="evenodd" clip-rule="evenodd" d="M18.2634 13.5084C18.2641 13.5077 18.2653 13.5082 18.2653 13.5092V14.0554C18.2653 14.0562 18.2645 14.0567 18.2638 14.0564L17.853 13.8873C17.8522 13.887 17.852 13.886 17.8526 13.8855L18.2634 13.5084Z" fill="#FFD018"/>
<rect x="17.1649" y="11.4598" width="0.452508" height="0.67424" fill="white"/>
</g>
</g>
<defs>
<clipPath id="clip0_58_1758">
<rect width="21.4187" height="16.064" fill="white" transform="translate(0.536865 0.0738525)"/>
</clipPath>
<clipPath id="clip1_58_1758">
<rect width="12.048" height="9.37069" fill="white" transform="translate(0.536865 0.0738525)"/>
</clipPath>
</defs>
</svg>
