<svg width="23" height="17" viewBox="0 0 23 17" fill="none" xmlns="http://www.w3.org/2000/svg">
<g clip-path="url(#clip0_58_1583)">
<rect width="21.4187" height="16.064" transform="translate(0.674805 0.911255)" fill="white"/>
<path fill-rule="evenodd" clip-rule="evenodd" d="M6.32019 0.879272H22.3842V16.9433H6.32019V0.879272Z" fill="#EF0000"/>
<path fill-rule="evenodd" clip-rule="evenodd" d="M0.965454 0.879272H8.99747V16.9433H0.965454V0.879272Z" fill="#2F8D00"/>
<mask id="mask0_58_1583" style="mask-type:luminance" maskUnits="userSpaceOnUse" x="3" y="3" width="12" height="12">
<path fill-rule="evenodd" clip-rule="evenodd" d="M8.93371 14.1369C6.08202 14.1369 3.77026 11.7972 3.77026 8.9112C3.77026 6.02515 6.08202 3.68555 8.93371 3.68555C11.7854 3.68555 14.0971 6.02515 14.0971 8.9112C14.0971 11.7972 11.7854 14.1369 8.93371 14.1369Z" fill="white"/>
</mask>
<g mask="url(#mask0_58_1583)">
<path fill-rule="evenodd" clip-rule="evenodd" d="M8.61499 3.55652H9.28433V5.36292H8.61499V3.55652Z" fill="#FFE017"/>
<path fill-rule="evenodd" clip-rule="evenodd" d="M8.61499 12.5885H9.28433V14.2659H8.61499V12.5885Z" fill="#FFE017"/>
<path d="M3.85327 9.18145L3.66614 8.70134C5.73116 7.87694 7.28975 7.34528 8.34729 7.10567C9.89889 6.75413 11.6037 6.49404 13.4619 6.3252L13.5075 6.83924C11.6707 7.00615 9.98767 7.26291 8.4587 7.60932C7.43264 7.84179 5.8957 8.36607 3.85327 9.18145Z" fill="#FFE017"/>
<path d="M13.7771 6.00889L13.6253 6.50159C12.0646 6.00888 10.7932 5.79709 9.81598 5.86269L9.78223 5.34771C10.8315 5.27728 12.1615 5.49885 13.7771 6.00889Z" fill="#FFE017"/>
<path d="M14.3171 8.76375L14.0286 9.18934C13.233 8.63696 12.2528 8.3595 11.0813 8.3595V7.84338C12.3513 7.84338 13.4321 8.14933 14.3171 8.76375Z" fill="#FFE017"/>
<path d="M13.885 8.91821L14.0168 9.41678C12.3016 9.88139 10.6912 10.145 9.18555 10.2071C7.66953 10.2696 5.90258 10.005 3.88318 9.41544L4.02453 8.91955C5.99485 9.4948 7.70878 9.7514 9.16479 9.69138C10.6312 9.63092 12.2046 9.37337 13.885 8.91821Z" fill="#FFE017"/>
<path d="M13.6906 11.3448L12.8845 12.1712C11.3526 10.6407 10.004 9.5464 8.84683 8.88886C7.66993 8.22009 6.13516 7.541 4.24487 6.85433L4.63252 5.76135C6.57854 6.46827 8.16978 7.17234 9.4086 7.8763C10.6672 8.5915 12.0918 9.74744 13.6906 11.3448Z" fill="#FFE017"/>
<path d="M4.61884 11.813L4.31372 11.3995C4.35633 11.3673 4.43236 11.3136 4.53711 11.2456C4.71006 11.1332 4.90212 11.021 5.10876 10.9162C5.6779 10.6275 6.2488 10.4472 6.79332 10.4307C6.81995 10.4299 6.84647 10.4294 6.87287 10.4294V10.9456C6.8516 10.9456 6.83019 10.9459 6.80863 10.9465C6.34976 10.9605 5.84584 11.1196 5.33728 11.3776C5.14772 11.4737 4.97111 11.5769 4.8126 11.6799C4.75742 11.7157 4.70861 11.7489 4.66678 11.7784C4.64239 11.7956 4.6262 11.8075 4.61884 11.813Z" fill="#FFE017"/>
<path d="M4.85571 11.9918L4.98414 11.4923C6.68433 11.9401 7.99508 12.1632 8.90985 12.1632C9.8212 12.1632 11.1777 11.9 12.9704 11.3718L13.113 11.8674C11.2778 12.4081 9.87971 12.6793 8.90985 12.6793C7.94341 12.6793 6.59421 12.4497 4.85571 11.9918Z" fill="#FFE017"/>
<path d="M4.19324 7.36803L5.00118 6.54346L6.18411 7.73062L5.37617 8.55519L4.19324 7.36803Z" fill="#FFE017"/>
<path d="M10.8956 11.4866L11.4966 10.4973L13.3732 11.6649L12.7722 12.6542L10.8956 11.4866Z" fill="#FFE017"/>
</g>
<path fill-rule="evenodd" clip-rule="evenodd" d="M3.77026 8.9112C3.77026 11.7972 6.08202 14.1369 8.93371 14.1369C11.7854 14.1369 14.0971 11.7972 14.0971 8.9112C14.0971 6.02515 11.7854 3.68555 8.93371 3.68555C6.08202 3.68555 3.77026 6.02515 3.77026 8.9112ZM13.4596 8.97574C13.4596 11.4699 11.4618 13.4917 8.9974 13.4917C6.53298 13.4917 4.53517 11.4699 4.53517 8.97574C4.53517 6.48162 6.53298 4.45974 8.9974 4.45974C11.4618 4.45974 13.4596 6.48162 13.4596 8.97574Z" fill="#F9E813"/>
<path d="M6.09021 5.6886V9.87911C6.36607 11.5378 7.29541 12.3671 8.87825 12.3671C10.4611 12.3671 11.3904 11.5378 11.6663 9.87911V5.6886H6.09021Z" fill="white"/>
<path d="M5.70776 5.30151H12.0488V9.91146L12.0435 9.94336C11.7372 11.7852 10.6513 12.7542 8.87828 12.7542C7.10529 12.7542 6.01938 11.7852 5.71307 9.94336L5.70776 9.91146V5.30151Z" fill="#C51918"/>
<path d="M7.1582 6.70959H10.5984V9.68204C10.5984 9.68204 10.3431 11.217 8.8783 11.217C7.41349 11.217 7.1582 9.68204 7.1582 9.68204V6.70959Z" fill="#F7FCFF"/>
<path fill-rule="evenodd" clip-rule="evenodd" d="M6.31995 5.62097H6.8038V5.94354H6.31995V5.62097Z" fill="#F9E813"/>
<path fill-rule="evenodd" clip-rule="evenodd" d="M6.06494 5.75H6.95739V5.91129H6.06494V5.75Z" fill="#060101"/>
<path fill-rule="evenodd" clip-rule="evenodd" d="M6.06494 5.87903H6.5488V6.04031H6.06494V5.87903Z" fill="#F9E813"/>
<path fill-rule="evenodd" clip-rule="evenodd" d="M6.57495 5.87903H7.05881V6.04031H6.57495V5.87903Z" fill="#F9E813"/>
<path fill-rule="evenodd" clip-rule="evenodd" d="M6.06494 6.26611H6.38751V6.74997H6.06494V6.26611Z" fill="#F9E813"/>
<path fill-rule="evenodd" clip-rule="evenodd" d="M6.70239 6.26611H7.02496V6.74997H6.70239V6.26611Z" fill="#F9E813"/>
<path fill-rule="evenodd" clip-rule="evenodd" d="M6.44739 6.26611H6.60867V6.74997H6.44739V6.26611Z" fill="#F9E813"/>
<path fill-rule="evenodd" clip-rule="evenodd" d="M6.06494 6.13708H6.95739V6.29837H6.06494V6.13708Z" fill="#060101"/>
<path fill-rule="evenodd" clip-rule="evenodd" d="M6.06494 6.52417H6.95739V6.68546H6.06494V6.52417Z" fill="#060101"/>
<path fill-rule="evenodd" clip-rule="evenodd" d="M6.1925 6.00806H6.35379V6.16934H6.1925V6.00806Z" fill="#F9E813"/>
<path fill-rule="evenodd" clip-rule="evenodd" d="M6.70239 6.00806H6.86368V6.16934H6.70239V6.00806Z" fill="#F9E813"/>
<path fill-rule="evenodd" clip-rule="evenodd" d="M6.44739 5.87903H6.60867V6.2016H6.44739V5.87903Z" fill="#F9E813"/>
<path fill-rule="evenodd" clip-rule="evenodd" d="M8.74243 5.62097H9.22629V5.94354H8.74243V5.62097Z" fill="#F9E813"/>
<path fill-rule="evenodd" clip-rule="evenodd" d="M8.48743 5.75H9.37987V5.91129H8.48743V5.75Z" fill="#060101"/>
<path fill-rule="evenodd" clip-rule="evenodd" d="M8.48743 5.87903H8.97128V6.04031H8.48743V5.87903Z" fill="#F9E813"/>
<path fill-rule="evenodd" clip-rule="evenodd" d="M8.99744 5.87903H9.48129V6.04031H8.99744V5.87903Z" fill="#F9E813"/>
<path fill-rule="evenodd" clip-rule="evenodd" d="M8.48743 6.26611H8.81V6.74997H8.48743V6.26611Z" fill="#F9E813"/>
<path fill-rule="evenodd" clip-rule="evenodd" d="M9.12488 6.26611H9.44745V6.74997H9.12488V6.26611Z" fill="#F9E813"/>
<path fill-rule="evenodd" clip-rule="evenodd" d="M8.86987 6.26611H9.03116V6.74997H8.86987V6.26611Z" fill="#F9E813"/>
<path fill-rule="evenodd" clip-rule="evenodd" d="M8.48743 6.13708H9.37987V6.29837H8.48743V6.13708Z" fill="#060101"/>
<path fill-rule="evenodd" clip-rule="evenodd" d="M8.48743 6.52417H9.37987V6.68546H8.48743V6.52417Z" fill="#060101"/>
<path fill-rule="evenodd" clip-rule="evenodd" d="M8.61499 6.00806H8.77628V6.16934H8.61499V6.00806Z" fill="#F9E813"/>
<path fill-rule="evenodd" clip-rule="evenodd" d="M9.12488 6.00806H9.28616V6.16934H9.12488V6.00806Z" fill="#F9E813"/>
<path fill-rule="evenodd" clip-rule="evenodd" d="M8.86987 5.87903H9.03116V6.2016H8.86987V5.87903Z" fill="#F9E813"/>
<path fill-rule="evenodd" clip-rule="evenodd" d="M11.0372 5.62097H11.5211V5.94354H11.0372V5.62097Z" fill="#F9E813"/>
<path fill-rule="evenodd" clip-rule="evenodd" d="M10.7822 5.75H11.6747V5.91129H10.7822V5.75Z" fill="#060101"/>
<path fill-rule="evenodd" clip-rule="evenodd" d="M10.7822 5.87903H11.2661V6.04031H10.7822V5.87903Z" fill="#F9E813"/>
<path fill-rule="evenodd" clip-rule="evenodd" d="M11.2922 5.87903H11.7761V6.04031H11.2922V5.87903Z" fill="#F9E813"/>
<path fill-rule="evenodd" clip-rule="evenodd" d="M10.7822 6.26611H11.1048V6.74997H10.7822V6.26611Z" fill="#F9E813"/>
<path fill-rule="evenodd" clip-rule="evenodd" d="M11.4197 6.26611H11.7422V6.74997H11.4197V6.26611Z" fill="#F9E813"/>
<path fill-rule="evenodd" clip-rule="evenodd" d="M11.1647 6.26611H11.326V6.74997H11.1647V6.26611Z" fill="#F9E813"/>
<path fill-rule="evenodd" clip-rule="evenodd" d="M10.7822 6.13708H11.6747V6.29837H10.7822V6.13708Z" fill="#060101"/>
<path fill-rule="evenodd" clip-rule="evenodd" d="M10.7822 6.52417H11.6747V6.68546H10.7822V6.52417Z" fill="#060101"/>
<path fill-rule="evenodd" clip-rule="evenodd" d="M10.9098 6.00806H11.0711V6.16934H10.9098V6.00806Z" fill="#F9E813"/>
<path fill-rule="evenodd" clip-rule="evenodd" d="M11.4197 6.00806H11.581V6.16934H11.4197V6.00806Z" fill="#F9E813"/>
<path fill-rule="evenodd" clip-rule="evenodd" d="M11.1647 5.87903H11.326V6.2016H11.1647V5.87903Z" fill="#F9E813"/>
<path fill-rule="evenodd" clip-rule="evenodd" d="M11.0372 7.94348H11.5211V8.26605H11.0372V7.94348Z" fill="#F9E813"/>
<path fill-rule="evenodd" clip-rule="evenodd" d="M10.7822 8.07251H11.6747V8.2338H10.7822V8.07251Z" fill="#060101"/>
<path fill-rule="evenodd" clip-rule="evenodd" d="M10.7822 8.20154H11.2661V8.36282H10.7822V8.20154Z" fill="#F9E813"/>
<path fill-rule="evenodd" clip-rule="evenodd" d="M11.2922 8.20154H11.7761V8.36282H11.2922V8.20154Z" fill="#F9E813"/>
<path fill-rule="evenodd" clip-rule="evenodd" d="M10.7822 8.58862H11.1048V9.07248H10.7822V8.58862Z" fill="#F9E813"/>
<path fill-rule="evenodd" clip-rule="evenodd" d="M11.4197 8.58862H11.7422V9.07248H11.4197V8.58862Z" fill="#F9E813"/>
<path fill-rule="evenodd" clip-rule="evenodd" d="M11.1647 8.58862H11.326V9.07248H11.1647V8.58862Z" fill="#F9E813"/>
<path fill-rule="evenodd" clip-rule="evenodd" d="M10.7822 8.45959H11.6747V8.62088H10.7822V8.45959Z" fill="#060101"/>
<path fill-rule="evenodd" clip-rule="evenodd" d="M10.7822 8.84668H11.6747V9.00797H10.7822V8.84668Z" fill="#060101"/>
<path fill-rule="evenodd" clip-rule="evenodd" d="M10.9098 8.33057H11.0711V8.49185H10.9098V8.33057Z" fill="#F9E813"/>
<path fill-rule="evenodd" clip-rule="evenodd" d="M11.4197 8.33057H11.581V8.49185H11.4197V8.33057Z" fill="#F9E813"/>
<path fill-rule="evenodd" clip-rule="evenodd" d="M11.1647 8.20154H11.326V8.52411H11.1647V8.20154Z" fill="#F9E813"/>
<path fill-rule="evenodd" clip-rule="evenodd" d="M6.31995 7.94348H6.8038V8.26605H6.31995V7.94348Z" fill="#F9E813"/>
<path fill-rule="evenodd" clip-rule="evenodd" d="M6.06494 8.07251H6.95739V8.2338H6.06494V8.07251Z" fill="#060101"/>
<path fill-rule="evenodd" clip-rule="evenodd" d="M6.06494 8.20154H6.5488V8.36282H6.06494V8.20154Z" fill="#F9E813"/>
<path fill-rule="evenodd" clip-rule="evenodd" d="M6.57495 8.20154H7.05881V8.36282H6.57495V8.20154Z" fill="#F9E813"/>
<path fill-rule="evenodd" clip-rule="evenodd" d="M6.06494 8.58862H6.38751V9.07248H6.06494V8.58862Z" fill="#F9E813"/>
<path fill-rule="evenodd" clip-rule="evenodd" d="M6.70239 8.58862H7.02496V9.07248H6.70239V8.58862Z" fill="#F9E813"/>
<path fill-rule="evenodd" clip-rule="evenodd" d="M6.44739 8.58862H6.60867V9.07248H6.44739V8.58862Z" fill="#F9E813"/>
<path fill-rule="evenodd" clip-rule="evenodd" d="M6.06494 8.45959H6.95739V8.62088H6.06494V8.45959Z" fill="#060101"/>
<path fill-rule="evenodd" clip-rule="evenodd" d="M6.06494 8.84668H6.95739V9.00797H6.06494V8.84668Z" fill="#060101"/>
<path fill-rule="evenodd" clip-rule="evenodd" d="M6.1925 8.33057H6.35379V8.49185H6.1925V8.33057Z" fill="#F9E813"/>
<path fill-rule="evenodd" clip-rule="evenodd" d="M6.70239 8.33057H6.86368V8.49185H6.70239V8.33057Z" fill="#F9E813"/>
<path fill-rule="evenodd" clip-rule="evenodd" d="M6.44739 8.20154H6.60867V8.52411H6.44739V8.20154Z" fill="#F9E813"/>
<path fill-rule="evenodd" clip-rule="evenodd" d="M6.63037 10.8549L6.94139 10.4842L7.18849 10.6915L6.87747 11.0622L6.63037 10.8549Z" fill="#F9E813"/>
<path fill-rule="evenodd" clip-rule="evenodd" d="M6.56531 11.1331L7.13896 10.4494L7.26251 10.5531L6.68886 11.2367L6.56531 11.1331Z" fill="#060101"/>
<path fill-rule="evenodd" clip-rule="evenodd" d="M6.66418 11.2161L6.9752 10.8454L7.09875 10.9491L6.78774 11.3197L6.66418 11.2161Z" fill="#F9E813"/>
<path fill-rule="evenodd" clip-rule="evenodd" d="M6.99194 10.8254L7.30296 10.4548L7.42651 10.5585L7.1155 10.9291L6.99194 10.8254Z" fill="#F9E813"/>
<path fill-rule="evenodd" clip-rule="evenodd" d="M6.96069 11.4648L7.16804 11.2177L7.53869 11.5288L7.33135 11.7759L6.96069 11.4648Z" fill="#F9E813"/>
<path fill-rule="evenodd" clip-rule="evenodd" d="M7.37048 10.9766L7.57783 10.7295L7.94848 11.0405L7.74114 11.2876L7.37048 10.9766Z" fill="#F9E813"/>
<path fill-rule="evenodd" clip-rule="evenodd" d="M7.20654 11.1719L7.31022 11.0483L7.68087 11.3593L7.5772 11.4829L7.20654 11.1719Z" fill="#F9E813"/>
<path fill-rule="evenodd" clip-rule="evenodd" d="M6.86182 11.3818L7.43547 10.6982L7.55902 10.8019L6.98537 11.4855L6.86182 11.3818Z" fill="#060101"/>
<path fill-rule="evenodd" clip-rule="evenodd" d="M7.15833 11.6307L7.73198 10.9471L7.85553 11.0508L7.28188 11.7344L7.15833 11.6307Z" fill="#060101"/>
<path fill-rule="evenodd" clip-rule="evenodd" d="M6.84497 11.2013L6.94864 11.0777L7.07219 11.1814L6.96852 11.305L6.84497 11.2013Z" fill="#F9E813"/>
<path fill-rule="evenodd" clip-rule="evenodd" d="M7.17273 10.8107L7.2764 10.6871L7.39995 10.7908L7.29628 10.9143L7.17273 10.8107Z" fill="#F9E813"/>
<path fill-rule="evenodd" clip-rule="evenodd" d="M6.91003 10.923L7.01371 10.7994L7.26081 11.0068L7.15714 11.1303L6.91003 10.923Z" fill="#F9E813"/>
<path fill-rule="evenodd" clip-rule="evenodd" d="M10.9908 10.562L11.3019 10.9327L11.0548 11.14L10.7437 10.7694L10.9908 10.562Z" fill="#F9E813"/>
<path fill-rule="evenodd" clip-rule="evenodd" d="M10.728 10.4496L11.3017 11.1332L11.1781 11.2369L10.6045 10.5533L10.728 10.4496Z" fill="#060101"/>
<path fill-rule="evenodd" clip-rule="evenodd" d="M10.6293 10.5326L10.9403 10.9032L10.8167 11.0069L10.5057 10.6363L10.6293 10.5326Z" fill="#F9E813"/>
<path fill-rule="evenodd" clip-rule="evenodd" d="M10.957 10.9233L11.268 11.294L11.1445 11.3977L10.8335 11.027L10.957 10.9233Z" fill="#F9E813"/>
<path fill-rule="evenodd" clip-rule="evenodd" d="M10.3328 10.7814L10.5401 11.0285L10.1695 11.3395L9.96211 11.0924L10.3328 10.7814Z" fill="#F9E813"/>
<path fill-rule="evenodd" clip-rule="evenodd" d="M10.7424 11.2698L10.9498 11.5169L10.5791 11.8279L10.3718 11.5808L10.7424 11.2698Z" fill="#F9E813"/>
<path fill-rule="evenodd" clip-rule="evenodd" d="M10.5786 11.0743L10.6823 11.1979L10.3116 11.5089L10.208 11.3854L10.5786 11.0743Z" fill="#F9E813"/>
<path fill-rule="evenodd" clip-rule="evenodd" d="M10.4315 10.6985L11.0052 11.3821L10.8816 11.4858L10.308 10.8022L10.4315 10.6985Z" fill="#060101"/>
<path fill-rule="evenodd" clip-rule="evenodd" d="M10.135 10.9473L10.7087 11.6309L10.5851 11.7346L10.0115 11.0509L10.135 10.9473Z" fill="#060101"/>
<path fill-rule="evenodd" clip-rule="evenodd" d="M10.6124 10.7133L10.7161 10.8368L10.5925 10.9405L10.4889 10.8169L10.6124 10.7133Z" fill="#F9E813"/>
<path fill-rule="evenodd" clip-rule="evenodd" d="M10.9402 11.1039L11.0439 11.2274L10.9203 11.3311L10.8166 11.2076L10.9402 11.1039Z" fill="#F9E813"/>
<path fill-rule="evenodd" clip-rule="evenodd" d="M10.8751 10.8256L10.9788 10.9491L10.7317 11.1565L10.628 11.0329L10.8751 10.8256Z" fill="#F9E813"/>
<path fill-rule="evenodd" clip-rule="evenodd" d="M9.37117 7.04041H8.48743V7.68395C8.48743 7.68395 8.55301 8.01628 8.9293 8.01628C9.30559 8.01628 9.37117 7.68395 9.37117 7.68395V7.04041ZM8.86989 7.29839C8.86989 7.36965 8.81281 7.42741 8.7424 7.42741C8.67199 7.42741 8.61491 7.36965 8.61491 7.29839C8.61491 7.22713 8.67199 7.16936 8.7424 7.16936C8.81281 7.16936 8.86989 7.22713 8.86989 7.29839ZM8.7424 7.94355C8.81281 7.94355 8.86989 7.88578 8.86989 7.81452C8.86989 7.74326 8.81281 7.68549 8.7424 7.68549C8.67199 7.68549 8.61491 7.74326 8.61491 7.81452C8.61491 7.88578 8.67199 7.94355 8.7424 7.94355ZM9.25244 7.81452C9.25244 7.88578 9.19536 7.94355 9.12495 7.94355C9.05453 7.94355 8.99745 7.88578 8.99745 7.81452C8.99745 7.74326 9.05453 7.68549 9.12495 7.68549C9.19536 7.68549 9.25244 7.74326 9.25244 7.81452ZM8.93367 7.68552C9.00408 7.68552 9.06116 7.62776 9.06116 7.5565C9.06116 7.48524 9.00408 7.42747 8.93367 7.42747C8.86326 7.42747 8.80618 7.48524 8.80618 7.5565C8.80618 7.62776 8.86326 7.68552 8.93367 7.68552ZM9.25244 7.29839C9.25244 7.36965 9.19536 7.42741 9.12495 7.42741C9.05453 7.42741 8.99745 7.36965 8.99745 7.29839C8.99745 7.22713 9.05453 7.16936 9.12495 7.16936C9.19536 7.16936 9.25244 7.22713 9.25244 7.29839Z" fill="#013399"/>
<path fill-rule="evenodd" clip-rule="evenodd" d="M9.37117 8.45972H8.48743V9.10326C8.48743 9.10326 8.55301 9.4356 8.9293 9.4356C9.30559 9.4356 9.37117 9.10326 9.37117 9.10326V8.45972ZM8.86989 8.7177C8.86989 8.78896 8.81281 8.84673 8.7424 8.84673C8.67199 8.84673 8.61491 8.78896 8.61491 8.7177C8.61491 8.64644 8.67199 8.58867 8.7424 8.58867C8.81281 8.58867 8.86989 8.64644 8.86989 8.7177ZM8.7424 9.36287C8.81281 9.36287 8.86989 9.3051 8.86989 9.23384C8.86989 9.16258 8.81281 9.10481 8.7424 9.10481C8.67199 9.10481 8.61491 9.16258 8.61491 9.23384C8.61491 9.3051 8.67199 9.36287 8.7424 9.36287ZM9.25244 9.23384C9.25244 9.3051 9.19536 9.36287 9.12495 9.36287C9.05453 9.36287 8.99745 9.3051 8.99745 9.23384C8.99745 9.16258 9.05453 9.10481 9.12495 9.10481C9.19536 9.10481 9.25244 9.16258 9.25244 9.23384ZM8.93367 9.10484C9.00408 9.10484 9.06116 9.04707 9.06116 8.97581C9.06116 8.90455 9.00408 8.84678 8.93367 8.84678C8.86326 8.84678 8.80618 8.90455 8.80618 8.97581C8.80618 9.04707 8.86326 9.10484 8.93367 9.10484ZM9.25244 8.7177C9.25244 8.78896 9.19536 8.84673 9.12495 8.84673C9.05453 8.84673 8.99745 8.78896 8.99745 8.7177C8.99745 8.64644 9.05453 8.58867 9.12495 8.58867C9.19536 8.58867 9.25244 8.64644 9.25244 8.7177Z" fill="#013399"/>
<path fill-rule="evenodd" clip-rule="evenodd" d="M10.5186 8.45972H9.63489V9.10326C9.63489 9.10326 9.70047 9.4356 10.0768 9.4356C10.4531 9.4356 10.5186 9.10326 10.5186 9.10326V8.45972ZM10.0174 8.7177C10.0174 8.78896 9.96029 8.84673 9.88988 8.84673C9.81946 8.84673 9.76238 8.78896 9.76238 8.7177C9.76238 8.64644 9.81946 8.58867 9.88988 8.58867C9.96029 8.58867 10.0174 8.64644 10.0174 8.7177ZM9.88988 9.36287C9.96029 9.36287 10.0174 9.3051 10.0174 9.23384C10.0174 9.16258 9.96029 9.10481 9.88988 9.10481C9.81946 9.10481 9.76238 9.16258 9.76238 9.23384C9.76238 9.3051 9.81946 9.36287 9.88988 9.36287ZM10.3999 9.23384C10.3999 9.3051 10.3428 9.36287 10.2724 9.36287C10.202 9.36287 10.1449 9.3051 10.1449 9.23384C10.1449 9.16258 10.202 9.10481 10.2724 9.10481C10.3428 9.10481 10.3999 9.16258 10.3999 9.23384ZM10.0812 9.10484C10.1516 9.10484 10.2086 9.04707 10.2086 8.97581C10.2086 8.90455 10.1516 8.84678 10.0812 8.84678C10.0107 8.84678 9.95366 8.90455 9.95366 8.97581C9.95366 9.04707 10.0107 9.10484 10.0812 9.10484ZM10.3999 8.7177C10.3999 8.78896 10.3428 8.84673 10.2724 8.84673C10.202 8.84673 10.1449 8.78896 10.1449 8.7177C10.1449 8.64644 10.202 8.58867 10.2724 8.58867C10.3428 8.58867 10.3999 8.64644 10.3999 8.7177Z" fill="#013399"/>
<path fill-rule="evenodd" clip-rule="evenodd" d="M8.22371 8.45972H7.33997V9.10326C7.33997 9.10326 7.40555 9.4356 7.78184 9.4356C8.15813 9.4356 8.22371 9.10326 8.22371 9.10326V8.45972ZM7.72237 8.7177C7.72237 8.78896 7.66529 8.84673 7.59488 8.84673C7.52447 8.84673 7.46739 8.78896 7.46739 8.7177C7.46739 8.64644 7.52447 8.58867 7.59488 8.58867C7.66529 8.58867 7.72237 8.64644 7.72237 8.7177ZM7.59488 9.36287C7.66529 9.36287 7.72237 9.3051 7.72237 9.23384C7.72237 9.16258 7.66529 9.10481 7.59488 9.10481C7.52447 9.10481 7.46739 9.16258 7.46739 9.23384C7.46739 9.3051 7.52447 9.36287 7.59488 9.36287ZM8.10492 9.23384C8.10492 9.3051 8.04784 9.36287 7.97743 9.36287C7.90702 9.36287 7.84993 9.3051 7.84993 9.23384C7.84993 9.16258 7.90702 9.10481 7.97743 9.10481C8.04784 9.10481 8.10492 9.16258 8.10492 9.23384ZM7.78615 9.10484C7.85657 9.10484 7.91365 9.04707 7.91365 8.97581C7.91365 8.90455 7.85657 8.84678 7.78615 8.84678C7.71574 8.84678 7.65866 8.90455 7.65866 8.97581C7.65866 9.04707 7.71574 9.10484 7.78615 9.10484ZM8.10492 8.7177C8.10492 8.78896 8.04784 8.84673 7.97743 8.84673C7.90702 8.84673 7.84993 8.78896 7.84993 8.7177C7.84993 8.64644 7.90702 8.58867 7.97743 8.58867C8.04784 8.58867 8.10492 8.64644 8.10492 8.7177Z" fill="#013399"/>
<path fill-rule="evenodd" clip-rule="evenodd" d="M9.37117 9.87903H8.48743V10.5226C8.48743 10.5226 8.55301 10.8549 8.9293 10.8549C9.30559 10.8549 9.37117 10.5226 9.37117 10.5226V9.87903ZM8.86989 10.137C8.86989 10.2083 8.81281 10.266 8.7424 10.266C8.67199 10.266 8.61491 10.2083 8.61491 10.137C8.61491 10.0658 8.67199 10.008 8.7424 10.008C8.81281 10.008 8.86989 10.0658 8.86989 10.137ZM8.7424 10.7822C8.81281 10.7822 8.86989 10.7244 8.86989 10.6532C8.86989 10.5819 8.81281 10.5241 8.7424 10.5241C8.67199 10.5241 8.61491 10.5819 8.61491 10.6532C8.61491 10.7244 8.67199 10.7822 8.7424 10.7822ZM9.25244 10.6532C9.25244 10.7244 9.19536 10.7822 9.12495 10.7822C9.05453 10.7822 8.99745 10.7244 8.99745 10.6532C8.99745 10.5819 9.05453 10.5241 9.12495 10.5241C9.19536 10.5241 9.25244 10.5819 9.25244 10.6532ZM8.93367 10.5242C9.00408 10.5242 9.06116 10.4664 9.06116 10.3951C9.06116 10.3239 9.00408 10.2661 8.93367 10.2661C8.86326 10.2661 8.80618 10.3239 8.80618 10.3951C8.80618 10.4664 8.86326 10.5242 8.93367 10.5242ZM9.25244 10.137C9.25244 10.2083 9.19536 10.266 9.12495 10.266C9.05453 10.266 8.99745 10.2083 8.99745 10.137C8.99745 10.0658 9.05453 10.008 9.12495 10.008C9.19536 10.008 9.25244 10.0658 9.25244 10.137Z" fill="#013399"/>
</g>
<defs>
<clipPath id="clip0_58_1583">
<rect width="21.4187" height="16.064" fill="white" transform="translate(0.674805 0.911255)"/>
</clipPath>
</defs>
</svg>
