<svg width="22" height="17" viewBox="0 0 22 17" fill="none" xmlns="http://www.w3.org/2000/svg">
<g clip-path="url(#clip0_58_1559)">
<rect width="21.4187" height="16.064" transform="translate(0.349609 0.911255)" fill="white"/>
<path fill-rule="evenodd" clip-rule="evenodd" d="M0.640259 0.879272V16.9433H22.059V0.879272H0.640259Z" fill="#F7FCFF"/>
<mask id="mask0_58_1559" style="mask-type:luminance" maskUnits="userSpaceOnUse" x="0" y="0" width="23" height="17">
<path fill-rule="evenodd" clip-rule="evenodd" d="M0.640259 0.879272V16.9433H22.059V0.879272H0.640259Z" fill="white"/>
</mask>
<g mask="url(#mask0_58_1559)">
<path d="M13.9099 8.91123C13.9099 10.3252 12.7637 11.4714 11.3497 11.4714C9.93574 11.4714 8.7895 10.3252 8.7895 8.91123C8.7895 7.49726 9.93574 6.35102 11.3497 6.35102C12.7637 6.35102 13.9099 7.49726 13.9099 8.91123Z" stroke="#272727" stroke-width="0.234267"/>
<path fill-rule="evenodd" clip-rule="evenodd" d="M9.34167 8.9112C9.34167 10.0202 10.2407 10.9192 11.3497 10.9192C12.4587 10.9192 13.3577 10.0202 13.3577 8.9112C13.3577 8.31841 13.1008 7.78561 12.6923 7.41805C12.3366 7.09798 11.8659 6.9032 11.3497 6.9032C10.9154 6.9032 10.5134 7.04104 10.1849 7.27536C9.67448 7.63945 9.34167 8.23646 9.34167 8.9112ZM13.1234 8.91123C13.1234 9.89084 12.3293 10.685 11.3497 10.685C10.3701 10.685 9.57597 9.89084 9.57597 8.91123C9.57597 8.31281 9.87231 7.7836 10.3263 7.46236C10.6154 7.25774 10.9685 7.13749 11.3497 7.13749C11.8231 7.13749 12.2533 7.32298 12.5713 7.62524C12.9114 7.94841 13.1234 8.40506 13.1234 8.91123Z" fill="#272727"/>
<path fill-rule="evenodd" clip-rule="evenodd" d="M0.640259 0.879272V6.23395H22.059V0.879272H0.640259Z" fill="#F05234"/>
<path fill-rule="evenodd" clip-rule="evenodd" d="M0.640259 11.5886V16.9433H22.059V11.5886H0.640259Z" fill="#3D58DB"/>
<path d="M10.4237 7.57408L10.6142 7.84924C10.1726 8.15501 9.97265 8.51402 10.1359 9.12317C10.2975 9.72647 10.6768 10.0259 11.308 10.0479L11.2964 10.3823C10.5185 10.3553 9.99315 10.0366 9.79328 9.29065C9.59498 8.55058 9.86035 7.96411 10.4237 7.57408Z" fill="#73BE4A"/>
<path fill-rule="evenodd" clip-rule="evenodd" d="M11.3496 9.12206L10.7594 9.52268L10.9581 8.83763L10.3947 8.40017L11.1076 8.3774L11.3496 7.70642L11.5915 8.3774L12.3044 8.40017L11.7411 8.83763L11.9397 9.52268L11.3496 9.12206Z" fill="#FBCD17"/>
<path d="M12.1312 7.69029C12.1312 7.69029 12.885 8.21214 12.6139 9.22406C12.3427 10.236 11.2859 10.2727 11.2859 10.2727" stroke="#73BE4A" stroke-width="0.334668"/>
<path d="M10.3886 6.93252L10.701 7.41325Z" fill="#F7FCFF"/>
</g>
</g>
<defs>
<clipPath id="clip0_58_1559">
<rect width="21.4187" height="16.064" fill="white" transform="translate(0.349609 0.911255)"/>
</clipPath>
</defs>
</svg>
