<svg width="23" height="17" viewBox="0 0 23 17" fill="none" xmlns="http://www.w3.org/2000/svg">
<g clip-path="url(#clip0_58_1395)">
<rect width="21.4187" height="16.064" transform="translate(0.699463 0.911255)" fill="white"/>
<path fill-rule="evenodd" clip-rule="evenodd" d="M0.990112 0.879272V16.9433H22.4088V0.879272H0.990112Z" fill="#4857A1"/>
<mask id="mask0_58_1395" style="mask-type:luminance" maskUnits="userSpaceOnUse" x="0" y="0" width="23" height="17">
<path fill-rule="evenodd" clip-rule="evenodd" d="M0.990112 0.879272V16.9433H22.4088V0.879272H0.990112Z" fill="white"/>
</mask>
<g mask="url(#mask0_58_1395)">
<path fill-rule="evenodd" clip-rule="evenodd" d="M0.990112 0.879272V6.23395H22.4088V0.879272H0.990112Z" fill="#C51918"/>
<path fill-rule="evenodd" clip-rule="evenodd" d="M0.990112 11.5886V16.9433H22.4088V11.5886H0.990112Z" fill="#F7FCFF"/>
<path fill-rule="evenodd" clip-rule="evenodd" d="M8.65778 3.42474L8.58205 3.12122C8.64662 3.14105 8.71675 3.1614 8.79077 3.18233L8.79006 3.17843C9.67361 3.25858 11.0394 3.71593 11.2937 4.20169C11.3919 4.38944 11.2942 4.5495 11.1661 4.75925C11.147 4.79059 11.1272 4.82305 11.1073 4.85687C11.0429 4.96607 10.9845 5.07046 10.9295 5.16885L10.9295 5.16889C10.731 5.52389 10.5763 5.80065 10.3407 5.94281L10.3454 6.7467L6.39934 6.71276L6.39422 5.90074C6.19251 5.74968 6.04822 5.49161 5.86778 5.16888C5.81276 5.07048 5.75439 4.96607 5.69 4.85685C5.67006 4.82304 5.65026 4.7906 5.63112 4.75926L5.63112 4.75926L5.63112 4.75925L5.63111 4.75924L5.63111 4.75924C5.50305 4.54948 5.40533 4.38943 5.5036 4.20168C5.69477 3.83642 6.56094 3.48119 7.35455 3.29335C7.51063 3.23785 7.67374 3.18599 7.83545 3.13633L7.90764 3.18858C7.97039 3.18001 8.03119 3.17303 8.08952 3.16774L8.18044 3.3705H8.50171C8.50171 3.3705 8.69572 3.94649 8.69572 4.26637C8.69572 4.58626 8.50171 4.85078 8.50171 4.85078V5.07159C8.53539 5.0744 8.57073 5.07782 8.60744 5.08179C8.6077 5.06263 8.60957 5.04246 8.61321 5.02181C8.63181 4.91629 8.68967 4.83829 8.74243 4.84759C8.79519 4.8569 8.82288 4.94998 8.80427 5.0555C8.80125 5.07266 8.79718 5.08909 8.79227 5.10453C9.00045 5.13284 9.23374 5.17237 9.45472 5.21302C9.53888 5.04991 9.64147 4.88876 9.73944 4.73489C9.99265 4.33717 10.2149 3.98811 10.0075 3.77974C9.96813 3.74021 9.89691 3.70344 9.80505 3.66938C9.50165 3.5939 9.17134 3.53568 8.85034 3.50656L8.84065 3.45382C8.77658 3.44341 8.71509 3.43372 8.65778 3.42474ZM10.1572 5.35207C10.2694 5.37571 10.3375 5.39075 10.3375 5.39075L10.3382 5.50576C10.7291 5.20443 11.0057 4.53679 11.0307 4.31807C11.0457 4.18621 10.8366 4.03418 10.5087 3.89644C10.6639 4.19072 10.4561 4.48276 10.1953 4.84926C10.0973 4.987 9.99176 5.13525 9.89523 5.29809L9.99098 5.31754C9.99015 5.2873 9.99413 5.25329 10.0035 5.21833C10.0312 5.11483 10.0957 5.04217 10.1474 5.05604C10.1992 5.0699 10.2186 5.16504 10.1909 5.26854C10.1826 5.29968 10.1709 5.32803 10.1572 5.35207ZM8.1409 5.07309V4.82717C8.1409 4.82717 7.97293 4.63943 7.94689 4.24844C7.92827 3.96874 7.98593 3.63993 8.02027 3.47541C7.76982 3.50717 7.50581 3.55648 7.25015 3.61704C7.08015 3.66488 6.94465 3.71906 6.88425 3.77974C6.67685 3.98811 6.89907 4.33717 7.15228 4.73489C7.24691 4.88351 7.34586 5.03894 7.42833 5.19635C7.57096 5.16547 7.71428 5.13688 7.8481 5.11414C7.84234 5.09346 7.8382 5.0709 7.83613 5.04714C7.82679 4.9404 7.86248 4.85009 7.91585 4.84542C7.96922 4.84075 8.02006 4.92349 8.0294 5.03023C8.03109 5.04957 8.0313 5.06837 8.0302 5.08621C8.06862 5.08106 8.10562 5.07665 8.1409 5.07309ZM6.69645 4.84927L6.69645 4.84927L6.69645 4.84926C6.42974 4.47447 6.21846 4.17755 6.3941 3.87647C6.01022 4.02511 5.7516 4.18654 5.76659 4.31806C5.79015 4.52471 6.03839 5.13214 6.39547 5.45269C6.42044 5.44572 6.55847 5.40743 6.75326 5.35735C6.73831 5.334 6.72511 5.3062 6.7151 5.27542C6.68199 5.17351 6.69646 5.07748 6.74741 5.06092C6.79836 5.04437 6.86651 5.11356 6.89962 5.21546C6.91105 5.25063 6.91681 5.2851 6.91736 5.31584L6.99557 5.29654C6.89929 5.13432 6.79416 4.98657 6.69646 4.84928L6.69645 4.84927L6.69645 4.84927Z" fill="#F6C540"/>
<path fill-rule="evenodd" clip-rule="evenodd" d="M8.78927 3.22577C8.78927 3.46103 8.59383 3.65174 8.35274 3.65174C8.11166 3.65174 7.91622 3.46103 7.91622 3.22577C7.91622 2.99052 8.11166 2.7998 8.35274 2.7998C8.59383 2.7998 8.78927 2.99052 8.78927 3.22577ZM8.35272 6.38898C8.54024 6.38898 8.69224 6.30212 8.69224 6.19497C8.69224 6.08782 8.54024 6.00096 8.35272 6.00096C8.16521 6.00096 8.01321 6.08782 8.01321 6.19497C8.01321 6.30212 8.16521 6.38898 8.35272 6.38898ZM6.65515 6.34052C6.65515 6.42088 6.59 6.48603 6.50964 6.48603C6.42928 6.48603 6.36414 6.42088 6.36414 6.34052C6.36414 6.26016 6.42928 6.19501 6.50964 6.19501C6.59 6.19501 6.65515 6.26016 6.65515 6.34052ZM10.5354 6.34052C10.5354 6.42088 10.4702 6.48603 10.3899 6.48603C10.3095 6.48603 10.2444 6.42088 10.2444 6.34052C10.2444 6.26016 10.3095 6.19501 10.3899 6.19501C10.4702 6.19501 10.5354 6.26016 10.5354 6.34052Z" fill="#2E42A5"/>
<path fill-rule="evenodd" clip-rule="evenodd" d="M7.62528 6.24341C7.62528 6.32377 7.51671 6.38892 7.38277 6.38892C7.24884 6.38892 7.14026 6.32377 7.14026 6.24341C7.14026 6.16305 7.24884 6.0979 7.38277 6.0979C7.51671 6.0979 7.62528 6.16305 7.62528 6.24341ZM9.66238 6.24342C9.66238 6.32378 9.5538 6.38892 9.41987 6.38892C9.28593 6.38892 9.17735 6.32378 9.17735 6.24342C9.17735 6.16305 9.28593 6.09791 9.41987 6.09791C9.5538 6.09791 9.66238 6.16305 9.66238 6.24342Z" fill="#C5363C"/>
<path fill-rule="evenodd" clip-rule="evenodd" d="M9.17738 5.03092C9.17738 5.13807 9.13395 5.22493 9.08037 5.22493C9.0268 5.22493 8.98337 5.13807 8.98337 5.03092C8.98337 4.92378 9.0268 4.83691 9.08037 4.83691C9.13395 4.83691 9.17738 4.92378 9.17738 5.03092ZM7.7175 5.00094C7.75061 5.10284 7.73615 5.19888 7.68519 5.21543C7.63424 5.23199 7.5661 5.1628 7.53298 5.06089C7.49987 4.95899 7.51434 4.86296 7.56529 4.8464C7.61624 4.82985 7.68439 4.89904 7.7175 5.00094ZM6.57636 5.52689C6.62732 5.51034 6.64178 5.41431 6.60867 5.3124C6.57556 5.2105 6.50741 5.14131 6.45646 5.15786C6.40551 5.17442 6.39104 5.27045 6.42415 5.37236C6.45726 5.47426 6.52541 5.54345 6.57636 5.52689ZM10.4147 5.39529C10.3579 5.48616 10.2751 5.53681 10.2296 5.50842C10.1842 5.48003 10.1934 5.38335 10.2502 5.29248C10.307 5.20161 10.3898 5.15097 10.4353 5.17936C10.4807 5.20775 10.4715 5.30442 10.4147 5.39529Z" fill="#F7FCFF"/>
<path fill-rule="evenodd" clip-rule="evenodd" d="M7.5288 3.41743C7.55585 3.43711 7.58915 3.44873 7.62516 3.44873C7.71571 3.44873 7.7891 3.37533 7.7891 3.28479C7.7891 3.19425 7.71571 3.12085 7.62516 3.12085C7.56095 3.12085 7.50535 3.15777 7.47846 3.21155C7.45141 3.19186 7.4181 3.18025 7.38209 3.18025C7.32435 3.18025 7.27358 3.2101 7.24437 3.25522C7.21604 3.23186 7.17974 3.21783 7.14016 3.21783C7.04962 3.21783 6.97622 3.29123 6.97622 3.38177C6.97622 3.38684 6.97645 3.39185 6.9769 3.39679C6.94685 3.35946 6.90078 3.33557 6.84912 3.33557C6.76707 3.33557 6.69911 3.39585 6.68707 3.47453C6.65706 3.43638 6.61047 3.41189 6.55817 3.41189C6.47949 3.41189 6.41376 3.46731 6.39788 3.54124C6.37095 3.52185 6.3379 3.51042 6.30218 3.51042C6.22953 3.51042 6.16792 3.55768 6.14641 3.62313C6.12434 3.61208 6.09944 3.60586 6.07308 3.60586C5.99218 3.60586 5.92497 3.66445 5.91157 3.74151C5.90108 3.73941 5.89022 3.7383 5.87911 3.7383C5.78943 3.7383 5.71657 3.81031 5.71519 3.89966C5.70542 3.89784 5.69535 3.89689 5.68506 3.89689C5.59452 3.89689 5.52112 3.97029 5.52112 4.06083C5.52112 4.07229 5.52229 4.08348 5.52453 4.09428C5.51373 4.09204 5.50255 4.09086 5.49109 4.09086C5.40055 4.09086 5.32715 4.16426 5.32715 4.2548C5.32715 4.32359 5.36951 4.38248 5.42957 4.40681C5.42602 4.42023 5.42413 4.43432 5.42413 4.44885C5.42413 4.51763 5.46649 4.57652 5.52654 4.60085C5.523 4.61425 5.52112 4.62832 5.52112 4.64282C5.52112 4.73124 5.59111 4.80331 5.67872 4.80664C5.64178 4.8367 5.61818 4.88252 5.61818 4.93386C5.61818 5.0244 5.69158 5.0978 5.78212 5.0978C5.87266 5.0978 5.94606 5.0244 5.94606 4.93386C5.94606 4.84544 5.87607 4.77337 5.78846 4.77004C5.8254 4.73998 5.849 4.69416 5.849 4.64282C5.849 4.57404 5.80664 4.51516 5.74659 4.49082C5.75013 4.47743 5.75201 4.46336 5.75201 4.44885C5.75201 4.38007 5.70965 4.32117 5.64958 4.29685C5.65313 4.28343 5.65503 4.26934 5.65503 4.2548C5.65503 4.24334 5.65385 4.23215 5.65161 4.22136C5.66241 4.22359 5.6736 4.22477 5.68506 4.22477C5.77473 4.22477 5.84759 4.15276 5.84898 4.06342C5.85874 4.06523 5.86882 4.06618 5.87911 4.06618C5.96001 4.06618 6.02722 4.00758 6.04062 3.93052C6.05111 3.93263 6.06196 3.93373 6.07308 3.93373C6.14573 3.93373 6.20734 3.88648 6.22885 3.82103C6.25092 3.83208 6.27582 3.8383 6.30218 3.8383C6.33817 3.8383 6.37144 3.82671 6.39848 3.80705C6.40358 3.82899 6.41308 3.84924 6.42601 3.86682C6.40603 3.89399 6.39423 3.92754 6.39423 3.96385C6.39423 4.05221 6.46413 4.12424 6.55165 4.12766C6.51477 4.15772 6.49121 4.20351 6.49121 4.2548C6.49121 4.32359 6.53358 4.38248 6.59364 4.40681C6.59009 4.42023 6.5882 4.43432 6.5882 4.44885C6.5882 4.51763 6.63055 4.57652 6.6906 4.60085C6.68707 4.61425 6.68518 4.62832 6.68518 4.64282C6.68518 4.73336 6.75858 4.80676 6.84912 4.80676C6.93966 4.80676 7.01306 4.73336 7.01306 4.64282C7.01306 4.57404 6.9707 4.51516 6.91065 4.49082C6.91419 4.47743 6.91608 4.46336 6.91608 4.44885C6.91608 4.38007 6.87371 4.32117 6.81365 4.29685C6.8172 4.28343 6.81909 4.26934 6.81909 4.2548C6.81909 4.16644 6.74919 4.09441 6.66167 4.09099C6.69855 4.06093 6.72211 4.01514 6.72211 3.96385C6.72211 3.92754 6.7103 3.89399 6.69032 3.86682C6.7103 3.83965 6.72211 3.8061 6.72211 3.76979C6.72211 3.7335 6.71031 3.69997 6.69035 3.67281C6.70564 3.65201 6.71614 3.62746 6.72021 3.60081C6.75023 3.63895 6.79682 3.66345 6.84912 3.66345C6.93966 3.66345 7.01306 3.59005 7.01306 3.49951C7.01306 3.49445 7.01283 3.48944 7.01238 3.48449C7.04243 3.52182 7.0885 3.54571 7.14016 3.54571C7.1979 3.54571 7.24867 3.51586 7.27788 3.47075C7.3062 3.4941 7.34251 3.50813 7.38209 3.50813C7.44631 3.50813 7.5019 3.4712 7.5288 3.41743ZM6.46247 3.70895C6.4894 3.72834 6.52245 3.73976 6.55817 3.73976C6.61242 3.73976 6.66051 3.71341 6.69035 3.67281C6.66062 3.63236 6.61277 3.60605 6.55877 3.60586C6.57508 3.60552 6.58821 3.59219 6.58821 3.57579C6.58821 3.55918 6.57474 3.54572 6.55813 3.54572C6.54153 3.54572 6.52806 3.55918 6.52806 3.57579C6.52806 3.59219 6.54119 3.60553 6.55751 3.60586C6.52178 3.606 6.48874 3.61757 6.46187 3.63711C6.45275 3.59787 6.42955 3.56405 6.39788 3.54124C6.39549 3.55239 6.39423 3.56396 6.39423 3.57582C6.39423 3.61211 6.40602 3.64565 6.42598 3.67281C6.40602 3.69997 6.39423 3.7335 6.39423 3.76979C6.39423 3.78261 6.3957 3.79508 6.39848 3.80705C6.43056 3.78373 6.45385 3.74906 6.46247 3.70895ZM6.46247 3.70895C6.4485 3.69888 6.43617 3.68668 6.42598 3.67281C6.43603 3.65914 6.44814 3.64708 6.46187 3.63711C6.46465 3.64907 6.46612 3.66155 6.46612 3.67436C6.46612 3.68623 6.46486 3.6978 6.46247 3.70895ZM6.55877 3.60586L6.55817 3.60586L6.55813 3.60586L6.55877 3.60586ZM6.55877 3.79991C6.61275 3.8001 6.66059 3.82639 6.69032 3.86682C6.66048 3.9074 6.6124 3.93373 6.55817 3.93373C6.50393 3.93373 6.45585 3.9074 6.42601 3.86682C6.45573 3.82641 6.50355 3.80012 6.55751 3.79991C6.54119 3.79958 6.52806 3.78624 6.52806 3.76984C6.52806 3.75324 6.54153 3.73977 6.55813 3.73977C6.57474 3.73977 6.58821 3.75324 6.58821 3.76984C6.58821 3.78624 6.57508 3.79957 6.55877 3.79991ZM6.55877 3.79991L6.55817 3.79991L6.55813 3.79992L6.55877 3.79991ZM6.91065 4.49082C6.89165 4.48312 6.87088 4.47888 6.84912 4.47888C6.77309 4.47888 6.70914 4.53065 6.6906 4.60085C6.7096 4.60855 6.73038 4.61279 6.75214 4.61279C6.82817 4.61279 6.89211 4.56103 6.91065 4.49082ZM6.81365 4.29685C6.79465 4.28915 6.77389 4.28491 6.75214 4.28491C6.67613 4.28491 6.6122 4.33664 6.59364 4.40681C6.61263 4.4145 6.6334 4.41874 6.65515 4.41874C6.73116 4.41874 6.79508 4.36701 6.81365 4.29685ZM6.66167 4.09099L6.65515 4.09086C6.6159 4.09086 6.57988 4.10466 6.55165 4.12766L6.55817 4.12778C6.59742 4.12778 6.63344 4.11399 6.66167 4.09099ZM5.78846 4.77004L5.78212 4.76992C5.74292 4.76992 5.70693 4.78368 5.67872 4.80664L5.68506 4.80676C5.72426 4.80676 5.76025 4.793 5.78846 4.77004ZM5.74659 4.49082C5.72805 4.56103 5.66411 4.61279 5.58807 4.61279C5.56631 4.61279 5.54554 4.60855 5.52654 4.60085C5.54508 4.53065 5.60902 4.47888 5.68506 4.47888C5.70682 4.47888 5.72759 4.48312 5.74659 4.49082ZM5.64958 4.29685C5.63102 4.36701 5.56709 4.41874 5.49109 4.41874C5.46933 4.41874 5.44857 4.4145 5.42957 4.40681C5.44814 4.33664 5.51207 4.28491 5.58807 4.28491C5.60983 4.28491 5.63059 4.28915 5.64958 4.29685ZM5.52453 4.09428C5.53774 4.15798 5.58791 4.20815 5.65161 4.22136C5.63841 4.15765 5.58824 4.10748 5.52453 4.09428ZM5.84898 4.06342C5.77283 4.04927 5.71517 3.98249 5.71517 3.90224L5.71519 3.89966C5.79134 3.9138 5.849 3.98058 5.849 4.06083L5.84898 4.06342ZM6.04062 3.93052C5.96563 3.91546 5.90914 3.84922 5.90914 3.76979C5.90914 3.76015 5.90997 3.7507 5.91157 3.74151C5.98656 3.75658 6.04305 3.82281 6.04305 3.90224C6.04305 3.91188 6.04221 3.92133 6.04062 3.93052ZM6.22885 3.82103C6.17513 3.79411 6.13824 3.73854 6.13824 3.67436C6.13824 3.65647 6.14111 3.63925 6.14641 3.62313C6.20013 3.65004 6.23702 3.70561 6.23702 3.76979C6.23702 3.78769 6.23415 3.80491 6.22885 3.82103ZM6.72021 3.60081C6.69827 3.57292 6.68518 3.53775 6.68518 3.49951C6.68518 3.49102 6.68583 3.48267 6.68707 3.47453C6.70902 3.50241 6.72211 3.53759 6.72211 3.57582C6.72211 3.58432 6.72146 3.59266 6.72021 3.60081ZM6.9769 3.39679C6.9799 3.42984 6.9927 3.46004 7.01238 3.48449C7.00938 3.45145 6.99657 3.42124 6.9769 3.39679ZM7.27788 3.47075C7.2414 3.44068 7.21815 3.39515 7.21815 3.34419C7.21815 3.31139 7.22778 3.28084 7.24437 3.25522C7.28084 3.28528 7.3041 3.33081 7.3041 3.38177C7.3041 3.41457 7.29446 3.44512 7.27788 3.47075ZM7.5288 3.41743C7.48785 3.38762 7.46123 3.33931 7.46123 3.28479C7.46123 3.25847 7.46743 3.23359 7.47846 3.21155C7.51941 3.24135 7.54603 3.28966 7.54603 3.34419C7.54603 3.37051 7.53982 3.39539 7.5288 3.41743ZM5.87908 3.93228C5.89568 3.93228 5.90915 3.91882 5.90915 3.90221C5.90915 3.8856 5.89568 3.87214 5.87908 3.87214C5.86247 3.87214 5.849 3.8856 5.849 3.90221C5.849 3.91882 5.86247 3.93228 5.87908 3.93228ZM5.68511 4.09087C5.70171 4.09087 5.71518 4.07741 5.71518 4.0608C5.71518 4.04419 5.70171 4.03073 5.68511 4.03073C5.6685 4.03073 5.65503 4.04419 5.65503 4.0608C5.65503 4.07741 5.6685 4.09087 5.68511 4.09087ZM5.49105 4.28492C5.50766 4.28492 5.52113 4.27146 5.52113 4.25485C5.52113 4.23824 5.50766 4.22478 5.49105 4.22478C5.47445 4.22478 5.46098 4.23824 5.46098 4.25485C5.46098 4.27146 5.47445 4.28492 5.49105 4.28492ZM5.58812 4.47889C5.60473 4.47889 5.61819 4.46543 5.61819 4.44882C5.61819 4.43221 5.60473 4.41875 5.58812 4.41875C5.57151 4.41875 5.55805 4.43221 5.55805 4.44882C5.55805 4.46543 5.57151 4.47889 5.58812 4.47889ZM5.68511 4.67294C5.70171 4.67294 5.71518 4.65948 5.71518 4.64287C5.71518 4.62626 5.70171 4.6128 5.68511 4.6128C5.6685 4.6128 5.65503 4.62626 5.65503 4.64287C5.65503 4.65948 5.6685 4.67294 5.68511 4.67294ZM5.81216 4.93391C5.81216 4.95052 5.7987 4.96398 5.78209 4.96398C5.76548 4.96398 5.75202 4.95052 5.75202 4.93391C5.75202 4.9173 5.76548 4.90384 5.78209 4.90384C5.7987 4.90384 5.81216 4.9173 5.81216 4.93391ZM6.07313 3.79992C6.08974 3.79992 6.1032 3.78645 6.1032 3.76984C6.1032 3.75324 6.08974 3.73977 6.07313 3.73977C6.05652 3.73977 6.04306 3.75324 6.04306 3.76984C6.04306 3.78645 6.05652 3.79992 6.07313 3.79992ZM6.30223 3.70448C6.31884 3.70448 6.3323 3.69102 6.3323 3.67441C6.3323 3.6578 6.31884 3.64434 6.30223 3.64434C6.28562 3.64434 6.27216 3.6578 6.27216 3.67441C6.27216 3.69102 6.28562 3.70448 6.30223 3.70448ZM6.84917 3.52955C6.86578 3.52955 6.87924 3.51609 6.87924 3.49948C6.87924 3.48287 6.86578 3.46941 6.84917 3.46941C6.83256 3.46941 6.8191 3.48287 6.8191 3.49948C6.8191 3.51609 6.83256 3.52955 6.84917 3.52955ZM7.14021 3.41189C7.15682 3.41189 7.17028 3.39843 7.17028 3.38182C7.17028 3.36521 7.15682 3.35175 7.14021 3.35175C7.1236 3.35175 7.11014 3.36521 7.11014 3.38182C7.11014 3.39843 7.1236 3.41189 7.14021 3.41189ZM7.38214 3.37423C7.39875 3.37423 7.41221 3.36076 7.41221 3.34416C7.41221 3.32755 7.39875 3.31408 7.38214 3.31408C7.36553 3.31408 7.35207 3.32755 7.35207 3.34416C7.35207 3.36076 7.36553 3.37423 7.38214 3.37423ZM7.62521 3.31483C7.64182 3.31483 7.65529 3.30136 7.65529 3.28476C7.65529 3.26815 7.64182 3.25468 7.62521 3.25468C7.60861 3.25468 7.59514 3.26815 7.59514 3.28476C7.59514 3.30136 7.60861 3.31483 7.62521 3.31483ZM6.55813 3.99389C6.57474 3.99389 6.58821 3.98042 6.58821 3.96381C6.58821 3.94721 6.57474 3.93374 6.55813 3.93374C6.54153 3.93374 6.52806 3.94721 6.52806 3.96381C6.52806 3.98042 6.54153 3.99389 6.55813 3.99389ZM6.65512 4.28492C6.67173 4.28492 6.68519 4.27146 6.68519 4.25485C6.68519 4.23824 6.67173 4.22478 6.65512 4.22478C6.63851 4.22478 6.62505 4.23824 6.62505 4.25485C6.62505 4.27146 6.63851 4.28492 6.65512 4.28492ZM6.75219 4.47889C6.76879 4.47889 6.78226 4.46543 6.78226 4.44882C6.78226 4.43221 6.76879 4.41875 6.75219 4.41875C6.73558 4.41875 6.72211 4.43221 6.72211 4.44882C6.72211 4.46543 6.73558 4.47889 6.75219 4.47889ZM6.84917 4.67294C6.86578 4.67294 6.87924 4.65948 6.87924 4.64287C6.87924 4.62626 6.86578 4.6128 6.84917 4.6128C6.83256 4.6128 6.8191 4.62626 6.8191 4.64287C6.8191 4.65948 6.83256 4.67294 6.84917 4.67294ZM11.1174 4.96398C11.134 4.96398 11.1475 4.95052 11.1475 4.93391C11.1475 4.9173 11.134 4.90384 11.1174 4.90384C11.1008 4.90384 11.0873 4.9173 11.0873 4.93391C11.0873 4.95052 11.1008 4.96398 11.1174 4.96398ZM10.9534 4.93386C10.9534 5.0244 11.0268 5.0978 11.1174 5.0978C11.2079 5.0978 11.2813 5.0244 11.2813 4.93386C11.2813 4.88252 11.2577 4.8367 11.2208 4.80664C11.3084 4.80331 11.3784 4.73124 11.3784 4.64282C11.3784 4.62832 11.3765 4.61425 11.3729 4.60085C11.433 4.57652 11.4753 4.51763 11.4753 4.44885C11.4753 4.43432 11.4735 4.42023 11.4699 4.40681C11.53 4.38248 11.5723 4.32359 11.5723 4.2548C11.5723 4.16426 11.4989 4.09086 11.4084 4.09086C11.3969 4.09086 11.3857 4.09204 11.3749 4.09428C11.3772 4.08348 11.3784 4.07229 11.3784 4.06083C11.3784 3.97029 11.305 3.89689 11.2144 3.89689C11.2041 3.89689 11.1941 3.89784 11.1843 3.89966C11.1829 3.81031 11.1101 3.7383 11.0204 3.7383C11.0093 3.7383 10.9984 3.73941 10.9879 3.74151C10.9745 3.66445 10.9073 3.60586 10.8264 3.60586C10.8 3.60586 10.7751 3.61208 10.7531 3.62313C10.7316 3.55768 10.6699 3.51042 10.5973 3.51042C10.5616 3.51042 10.5285 3.52185 10.5016 3.54124C10.4857 3.46731 10.42 3.41189 10.3413 3.41189C10.289 3.41189 10.2424 3.43638 10.2124 3.47453C10.2004 3.39584 10.1324 3.33557 10.0504 3.33557C9.99871 3.33557 9.95263 3.35946 9.92258 3.39679C9.92303 3.39185 9.92326 3.38684 9.92326 3.38177C9.92326 3.29123 9.84986 3.21783 9.75932 3.21783C9.71974 3.21783 9.68344 3.23186 9.65511 3.25522C9.6259 3.2101 9.57513 3.18025 9.51739 3.18025C9.48138 3.18025 9.44808 3.19186 9.42103 3.21155C9.39413 3.15777 9.33854 3.12085 9.27432 3.12085C9.18378 3.12085 9.11038 3.19425 9.11038 3.28479C9.11038 3.37533 9.18378 3.44873 9.27432 3.44873C9.31033 3.44873 9.34363 3.43711 9.37068 3.41743C9.39758 3.4712 9.45317 3.50813 9.51739 3.50813C9.55697 3.50813 9.59328 3.4941 9.62161 3.47075C9.65081 3.51586 9.70158 3.54571 9.75932 3.54571C9.81098 3.54571 9.85705 3.52182 9.8871 3.48449C9.88665 3.48944 9.88642 3.49445 9.88642 3.49951C9.88642 3.59005 9.95982 3.66345 10.0504 3.66345C10.1027 3.66345 10.1493 3.63895 10.1793 3.60081C10.1833 3.62746 10.1938 3.65201 10.2091 3.67281C10.1892 3.69997 10.1774 3.7335 10.1774 3.76979C10.1774 3.8061 10.1892 3.83965 10.2092 3.86682C10.1892 3.89399 10.1774 3.92754 10.1774 3.96385C10.1774 4.01514 10.2009 4.06093 10.2378 4.09099C10.1503 4.09441 10.0804 4.16644 10.0804 4.2548C10.0804 4.26934 10.0823 4.28343 10.0858 4.29685C10.0258 4.32117 9.98341 4.38007 9.98341 4.44885C9.98341 4.46336 9.98529 4.47743 9.98883 4.49082C9.92878 4.51516 9.88642 4.57404 9.88642 4.64282C9.88642 4.73336 9.95982 4.80676 10.0504 4.80676C10.1409 4.80676 10.2143 4.73336 10.2143 4.64282C10.2143 4.62832 10.2124 4.61425 10.2089 4.60085C10.2689 4.57652 10.3113 4.51763 10.3113 4.44885C10.3113 4.43432 10.3094 4.42023 10.3058 4.40681C10.3659 4.38248 10.4083 4.32359 10.4083 4.2548C10.4083 4.20351 10.3847 4.15772 10.3478 4.12766C10.4354 4.12424 10.5053 4.05221 10.5053 3.96385C10.5053 3.92754 10.4935 3.89399 10.4735 3.86682C10.4864 3.84924 10.4959 3.82899 10.501 3.80705C10.528 3.82671 10.5613 3.8383 10.5973 3.8383C10.6237 3.8383 10.6486 3.83208 10.6706 3.82103C10.6921 3.88648 10.7538 3.93373 10.8264 3.93373C10.8375 3.93373 10.8484 3.93263 10.8589 3.93052C10.8723 4.00758 10.9395 4.06618 11.0204 4.06618C11.0307 4.06618 11.0407 4.06523 11.0505 4.06342C11.0519 4.15276 11.1247 4.22477 11.2144 4.22477C11.2259 4.22477 11.2371 4.22359 11.2479 4.22136C11.2456 4.23215 11.2445 4.24334 11.2445 4.2548C11.2445 4.26934 11.2463 4.28343 11.2499 4.29684C11.1898 4.32117 11.1475 4.38007 11.1475 4.44885C11.1475 4.46336 11.1494 4.47743 11.1529 4.49082C11.0928 4.51516 11.0505 4.57404 11.0505 4.64282C11.0505 4.69416 11.0741 4.73998 11.111 4.77004C11.0234 4.77337 10.9534 4.84544 10.9534 4.93386ZM10.437 3.70895C10.4456 3.74906 10.4689 3.78373 10.501 3.80705C10.5038 3.79508 10.5053 3.78261 10.5053 3.76979C10.5053 3.7335 10.4935 3.69997 10.4735 3.67281C10.4935 3.64565 10.5053 3.61211 10.5053 3.57582C10.5053 3.56396 10.504 3.55239 10.5016 3.54124C10.4699 3.56405 10.4467 3.59787 10.4376 3.63711C10.4107 3.61757 10.3777 3.606 10.342 3.60586C10.3583 3.60553 10.3714 3.59219 10.3714 3.57579C10.3714 3.55918 10.358 3.54572 10.3414 3.54572C10.3248 3.54572 10.3113 3.55918 10.3113 3.57579C10.3113 3.59219 10.3244 3.60552 10.3407 3.60586C10.2867 3.60605 10.2389 3.63235 10.2091 3.67281C10.239 3.71341 10.2871 3.73976 10.3413 3.73976C10.377 3.73976 10.4101 3.72834 10.437 3.70895ZM10.342 3.60586L10.3413 3.60586L10.3414 3.60586L10.342 3.60586ZM10.437 3.70895C10.4346 3.6978 10.4334 3.68623 10.4334 3.67436C10.4334 3.66155 10.4348 3.64907 10.4376 3.63711C10.4513 3.64708 10.4635 3.65914 10.4735 3.67281C10.4633 3.68668 10.451 3.69888 10.437 3.70895ZM10.342 3.79991C10.3583 3.79958 10.3714 3.78625 10.3714 3.76984C10.3714 3.75324 10.358 3.73977 10.3414 3.73977C10.3248 3.73977 10.3113 3.75324 10.3113 3.76984C10.3113 3.78624 10.3244 3.79957 10.3407 3.79991C10.2867 3.8001 10.2389 3.82639 10.2092 3.86682C10.239 3.9074 10.2871 3.93373 10.3413 3.93373C10.3955 3.93373 10.4436 3.9074 10.4735 3.86682C10.4438 3.82641 10.3959 3.80012 10.342 3.79991ZM10.342 3.79991L10.3414 3.79992L10.3413 3.79991L10.342 3.79991ZM10.2089 4.60085C10.1903 4.53065 10.1264 4.47888 10.0504 4.47888C10.0286 4.47888 10.0078 4.48312 9.98883 4.49082C10.0074 4.56103 10.0713 4.61279 10.1473 4.61279C10.1691 4.61279 10.1899 4.60855 10.2089 4.60085ZM10.3058 4.40681C10.2873 4.33664 10.2234 4.28491 10.1473 4.28491C10.1256 4.28491 10.1048 4.28915 10.0858 4.29685C10.1044 4.36701 10.1683 4.41874 10.2443 4.41874C10.2661 4.41874 10.2868 4.4145 10.3058 4.40681ZM10.3478 4.12766C10.3196 4.10466 10.2836 4.09086 10.2443 4.09086L10.2378 4.09099C10.266 4.11399 10.3021 4.12778 10.3413 4.12778L10.3478 4.12766ZM9.37068 3.41743C9.41164 3.38762 9.43826 3.33931 9.43826 3.28479C9.43826 3.25847 9.43205 3.23359 9.42103 3.21155C9.38007 3.24135 9.35345 3.28966 9.35345 3.34419C9.35345 3.37051 9.35966 3.39539 9.37068 3.41743ZM9.62161 3.47075C9.60502 3.44512 9.59539 3.41457 9.59539 3.38177C9.59539 3.33081 9.61864 3.28528 9.65511 3.25522C9.6717 3.28084 9.68133 3.31139 9.68133 3.34419C9.68133 3.39515 9.65808 3.44068 9.62161 3.47075ZM9.92258 3.39679C9.90291 3.42124 9.8901 3.45145 9.8871 3.48449C9.90678 3.46004 9.91958 3.42984 9.92258 3.39679ZM10.1793 3.60081C10.178 3.59266 10.1774 3.58432 10.1774 3.57582C10.1774 3.53759 10.1905 3.50241 10.2124 3.47453C10.2137 3.48267 10.2143 3.49102 10.2143 3.49951C10.2143 3.53775 10.2012 3.57292 10.1793 3.60081ZM10.6706 3.82103C10.6653 3.80491 10.6625 3.78769 10.6625 3.76979C10.6625 3.70561 10.6993 3.65004 10.7531 3.62313C10.7584 3.63925 10.7612 3.65647 10.7612 3.67436C10.7612 3.73854 10.7244 3.79411 10.6706 3.82103ZM10.8589 3.93052C10.8573 3.92133 10.8564 3.91188 10.8564 3.90224C10.8564 3.82281 10.9129 3.75658 10.9879 3.74151C10.9895 3.7507 10.9903 3.76015 10.9903 3.76979C10.9903 3.84922 10.9339 3.91546 10.8589 3.93052ZM11.0505 4.06342L11.0505 4.06083C11.0505 3.98058 11.1081 3.9138 11.1843 3.89966L11.1843 3.90224C11.1843 3.98249 11.1267 4.04927 11.0505 4.06342ZM11.3749 4.09428C11.3112 4.10748 11.2611 4.15765 11.2479 4.22136C11.3116 4.20815 11.3617 4.15798 11.3749 4.09428ZM11.2499 4.29684C11.2689 4.28915 11.2897 4.28491 11.3114 4.28491C11.3874 4.28491 11.4513 4.33664 11.4699 4.40681C11.4509 4.4145 11.4301 4.41874 11.4084 4.41874C11.3324 4.41874 11.2685 4.36701 11.2499 4.29684ZM11.1529 4.49082C11.1719 4.48312 11.1927 4.47888 11.2144 4.47888C11.2905 4.47888 11.3544 4.53065 11.3729 4.60085C11.3539 4.60855 11.3332 4.61279 11.3114 4.61279C11.2354 4.61279 11.1714 4.56103 11.1529 4.49082ZM11.111 4.77004L11.1174 4.76992C11.1566 4.76992 11.1926 4.78368 11.2208 4.80664L11.2144 4.80676C11.1752 4.80676 11.1392 4.793 11.111 4.77004ZM11.2144 4.67294C11.231 4.67294 11.2445 4.65948 11.2445 4.64287C11.2445 4.62626 11.231 4.6128 11.2144 4.6128C11.1978 4.6128 11.1843 4.62626 11.1843 4.64287C11.1843 4.65948 11.1978 4.67294 11.2144 4.67294ZM11.3114 4.47889C11.328 4.47889 11.3414 4.46543 11.3414 4.44882C11.3414 4.43221 11.328 4.41875 11.3114 4.41875C11.2948 4.41875 11.2813 4.43221 11.2813 4.44882C11.2813 4.46543 11.2948 4.47889 11.3114 4.47889ZM11.4084 4.28492C11.425 4.28492 11.4384 4.27146 11.4384 4.25485C11.4384 4.23824 11.425 4.22478 11.4084 4.22478C11.3918 4.22478 11.3783 4.23824 11.3783 4.25485C11.3783 4.27146 11.3918 4.28492 11.4084 4.28492ZM11.2144 4.09087C11.231 4.09087 11.2445 4.07741 11.2445 4.0608C11.2445 4.04419 11.231 4.03073 11.2144 4.03073C11.1978 4.03073 11.1843 4.04419 11.1843 4.0608C11.1843 4.07741 11.1978 4.09087 11.2144 4.09087ZM11.0203 3.93228C11.0369 3.93228 11.0504 3.91882 11.0504 3.90221C11.0504 3.8856 11.0369 3.87214 11.0203 3.87214C11.0037 3.87214 10.9903 3.8856 10.9903 3.90221C10.9903 3.91882 11.0037 3.93228 11.0203 3.93228ZM10.8264 3.79992C10.843 3.79992 10.8564 3.78645 10.8564 3.76984C10.8564 3.75324 10.843 3.73977 10.8264 3.73977C10.8098 3.73977 10.7963 3.75324 10.7963 3.76984C10.7963 3.78645 10.8098 3.79992 10.8264 3.79992ZM10.5973 3.70448C10.6139 3.70448 10.6273 3.69102 10.6273 3.67441C10.6273 3.6578 10.6139 3.64434 10.5973 3.64434C10.5807 3.64434 10.5672 3.6578 10.5672 3.67441C10.5672 3.69102 10.5807 3.70448 10.5973 3.70448ZM10.0503 3.52955C10.0669 3.52955 10.0804 3.51609 10.0804 3.49948C10.0804 3.48287 10.0669 3.46941 10.0503 3.46941C10.0337 3.46941 10.0203 3.48287 10.0203 3.49948C10.0203 3.51609 10.0337 3.52955 10.0503 3.52955ZM9.75929 3.41189C9.7759 3.41189 9.78936 3.39843 9.78936 3.38182C9.78936 3.36521 9.7759 3.35175 9.75929 3.35175C9.74268 3.35175 9.72922 3.36521 9.72922 3.38182C9.72922 3.39843 9.74268 3.41189 9.75929 3.41189ZM9.51736 3.37423C9.53397 3.37423 9.54743 3.36076 9.54743 3.34416C9.54743 3.32755 9.53397 3.31408 9.51736 3.31408C9.50075 3.31408 9.48729 3.32755 9.48729 3.34416C9.48729 3.36076 9.50075 3.37423 9.51736 3.37423ZM9.27428 3.31483C9.29089 3.31483 9.30436 3.30136 9.30436 3.28476C9.30436 3.26815 9.29089 3.25468 9.27428 3.25468C9.25768 3.25468 9.24421 3.26815 9.24421 3.28476C9.24421 3.30136 9.25768 3.31483 9.27428 3.31483ZM10.3414 3.99389C10.358 3.99389 10.3714 3.98042 10.3714 3.96381C10.3714 3.94721 10.358 3.93374 10.3414 3.93374C10.3248 3.93374 10.3113 3.94721 10.3113 3.96381C10.3113 3.98042 10.3248 3.99389 10.3414 3.99389ZM10.2443 4.28492C10.2609 4.28492 10.2744 4.27146 10.2744 4.25485C10.2744 4.23824 10.2609 4.22478 10.2443 4.22478C10.2277 4.22478 10.2142 4.23824 10.2142 4.25485C10.2142 4.27146 10.2277 4.28492 10.2443 4.28492ZM10.1473 4.47889C10.1639 4.47889 10.1774 4.46543 10.1774 4.44882C10.1774 4.43221 10.1639 4.41875 10.1473 4.41875C10.1307 4.41875 10.1172 4.43221 10.1172 4.44882C10.1172 4.46543 10.1307 4.47889 10.1473 4.47889ZM10.0503 4.67294C10.0669 4.67294 10.0804 4.65948 10.0804 4.64287C10.0804 4.62626 10.0669 4.6128 10.0503 4.6128C10.0337 4.6128 10.0203 4.62626 10.0203 4.64287C10.0203 4.65948 10.0337 4.67294 10.0503 4.67294Z" fill="white"/>
<path fill-rule="evenodd" clip-rule="evenodd" d="M8.42071 2.32104L8.27691 2.32339L8.27716 2.55979L8.01181 2.55964L8.01497 2.70313L8.27731 2.70328L8.27759 2.97263L8.42139 2.97028L8.42111 2.70336L8.68227 2.70351L8.67911 2.56001L8.42096 2.55987L8.42071 2.32104Z" fill="#F6C540"/>
<path fill-rule="evenodd" clip-rule="evenodd" d="M4.86206 6.72522H11.8231V12.6378C11.8231 12.6378 11.6126 15.5829 8.3426 15.5829C5.07257 15.5829 4.86206 12.6378 4.86206 12.6378V6.72522Z" fill="#C51918"/>
<path fill-rule="evenodd" clip-rule="evenodd" d="M6.96311 6.92981C6.89928 6.92981 6.80102 6.97565 6.67077 7.02757C6.54052 7.07948 6.40374 7.19156 6.53726 7.30382C6.67077 7.41608 6.8619 7.66246 6.8619 7.57034C6.8619 7.47822 7.09023 7.3889 7.09023 7.43356C7.09023 7.47822 7.01954 7.57034 7.20497 7.57034C7.39039 7.57034 7.48593 7.62513 7.28808 7.62513C7.09023 7.62513 7.06873 7.71563 6.94015 7.71563C6.81157 7.71563 6.53726 7.62445 6.53726 7.57034C6.53726 7.51624 6.69612 7.83633 6.8619 7.83633C7.02769 7.83633 7.12186 7.99207 7.20497 7.9142C7.28808 7.83633 7.27824 7.83633 7.41251 7.83633C7.54678 7.83633 7.49777 7.52184 7.49777 7.52184C7.49777 7.52184 7.02694 6.92981 6.96311 6.92981Z" fill="#E8AA00"/>
<path fill-rule="evenodd" clip-rule="evenodd" d="M9.64944 6.92981C9.71327 6.92981 9.81153 6.97565 9.94178 7.02757C10.072 7.07948 10.2088 7.19156 10.0753 7.30382C9.94178 7.41608 9.75064 7.66246 9.75064 7.57034C9.75064 7.47822 9.52232 7.3889 9.52232 7.43356C9.52232 7.47822 9.59301 7.57034 9.40758 7.57034C9.22215 7.57034 9.12662 7.62513 9.32447 7.62513C9.52232 7.62513 9.54382 7.71563 9.6724 7.71563C9.80098 7.71563 10.0753 7.62445 10.0753 7.57034C10.0753 7.51624 9.91643 7.83633 9.75064 7.83633C9.58486 7.83633 9.49069 7.99207 9.40758 7.9142C9.32447 7.83633 9.33431 7.83633 9.20004 7.83633C9.06577 7.83633 9.11478 7.52184 9.11478 7.52184C9.11478 7.52184 9.58561 6.92981 9.64944 6.92981Z" fill="#E8AA00"/>
<path fill-rule="evenodd" clip-rule="evenodd" d="M6.0106 7.57267C5.87716 7.88386 6.89985 9.03986 6.89985 9.03986H7.01436C7.06248 9.03986 7.15198 8.92146 7.26005 8.77849C7.33411 8.68051 7.4169 8.57099 7.50106 8.48014C7.65939 8.30923 7.57548 8.16566 7.49726 8.03182C7.47323 7.99071 7.44973 7.95051 7.43397 7.91072C7.39981 7.82453 7.39495 7.79015 7.38939 7.75086C7.38404 7.71297 7.37804 7.67053 7.3445 7.57267C7.29521 7.42887 7.12337 7.24332 7.00422 7.11467C6.95821 7.06499 6.92006 7.02379 6.89985 6.99676C6.83606 6.91141 6.88446 6.91191 7.01762 6.91327C7.03589 6.91346 7.05576 6.91366 7.07715 6.91366C7.25445 6.91366 7.59315 6.99676 7.69439 7.09381C7.79563 7.19086 7.90178 7.21156 8.05777 7.21156C8.21376 7.21156 8.11754 7.31661 7.97549 7.38755C8.12841 7.41678 8.19775 7.67165 8.22919 7.89801C8.2868 7.67165 8.38485 7.41678 8.53778 7.38755C8.39572 7.31661 8.2995 7.21156 8.45549 7.21156C8.61148 7.21156 8.71764 7.19086 8.81888 7.09381C8.92011 6.99676 9.25881 6.91366 9.43611 6.91366C9.4575 6.91366 9.47737 6.91346 9.49564 6.91327C9.62881 6.91191 9.6772 6.91141 9.61341 6.99676C9.5932 7.02379 9.55505 7.06499 9.50904 7.11467C9.38989 7.24333 9.21805 7.42887 9.16876 7.57267C9.13522 7.67053 9.12922 7.71297 9.12387 7.75086C9.11831 7.79015 9.11345 7.82453 9.0793 7.91072C9.06353 7.95051 9.04004 7.99071 9.01601 8.03182C8.93778 8.16566 8.85387 8.30923 9.0122 8.48014C9.09636 8.57099 9.17915 8.68051 9.25321 8.77849C9.36128 8.92146 9.45078 9.03986 9.4989 9.03986H9.61341C9.61341 9.03986 10.6361 7.88386 10.5027 7.57267C10.4511 7.45239 10.3679 7.33905 10.2991 7.24526C10.1898 7.09639 10.1167 6.99676 10.2634 6.99676C10.5027 6.99676 11.4564 7.6015 11.4564 8.96509C11.4564 10.3287 11.3683 11.1042 11.1638 11.6475C11.0242 12.0183 11.1521 12.3784 11.2473 12.6467C11.2917 12.7716 11.3289 12.8766 11.3289 12.9536C11.3289 13.196 10.9534 12.9836 10.9534 12.8318C10.9534 12.7596 10.902 12.8671 10.8481 12.9799C10.7886 13.1042 10.7261 13.235 10.7261 13.1382C10.7261 13.0349 10.6663 12.9258 10.6135 12.8298C10.572 12.7541 10.5349 12.6865 10.5349 12.6361C10.5349 12.5857 10.4822 12.5876 10.4233 12.5897C10.3484 12.5923 10.2634 12.5954 10.2634 12.4921C10.2634 12.4224 10.2364 12.4085 10.2027 12.3912C10.1472 12.3626 10.0737 12.3248 10.0737 12.0123C10.0737 11.7808 10.0273 11.8628 9.97413 11.9569C9.92519 12.0435 9.87047 12.1404 9.8408 12.0123C9.83791 11.9999 9.80719 11.9462 9.76921 11.8798C9.71394 11.7832 9.6433 11.6598 9.6207 11.5974C9.61814 11.5874 9.61571 11.5773 9.61341 11.5673C9.61341 11.5742 9.61603 11.5845 9.6207 11.5974C9.69036 11.8701 9.8575 12.1543 9.96363 12.2897C10.0737 12.4301 10.2634 12.7348 10.2634 12.7348C10.2634 12.7348 10.0865 12.8335 9.96363 12.7348C9.89502 12.6797 9.89039 12.7315 9.88534 12.7881C9.88135 12.8327 9.8771 12.8803 9.8408 12.8803C9.81801 12.8803 9.79654 12.8841 9.77743 12.8874C9.76329 12.8898 9.75043 12.8921 9.73927 12.8924C9.7171 12.8359 9.6937 12.7978 9.6937 12.8318C9.6937 12.882 9.71109 12.8932 9.73927 12.8924C9.78028 12.9968 9.81706 13.1639 9.6937 13.0523C9.6056 12.9726 9.54383 12.9402 9.50291 12.9188C9.45554 12.894 9.43611 12.8838 9.43611 12.8318C9.43611 12.7799 9.41687 12.7975 9.38672 12.825C9.36056 12.8489 9.32619 12.8803 9.28906 12.8803C9.24122 12.8803 9.23126 12.8137 9.21677 12.7168C9.20706 12.6519 9.19531 12.5733 9.16876 12.4921C9.16257 12.4732 9.15676 12.455 9.15125 12.4377C9.09784 12.2706 9.07293 12.1926 9.0122 12.4035C8.98382 12.502 8.93369 12.5718 8.89004 12.6326C8.83065 12.7153 8.78324 12.7813 8.81888 12.8803C8.83282 12.9191 8.85032 12.963 8.86906 13.0099C8.93335 13.171 9.0122 13.3685 9.0122 13.524C9.0122 13.6165 9.09637 13.7425 9.17548 13.861C9.26821 13.9998 9.35398 14.1282 9.28906 14.18C9.16876 14.2758 9.31434 14.5986 9.43611 14.7643C9.55788 14.9299 9.53774 15.1321 9.35325 15.1321C9.25229 15.1321 9.1975 15.1687 9.14789 15.2019C9.10686 15.2293 9.06936 15.2544 9.0122 15.2544C8.88594 15.2544 8.81888 15.1921 8.81888 15.1921C8.81888 15.1921 8.74094 15.3099 8.61148 15.3099C8.48202 15.3099 8.45549 15.1921 8.45549 15.1921L8.161 15.3099V14.7979L8.15362 15.3099L8.05777 15.1921C8.05777 15.1921 8.03124 15.3099 7.90178 15.3099C7.77233 15.3099 7.69439 15.1921 7.69439 15.1921C7.69439 15.1921 7.62732 15.2544 7.50106 15.2544C7.4439 15.2544 7.40641 15.2293 7.36537 15.2019C7.31576 15.1687 7.26098 15.132 7.16001 15.132C6.97552 15.132 6.95538 14.9299 7.07715 14.7642C7.19893 14.5986 7.3445 14.2758 7.2242 14.18C7.15928 14.1282 7.24505 13.9998 7.33778 13.861C7.41689 13.7425 7.50106 13.6165 7.50106 13.524C7.50106 13.3685 7.57991 13.171 7.6442 13.0099C7.66294 12.963 7.68044 12.9191 7.69439 12.8803C7.73002 12.7813 7.68261 12.7153 7.62322 12.6326C7.57957 12.5718 7.52944 12.502 7.50106 12.4035C7.44034 12.1926 7.41542 12.2706 7.36201 12.4377C7.3565 12.455 7.35069 12.4732 7.3445 12.4921C7.31795 12.5733 7.3062 12.6519 7.29649 12.7168C7.282 12.8137 7.27204 12.8803 7.2242 12.8803C7.18707 12.8803 7.1527 12.8489 7.12654 12.825C7.09639 12.7975 7.07715 12.7799 7.07715 12.8318C7.07715 12.8838 7.05772 12.894 7.01036 12.9188C6.96943 12.9402 6.90766 12.9726 6.81957 13.0523C6.6962 13.1639 6.73299 12.9968 6.77399 12.8924C6.80218 12.8932 6.81957 12.882 6.81957 12.8318C6.81957 12.7978 6.79616 12.8359 6.77399 12.8924C6.76283 12.8921 6.74997 12.8898 6.73583 12.8874C6.71672 12.8841 6.69526 12.8803 6.67246 12.8803C6.63616 12.8803 6.63191 12.8327 6.62792 12.7881C6.62287 12.7315 6.61824 12.6797 6.54963 12.7348C6.4268 12.8335 6.24984 12.7348 6.24984 12.7348C6.24984 12.7348 6.43959 12.4301 6.54963 12.2897C6.65576 12.1543 6.8229 11.8701 6.89256 11.5974C6.89723 11.5845 6.89985 11.5742 6.89985 11.5673C6.89756 11.5773 6.89512 11.5874 6.89256 11.5974C6.86997 11.6597 6.79932 11.7832 6.74405 11.8798C6.70607 11.9462 6.67535 11.9999 6.67246 12.0123C6.64279 12.1404 6.58807 12.0435 6.53913 11.9569C6.48595 11.8628 6.43959 11.7808 6.43959 12.0123C6.43959 12.3248 6.36606 12.3626 6.31054 12.3912C6.27688 12.4085 6.24984 12.4224 6.24984 12.4921C6.24984 12.5953 6.16486 12.5923 6.08999 12.5897C6.03104 12.5876 5.97837 12.5857 5.97837 12.6361C5.97837 12.6865 5.94126 12.7541 5.89974 12.8298C5.847 12.9258 5.78714 13.0349 5.78714 13.1382C5.78714 13.235 5.72463 13.1042 5.66517 12.9799C5.61124 12.8671 5.55982 12.7596 5.55982 12.8318C5.55982 12.9836 5.18432 13.196 5.18432 12.9536C5.18432 12.8766 5.2216 12.7716 5.26594 12.6467C5.3612 12.3784 5.48902 12.0183 5.34947 11.6475C5.14498 11.1042 5.05688 10.3287 5.05688 8.96508C5.05688 7.6015 6.0106 6.99676 6.24984 6.99676C6.39661 6.99676 6.32348 7.09639 6.21421 7.24526C6.14537 7.33905 6.06217 7.45239 6.0106 7.57267Z" fill="#F7FCFF"/>
<path fill-rule="evenodd" clip-rule="evenodd" d="M6.4712 13.7318C6.4712 13.6377 6.71184 13.4196 6.71184 13.4196V13.4381C6.74583 13.4656 6.96061 13.6427 6.96061 13.7294C6.96061 13.7832 6.93276 13.8611 6.90892 13.9279C6.89108 13.9779 6.87549 14.0215 6.87549 14.0441C6.87549 14.0592 6.88179 14.0483 6.89377 14.0276C6.92347 13.9764 6.9881 13.8649 7.07836 13.9394C7.19793 14.0382 7.1972 14.1838 7.19674 14.2761C7.19671 14.2816 7.19669 14.287 7.19669 14.2921C7.19669 14.3208 7.19663 14.3206 7.1928 14.3069C7.18455 14.2774 7.15878 14.1853 7.07836 14.1853C6.96061 14.1853 6.87549 14.2921 6.87549 14.2921V14.4741C6.87549 14.4741 6.89042 14.6245 6.96061 14.5493C7.03079 14.4741 7.04573 14.6421 6.96061 14.6421C6.91715 14.6421 6.87246 14.6882 6.8287 14.7334C6.78674 14.7767 6.74565 14.8191 6.70734 14.8191V14.8039C6.67108 14.8011 6.6412 14.7637 6.61071 14.7257C6.57762 14.6843 6.54381 14.6421 6.50035 14.6421C6.41524 14.6421 6.43017 14.4742 6.50035 14.5493C6.57054 14.6245 6.58547 14.4742 6.58547 14.4742V14.2921C6.58547 14.2921 6.50035 14.1853 6.3826 14.1853C6.30218 14.1853 6.27642 14.2774 6.26816 14.3069C6.26433 14.3206 6.26427 14.3208 6.26427 14.2921C6.26427 14.287 6.26425 14.2817 6.26422 14.2762C6.26376 14.1838 6.26303 14.0382 6.3826 13.9394C6.47286 13.8649 6.53749 13.9764 6.56719 14.0277C6.57918 14.0484 6.58547 14.0592 6.58547 14.0441C6.58547 14.0215 6.56454 13.9783 6.54059 13.9289C6.50859 13.8628 6.4712 13.7856 6.4712 13.7318Z" fill="#E8AA00"/>
<path fill-rule="evenodd" clip-rule="evenodd" d="M9.67237 13.7318C9.67237 13.6377 9.91302 13.4196 9.91302 13.4196V13.4381C9.94704 13.4656 10.1618 13.6427 10.1618 13.7294C10.1618 13.7832 10.1339 13.8611 10.1101 13.9279C10.0922 13.9779 10.0766 14.0215 10.0766 14.0441C10.0766 14.0592 10.0829 14.0483 10.0949 14.0276C10.1246 13.9764 10.1893 13.8649 10.2795 13.9394C10.3991 14.0382 10.3984 14.1838 10.3979 14.2761C10.3979 14.2816 10.3978 14.287 10.3978 14.2921C10.3978 14.3208 10.3978 14.3206 10.394 14.3069C10.3857 14.2774 10.3599 14.1853 10.2795 14.1853C10.1618 14.1853 10.0766 14.2921 10.0766 14.2921V14.4741C10.0766 14.4741 10.0916 14.6245 10.1618 14.5493C10.2319 14.4741 10.2469 14.6421 10.1618 14.6421C10.1183 14.6421 10.0736 14.6882 10.0299 14.7334C9.9879 14.7767 9.94681 14.8191 9.9085 14.8191V14.8039C9.87224 14.801 9.84236 14.7637 9.81189 14.7257C9.77879 14.6843 9.74498 14.6421 9.70153 14.6421C9.61641 14.6421 9.63134 14.4742 9.70153 14.5493C9.77171 14.6245 9.78665 14.4742 9.78665 14.4742V14.2921C9.78665 14.2921 9.70153 14.1853 9.58377 14.1853C9.50335 14.1853 9.47759 14.2774 9.46933 14.3069C9.4655 14.3206 9.46545 14.3208 9.46545 14.2921C9.46545 14.287 9.46542 14.2817 9.46539 14.2762C9.46493 14.1838 9.46421 14.0382 9.58377 13.9394C9.67404 13.8649 9.73866 13.9764 9.76836 14.0277C9.78035 14.0484 9.78665 14.0592 9.78665 14.0441C9.78665 14.0215 9.76571 13.9783 9.74176 13.9289C9.70976 13.8628 9.67237 13.7856 9.67237 13.7318Z" fill="#E8AA00"/>
<path fill-rule="evenodd" clip-rule="evenodd" d="M6.23148 13.1677C6.44599 13.1677 6.48936 12.7597 6.48936 12.7597C6.48936 12.7597 6.66932 12.5732 6.66932 12.7108C6.66932 12.7841 6.61815 12.8765 6.57924 12.9468C6.54516 13.0083 6.52048 13.0529 6.54773 13.0529H6.84477C7.08968 13.0529 6.80176 13.1677 6.66932 13.2189C6.60924 13.2421 6.56664 13.2542 6.52576 13.2658C6.47654 13.2799 6.42983 13.2932 6.35814 13.3242C6.22692 13.3811 6.17063 13.7554 6.23148 13.8756C6.29233 13.9958 6.17063 13.9451 6.12034 13.8756C6.09239 13.837 6.07199 13.8902 6.04355 13.9643C6.02079 14.0235 5.99288 14.0963 5.95183 14.1462C5.87254 14.2426 5.87339 14.1574 5.87522 13.974C5.87553 13.9437 5.87585 13.9108 5.87585 13.8756C5.87585 13.7131 5.90829 13.7116 5.95654 13.7095C5.98213 13.7083 6.01218 13.707 6.04419 13.6813C6.11333 13.6258 6.12162 13.5972 6.14252 13.5253C6.14954 13.5012 6.15798 13.4721 6.17063 13.4355C6.22093 13.2899 5.95183 13.5201 5.87585 13.6291C5.82959 13.6954 5.79737 13.7027 5.74917 13.7135C5.71821 13.7204 5.68066 13.7289 5.62857 13.7554C5.54391 13.7986 5.56688 13.7138 5.59486 13.6106C5.61089 13.5514 5.62857 13.4862 5.62857 13.4355C5.62857 13.3481 5.68115 13.3705 5.74854 13.3993C5.78841 13.4163 5.83345 13.4355 5.87585 13.4355C5.98422 13.4355 6.04018 13.3898 6.10926 13.3333C6.11291 13.3303 6.1166 13.3273 6.12034 13.3242C6.17576 13.2791 6.05503 13.2927 5.91125 13.3089C5.86207 13.3145 5.8102 13.3203 5.76176 13.3242C5.6512 13.3331 5.64382 13.3265 5.61621 13.3017C5.59636 13.2838 5.56605 13.2565 5.47941 13.2189C5.27226 13.1288 5.61256 13.1677 5.76176 13.2189C5.84473 13.2473 5.91434 13.2283 5.99668 13.2058C6.06241 13.1879 6.13626 13.1677 6.23148 13.1677ZM10.3913 13.1677C10.1768 13.1677 10.1334 12.7597 10.1334 12.7597C10.1334 12.7597 9.95347 12.5732 9.95347 12.7108C9.95347 12.7841 10.0046 12.8765 10.0436 12.9468C10.0776 13.0083 10.1023 13.0529 10.0751 13.0529H9.77802C9.53311 13.0529 9.82103 13.1677 9.95347 13.2189C10.0135 13.2421 10.0562 13.2542 10.097 13.2658C10.1463 13.2799 10.193 13.2932 10.2647 13.3242C10.3959 13.3811 10.4522 13.7554 10.3913 13.8756C10.3305 13.9958 10.4522 13.9451 10.5025 13.8756C10.5304 13.837 10.5508 13.8902 10.5792 13.9643C10.602 14.0235 10.6299 14.0963 10.671 14.1462C10.7502 14.2426 10.7494 14.1574 10.7476 13.974C10.7473 13.9437 10.7469 13.9108 10.7469 13.8756C10.7469 13.7131 10.7145 13.7116 10.6663 13.7095C10.6407 13.7083 10.6106 13.707 10.5786 13.6813C10.5095 13.6258 10.5012 13.5972 10.4803 13.5253C10.4732 13.5012 10.4648 13.4721 10.4522 13.4355C10.4019 13.2899 10.671 13.5201 10.7469 13.6291C10.7932 13.6954 10.8254 13.7027 10.8736 13.7135C10.9046 13.7204 10.9421 13.7289 10.9942 13.7554C11.0789 13.7986 11.0559 13.7138 11.0279 13.6106C11.0119 13.5514 10.9942 13.4862 10.9942 13.4355C10.9942 13.3481 10.9416 13.3705 10.8742 13.3993C10.8344 13.4163 10.7893 13.4355 10.7469 13.4355C10.6386 13.4355 10.5826 13.3898 10.5135 13.3333C10.5099 13.3303 10.5062 13.3273 10.5025 13.3242C10.447 13.2791 10.5678 13.2927 10.7115 13.3089C10.7607 13.3145 10.8126 13.3203 10.861 13.3242C10.9716 13.3331 10.979 13.3265 11.0066 13.3017C11.0264 13.2838 11.0567 13.2565 11.1434 13.2189C11.3505 13.1288 11.0102 13.1677 10.861 13.2189C10.7781 13.2473 10.7084 13.2283 10.6261 13.2058C10.5604 13.1879 10.4865 13.1677 10.3913 13.1677Z" fill="#E8AA00"/>
<path fill-rule="evenodd" clip-rule="evenodd" d="M7.04553 9.13965H9.63955V11.5053C9.63955 11.5053 9.36108 12.6837 8.34254 12.6837C7.324 12.6837 7.04553 11.5053 7.04553 11.5053V9.13965Z" fill="#C51918"/>
<path fill-rule="evenodd" clip-rule="evenodd" d="M8.69226 9.10522H8.01323V10.4633H7.04321V10.9483H8.01323V12.6944H8.69226V10.9483H9.66235V10.4633H8.69226V9.10522Z" fill="#F7FCFF"/>
<path fill-rule="evenodd" clip-rule="evenodd" d="M7.48328 9.78727C7.5484 9.78727 7.57946 9.73235 7.54502 9.68399C7.52692 9.65857 7.4894 9.65121 7.46124 9.66755C7.45871 9.66902 7.45634 9.67062 7.45414 9.67235C7.44377 9.66976 7.4311 9.66623 7.41648 9.66176C7.40337 9.65775 7.38913 9.65791 7.37614 9.66221C7.36039 9.66742 7.35145 9.65129 7.35904 9.55095C7.36629 9.52297 7.40465 9.50567 7.49402 9.50567C7.65732 9.50567 7.72441 9.52314 7.72441 9.53849V9.77846L7.64516 9.84997C7.60696 9.88444 7.63401 9.94337 7.68803 9.94337H7.72441V10.1271C7.67458 10.166 7.63004 10.1841 7.59102 10.1841C7.44495 10.1841 7.36287 10.1297 7.36061 10.0654C7.36123 10.0465 7.36208 10.0326 7.3627 10.0232L7.37529 10.0273C7.38866 10.0319 7.40341 10.0321 7.41693 10.0279L7.42249 10.026C7.42771 10.0243 7.43075 10.0233 7.43244 10.0243C7.43479 10.0258 7.43456 10.0314 7.43402 10.0446L7.4334 10.0625C7.43267 10.0928 7.45922 10.1178 7.4927 10.1184C7.52617 10.1191 7.5539 10.0951 7.55463 10.0649C7.55719 9.95895 7.49775 9.89801 7.39908 9.91874C7.34085 9.90129 7.30012 9.90331 7.26834 9.93922C7.245 9.9656 7.24188 9.98725 7.23941 10.0654C7.2439 10.1997 7.38546 10.2935 7.59102 10.2935C7.67027 10.2935 7.74877 10.2581 7.82688 10.1909C7.83888 10.1805 7.84566 10.1662 7.84566 10.1513V9.88866C7.84566 9.87096 7.83635 9.85522 7.8219 9.84522L7.8279 9.83981C7.83927 9.82955 7.84566 9.81563 7.84566 9.80112V9.53849C7.84566 9.42636 7.73 9.39624 7.49402 9.39624C7.35495 9.39624 7.26397 9.43729 7.23955 9.53441C7.22579 9.70032 7.27495 9.79931 7.39647 9.77101C7.43406 9.7818 7.4619 9.78727 7.48328 9.78727ZM9.18694 9.68405C9.1525 9.73241 9.18356 9.78733 9.24867 9.78733C9.27006 9.78733 9.29789 9.78186 9.33549 9.77107C9.45701 9.79937 9.50617 9.70038 9.49241 9.53447C9.46799 9.43735 9.37701 9.3963 9.23794 9.3963C9.00196 9.3963 8.8863 9.42642 8.8863 9.53855V9.80118C8.8863 9.81569 8.89268 9.82961 8.90405 9.83987L8.91005 9.84528C8.89561 9.85528 8.8863 9.87102 8.8863 9.88872V10.1513C8.8863 10.1663 8.89308 10.1806 8.90508 10.1909C8.98318 10.2582 9.06169 10.2936 9.14093 10.2936C9.3465 10.2936 9.48806 10.1997 9.49255 10.0655C9.49008 9.98731 9.48695 9.96565 9.46361 9.93928C9.43184 9.90337 9.39111 9.90135 9.33288 9.9188C9.23421 9.89807 9.17476 9.95901 9.17733 10.065C9.17806 10.0952 9.20578 10.1192 9.23926 10.1185C9.27274 10.1178 9.29928 10.0928 9.29855 10.0626L9.29794 10.0447C9.29739 10.0314 9.29716 10.0259 9.29951 10.0244C9.30121 10.0233 9.30424 10.0243 9.30947 10.0261L9.31503 10.0279C9.32855 10.0322 9.3433 10.032 9.35667 10.0273L9.36926 10.0232C9.36988 10.0327 9.37072 10.0466 9.37135 10.0654C9.36909 10.1297 9.28701 10.1842 9.14093 10.1842C9.10192 10.1842 9.05738 10.166 9.00755 10.1272V9.94343H9.04393C9.09794 9.94343 9.12499 9.8845 9.0868 9.85003L9.00755 9.77851V9.53855C9.00755 9.5232 9.07464 9.50573 9.23794 9.50573C9.32731 9.50573 9.36566 9.52303 9.37291 9.55101C9.38051 9.65135 9.37157 9.66748 9.35582 9.66227C9.34282 9.65797 9.32859 9.65781 9.31547 9.66182C9.30086 9.66629 9.28819 9.66982 9.27782 9.67241C9.27561 9.67068 9.27325 9.66908 9.27072 9.66761C9.24255 9.65127 9.20504 9.65863 9.18694 9.68405ZM9.3913 10.0183L9.38871 10.0182L9.39044 10.0184L9.3913 10.0183ZM9.24873 11.5333C9.18362 11.5333 9.15255 11.4784 9.18699 11.4301C9.2051 11.4046 9.24261 11.3973 9.27077 11.4136C9.2733 11.4151 9.27567 11.4167 9.27787 11.4184C9.28824 11.4158 9.30092 11.4123 9.31553 11.4078C9.32864 11.4038 9.34288 11.404 9.35588 11.4083C9.37162 11.4135 9.38056 11.3973 9.37297 11.297C9.36572 11.269 9.32736 11.2517 9.23799 11.2517C9.0747 11.2517 9.00761 11.2692 9.00761 11.2846V11.5245L9.08685 11.596C9.12505 11.6305 9.098 11.6894 9.04398 11.6894H9.00761V11.8732C9.05743 11.912 9.10197 11.9302 9.14099 11.9302C9.28707 11.9302 9.36914 11.8757 9.3714 11.8114C9.37078 11.7926 9.36993 11.7787 9.36931 11.7692L9.35672 11.7733C9.34336 11.778 9.3286 11.7782 9.31508 11.7739L9.30952 11.7721C9.3043 11.7703 9.30126 11.7693 9.29957 11.7704C9.29722 11.7719 9.29745 11.7774 9.29799 11.7906L9.29861 11.8086C9.29934 11.8388 9.27279 11.8638 9.23932 11.8645C9.20584 11.8652 9.17811 11.8412 9.17738 11.811C9.17482 11.705 9.23426 11.6441 9.33294 11.6648C9.39116 11.6473 9.4319 11.6494 9.46367 11.6853C9.48701 11.7117 9.49013 11.7333 9.4926 11.8114C9.48811 11.9457 9.34655 12.0396 9.14099 12.0396C9.06175 12.0396 8.98324 12.0042 8.90513 11.9369C8.89314 11.9266 8.88635 11.9123 8.88635 11.8973V11.6347C8.88635 11.617 8.89566 11.6013 8.91011 11.5913L8.90411 11.5859C8.89274 11.5756 8.88635 11.5617 8.88635 11.5472V11.2846C8.88635 11.1724 9.00201 11.1423 9.23799 11.1423C9.37707 11.1423 9.46805 11.1833 9.49246 11.2805C9.50622 11.4464 9.45706 11.5454 9.33554 11.5171C9.29795 11.5279 9.27011 11.5333 9.24873 11.5333ZM7.48328 11.5333C7.5484 11.5333 7.57946 11.4784 7.54502 11.4301C7.52692 11.4046 7.4894 11.3973 7.46124 11.4136C7.45871 11.4151 7.45634 11.4167 7.45414 11.4184C7.44377 11.4158 7.4311 11.4123 7.41648 11.4078C7.40337 11.4038 7.38913 11.404 7.37614 11.4083C7.36039 11.4135 7.35145 11.3973 7.35904 11.297C7.36629 11.269 7.40465 11.2517 7.49402 11.2517C7.65732 11.2517 7.72441 11.2692 7.72441 11.2846V11.5245L7.64516 11.596C7.60696 11.6305 7.63401 11.6894 7.68803 11.6894H7.72441V11.8732C7.67458 11.912 7.63004 11.9302 7.59102 11.9302C7.44495 11.9302 7.36287 11.8757 7.36061 11.8114C7.36123 11.7926 7.36208 11.7787 7.3627 11.7692L7.37529 11.7733C7.38866 11.778 7.40341 11.7782 7.41693 11.7739C7.41901 11.7733 7.42086 11.7727 7.42249 11.7721C7.42771 11.7703 7.43075 11.7693 7.43244 11.7704C7.43479 11.7719 7.43456 11.7774 7.43402 11.7906C7.43382 11.7955 7.43358 11.8015 7.4334 11.8086C7.43267 11.8388 7.45922 11.8638 7.4927 11.8645C7.52617 11.8652 7.5539 11.8412 7.55463 11.811C7.55719 11.705 7.49775 11.6441 7.39908 11.6648C7.34085 11.6473 7.30012 11.6494 7.26834 11.6853C7.245 11.7117 7.24188 11.7333 7.23941 11.8114C7.2439 11.9457 7.38546 12.0396 7.59102 12.0396C7.67027 12.0396 7.74877 12.0042 7.82688 11.9369C7.83888 11.9266 7.84566 11.9123 7.84566 11.8973V11.6347C7.84566 11.617 7.83635 11.6013 7.8219 11.5913L7.8279 11.5859C7.83927 11.5756 7.84566 11.5617 7.84566 11.5472V11.2846C7.84566 11.1724 7.73 11.1423 7.49402 11.1423C7.35495 11.1423 7.26397 11.1833 7.23955 11.2805C7.22579 11.4464 7.27495 11.5454 7.39647 11.5171C7.43406 11.5279 7.4619 11.5333 7.48328 11.5333Z" fill="#F7FCFF"/>
</g>
</g>
<defs>
<clipPath id="clip0_58_1395">
<rect width="21.4187" height="16.064" fill="white" transform="translate(0.699463 0.911255)"/>
</clipPath>
</defs>
</svg>
