<svg width="22" height="17" viewBox="0 0 22 17" fill="none" xmlns="http://www.w3.org/2000/svg">
<g clip-path="url(#clip0_58_1371)">
<rect width="21.4187" height="16.064" transform="translate(0 0.748535)" fill="white"/>
<path fill-rule="evenodd" clip-rule="evenodd" d="M0.290649 0.716553V16.7806H21.7094V0.716553H0.290649Z" fill="#FECA00"/>
<mask id="mask0_58_1371" style="mask-type:luminance" maskUnits="userSpaceOnUse" x="0" y="0" width="22" height="17">
<path fill-rule="evenodd" clip-rule="evenodd" d="M0.290649 0.716553V16.7806H21.7094V0.716553H0.290649Z" fill="white"/>
</mask>
<g mask="url(#mask0_58_1371)">
<path fill-rule="evenodd" clip-rule="evenodd" d="M0.290649 0.716553V10.0872H21.7094V0.716553H0.290649Z" fill="#3CA5D9"/>
<path fill-rule="evenodd" clip-rule="evenodd" d="M0.290649 12.7645V16.7805H21.7094V12.7645H0.290649Z" fill="#5A962A"/>
<path fill-rule="evenodd" clip-rule="evenodd" d="M16.4094 8.65869C16.3872 8.65923 16.3649 8.6595 16.3426 8.6595C16.3235 8.6595 16.3044 8.6593 16.2854 8.6589L15.8808 9.98007L15.7952 8.60393C15.7542 8.59548 15.7136 8.5861 15.6733 8.57581L14.9727 9.76718L15.2099 8.41064C15.1717 8.3929 15.134 8.3743 15.0969 8.35485L14.1387 9.35288L14.6851 8.08866C14.6518 8.06252 14.6192 8.03561 14.5872 8.00796L13.4238 8.7595L14.2488 7.65597C14.2221 7.62263 14.1963 7.58864 14.1713 7.55403L12.8665 8.01904L13.9243 7.13526C13.906 7.09631 13.8886 7.05684 13.8722 7.01688L12.4969 7.17141L13.7306 6.55354C13.7219 6.51122 13.7142 6.46853 13.7076 6.42549L12.3348 6.2623L13.6786 5.94271C13.68 5.89898 13.6824 5.85553 13.686 5.81236L12.3891 5.34073L13.7698 5.33629C13.7815 5.29394 13.7941 5.25202 13.8078 5.21055L12.6568 4.45638L14.0015 4.76708C14.0227 4.72871 14.0449 4.69092 14.0679 4.65373L13.1234 3.65693L14.3605 4.26652C14.3899 4.23423 14.4201 4.20266 14.4511 4.17185L13.7638 2.98546L14.8261 3.86136C14.8621 3.83674 14.8987 3.81297 14.9359 3.79008L14.5435 2.4782L15.3734 3.57342C15.414 3.55778 15.455 3.5431 15.4965 3.52939L15.4205 2.16247L15.9733 3.41902C16.016 3.41318 16.059 3.40834 16.1023 3.40452L16.3474 2.0553L16.5927 3.40541C16.6357 3.40937 16.6785 3.41434 16.7209 3.42029L17.2743 2.16247L17.1982 3.53256C17.239 3.54621 17.2793 3.56081 17.3192 3.57633L18.1513 2.4782L17.7574 3.79514C17.7937 3.8176 17.8293 3.84089 17.8643 3.865L18.931 2.98546L18.2402 4.17799C18.2701 4.20791 18.2992 4.23853 18.3276 4.26983L19.5714 3.65693L18.621 4.65994C18.6431 4.69576 18.6643 4.73215 18.6847 4.76907L20.0381 4.45638L18.879 5.21578C18.892 5.25554 18.9041 5.2957 18.9153 5.33626L20.3057 5.34073L18.9994 5.81579C19.0027 5.85706 19.0051 5.8986 19.0065 5.94038L20.36 6.2623L18.9773 6.42667C18.971 6.46781 18.9636 6.50864 18.9554 6.54913L20.1979 7.17141L18.8134 7.01584C18.7976 7.05416 18.781 7.09203 18.7635 7.12942L19.8283 8.01904L18.5158 7.55128C18.4917 7.58466 18.4669 7.61747 18.4414 7.64968L19.271 8.7595L18.102 8.00436C18.0711 8.03127 18.0395 8.05747 18.0072 8.08295L18.5561 9.35288L17.5947 8.35146C17.5584 8.3706 17.5215 8.38894 17.4842 8.40645L17.7221 9.76718L17.0202 8.57364C16.9804 8.58395 16.9402 8.59337 16.8997 8.60188L16.814 9.98007L16.4094 8.65869ZM16.3185 7.68762C17.2559 7.68762 18.0159 6.9387 18.0159 6.01485C18.0159 5.09101 17.2559 4.34208 16.3185 4.34208C15.381 4.34208 14.621 5.09101 14.621 6.01485C14.621 6.9387 15.381 7.68762 16.3185 7.68762ZM17.2948 6.06377C17.2948 6.5921 16.8665 7.0204 16.3381 7.0204C15.8098 7.0204 15.3815 6.5921 15.3815 6.06377C15.3815 5.53543 15.8098 5.10713 16.3381 5.10713C16.8665 5.10713 17.2948 5.53543 17.2948 6.06377Z" fill="#FFDC17"/>
</g>
</g>
<defs>
<clipPath id="clip0_58_1371">
<rect width="21.4187" height="16.064" fill="white" transform="translate(0 0.748535)"/>
</clipPath>
</defs>
</svg>
