<svg width="22" height="17" viewBox="0 0 22 17" fill="none" xmlns="http://www.w3.org/2000/svg">
<g clip-path="url(#clip0_69_11098)">
<rect width="21.4187" height="16.064" fill="white"/>
<rect x="0.290771" y="-0.0319824" width="21.4187" height="16.064" fill="#67BD23"/>
<path fill-rule="evenodd" clip-rule="evenodd" d="M9.95524 2.69428C9.86829 2.82667 9.79749 3.01659 9.79749 3.10521L9.79724 3.13142C9.79591 3.23232 9.79345 3.41885 9.91237 3.28982C10.0426 3.14847 10.1684 2.98292 10.1407 2.85484C10.1131 2.72676 10.0422 2.5619 9.95524 2.69428ZM8.74112 2.99795C8.74112 2.81487 8.96565 2.67558 9.02673 2.67558C9.0878 2.67558 9.02673 2.83805 8.91545 2.90727C8.83356 2.95822 8.89801 2.98329 8.9752 3.01332C9.00291 3.0241 9.03226 3.03552 9.05708 3.049C9.15104 3.10005 9.02673 3.23199 8.88392 3.27481C8.74112 3.31763 8.74112 3.18103 8.74112 2.99795ZM8.51843 3.22009C8.43815 3.41033 8.28555 3.78144 8.42642 4.07658C8.44293 4.11118 8.45875 4.1454 8.47418 4.17881L8.47424 4.17893L8.47428 4.17902C8.59046 4.43049 8.68525 4.63566 8.8967 4.60654C9.12167 4.57556 9.2255 4.17285 9.25993 4.03927L9.26579 4.0168C9.29309 3.9147 9.40506 3.74256 9.43459 3.85169C9.44945 3.90661 9.44187 4.01213 9.43444 4.11559C9.42711 4.2177 9.41992 4.3178 9.43459 4.36528C9.46411 4.46087 9.60229 4.88359 9.91197 4.78454C10.075 4.7324 10.18 4.61609 10.2628 4.52449C10.3372 4.44209 10.3935 4.37967 10.4578 4.40195C10.5099 4.42 10.5625 4.48654 10.6201 4.55939C10.7125 4.67642 10.8179 4.80973 10.9547 4.78454C11.1315 4.75199 11.2593 4.56173 11.3405 4.44072C11.3613 4.40978 11.379 4.38338 11.3938 4.36528C11.4483 4.29824 11.4744 4.33839 11.51 4.39325C11.5216 4.41113 11.5342 4.43058 11.5492 4.44838C11.61 4.5208 11.7297 4.56994 11.8113 4.44838C11.8929 4.32683 12.0137 3.95702 11.8571 4.0168L11.8468 4.02073C11.6908 4.08042 11.4711 4.16444 11.3938 4.00978C11.3147 3.85169 11.099 3.3623 11.2068 3.3623C11.3147 3.3623 11.4932 3.36199 11.4565 3.18726C11.4198 3.01254 11.7899 3.57911 11.8571 3.69787C11.87 3.72066 11.8964 3.76894 11.9311 3.83247L11.9312 3.83274C12.0774 4.10039 12.3711 4.63821 12.4304 4.68324C12.4935 4.73121 12.5468 5.67113 12.5604 6.09442C12.5263 6.08807 12.4656 6.08539 12.3692 6.08539C12.1186 6.08539 11.9181 6.11315 11.7558 6.13562C11.5774 6.16032 11.4453 6.17861 11.3437 6.14657C11.2866 6.12855 11.2188 6.11703 11.1595 6.10696C11.0175 6.08283 10.9243 6.06699 11.1431 5.98996C11.2054 5.96801 11.2771 5.94992 11.3515 5.93113C11.6471 5.85644 11.9865 5.77073 11.9597 5.38796C11.9262 4.9089 11.8627 4.69822 11.5029 4.76161C11.1431 4.825 11.03 5.1111 11.03 5.38796C11.03 5.61961 10.999 5.62261 10.9022 5.63199C10.8833 5.63382 10.8619 5.63589 10.8377 5.63995C10.8225 5.64251 10.804 5.64502 10.7827 5.6479C10.598 5.67295 10.2075 5.72592 9.95879 6.08539C9.72332 6.42575 9.75202 5.92497 9.76602 5.68055V5.68055V5.68054V5.68053C9.76851 5.63715 9.77053 5.60184 9.77053 5.58076C9.77053 5.44088 9.7221 5.3175 9.61332 5.06987L9.60514 5.05122C9.49824 4.80745 9.37465 4.52559 9.20025 4.79429C9.02138 5.06987 9.23263 5.45952 9.30864 5.52014C9.38466 5.58076 9.77719 6.43767 9.39152 6.86148C9.00585 7.2853 8.45908 7.70214 8.31229 7.56829C8.16549 7.43443 8.07772 7.35137 8.24426 7.24367C8.27152 7.22604 8.31594 7.20476 8.37065 7.17855C8.65018 7.04464 9.19808 6.78215 9.09544 6.22176C9.03167 5.8736 8.96772 5.67131 8.93168 5.5573C8.89836 5.45189 8.88889 5.42194 8.92548 5.42194C8.93507 5.42194 8.94518 5.42261 8.95536 5.42327C9.02602 5.42791 9.09952 5.43273 9.01835 5.21683C8.92548 4.96983 8.79292 4.68968 8.54746 4.964C8.30199 5.23832 8.40074 5.40927 8.54746 5.58076C8.69417 5.75225 8.94421 6.05757 8.65808 6.33007C8.57029 6.41367 8.49015 6.49756 8.42121 6.56971C8.26545 6.73274 8.16693 6.83586 8.16693 6.74035C8.16693 6.60257 8.12565 6.4184 8.05129 6.57937C8.0369 6.61052 8.02308 6.64643 8.00828 6.68486L8.00826 6.68491L8.00824 6.68494L8.00824 6.68496C7.94657 6.84512 7.86801 7.04913 7.66164 7.13597C7.4057 7.24367 6.83313 7.6686 6.83313 7.6686C6.83313 7.6686 6.45622 8.00411 6.62923 7.97556C6.80223 7.94702 7.24936 7.81944 7.37104 7.71512C7.49272 7.61079 7.78706 7.53777 7.78706 7.53777C7.78706 7.53777 8.13032 8.18425 8.48881 8.07991C8.8473 7.97556 9.64424 7.10264 9.64424 7.10264C9.64424 7.10264 10.1367 7.77842 10.6897 7.82315C11.2428 7.86788 11.3798 7.68625 11.226 7.56829C11.1848 7.53668 11.1255 7.50262 11.0627 7.46657C10.8911 7.36808 10.6936 7.25473 10.7694 7.13597C10.8728 6.97374 11.0872 6.92055 11.4532 6.86148C11.5073 6.85276 11.5611 6.84544 11.614 6.83824C11.9192 6.79671 12.1908 6.75975 12.2667 6.48617C12.3067 6.34183 12.4379 6.24626 12.5223 6.18478C12.5374 6.17381 12.5509 6.16393 12.5622 6.15505C12.5633 6.19585 12.5638 6.22937 12.5638 6.25367C12.5638 6.50762 12.5541 7.35556 12.5203 7.45016C12.4865 7.54477 12.6935 7.484 12.7537 7.38232L12.7575 7.37579C12.8175 7.27449 12.9019 7.13179 12.9019 6.91699C12.9019 6.88299 12.9025 6.83381 12.9032 6.77434V6.77433V6.77432V6.77432V6.7743V6.77429V6.77428C12.9069 6.44993 12.9141 5.8196 12.8528 5.67615C12.7803 5.50638 12.8037 5.34057 12.8528 5.38325C12.8754 5.4029 13.0262 5.69195 13.1904 6.00681C13.3828 6.37574 13.5937 6.7801 13.6387 6.82807C13.6902 6.88312 13.7137 6.7481 13.7373 6.61263C13.7519 6.52928 13.7664 6.44575 13.7876 6.40623C13.843 6.30248 13.8878 6.22246 13.8878 6.40623C13.8878 6.42317 13.8882 6.44267 13.8887 6.46432C13.8936 6.6775 13.9032 7.09915 13.5398 7.34078C13.4117 7.42599 13.3027 7.50156 13.21 7.56587L13.2099 7.5659C13.0129 7.70246 12.8892 7.78827 12.8108 7.8079C12.6955 7.83678 12.7133 8.05611 12.8528 8.05611C12.8631 8.05611 12.8759 8.05652 12.8911 8.05699C13.0809 8.06295 13.6288 8.08015 13.9608 7.45016C14.2782 6.8479 14.0808 4.94742 14.0315 4.47223V4.47222L14.0314 4.47209L14.0314 4.47206C14.0251 4.41073 14.0212 4.37318 14.0212 4.36528C14.0212 4.34453 14.0069 4.29672 13.9887 4.23578C13.9463 4.09399 13.8826 3.88116 13.9285 3.77312C13.9653 3.6866 13.9872 3.69825 14.0118 3.71132C14.0312 3.72158 14.0522 3.73272 14.0833 3.69787C14.154 3.61866 14.238 3.50518 14.0833 3.30726C14.0284 3.2371 13.9873 3.14338 13.9508 3.06022L13.9508 3.06021C13.8843 2.90879 13.8332 2.79235 13.7425 2.9167C13.6021 3.10935 13.5361 3.6704 13.6041 3.94277C13.672 4.21514 13.9711 6.38577 13.7876 6.20447C13.6792 6.09745 13.5796 5.89372 13.4708 5.6713L13.4708 5.6713C13.3953 5.51693 13.3154 5.35358 13.2251 5.20731C13.0048 4.85028 12.5735 4.12813 12.6922 3.913C12.7268 3.85021 12.7562 3.80799 12.779 3.77519L12.779 3.77518C12.8344 3.69559 12.8513 3.67139 12.8108 3.54326C12.7794 3.44377 12.7219 3.37498 12.6615 3.30278L12.6615 3.30277C12.6121 3.24364 12.5608 3.18223 12.5203 3.0998C12.4304 2.9167 12.2401 2.79993 12.2401 2.97291C12.2401 3.14589 12.1439 3.32534 12.0839 3.14912C12.0239 2.97291 11.7047 2.59584 11.5492 2.72585C11.4515 2.80759 11.4731 2.85547 11.4922 2.89782C11.5035 2.92283 11.5139 2.94592 11.4984 2.97291C11.4908 2.98599 11.4833 3.00118 11.4757 3.01653C11.4411 3.08645 11.4049 3.15952 11.3588 3.05011C11.3496 3.0283 11.3406 3.00073 11.3309 2.97092L11.3309 2.9709L11.3309 2.97089C11.2812 2.81833 11.2124 2.60712 10.9969 2.80889C10.7394 3.05011 10.7113 3.29788 10.8541 3.43984C10.9969 3.5818 11.2117 3.92115 11.1043 4.07658C10.9969 4.23201 10.7958 4.34765 10.6988 4.18222C10.6017 4.0168 10.545 3.83248 10.5879 3.59739C10.6309 3.3623 10.6964 2.64282 10.4146 2.72585C10.1328 2.80889 10.1624 3.22481 10.2296 3.4111C10.2967 3.59739 10.3339 3.90484 10.2817 4.00978L10.276 4.02131C10.219 4.13657 10.0701 4.4377 9.91197 4.33518C9.74818 4.22903 9.6264 3.92744 9.7023 3.64487C9.77819 3.3623 9.728 2.91296 9.49689 3.05011C9.26579 3.18726 9.00617 3.6268 9.00617 3.85169C9.00617 4.07658 8.91486 4.34765 8.82032 4.18222L8.80477 4.15515C8.71056 3.99146 8.58118 3.76666 8.6515 3.54326C8.72578 3.30726 8.59872 3.02986 8.51843 3.22009ZM4.07965 2.80552C4.06665 2.82295 4.07653 2.83426 4.09835 2.85922C4.1246 2.88925 4.16812 2.93905 4.20989 3.04305C4.24357 3.12689 4.25342 3.24936 4.26114 3.34523C4.27096 3.46714 4.27731 3.54605 4.32477 3.44789C4.40957 3.27253 4.45356 2.89145 4.32477 2.80552C4.19599 2.71959 4.10829 2.76712 4.07965 2.80552ZM5.75106 3.17031C5.49709 3.17031 5.5317 2.79832 5.5317 2.79832C5.5317 2.79832 5.5317 2.76286 5.64383 2.76286C5.72031 2.76286 5.72813 2.80351 5.73507 2.83959C5.7383 2.8564 5.74134 2.87223 5.75106 2.88248C5.76468 2.89684 5.76616 2.88171 5.76825 2.86052C5.77084 2.83413 5.77436 2.79832 5.80338 2.79832C5.85569 2.79832 5.86634 2.85246 5.86634 2.93957C5.86634 3.02668 5.93823 2.9571 5.93823 2.88248C5.93823 2.80786 6.00504 2.79832 6.06421 2.79832C6.12339 2.79832 6.00504 3.17031 5.75106 3.17031ZM4.36487 7.25287C4.33333 6.89704 4.41573 6.55494 4.56888 6.55494C4.72202 6.55494 4.72202 6.89539 4.72202 6.89539C4.72202 6.89539 4.80786 7.59463 5.51408 7.62575C6.2203 7.65688 6.69169 6.43067 6.69169 6.43067C6.73226 6.22421 6.72052 5.96667 6.72052 5.96667C6.67444 5.86908 6.64829 5.96662 6.59555 6.16338C6.55053 6.33133 6.48612 6.57158 6.37341 6.82445C6.13789 7.35279 5.64656 7.34147 5.33736 7.33435L5.30179 7.33356C4.99601 7.32738 4.74905 6.81826 4.72202 6.55494C4.695 6.29163 4.78369 6.08531 4.78369 6.08531C4.78369 6.08531 5.02719 5.8307 5.01859 6.27535C5.00999 6.72001 5.23015 6.79314 5.6251 6.82445C6.02004 6.85576 6.31166 6.25001 6.37341 6.02018C6.43515 5.79035 6.05978 6.14756 6.05978 6.14756C5.9578 6.24389 5.73561 6.15397 5.6251 5.91507C5.51459 5.67616 5.73561 5.39395 5.91737 5.19937C6.09913 5.00479 6.30516 5.16393 6.30516 5.16393C6.57178 5.21002 6.67998 5.39211 6.67998 5.39211C6.81264 5.49145 6.66882 4.94153 6.66882 4.94153C6.57709 4.70983 6.46517 3.96945 6.46517 3.96945C6.44219 3.88852 6.42461 3.79115 6.41128 3.69498C6.38211 3.74645 6.37349 3.86093 6.37349 3.86093C6.37349 3.86093 6.54918 4.62508 6.29794 4.86292C6.17556 4.97877 6.11279 5.03819 6.04744 5.04118C5.97863 5.04433 5.90696 4.98491 5.75982 4.86292C5.47293 4.62508 5.45804 4.86292 5.45804 5.148V6.29793C5.45804 6.47562 5.34617 6.4735 5.24611 6.47161C5.19447 6.47063 5.14598 6.46972 5.11765 6.49361C5.13548 6.30653 5.15492 5.97054 5.15492 5.97054C5.16453 5.81238 4.95364 5.17904 4.95364 5.17904C4.76859 5.02158 4.5504 4.62508 4.5504 4.62508C4.50016 4.33079 4.39303 4.48636 4.39303 4.48636C4.39303 4.69287 4.32744 5.13254 3.99165 5.0031C3.65586 4.87366 3.84443 3.67043 3.84443 3.67043C3.84443 3.67043 3.97936 3.68417 3.99165 3.99015C4.00393 4.29614 4.16679 4.52391 4.16679 4.52391C4.25176 4.74624 4.28171 4.0347 4.28171 4.0347C4.28255 3.74345 4.64068 3.4837 4.64068 3.4837C4.83963 3.37675 4.83464 3.8312 4.83464 3.8312C4.9297 4.1322 4.82724 4.35839 4.82724 4.35839C4.81427 4.65485 5.03009 4.50452 5.03009 4.50452C5.18197 4.49687 4.91683 3.64018 4.91683 3.64018C4.78829 3.33644 4.85932 3.0681 4.85932 3.0681C4.8724 2.90607 5.07334 2.86359 5.07334 2.86359C5.21127 2.87723 5.21254 3.4885 5.21254 3.4885C5.21254 3.87222 5.3181 4.21575 5.41117 4.28699C5.50423 4.35824 5.39556 4.07126 5.3181 3.99075C5.26852 3.93922 5.28241 3.82242 5.29883 3.68434V3.68434L5.29883 3.68433C5.30807 3.60669 5.3181 3.52232 5.3181 3.43904C5.3181 3.20919 5.45618 3.3175 5.60806 3.43663L5.61113 3.43904C5.73129 3.53328 5.72261 3.68781 5.71331 3.85327C5.71076 3.89861 5.70817 3.94478 5.70817 3.99075C5.70817 4.20446 5.81503 4.34935 5.99195 4.48636C6.14288 4.60325 6.13594 4.42098 6.13065 4.28195C6.12974 4.25802 6.12887 4.23537 6.12887 4.21575C6.12887 4.11229 6.04678 3.95633 5.96595 3.80275L5.96595 3.80274C5.94239 3.75798 5.91894 3.71342 5.89766 3.67043C5.82139 3.51634 5.85874 3.46014 5.93359 3.34749L5.9336 3.34748L5.9336 3.34748L5.9336 3.34747C5.95129 3.32085 5.97108 3.29108 5.99195 3.25612C6.10116 3.0732 6.29794 3.26921 6.37349 3.43904L6.38609 3.46697C6.37601 3.34984 6.37265 3.26538 6.37265 3.26538C6.32658 3.12855 6.72052 2.82511 6.72052 2.82511C6.9659 2.76957 7.0108 3.56987 7.0108 3.56987C7.0983 3.85505 6.80592 3.7427 6.80592 3.7427C6.66282 3.73014 6.96008 4.90418 6.96008 4.90418C6.98168 5.30613 7.1771 5.09306 7.1771 5.09306C7.32731 5.0337 7.33797 5.41971 7.33797 5.41971C7.43888 5.57349 7.63042 5.05091 7.63042 5.05091C7.76474 4.85948 7.97558 5.29582 7.97558 5.29582C8.07584 5.43126 8.28364 5.04491 8.28364 5.04491C8.40128 4.96959 8.37077 5.08734 8.33204 5.23679L8.33203 5.23679C8.30926 5.32468 8.28364 5.42353 8.28364 5.50052C8.28364 5.70589 8.25041 5.72111 8.03156 5.82139L8.02327 5.82518C7.79697 5.92891 7.7267 5.75596 7.7267 5.75596C7.67233 5.69086 7.29364 5.91507 7.29364 5.91507C7.15054 5.96828 7.06239 5.85065 7.06239 5.85065C7.00085 5.77071 7.00218 6.10437 7.00386 6.52913V6.52913V6.52916V6.5292V6.52924V6.52928V6.52932V6.52937V6.52941V6.52946V6.52951V6.52957V6.52962V6.52968V6.52975V6.52981V6.52988V6.52996V6.53003V6.53011V6.5302V6.53029C7.00415 6.60215 7.00444 6.67661 7.00444 6.75211C7.00444 7.27443 6.21159 7.9293 5.47716 8.05642C4.74272 8.18355 4.39641 7.60869 4.36487 7.25287ZM5.09237 6.57496C5.09755 6.66022 5.10733 6.60182 5.11765 6.49361C5.09973 6.50872 5.08987 6.53375 5.09237 6.57496ZM4.30161 5.58834C4.62376 5.30549 4.84988 5.35967 4.84988 5.35967C4.84988 5.35967 4.92047 5.35967 5.0122 5.4575C5.10393 5.55534 4.78619 5.75376 4.57683 5.81539C4.43507 5.85712 4.26252 5.94379 4.09643 6.02721L4.09643 6.02722C4.01723 6.067 3.9395 6.10604 3.86729 6.13912C3.64362 6.24156 3.97946 5.87119 4.30161 5.58834ZM3.9067 6.77313C3.9067 6.77313 3.593 7.28589 3.64456 7.6173C3.69611 7.94871 3.91349 8.01756 4.05767 7.98314C4.20186 7.94871 4.26833 7.6173 4.26833 7.6173C4.26833 7.6173 4.16877 7.38961 4.05767 7.51283C4.05767 7.51283 3.87581 7.58959 3.90995 7.37761C3.94409 7.16563 3.9067 6.77313 3.9067 6.77313ZM6.04382 5.52458C6.04382 5.52458 5.83282 5.59091 5.93832 5.68911C6.04382 5.7873 6.20556 5.79933 6.20556 5.68911C6.20556 5.57889 6.04382 5.52458 6.04382 5.52458ZM10.2727 5.02324C10.2727 5.02324 10.2511 5.39621 10.505 5.38735C10.7588 5.37848 10.8641 5.00259 10.8049 5.00466C10.7458 5.00672 10.6794 5.01859 10.682 5.09316C10.6846 5.16774 10.6152 5.23979 10.6121 5.15273C10.6091 5.06567 10.5965 5.01193 10.5443 5.01376C10.5153 5.01477 10.513 5.05068 10.5113 5.07715C10.51 5.0984 10.509 5.11357 10.4949 5.09969C10.4848 5.08979 10.4813 5.07408 10.4774 5.05738C10.4692 5.02157 10.46 4.98122 10.3836 4.98389C10.2715 4.9878 10.2727 5.02324 10.2727 5.02324ZM13.2382 4.48932C12.9844 4.49818 13.006 4.12521 13.006 4.12521C13.006 4.12521 13.0047 4.08977 13.1168 4.08586C13.1932 4.08319 13.2025 4.12354 13.2107 4.15935C13.2145 4.17605 13.2181 4.19176 13.2281 4.20166C13.2422 4.21554 13.2432 4.20037 13.2445 4.17912C13.2462 4.15265 13.2485 4.11674 13.2775 4.11573C13.3298 4.1139 13.3423 4.16764 13.3453 4.2547C13.3484 4.34176 13.4178 4.26971 13.4152 4.19513C13.4126 4.12056 13.479 4.10869 13.5382 4.10663C13.5973 4.10456 13.492 4.48045 13.2382 4.48932ZM7.40781 6.38812C7.29215 6.32654 7.30433 6.28122 7.40781 6.1868C7.51129 6.09239 7.63701 6.23034 7.7629 6.38812C7.8688 6.52086 7.8028 6.62744 7.74203 6.72559C7.73056 6.74411 7.71927 6.76233 7.70937 6.78037C7.64696 6.89401 7.47739 6.87365 7.54081 6.78037C7.60423 6.68709 7.52346 6.44971 7.40781 6.38812ZM15.9072 5.84692C15.8037 5.94134 15.7915 5.98666 15.9072 6.04825C16.0228 6.10983 15.9706 6.3689 15.9072 6.46218C15.8438 6.55546 16.0209 6.65803 16.0833 6.54439L16.0943 6.52458C16.1549 6.41532 16.226 6.28704 16.1769 6.09477C16.1247 5.89076 16.0107 5.75251 15.9072 5.84692ZM17.3782 3.67305C17.2626 3.61147 17.2747 3.56615 17.3782 3.47173C17.4817 3.37732 17.5958 3.51557 17.6479 3.71958C17.6971 3.91185 17.6259 4.04013 17.5653 4.14939L17.5544 4.1692C17.492 4.28284 17.3148 4.18027 17.3782 4.08699C17.4416 3.9937 17.4939 3.73464 17.3782 3.67305ZM12.9859 2.92355C12.8824 3.01796 12.8702 3.06329 12.9859 3.12487C13.1015 3.18646 13.2358 3.57682 13.1724 3.6701C13.109 3.76338 13.2786 3.78374 13.341 3.6701C13.4034 3.55645 13.4668 3.28266 13.341 3.12487C13.2151 2.96709 13.0893 2.82913 12.9859 2.92355ZM11.4813 5.21183C11.3385 5.2766 11.2564 5.31422 11.3313 5.36604C11.4063 5.41787 11.584 5.4302 11.584 5.36604C11.584 5.35548 11.5851 5.34246 11.5863 5.32836L11.5863 5.32835C11.5922 5.25684 11.6005 5.15772 11.4813 5.21183ZM10.1003 6.49207C10.2523 6.49207 10.3724 6.46495 10.3724 6.46495C10.3724 6.46495 10.5797 6.49207 10.744 6.49207C10.9083 6.49207 10.8786 6.63649 10.684 6.72876C10.5054 6.81344 10.4939 6.86843 10.4707 6.98027L10.464 7.01177C10.4348 7.1455 10.4125 7.23863 10.2664 7.19275C10.1277 7.14918 9.99339 6.81335 9.92239 6.63586L9.9116 6.60892C9.85824 6.47625 9.9122 6.48031 10.0122 6.48784C10.0387 6.48983 10.0685 6.49207 10.1003 6.49207ZM8.29057 3.21264C8.34754 3.21264 8.41699 2.86023 8.29057 2.8104C8.16416 2.76057 7.79578 2.8222 7.84053 2.97051C7.85516 3.01899 7.89031 3.06824 7.92608 3.11836C7.99975 3.22157 8.07606 3.32849 7.98131 3.44013C7.84053 3.60597 7.40908 3.97035 7.34071 4.01224L7.31207 4.0294C7.22466 4.08131 7.05567 4.18168 7.17456 4.18168C7.21719 4.18168 7.26908 4.18519 7.32335 4.18887L7.32335 4.18887C7.43968 4.19676 7.56691 4.20538 7.63715 4.18168C7.68992 4.16387 7.77207 4.06766 7.8622 3.9621C7.94804 3.86157 8.04111 3.75257 8.12291 3.69478C8.29057 3.57634 8.32596 3.34101 8.29057 3.30789C8.28092 3.29886 8.2567 3.28859 8.22758 3.27625C8.14993 3.24333 8.03743 3.19564 8.07342 3.11719C8.12291 3.00932 8.16293 3.07933 8.16293 3.11719C8.16293 3.15506 8.2336 3.21264 8.29057 3.21264ZM8.1951 4.3877L8.06275 4.43556C8.06275 4.43556 7.98649 4.43556 7.95979 4.34348C7.94824 4.30363 7.96596 4.25449 7.98145 4.21156C8.00175 4.15529 8.0182 4.10969 7.95979 4.10969C7.85684 4.10969 7.77953 4.28325 7.7446 4.3877C7.70968 4.49215 7.87103 4.61935 7.95979 4.67495C8.04855 4.73056 8.15913 4.61935 8.25551 4.51937C8.35189 4.4194 8.1951 4.3877 8.1951 4.3877ZM14.332 7.53029C14.2022 7.3558 14.2584 6.96462 14.3778 6.71976C14.4703 6.52994 14.467 6.63442 14.4608 6.82699C14.459 6.88283 14.4569 6.94607 14.4569 7.01169C14.4569 7.24399 14.5257 7.32366 14.6218 7.43508C14.6465 7.46368 14.673 7.49438 14.7006 7.53029C14.8357 7.70606 14.9495 7.53029 14.9495 7.42381C14.9495 7.31733 15.1896 6.8244 15.3633 6.63676C15.537 6.44911 15.6811 6.56196 15.6811 6.63676C15.6811 6.71156 15.8497 6.95545 16.0449 7.01169C16.2402 7.06793 16.3103 6.56196 16.3103 6.56196V5.03469C16.3103 4.59213 16.2001 4.50696 16.1065 4.43462L16.1065 4.43462C16.0845 4.41763 16.0634 4.40135 16.0449 4.38131C16.0131 4.34684 15.9548 4.29182 15.887 4.22776L15.887 4.22774C15.7475 4.09601 15.5676 3.92607 15.4937 3.81801C15.4011 3.68268 15.4044 3.42858 15.4078 3.17291V3.1729V3.17284V3.17278C15.4084 3.12507 15.409 3.0773 15.409 3.03025C15.409 2.73098 15.8224 3.16352 15.9202 3.32951C15.9833 3.43671 15.9649 3.50792 15.9439 3.58905C15.9324 3.63355 15.9202 3.68104 15.9202 3.73908C15.9202 3.90292 16.0449 3.86419 16.0449 3.73908C16.0449 3.7164 16.0425 3.68094 16.0395 3.63765C16.0259 3.44215 16.0013 3.0871 16.1422 3.03025C16.2757 2.97642 16.3032 3.04777 16.3804 3.24772C16.4027 3.30572 16.4293 3.37454 16.4638 3.45426C16.561 3.6788 16.5351 3.78334 16.503 3.91278C16.4844 3.98774 16.4638 4.07105 16.4638 4.19086C16.4638 4.43408 16.6421 4.64785 16.7657 4.79613C16.8082 4.84701 16.8442 4.89018 16.8643 4.92418C16.9433 5.05727 16.7854 4.06107 16.6492 3.86419C16.513 3.6673 16.5876 3.208 16.7854 2.96098C16.9351 2.77413 17.0317 3.01131 17.1267 3.24452C17.1573 3.31961 17.1877 3.39429 17.2196 3.45426C17.3284 3.65836 17.2169 3.80572 17.134 3.91534L17.1339 3.91537L17.1339 3.91542C17.1168 3.93803 17.1009 3.95904 17.0884 3.97861C17.0547 4.03136 17.08 4.09827 17.117 4.19633C17.1603 4.31099 17.2196 4.46825 17.2196 4.69525C17.2196 5.11635 17.388 5.53879 17.6362 5.87826C17.8716 6.20021 17.9238 6.57522 17.976 6.9504L17.9846 7.01169C18.0402 7.40715 18.0443 6.39028 17.9846 5.87826C17.9249 5.36625 17.7298 3.56542 17.8088 3.09969C17.8605 2.79512 17.9171 2.93148 18.001 3.13365C18.0453 3.24063 18.0973 3.36602 18.1603 3.45426L18.1986 3.50765C18.3447 3.71093 18.3557 3.72615 18.2674 3.86419C18.2172 3.94264 18.1723 3.93115 18.1411 3.92314C18.1129 3.91591 18.0958 3.91153 18.0958 3.97861C18.0958 4.02019 18.1189 4.2127 18.1515 4.48454L18.1515 4.48456L18.1515 4.48461C18.2297 5.13761 18.3629 6.24828 18.3629 6.8244C18.3629 7.6404 17.929 7.95862 17.5534 8.09826C17.1779 8.23789 16.9741 8.09826 16.9741 7.95862C16.9741 7.88488 16.9215 7.92796 16.8518 7.98505C16.7895 8.03606 16.7135 8.09826 16.6492 8.09826C16.513 8.09826 16.5592 7.93791 16.6492 7.77878C16.7039 7.68201 16.6921 7.67392 16.6744 7.66182C16.663 7.65403 16.6492 7.64457 16.6492 7.60864C16.6492 7.51698 16.6492 7.42381 16.7854 7.42381C16.9216 7.42381 17.0419 7.42381 16.9108 7.60864C16.8308 7.72148 16.8364 7.72215 16.8901 7.72863C16.9243 7.73276 16.9782 7.73926 17.0419 7.77878C17.1316 7.83438 17.1392 7.83557 17.1481 7.83696C17.1554 7.83811 17.1637 7.83941 17.2196 7.87145C17.3435 7.94236 17.6415 7.69236 17.929 7.42381C18.1334 7.23281 18.0303 7.18875 17.9224 7.14261C17.8786 7.12388 17.834 7.1048 17.8088 7.07541C17.771 7.03118 17.7017 6.9162 17.6289 6.79532C17.5342 6.63808 17.4334 6.47086 17.388 6.43642C17.3511 6.40837 17.3652 6.50314 17.3833 6.62508C17.4045 6.76796 17.4313 6.94814 17.388 7.01169C17.3077 7.12946 17.1253 7.27996 17.0419 7.27996C16.9586 7.27996 17.0419 5.77182 17.0419 5.77182C17.0419 5.77182 16.5749 5.12333 16.6492 5.36668C16.7236 5.61003 16.5749 7.17718 16.3633 7.42381C16.1518 7.67044 15.7118 7.35451 15.6036 7.17718C15.4954 6.99986 15.365 7.17218 15.3159 7.35451C15.2668 7.53683 15.1592 7.93506 14.8972 8.09826C14.701 8.22047 14.5545 7.93897 14.4388 7.7166L14.4388 7.71659C14.4 7.64202 14.3646 7.5741 14.332 7.53029ZM15.7737 5.34639C15.7737 5.34639 15.3356 5.6407 15.2624 5.73355C15.1892 5.8264 15.1631 5.89462 15.2624 5.94604C15.3617 5.99747 15.7609 5.8068 15.9083 5.64622C16.0557 5.48563 16.1668 5.33125 16.1112 5.23308C16.0557 5.1349 15.7737 5.34639 15.7737 5.34639ZM15.0528 4.67768C14.8756 4.46929 15.1458 4.38125 15.1458 4.38125C15.1458 4.38125 15.2897 4.38125 15.4441 4.50841C15.5291 4.57841 15.5206 4.51294 15.5075 4.41307C15.4968 4.33151 15.4831 4.227 15.5149 4.15459C15.5857 3.99352 15.8268 4.18174 15.889 4.38125C15.9325 4.52072 15.8848 4.52609 15.8118 4.53431C15.7804 4.53784 15.7442 4.54191 15.7087 4.55743C15.6304 4.5916 15.6559 4.74566 15.682 4.90345C15.6953 4.98377 15.7087 5.06505 15.7087 5.13198C15.7087 5.33041 15.2301 4.88608 15.0528 4.67768Z" fill="white"/>
<path fill-rule="evenodd" clip-rule="evenodd" d="M9.61688 10.5808C9.07257 10.6467 6.32202 10.6354 5.50034 10.4371C5.31625 10.3983 5.42149 11.2378 5.54061 11.4308C5.65973 11.6237 6.59483 11.817 6.92087 11.8615C7.20063 11.8997 8.2785 11.8396 9.39889 11.7771C9.58426 11.7668 9.77078 11.7564 9.95505 11.7463C10.9359 11.6929 12.3689 11.786 13.1182 11.8347C13.3605 11.8504 13.5313 11.8615 13.5923 11.8615C13.822 11.8615 13.8047 11.9391 13.77 12.0948C13.767 12.1082 13.7639 12.1223 13.7608 12.1369C13.7217 12.3207 13.9275 12.7156 14.0183 12.7527C14.109 12.7899 14.7842 12.7527 15.152 12.6108C15.3614 12.53 15.3862 12.5412 15.4407 12.5658C15.482 12.5844 15.5403 12.6108 15.7085 12.6108C15.9611 12.6108 15.9743 12.2489 15.9835 11.9934C15.9886 11.854 15.9925 11.7463 16.0335 11.7463C16.0796 11.7463 16.1413 11.883 16.1992 12.0109C16.2874 12.206 16.3664 12.3807 16.3664 12.0197C16.3664 11.4218 15.6634 10.6389 15.4335 10.7016C15.2724 10.7455 15.007 10.697 14.8268 10.6642C14.75 10.6501 14.6887 10.6389 14.6576 10.6389C14.6124 10.6389 14.626 10.628 14.6558 10.6039C14.6948 10.5725 14.7617 10.5185 14.7617 10.4371C14.7617 10.2935 14.6251 10.2732 14.5113 10.2732C14.3975 10.2732 14.3368 10.3662 14.3368 10.4371C14.3368 10.5081 14.4225 10.5808 14.4225 10.5808C14.4047 10.5808 14.3149 10.5796 14.1716 10.5777C13.2464 10.5654 10.0882 10.5237 9.61688 10.5808ZM14.2628 11.8461C14.2628 11.846 14.3352 11.804 14.5031 11.5971C14.6889 11.368 14.7547 11.4412 14.8232 11.5175C14.8585 11.5569 14.8946 11.5971 14.9482 11.5971C15.1059 11.5971 15.3143 11.5971 15.4497 11.7121C15.5852 11.827 15.2714 11.9851 15.18 11.9851C15.1346 11.9851 15.1011 11.9568 15.0673 11.9283C15.033 11.8993 14.9985 11.8701 14.9509 11.8701C14.8949 11.8701 14.8478 11.9107 14.8095 11.9437C14.7834 11.9662 14.7614 11.9851 14.7435 11.9851C14.728 11.9851 14.6934 11.9654 14.6487 11.9398C14.5668 11.8931 14.451 11.827 14.3558 11.827C14.2963 11.827 14.2629 11.8462 14.2628 11.8461Z" fill="white"/>
</g>
<defs>
<clipPath id="clip0_69_11098">
<rect width="21.4187" height="16.064" fill="white"/>
</clipPath>
</defs>
</svg>
