<svg width="23" height="17" viewBox="0 0 23 17" fill="none" xmlns="http://www.w3.org/2000/svg">
<g clip-path="url(#clip0_58_1317)">
<rect width="21.4187" height="16.064" transform="translate(0.674805 0.748535)" fill="white"/>
<path fill-rule="evenodd" clip-rule="evenodd" d="M0.965454 0.716553V16.7806H22.3842V0.716553H0.965454Z" fill="#3D58DB"/>
<mask id="mask0_58_1317" style="mask-type:luminance" maskUnits="userSpaceOnUse" x="0" y="0" width="23" height="17">
<path fill-rule="evenodd" clip-rule="evenodd" d="M0.965454 0.716553V16.7806H22.3842V0.716553H0.965454Z" fill="white"/>
</mask>
<g mask="url(#mask0_58_1317)">
<path fill-rule="evenodd" clip-rule="evenodd" d="M0.965454 16.7806H22.3842V0.716553L0.965454 16.7806Z" fill="#579D20"/>
<path d="M0.442053 17.2794L-0.765259 15.6087L23.5055 -0.591553L24.7128 1.07917L0.442053 17.2794Z" fill="#FECA00"/>
<path fill-rule="evenodd" clip-rule="evenodd" d="M3.41072 5.09834L4.3234 4.46528L5.27923 5.03434L4.94445 4.01406L5.61291 3.28398H4.70723L4.3234 2.21179L3.93957 3.28398L3.03235 3.32143L3.70235 4.01406L3.41072 5.09834ZM7.19795 5.09835L8.11064 4.4653L9.06646 5.03436L8.73168 4.01408L9.40015 3.28399H8.49446L8.11064 2.21181L7.72681 3.28399L6.81958 3.32144L7.48959 4.01408L7.19795 5.09835Z" fill="#F7FCFF"/>
<path fill-rule="evenodd" clip-rule="evenodd" d="M5.41521 7.04475L6.32789 6.41169L7.28372 6.98075L6.94894 5.96047L7.6174 5.23039H6.71172L6.32789 4.1582L5.94406 5.23039L5.03684 5.26784L5.70685 5.96047L5.41521 7.04475ZM4.3234 8.4813L3.41072 9.11436L3.70235 8.03009L3.03235 7.33745L3.93957 7.3L4.3234 6.22781L4.70723 7.3H5.61291L4.94445 8.03009L5.27923 9.05036L4.3234 8.4813ZM8.11064 8.4813L7.19795 9.11436L7.48959 8.03009L6.81958 7.33745L7.72681 7.3L8.11064 6.22781L8.49446 7.3H9.40015L8.73168 8.03009L9.06646 9.05036L8.11064 8.4813Z" fill="#F7FCFF"/>
</g>
</g>
<defs>
<clipPath id="clip0_58_1317">
<rect width="21.4187" height="16.064" fill="white" transform="translate(0.674805 0.748535)"/>
</clipPath>
</defs>
</svg>
