<svg width="22" height="17" viewBox="0 0 22 17" fill="none" xmlns="http://www.w3.org/2000/svg">
<g clip-path="url(#clip0_58_1277)">
<rect width="21.4187" height="16.064" transform="translate(0.0249023 0.748535)" fill="white"/>
<path fill-rule="evenodd" clip-rule="evenodd" d="M0.315552 0.716553V16.7806H21.7343V0.716553H0.315552Z" fill="#F7FCFF"/>
<mask id="mask0_58_1277" style="mask-type:luminance" maskUnits="userSpaceOnUse" x="0" y="0" width="22" height="17">
<path fill-rule="evenodd" clip-rule="evenodd" d="M0.315552 0.716553V16.7806H21.7343V0.716553H0.315552Z" fill="white"/>
</mask>
<g mask="url(#mask0_58_1277)">
<path fill-rule="evenodd" clip-rule="evenodd" d="M0.315552 0.716553V8.74857H21.7343V0.716553H0.315552Z" fill="#E31D1C"/>
<path fill-rule="evenodd" clip-rule="evenodd" d="M6.25154 7.80455C6.25154 7.80455 4.36021 7.04386 4.36021 4.98293C4.36021 2.92199 6.25154 2.18588 6.25154 2.18588C5.33232 1.95317 2.89319 2.1613 2.89319 4.98293C2.89319 7.80455 5.29546 8.33667 6.25154 7.80455ZM6.73613 7.46392L7.27871 7.13637L7.83325 7.46392L7.69753 6.82473L8.14833 6.3205H7.53756L7.27871 5.72365L7.01987 6.3205L6.40806 6.34636L6.85989 6.82473L6.73613 7.46392ZM9.25077 7.09976L8.70819 7.42732L8.83195 6.78813L8.38011 6.30976L8.99192 6.28389L9.25077 5.68705L9.50961 6.28389H10.1204L9.66959 6.78813L9.8053 7.42732L9.25077 7.09976ZM7.87054 4.57856L8.41312 4.251L8.96765 4.57856L8.83194 3.93937L9.28273 3.43513H8.67196L8.41312 2.83829L8.15427 3.43513L7.54246 3.461L7.9943 3.93937L7.87054 4.57856ZM6.58715 5.55103L6.04457 5.87858L6.16833 5.23939L5.7165 4.76102L6.32831 4.73516L6.58715 4.13831L6.846 4.73516H7.45677L7.00597 5.23939L7.14169 5.87858L6.58715 5.55103ZM9.63114 5.84917L10.1737 5.52161L10.7283 5.84917L10.5925 5.20998L11.0433 4.70574H10.4326L10.1737 4.1089L9.91487 4.70574L9.30306 4.73161L9.7549 5.20998L9.63114 5.84917Z" fill="#F1F9FF"/>
</g>
</g>
<defs>
<clipPath id="clip0_58_1277">
<rect width="21.4187" height="16.064" fill="white" transform="translate(0.0249023 0.748535)"/>
</clipPath>
</defs>
</svg>
