<svg width="23" height="17" viewBox="0 0 23 17" fill="none" xmlns="http://www.w3.org/2000/svg">
<g clip-path="url(#clip0_58_1252)">
<rect width="21.4187" height="16.064" transform="translate(0.699463 0.748535)" fill="white"/>
<path fill-rule="evenodd" clip-rule="evenodd" d="M0.990112 0.716553V16.7806H22.4088V0.716553H0.990112Z" fill="#2E42A5"/>
<mask id="mask0_58_1252" style="mask-type:luminance" maskUnits="userSpaceOnUse" x="0" y="0" width="23" height="17">
<path fill-rule="evenodd" clip-rule="evenodd" d="M0.990112 0.716553V16.7806H22.4088V0.716553H0.990112Z" fill="white"/>
</mask>
<g mask="url(#mask0_58_1252)">
<path fill-rule="evenodd" clip-rule="evenodd" d="M0.990112 0.716553V6.07123H22.4088V0.716553H0.990112Z" fill="#F7FCFF"/>
<path fill-rule="evenodd" clip-rule="evenodd" d="M0.990112 11.4259V16.7806H22.4088V11.4259H0.990112Z" fill="#C51918"/>
<path fill-rule="evenodd" clip-rule="evenodd" d="M10.1869 4.08752C10.1869 4.08752 8.77814 3.42224 7.02595 3.42224C5.27377 3.42224 3.86499 4.08752 3.86499 4.08752C3.86499 4.08752 4.02177 6.76132 4.26955 8.17777C4.37535 8.78255 4.88387 9.66463 5.34424 10.0821C5.86898 10.558 7.02595 11.1218 7.02595 11.1218C7.36076 10.8911 7.98676 10.7873 8.78691 10.0821C9.58706 9.37694 9.78593 8.17777 9.78593 8.17777L10.1869 4.08752Z" fill="#2E42A5"/>
<path d="M10.0007 4.00012L10.5873 4.29311L10.1846 8.32426C10.0435 9.17744 9.69058 9.85025 9.12615 10.3477C8.81996 10.6175 8.52108 10.8192 8.20065 10.9867C8.01977 11.0813 7.2632 11.471 7.26978 11.4678C7.19398 11.5044 7.1365 11.5363 7.08981 11.5685L7.01663 11.619L6.93762 11.5805C6.15399 11.1986 5.42287 10.6847 5.05955 10.3552C4.56359 9.90547 4.04064 8.98509 3.92916 8.34779C3.76246 7.39489 3.61297 6.08238 3.50806 4.29311L4.03509 4.01738C4.13921 5.79318 4.2649 7.20876 4.42859 8.14446C4.52544 8.69806 5.00766 9.54677 5.44757 9.94571C5.77268 10.2406 6.29646 10.5675 7.01663 10.923C7.05959 10.8979 7.10719 10.8729 7.16165 10.8467C7.16319 10.846 7.65308 10.6284 7.82334 10.5394C8.12196 10.3833 8.39953 10.196 8.68531 9.94414C9.18636 9.50256 9.49908 8.90787 9.62554 8.1524L10.0007 4.00012Z" fill="#C51918"/>
<path fill-rule="evenodd" clip-rule="evenodd" d="M4.69958 8.09548C4.69958 8.09548 4.82728 8.48613 5.06334 8.92486C5.41005 9.0163 5.6222 9.01149 5.68925 8.93644C5.88321 8.71934 6.57332 8.62657 6.70209 8.81203C6.78153 8.92644 7.06076 9.00554 7.36609 8.90089L7.33205 8.90692C7.38508 8.88763 7.50931 8.83839 7.58587 8.80805L7.58589 8.80804C7.61788 8.79536 7.64155 8.78598 7.64822 8.78346C7.76317 8.74009 7.84763 8.71733 7.93367 8.71093C8.04153 8.70291 8.14495 8.72299 8.25454 8.77517C8.49543 8.88987 8.79265 8.94333 8.99507 8.9086C9.24249 8.47767 9.41891 8.09548 9.41891 8.09548L8.24403 6.96792L7.77706 7.47466L7.00119 6.36853L6.35163 7.47466L5.85355 6.96792L4.69958 8.09548ZM5.37881 9.42768C5.32457 9.35454 5.2733 9.27897 5.22511 9.2027C5.52585 9.25755 5.73005 9.22872 5.84365 9.10158C5.8973 9.04152 6.0565 8.98328 6.23762 8.95894C6.32207 8.94758 6.40308 8.94476 6.4652 8.95069C6.4937 8.95341 6.51667 8.95786 6.53214 8.9632C6.53714 8.96494 6.53699 8.96471 6.53179 8.95727L6.53082 8.95588C6.6693 9.15393 7.04534 9.26009 7.40013 9.1311L7.36609 9.13713C7.46204 9.10763 7.63486 9.03968 7.69698 9.01525L7.71861 9.00679C7.81711 8.96962 7.88499 8.95133 7.94831 8.94662C8.02133 8.9412 8.09022 8.95457 8.16839 8.99179C8.3817 9.09335 8.62966 9.15379 8.84822 9.15536C8.80162 9.23073 8.75351 9.30568 8.70441 9.37851C8.53451 9.41793 8.27168 9.36608 8.05965 9.2503C7.96055 9.19618 7.8659 9.17511 7.76722 9.18352C7.68918 9.19017 7.61352 9.21356 7.5113 9.25779C7.50533 9.26037 7.48435 9.26991 7.45609 9.28276C7.38923 9.31315 7.28166 9.36205 7.23586 9.38114L7.27431 9.3734C7.00895 9.47575 6.77668 9.40029 6.71037 9.29076C6.59202 9.09529 5.97181 9.19091 5.79731 9.41489C5.75079 9.47461 5.6104 9.48551 5.37881 9.42768ZM5.60974 9.7014C5.6228 9.71482 5.636 9.72804 5.64932 9.74103C6.25386 10.3305 7.00119 10.6194 7.00119 10.6194C7.00119 10.6194 7.89132 10.3501 8.39652 9.78297C8.43962 9.73459 8.48281 9.68218 8.52576 9.62678C8.34154 9.61766 8.13904 9.55767 7.96324 9.46167C7.89863 9.4264 7.84302 9.41401 7.78399 9.41904C7.73178 9.42349 7.67461 9.44116 7.59071 9.47747C7.58845 9.47845 7.58296 9.48092 7.5749 9.48455C7.52352 9.50769 7.36749 9.57794 7.27431 9.60963L7.31275 9.60189C7.00003 9.73228 6.668 9.62933 6.5385 9.43405C6.52702 9.42954 6.50901 9.42555 6.48619 9.42305C6.43424 9.41736 6.36563 9.42011 6.29391 9.43117C6.14023 9.45486 6.00602 9.51117 5.96163 9.56814C5.88702 9.66392 5.77 9.70622 5.60974 9.7014Z" fill="white"/>
<path fill-rule="evenodd" clip-rule="evenodd" d="M5.77372 4.65646H5.3031L5.66812 4.31451L5.3031 3.95317H5.77372L5.97244 3.60242L6.17195 3.95317H6.64177L6.29501 4.29281L6.60291 4.65646H6.17195L5.97244 5.0266L5.77372 4.65646Z" fill="#FECA00"/>
<path fill-rule="evenodd" clip-rule="evenodd" d="M7.99174 4.65646H7.52112L7.88613 4.31451L7.52112 3.95317H7.99174L8.19045 3.60242L8.38997 3.95317H8.85979L8.51302 4.29281L8.82093 4.65646H8.38997L8.19045 5.0266L7.99174 4.65646Z" fill="#FECA00"/>
<path fill-rule="evenodd" clip-rule="evenodd" d="M6.74626 5.78183H6.27563L6.64065 5.43987L6.27563 5.07853H6.74626L6.94497 4.72778L7.14448 5.07853H7.6143L7.26754 5.41817L7.57545 5.78183H7.14448L6.94497 6.15197L6.74626 5.78183Z" fill="#FECA00"/>
</g>
</g>
<defs>
<clipPath id="clip0_58_1252">
<rect width="21.4187" height="16.064" fill="white" transform="translate(0.699463 0.748535)"/>
</clipPath>
</defs>
</svg>
