<svg width="22" height="17" viewBox="0 0 22 17" fill="none" xmlns="http://www.w3.org/2000/svg">
<g clip-path="url(#clip0_58_1231)">
<rect width="21.4187" height="16.064" transform="translate(0 0.586304)" fill="white"/>
<path fill-rule="evenodd" clip-rule="evenodd" d="M0.290649 0.554321V16.6184H21.7094V0.554321H0.290649Z" fill="#3D58DB"/>
<mask id="mask0_58_1231" style="mask-type:luminance" maskUnits="userSpaceOnUse" x="0" y="0" width="22" height="17">
<path fill-rule="evenodd" clip-rule="evenodd" d="M0.290649 0.554321V16.6184H21.7094V0.554321H0.290649Z" fill="white"/>
</mask>
<g mask="url(#mask0_58_1231)">
<path fill-rule="evenodd" clip-rule="evenodd" d="M0.290649 0.554321V5.909H21.7094V0.554321H0.290649Z" fill="#F7FCFF"/>
<path fill-rule="evenodd" clip-rule="evenodd" d="M0.290649 11.2637V16.6184H21.7094V11.2637H0.290649Z" fill="#E31D1C"/>
<path d="M10.7349 4.5907L11.0677 4.55529L11.0359 4.25603H10.7349H4.53747H4.22461L4.20356 4.56818L4.53747 4.5907L4.20356 4.56824L4.20355 4.56839L4.20351 4.56892L4.20338 4.57098L4.20284 4.57896L4.2008 4.60992L4.19321 4.72785C4.18675 4.82984 4.17769 4.97659 4.16725 5.15594C4.14639 5.51454 4.12003 6.00397 4.09806 6.52683C4.05477 7.55734 4.02606 8.76373 4.10104 9.32714C4.24733 10.4265 4.91676 12.8944 7.50597 14.0129L7.641 14.0712L7.77529 14.0111C10.2346 12.9115 11.0571 10.6969 11.2468 9.32897C11.3426 8.63859 11.2939 7.43055 11.2267 6.42667C11.1926 5.91797 11.1529 5.45054 11.1217 5.11039C11.1061 4.94025 11.0927 4.80178 11.0831 4.70571L11.0718 4.59472L11.0688 4.56556L11.068 4.558L11.0678 4.55603L11.0677 4.55551L11.0677 4.55536L10.7349 4.5907Z" fill="#E31D1C" stroke="white" stroke-width="0.669335"/>
<mask id="mask1_58_1231" style="mask-type:luminance" maskUnits="userSpaceOnUse" x="3" y="3" width="9" height="12">
<path d="M10.7349 4.5907L11.0677 4.55529L11.0359 4.25603H10.7349H4.53747H4.22461L4.20356 4.56818L4.53747 4.5907L4.20356 4.56824L4.20355 4.56839L4.20351 4.56892L4.20338 4.57098L4.20284 4.57896L4.2008 4.60992L4.19321 4.72785C4.18675 4.82984 4.17769 4.97659 4.16725 5.15594C4.14639 5.51454 4.12003 6.00397 4.09806 6.52683C4.05477 7.55734 4.02606 8.76373 4.10104 9.32714C4.24733 10.4265 4.91676 12.8944 7.50597 14.0129L7.641 14.0712L7.77529 14.0111C10.2346 12.9115 11.0571 10.6969 11.2468 9.32897C11.3426 8.63859 11.2939 7.43055 11.2267 6.42667C11.1926 5.91797 11.1529 5.45054 11.1217 5.11039C11.1061 4.94025 11.0927 4.80178 11.0831 4.70571L11.0718 4.59472L11.0688 4.56556L11.068 4.558L11.0678 4.55603L11.0677 4.55551L11.0677 4.55536L10.7349 4.5907Z" fill="white" stroke="white" stroke-width="0.669335"/>
</mask>
<g mask="url(#mask1_58_1231)">
<path fill-rule="evenodd" clip-rule="evenodd" d="M7.1561 4.96521C7.1561 4.96521 7.29431 5.1758 7.35619 5.4978C7.41806 5.81981 7.42873 6.384 7.42873 6.384L6.11758 6.22257V7.21672L7.45802 7.04601L7.43624 7.9896C7.43624 7.9896 7.03522 8.03117 6.70632 7.9896C6.37743 7.94803 5.72949 7.77387 5.72949 7.77387V8.912C5.72949 8.912 6.38778 8.7014 6.70632 8.65307C7.02487 8.60474 7.43624 8.65307 7.43624 8.65307V10.0509H7.98043V8.65307C7.98043 8.65307 8.5753 8.60136 8.93017 8.65734C9.28503 8.71333 9.62164 8.912 9.62164 8.912V7.77387C9.62164 7.77387 9.28062 7.94378 8.95897 7.98606C8.63732 8.02833 7.98043 7.9896 7.98043 7.9896L8.00221 7.04601C8.00221 7.04601 8.44747 6.99992 8.69728 7.03383C8.94709 7.06774 9.25975 7.21672 9.25975 7.21672V6.22257C9.25975 6.22257 8.95501 6.38839 8.71523 6.41847C8.47546 6.44855 7.97292 6.384 7.97292 6.384C7.97292 6.384 7.98183 5.80177 8.03338 5.51827C8.08494 5.23476 8.23094 4.96521 8.23094 4.96521H7.1561Z" fill="#F7FCFF"/>
<path fill-rule="evenodd" clip-rule="evenodd" d="M4.90735 11.428C4.90735 11.428 5.20152 10.7966 5.68018 10.6766C6.15885 10.5565 6.66077 11.0523 6.66077 11.0523C6.66077 11.0523 6.96726 10.0507 7.7143 10.0507C8.46135 10.0507 8.72353 11.0523 8.72353 11.0523C8.72353 11.0523 9.04226 10.6766 9.50061 10.6766C9.95895 10.6766 10.3836 11.428 10.3836 11.428C10.3836 11.428 9.01454 13.9135 7.64547 13.9135C6.27641 13.9135 4.90735 11.428 4.90735 11.428Z" fill="#2E42A5"/>
</g>
</g>
</g>
<defs>
<clipPath id="clip0_58_1231">
<rect width="21.4187" height="16.064" fill="white" transform="translate(0 0.586304)"/>
</clipPath>
</defs>
</svg>
