<svg width="23" height="17" viewBox="0 0 23 17" fill="none" xmlns="http://www.w3.org/2000/svg">
<g clip-path="url(#clip0_58_1135)">
<rect width="21.4187" height="16.064" transform="translate(0.674805 0.586304)" fill="white"/>
<path fill-rule="evenodd" clip-rule="evenodd" d="M0.965454 0.554321V16.6184H22.3842V0.554321H0.965454Z" fill="#F7FCFF"/>
<mask id="mask0_58_1135" style="mask-type:luminance" maskUnits="userSpaceOnUse" x="0" y="0" width="23" height="17">
<path fill-rule="evenodd" clip-rule="evenodd" d="M0.965454 0.554321V16.6184H22.3842V0.554321H0.965454Z" fill="white"/>
</mask>
<g mask="url(#mask0_58_1135)">
<path fill-rule="evenodd" clip-rule="evenodd" d="M0.965454 8.5863V16.6183H22.3842V8.5863H0.965454Z" fill="#56C6F5"/>
<path fill-rule="evenodd" clip-rule="evenodd" d="M7.82898 6.59707C7.824 6.54061 7.81217 6.4918 7.79175 6.45373C7.61981 6.13328 7.67536 5.73231 7.67536 5.73231C7.67536 5.73231 7.47005 6.20189 7.34959 6.64399C7.22295 6.4381 7.17868 6.23184 7.17868 6.23184C7.17868 6.23184 7.09673 7.52873 7.34729 7.83601C7.59785 8.14329 7.7649 8.27832 7.7649 8.27832C7.7649 8.27832 7.78386 7.73982 7.71091 7.31867C7.76233 7.14294 7.80871 6.95043 7.82531 6.7847C7.85825 6.76031 7.94491 6.69524 8.05334 6.60677C8.00763 6.85902 8.00536 6.99608 8.00536 6.99608C8.00536 6.99608 8.9495 6.31054 8.9735 5.94767C8.9975 5.58481 9.25709 5.2742 9.25709 5.2742C9.25709 5.2742 9.0424 5.42112 8.79725 5.61811C8.86204 5.31348 9.06272 5.07336 9.06272 5.07336C9.06272 5.07336 7.9903 5.80723 7.90242 6.19385C7.86422 6.3619 7.84195 6.49748 7.82898 6.59707ZM7.87492 8.82641C7.77206 8.63219 7.32462 7.81843 7.01252 7.74761C6.65787 7.66714 6.3917 7.36216 6.3917 7.36216C6.3917 7.36216 6.94876 8.53617 7.31688 8.68345C7.61247 8.80172 7.80711 8.84895 7.87234 8.86296C7.8616 9.02125 7.85973 9.13061 7.85973 9.13061C7.85973 9.13061 8.03361 9.00452 8.29991 8.71077C8.56621 8.41702 8.55224 7.11762 8.55224 7.11762C8.55224 7.11762 8.4467 7.50842 8.16322 7.73622C7.97307 7.88902 7.90146 8.46423 7.87492 8.82641ZM7.03729 8.70363C7.44245 8.70125 8.06574 9.69474 8.06574 9.69474C8.06574 9.69474 7.82426 9.70797 7.40243 9.64132C6.9806 9.57468 6.32312 8.44263 6.32312 8.44263C6.32312 8.44263 6.63213 8.70601 7.03729 8.70363ZM9.01229 11.0174C9.01229 11.0174 9.25271 9.75141 8.89169 9.45628C8.53067 9.16116 8.46698 8.7201 8.46698 8.7201C8.46698 8.7201 8.14628 10.124 8.46698 10.4876C8.78769 10.8512 9.01229 11.0174 9.01229 11.0174ZM7.55562 10.6756C7.79138 10.9551 8.5425 10.6756 8.5425 10.6756C8.5425 10.6756 8.70801 10.8259 8.11232 10.2815C7.51662 9.73705 6.30451 10.0809 6.63072 10.0809C6.95693 10.0809 7.31985 10.3961 7.55562 10.6756ZM8.11229 12.1619C8.54931 12.532 9.49364 11.6519 9.49364 11.6519C9.49364 11.6519 9.25053 11.3575 8.79998 11.1405C8.34943 10.9236 6.68746 11.1405 6.68746 11.1405L7.42708 11.4698C7.42708 11.4698 6.60379 11.7917 6.82232 11.7738C7.04086 11.7558 7.67527 11.7917 8.11229 12.1619Z" fill="#006923"/>
<path fill-rule="evenodd" clip-rule="evenodd" d="M13.8258 11.395C13.8258 11.395 13.4501 10.7636 13.8258 10.4586C14.2016 10.1535 14.3503 10.3564 14.3503 10.0057C14.3503 9.65498 14.3883 9.75941 14.5729 9.58529C14.7575 9.41118 14.6267 8.98828 14.874 9.19973C15.1212 9.41118 15.1674 9.00571 15.1674 9.84804C15.1674 10.6904 15.1674 9.08405 15.1674 8.61095C15.1674 8.13784 14.874 8.24984 14.874 7.93256C14.874 7.61528 14.5805 7.14141 14.874 7.14141C15.1674 7.14141 15.3399 7.49397 15.3399 7.49397C15.3399 7.49397 15.6282 7.98537 15.6282 7.49397C15.6282 7.00258 15.1149 7.14866 14.874 6.60641C14.6331 6.06416 14.6711 6.66723 14.3503 5.9685C14.0294 5.26976 13.6474 5.04804 13.9988 5.04804C14.3503 5.04804 14.2718 5.04804 14.5729 5.04804C14.874 5.04804 15.3399 4.79796 15.3399 5.04804C15.3399 5.29812 15.3399 5.18352 15.3399 5.57601C15.3399 5.9685 15.6282 5.9685 15.6282 5.9685C15.6282 5.9685 15.785 5.18352 15.9818 5.57601C16.1787 5.9685 16.0447 6.60641 16.1888 6.60641C16.3329 6.60641 16.2136 5.94718 16.5283 6.4521C16.843 6.95702 16.5283 7.29919 16.5283 7.49397C16.5283 7.68876 16.1888 8.16597 16.1888 8.16597C16.1888 8.16597 16.2551 8.39938 16.5283 8.16597C16.8015 7.93256 17.0607 7.69915 17.0607 7.93256C17.0607 8.16597 17.5931 8.23848 17.0607 8.61095C16.5283 8.98341 16.8678 9.35632 16.5283 9.35632C16.1888 9.35632 15.7887 9.84804 15.6282 9.84804C15.4676 9.84804 14.8672 10.2245 15.1674 10.2245C15.4676 10.2245 15.7749 9.47156 15.9818 9.84804C16.1888 10.2245 16.186 9.7869 16.3572 10.0057C16.5283 10.2245 16.6994 11.4117 16.5283 10.9351C16.3572 10.4586 16.089 10.4586 15.6282 10.4586C15.1674 10.4586 14.2718 10.493 14.5729 10.7141C14.874 10.9351 15.2121 10.493 15.3399 10.7141C15.4676 10.9351 15.4305 11.1562 15.6282 10.9351C15.8259 10.7141 16.0204 10.9351 16.1888 10.9351C16.3572 10.9351 16.0204 11.1826 16.1888 11.395C16.3572 11.6075 16.7325 11.8904 16.3572 11.8904C15.9818 11.8904 15.7887 11.5904 15.6282 11.8904C15.4676 12.1905 15.4608 12.7117 15.1674 12.3011C14.874 11.8904 14.3503 12.0989 14.3503 11.8904C14.3503 11.682 14.4648 11.6484 14.1453 11.6484C13.8258 11.6484 13.8258 11.395 13.8258 11.395Z" fill="#009933"/>
<path fill-rule="evenodd" clip-rule="evenodd" d="M15.367 6.87937C15.367 6.97179 15.2945 7.0467 15.205 7.0467C15.1156 7.0467 15.0431 6.97179 15.0431 6.87937C15.0431 6.78695 15.1156 6.71204 15.205 6.71204C15.2945 6.71204 15.367 6.78695 15.367 6.87937ZM7.88557 7.24754C7.975 7.24754 8.0475 7.17262 8.0475 7.0802C8.0475 6.98779 7.975 6.91287 7.88557 6.91287C7.79613 6.91287 7.72363 6.98779 7.72363 7.0802C7.72363 7.17262 7.79613 7.24754 7.88557 7.24754ZM8.0475 7.95029C8.0475 8.04271 7.975 8.11762 7.88557 8.11762C7.79613 8.11762 7.72363 8.04271 7.72363 7.95029C7.72363 7.85787 7.79613 7.78296 7.88557 7.78296C7.975 7.78296 8.0475 7.85787 8.0475 7.95029ZM8.14466 9.65713C8.23409 9.65713 8.30659 9.58221 8.30659 9.48979C8.30659 9.39738 8.23409 9.32246 8.14466 9.32246C8.05522 9.32246 7.98272 9.39738 7.98272 9.48979C7.98272 9.58221 8.05522 9.65713 8.14466 9.65713ZM9.44019 11.3305C9.52962 11.3305 9.60212 11.2555 9.60212 11.1631C9.60212 11.0707 9.52962 10.9958 9.44019 10.9958C9.35075 10.9958 9.27825 11.0707 9.27825 11.1631C9.27825 11.2555 9.35075 11.3305 9.44019 11.3305ZM15.6585 8.78696C15.7479 8.78696 15.8204 8.71204 15.8204 8.61962C15.8204 8.52721 15.7479 8.45229 15.6585 8.45229C15.5691 8.45229 15.4966 8.52721 15.4966 8.61962C15.4966 8.71204 15.5691 8.78696 15.6585 8.78696ZM15.3023 9.9583C15.3023 10.0507 15.2298 10.1256 15.1403 10.1256C15.0509 10.1256 14.9784 10.0507 14.9784 9.9583C14.9784 9.86588 15.0509 9.79096 15.1403 9.79096C15.2298 9.79096 15.3023 9.86588 15.3023 9.9583ZM13.78 11.5982C13.8694 11.5982 13.9419 11.5233 13.9419 11.4309C13.9419 11.3385 13.8694 11.2635 13.78 11.2635C13.6906 11.2635 13.6181 11.3385 13.6181 11.4309C13.6181 11.5233 13.6906 11.5982 13.78 11.5982ZM9.66683 11.6316C9.66683 11.724 9.59433 11.799 9.5049 11.799C9.41546 11.799 9.34296 11.724 9.34296 11.6316C9.34296 11.5392 9.41546 11.4643 9.5049 11.4643C9.59433 11.4643 9.66683 11.5392 9.66683 11.6316Z" fill="#C51918"/>
<path fill-rule="evenodd" clip-rule="evenodd" d="M13.0389 13.8204C13.0389 13.6833 10.9636 12.2531 10.4065 11.9376C9.84952 11.6222 7.12947 9.88589 7.87022 7.2478H7.75812C7.75812 7.2478 7.25682 10.4984 10.7106 12.519C12.2832 13.5739 12.3615 13.8204 12.3615 13.8204C12.3615 13.8204 13.0389 13.9575 13.0389 13.8204Z" fill="#FECA00"/>
<path fill-rule="evenodd" clip-rule="evenodd" d="M10.2856 13.8204C10.2856 13.6833 12.3609 12.2531 12.9179 11.9376C13.4749 11.6222 16.195 9.88589 15.4542 7.2478H15.5663C15.5663 7.2478 16.0676 10.4984 12.6138 12.519C11.0413 13.5739 10.963 13.8204 10.963 13.8204C10.963 13.8204 10.2856 13.9575 10.2856 13.8204Z" fill="#FECA00"/>
<path fill-rule="evenodd" clip-rule="evenodd" d="M11.7072 11.8564C13.1561 11.8564 14.3306 9.98099 14.3306 8.15115C14.3306 6.32132 13.1561 5.37341 11.7072 5.37341C10.2584 5.37341 9.08386 6.32132 9.08386 8.15115C9.08386 9.98099 10.2584 11.8564 11.7072 11.8564Z" fill="#56C6F5"/>
<path fill-rule="evenodd" clip-rule="evenodd" d="M10.5459 6.93889C10.5459 6.93889 10.95 6.58254 10.748 6.58254C10.7088 6.58254 10.6611 6.57489 10.6096 6.56664C10.3959 6.53235 10.1175 6.48769 10.1175 6.93889V7.71425L10.1174 7.71605H10.0577C10.0207 7.71605 9.99078 7.74601 9.99078 7.78298C9.99078 7.81995 10.0207 7.84991 10.0577 7.84991H10.1101C10.1012 8.01553 10.0853 8.31007 10.0698 8.60445L9.99319 8.61115C9.9536 8.61462 9.9243 8.64953 9.92777 8.68913L9.93272 8.74577C9.93619 8.78536 9.9711 8.81466 10.0107 8.81119L10.0591 8.80695C10.0412 9.15089 10.026 9.45187 10.026 9.4887C10.026 9.57917 10.6406 9.54415 10.6406 9.54415C10.6406 9.54415 10.6215 9.18131 10.6005 8.75959L10.6416 8.75599C10.6812 8.75253 10.7105 8.71762 10.7071 8.67802L10.7021 8.62138C10.6986 8.58178 10.6637 8.55249 10.6241 8.55595L10.5905 8.5589C10.5781 8.30631 10.566 8.04983 10.5575 7.84991H10.6364C10.6733 7.84991 10.7033 7.81995 10.7033 7.78298C10.7033 7.74601 10.6733 7.71605 10.6364 7.71605H10.5521C10.5482 7.61616 10.5459 7.54108 10.5459 7.50327V6.93889Z" fill="white"/>
<path fill-rule="evenodd" clip-rule="evenodd" d="M10.25 7.91687H10.4659V8.20476H10.25V7.91687Z" fill="black"/>
<path fill-rule="evenodd" clip-rule="evenodd" d="M10.1852 8.9209H10.545V9.59023H10.1852V8.9209Z" fill="black"/>
<path fill-rule="evenodd" clip-rule="evenodd" d="M11.9062 6.93889C11.9062 6.93889 12.3102 6.58254 12.1082 6.58254C12.069 6.58254 12.0213 6.57489 11.9699 6.56664C11.7561 6.53235 11.4777 6.48769 11.4777 6.93889V7.71425L11.4776 7.71605H11.4179C11.381 7.71605 11.351 7.74601 11.351 7.78298C11.351 7.81995 11.381 7.84991 11.4179 7.84991H11.4704C11.4614 8.01553 11.4456 8.31007 11.43 8.60445L11.3534 8.61115C11.3138 8.61462 11.2845 8.64953 11.288 8.68913L11.293 8.74577C11.2964 8.78536 11.3313 8.81466 11.3709 8.81119L11.4194 8.80695C11.4014 9.15089 11.3862 9.45187 11.3862 9.4887C11.3862 9.57917 12.0009 9.54415 12.0009 9.54415C12.0009 9.54415 11.9817 9.18131 11.9607 8.75959L12.0019 8.75599C12.0415 8.75253 12.0708 8.71762 12.0673 8.67802L12.0623 8.62138C12.0589 8.58178 12.024 8.55249 11.9844 8.55595L11.9507 8.5589C11.9383 8.30631 11.9262 8.04983 11.9177 7.84991H11.9966C12.0336 7.84991 12.0635 7.81995 12.0635 7.78298C12.0635 7.74601 12.0336 7.71605 11.9966 7.71605H11.9123C11.9084 7.61616 11.9062 7.54108 11.9062 7.50327V6.93889Z" fill="white"/>
<path fill-rule="evenodd" clip-rule="evenodd" d="M11.6102 7.91687H11.8261V8.20476H11.6102V7.91687Z" fill="black"/>
<path fill-rule="evenodd" clip-rule="evenodd" d="M11.5454 8.9209H11.9053V9.59023H11.5454V8.9209Z" fill="black"/>
<path fill-rule="evenodd" clip-rule="evenodd" d="M13.2016 6.93889C13.2016 6.93889 13.6056 6.58254 13.4036 6.58254C13.3644 6.58254 13.3167 6.57489 13.2653 6.56664C13.0515 6.53235 12.7731 6.48769 12.7731 6.93889V7.71425L12.773 7.71605H12.7134C12.6764 7.71605 12.6464 7.74601 12.6464 7.78298C12.6464 7.81995 12.6764 7.84991 12.7134 7.84991H12.7658C12.7568 8.01553 12.741 8.31007 12.7254 8.60445L12.6488 8.61115C12.6092 8.61462 12.5799 8.64953 12.5834 8.68913L12.5884 8.74577C12.5918 8.78536 12.6267 8.81466 12.6663 8.81119L12.7148 8.80695C12.6968 9.15089 12.6816 9.45187 12.6816 9.4887C12.6816 9.57917 13.2963 9.54415 13.2963 9.54415C13.2963 9.54415 13.2772 9.18131 13.2561 8.75959L13.2973 8.75599C13.3369 8.75253 13.3662 8.71762 13.3627 8.67802L13.3577 8.62138C13.3543 8.58178 13.3194 8.55249 13.2798 8.55595L13.2462 8.5589C13.2338 8.30631 13.2216 8.04983 13.2131 7.84991H13.292C13.329 7.84991 13.3589 7.81995 13.3589 7.78298C13.3589 7.74601 13.329 7.71605 13.292 7.71605H13.2077C13.2039 7.61616 13.2016 7.54108 13.2016 7.50327V6.93889Z" fill="white"/>
<path fill-rule="evenodd" clip-rule="evenodd" d="M12.9056 7.91687H13.1216V8.20476H12.9056V7.91687Z" fill="black"/>
<path fill-rule="evenodd" clip-rule="evenodd" d="M12.8408 8.9209H13.2007V9.59023H12.8408V8.9209Z" fill="black"/>
<path fill-rule="evenodd" clip-rule="evenodd" d="M13.359 4.83789H9.92598V5.35033L9.90299 5.35238C9.90299 5.35238 8.22102 6.65941 8.68781 8.61735C9.15461 10.5753 11.0088 12.0273 11.0088 12.0273L11.1023 11.6894C11.1023 11.6894 9.33546 9.28703 9.33546 8.32708C9.33546 7.36713 9.6688 6.46613 10.0217 6.32604C10.234 6.24178 10.2706 6.25888 10.3285 6.28589C10.3668 6.30379 10.4145 6.32604 10.5287 6.32604C10.8154 6.32604 11.1023 6.12084 11.1023 6.12084C11.1023 6.12084 11.3017 6.32604 11.487 6.32604C11.6722 6.32604 11.6748 6.12084 11.6748 6.12084V5.44029H11.6955V6.12084C11.6955 6.12084 11.6981 6.32604 11.8834 6.32604C12.0687 6.32604 12.2681 6.12084 12.2681 6.12084C12.2681 6.12084 12.555 6.32604 12.8417 6.32604C12.9559 6.32604 13.0036 6.30379 13.0419 6.28589C13.0997 6.25888 13.1363 6.24178 13.3486 6.32604C13.7016 6.46613 14.0349 7.36713 14.0349 8.32708C14.0349 9.28703 12.2681 11.6894 12.2681 11.6894L12.3616 12.0273C12.3616 12.0273 14.2158 10.5753 14.6826 8.61735C15.1494 6.65941 13.4674 5.35238 13.4674 5.35238L13.359 5.34269V4.83789Z" fill="#E8AA00"/>
<path d="M9.92598 4.83789V4.50322H9.59131V4.83789H9.92598ZM13.359 4.83789H13.6937V4.50322H13.359V4.83789ZM9.92598 5.35033L9.95578 5.68367L10.2606 5.65641V5.35033H9.92598ZM9.90299 5.35238L9.87318 5.01905L9.77526 5.0278L9.69764 5.08812L9.90299 5.35238ZM8.68781 8.61735L9.01336 8.53973L8.68781 8.61735ZM11.0088 12.0273L10.8024 12.2908L11.1975 12.6002L11.3313 12.1165L11.0088 12.0273ZM11.1023 11.6894L11.4248 11.7786L11.4681 11.622L11.3719 11.4911L11.1023 11.6894ZM10.0217 6.32604L10.1452 6.6371L10.1452 6.6371L10.0217 6.32604ZM10.3285 6.28589L10.1869 6.58912L10.1869 6.58912L10.3285 6.28589ZM11.1023 6.12084L11.3422 5.88758L11.1416 5.68119L10.9075 5.84864L11.1023 6.12084ZM11.6748 6.12084L12.0095 6.12507V6.12084H11.6748ZM11.6748 5.44029V5.10562H11.3402V5.44029H11.6748ZM11.6955 5.44029H12.0302V5.10562H11.6955V5.44029ZM11.6955 6.12084L11.3609 6.12084L11.3609 6.12507L11.6955 6.12084ZM12.2681 6.12084L12.4628 5.84864L12.2287 5.68119L12.0281 5.88758L12.2681 6.12084ZM13.0419 6.28589L13.1835 6.58912L13.1835 6.58912L13.0419 6.28589ZM13.3486 6.32604L13.2252 6.6371L13.2252 6.6371L13.3486 6.32604ZM12.2681 11.6894L11.9985 11.4911L11.9022 11.622L11.9456 11.7786L12.2681 11.6894ZM12.3616 12.0273L12.039 12.1165L12.1728 12.6002L12.5679 12.2908L12.3616 12.0273ZM14.6826 8.61735L14.357 8.53973L14.357 8.53973L14.6826 8.61735ZM13.4674 5.35238L13.6727 5.08812L13.5951 5.0278L13.4972 5.01905L13.4674 5.35238ZM13.359 5.34269H13.0243V5.64877L13.3292 5.67603L13.359 5.34269ZM9.92598 5.17256H13.359V4.50322H9.92598V5.17256ZM10.2606 5.35033V4.83789H9.59131V5.35033H10.2606ZM9.93279 5.68572L9.95578 5.68367L9.89617 5.01699L9.87318 5.01905L9.93279 5.68572ZM9.01336 8.53973C8.80735 7.67565 9.07201 6.95217 9.40304 6.42977C9.56862 6.16847 9.74821 5.96224 9.88624 5.8217C9.95502 5.75168 10.0128 5.69864 10.0524 5.6639C10.0721 5.64655 10.0873 5.63383 10.097 5.62588C10.1018 5.62191 10.1052 5.61914 10.1072 5.6176C10.1081 5.61682 10.1087 5.61635 10.1089 5.61619C10.109 5.61611 10.109 5.61611 10.1089 5.61619C10.1089 5.61622 10.1088 5.61628 10.1087 5.61636C10.1087 5.61639 10.1086 5.61647 10.1085 5.61649C10.1084 5.61656 10.1083 5.61664 9.90299 5.35238C9.69764 5.08812 9.69752 5.08822 9.69739 5.08831C9.69734 5.08835 9.69721 5.08845 9.69711 5.08853C9.69691 5.08869 9.69669 5.08886 9.69644 5.08906C9.69593 5.08945 9.69533 5.08993 9.69462 5.09048C9.69321 5.09159 9.6914 5.09303 9.6892 5.09479C9.6848 5.09831 9.67885 5.10312 9.67147 5.1092C9.6567 5.12136 9.63618 5.13862 9.61087 5.16083C9.56029 5.20523 9.49032 5.2696 9.4087 5.3527C9.24595 5.51841 9.03422 5.76132 8.83766 6.07151C8.4444 6.69211 8.10148 7.60111 8.36227 8.69496L9.01336 8.53973ZM11.0088 12.0273C11.2151 11.7638 11.2152 11.7638 11.2152 11.7639C11.2152 11.7639 11.2153 11.7639 11.2153 11.7639C11.2153 11.764 11.2153 11.764 11.2153 11.7639C11.2153 11.7639 11.2151 11.7638 11.2149 11.7636C11.2144 11.7632 11.2134 11.7624 11.212 11.7613C11.2092 11.7591 11.2048 11.7555 11.1987 11.7506C11.1866 11.7408 11.1681 11.7256 11.144 11.7052C11.0957 11.6645 11.0251 11.6034 10.9384 11.5236C10.7648 11.3638 10.528 11.1305 10.2772 10.8385C9.77166 10.2498 9.22918 9.44499 9.01336 8.53973L8.36227 8.69496C8.61324 9.74764 9.23125 10.6478 9.76945 11.2746C10.0406 11.5903 10.2965 11.8424 10.4851 12.016C10.5796 12.103 10.6575 12.1705 10.7124 12.2169C10.7399 12.2401 10.7617 12.258 10.777 12.2704C10.7846 12.2765 10.7906 12.2814 10.7949 12.2848C10.797 12.2865 10.7987 12.2878 10.8 12.2888C10.8006 12.2893 10.8011 12.2897 10.8016 12.2901C10.8018 12.2902 10.8019 12.2904 10.8021 12.2905C10.8022 12.2905 10.8022 12.2906 10.8023 12.2906C10.8024 12.2907 10.8024 12.2908 11.0088 12.0273ZM10.7797 11.6001L10.6862 11.938L11.3313 12.1165L11.4248 11.7786L10.7797 11.6001ZM9.00079 8.32708C9.00079 8.64574 9.14022 9.03354 9.30746 9.39723C9.4809 9.77443 9.70932 10.1773 9.93353 10.5431C10.1584 10.91 10.3828 11.2455 10.5507 11.489C10.6347 11.6109 10.7048 11.71 10.7541 11.7789C10.7787 11.8134 10.7982 11.8403 10.8116 11.8587C10.8182 11.868 10.8234 11.8751 10.827 11.8799C10.8287 11.8823 10.8301 11.8842 10.8311 11.8855C10.8315 11.8862 10.8319 11.8867 10.8322 11.887C10.8323 11.8872 10.8324 11.8873 10.8325 11.8874C10.8325 11.8875 10.8326 11.8876 10.8326 11.8876C10.8326 11.8876 10.8326 11.8877 11.1023 11.6894C11.3719 11.4911 11.3719 11.4911 11.3719 11.4911C11.3719 11.4911 11.3719 11.4911 11.3719 11.4911C11.3718 11.491 11.3718 11.491 11.3717 11.4909C11.3715 11.4906 11.3713 11.4903 11.3709 11.4898C11.3701 11.4887 11.369 11.4871 11.3674 11.485C11.3643 11.4807 11.3595 11.4742 11.3533 11.4656C11.3408 11.4484 11.3222 11.4227 11.2986 11.3896C11.2512 11.3234 11.1833 11.2274 11.1017 11.109C10.9383 10.872 10.721 10.547 10.5042 10.1933C10.2867 9.8385 10.0734 9.46083 9.91558 9.1176C9.75154 8.76086 9.67013 8.48839 9.67013 8.32708H9.00079ZM9.89827 6.01498C9.71971 6.08585 9.58574 6.23189 9.4887 6.37486C9.38713 6.52452 9.30073 6.70828 9.2305 6.90818C9.08985 7.3085 9.00079 7.81142 9.00079 8.32708H9.67013C9.67013 7.88279 9.74774 7.45524 9.86199 7.13005C9.91921 6.96719 9.98233 6.83944 10.0425 6.75076C10.1072 6.65539 10.1473 6.63627 10.1452 6.6371L9.89827 6.01498ZM10.4701 5.98265C10.4301 5.96399 10.3419 5.92151 10.2106 5.93032C10.1119 5.93694 10.0082 5.97133 9.89827 6.01498L10.1452 6.6371C10.1925 6.61832 10.2236 6.6078 10.2435 6.60207C10.2639 6.59622 10.2655 6.59748 10.2554 6.59815C10.2497 6.59854 10.2409 6.59869 10.2298 6.59762C10.2185 6.59653 10.2075 6.59442 10.1974 6.59165C10.1877 6.58899 10.1811 6.58631 10.179 6.58546C10.1781 6.5851 10.1784 6.58517 10.1869 6.58912L10.4701 5.98265ZM10.5287 5.99137C10.511 5.99137 10.4991 5.9905 10.4919 5.98969C10.4848 5.9889 10.4819 5.98814 10.4818 5.98813C10.4817 5.98811 10.482 5.98817 10.4824 5.98831C10.4828 5.98845 10.4831 5.98854 10.4829 5.98849C10.4819 5.98809 10.4803 5.98742 10.4701 5.98265L10.1869 6.58912C10.2086 6.59927 10.2545 6.62112 10.3184 6.63722C10.381 6.65298 10.4496 6.66071 10.5287 6.66071V5.99137ZM11.1023 6.12084C10.9075 5.84864 10.9076 5.8486 10.9077 5.84855C10.9077 5.84854 10.9077 5.8485 10.9078 5.84847C10.9079 5.84842 10.9079 5.84837 10.908 5.84832C10.9081 5.84822 10.9083 5.84814 10.9084 5.84806C10.9086 5.84792 10.9087 5.84782 10.9088 5.84777C10.9089 5.84766 10.9088 5.84773 10.9085 5.84798C10.9078 5.84846 10.9061 5.84961 10.9035 5.85132C10.8984 5.85477 10.8897 5.86044 10.878 5.8676C10.8544 5.88207 10.82 5.90178 10.7789 5.92137C10.6903 5.96366 10.5997 5.99137 10.5287 5.99137V6.66071C10.7444 6.66071 10.9406 6.58582 11.0671 6.5255C11.1335 6.4938 11.1888 6.4622 11.2279 6.4382C11.2476 6.42612 11.2636 6.41576 11.2752 6.40799C11.281 6.40409 11.2858 6.40083 11.2894 6.39831C11.2913 6.39705 11.2928 6.39597 11.2941 6.39509C11.2947 6.39464 11.2953 6.39425 11.2957 6.39391C11.296 6.39374 11.2962 6.39358 11.2964 6.39343C11.2965 6.39336 11.2966 6.39329 11.2967 6.39323C11.2967 6.39319 11.2968 6.39314 11.2968 6.39313C11.2969 6.39308 11.297 6.39304 11.1023 6.12084ZM11.487 5.99137C11.5005 5.99137 11.4995 5.99452 11.4809 5.98651C11.4635 5.97904 11.4416 5.96653 11.4175 5.9496C11.3941 5.93314 11.3736 5.91605 11.3589 5.90302C11.3518 5.89667 11.3465 5.8917 11.3436 5.88881C11.3421 5.88738 11.3412 5.8865 11.3409 5.88625C11.3408 5.88613 11.3409 5.88618 11.3411 5.88639C11.3412 5.8865 11.3413 5.88665 11.3415 5.88685C11.3416 5.88695 11.3417 5.88706 11.3419 5.88718C11.3419 5.88724 11.342 5.88731 11.342 5.88737C11.3421 5.88741 11.3421 5.88746 11.3421 5.88748C11.3422 5.88753 11.3422 5.88758 11.1023 6.12084C10.8623 6.35409 10.8623 6.35415 10.8624 6.35421C10.8624 6.35423 10.8624 6.35428 10.8625 6.35432C10.8626 6.3544 10.8626 6.35448 10.8627 6.35457C10.8629 6.35474 10.8631 6.35493 10.8633 6.35512C10.8637 6.35552 10.8641 6.35596 10.8646 6.35646C10.8656 6.35745 10.8667 6.35865 10.8681 6.36003C10.8709 6.36279 10.8745 6.36632 10.8788 6.3705C10.8875 6.37883 10.8992 6.3899 10.9137 6.40278C10.9422 6.42822 10.9832 6.46244 11.0327 6.49728C11.1179 6.55713 11.2862 6.66071 11.487 6.66071V5.99137ZM11.6748 6.12084C11.3402 6.11661 11.3402 6.11646 11.3402 6.11631C11.3402 6.11626 11.3402 6.11612 11.3402 6.11602C11.3402 6.11583 11.3402 6.11564 11.3402 6.11545C11.3402 6.11508 11.3402 6.11471 11.3402 6.11436C11.3402 6.11364 11.3403 6.11297 11.3403 6.11232C11.3403 6.11104 11.3403 6.10988 11.3404 6.10885C11.3405 6.10679 11.3406 6.10517 11.3407 6.10392C11.3409 6.10151 11.3411 6.10002 11.3412 6.09902C11.3413 6.09866 11.3421 6.09277 11.3468 6.08256C11.3517 6.07191 11.3657 6.04664 11.3969 6.02387C11.4318 5.9983 11.4672 5.99137 11.487 5.99137V6.66071C11.5993 6.66071 11.7045 6.62812 11.7921 6.56408C11.8758 6.50283 11.9252 6.42626 11.9539 6.36432C11.9825 6.30281 11.9955 6.24562 12.0018 6.20678C12.0051 6.18654 12.007 6.16902 12.008 6.15539C12.0086 6.14853 12.0089 6.1425 12.0091 6.13743C12.0092 6.1349 12.0093 6.13259 12.0094 6.13053C12.0094 6.1295 12.0094 6.12853 12.0094 6.12762C12.0094 6.12716 12.0094 6.12672 12.0095 6.1263C12.0095 6.12609 12.0095 6.12588 12.0095 6.12567C12.0095 6.12557 12.0095 6.12542 12.0095 6.12537C12.0095 6.12522 12.0095 6.12507 11.6748 6.12084ZM11.3402 5.44029V6.12084H12.0095V5.44029H11.3402ZM11.6955 5.10562H11.6748V5.77496H11.6955V5.10562ZM11.3609 5.44029V6.12084H12.0302V5.44029H11.3609ZM11.6955 6.12084C11.3609 6.12507 11.3609 6.12522 11.3609 6.12537C11.3609 6.12542 11.3609 6.12557 11.3609 6.12567C11.3609 6.12588 11.3609 6.12609 11.3609 6.1263C11.3609 6.12672 11.3609 6.12716 11.3609 6.12762C11.361 6.12853 11.361 6.1295 11.361 6.13053C11.3611 6.13259 11.3611 6.1349 11.3613 6.13743C11.3615 6.1425 11.3618 6.14853 11.3623 6.15539C11.3634 6.16902 11.3652 6.18654 11.3685 6.20678C11.3749 6.24562 11.3879 6.30281 11.4164 6.36432C11.4452 6.42626 11.4946 6.50283 11.5783 6.56408C11.6658 6.62812 11.771 6.66071 11.8834 6.66071V5.99137C11.9032 5.99137 11.9385 5.9983 11.9735 6.02387C12.0046 6.04664 12.0186 6.07191 12.0236 6.08256C12.0283 6.09277 12.0291 6.09866 12.0291 6.09902C12.0293 6.10002 12.0295 6.10151 12.0297 6.10392C12.0298 6.10517 12.0299 6.10679 12.03 6.10885C12.03 6.10988 12.0301 6.11104 12.0301 6.11232C12.0301 6.11297 12.0301 6.11364 12.0301 6.11436C12.0302 6.11471 12.0302 6.11508 12.0302 6.11545C12.0302 6.11564 12.0302 6.11583 12.0302 6.11602C12.0302 6.11612 12.0302 6.11626 12.0302 6.11631C12.0302 6.11646 12.0302 6.11661 11.6955 6.12084ZM11.8834 6.66071C12.0842 6.66071 12.2524 6.55713 12.3376 6.49728C12.3872 6.46244 12.4281 6.42822 12.4567 6.40278C12.4712 6.3899 12.4829 6.37883 12.4916 6.3705C12.4959 6.36632 12.4995 6.36279 12.5022 6.36003C12.5036 6.35865 12.5048 6.35745 12.5058 6.35646C12.5063 6.35596 12.5067 6.35552 12.5071 6.35512C12.5073 6.35493 12.5075 6.35474 12.5076 6.35457C12.5077 6.35448 12.5078 6.3544 12.5079 6.35432C12.5079 6.35428 12.508 6.35423 12.508 6.35421C12.5081 6.35415 12.5081 6.35409 12.2681 6.12084C12.0281 5.88758 12.0282 5.88753 12.0282 5.88748C12.0283 5.88746 12.0283 5.88741 12.0283 5.88737C12.0284 5.88731 12.0285 5.88724 12.0285 5.88718C12.0286 5.88706 12.0288 5.88695 12.0288 5.88685C12.029 5.88665 12.0292 5.8865 12.0293 5.88639C12.0295 5.88618 12.0296 5.88613 12.0294 5.88625C12.0292 5.8865 12.0283 5.88738 12.0268 5.88881C12.0238 5.8917 12.0186 5.89667 12.0114 5.90302C11.9968 5.91605 11.9763 5.93314 11.9529 5.9496C11.9287 5.96653 11.9069 5.97904 11.8895 5.98651C11.8709 5.99452 11.8699 5.99137 11.8834 5.99137V6.66071ZM12.2681 6.12084C12.0734 6.39304 12.0735 6.39308 12.0735 6.39313C12.0736 6.39314 12.0736 6.39319 12.0737 6.39323C12.0738 6.39329 12.0739 6.39336 12.074 6.39343C12.0742 6.39358 12.0744 6.39374 12.0746 6.39391C12.0751 6.39425 12.0757 6.39464 12.0763 6.39509C12.0776 6.39597 12.0791 6.39705 12.0809 6.39831C12.0846 6.40083 12.0893 6.40409 12.0952 6.40799C12.1068 6.41576 12.1228 6.42612 12.1425 6.4382C12.1816 6.4622 12.2368 6.4938 12.3033 6.5255C12.4298 6.58582 12.6259 6.66071 12.8417 6.66071V5.99137C12.7707 5.99137 12.6801 5.96366 12.5915 5.92137C12.5504 5.90178 12.516 5.88207 12.4924 5.8676C12.4807 5.86044 12.472 5.85477 12.4668 5.85132C12.4643 5.84961 12.4626 5.84846 12.4619 5.84798C12.4616 5.84773 12.4614 5.84766 12.4616 5.84777C12.4617 5.84782 12.4618 5.84792 12.462 5.84806C12.4621 5.84814 12.4622 5.84822 12.4624 5.84832C12.4624 5.84837 12.4625 5.84842 12.4626 5.84847C12.4626 5.8485 12.4627 5.84854 12.4627 5.84855C12.4628 5.8486 12.4628 5.84864 12.2681 6.12084ZM12.8417 6.66071C12.9208 6.66071 12.9893 6.65298 13.0519 6.63722C13.1159 6.62112 13.1618 6.59927 13.1835 6.58912L12.9003 5.98265C12.8901 5.98742 12.8885 5.98809 12.8874 5.98849C12.8873 5.98854 12.8875 5.98845 12.888 5.98831C12.8884 5.98817 12.8886 5.98811 12.8885 5.98813C12.8885 5.98814 12.8856 5.9889 12.8785 5.98969C12.8713 5.9905 12.8594 5.99137 12.8417 5.99137V6.66071ZM13.1835 6.58912C13.1919 6.58517 13.1922 6.5851 13.1914 6.58546C13.1893 6.58631 13.1826 6.58899 13.1729 6.59165C13.1628 6.59442 13.1519 6.59653 13.1405 6.59762C13.1295 6.59869 13.1207 6.59854 13.1149 6.59815C13.1049 6.59748 13.1065 6.59622 13.1269 6.60207C13.1468 6.6078 13.1779 6.61832 13.2252 6.6371L13.4721 6.01498C13.3621 5.97133 13.2585 5.93694 13.1598 5.93032C13.0285 5.92151 12.9402 5.96399 12.9003 5.98265L13.1835 6.58912ZM13.2252 6.6371C13.2231 6.63627 13.2631 6.65539 13.3279 6.75076C13.388 6.83944 13.4512 6.96719 13.5084 7.13005C13.6226 7.45524 13.7002 7.88279 13.7002 8.32708H14.3696C14.3696 7.81142 14.2805 7.3085 14.1399 6.90818C14.0696 6.70828 13.9832 6.52452 13.8817 6.37486C13.7846 6.23189 13.6507 6.08585 13.4721 6.01498L13.2252 6.6371ZM13.7002 8.32708C13.7002 8.48839 13.6188 8.76086 13.4548 9.1176C13.297 9.46083 13.0837 9.8385 12.8662 10.1933C12.6494 10.547 12.4321 10.872 12.2687 11.109C12.1871 11.2274 12.1192 11.3234 12.0718 11.3896C12.0481 11.4227 12.0296 11.4484 12.0171 11.4656C12.0109 11.4742 12.0061 11.4807 12.003 11.485C12.0014 11.4871 12.0002 11.4887 11.9995 11.4898C11.9991 11.4903 11.9989 11.4906 11.9987 11.4909C11.9986 11.491 11.9986 11.491 11.9985 11.4911C11.9985 11.4911 11.9985 11.4911 11.9985 11.4911C11.9985 11.4911 11.9985 11.4911 12.2681 11.6894C12.5377 11.8877 12.5378 11.8876 12.5378 11.8876C12.5378 11.8876 12.5378 11.8875 12.5379 11.8874C12.538 11.8873 12.5381 11.8872 12.5382 11.887C12.5385 11.8867 12.5388 11.8862 12.5393 11.8855C12.5403 11.8842 12.5416 11.8823 12.5434 11.8799C12.547 11.8751 12.5521 11.868 12.5588 11.8587C12.5722 11.8403 12.5916 11.8134 12.6163 11.7789C12.6655 11.71 12.7357 11.6109 12.8197 11.489C12.9876 11.2455 13.2119 10.91 13.4368 10.5431C13.6611 10.1773 13.8895 9.77443 14.0629 9.39723C14.2302 9.03354 14.3696 8.64574 14.3696 8.32708H13.7002ZM11.9456 11.7786L12.039 12.1165L12.6841 11.938L12.5907 11.6001L11.9456 11.7786ZM12.3616 12.0273C12.5679 12.2908 12.568 12.2907 12.5681 12.2906C12.5681 12.2906 12.5682 12.2905 12.5683 12.2905C12.5684 12.2904 12.5686 12.2902 12.5688 12.2901C12.5692 12.2897 12.5698 12.2893 12.5704 12.2888C12.5716 12.2878 12.5734 12.2865 12.5755 12.2848C12.5798 12.2814 12.5858 12.2765 12.5934 12.2704C12.6087 12.258 12.6304 12.2401 12.6579 12.2169C12.7129 12.1705 12.7908 12.103 12.8853 12.016C13.0739 11.8424 13.3298 11.5903 13.6009 11.2746C14.1391 10.6478 14.7571 9.74764 15.0081 8.69496L14.357 8.53973C14.1412 9.44499 13.5987 10.2498 13.0931 10.8385C12.8424 11.1305 12.6055 11.3638 12.432 11.5236C12.3453 11.6034 12.2747 11.6645 12.2264 11.7052C12.2023 11.7256 12.1838 11.7408 12.1717 11.7506C12.1656 11.7555 12.1611 11.7591 12.1584 11.7613C12.157 11.7624 12.156 11.7632 12.1555 11.7636C12.1552 11.7638 12.1551 11.7639 12.155 11.7639C12.155 11.764 12.155 11.764 12.1551 11.7639C12.1551 11.7639 12.1551 11.7639 12.1551 11.7639C12.1552 11.7638 12.1553 11.7638 12.3616 12.0273ZM15.0081 8.69496C15.2689 7.60111 14.926 6.69211 14.5327 6.07151C14.3362 5.76132 14.1244 5.51841 13.9617 5.3527C13.8801 5.2696 13.8101 5.20523 13.7595 5.16083C13.7342 5.13862 13.7137 5.12136 13.6989 5.1092C13.6915 5.10312 13.6856 5.09831 13.6812 5.09479C13.679 5.09303 13.6772 5.09159 13.6757 5.09048C13.675 5.08993 13.6744 5.08945 13.6739 5.08906C13.6737 5.08886 13.6735 5.08869 13.6733 5.08853C13.6732 5.08845 13.673 5.08835 13.673 5.08831C13.6729 5.08822 13.6727 5.08812 13.4674 5.35238C13.262 5.61664 13.2619 5.61656 13.2618 5.61649C13.2618 5.61647 13.2617 5.61639 13.2617 5.61636C13.2616 5.61628 13.2615 5.61622 13.2614 5.61619C13.2614 5.61611 13.2614 5.61611 13.2615 5.61619C13.2617 5.61635 13.2623 5.61682 13.2632 5.6176C13.2652 5.61914 13.2686 5.62191 13.2734 5.62588C13.2831 5.63383 13.2982 5.64655 13.318 5.6639C13.3576 5.69864 13.4154 5.75168 13.4841 5.8217C13.6222 5.96224 13.8017 6.16847 13.9673 6.42977C14.2984 6.95217 14.563 7.67565 14.357 8.53973L15.0081 8.69496ZM13.4972 5.01905L13.3888 5.00936L13.3292 5.67603L13.4376 5.68572L13.4972 5.01905ZM13.0243 4.83789V5.34269H13.6937V4.83789H13.0243Z" fill="#FFD018"/>
<path fill-rule="evenodd" clip-rule="evenodd" d="M9.73621 9.78083C9.73621 9.78083 9.9467 9.21563 10.3148 9.40403C10.6829 9.59243 10.6507 10.2483 10.9856 10.0146C11.3205 9.78083 11.1307 9.40403 11.627 9.40403C12.1232 9.40403 12.0501 10.0146 12.3478 10.0146C12.6454 10.0146 12.6711 9.40403 13.0039 9.40403C13.3366 9.40403 13.674 9.78083 13.674 9.78083L11.7051 12.4599L9.73621 9.78083Z" fill="#8FC753"/>
<path fill-rule="evenodd" clip-rule="evenodd" d="M6.27265 12.9083L6.06089 12.623C6.06089 12.623 6.9391 12.623 7.05824 12.8295C7.09182 12.8877 7.10647 12.9322 7.11763 12.966C7.14604 13.0522 7.15173 13.0695 7.38996 13.0695C7.72167 13.0695 7.38996 12.7404 7.25183 12.623C7.11371 12.5056 7.19782 12.301 7.38996 12.301C7.464 12.301 7.59288 12.284 7.75131 12.2632C8.00396 12.2299 8.33176 12.1867 8.63209 12.1867C9.12075 12.1867 8.71565 12.623 8.71565 12.623C8.71565 12.623 9.34832 12.623 9.19127 12.4414C9.03423 12.2598 9.71864 12.0389 10.0144 12.0389C10.29 12.0389 11.531 12.1008 11.698 12.1092C11.8727 12.1008 13.1699 12.0389 13.4456 12.0389C13.7413 12.0389 14.4257 12.2598 14.2687 12.4414C14.1116 12.623 14.7443 12.623 14.7443 12.623C14.7443 12.623 14.3392 12.1867 14.8278 12.1867C15.1282 12.1867 15.456 12.2299 15.7086 12.2632C15.867 12.284 15.9959 12.301 16.07 12.301C16.2621 12.301 16.3462 12.5056 16.2081 12.623C16.07 12.7404 15.7383 13.0695 16.07 13.0695C16.3082 13.0695 16.3139 13.0522 16.3423 12.966C16.3535 12.9322 16.3681 12.8877 16.4017 12.8295C16.5166 12.6303 17.3378 12.6233 17.3958 12.623C17.3826 12.5988 17.375 12.5708 17.375 12.5409C17.375 12.4485 17.4475 12.3736 17.537 12.3736C17.6264 12.3736 17.6989 12.4485 17.6989 12.5409C17.6989 12.6334 17.6264 12.7083 17.537 12.7083C17.4774 12.7083 17.4253 12.675 17.3972 12.6255L17.1873 12.9083L17.4059 13.179C17.4353 13.1371 17.483 13.1099 17.537 13.1099C17.6264 13.1099 17.6989 13.1848 17.6989 13.2772C17.6989 13.3696 17.6264 13.4445 17.537 13.4445C17.4475 13.4445 17.375 13.3696 17.375 13.2772C17.375 13.2581 17.3781 13.2398 17.3838 13.2227C17.26 13.1625 17.0461 13.0695 16.9073 13.0695H16.5208C16.618 13.0695 17.1533 13.4226 16.9912 13.5756L16.9637 13.6017C16.8047 13.7528 16.5973 13.95 16.4017 13.8425C16.1946 13.7287 16.07 13.5756 16.07 13.5756L15.9077 13.0695C15.9077 13.0695 14.9511 12.8226 14.9511 12.9935C14.9511 13.1644 14.9484 13.2481 14.6092 13.2481C14.4193 13.2481 14.2359 13.2159 14.0744 13.1875C13.9473 13.1652 13.8338 13.1453 13.7413 13.1453C13.609 13.1453 13.4046 13.1861 13.2534 13.2163L13.2534 13.2163C13.1645 13.234 13.094 13.2481 13.0672 13.2481C12.9948 13.2481 12.6075 13.2306 12.8729 13.0695C13.1384 12.9083 13.1996 12.7404 13.1996 12.7404C13.1996 12.7404 12.1371 12.8982 11.7166 12.9079V12.9083L11.6976 12.9082L11.6785 12.9083V12.9079C11.2617 12.8981 10.2604 12.7404 10.2604 12.7404C10.2604 12.7404 10.3215 12.9083 10.587 13.0695C10.8525 13.2306 10.4651 13.2481 10.3927 13.2481C10.3659 13.2481 10.2954 13.234 10.2066 13.2163C10.0553 13.1861 9.85094 13.1453 9.71864 13.1453C9.62617 13.1453 9.51263 13.1652 9.38553 13.1875L9.38553 13.1875C9.224 13.2159 9.04059 13.2481 8.85075 13.2481C8.51154 13.2481 8.50882 13.1644 8.50882 12.9935C8.50882 12.8226 7.55224 13.0695 7.55224 13.0695L7.38996 13.5756C7.38996 13.5756 7.26537 13.7287 7.05824 13.8425C6.86258 13.95 6.6552 13.7528 6.4962 13.6017L6.46875 13.5756C6.30666 13.4226 6.8419 13.0695 6.9391 13.0695H6.55262C6.34755 13.0695 5.97844 13.2726 5.97844 13.2726L6.27265 12.9083ZM5.81281 12.7083C5.90225 12.7083 5.97475 12.6334 5.97475 12.5409C5.97475 12.4485 5.90225 12.3736 5.81281 12.3736C5.72338 12.3736 5.65088 12.4485 5.65088 12.5409C5.65088 12.6334 5.72338 12.7083 5.81281 12.7083ZM5.81281 13.4445C5.90225 13.4445 5.97475 13.3696 5.97475 13.2772C5.97475 13.1848 5.90225 13.1099 5.81281 13.1099C5.72338 13.1099 5.65088 13.1848 5.65088 13.2772C5.65088 13.3696 5.72338 13.4445 5.81281 13.4445Z" fill="white"/>
<path fill-rule="evenodd" clip-rule="evenodd" d="M11.6043 1.9126H11.7381V2.05607H11.9025V2.18994H11.7381V2.43361C11.9227 2.46481 12.0635 2.63037 12.0635 2.82993C12.0635 3.05172 11.8895 3.23153 11.6749 3.23153C11.4603 3.23153 11.2863 3.05172 11.2863 2.82993C11.2863 2.63306 11.4233 2.46927 11.6043 2.43494V2.18994H11.4531V2.05607H11.6043V1.9126Z" fill="#FFD018"/>
<path fill-rule="evenodd" clip-rule="evenodd" d="M10.1668 4.0521C9.97937 4.0521 9.58423 4.25248 9.58423 4.25248L9.89147 4.93383L11.7446 4.86431L13.5978 4.93384L13.905 4.25249C13.905 4.25249 13.5099 4.0521 13.3225 4.0521C13.2402 4.0521 13.2297 4.00369 13.218 3.94938C13.2031 3.88001 13.186 3.80102 13.0146 3.80102C12.8933 3.80102 12.8075 3.82115 12.7381 3.83744C12.6327 3.86221 12.5649 3.87812 12.4672 3.80102C12.4631 3.7978 12.459 3.79458 12.4549 3.79135C12.2967 3.6664 12.1324 3.53662 11.8667 3.53662C11.8136 3.53662 11.774 3.58674 11.7446 3.66749C11.7152 3.58674 11.6756 3.53662 11.6226 3.53662C11.3568 3.53662 11.1925 3.6664 11.0343 3.79135C11.0302 3.79458 11.0261 3.7978 11.0221 3.80102C10.9243 3.87812 10.8566 3.86221 10.7511 3.83744C10.6817 3.82114 10.596 3.80102 10.4747 3.80102C10.3032 3.80102 10.2862 3.88 10.2712 3.94938C10.2595 4.00369 10.249 4.0521 10.1668 4.0521Z" fill="#E31D1C"/>
<path fill-rule="evenodd" clip-rule="evenodd" d="M11.4126 2.94275L11.2825 2.98788C10.9388 3.10712 10.6411 3.14646 10.3897 3.10771C9.87201 3.02793 9.19652 3.29728 9.28116 3.69173C9.31825 3.86459 9.42652 4.19108 9.53911 4.46778C9.69534 4.85172 9.80469 5.0454 9.93259 5.0454C9.94915 5.0454 10.1229 5.05488 10.1807 5.05804C10.1911 5.05861 10.1978 5.05897 10.1991 5.05904C10.3872 5.06856 10.553 5.0736 10.7125 5.07285C11.1738 5.0707 11.4597 5.02542 11.5618 4.88703L11.5918 4.84631L11.5776 4.79726C11.4564 4.38075 11.4004 3.80936 11.4106 3.08452L11.4126 2.94275ZM9.47083 3.6483C9.42933 3.45488 9.95769 3.2442 10.361 3.30635C10.6122 3.34507 10.8969 3.31592 11.2151 3.22018C11.2134 3.86446 11.266 4.3878 11.3736 4.7912C11.2814 4.83945 11.039 4.87056 10.7116 4.87209C10.5561 4.87282 10.3935 4.86788 10.2086 4.85852C10.2102 4.8586 10.018 4.84795 9.95223 4.84525C9.95004 4.84303 9.94747 4.84024 9.9446 4.8369C9.92725 4.81668 9.90557 4.784 9.88114 4.74073C9.83298 4.65543 9.77673 4.53384 9.7182 4.38998C9.60975 4.12346 9.50503 3.80768 9.47083 3.6483Z" fill="#FFD018"/>
<path fill-rule="evenodd" clip-rule="evenodd" d="M11.9793 2.94275L12.1094 2.98788C12.4532 3.10712 12.7508 3.14646 13.0023 3.10771C13.52 3.02793 14.1954 3.29728 14.1108 3.69173C14.0737 3.86459 13.9654 4.19108 13.8529 4.46778C13.6966 4.85172 13.5873 5.0454 13.4594 5.0454C13.4428 5.0454 13.2691 5.05488 13.2113 5.05804C13.2009 5.05861 13.1942 5.05897 13.1929 5.05904C13.0048 5.06856 12.8389 5.0736 12.6794 5.07285C12.2182 5.0707 11.9323 5.02542 11.8302 4.88703L11.8001 4.84631L11.8144 4.79726C11.9355 4.38075 11.9916 3.80936 11.9813 3.08452L11.9793 2.94275ZM13.9211 3.6483C13.9626 3.45488 13.4342 3.2442 13.0309 3.30635C12.7797 3.34507 12.495 3.31592 12.1768 3.22018C12.1785 3.86446 12.1259 4.3878 12.0183 4.7912C12.1105 4.83945 12.3529 4.87056 12.6803 4.87209C12.8358 4.87282 12.9984 4.86788 13.1834 4.85852C13.1817 4.8586 13.3739 4.84795 13.4397 4.84525C13.4419 4.84303 13.4444 4.84024 13.4473 4.8369C13.4647 4.81668 13.4863 4.784 13.5108 4.74073C13.5589 4.65543 13.6152 4.53384 13.6737 4.38998C13.7822 4.12346 13.8869 3.80768 13.9211 3.6483Z" fill="#FFD018"/>
<path fill-rule="evenodd" clip-rule="evenodd" d="M13.0524 2.91931L13.0511 2.91991L13.0519 2.91954L13.0524 2.91931Z" fill="#5E5E5E"/>
<path d="M10.1849 12.5253L10.2256 12.1931C10.9448 12.2812 11.4251 12.3252 11.6671 12.3253C12.032 12.3418 12.4669 12.3153 12.9712 12.2456L13.017 12.5772C12.4939 12.6494 12.0391 12.6771 11.6595 12.6598C11.4069 12.6598 10.9177 12.615 10.1849 12.5253Z" fill="#272727"/>
</g>
</g>
<defs>
<clipPath id="clip0_58_1135">
<rect width="21.4187" height="16.064" fill="white" transform="translate(0.674805 0.586304)"/>
</clipPath>
</defs>
</svg>
