<svg width="23" height="17" viewBox="0 0 23 17" fill="none" xmlns="http://www.w3.org/2000/svg">
<g clip-path="url(#clip0_58_1092)">
<rect width="21.4187" height="16.064" transform="translate(0.862061 0.586304)" fill="white"/>
<path fill-rule="evenodd" clip-rule="evenodd" d="M1.15271 0.554321V16.6184H22.5714V0.554321H1.15271Z" fill="#FBCD17"/>
<path fill-rule="evenodd" clip-rule="evenodd" d="M1.15271 0.554321V5.909H22.5714V0.554321H1.15271Z" fill="#73BE4A"/>
<path fill-rule="evenodd" clip-rule="evenodd" d="M1.15271 11.2637V16.6184H22.5714V11.2637H1.15271Z" fill="#73BE4A"/>
<path fill-rule="evenodd" clip-rule="evenodd" d="M1.15271 0.554321V16.6184L7.84606 8.58634L1.15271 0.554321Z" fill="#C51918"/>
<path fill-rule="evenodd" clip-rule="evenodd" d="M12.5326 9.83849L11.2805 10.5944L11.5661 9.11933L10.5234 8.01539L11.9353 7.9557L12.5326 6.57837L13.13 7.9557H14.5394L13.4992 9.11933L13.8123 10.5944L12.5326 9.83849Z" fill="#272727"/>
<path fill-rule="evenodd" clip-rule="evenodd" d="M17.8873 9.83849L16.6352 10.5944L16.9207 9.11933L15.8781 8.01539L17.2899 7.9557L17.8873 6.57837L18.4846 7.9557H19.8941L18.8538 9.11933L19.167 10.5944L17.8873 9.83849Z" fill="#272727"/>
</g>
<defs>
<clipPath id="clip0_58_1092">
<rect width="21.4187" height="16.064" fill="white" transform="translate(0.862061 0.586304)"/>
</clipPath>
</defs>
</svg>
