<svg width="22" height="17" viewBox="0 0 22 17" fill="none" xmlns="http://www.w3.org/2000/svg">
<g clip-path="url(#clip0_58_1044)">
<rect width="21.4187" height="16.064" transform="translate(0.536865 0.586304)" fill="white"/>
<path fill-rule="evenodd" clip-rule="evenodd" d="M0.827515 0.554199V16.6182H22.2462V0.554199H0.827515Z" fill="#E31D1C"/>
<mask id="mask0_58_1044" style="mask-type:luminance" maskUnits="userSpaceOnUse" x="0" y="0" width="23" height="17">
<path fill-rule="evenodd" clip-rule="evenodd" d="M0.827515 0.554199V16.6182H22.2462V0.554199H0.827515Z" fill="white"/>
</mask>
<g mask="url(#mask0_58_1044)">
<path fill-rule="evenodd" clip-rule="evenodd" d="M0.827515 8.58618V16.6182H22.2462V8.58618H0.827515Z" fill="#2E42A5"/>
</g>
<path fill-rule="evenodd" clip-rule="evenodd" d="M0.827515 -0.784424V17.957L14.2142 8.58627L0.827515 -0.784424Z" fill="#F7FCFF"/>
<mask id="mask1_58_1044" style="mask-type:luminance" maskUnits="userSpaceOnUse" x="0" y="-1" width="15" height="19">
<path fill-rule="evenodd" clip-rule="evenodd" d="M0.827515 -0.784424V17.957L14.2142 8.58627L0.827515 -0.784424Z" fill="white"/>
</mask>
<g mask="url(#mask1_58_1044)">
<path fill-rule="evenodd" clip-rule="evenodd" d="M6.26648 7.37403C7.22812 7.37403 8.00768 6.7464 8.00768 5.97217C8.00768 5.19795 7.22812 4.57031 6.26648 4.57031C5.30483 4.57031 4.52527 5.19795 4.52527 5.97217C4.52527 6.7464 5.30483 7.37403 6.26648 7.37403Z" fill="#FBCD17"/>
<path fill-rule="evenodd" clip-rule="evenodd" d="M6.41876 4.82825C6.27661 4.82825 6.17561 4.91982 6.17561 5.05766L6.17574 5.07286C6.1681 5.09583 6.16382 5.12143 6.16305 5.15009C6.16107 5.22342 6.18838 5.28459 6.24569 5.34069C6.24922 5.35689 6.25105 5.37031 6.25053 5.37793C6.24705 5.36596 6.23322 5.35593 6.20688 5.33684C6.16942 5.30969 6.10669 5.26421 6.01249 5.16878C5.8768 5.03135 5.77441 4.97755 5.64712 4.99893C5.60853 5.00541 5.57076 5.019 5.52541 5.03717C5.4531 5.0632 5.38654 5.06925 5.26365 5.04579C4.92215 4.98061 4.54759 5.04456 4.14209 5.23247L4.2828 5.53612C4.62888 5.37575 4.9342 5.32362 5.2009 5.37452C5.38411 5.40949 5.51133 5.39794 5.6388 5.35204C5.69372 5.33138 5.69853 5.32965 5.70255 5.32897C5.69851 5.32965 5.7011 5.33214 5.71808 5.34845C5.72951 5.35944 5.74747 5.3767 5.77433 5.4039C5.81258 5.44265 5.85257 5.47773 5.89341 5.50963C5.81491 5.53072 5.81897 5.5452 5.83337 5.59658C5.83925 5.61751 5.84683 5.64457 5.85125 5.6807C5.86101 5.76047 5.8448 5.8016 5.85879 5.8213C5.87439 5.84328 5.92758 5.83858 6.09637 5.83105C6.1418 5.82903 6.20324 5.82434 6.27414 5.81763C6.41317 5.80448 6.57053 5.78532 6.66722 5.76947C6.76114 5.75407 6.7861 5.74845 6.82549 5.71978L6.8255 5.71978C6.83912 5.70308 6.85077 5.68879 6.86043 5.67606C7.1816 5.62887 7.46718 5.59535 7.72131 5.57223C7.81242 5.56394 7.88565 5.55825 7.95655 5.55304C7.96493 5.55296 7.96493 5.55296 8.00612 5.54435L8.00613 5.54435C8.02415 5.53669 8.03159 5.53353 8.03411 5.53247L8.03408 5.53254C8.03522 5.53203 8.03589 5.53172 8.03411 5.53247L8.11614 5.33817L8.03139 5.23569C7.97463 5.21785 7.97463 5.21785 7.96749 5.21777C7.95708 5.21716 7.95708 5.21716 7.95112 5.21706C7.92426 5.2169 7.92426 5.2169 7.87439 5.21696H7.87437C7.81877 5.21696 7.77486 5.21226 7.71142 5.20098L7.65243 5.19014C7.39151 5.14227 7.14951 5.14227 6.63628 5.21879C6.62661 5.21131 6.61699 5.20393 6.6076 5.19688C6.69026 5.18251 6.79092 5.17276 6.8973 5.16709L6.8973 5.16709C6.96161 5.1641 6.96161 5.1641 6.99751 5.16314L7.01322 5.16277L7.01126 4.82827L6.98587 4.82825H6.41876ZM6.14148 5.79714L6.17349 5.79049L6.20501 5.78377C6.19924 5.78499 6.19283 5.78633 6.18575 5.7878C6.17321 5.79042 6.15854 5.79348 6.14148 5.79714Z" fill="#DA610A"/>
<path d="M6.13203 6.29763L6.18617 5.96737L6.24032 6.29763C6.90499 6.18866 7.34265 6.20138 7.59624 6.28644C7.88836 6.38442 8.21127 6.35669 8.55084 6.24233C8.44306 6.72276 8.38788 7.17683 8.38788 7.60358C8.38788 8.09007 8.48199 8.48307 8.56738 8.82786C8.56968 8.83711 8.57196 8.84632 8.57423 8.85549C8.65791 9.19312 8.72726 9.47293 8.72726 9.79402C8.72726 10.0823 8.63166 10.2336 8.49804 10.3282C8.34333 10.4378 8.0853 10.5076 7.70267 10.5076C7.16317 10.5076 6.65848 10.6528 6.19377 10.9371L6.18617 10.9317L6.17858 10.9371C5.71387 10.6528 5.20918 10.5076 4.66968 10.5076C4.28705 10.5076 4.02902 10.4378 3.87431 10.3282C3.74069 10.2336 3.64509 10.0823 3.64509 9.79402C3.64509 9.47293 3.71444 9.19312 3.79812 8.85549C3.80039 8.84632 3.80267 8.83711 3.80497 8.82786C3.89036 8.48307 3.98447 8.09007 3.98447 7.60358C3.98447 7.17683 3.92929 6.72276 3.82151 6.24233C4.16108 6.35669 4.48399 6.38442 4.77611 6.28644C5.0297 6.20138 5.46736 6.18866 6.13203 6.29763Z" fill="#56C6F5" stroke="#E31D1C" stroke-width="0.669335"/>
<path fill-rule="evenodd" clip-rule="evenodd" d="M6.70756 7.66539L6.19122 7.20642L5.67487 7.66539H5.82791V7.92992L5.02466 8.43031V9.65425H4.8717V9.88374H7.54904V9.65425H7.35777V8.43031L6.51637 7.90616V7.66539H6.70756Z" fill="#F7FCFF"/>
<path d="M6.19122 7.20642L6.2468 7.14389L6.19122 7.09448L6.13563 7.14389L6.19122 7.20642ZM6.70756 7.66539V7.74906H6.92762L6.76315 7.60286L6.70756 7.66539ZM5.67487 7.66539L5.61929 7.60286L5.45481 7.74906H5.67487V7.66539ZM5.82791 7.66539H5.91158V7.58173H5.82791V7.66539ZM5.82791 7.92992L5.87215 8.00094L5.91158 7.97638V7.92992H5.82791ZM5.02466 8.43031L4.98042 8.35929L4.94099 8.38386V8.43031H5.02466ZM5.02466 9.65425V9.73792H5.10832V9.65425H5.02466ZM4.8717 9.65425V9.57058H4.78804V9.65425H4.8717ZM4.8717 9.88374H4.78804V9.9674H4.8717V9.88374ZM7.54904 9.88374V9.9674H7.63271V9.88374H7.54904ZM7.54904 9.65425H7.63271V9.57058H7.54904V9.65425ZM7.35777 9.65425H7.2741V9.73792H7.35777V9.65425ZM7.35777 8.43031H7.44144V8.38386L7.40201 8.35929L7.35777 8.43031ZM6.51637 7.90616H6.4327V7.95261L6.47213 7.97717L6.51637 7.90616ZM6.51637 7.66539V7.58173H6.4327V7.66539H6.51637ZM6.13563 7.26895L6.65198 7.72793L6.76315 7.60286L6.2468 7.14389L6.13563 7.26895ZM5.73046 7.72793L6.2468 7.26895L6.13563 7.14389L5.61929 7.60286L5.73046 7.72793ZM5.82791 7.58173H5.67487V7.74906H5.82791V7.58173ZM5.74424 7.66539V7.92992H5.91158V7.66539H5.74424ZM5.78367 7.85891L4.98042 8.35929L5.0689 8.50132L5.87215 8.00094L5.78367 7.85891ZM4.94099 8.43031V9.65425H5.10832V8.43031H4.94099ZM5.02466 9.57058H4.8717V9.73792H5.02466V9.57058ZM4.78804 9.65425V9.88374H4.95537V9.65425H4.78804ZM4.8717 9.9674H7.54904V9.80007H4.8717V9.9674ZM7.63271 9.88374V9.65425H7.46538V9.88374H7.63271ZM7.54904 9.57058H7.35777V9.73792H7.54904V9.57058ZM7.44144 9.65425V8.43031H7.2741V9.65425H7.44144ZM7.40201 8.35929L6.56061 7.83514L6.47213 7.97717L7.31353 8.50132L7.40201 8.35929ZM6.60003 7.90616V7.66539H6.4327V7.90616H6.60003ZM6.70756 7.58173H6.51637V7.74906H6.70756V7.58173Z" fill="#3B3B3B"/>
<path d="M6.15008 11.9467C6.86027 11.9467 7.34918 11.8692 7.60094 11.737C7.66695 11.6248 7.7827 11.5614 7.90588 11.566C8.45905 11.5864 8.88748 11.3534 9.22427 10.8412C9.58819 10.2878 9.66131 9.50168 9.42412 8.46983L10.0263 8.33142C10.298 9.51369 10.2093 10.4678 9.74051 11.1807C9.32046 11.8195 8.74773 12.1607 8.04877 12.1838C7.69177 12.4481 7.06616 12.5645 6.15008 12.5645C5.26384 12.5645 4.60675 12.3925 4.18531 12.0268C3.22824 11.8007 2.62004 11.419 2.38089 10.8532C2.12597 10.25 2.12597 9.41273 2.36376 8.33412L2.96712 8.46714C2.75435 9.43223 2.75435 10.1498 2.94999 10.6127C3.08652 10.9357 3.48319 11.1993 4.15523 11.382L4.77959 11.5155L4.74962 11.6732C5.05421 11.8512 5.51973 11.9467 6.15008 11.9467Z" fill="#FBCD17"/>
<path fill-rule="evenodd" clip-rule="evenodd" d="M4.01817 6.69618C3.94918 6.86765 4.03227 7.06258 4.20375 7.13157L4.21438 7.13585L4.19819 7.16949C4.08091 7.41331 4.28161 7.66488 4.51844 7.65004L4.51073 7.68792C4.44202 8.02544 4.83152 8.19414 5.04691 8.02243C5.18454 8.01906 5.31984 7.93672 5.3605 7.76464L5.39853 7.60373L5.39855 7.60374L5.39857 7.60367L5.4139 7.60829C5.72953 7.70348 5.94303 7.35533 5.80378 7.12005C5.84584 7.04355 5.85811 6.95079 5.83051 6.86073C5.77637 6.68401 5.58921 6.58464 5.41249 6.63879L5.06718 6.7446C5.02114 6.73168 4.97178 6.72854 4.922 6.73736C4.88863 6.69946 4.84609 6.66851 4.79583 6.64829L4.45356 6.5106C4.28208 6.44162 4.08715 6.5247 4.01817 6.69618ZM5.39857 7.60367L5.48035 7.25759L5.05802 7.50104L5.39853 7.60373L5.39855 7.60366L5.39857 7.60367Z" fill="#73BE4A"/>
<path fill-rule="evenodd" clip-rule="evenodd" d="M4.98115 7.56619C5.16598 7.56619 5.31582 7.41635 5.31582 7.23152C5.31582 7.04669 5.16598 6.89685 4.98115 6.89685C4.79632 6.89685 4.64648 7.04669 4.64648 7.23152C4.64648 7.41635 4.79632 7.56619 4.98115 7.56619Z" fill="#FBCD17"/>
<path fill-rule="evenodd" clip-rule="evenodd" d="M7.68225 7.29677C7.67678 7.0717 7.65177 6.55774 7.53757 6.55774C7.4227 6.55774 7.40523 7.07772 7.40302 7.30069C7.20526 7.36532 7.0564 7.53548 7.0564 7.53548H8.04135C8.04135 7.53548 7.88619 7.35812 7.68225 7.29677Z" fill="#F7FCFF"/>
<path d="M2.53478 8.9668L2.69964 8.99548C2.56619 9.76258 2.56619 10.3126 2.69508 10.6407C2.8451 11.0225 3.73014 11.5347 3.9805 11.5347V11.702C3.66562 11.702 2.71648 11.1527 2.53934 10.7018C2.39651 10.3383 2.39651 9.76161 2.53478 8.9668Z" fill="#73BE4A"/>
<path d="M9.78407 8.92688L9.61904 8.95457C9.73981 9.67434 9.71274 10.2359 9.54116 10.6385C9.33435 11.1238 8.53566 11.7421 8.32622 11.7421V11.9094C8.60818 11.9094 9.46368 11.2472 9.6951 10.7041C9.88112 10.2676 9.90966 9.67542 9.78407 8.92688Z" fill="#73BE4A"/>
<path d="M5.10669 12.2167L5.13821 12.0524C5.67139 12.1546 6.03561 12.2057 6.22643 12.2057C6.41686 12.2057 6.76137 12.1547 7.25588 12.0526L7.28973 12.2165C6.7846 12.3208 6.43153 12.3731 6.22643 12.3731C6.02174 12.3731 5.64997 12.3209 5.10669 12.2167Z" fill="#73BE4A"/>
</g>
</g>
<defs>
<clipPath id="clip0_58_1044">
<rect width="21.4187" height="16.064" fill="white" transform="translate(0.536865 0.586304)"/>
</clipPath>
</defs>
</svg>
