<svg width="23" height="17" viewBox="0 0 23 17" fill="none" xmlns="http://www.w3.org/2000/svg">
<g clip-path="url(#clip0_58_986)">
<rect width="21.4187" height="16.064" transform="translate(0.837402 0.423584)" fill="white"/>
<path fill-rule="evenodd" clip-rule="evenodd" d="M1.12805 0.391602H22.5468V16.4556H1.12805V0.391602Z" fill="#3D58DB"/>
<path d="M1.12805 3.73826H0.458717V4.40759V12.4396V13.1089H1.12805H22.5468H23.2161V12.4396V4.40759V3.73826H22.5468H1.12805Z" fill="#C51918" stroke="#FFD018" stroke-width="1.33867"/>
<path d="M5.91332 6.63719C5.83303 6.63719 5.76794 6.45566 5.76794 6.23174C5.76794 6.00782 5.83303 5.82629 5.91332 5.82629H17.567C17.6473 5.82629 17.7123 6.00782 17.7123 6.23174C17.7123 6.45566 17.6473 6.63719 17.567 6.63719H5.91332Z" fill="#FFD018"/>
<path fill-rule="evenodd" clip-rule="evenodd" d="M17.2559 6.14931L17.9326 5.28601L19.13 6.14931L17.9326 7.03532L17.2559 6.14931Z" fill="#F7FCFF"/>
<path d="M5.91332 9.31456C5.83303 9.31456 5.76794 9.13303 5.76794 8.90911C5.76794 8.68519 5.83303 8.50366 5.91332 8.50366H17.567C17.6473 8.50366 17.7123 8.68519 17.7123 8.90911C17.7123 9.13303 17.6473 9.31456 17.567 9.31456H5.91332Z" fill="#FFD018"/>
<path fill-rule="evenodd" clip-rule="evenodd" d="M17.2559 8.82668L17.9326 7.96338L19.13 8.82668L17.9326 9.71269L17.2559 8.82668Z" fill="#F7FCFF"/>
<path d="M4.03659 10.9816C3.92894 10.9816 3.84167 10.7755 3.84167 10.5213C3.84167 10.267 3.92894 10.0609 4.03659 10.0609H19.6617C19.7693 10.0609 19.8566 10.267 19.8566 10.5213C19.8566 10.7755 19.7693 10.9816 19.6617 10.9816H4.03659Z" fill="#FFD018"/>
<path fill-rule="evenodd" clip-rule="evenodd" d="M7.02979 8.45893C7.02979 8.45893 8.9316 4.4563 11.6517 4.4563C14.3718 4.4563 16.3376 8.45893 16.3376 8.45893C16.3376 8.45893 13.9373 12.409 11.6837 12.409C9.43012 12.409 7.02979 8.45893 7.02979 8.45893Z" fill="#F7FCFF"/>
<mask id="mask0_58_986" style="mask-type:luminance" maskUnits="userSpaceOnUse" x="7" y="4" width="10" height="9">
<path fill-rule="evenodd" clip-rule="evenodd" d="M7.02979 8.45893C7.02979 8.45893 8.9316 4.4563 11.6517 4.4563C14.3718 4.4563 16.3376 8.45893 16.3376 8.45893C16.3376 8.45893 13.9373 12.409 11.6837 12.409C9.43012 12.409 7.02979 8.45893 7.02979 8.45893Z" fill="white"/>
</mask>
<g mask="url(#mask0_58_986)">
<path fill-rule="evenodd" clip-rule="evenodd" d="M11.7867 4.19348C11.7867 4.19348 11.1661 4.94729 11.373 5.6661C11.5799 6.38491 12.0619 6.30899 12.0619 6.94202C12.0619 7.57505 11.8392 8.22065 12.0619 8.22065C12.2846 8.22065 12.3617 8.65749 12.1582 8.95364C11.9547 9.2498 11.7747 9.25895 11.7867 9.74094C11.7988 10.2229 12.8523 10.6961 12.342 10.6961C11.8316 10.6961 11.159 11.1914 11.373 11.1914C11.587 11.1914 12.7067 11.5774 12.7067 12.0839C12.7067 12.5904 12.7067 12.9958 12.7067 12.9958H6.86511V4.19348H11.7867Z" fill="#272727"/>
<path fill-rule="evenodd" clip-rule="evenodd" d="M9.89667 7.03345H9.60592V8.21766H9.89667V7.03345ZM9.03892 7.03346H8.74817V8.21767H9.03892V7.03346ZM9.17705 7.03345H9.4678V8.21766H9.17705V7.03345ZM10.3255 7.03345H10.0347V8.21766H10.3255V7.03345ZM10.4636 7.03345H10.7543V8.21766H10.4636V7.03345ZM11.1832 7.03345H10.8925V8.21766H11.1832V7.03345ZM8.74817 8.73252H9.03892V9.91673H8.74817V8.73252ZM9.89667 8.73252H9.60592V9.91673H9.89667V8.73252ZM9.17705 8.73252H9.4678V9.91673H9.17705V8.73252ZM10.3255 8.73252H10.0347V9.91673H10.3255V8.73252ZM10.4636 8.73252H10.7543V9.91673H10.4636V8.73252ZM11.1832 8.73252H10.8925V9.91673H11.1832V8.73252Z" fill="#F7FCFF"/>
<path fill-rule="evenodd" clip-rule="evenodd" d="M13.3494 7.03345H13.0587V8.21766H13.3494V7.03345ZM12.4917 7.03346H12.2009V8.21767H12.4917V7.03346ZM12.6298 7.03345H12.9206V8.21766H12.6298V7.03345ZM13.7782 7.03345H13.4875V8.21766H13.7782V7.03345ZM13.9164 7.03345H14.2071V8.21766H13.9164V7.03345ZM14.636 7.03345H14.3452V8.21766H14.636V7.03345ZM12.2009 8.73252H12.4917V9.91673H12.2009V8.73252ZM13.3494 8.73252H13.0587V9.91673H13.3494V8.73252ZM12.6298 8.73252H12.9206V9.91673H12.6298V8.73252ZM13.7782 8.73252H13.4875V9.91673H13.7782V8.73252ZM13.9164 8.73252H14.2071V9.91673H13.9164V8.73252ZM14.636 8.73252H14.3452V9.91673H14.636V8.73252Z" fill="#272727"/>
<path fill-rule="evenodd" clip-rule="evenodd" d="M9.98452 5.12481C9.57723 5.251 9.39085 6.31913 9.43638 6.57731C9.4819 6.83549 9.62009 6.54492 9.62009 6.54492C9.62009 6.54492 9.90191 7.15743 9.93097 7.32222C9.96003 7.48701 10.1084 7.07312 10.1084 7.07312C10.1084 7.07312 10.5973 7.40988 10.6634 7.78511C10.7296 8.16035 10.8291 7.35572 10.8291 7.35572C10.8291 7.35572 10.9398 7.3362 10.9398 7.3362C10.9398 7.3362 10.8698 6.93887 10.8698 6.93887L11.081 7.11945L11.0158 6.74995C11.0158 6.74995 11.1748 6.95779 11.1345 6.72902C11.0942 6.50025 11.0716 6.37254 11.0716 6.37254L11.0165 6.05985L11.2255 6.023C11.2255 6.023 10.3918 4.99862 9.98452 5.12481Z" fill="#3D58DB"/>
</g>
<path fill-rule="evenodd" clip-rule="evenodd" d="M18.5899 9.55877C18.1669 9.61232 17.7979 10.6319 17.7979 10.894C17.7979 11.1562 17.9844 10.894 17.9844 10.894C17.9844 10.894 18.1556 11.5462 18.1556 11.7135C18.1556 11.8808 18.3736 11.499 18.3736 11.499C18.3736 11.499 18.7965 11.9155 18.7965 12.2965C18.7965 12.6776 19.0343 11.9024 19.0343 11.9024C19.0343 11.9024 19.1467 11.9024 19.1467 11.9024C19.1467 11.9024 19.1467 11.499 19.1467 11.499L19.3233 11.7135V11.3383C19.3233 11.3383 19.4438 11.5706 19.4438 11.3383C19.4438 11.106 19.4438 10.9763 19.4438 10.9763V10.6588H19.6561C19.6561 10.6588 19.0129 9.50523 18.5899 9.55877Z" fill="#3D58DB"/>
<path fill-rule="evenodd" clip-rule="evenodd" d="M4.87165 9.40423C5.29467 9.45778 5.6637 10.4773 5.6637 10.7395C5.6637 11.0016 5.47715 10.7395 5.47715 10.7395C5.47715 10.7395 5.30597 11.3916 5.30597 11.559C5.30597 11.7263 5.08794 11.3445 5.08794 11.3445C5.08794 11.3445 4.66502 11.761 4.66502 12.142C4.66502 12.523 4.42729 11.7479 4.42729 11.7479C4.42729 11.7479 4.31485 11.7479 4.31485 11.7479C4.31485 11.7479 4.31485 11.3445 4.31485 11.3445L4.13824 11.559V11.1838C4.13824 11.1838 4.01771 11.4161 4.01771 11.1838C4.01771 10.9515 4.01771 10.8218 4.01771 10.8218V10.5043H3.80547C3.80547 10.5043 4.44864 9.35069 4.87165 9.40423Z" fill="#3D58DB"/>
</g>
<defs>
<clipPath id="clip0_58_986">
<rect width="21.4187" height="16.064" fill="white" transform="translate(0.837402 0.423584)"/>
</clipPath>
</defs>
</svg>
