<svg width="22" height="17" viewBox="0 0 22 17" fill="none" xmlns="http://www.w3.org/2000/svg">
<g clip-path="url(#clip0_58_948)">
<rect width="21.4187" height="16.064" transform="translate(0.349609 0.423584)" fill="white"/>
<path fill-rule="evenodd" clip-rule="evenodd" d="M0.640259 0.391602V16.4556H22.059V0.391602H0.640259Z" fill="#2E42A5"/>
<mask id="mask0_58_948" style="mask-type:luminance" maskUnits="userSpaceOnUse" x="0" y="0" width="23" height="17">
<path fill-rule="evenodd" clip-rule="evenodd" d="M0.640259 0.391602V16.4556H22.059V0.391602H0.640259Z" fill="white"/>
</mask>
<g mask="url(#mask0_58_948)">
<path fill-rule="evenodd" clip-rule="evenodd" d="M15.8991 4.54138H18.6032L18.0783 5.54808H16.444V6.08881H17.6969L17.1866 7.02536H16.444V8.89835L17.667 6.97115L19.2498 9.71181H18.6032L18.3774 9.41173H16.9447L15.9373 11.2732L15.9376 11.376L15.9097 11.3243L15.8817 11.3759L15.882 11.2732L14.8746 9.41179H13.442L13.2161 9.71187H12.5695L14.1523 6.9712L15.3753 8.89841V5.54813H13.741L13.2161 4.54144H15.8991V4.54138ZM17.6986 8.09526L17.347 8.6359H18.0125L17.6986 8.09526ZM14.1208 8.09532L14.4723 8.63596H13.8068L14.1208 8.09532ZM11.5595 7.49546L12.1157 7.08537L12.672 7.49546L12.4757 6.80825L13.0157 6.3745L12.3382 6.35987L12.1157 5.6817L11.8932 6.35987L11.2157 6.3745L11.7557 6.80825L11.5595 7.49546ZM19.6864 7.08537L19.1302 7.49546L19.3264 6.80825L18.7864 6.3745L19.4639 6.35987L19.6864 5.6817L19.9089 6.35987L20.5864 6.3745L20.0464 6.80825L20.2427 7.49546L19.6864 7.08537ZM17.4268 12.308L17.983 11.8979L18.5393 12.308L18.343 11.6208L18.883 11.1871L18.2055 11.1724L17.983 10.4943L17.7605 11.1724L17.083 11.1871L17.623 11.6208L17.4268 12.308ZM13.8191 11.8979L13.2629 12.308L13.4591 11.6208L12.9191 11.1871L13.5966 11.1724L13.8191 10.4943L14.0416 11.1724L14.7191 11.1871L14.1791 11.6208L14.3754 12.308L13.8191 11.8979ZM15.3448 13.9122L15.9011 13.5021L16.4573 13.9122L16.2611 13.2249L16.8011 12.7912L16.1236 12.7766L15.9011 12.0984L15.6786 12.7766L15.0011 12.7912L15.5411 13.2249L15.3448 13.9122Z" fill="#F7FCFF"/>
<path fill-rule="evenodd" clip-rule="evenodd" d="M5.995 0.391602H8.67234V7.08495H5.995V0.391602Z" fill="#F50100"/>
<path fill-rule="evenodd" clip-rule="evenodd" d="M0.640259 0.391602H3.3176V7.08495H0.640259V0.391602Z" fill="#2E42A5"/>
<path fill-rule="evenodd" clip-rule="evenodd" d="M3.31763 0.391602H5.99497V7.08495H3.31763V0.391602Z" fill="#F7FCFF"/>
</g>
</g>
<defs>
<clipPath id="clip0_58_948">
<rect width="21.4187" height="16.064" fill="white" transform="translate(0.349609 0.423584)"/>
</clipPath>
</defs>
</svg>
