<svg width="23" height="17" viewBox="0 0 23 17" fill="none" xmlns="http://www.w3.org/2000/svg">
<g clip-path="url(#clip0_58_907)">
<rect width="21.4187" height="16.064" transform="translate(0.862061 0.423584)" fill="white"/>
<path fill-rule="evenodd" clip-rule="evenodd" d="M1.15271 0.391602H22.5714V16.4556H1.15271V0.391602Z" fill="#F7FCFF"/>
<path fill-rule="evenodd" clip-rule="evenodd" d="M1.15271 0.391602V5.74628H22.5714V0.391602H1.15271Z" fill="#C51918"/>
<path fill-rule="evenodd" clip-rule="evenodd" d="M1.15271 11.101V16.4556H22.5714V11.101H1.15271Z" fill="#409100"/>
<path fill-rule="evenodd" clip-rule="evenodd" d="M11.8756 6.1677L11.4799 6.44729L11.6195 5.97876L11.2353 5.68303L11.7173 5.67306L11.8756 5.21069L12.0338 5.67306L12.5158 5.68303L12.1317 5.97876L12.2713 6.44729L11.8756 6.1677ZM10.2041 6.57786L9.80841 6.85746L9.94801 6.38893L9.56386 6.0932L10.0458 6.08322L10.2041 5.62086L10.3624 6.08322L10.8444 6.0932L10.4602 6.38893L10.5998 6.85746L10.2041 6.57786ZM8.50847 8.08787L8.90417 7.80827L9.29987 8.08787L9.16027 7.61934L9.54442 7.32361L9.06245 7.31363L8.90417 6.85127L8.74589 7.31363L8.26391 7.32361L8.64807 7.61934L8.50847 8.08787ZM8.48632 9.40326L8.09063 9.68285L8.23022 9.21432L7.84607 8.91859L8.32804 8.90861L8.48632 8.44625L8.6446 8.90861L9.12658 8.91859L8.74243 9.21432L8.88202 9.68285L8.48632 9.40326ZM14.8226 9.68285L15.2183 9.40326L15.614 9.68285L15.4744 9.21432L15.8586 8.91859L15.3766 8.90861L15.2183 8.44625L15.06 8.90861L14.5781 8.91859L14.9622 9.21432L14.8226 9.68285ZM14.7077 7.80827L14.312 8.08787L14.4516 7.61934L14.0674 7.32361L14.5494 7.31363L14.7077 6.85127L14.8659 7.31363L15.3479 7.32361L14.9638 7.61934L15.1034 8.08787L14.7077 7.80827ZM13.0315 6.85746L13.4272 6.57786L13.8229 6.85746L13.6833 6.38893L14.0674 6.0932L13.5854 6.08322L13.4272 5.62086L13.2689 6.08322L12.7869 6.0932L13.1711 6.38893L13.0315 6.85746ZM9.63141 11.6059L9.50803 11.1665C10.1908 10.9818 10.9746 10.8899 11.8597 10.8899C12.7448 10.8899 13.5286 10.9818 14.2114 11.1665L14.088 11.6059C13.448 11.4327 12.7052 11.3456 11.8597 11.3456C11.0142 11.3456 10.2714 11.4327 9.63141 11.6059ZM10.4769 10.9014C10.2045 10.9477 9.98176 10.6844 9.98176 10.6844L10.252 10.5727C10.2435 10.3853 10.3565 10.2692 10.3565 10.2692C10.4479 10.3113 10.5726 10.5413 10.5726 10.5413H10.8176C10.8176 10.5413 10.7494 10.8551 10.4769 10.9014ZM13.6961 10.7299C13.6961 10.7299 13.4733 10.9932 13.2009 10.9469C12.9285 10.9006 12.8603 10.5869 12.8603 10.5869H13.1052C13.1052 10.5869 13.23 10.3568 13.3214 10.3147C13.3214 10.3147 13.4344 10.4309 13.4259 10.6182L13.6961 10.7299ZM11.8255 10.8179C11.5493 10.8258 11.3654 10.5341 11.3654 10.5341L11.6485 10.4611C11.6661 10.2744 11.7942 10.1751 11.7942 10.1751C11.8789 10.2295 11.9704 10.4747 11.9704 10.4747L12.213 10.5088C12.213 10.5088 12.1017 10.81 11.8255 10.8179Z" fill="#FFBB00"/>
<path fill-rule="evenodd" clip-rule="evenodd" d="M11.8344 9.56046C11.8344 9.56046 11.5205 10.2789 11.026 10.3344C10.5316 10.39 10.2805 9.92584 10.2805 9.92584C10.2805 9.92584 10.2481 10.4085 9.66099 10.5946C9.07384 10.7806 8.76465 10.0373 8.76465 10.0373C8.76465 10.0373 9.07034 10.3107 9.54445 10.1915C10.0186 10.0724 10.2057 9.63237 10.2057 9.63237C10.2057 9.63237 10.5566 10.0911 11.026 9.86174C11.4955 9.63237 11.7552 9.35204 11.7552 9.08305V8.27862C11.7552 8.27862 11.6341 8.07002 11.424 8.07002C11.2139 8.07002 11.1553 8.2179 11.1553 8.2179C11.1553 8.2179 11.0733 7.38102 11.8289 7.3293L11.8289 7.32727L11.8498 7.32808L11.8707 7.32727L11.8706 7.3293C12.6263 7.38102 12.5443 8.2179 12.5443 8.2179C12.5443 8.2179 12.4857 8.07002 12.2756 8.07002C12.0654 8.07002 11.9443 8.27862 11.9443 8.27862V9.08305C11.9443 9.35204 12.2041 9.63237 12.6735 9.86174C13.143 10.0911 13.4939 9.63237 13.4939 9.63237C13.4939 9.63237 13.681 10.0724 14.1551 10.1915C14.6292 10.3107 14.9349 10.0373 14.9349 10.0373C14.9349 10.0373 14.6257 10.7806 14.0386 10.5946C13.4514 10.4085 13.419 9.92584 13.419 9.92584C13.419 9.92584 13.1679 10.39 12.6735 10.3344C12.1791 10.2789 11.8652 9.56046 11.8652 9.56046L11.8498 8.61232L11.8344 9.56046ZM11.8274 7.55468C11.4788 7.55468 11.4082 7.84979 11.4082 7.84979C11.7152 7.84979 11.8274 7.98359 11.8274 7.98359C11.8274 7.98359 12.0547 7.84979 12.2835 7.84979C12.2835 7.84979 12.176 7.55468 11.8274 7.55468Z" fill="#FFBB00"/>
</g>
<defs>
<clipPath id="clip0_58_907">
<rect width="21.4187" height="16.064" fill="white" transform="translate(0.862061 0.423584)"/>
</clipPath>
</defs>
</svg>
