<svg width="22" height="17" viewBox="0 0 22 17" fill="none" xmlns="http://www.w3.org/2000/svg">
<g clip-path="url(#clip0_58_886)">
<rect width="21.4187" height="16.064" transform="translate(0.536865 0.423584)" fill="white"/>
<path d="M0.827515 -0.277734H0.15818V0.391602V16.4556V17.125H0.827515H22.2462H22.9156V16.4556V0.391602V-0.277734H22.2462H0.827515Z" fill="#E31D1C" stroke="#F7FCFF" stroke-width="1.33867"/>
<path fill-rule="evenodd" clip-rule="evenodd" d="M0.827515 0.391602L16.8916 8.42362L0.827515 16.4556V0.391602Z" fill="#FECA00"/>
<path fill-rule="evenodd" clip-rule="evenodd" d="M0.827515 0.391602L11.5369 8.42362L0.827515 16.4556V0.391602Z" fill="#272727"/>
<path fill-rule="evenodd" clip-rule="evenodd" d="M5.27715 10.0359L3.92542 11.4415L3.78421 9.44319L2.06036 8.38126L3.85811 7.81716L4.15211 5.83716L5.39673 7.40489L7.21198 6.9185L6.27374 8.77612L7.18613 10.5678L5.27715 10.0359Z" fill="#F7FCFF"/>
</g>
<defs>
<clipPath id="clip0_58_886">
<rect width="21.4187" height="16.064" fill="white" transform="translate(0.536865 0.423584)"/>
</clipPath>
</defs>
</svg>
