<svg width="22" height="17" viewBox="0 0 22 17" fill="none" xmlns="http://www.w3.org/2000/svg">
<g clip-path="url(#clip0_58_619)">
<rect width="21.4187" height="16.064" transform="translate(0 0.261108)" fill="white"/>
<path fill-rule="evenodd" clip-rule="evenodd" d="M0.290649 0.229126V16.2932H21.7094V0.229126H0.290649Z" fill="#29C470"/>
<mask id="mask0_58_619" style="mask-type:luminance" maskUnits="userSpaceOnUse" x="0" y="0" width="22" height="17">
<path fill-rule="evenodd" clip-rule="evenodd" d="M0.290649 0.229126V16.2932H21.7094V0.229126H0.290649Z" fill="white"/>
</mask>
<g mask="url(#mask0_58_619)">
<rect x="1.62939" y="0.0129395" width="6.69335" height="17.6189" fill="#C51918"/>
<mask id="mask1_58_619" style="mask-type:luminance" maskUnits="userSpaceOnUse" x="1" y="0" width="8" height="18">
<rect x="1.62939" y="0.0129395" width="6.69335" height="17.6189" fill="white"/>
</mask>
<g mask="url(#mask1_58_619)">
<path fill-rule="evenodd" clip-rule="evenodd" d="M2.02789 0.835218L1.66237 1.3049L1.62939 1.2723L1.98402 0.816607V0.725132L1.98536 0.716634L2.02659 0.589672L2.00136 0.545444L1.79222 0.754554L2.19535 0.126711V0.341249L2.27272 0.41108L2.4575 0.0878834L2.27209 -0.223168L2.13828 -0.120333L2.19255 -0.01132L2.15523 0.0145891L1.85316 -0.490772L2.04561 -0.359182L2.07951 -0.40834L1.89509 -0.596188L1.97666 -0.686019L1.70713 -1.0794L1.74184 -1.10962L2.03524 -0.681409L1.95913 -0.597593L2.13913 -0.414242L2.05626 -0.29407L2.00107 -0.33181L2.10637 -0.155644L2.28387 -0.29206L2.51001 0.0873171L2.28325 0.483927L2.15149 0.364997V0.279352L2.01922 0.485349L2.07527 0.583594L2.02789 0.729514V0.835218ZM1.6624 4.66697L2.02791 4.19728V4.09158L2.0753 3.94566L2.01924 3.84741L2.15151 3.64142V3.72706L2.28328 3.84599L2.51004 3.44938L2.2839 3.07L2.10639 3.20642L2.00109 3.03026L2.05629 3.068L2.13916 2.94782L1.95916 2.76447L2.03527 2.68066L1.74187 2.25245L1.70715 2.28267L1.97669 2.67605L1.89512 2.76588L2.07953 2.95373L2.04563 3.00288L1.85318 2.87129L2.15526 3.37665L2.19257 3.35074L2.13831 3.24173L2.27212 3.1389L2.45753 3.44995L2.27274 3.77314L2.19538 3.70331V3.48878L1.79224 4.11662L2.00138 3.90751L2.02662 3.95174L1.98538 4.0787L1.98405 4.0872V4.17867L1.62942 4.63436L1.6624 4.66697ZM2.02791 7.26256L1.6624 7.73225L1.62942 7.69964L1.98405 7.24395V7.15248L1.98538 7.14398L2.02662 7.01702L2.00138 6.97279L1.79224 7.1819L2.19538 6.55406V6.76859L2.27274 6.83842L2.45753 6.51523L2.27212 6.20418L2.13831 6.30701L2.19257 6.41602L2.15526 6.44193L1.85318 5.93657L2.04563 6.06816L2.07953 6.01901L1.89512 5.83116L1.97669 5.74133L1.70715 5.34795L1.74187 5.31773L2.03527 5.74594L1.95916 5.82975L2.13916 6.0131L2.05629 6.13328L2.00109 6.09554L2.10639 6.2717L2.2839 6.13528L2.51004 6.51466L2.28328 6.91127L2.15151 6.79234V6.7067L2.01924 6.91269L2.0753 7.01094L2.02791 7.15686V7.26256ZM1.6624 10.847L2.02791 10.3774V10.2717L2.0753 10.1257L2.01924 10.0275L2.15151 9.82149V9.90714L2.28328 10.0261L2.51004 9.62946L2.2839 9.25008L2.10639 9.38649L2.00109 9.21033L2.05629 9.24807L2.13916 9.1279L1.95916 8.94455L2.03527 8.86073L1.74187 8.43252L1.70715 8.46274L1.97669 8.85612L1.89512 8.94595L2.07953 9.1338L2.04563 9.18296L1.85318 9.05137L2.15526 9.55673L2.19257 9.53082L2.13831 9.42181L2.27212 9.31897L2.45753 9.63002L2.27274 9.95322L2.19538 9.88339V9.66885L1.79224 10.2967L2.00138 10.0876L2.02662 10.1318L1.98538 10.2588L1.98405 10.2673V10.3587L1.62942 10.8144L1.6624 10.847ZM1.6624 13.6158L2.02791 13.1461V13.0404L2.0753 12.8945L2.01924 12.7963L2.15151 12.5903V12.6759L2.28328 12.7948L2.51004 12.3982L2.2839 12.0188L2.10639 12.1553L2.00109 11.9791L2.05629 12.0168L2.13916 11.8967L1.95916 11.7133L2.03527 11.6295L1.74187 11.2013L1.70715 11.2315L1.97669 11.6249L1.89512 11.7147L2.07953 11.9026L2.04563 11.9517L1.85318 11.8201L2.15526 12.3255L2.19257 12.2996L2.13831 12.1906L2.27212 12.0877L2.45753 12.3988L2.27274 12.722L2.19538 12.6522V12.4376L1.79224 13.0655L2.00138 12.8564L2.02662 12.9006L1.98538 13.0275L1.98405 13.036V13.1275L1.62942 13.5832L1.6624 13.6158ZM8.2898 13.6158L7.92428 13.1461V13.0404L7.87689 12.8945L7.93295 12.7963L7.80068 12.5903V12.6759L7.66892 12.7948L7.44215 12.3982L7.66829 12.0188L7.8458 12.1553L7.9511 11.9791L7.89591 12.0168L7.81303 11.8967L7.99303 11.7133L7.91692 11.6295L8.21032 11.2013L8.24504 11.2315L7.9755 11.6249L8.05707 11.7147L7.87266 11.9026L7.90656 11.9517L8.09901 11.8201L7.79693 12.3255L7.75962 12.2996L7.81388 12.1906L7.68007 12.0877L7.49466 12.3988L7.67945 12.722L7.75681 12.6522V12.4376L8.15995 13.0655L7.95081 12.8564L7.92557 12.9006L7.96681 13.0275L7.96814 13.036V13.1275L8.32277 13.5832L8.2898 13.6158ZM7.92428 10.3774L8.2898 10.847L8.32277 10.8144L7.96814 10.3587V10.2673L7.96681 10.2588L7.92557 10.1318L7.95081 10.0876L8.15995 10.2967L7.75681 9.66885V9.88339L7.67945 9.95322L7.49466 9.63002L7.68007 9.31897L7.81388 9.42181L7.75962 9.53082L7.79693 9.55673L8.09901 9.05137L7.90656 9.18296L7.87266 9.1338L8.05707 8.94595L7.9755 8.85612L8.24504 8.46274L8.21032 8.43252L7.91692 8.86073L7.99303 8.94455L7.81303 9.1279L7.89591 9.24807L7.9511 9.21033L7.8458 9.38649L7.66829 9.25008L7.44215 9.62946L7.66892 10.0261L7.80068 9.90714V9.82149L7.93295 10.0275L7.87689 10.1257L7.92428 10.2717V10.3774ZM8.2898 7.73225L7.92428 7.26256V7.15686L7.87689 7.01094L7.93295 6.91269L7.80068 6.7067V6.79234L7.66892 6.91127L7.44215 6.51466L7.66829 6.13528L7.8458 6.2717L7.9511 6.09554L7.89591 6.13328L7.81303 6.0131L7.99303 5.82975L7.91692 5.74594L8.21032 5.31773L8.24504 5.34795L7.9755 5.74133L8.05707 5.83116L7.87266 6.01901L7.90656 6.06816L8.09901 5.93657L7.79693 6.44193L7.75962 6.41602L7.81388 6.30701L7.68007 6.20418L7.49466 6.51523L7.67945 6.83842L7.75681 6.76859V6.55406L8.15995 7.1819L7.95081 6.97279L7.92557 7.01702L7.96681 7.14398L7.96814 7.15248V7.24395L8.32277 7.69964L8.2898 7.73225ZM7.92428 4.19728L8.2898 4.66697L8.32277 4.63436L7.96814 4.17867V4.0872L7.96681 4.0787L7.92557 3.95174L7.95081 3.90751L8.15995 4.11662L7.75681 3.48878V3.70331L7.67945 3.77314L7.49466 3.44995L7.68007 3.1389L7.81388 3.24173L7.75962 3.35074L7.79693 3.37665L8.09901 2.87129L7.90656 3.00288L7.87266 2.95373L8.05707 2.76588L7.9755 2.67605L8.24504 2.28267L8.21032 2.25245L7.91692 2.68066L7.99303 2.76447L7.81303 2.94782L7.89591 3.068L7.9511 3.03026L7.8458 3.20642L7.66829 3.07L7.44215 3.44938L7.66892 3.84599L7.80068 3.72706V3.64142L7.93295 3.84741L7.87689 3.94566L7.92428 4.09158V4.19728ZM8.2898 1.30493L7.92428 0.835247V0.729543L7.87689 0.583623L7.93295 0.485378L7.80068 0.279381V0.365025L7.66892 0.483956L7.44215 0.0873458L7.66829 -0.292031L7.8458 -0.155616L7.9511 -0.331781L7.89591 -0.294041L7.81303 -0.414213L7.99303 -0.597564L7.91692 -0.681381L8.21032 -1.10959L8.24504 -1.07937L7.9755 -0.68599L8.05707 -0.596159L7.87266 -0.408311L7.90656 -0.359153L8.09901 -0.490743L7.79693 0.0146178L7.75962 -0.0112913L7.81388 -0.120304L7.68007 -0.223139L7.49466 0.0879121L7.67945 0.411108L7.75681 0.341277V0.12674L8.15995 0.754583L7.95081 0.545473L7.92557 0.589701L7.96681 0.716663L7.96814 0.72516V0.816635L8.32277 1.27233L8.2898 1.30493Z" fill="#E8AA00"/>
<path fill-rule="evenodd" clip-rule="evenodd" d="M5.18138 9.97774H6.22122V10.2217H6.45814V10.417H6.74245V11.0515H6.45814V11.2466H6.22122V11.4419H5.20905L4.92911 11.6907L4.64783 11.4419H3.70974V11.2466H3.47279V11.0515H3.23584V10.417H3.47279V10.2217H3.70974V9.97774H4.67564L4.92911 9.75354L5.18138 9.97774Z" fill="#389F5D"/>
<path d="M6.22122 9.97774H6.38856V9.81041H6.22122V9.97774ZM5.18138 9.97774L5.07022 10.1028L5.11777 10.1451H5.18138V9.97774ZM6.22122 10.2217H6.05389V10.389H6.22122V10.2217ZM6.45814 10.2217H6.62547V10.0544H6.45814V10.2217ZM6.45814 10.417H6.29081V10.5843H6.45814V10.417ZM6.74245 10.417H6.90978V10.2497H6.74245V10.417ZM6.74245 11.0515V11.2188H6.90978V11.0515H6.74245ZM6.45814 11.0515V10.8841H6.29081V11.0515H6.45814ZM6.45814 11.2466V11.414H6.62547V11.2466H6.45814ZM6.22122 11.2466V11.0793H6.05389V11.2466H6.22122ZM6.22122 11.4419V11.6092H6.38856V11.4419H6.22122ZM5.20905 11.4419V11.2746H5.14544L5.09789 11.3168L5.20905 11.4419ZM4.92911 11.6907L4.81825 11.816L4.92937 11.9143L5.04027 11.8158L4.92911 11.6907ZM4.64783 11.4419L4.7587 11.3166L4.71122 11.2746H4.64783V11.4419ZM3.70974 11.4419H3.5424V11.6092H3.70974V11.4419ZM3.70974 11.2466H3.87707V11.0793H3.70974V11.2466ZM3.47279 11.2466H3.30545V11.414H3.47279V11.2466ZM3.47279 11.0515H3.64012V10.8841H3.47279V11.0515ZM3.23584 11.0515H3.06851V11.2188H3.23584V11.0515ZM3.23584 10.417V10.2497H3.06851V10.417H3.23584ZM3.47279 10.417V10.5843H3.64012V10.417H3.47279ZM3.47279 10.2217V10.0544H3.30545V10.2217H3.47279ZM3.70974 10.2217V10.389H3.87707V10.2217H3.70974ZM3.70974 9.97774V9.81041H3.5424V9.97774H3.70974ZM4.67564 9.97774V10.1451H4.73903L4.7865 10.1031L4.67564 9.97774ZM4.92911 9.75354L5.04027 9.62846L4.92937 9.52991L4.81825 9.6282L4.92911 9.75354ZM6.22122 9.81041H5.18138V10.1451H6.22122V9.81041ZM6.38856 10.2217V9.97774H6.05389V10.2217H6.38856ZM6.45814 10.0544H6.22122V10.389H6.45814V10.0544ZM6.62547 10.417V10.2217H6.29081V10.417H6.62547ZM6.74245 10.2497H6.45814V10.5843H6.74245V10.2497ZM6.90978 11.0515V10.417H6.57511V11.0515H6.90978ZM6.45814 11.2188H6.74245V10.8841H6.45814V11.2188ZM6.62547 11.2466V11.0515H6.29081V11.2466H6.62547ZM6.22122 11.414H6.45814V11.0793H6.22122V11.414ZM6.38856 11.4419V11.2466H6.05389V11.4419H6.38856ZM5.20905 11.6092H6.22122V11.2746H5.20905V11.6092ZM5.04027 11.8158L5.32021 11.567L5.09789 11.3168L4.81795 11.5656L5.04027 11.8158ZM4.53697 11.5673L4.81825 11.816L5.03998 11.5654L4.7587 11.3166L4.53697 11.5673ZM3.70974 11.6092H4.64783V11.2746H3.70974V11.6092ZM3.5424 11.2466V11.4419H3.87707V11.2466H3.5424ZM3.47279 11.414H3.70974V11.0793H3.47279V11.414ZM3.30545 11.0515V11.2466H3.64012V11.0515H3.30545ZM3.23584 11.2188H3.47279V10.8841H3.23584V11.2188ZM3.06851 10.417V11.0515H3.40317V10.417H3.06851ZM3.47279 10.2497H3.23584V10.5843H3.47279V10.2497ZM3.30545 10.2217V10.417H3.64012V10.2217H3.30545ZM3.70974 10.0544H3.47279V10.389H3.70974V10.0544ZM3.5424 9.97774V10.2217H3.87707V9.97774H3.5424ZM4.67564 9.81041H3.70974V10.1451H4.67564V9.81041ZM4.7865 10.1031L5.03998 9.87888L4.81825 9.6282L4.56477 9.8524L4.7865 10.1031ZM4.81795 9.87862L5.07022 10.1028L5.29254 9.85267L5.04027 9.62846L4.81795 9.87862Z" fill="#E8AA00"/>
<path fill-rule="evenodd" clip-rule="evenodd" d="M5.962 10.5419V10.1107H5.45961L5.962 10.5419ZM3.84855 10.5419V10.1108H4.35093L3.84855 10.5419ZM3.84851 11.3227V10.8916L4.35089 11.3227H3.84851ZM5.962 10.8916V11.3227H5.45961L5.962 10.8916Z" fill="#C51918"/>
<path fill-rule="evenodd" clip-rule="evenodd" d="M4.73853 10.1478L4.91194 9.92065L5.08318 10.1478H4.73853ZM4.73858 10.3598L4.91199 10.5869L5.08323 10.3598H4.73858ZM4.91199 10.8968L4.73858 11.1239H5.08323L4.91199 10.8968ZM4.73858 11.336L4.91199 11.5631L5.08323 11.336H4.73858Z" fill="#E8AA00"/>
<path fill-rule="evenodd" clip-rule="evenodd" d="M4.74218 10.1208V10.2185H4.64258V10.3524H4.74218V10.4499H5.08962V10.3524H5.18915V10.2185H5.08962V10.1208H4.74218ZM5.08962 11.1945V11.097H4.74218V11.1945H4.64258V11.3284H4.74218V11.4261H5.08962V11.3284H5.18915V11.1945H5.08962Z" fill="#AF0100"/>
<path fill-rule="evenodd" clip-rule="evenodd" d="M4.0752 10.6368L4.24027 10.4087L4.40326 10.6368H4.0752ZM4.07521 10.85L4.24028 11.0781L4.40327 10.85H4.07521ZM5.61449 10.4087L5.44942 10.6369H5.77749L5.61449 10.4087ZM5.44942 10.85L5.61449 11.0781L5.77749 10.85H5.44942Z" fill="#AF0100"/>
<path fill-rule="evenodd" clip-rule="evenodd" d="M4.07403 10.6089V10.7085H3.97925V10.845H4.07403V10.9445H4.40475V10.845H4.49952V10.7085H4.40475V10.6089H4.07403ZM5.77896 10.7085V10.6089H5.44824V10.7085H5.35346V10.845H5.44824V10.9445H5.77896V10.845H5.87373V10.7085H5.77896Z" fill="#E8AA00"/>
<mask id="mask2_58_619" style="mask-type:luminance" maskUnits="userSpaceOnUse" x="3" y="11" width="4" height="4">
<path fill-rule="evenodd" clip-rule="evenodd" d="M4.45201 11.7758L3.26624 12.4444V13.5525L4.45201 14.2481H5.73632L6.95029 13.5525V12.4444L5.73632 11.7758H4.45201Z" fill="white"/>
</mask>
<g mask="url(#mask2_58_619)">
<path d="M3.2832 13.0106H5.13128V14.2308H3.2832V13.0106Z" fill="#E8AA00"/>
<rect x="3.09363" y="11.7904" width="2.03762" height="1.22014" fill="#F9E8E7"/>
<path d="M3.5675 12.5014L4.18096 12.132V12.5014H3.5675Z" fill="#E8AA00"/>
<rect width="2.03762" height="1.22014" transform="matrix(-1 0 0 1 7.16895 11.7904)" fill="#E8AA00"/>
<path d="M6.55298 12.5014L5.93952 12.132V12.5014H6.55298Z" fill="#F9E8E7"/>
<rect x="6.97937" y="14.2307" width="1.84808" height="1.22014" transform="rotate(180 6.97937 14.2307)" fill="#F9E8E7"/>
<path d="M6.50549 13.5198L5.89204 13.8892V13.5198H6.50549Z" fill="#E8AA00"/>
<path d="M3.56763 13.4426L4.18108 13.812V13.4426H3.56763Z" fill="#FCFCFC"/>
</g>
<path fill-rule="evenodd" clip-rule="evenodd" d="M4.4679 12.5227H4.77591L5.08392 12.425L5.39193 12.5227H5.69995V13.45H5.39193L5.08392 13.5964L4.77591 13.45H4.4679V12.5227Z" fill="#C51918"/>
<path fill-rule="evenodd" clip-rule="evenodd" d="M5.51046 11.9677H5.67779V12.1565H5.74637V12.2903H5.67779V12.3624H5.51046V11.9677ZM3.82969 12.5533H3.66235V12.9481H3.82969V12.876H3.89826V12.7421H3.82969V12.5533ZM4.06663 12.5533H3.8993V12.9481H4.06663V12.5533ZM3.82969 13.0413H3.66235V13.4361H3.82969V13.3641H3.89826V13.2303H3.82969V13.0413ZM3.8993 13.0413H4.06663V13.4361H3.8993V13.0413ZM6.26861 12.5533H6.43594V12.7421H6.50452V12.876H6.43594V12.9481H6.26861V12.5533ZM6.67289 12.5533H6.50556V12.9481H6.67289V12.5533ZM6.43594 13.0413H6.26861V13.4361H6.43594V13.3641H6.50452V13.2303H6.43594V13.0413ZM6.50556 13.0413H6.67289V13.4361H6.50556V13.0413ZM5.91466 11.9677H5.74733V12.3624H5.91466V11.9677ZM4.54045 11.9677H4.37311V12.3624H4.54045V12.2903H4.60902V12.1565H4.54045V11.9677ZM4.61006 11.9677H4.77739V12.3624H4.61006V11.9677ZM5.51046 13.627H5.67779V13.8159H5.74637V13.9498H5.67779V14.0218H5.51046V13.627ZM5.91466 13.627H5.74733V14.0218H5.91466V13.627ZM4.54045 13.627H4.37311V14.0218H4.54045V13.9498H4.60902V13.8159H4.54045V13.627ZM4.61006 13.627H4.77739V14.0218H4.61006V13.627Z" fill="#C9343F"/>
<path fill-rule="evenodd" clip-rule="evenodd" d="M4.99288 12.7232H5.04027V12.5905H4.80351V12.7422H4.6084V12.9596H4.78982V12.9108H4.65578V12.791H4.8166L5.05885 13.0006L4.81669 13.2102H4.65578V13.0903H4.78982V13.0415H4.6084V13.259H4.80351V13.4107H5.04027V13.278H4.99288V13.3619H4.85089V13.2443L5.09717 13.0312L5.34346 13.2443V13.3619H5.20147V13.278H5.15408V13.4107H5.39084V13.259H5.58595V13.0415H5.40453V13.0903H5.53856V13.2102H5.37766L5.1355 13.0006L5.37775 12.791H5.53856V12.9108H5.40453V12.9596H5.58595V12.7422H5.39084V12.5905H5.15408V12.7232H5.20147V12.6393H5.34346V12.7569L5.09717 12.97L4.85089 12.7569V12.6393H4.99288V12.7232Z" fill="white"/>
<path fill-rule="evenodd" clip-rule="evenodd" d="M5.36726 3.44189H4.53276V6.11923H5.36726V3.44189ZM3.48962 4.00828H4.01118V5.44993H3.48962V4.00828ZM5.94097 4.00828H6.46253V5.44993H5.94097V4.00828Z" fill="#E8AA00"/>
<path fill-rule="evenodd" clip-rule="evenodd" d="M4.53272 3.64783H4.01116V5.70732H4.53272V3.64783ZM3.48958 4.21421H2.96802V5.19247H3.48958V4.21421ZM6.4625 4.21421H6.98406V5.19247H6.4625V4.21421ZM5.88879 3.64783H5.36723V5.70732H5.88879V3.64783Z" fill="#389F5D"/>
<path fill-rule="evenodd" clip-rule="evenodd" d="M4.42846 3.90532C4.42846 3.99062 4.35841 4.05978 4.272 4.05978C4.18558 4.05978 4.11553 3.99062 4.11553 3.90532C4.11553 3.82001 4.18558 3.75085 4.272 3.75085C4.35841 3.75085 4.42846 3.82001 4.42846 3.90532ZM3.38532 4.42023C3.38532 4.50553 3.31527 4.57469 3.22886 4.57469C3.14244 4.57469 3.07239 4.50553 3.07239 4.42023C3.07239 4.33492 3.14244 4.26577 3.22886 4.26577C3.31527 4.26577 3.38532 4.33492 3.38532 4.42023ZM3.38532 4.98653C3.38532 5.07184 3.31527 5.14099 3.22886 5.14099C3.14244 5.14099 3.07239 5.07184 3.07239 4.98653C3.07239 4.90122 3.14244 4.83207 3.22886 4.83207C3.31527 4.83207 3.38532 4.90122 3.38532 4.98653ZM4.272 5.60443C4.35841 5.60443 4.42846 5.53527 4.42846 5.44997C4.42846 5.36466 4.35841 5.29551 4.272 5.29551C4.18558 5.29551 4.11553 5.36466 4.11553 5.44997C4.11553 5.53527 4.18558 5.60443 4.272 5.60443ZM6.72334 4.57469C6.80975 4.57469 6.8798 4.50553 6.8798 4.42023C6.8798 4.33492 6.80975 4.26577 6.72334 4.26577C6.63692 4.26577 6.56687 4.33492 6.56687 4.42023C6.56687 4.50553 6.63692 4.57469 6.72334 4.57469ZM6.8798 4.98653C6.8798 5.07184 6.80975 5.14099 6.72334 5.14099C6.63692 5.14099 6.56687 5.07184 6.56687 4.98653C6.56687 4.90122 6.63692 4.83207 6.72334 4.83207C6.80975 4.83207 6.8798 4.90122 6.8798 4.98653ZM5.62807 5.60443C5.71448 5.60443 5.78454 5.53527 5.78454 5.44997C5.78454 5.36466 5.71448 5.29551 5.62807 5.29551C5.54165 5.29551 5.4716 5.36466 5.4716 5.44997C5.4716 5.53527 5.54165 5.60443 5.62807 5.60443ZM5.78454 3.90532C5.78454 3.99062 5.71448 4.05978 5.62807 4.05978C5.54165 4.05978 5.4716 3.99062 5.4716 3.90532C5.4716 3.82001 5.54165 3.75085 5.62807 3.75085C5.71448 3.75085 5.78454 3.82001 5.78454 3.90532Z" fill="#E1E5E8"/>
<path fill-rule="evenodd" clip-rule="evenodd" d="M5.10641 3.69926C5.10641 3.78457 5.03636 3.85372 4.94995 3.85372C4.86353 3.85372 4.79348 3.78457 4.79348 3.69926C4.79348 3.61395 4.86353 3.5448 4.94995 3.5448C5.03636 3.5448 5.10641 3.61395 5.10641 3.69926ZM3.90681 4.26565C3.90681 4.35095 3.83675 4.42011 3.75034 4.42011C3.66393 4.42011 3.59387 4.35095 3.59387 4.26565C3.59387 4.18034 3.66393 4.11119 3.75034 4.11119C3.83675 4.11119 3.90681 4.18034 3.90681 4.26565ZM4.94995 6.06771C5.03636 6.06771 5.10641 5.99855 5.10641 5.91325C5.10641 5.82794 5.03636 5.75879 4.94995 5.75879C4.86353 5.75879 4.79348 5.82794 4.79348 5.91325C4.79348 5.99855 4.86353 6.06771 4.94995 6.06771ZM6.35815 4.26565C6.35815 4.35095 6.2881 4.42011 6.20168 4.42011C6.11527 4.42011 6.04521 4.35095 6.04521 4.26565C6.04521 4.18034 6.11527 4.11119 6.20168 4.11119C6.2881 4.11119 6.35815 4.18034 6.35815 4.26565ZM3.75034 5.34682C3.83675 5.34682 3.90681 5.27766 3.90681 5.19236C3.90681 5.10705 3.83675 5.03789 3.75034 5.03789C3.66393 5.03789 3.59387 5.10705 3.59387 5.19236C3.59387 5.27766 3.66393 5.34682 3.75034 5.34682ZM6.35815 5.19236C6.35815 5.27766 6.2881 5.34682 6.20168 5.34682C6.11527 5.34682 6.04521 5.27766 6.04521 5.19236C6.04521 5.10705 6.11527 5.03789 6.20168 5.03789C6.2881 5.03789 6.35815 5.10705 6.35815 5.19236Z" fill="#C51918"/>
<path fill-rule="evenodd" clip-rule="evenodd" d="M4.04329 4.50713L4.55103 4.04858H5.37543L5.95407 4.57469H6.72324V4.78064H5.97489V4.79135L5.37543 5.40103H4.55103L4.04329 4.85078V4.78064H3.17664V4.57469H4.04329V4.50713Z" fill="#C51918"/>
<path fill-rule="evenodd" clip-rule="evenodd" d="M4.95941 4.42951L4.71223 4.68002L4.97104 4.92518L5.22987 4.68L4.98298 4.42979L4.97104 4.41878L4.95941 4.42951ZM5.10898 4.44673L5.28636 4.62651L5.55043 4.37636L5.44612 4.27514L5.3685 4.33612L5.22153 4.18767L5.02881 4.36549L5.03845 4.37526L5.11221 4.44332L5.10898 4.44673ZM5.26434 4.12048L5.37503 4.23229L5.45155 4.17218L5.66268 4.37706L5.34091 4.68186L5.66062 5.00586L5.46578 5.21135H5.38315L5.21813 5.31517L4.97106 5.08641L4.72398 5.31518L4.55895 5.21136H4.47632L4.28148 5.00587L4.60119 4.68187L4.27942 4.37707L4.49055 4.17219L4.56707 4.2323L4.67777 4.12048L4.64446 4.08673L4.70051 4.03284L4.97106 4.30703L5.2416 4.03285L5.29764 4.08674L5.26434 4.12048ZM5.02824 5.03347L5.22734 5.21781L5.36035 5.13413H5.43187L5.55247 5.00694L5.28448 4.73534L5.02756 4.97871L5.05713 5.00672L5.02824 5.03347ZM4.94341 5.00611L4.71473 5.21784L4.58172 5.13416H4.5102L4.3896 5.00696L4.65759 4.73537L4.94341 5.00611ZM4.39164 4.37639L4.65571 4.62653L4.91326 4.36552L4.72054 4.1877L4.57357 4.33615L4.49595 4.27517L4.39164 4.37639Z" fill="#E8AA00"/>
<path fill-rule="evenodd" clip-rule="evenodd" d="M6.68388 14.5807C6.82378 14.4031 6.91821 14.2832 6.94308 14.2851C7.02117 14.2908 7.0944 15.1175 6.07941 15.7466C6.07941 15.7466 5.92959 15.8299 5.84233 15.7466C5.75507 15.6633 5.84233 15.5407 5.84233 15.5407C6.17042 15.2324 6.47691 14.8433 6.68388 14.5807ZM3.26812 14.5807C3.12821 14.4031 3.03379 14.2833 3.00891 14.2851C2.93083 14.2908 2.85759 15.1176 3.87259 15.7466C3.87259 15.7466 4.02241 15.8299 4.10967 15.7466C4.19693 15.6633 4.10967 15.5407 4.10967 15.5407C3.78157 15.2324 3.47508 14.8434 3.26812 14.5807ZM6.6096 15.6931C6.27607 15.7917 5.88979 15.8123 5.74208 15.7486C5.69497 15.7283 5.64494 15.7123 5.59238 15.7004C5.44544 15.6671 5.30221 15.6668 5.13225 15.6854L5.06952 15.6926L5.06516 15.6931C5.04916 15.695 5.03992 15.6957 5.03815 15.6957C5.02819 15.6957 5.01728 15.6972 5.00531 15.7C4.99334 15.6972 4.98242 15.6957 4.97246 15.6957C4.97069 15.6957 4.96145 15.695 4.94545 15.6931C4.94521 15.6931 4.94363 15.6929 4.94109 15.6926C4.92861 15.6912 4.89284 15.687 4.87836 15.6854C4.7084 15.6668 4.56517 15.6671 4.41823 15.7004C4.36567 15.7123 4.31565 15.7283 4.26853 15.7486C4.12082 15.8123 3.73454 15.7917 3.40101 15.6931C3.40101 15.6931 4.00794 15.9369 4.36841 15.8289C4.40336 15.8138 4.44023 15.802 4.47902 15.7932C4.58162 15.7699 4.68671 15.7678 4.81313 15.7797C4.75996 15.8044 4.69814 15.8328 4.62623 15.862V15.8915C4.76819 15.8339 4.93455 15.8066 5.00531 15.7982C5.07606 15.8066 5.24242 15.8339 5.38438 15.8915V15.862C5.31247 15.8328 5.25065 15.8044 5.19748 15.7797C5.3239 15.7678 5.42899 15.7699 5.53159 15.7932C5.57039 15.802 5.60725 15.8138 5.64221 15.8289C6.00267 15.9369 6.6096 15.6931 6.6096 15.6931Z" fill="#E8AA00"/>
<path fill-rule="evenodd" clip-rule="evenodd" d="M4.14887 6.90747L3.31091 7.64592V8.34925L4.04349 9.08537H5.5393L6.36403 8.29992V7.70114L5.5393 6.90747H4.14887Z" fill="#389F5D"/>
<path fill-rule="evenodd" clip-rule="evenodd" d="M4.43723 6.98547H4.24768V7.13189H4.43723V6.98547ZM4.43727 8.8998H4.24773V9.04621H4.43727V8.8998ZM4.72162 8.8998H4.91117V9.04621H4.72162V8.8998ZM4.91117 6.98551H4.72162V7.13192H4.91117V6.98551ZM5.19543 8.8998H5.38498V9.04621H5.19543V8.8998ZM5.38498 6.98551H5.19543V7.13192H5.38498V6.98551Z" fill="#C51918"/>
<path fill-rule="evenodd" clip-rule="evenodd" d="M4.96689 6.94763H5.15984V7.09405H4.96689V6.94763ZM4.67747 6.94767H4.48452V7.09408H4.67747V6.94767ZM4.67744 8.89983H4.4845V9.04625H4.67744V8.89983ZM5.15984 8.89983H4.96689V9.04625H5.15984V8.89983Z" fill="#E8AA00"/>
<path fill-rule="evenodd" clip-rule="evenodd" d="M3.57979 6.81677H6.1099V7.20775H6.47218V8.82407H6.1099V9.15818H3.57979V8.82407H3.1864V7.20775H3.57979V6.81677ZM3.72201 7.35422H3.32862V8.6777H3.72201V9.01182H5.9678V8.6777H6.33007V7.35422H5.9678V6.96324H3.72201V7.35422Z" fill="#750100"/>
<path fill-rule="evenodd" clip-rule="evenodd" d="M4.57926 6.65479H4.34233V6.89881H4.57926V6.65479ZM4.95837 6.65479H4.72144V6.89881H4.95837V6.65479ZM5.10056 6.65479H5.33749V6.89881H5.10056V6.65479ZM4.57926 9.0951H4.34233V9.33912H4.57926V9.0951ZM4.72144 9.0951H4.95837V9.33912H4.72144V9.0951ZM5.33749 9.0951H5.10056V9.33912H5.33749V9.0951ZM2.9646 8.55469V8.31776H3.20863V8.55469H2.9646ZM2.9646 7.92729V8.16422H3.20863V7.92729H2.9646ZM2.9646 7.77375V7.53682H3.20863V7.77375H2.9646ZM6.37639 8.31776V8.55469H6.62042V8.31776H6.37639ZM6.37639 8.16422V7.92729H6.62042V8.16422H6.37639ZM6.37639 7.53682V7.77375H6.62042V7.53682H6.37639Z" fill="#389F5D"/>
<path fill-rule="evenodd" clip-rule="evenodd" d="M4.1584 7.11304L3.74976 7.46847V8.61857L4.0889 8.85855H5.55918L5.89783 8.61857V7.46847L5.51563 7.11304H4.1584Z" fill="#C51918"/>
<path fill-rule="evenodd" clip-rule="evenodd" d="M4.84453 7.58972L4.35144 8.01103H4.84453V7.58972Z" fill="#E1E5E8"/>
<path d="M4.84453 8.39319L4.35144 7.97188H4.84453V8.39319Z" fill="#E8AA00"/>
<path fill-rule="evenodd" clip-rule="evenodd" d="M4.80146 7.58972L5.29456 8.01103H4.80146V7.58972Z" fill="#E8AA00"/>
<path fill-rule="evenodd" clip-rule="evenodd" d="M4.82342 8.12486C4.9059 8.12486 4.97276 8.058 4.97276 7.97552C4.97276 7.89304 4.9059 7.82617 4.82342 7.82617C4.74094 7.82617 4.67407 7.89304 4.67407 7.97552C4.67407 8.058 4.74094 8.12486 4.82342 8.12486Z" fill="#29AE66"/>
<path d="M4.80146 8.39319L5.29456 7.97188H4.80146V8.39319Z" fill="#E1E5E8"/>
<path fill-rule="evenodd" clip-rule="evenodd" d="M3.77365 7.82617H3.34717V7.96272H3.77365V7.82617ZM3.77368 8.0751H3.34721V8.21164H3.77368V8.0751ZM5.90607 7.82622H6.33255V7.96276H5.90607V7.82622ZM6.33255 8.0751H5.90607V8.21164H6.33255V8.0751Z" fill="#C51918"/>
<path fill-rule="evenodd" clip-rule="evenodd" d="M6.28517 7.67969H5.90607V7.82903H6.28517V7.67969ZM3.72626 7.67969H3.34717V7.82904H3.72626V7.67969ZM3.7263 7.92856H3.34721V8.07791H3.7263V7.92856ZM3.34721 8.17752H3.7263V8.32687H3.34721V8.17752ZM5.90607 7.92856H6.28517V8.07791H5.90607V7.92856ZM6.28517 8.17752H5.90607V8.32687H6.28517V8.17752Z" fill="#E8AA00"/>
<path fill-rule="evenodd" clip-rule="evenodd" d="M6.97406 1.2936L6.97262 1.5648H4.9921L4.99068 2.79634H4.36967C4.26127 2.79634 3.96404 2.58818 3.96404 2.58818H3.4598L3.22701 2.35036V2.11141L2.97717 1.81475L2.97861 1.54356H4.95914L4.96055 0.312012H5.58157C5.68997 0.312012 5.98719 0.520171 5.98719 0.520171H6.49144L6.72422 0.757989V0.996947L6.97406 1.2936Z" fill="#E8AA00"/>
<path fill-rule="evenodd" clip-rule="evenodd" d="M2.97723 1.2936L2.97867 1.5648H4.9592L4.96061 2.79634H5.58162C5.69003 2.79634 5.98725 2.58818 5.98725 2.58818H6.49149L6.72428 2.35036V2.11141L6.97412 1.81475L6.97268 1.54356H4.99215L4.99074 0.312012H4.36973C4.26133 0.312012 3.9641 0.520171 3.9641 0.520171H3.45986L3.22707 0.757989V0.996947L2.97723 1.2936Z" fill="#E1E5E8"/>
<path fill-rule="evenodd" clip-rule="evenodd" d="M4.30832 0.687845L4.28663 0.583098L4.71385 0.484858C4.76513 0.460093 4.85414 0.389544 4.97673 0.274902L5.03416 0.339541L5.04404 0.32842C5.16663 0.443061 5.25564 0.513611 5.30692 0.538375L5.73414 0.636615L5.71245 0.741362L5.4755 0.692416L5.49817 0.712684C5.48189 0.722438 5.46418 0.736657 5.4452 0.755255L5.34518 0.740526L5.35446 0.70675L5.32937 0.702663C5.31098 0.737365 5.28994 0.787003 5.26748 0.850688L5.16744 0.821234L5.20795 0.627204L4.98186 0.415149L4.82344 0.563732C4.84314 0.58159 4.86278 0.602089 4.88244 0.625277C4.86564 0.631671 4.84957 0.637314 4.83424 0.642209L4.82746 0.643824L4.85333 0.767716L4.75329 0.79717C4.74023 0.760147 4.72766 0.727872 4.7158 0.700519L4.70752 0.701738C4.68855 0.68314 4.67084 0.668921 4.65456 0.659166L4.68289 0.633831C4.67825 0.625898 4.67381 0.619021 4.66959 0.613218L4.30832 0.687845ZM4.32591 1.07138L4.38295 0.98171L4.08787 0.783859L4.12068 0.737975L4.0366 0.674595L4.0004 0.725212L3.88334 0.646724L3.8263 0.736389L3.93857 0.811667L3.91544 0.844012L3.99953 0.907392L4.02604 0.870313L4.32591 1.07138ZM3.96077 1.17849L4.01781 1.08883L3.72278 0.891012L3.75562 0.845091L3.67154 0.781711L3.63531 0.832365L3.5182 0.75384L3.46116 0.843506L3.57349 0.91882L3.55038 0.951128L3.63446 1.01451L3.66095 0.977467L3.96077 1.17849ZM3.8043 1.49976L3.86134 1.41009L3.56631 1.21228L3.59915 1.16636L3.51507 1.10298L3.47885 1.15363L3.36173 1.07511L3.30469 1.16477L3.41702 1.24009L3.39391 1.2724L3.478 1.33578L3.50449 1.29873L3.8043 1.49976ZM3.80921 1.75676L3.75218 1.66709L3.4523 1.86816L3.42579 1.83108L3.3417 1.89446L3.36484 1.9268L3.25256 2.00208L3.3096 2.09175L3.42666 2.01326L3.46286 2.06387L3.54694 2.00049L3.51413 1.95461L3.80921 1.75676ZM3.90864 1.98844L3.96568 2.07811L3.67064 2.27593L3.70341 2.32176L3.61933 2.38514L3.58317 2.33458L3.46607 2.41309L3.40903 2.32343L3.52134 2.24813L3.49817 2.21572L3.58225 2.15234L3.60881 2.18948L3.90864 1.98844ZM4.2737 2.09548L4.33074 2.18514L4.03571 2.38296L4.06855 2.42888L3.98447 2.49226L3.94825 2.4416L3.83113 2.52013L3.77409 2.43046L3.88642 2.35515L3.86332 2.32284L3.9474 2.25946L3.97389 2.2965L4.2737 2.09548ZM4.83032 2.60727C4.81351 2.60087 4.79744 2.59523 4.78211 2.59034L4.76227 2.5856L4.8012 2.39914L4.70116 2.36968C4.66921 2.46028 4.64014 2.52245 4.61746 2.55364L4.25619 2.47901L4.23451 2.58376L4.64625 2.67844L4.64614 2.67882L4.70569 2.71837L4.71352 2.71349C4.76543 2.74968 4.8363 2.80938 4.9246 2.89195L4.95822 2.85412L4.99183 2.89195C5.11442 2.77731 5.20343 2.70676 5.25471 2.682L5.26864 2.67879C5.28664 2.69416 5.30471 2.70734 5.32292 2.71837L5.38247 2.67882L5.37647 2.65845L5.38318 2.65245L5.68193 2.58376L5.66024 2.47901L5.29897 2.55364C5.27629 2.52245 5.24723 2.46028 5.21527 2.36968L5.11523 2.39914L5.15574 2.59317L4.95822 2.77842L4.80546 2.63515C4.81374 2.62633 4.82203 2.61704 4.83032 2.60727ZM6.10722 1.75676L6.16426 1.66709L6.46407 1.86812L6.49056 1.83108L6.57465 1.89446L6.55154 1.92677L6.66387 2.00208L6.60683 2.09175L6.48971 2.01322L6.45349 2.06387L6.36941 2.00049L6.40225 1.95457L6.10722 1.75676ZM5.95075 2.07811L6.00779 1.98844L6.30757 2.18944L6.3341 2.15234L6.41818 2.21572L6.39503 2.24809L6.5074 2.32343L6.45036 2.41309L6.33321 2.33454L6.29702 2.38514L6.21294 2.32176L6.24574 2.2759L5.95075 2.07811ZM5.58561 2.18514L5.64265 2.09548L5.94252 2.29654L5.96903 2.25946L6.05312 2.32284L6.02999 2.35519L6.14226 2.43046L6.08522 2.52013L5.96816 2.44164L5.93196 2.49226L5.84788 2.42888L5.88069 2.38299L5.58561 2.18514ZM6.15935 1.46361L6.21638 1.55328L6.51626 1.35221L6.54277 1.38929L6.62686 1.32591L6.60372 1.29357L6.716 1.21829L6.65896 1.12863L6.5419 1.20711L6.5057 1.1565L6.42162 1.21988L6.45443 1.26576L6.15935 1.46361ZM6.00288 1.14234L6.05992 1.23201L6.35979 1.03095L6.38631 1.06803L6.47039 1.00465L6.44726 0.972301L6.55953 0.897023L6.50249 0.807357L6.38543 0.885846L6.34923 0.835229L6.26515 0.898609L6.29796 0.944492L6.00288 1.14234ZM5.63782 1.03523L5.69486 1.12489L5.99463 0.923894L6.02116 0.960991L6.10524 0.897611L6.0821 0.865248L6.19447 0.789907L6.13743 0.700241L6.02027 0.778793L5.98409 0.728194L5.90001 0.791574L5.93281 0.83744L5.63782 1.03523Z" fill="#C51918"/>
<path fill-rule="evenodd" clip-rule="evenodd" d="M4.44573 1.00088L5.03644 0.687622V1.54435H6.49681L6.14883 1.79497V2.12287H5.59808L5.00736 2.43612V1.57939H3.547L3.89497 1.32877V1.00088H4.44573Z" fill="#C51918"/>
<path fill-rule="evenodd" clip-rule="evenodd" d="M5.5981 1.00088L5.00738 0.687622V1.54435H3.54698L3.89495 1.79497V2.12287H4.44571L5.03642 2.43612V1.57939H6.49683L6.14885 1.32877V1.00088H5.5981Z" fill="#29AE66"/>
<path fill-rule="evenodd" clip-rule="evenodd" d="M4.15881 1.22279L4.2552 1.03284L4.50033 1.16395L4.5679 1.06342L4.73961 1.18507L4.68678 1.26367L5.41259 1.65187L5.45735 1.58528L5.62906 1.70693L5.59904 1.7516L5.67746 1.79354L5.58107 1.9835L5.47964 1.92924L5.39734 2.05169L5.22563 1.93004L5.29319 1.82952L4.56738 1.44132L4.50788 1.52983L4.33617 1.40819L4.38093 1.34159L4.15881 1.22279Z" fill="#29AE66"/>
<path fill-rule="evenodd" clip-rule="evenodd" d="M5.70539 1.17069L5.59598 0.987925L5.36054 1.13585L5.28615 1.04032L5.12335 1.17366L5.1815 1.24834L4.48463 1.68617L4.43535 1.62289L4.27254 1.75622L4.30559 1.79866L4.23025 1.84599L4.33966 2.02876L4.43709 1.96754L4.52776 2.08398L4.69056 1.95065L4.61613 1.85506L5.313 1.41722L5.37856 1.50142L5.54137 1.36809L5.49204 1.30474L5.70539 1.17069Z" fill="#C51918"/>
</g>
<path fill-rule="evenodd" clip-rule="evenodd" d="M13.0572 1.56787C13.0572 1.56787 14.6169 5.26367 13.2312 6.83321C11.8455 8.40274 8.32275 8.10014 8.32275 8.10014C8.32275 8.10014 12.845 10.1427 14.8154 7.33022C16.7858 4.51772 13.0572 1.56787 13.0572 1.56787Z" fill="#F7FCFF"/>
<path fill-rule="evenodd" clip-rule="evenodd" d="M10.2266 3.74217L9.81389 4.03264L9.95948 3.54588L9.55884 3.23864L10.0615 3.22828L10.2266 2.74792L10.3916 3.22828L10.8943 3.23864L10.4937 3.54588L10.6392 4.03264L10.2266 3.74217ZM10.3064 5.08443L9.89372 5.3749L10.0393 4.88814L9.63867 4.58091L10.1413 4.57055L10.3064 4.09019L10.4715 4.57055L10.9741 4.58091L10.5735 4.88814L10.7191 5.3749L10.3064 5.08443ZM8.6392 5.47851L9.05188 5.18803L9.46456 5.47851L9.31897 4.99175L9.7196 4.68451L9.21695 4.67415L9.05188 4.19379L8.88681 4.67415L8.38416 4.68451L8.78479 4.99175L8.6392 5.47851ZM10.3064 6.49231L9.89372 6.78278L10.0393 6.29602L9.63867 5.98878L10.1413 5.97842L10.3064 5.49806L10.4715 5.97842L10.9741 5.98878L10.5735 6.29602L10.7191 6.78278L10.3064 6.49231ZM11.2576 4.96466L11.6702 4.67419L12.0829 4.96466L11.9373 4.4779L12.338 4.17066L11.8353 4.1603L11.6702 3.67994L11.5052 4.1603L11.0025 4.17066L11.4031 4.4779L11.2576 4.96466Z" fill="#F7FCFF"/>
</g>
</g>
<defs>
<clipPath id="clip0_58_619">
<rect width="21.4187" height="16.064" fill="white" transform="translate(0 0.261108)"/>
</clipPath>
</defs>
</svg>
