<svg width="22" height="17" viewBox="0 0 22 17" fill="none" xmlns="http://www.w3.org/2000/svg">
<g clip-path="url(#clip0_58_565)">
<rect width="21.4187" height="16.064" transform="translate(0.187134 0.261108)" fill="white"/>
<path fill-rule="evenodd" clip-rule="evenodd" d="M0.477783 0.229126V16.2932H21.8965V0.229126H0.477783Z" fill="#00B4FF"/>
<mask id="mask0_58_565" style="mask-type:luminance" maskUnits="userSpaceOnUse" x="0" y="0" width="22" height="17">
<path fill-rule="evenodd" clip-rule="evenodd" d="M0.477783 0.229126V16.2932H21.8965V0.229126H0.477783Z" fill="white"/>
</mask>
<g mask="url(#mask0_58_565)">
</g>
<g clip-path="url(#clip1_58_565)">
<rect width="12.048" height="9.37069" transform="translate(0.187134 0.261108)" fill="#2E42A5"/>
<path d="M-1.15442 8.96223L1.49678 10.125L12.2953 1.5252L13.6937 -0.202713L10.8587 -0.591344L6.45421 3.11456L2.90908 5.61147L-1.15442 8.96223Z" fill="#F7FCFF"/>
<path d="M-0.791504 9.77701L0.559162 10.4518L13.1915 -0.363143H11.295L-0.791504 9.77701Z" fill="#F50100"/>
<path d="M13.5767 8.96223L10.9255 10.125L0.126943 1.5252L-1.27151 -0.202713L1.56357 -0.591344L5.96803 3.11456L9.51316 5.61147L13.5767 8.96223Z" fill="#F7FCFF"/>
<path d="M13.4862 9.54703L12.1355 10.2218L6.75654 5.59137L5.16179 5.07402L-1.40606 -0.196677H0.490432L7.05459 4.94892L8.79818 5.56927L13.4862 9.54703Z" fill="#F50100"/>
<path fill-rule="evenodd" clip-rule="evenodd" d="M6.87012 0.261108H5.53145V4.27712H0.187134V5.61579H5.53145V9.6318H6.87012V5.61579H12.2352V4.27712H6.87012V0.261108Z" fill="#F50100"/>
<path fill-rule="evenodd" clip-rule="evenodd" d="M4.52744 0.261108H7.87412V3.27312H12.2352V6.61979H7.87412L7.88449 9.6318H4.53781L4.52744 6.61979H0.187134V3.27312H4.52744V0.261108ZM5.53145 4.27712H0.187134V5.61579H5.53145V9.6318H6.87012V5.61579H12.2352V4.27712H6.87012V0.261108H5.53145V4.27712Z" fill="#F7FCFF"/>
</g>
<path fill-rule="evenodd" clip-rule="evenodd" d="M18.454 7.38092L18.8604 6.62762L19.752 6.60098L19.0617 6.02443L19.2997 5.24626L18.7046 5.60384L17.9522 5.14758L18.025 6.01214L17.351 6.41716L18.226 6.52655L18.454 7.38092ZM16.183 7.96629L15.7766 8.71959L15.5487 7.86522L14.6736 7.75583L15.3477 7.35081L15.2749 6.48625L16.0272 6.94251L16.6223 6.58493L16.3843 7.3631L17.0747 7.93965L16.183 7.96629ZM14.438 10.0583L14.8444 9.30496L15.736 9.27832L15.0457 8.70177L15.2837 7.9236L14.6885 8.28118L13.9362 7.82492L14.009 8.68948L13.3349 9.0945L14.21 9.20389L14.438 10.0583ZM11.7606 12.7356L12.167 11.9823L13.0587 11.9557L12.3683 11.3791L12.6063 10.6009L12.0112 10.9585L11.2588 10.5023L11.3317 11.3668L10.6576 11.7718L11.5327 11.8812L11.7606 12.7356ZM9.16188 14.7776L8.42553 15.214L8.67016 14.3642L7.97644 13.8198H8.76284L9.14569 13.0412L9.5556 13.8198H10.2499L9.64508 14.3642L9.93987 15.214L9.16188 14.7776ZM12.167 14.6596L11.7606 15.4129L11.5327 14.5586L10.6576 14.4492L11.3317 14.0442L11.2588 13.1796L12.0112 13.6359L12.6063 13.2783L12.3683 14.0564L13.0587 14.633L12.167 14.6596ZM14.8444 13.321L14.438 14.0743L14.21 13.2199L13.3349 13.1105L14.009 12.7055L13.9362 11.8409L14.6885 12.2972L15.2837 11.9396L15.0457 12.7178L15.736 13.2943L14.8444 13.321ZM17.5217 11.9823L17.1153 12.7356L16.8873 11.8812L16.0123 11.7718L16.6864 11.3668L16.6135 10.5023L17.3659 10.9585L17.961 10.6009L17.723 11.3791L18.4133 11.9557L17.5217 11.9823ZM18.454 11.3969L18.8604 10.6436L19.752 10.617L19.0617 10.0404L19.2997 9.26227L18.7046 9.61985L17.9522 9.16359L18.025 10.0281L17.351 10.4332L18.226 10.5426L18.454 11.3969Z" fill="#FFD018"/>
</g>
<defs>
<clipPath id="clip0_58_565">
<rect width="21.4187" height="16.064" fill="white" transform="translate(0.187134 0.261108)"/>
</clipPath>
<clipPath id="clip1_58_565">
<rect width="12.048" height="9.37069" fill="white" transform="translate(0.187134 0.261108)"/>
</clipPath>
</defs>
</svg>
