<svg width="22" height="17" viewBox="0 0 22 17" fill="none" xmlns="http://www.w3.org/2000/svg">
<g clip-path="url(#clip0_58_552)">
<rect width="21.4187" height="16.064" transform="translate(0.0249023 0.261108)" fill="white"/>
<path fill-rule="evenodd" clip-rule="evenodd" d="M0.315552 0.229126V16.2932H21.7343V0.229126H0.315552Z" fill="#EF0000"/>
<mask id="mask0_58_552" style="mask-type:luminance" maskUnits="userSpaceOnUse" x="0" y="0" width="22" height="17">
<path fill-rule="evenodd" clip-rule="evenodd" d="M0.315552 0.229126V16.2932H21.7343V0.229126H0.315552Z" fill="white"/>
</mask>
<g mask="url(#mask0_58_552)">
<path fill-rule="evenodd" clip-rule="evenodd" d="M0.315552 0.229126V9.59982H12.3636V0.229126H0.315552Z" fill="#2E42A5"/>
<path fill-rule="evenodd" clip-rule="evenodd" d="M6.15869 7.46513L5.16697 8.7024L4.92674 7.13502L3.44925 7.71067L4.02489 6.23317L2.45752 5.99295L3.69479 5.00122L2.45752 4.0095L4.02489 3.76927L3.44925 2.29178L4.92674 2.86742L5.16697 1.30005L6.15869 2.53732L7.15042 1.30005L7.39064 2.86742L8.86814 2.29178L8.2925 3.76927L9.85987 4.0095L8.6226 5.00122L9.85987 5.99295L8.2925 6.23317L8.86814 7.71067L7.39064 7.13502L7.15042 8.7024L6.15869 7.46513ZM6.15875 6.91706C7.21685 6.91706 8.07462 6.0593 8.07462 5.0012C8.07462 3.94309 7.21685 3.08533 6.15875 3.08533C5.10064 3.08533 4.24288 3.94309 4.24288 5.0012C4.24288 6.0593 5.10064 6.91706 6.15875 6.91706ZM7.69143 5.00123C7.69143 5.84771 7.00522 6.53392 6.15874 6.53392C5.31226 6.53392 4.62604 5.84771 4.62604 5.00123C4.62604 4.15474 5.31226 3.46853 6.15874 3.46853C7.00522 3.46853 7.69143 4.15474 7.69143 5.00123Z" fill="#FEFFFF"/>
</g>
</g>
<defs>
<clipPath id="clip0_58_552">
<rect width="21.4187" height="16.064" fill="white" transform="translate(0.0249023 0.261108)"/>
</clipPath>
</defs>
</svg>
