<svg width="22" height="17" viewBox="0 0 22 17" fill="none" xmlns="http://www.w3.org/2000/svg">
<g clip-path="url(#clip0_58_516)">
<rect width="21.4187" height="16.064" transform="translate(0.536865 0.261108)" fill="white"/>
<path fill-rule="evenodd" clip-rule="evenodd" d="M0.827515 0.229126V16.2932H22.2462V0.229126H0.827515Z" fill="#FECA00"/>
<mask id="mask0_58_516" style="mask-type:luminance" maskUnits="userSpaceOnUse" x="0" y="0" width="23" height="17">
<path fill-rule="evenodd" clip-rule="evenodd" d="M0.827515 0.229126V16.2932H22.2462V0.229126H0.827515Z" fill="white"/>
</mask>
<g mask="url(#mask0_58_516)">
<rect x="0.827515" y="0.229126" width="21.4187" height="2.67734" fill="#272727"/>
<rect x="0.827515" y="5.58386" width="21.4187" height="2.67734" fill="#D74800"/>
<rect x="0.827515" y="8.26111" width="21.4187" height="2.67734" fill="#272727"/>
<rect x="0.827515" y="13.6158" width="21.4187" height="2.67734" fill="#D74800"/>
<path fill-rule="evenodd" clip-rule="evenodd" d="M11.5369 12.2771C13.7549 12.2771 15.5529 10.4791 15.5529 8.26113C15.5529 6.04315 13.7549 4.24512 11.5369 4.24512C9.3189 4.24512 7.52087 6.04315 7.52087 8.26113C7.52087 10.4791 9.3189 12.2771 11.5369 12.2771Z" fill="#F7FCFF"/>
<path fill-rule="evenodd" clip-rule="evenodd" d="M9.98374 5.80377L9.2756 6.03613L9.98374 6.09676C9.98374 6.09676 10.0982 6.37677 9.98374 6.59537C9.95468 6.65086 9.87971 6.72195 9.78402 6.8127C9.50276 7.07943 9.04246 7.51595 9.04246 8.22515C9.04246 9.17565 10.8768 9.60662 10.8768 9.60662V10.0582C10.8768 10.0582 11.0897 10.1905 9.87499 10.1905C8.82156 10.1905 8.88744 10.5903 8.92351 10.8093C8.92903 10.8428 8.93386 10.8721 8.93386 10.895C8.93386 11.0678 9.44018 10.7222 9.67719 10.378C9.80195 10.1968 10.3244 10.2064 10.8606 10.2561C10.9029 10.26 11.2939 11.0882 10.9545 11.5161C10.8119 11.6958 10.3195 11.7192 10.0119 11.7338C9.85498 11.7413 9.74615 11.7465 9.75624 11.7689C9.76381 11.7858 9.85659 11.7802 9.99144 11.7722C10.1598 11.7621 10.3936 11.7482 10.6091 11.7689C10.6418 11.7721 10.515 11.8822 10.3868 11.9935C10.2547 12.1081 10.1211 12.2241 10.1587 12.2259C10.201 12.2279 10.4484 12.0908 10.6731 11.9663C10.8591 11.8633 11.0295 11.7689 11.0555 11.7689C11.2251 11.7689 11.3782 11.7898 11.5125 11.8082C11.737 11.8389 11.9089 11.8623 12.0171 11.7689C12.0505 11.7401 11.8572 11.6939 11.6602 11.6467C11.4572 11.598 11.2503 11.5484 11.2829 11.5161C11.4695 11.3309 11.3915 10.9428 11.3301 10.6371C11.3026 10.5 11.2784 10.3795 11.2829 10.3013C11.2988 10.0237 11.5925 10.1693 11.8233 10.2837C11.9244 10.3339 12.0134 10.378 12.0617 10.378C12.4988 10.378 11.9561 9.8252 11.6582 9.52178C11.6321 9.49519 11.6079 9.47051 11.5864 9.44829C11.4349 9.29188 11.5412 9.31289 11.7813 9.36038C11.9646 9.39663 12.2259 9.44829 12.5101 9.44829C13.1667 9.44829 13.6459 9.23499 13.4794 8.6574C13.3696 8.27634 12.7682 8.14668 12.1399 8.01122C11.8159 7.94135 11.4847 7.86994 11.2101 7.76169C10.5344 7.49538 10.5689 7.10711 10.598 6.77879C10.6037 6.71494 10.6091 6.65335 10.6091 6.59537C10.6091 6.23928 11.2101 5.80377 11.2101 5.80377C11.2101 5.80377 10.9358 5.34424 10.481 5.34424C10.0262 5.34424 9.98374 5.80377 9.98374 5.80377ZM11.2208 9.98565V9.6498C11.2208 9.6498 11.5016 9.64054 11.6001 9.87678C11.6986 10.113 11.2208 9.98565 11.2208 9.98565Z" fill="#272727"/>
<path fill-rule="evenodd" clip-rule="evenodd" d="M9.58044 4.72125L10.2589 5.52575L10.6102 5.44312L10.4417 4.63098L9.58044 4.72125Z" fill="#D74800"/>
<path fill-rule="evenodd" clip-rule="evenodd" d="M10.4611 4.52667L10.5048 5.7362L11.0841 5.59365L11.3308 4.80149L10.4611 4.52667Z" fill="#FFD018"/>
<path fill-rule="evenodd" clip-rule="evenodd" d="M9.91504 6.54689C10.043 6.54689 10.1467 6.44575 10.1467 6.32099C10.1467 6.19623 10.043 6.09509 9.91504 6.09509C9.78708 6.09509 9.68335 6.19623 9.68335 6.32099C9.68335 6.44575 9.78708 6.54689 9.91504 6.54689Z" fill="#D74800"/>
<path fill-rule="evenodd" clip-rule="evenodd" d="M11.3873 4.75335L10.7128 5.56115L10.8552 5.8928L11.6258 5.58584L11.3873 4.75335Z" fill="#D74800"/>
<path fill-rule="evenodd" clip-rule="evenodd" d="M12.955 10.867C12.955 10.867 14.1414 10.337 14.1414 9.59584C14.1414 8.85469 12.215 8.04736 12.215 8.04736C12.215 8.04736 11.0819 8.3067 11.5926 8.65376C12.1034 9.00081 12.7877 9.13414 12.7877 9.59584C12.7877 10.0575 12.9751 10.4978 12.5951 10.4978C12.215 10.4978 12.955 10.867 12.955 10.867Z" fill="#D74800"/>
<path fill-rule="evenodd" clip-rule="evenodd" d="M11.2435 7.91187C11.2435 7.91187 10.8239 7.98557 10.8438 8.05372C10.8989 8.24212 11.4726 8.48751 11.7226 8.65742C12.2334 9.00447 12.7176 8.96549 13.0779 8.73963C13.4381 8.51377 11.2435 7.91187 11.2435 7.91187Z" fill="#FFFDFF"/>
</g>
</g>
<defs>
<clipPath id="clip0_58_516">
<rect width="21.4187" height="16.064" fill="white" transform="translate(0.536865 0.261108)"/>
</clipPath>
</defs>
</svg>
