<svg width="22" height="17" viewBox="0 0 22 17" fill="none" xmlns="http://www.w3.org/2000/svg">
<g clip-path="url(#clip0_58_479)">
<rect width="21.4187" height="16.064" transform="translate(0 0.0986328)" fill="white"/>
<path fill-rule="evenodd" clip-rule="evenodd" d="M0.290649 0.0666504H21.7094V16.1307H0.290649V0.0666504Z" fill="#F7FCFF"/>
<path fill-rule="evenodd" clip-rule="evenodd" d="M0.290649 9.88354V11.2222H21.7094V9.88354H0.290649Z" fill="#E31D1C"/>
<path fill-rule="evenodd" clip-rule="evenodd" d="M0.290649 12.3378V13.6764H21.7094V12.3378H0.290649Z" fill="#E31D1C"/>
<path fill-rule="evenodd" clip-rule="evenodd" d="M0.290649 4.9751V6.31377H21.7094V4.9751H0.290649Z" fill="#E31D1C"/>
<path fill-rule="evenodd" clip-rule="evenodd" d="M0.290649 14.792V16.1307H21.7094V14.792H0.290649Z" fill="#E31D1C"/>
<path fill-rule="evenodd" clip-rule="evenodd" d="M0.290649 7.42932V8.76799H21.7094V7.42932H0.290649Z" fill="#E31D1C"/>
<path fill-rule="evenodd" clip-rule="evenodd" d="M0.290649 0.0666504V1.40532H21.7094V0.0666504H0.290649Z" fill="#E31D1C"/>
<path fill-rule="evenodd" clip-rule="evenodd" d="M0.290649 2.52087V3.85954H21.7094V2.52087H0.290649Z" fill="#E31D1C"/>
<rect x="0.290649" y="0.0666504" width="13.3867" height="8.70136" fill="#2E42A5"/>
<path fill-rule="evenodd" clip-rule="evenodd" d="M1.44332 2.03365L0.957459 2.37426L1.12149 1.76811L0.689958 1.38397H1.2536L1.44264 0.889282L1.6643 1.38397H2.14479L1.76726 1.76811L1.91341 2.37426L1.44332 2.03365ZM4.12064 2.0337L3.63478 2.37432L3.79881 1.76816L3.36728 1.38403H3.93092L4.11996 0.889342L4.34162 1.38403H4.82211L4.44458 1.76816L4.59074 2.37432L4.12064 2.0337ZM6.31212 2.37432L6.79798 2.0337L7.26808 2.37432L7.12192 1.76816L7.49945 1.38403H7.01896L6.7973 0.889342L6.60826 1.38403H6.04462L6.47615 1.76816L6.31212 2.37432ZM9.47532 2.0337L8.98946 2.37432L9.15349 1.76816L8.72196 1.38403H9.2856L9.47464 0.889342L9.69631 1.38403H10.1768L9.79926 1.76816L9.94542 2.37432L9.47532 2.0337ZM0.957442 5.05166L1.4433 4.71105L1.9134 5.05166L1.76724 4.4455L2.14477 4.06137H1.66428L1.44262 3.56668L1.25358 4.06137H0.689941L1.12147 4.4455L0.957442 5.05166ZM4.12064 4.71105L3.63478 5.05166L3.79881 4.4455L3.36728 4.06137H3.93092L4.11996 3.56668L4.34162 4.06137H4.82211L4.44458 4.4455L4.59074 5.05166L4.12064 4.71105ZM6.31212 5.05166L6.79798 4.71105L7.26808 5.05166L7.12192 4.4455L7.49945 4.06137H7.01896L6.7973 3.56668L6.60826 4.06137H6.04462L6.47615 4.4455L6.31212 5.05166ZM9.47532 4.71105L8.98946 5.05166L9.15349 4.4455L8.72196 4.06137H9.2856L9.47464 3.56668L9.69631 4.06137H10.1768L9.79926 4.4455L9.94542 5.05166L9.47532 4.71105ZM0.957442 7.729L1.4433 7.38839L1.9134 7.729L1.76724 7.12285L2.14477 6.73871H1.66428L1.44262 6.24402L1.25358 6.73871H0.689941L1.12147 7.12285L0.957442 7.729ZM4.12064 7.38839L3.63478 7.729L3.79881 7.12285L3.36728 6.73871H3.93092L4.11996 6.24402L4.34162 6.73871H4.82211L4.44458 7.12285L4.59074 7.729L4.12064 7.38839ZM6.31212 7.729L6.79798 7.38839L7.26808 7.729L7.12192 7.12285L7.49945 6.73871H7.01896L6.7973 6.24402L6.60826 6.73871H6.04462L6.47615 7.12285L6.31212 7.729ZM9.47532 7.38839L8.98946 7.729L9.15349 7.12285L8.72196 6.73871H9.2856L9.47464 6.24402L9.69631 6.73871H10.1768L9.79926 7.12285L9.94542 7.729L9.47532 7.38839ZM11.6668 2.37432L12.1527 2.0337L12.6228 2.37432L12.4766 1.76816L12.8541 1.38403H12.3736L12.152 0.889342L11.9629 1.38403H11.3993L11.8308 1.76816L11.6668 2.37432ZM12.1527 4.71105L11.6668 5.05166L11.8308 4.4455L11.3993 4.06137H11.9629L12.152 3.56668L12.3736 4.06137H12.8541L12.4766 4.4455L12.6228 5.05166L12.1527 4.71105ZM11.6668 7.729L12.1527 7.38839L12.6228 7.729L12.4766 7.12285L12.8541 6.73871H12.3736L12.152 6.24402L11.9629 6.73871H11.3993L11.8308 7.12285L11.6668 7.729ZM2.78197 3.37238L2.29611 3.71299L2.46014 3.10683L2.02861 2.7227H2.59225L2.78129 2.22801L3.00295 2.7227H3.48344L3.10591 3.10683L3.25207 3.71299L2.78197 3.37238ZM4.97345 3.71299L5.45931 3.37238L5.92941 3.71299L5.78325 3.10683L6.16078 2.7227H5.68029L5.45863 2.22801L5.26959 2.7227H4.70595L5.13748 3.10683L4.97345 3.71299ZM8.13665 3.37238L7.65079 3.71299L7.81482 3.10683L7.38329 2.7227H7.94693L8.13597 2.22801L8.35763 2.7227H8.83812L8.46059 3.10683L8.60675 3.71299L8.13665 3.37238ZM2.29611 6.39033L2.78197 6.04972L3.25207 6.39033L3.10591 5.78418L3.48344 5.40004H3.00295L2.78129 4.90535L2.59225 5.40004H2.02861L2.46014 5.78418L2.29611 6.39033ZM5.45931 6.04972L4.97345 6.39033L5.13748 5.78418L4.70595 5.40004H5.26959L5.45863 4.90535L5.68029 5.40004H6.16078L5.78325 5.78418L5.92941 6.39033L5.45931 6.04972ZM7.65079 6.39033L8.13665 6.04972L8.60675 6.39033L8.46059 5.78418L8.83812 5.40004H8.35763L8.13597 4.90535L7.94693 5.40004H7.38329L7.81482 5.78418L7.65079 6.39033ZM10.814 3.37238L10.3281 3.71299L10.4922 3.10683L10.0606 2.7227H10.6243L10.8133 2.22801L11.035 2.7227H11.5155L11.1379 3.10683L11.2841 3.71299L10.814 3.37238ZM10.3281 6.39033L10.814 6.04972L11.2841 6.39033L11.1379 5.78418L11.5155 5.40004H11.035L10.8133 4.90535L10.6243 5.40004H10.0606L10.4922 5.78418L10.3281 6.39033Z" fill="#F7FCFF"/>
</g>
<defs>
<clipPath id="clip0_58_479">
<rect width="21.4187" height="16.064" fill="white" transform="translate(0 0.0986328)"/>
</clipPath>
</defs>
</svg>
