<svg width="23" height="17" viewBox="0 0 23 17" fill="none" xmlns="http://www.w3.org/2000/svg">
<g clip-path="url(#clip0_58_442)">
<rect width="21.4187" height="16.064" transform="translate(0.837402 0.0986328)" fill="white"/>
<path fill-rule="evenodd" clip-rule="evenodd" d="M1.12805 0.0666504H22.5468V16.1307H1.12805V0.0666504Z" fill="#F7FCFF"/>
<path fill-rule="evenodd" clip-rule="evenodd" d="M1.12805 9.88354V11.2222H22.5468V9.88354H1.12805Z" fill="#E31D1C"/>
<path fill-rule="evenodd" clip-rule="evenodd" d="M1.12805 12.3378V13.6764H22.5468V12.3378H1.12805Z" fill="#E31D1C"/>
<path fill-rule="evenodd" clip-rule="evenodd" d="M1.12805 4.9751V6.31377H22.5468V4.9751H1.12805Z" fill="#E31D1C"/>
<path fill-rule="evenodd" clip-rule="evenodd" d="M1.12805 14.792V16.1307H22.5468V14.792H1.12805Z" fill="#E31D1C"/>
<path fill-rule="evenodd" clip-rule="evenodd" d="M1.12805 7.42932V8.76799H22.5468V7.42932H1.12805Z" fill="#E31D1C"/>
<path fill-rule="evenodd" clip-rule="evenodd" d="M1.12805 0.0666504V1.40532H22.5468V0.0666504H1.12805Z" fill="#E31D1C"/>
<path fill-rule="evenodd" clip-rule="evenodd" d="M1.12805 2.52087V3.85954H22.5468V2.52087H1.12805Z" fill="#E31D1C"/>
<rect x="1.12805" y="0.0666504" width="13.3867" height="8.70136" fill="#2E42A5"/>
<path fill-rule="evenodd" clip-rule="evenodd" d="M2.28072 2.03365L1.79486 2.37426L1.95889 1.76811L1.52736 1.38397H2.091L2.28004 0.889282L2.5017 1.38397H2.98219L2.60466 1.76811L2.75082 2.37426L2.28072 2.03365ZM4.95804 2.0337L4.47218 2.37432L4.63622 1.76816L4.20468 1.38403H4.76832L4.95736 0.889342L5.17903 1.38403H5.65951L5.28198 1.76816L5.42814 2.37432L4.95804 2.0337ZM7.14953 2.37432L7.63538 2.0337L8.10548 2.37432L7.95932 1.76816L8.33685 1.38403H7.85637L7.6347 0.889342L7.44566 1.38403H6.88202L7.31356 1.76816L7.14953 2.37432ZM10.3127 2.0337L9.82687 2.37432L9.9909 1.76816L9.55936 1.38403H10.123L10.312 0.889342L10.5337 1.38403H11.0142L10.6367 1.76816L10.7828 2.37432L10.3127 2.0337ZM1.79484 5.05166L2.2807 4.71105L2.7508 5.05166L2.60464 4.4455L2.98217 4.06137H2.50169L2.28002 3.56668L2.09098 4.06137H1.52734L1.95888 4.4455L1.79484 5.05166ZM4.95804 4.71105L4.47218 5.05166L4.63622 4.4455L4.20468 4.06137H4.76832L4.95736 3.56668L5.17903 4.06137H5.65951L5.28198 4.4455L5.42814 5.05166L4.95804 4.71105ZM7.14953 5.05166L7.63538 4.71105L8.10548 5.05166L7.95932 4.4455L8.33685 4.06137H7.85637L7.6347 3.56668L7.44566 4.06137H6.88202L7.31356 4.4455L7.14953 5.05166ZM10.3127 4.71105L9.82687 5.05166L9.9909 4.4455L9.55936 4.06137H10.123L10.312 3.56668L10.5337 4.06137H11.0142L10.6367 4.4455L10.7828 5.05166L10.3127 4.71105ZM1.79484 7.729L2.2807 7.38839L2.7508 7.729L2.60464 7.12285L2.98217 6.73871H2.50169L2.28002 6.24402L2.09098 6.73871H1.52734L1.95888 7.12285L1.79484 7.729ZM4.95804 7.38839L4.47218 7.729L4.63622 7.12285L4.20468 6.73871H4.76832L4.95736 6.24402L5.17903 6.73871H5.65951L5.28198 7.12285L5.42814 7.729L4.95804 7.38839ZM7.14953 7.729L7.63538 7.38839L8.10548 7.729L7.95932 7.12285L8.33685 6.73871H7.85637L7.6347 6.24402L7.44566 6.73871H6.88202L7.31356 7.12285L7.14953 7.729ZM10.3127 7.38839L9.82687 7.729L9.9909 7.12285L9.55936 6.73871H10.123L10.312 6.24402L10.5337 6.73871H11.0142L10.6367 7.12285L10.7828 7.729L10.3127 7.38839ZM12.5042 2.37432L12.9901 2.0337L13.4602 2.37432L13.314 1.76816L13.6915 1.38403H13.211L12.9894 0.889342L12.8003 1.38403H12.2367L12.6682 1.76816L12.5042 2.37432ZM12.9901 4.71105L12.5042 5.05166L12.6682 4.4455L12.2367 4.06137H12.8003L12.9894 3.56668L13.211 4.06137H13.6915L13.314 4.4455L13.4602 5.05166L12.9901 4.71105ZM12.5042 7.729L12.9901 7.38839L13.4602 7.729L13.314 7.12285L13.6915 6.73871H13.211L12.9894 6.24402L12.8003 6.73871H12.2367L12.6682 7.12285L12.5042 7.729ZM3.61937 3.37238L3.13351 3.71299L3.29755 3.10683L2.86601 2.7227H3.42965L3.61869 2.22801L3.84036 2.7227H4.32084L3.94331 3.10683L4.08947 3.71299L3.61937 3.37238ZM5.81086 3.71299L6.29671 3.37238L6.76681 3.71299L6.62065 3.10683L6.99818 2.7227H6.5177L6.29603 2.22801L6.10699 2.7227H5.54335L5.97489 3.10683L5.81086 3.71299ZM8.97405 3.37238L8.4882 3.71299L8.65223 3.10683L8.22069 2.7227H8.78433L8.97337 2.22801L9.19504 2.7227H9.67552L9.29799 3.10683L9.44415 3.71299L8.97405 3.37238ZM3.13351 6.39033L3.61937 6.04972L4.08947 6.39033L3.94331 5.78418L4.32084 5.40004H3.84036L3.61869 4.90535L3.42965 5.40004H2.86601L3.29755 5.78418L3.13351 6.39033ZM6.29671 6.04972L5.81086 6.39033L5.97489 5.78418L5.54335 5.40004H6.10699L6.29603 4.90535L6.5177 5.40004H6.99818L6.62065 5.78418L6.76681 6.39033L6.29671 6.04972ZM8.4882 6.39033L8.97405 6.04972L9.44415 6.39033L9.29799 5.78418L9.67552 5.40004H9.19504L8.97337 4.90535L8.78433 5.40004H8.22069L8.65223 5.78418L8.4882 6.39033ZM11.6514 3.37238L11.1655 3.71299L11.3296 3.10683L10.898 2.7227H11.4617L11.6507 2.22801L11.8724 2.7227H12.3529L11.9753 3.10683L12.1215 3.71299L11.6514 3.37238ZM11.1655 6.39033L11.6514 6.04972L12.1215 6.39033L11.9753 5.78418L12.3529 5.40004H11.8724L11.6507 4.90535L11.4617 5.40004H10.898L11.3296 5.78418L11.1655 6.39033Z" fill="#F7FCFF"/>
</g>
<defs>
<clipPath id="clip0_58_442">
<rect width="21.4187" height="16.064" fill="white" transform="translate(0.837402 0.0986328)"/>
</clipPath>
</defs>
</svg>
