<svg width="23" height="17" viewBox="0 0 23 17" fill="none" xmlns="http://www.w3.org/2000/svg">
<g clip-path="url(#clip0_58_399)">
<rect width="21.4187" height="16.064" transform="translate(0.674805 0.0986328)" fill="white"/>
<path fill-rule="evenodd" clip-rule="evenodd" d="M0.965454 0.0666504V16.1307H22.3842V0.0666504H0.965454Z" fill="#F7FCFF"/>
<mask id="mask0_58_399" style="mask-type:luminance" maskUnits="userSpaceOnUse" x="0" y="0" width="23" height="17">
<path fill-rule="evenodd" clip-rule="evenodd" d="M0.965454 0.0666504V16.1307H22.3842V0.0666504H0.965454Z" fill="white"/>
</mask>
<g mask="url(#mask0_58_399)">
<rect x="0.965454" y="1.40527" width="21.4187" height="2.00801" fill="#2E42A5"/>
<rect x="0.965454" y="5.42139" width="21.4187" height="2.00801" fill="#2E42A5"/>
<rect x="0.965454" y="9.43738" width="21.4187" height="2.00801" fill="#2E42A5"/>
<rect x="0.965454" y="12.7841" width="21.4187" height="2.00801" fill="#2E42A5"/>
<rect x="0.965454" y="0.0666504" width="9.37069" height="9.37069" fill="#F7FCFF"/>
<path fill-rule="evenodd" clip-rule="evenodd" d="M4.16657 1.795C4.11752 1.79171 4.0747 1.82846 4.07092 1.87708C4.05257 2.11345 4.26063 2.32833 4.37582 2.4473L4.38718 2.45904C4.40537 2.47788 4.42401 2.49648 4.44735 2.51928C4.44734 2.51927 4.50182 2.57216 4.51673 2.5869C4.61677 2.68583 4.63845 2.77849 4.66279 2.88252L4.66882 2.90811C4.67935 2.95219 4.69017 3.00549 4.70206 3.06401L4.70206 3.06401C4.75475 3.32335 4.82829 3.68534 4.98893 3.80334C5.02827 3.83224 5.30391 3.66056 5.33345 3.62132C5.34387 3.60748 5.37468 3.58457 5.40847 3.55945C5.47047 3.51335 5.5425 3.4598 5.51703 3.44109C5.34882 3.31753 5.22104 3.01808 5.05502 2.5869C4.96638 2.38389 4.73427 2.25484 4.54165 2.14775C4.37713 2.05629 4.24143 1.98084 4.24856 1.889C4.25233 1.84038 4.21563 1.7983 4.16657 1.795ZM6.87561 1.86149C6.85166 1.81856 6.79752 1.80265 6.75468 1.82597C6.54645 1.93931 6.47955 2.23084 6.44251 2.39224L6.43885 2.40816C6.43296 2.43368 6.42751 2.45944 6.42111 2.49144C6.42111 2.49142 6.40643 2.56592 6.40218 2.58645C6.3737 2.72423 6.3078 2.79288 6.2338 2.86996L6.21563 2.88895C6.18439 2.92179 6.14559 2.95989 6.10298 3.00174C5.91417 3.18718 5.65064 3.446 5.63917 3.64499C5.63636 3.69373 5.93047 3.83139 5.97946 3.8348C5.99675 3.836 6.03274 3.84936 6.07221 3.86402L6.07221 3.86402C6.14464 3.89091 6.22878 3.92215 6.2306 3.89061C6.24261 3.68224 6.42416 3.41197 6.69535 3.0379C6.81733 2.85299 6.79915 2.58804 6.78405 2.36818C6.77116 2.18038 6.76053 2.02548 6.84143 1.98144C6.88426 1.95813 6.89957 1.90442 6.87561 1.86149ZM8.60665 3.43371C8.65388 3.44587 8.68263 3.49442 8.67087 3.54216C8.65911 3.5899 8.61129 3.61874 8.56406 3.60658C8.47486 3.58361 8.37699 3.70415 8.25835 3.85029C8.11944 4.02138 7.95205 4.22755 7.73672 4.27959C7.28327 4.36822 6.96618 4.44207 6.81528 4.58626C6.79244 4.60809 6.75221 4.52786 6.71758 4.4588L6.71757 4.45879C6.6987 4.42115 6.68149 4.38684 6.66967 4.37417C6.63616 4.33827 6.51495 4.037 6.55024 4.00328C6.69434 3.86557 7.0636 3.85601 7.32816 3.84915L7.32818 3.84915C7.38787 3.84761 7.44222 3.8462 7.48746 3.84349L7.5137 3.84199C7.62039 3.83609 7.7154 3.83082 7.8302 3.74949C7.84731 3.73736 7.90885 3.69289 7.90884 3.6929C7.93534 3.67387 7.9569 3.65875 7.97861 3.6441L7.99215 3.63496C8.12931 3.54218 8.37706 3.37459 8.60665 3.43371ZM2.52022 3.73044C2.4832 3.7628 2.4789 3.81906 2.51061 3.85611C2.66478 4.03623 2.96384 4.04105 3.12942 4.04372C3.13502 4.04381 3.14046 4.0439 3.14575 4.04399C3.17193 4.04445 3.19827 4.04443 3.23089 4.04404C3.23088 4.04404 3.3068 4.04291 3.32777 4.0428C3.46846 4.04201 3.54931 4.0922 3.64009 4.14855C3.64746 4.15313 3.6549 4.15775 3.66244 4.16238C3.70106 4.18611 3.7464 4.21614 3.79618 4.24911C4.01683 4.39524 4.32479 4.5992 4.52182 4.56906C4.57007 4.56167 4.64358 4.24537 4.63672 4.19673C4.6343 4.17958 4.63989 4.14159 4.64602 4.09993C4.65726 4.0235 4.67033 3.9347 4.6391 3.93948C4.43278 3.97105 4.13068 3.84966 3.70839 3.66217C3.50217 3.5813 3.24679 3.65417 3.03487 3.71465C2.85386 3.76631 2.70455 3.80891 2.64465 3.73893C2.61294 3.70188 2.55723 3.69808 2.52022 3.73044Z" fill="#FFC125"/>
<path d="M4.07092 1.87708L4.12097 1.88096L4.12097 1.88096L4.07092 1.87708ZM4.37582 2.4473L4.4119 2.41239L4.41188 2.41238L4.37582 2.4473ZM4.38718 2.45904L4.42329 2.42417L4.42326 2.42414L4.38718 2.45904ZM4.44735 2.51928L4.41228 2.5552L4.4825 2.48344L4.44735 2.51928ZM4.51673 2.5869L4.55203 2.55121L4.55203 2.55121L4.51673 2.5869ZM4.66279 2.88252L4.61391 2.89396L4.61393 2.89403L4.66279 2.88252ZM4.66882 2.90811L4.61996 2.91962L4.61999 2.91977L4.66882 2.90811ZM4.70206 3.06401L4.75194 3.05736L4.75126 3.05401L4.70206 3.06401ZM4.70206 3.06401L4.65219 3.07066L4.65287 3.074L4.70206 3.06401ZM4.98893 3.80334L5.01865 3.76288L5.01865 3.76288L4.98893 3.80334ZM5.33345 3.62132L5.37355 3.65151L5.37355 3.65151L5.33345 3.62132ZM5.40847 3.55945L5.43842 3.59973L5.43842 3.59973L5.40847 3.55945ZM5.51703 3.44109L5.54675 3.40064L5.54675 3.40064L5.51703 3.44109ZM5.05502 2.5869L5.10191 2.56885L5.10102 2.56681L5.05502 2.5869ZM4.54165 2.14775L4.51726 2.19163L4.51726 2.19163L4.54165 2.14775ZM4.24856 1.889L4.29861 1.89289L4.29861 1.89289L4.24856 1.889ZM6.75468 1.82597L6.73068 1.78188L6.73068 1.78188L6.75468 1.82597ZM6.87561 1.86149L6.91945 1.83703L6.91945 1.83703L6.87561 1.86149ZM6.44251 2.39224L6.49144 2.40349L6.49144 2.40347L6.44251 2.39224ZM6.43885 2.40816L6.48777 2.41945L6.48778 2.41941L6.43885 2.40816ZM6.42111 2.49144L6.37188 2.48158L6.47025 2.50168L6.42111 2.49144ZM6.40218 2.58645L6.45134 2.59662L6.45134 2.59662L6.40218 2.58645ZM6.2338 2.86996L6.19759 2.83519L6.19754 2.83525L6.2338 2.86996ZM6.21563 2.88895L6.17936 2.85424L6.17926 2.85435L6.21563 2.88895ZM6.10298 3.00174L6.06781 2.96592L6.06781 2.96592L6.10298 3.00174ZM5.63917 3.64499L5.58905 3.6421L5.58905 3.6421L5.63917 3.64499ZM5.97946 3.8348L5.97598 3.88487L5.97598 3.88487L5.97946 3.8348ZM6.07221 3.86402L6.05463 3.91137L6.06004 3.91272L6.07221 3.86402ZM6.07221 3.86402L6.0898 3.81667L6.08439 3.81532L6.07221 3.86402ZM6.2306 3.89061L6.28071 3.8935L6.28071 3.8935L6.2306 3.89061ZM6.69535 3.0379L6.73603 3.06739L6.73726 3.06554L6.69535 3.0379ZM6.78405 2.36818L6.73397 2.37162L6.73397 2.37162L6.78405 2.36818ZM6.84143 1.98144L6.86543 2.02553L6.86543 2.02553L6.84143 1.98144ZM8.67087 3.54216L8.62212 3.53015L8.62212 3.53015L8.67087 3.54216ZM8.60665 3.43371L8.59413 3.48232L8.59413 3.48232L8.60665 3.43371ZM8.56406 3.60658L8.55155 3.65519L8.55155 3.65519L8.56406 3.60658ZM8.25835 3.85029L8.29732 3.88193L8.29732 3.88193L8.25835 3.85029ZM7.73672 4.27959L7.74636 4.32891L7.74852 4.32839L7.73672 4.27959ZM6.81528 4.58626L6.7806 4.54997L6.7806 4.54997L6.81528 4.58626ZM6.71758 4.4588L6.67135 4.47861L6.6727 4.4813L6.71758 4.4588ZM6.71757 4.45879L6.7638 4.43898L6.76245 4.43629L6.71757 4.45879ZM6.66967 4.37417L6.63298 4.40843L6.63298 4.40843L6.66967 4.37417ZM6.55024 4.00328L6.51556 3.96698L6.51556 3.96698L6.55024 4.00328ZM7.32816 3.84915L7.32946 3.89934L7.32983 3.89933L7.32816 3.84915ZM7.32818 3.84915L7.32688 3.79897L7.32651 3.79898L7.32818 3.84915ZM7.48746 3.84349L7.48461 3.79337L7.48446 3.79338L7.48746 3.84349ZM7.5137 3.84199L7.51093 3.79187L7.51085 3.79187L7.5137 3.84199ZM7.8302 3.74949L7.85922 3.79045L7.85922 3.79045L7.8302 3.74949ZM7.90884 3.6929L7.87956 3.65213L7.93808 3.73371L7.90884 3.6929ZM7.97861 3.6441L8.00669 3.68572L8.00672 3.6857L7.97861 3.6441ZM7.99215 3.63496L8.02026 3.67655L8.02028 3.67654L7.99215 3.63496ZM2.51061 3.85611L2.47247 3.88875L2.47247 3.88875L2.51061 3.85611ZM2.52022 3.73044L2.55326 3.76823L2.55326 3.76823L2.52022 3.73044ZM3.12942 4.04372L3.13023 3.99353L3.13022 3.99353L3.12942 4.04372ZM3.14575 4.04399L3.14662 3.9938L3.14662 3.9938L3.14575 4.04399ZM3.23089 4.04404L3.23158 4.09424L3.2303 3.99384L3.23089 4.04404ZM3.32777 4.0428L3.32805 4.093L3.32805 4.093L3.32777 4.0428ZM3.64009 4.14855L3.66656 4.1059L3.66656 4.1059L3.64009 4.14855ZM3.66244 4.16238L3.68872 4.11961L3.68872 4.11961L3.66244 4.16238ZM3.79618 4.24911L3.8239 4.20726L3.8239 4.20726L3.79618 4.24911ZM4.52182 4.56906L4.52941 4.61868L4.52941 4.61868L4.52182 4.56906ZM4.63672 4.19673L4.68643 4.18972L4.68643 4.18972L4.63672 4.19673ZM4.64602 4.09993L4.59635 4.09263L4.59635 4.09263L4.64602 4.09993ZM4.6391 3.93948L4.6315 3.88986L4.6315 3.88986L4.6391 3.93948ZM3.70839 3.66217L3.72879 3.61625L3.72672 3.61544L3.70839 3.66217ZM3.03487 3.71465L3.02109 3.66638L3.02109 3.66638L3.03487 3.71465ZM2.64465 3.73893L2.60651 3.77158L2.60651 3.77158L2.64465 3.73893ZM4.12097 1.88096C4.12259 1.86016 4.14124 1.84362 4.16321 1.84509L4.16994 1.74492C4.0938 1.73981 4.02681 1.79676 4.02087 1.87319L4.12097 1.88096ZM4.41188 2.41238C4.354 2.35259 4.27645 2.27233 4.21532 2.17876C4.15398 2.08489 4.11302 1.98334 4.12097 1.88096L4.02087 1.87319C4.01047 2.00719 4.06436 2.13127 4.13127 2.23367C4.19837 2.33638 4.28245 2.42304 4.33975 2.48222L4.41188 2.41238ZM4.42326 2.42414L4.4119 2.41239L4.33974 2.4822L4.3511 2.49394L4.42326 2.42414ZM4.48242 2.48336C4.4593 2.46078 4.44103 2.44254 4.42329 2.42417L4.35107 2.49391C4.36971 2.51321 4.38871 2.53219 4.41228 2.5552L4.48242 2.48336ZM4.55203 2.55121C4.5444 2.54366 4.52688 2.52658 4.51145 2.51158C4.5037 2.50403 4.49641 2.49695 4.49107 2.49176C4.4884 2.48916 4.48621 2.48704 4.48469 2.48556C4.48393 2.48483 4.48334 2.48425 4.48293 2.48386C4.48273 2.48366 4.48258 2.48351 4.48247 2.48341C4.48242 2.48336 4.48238 2.48332 4.48235 2.4833C4.48234 2.48328 4.48233 2.48327 4.48232 2.48327C4.48232 2.48326 4.48232 2.48326 4.48231 2.48326C4.48231 2.48325 4.48231 2.48325 4.48231 2.48325C4.4823 2.48324 4.41141 2.48423 4.4122 2.55512L4.4825 2.48344C4.48329 2.55433 4.4124 2.55532 4.4124 2.55531C4.41239 2.55531 4.41239 2.55531 4.41239 2.55531C4.41239 2.55531 4.41239 2.55531 4.41239 2.55531C4.41239 2.55531 4.41239 2.55531 4.4124 2.55531C4.4124 2.55532 4.41241 2.55533 4.41242 2.55534C4.41245 2.55536 4.41249 2.5554 4.41254 2.55545C4.41264 2.55555 4.41279 2.5557 4.41299 2.55589C4.4134 2.55628 4.41399 2.55686 4.41474 2.55759C4.41626 2.55906 4.41844 2.56118 4.42111 2.56377C4.42644 2.56895 4.43371 2.57602 4.44144 2.58354C4.45698 2.59866 4.47416 2.6154 4.48143 2.6226L4.55203 2.55121ZM4.71167 2.87109C4.68709 2.76603 4.66296 2.6609 4.55203 2.55121L4.48143 2.6226C4.57058 2.71075 4.58981 2.79094 4.61391 2.89396L4.71167 2.87109ZM4.71768 2.8966L4.71165 2.87101L4.61393 2.89403L4.61996 2.91962L4.71768 2.8966ZM4.75126 3.05401C4.73942 2.99576 4.72841 2.94154 4.71765 2.89645L4.61999 2.91977C4.63028 2.96285 4.64092 3.01521 4.65287 3.074L4.75126 3.05401ZM4.75182 3.05737L4.75182 3.05737L4.6523 3.07064L4.6523 3.07064L4.75182 3.05737ZM5.01865 3.76288C4.95228 3.71413 4.89762 3.60826 4.85272 3.47107C4.80874 3.33665 4.77771 3.18424 4.75126 3.05401L4.65287 3.074C4.6791 3.20312 4.71119 3.36138 4.7573 3.50229C4.80251 3.64043 4.86494 3.77455 4.95921 3.8438L5.01865 3.76288ZM5.29334 3.59112C5.29379 3.59053 5.29072 3.59411 5.28033 3.60246C5.27113 3.60985 5.25884 3.61892 5.24414 3.62908C5.2148 3.64937 5.17758 3.67284 5.13999 3.69428C5.10214 3.71586 5.06538 3.73455 5.03667 3.74596C5.0221 3.75174 5.0116 3.75484 5.00509 3.75599C5.00184 3.75656 5.00134 3.75633 5.00279 3.75644C5.00391 3.75652 5.01083 3.75714 5.01865 3.76288L4.95921 3.8438C4.97194 3.85315 4.98563 3.85582 4.99513 3.85654C5.00494 3.8573 5.01443 3.8563 5.02254 3.85486C5.03875 3.852 5.05647 3.84612 5.07373 3.83927C5.1087 3.82538 5.15007 3.80411 5.18974 3.78149C5.22967 3.75871 5.26936 3.73371 5.30124 3.71167C5.31715 3.70067 5.33154 3.69011 5.34323 3.68072C5.35371 3.67229 5.36572 3.66191 5.37355 3.65151L5.29334 3.59112ZM5.37852 3.51916C5.36184 3.53156 5.34489 3.54415 5.33081 3.55543C5.31801 3.56569 5.30287 3.57848 5.29334 3.59112L5.37355 3.65151C5.37346 3.65164 5.37476 3.65001 5.37878 3.64631C5.38251 3.64288 5.38743 3.63872 5.39358 3.63379C5.40596 3.62388 5.42131 3.61246 5.43842 3.59973L5.37852 3.51916ZM5.48731 3.48155C5.48022 3.47634 5.47354 3.46692 5.47229 3.45483C5.47128 3.44508 5.47441 3.43899 5.47453 3.43874C5.47454 3.43872 5.47155 3.44354 5.46094 3.45364C5.44107 3.47255 5.4104 3.49546 5.37852 3.51916L5.43842 3.59973C5.46854 3.57734 5.50488 3.55042 5.53016 3.52636C5.54213 3.51497 5.55624 3.50001 5.56453 3.48325C5.56879 3.47463 5.57386 3.46092 5.57216 3.44449C5.57021 3.42571 5.56021 3.41052 5.54675 3.40064L5.48731 3.48155ZM5.00817 2.60494C5.09112 2.82037 5.16542 3.00534 5.24051 3.1522C5.31516 3.29823 5.39351 3.41264 5.48731 3.48155L5.54675 3.40064C5.47235 3.34598 5.4027 3.24888 5.3299 3.1065C5.25753 2.96495 5.18494 2.78461 5.10186 2.56886L5.00817 2.60494ZM4.51726 2.19163C4.61411 2.24548 4.71707 2.30282 4.80689 2.37128C4.89669 2.43972 4.96949 2.51648 5.00901 2.60699L5.10102 2.56681C5.0519 2.45432 4.96433 2.36504 4.86775 2.29143C4.77121 2.21785 4.66181 2.15712 4.56605 2.10388L4.51726 2.19163ZM4.19851 1.88511C4.19279 1.95875 4.24495 2.0153 4.29988 2.05811C4.35723 2.10281 4.43623 2.14658 4.51726 2.19163L4.56605 2.10388C4.48256 2.05746 4.41144 2.01777 4.36159 1.97892C4.30932 1.93818 4.29719 1.91108 4.29861 1.89289L4.19851 1.88511ZM4.16321 1.84509C4.18479 1.84654 4.20009 1.86473 4.19851 1.88511L4.29861 1.89289C4.30457 1.81603 4.24647 1.75005 4.16994 1.74492L4.16321 1.84509ZM6.77868 1.87006C6.79701 1.86008 6.82104 1.86672 6.83177 1.88595L6.91945 1.83703C6.88227 1.7704 6.79802 1.74523 6.73068 1.78188L6.77868 1.87006ZM6.49144 2.40347C6.51006 2.32236 6.53514 2.21361 6.58032 2.11138C6.62564 2.00881 6.68849 1.91915 6.77868 1.87006L6.73068 1.78188C6.61264 1.84613 6.53793 1.95891 6.48848 2.07079C6.43889 2.18301 6.41201 2.30072 6.39359 2.38101L6.49144 2.40347ZM6.48778 2.41941L6.49144 2.40349L6.39359 2.38099L6.38993 2.39691L6.48778 2.41941ZM6.47033 2.50129C6.47667 2.4696 6.48202 2.44434 6.48777 2.41945L6.38994 2.39687C6.38391 2.42302 6.37835 2.44929 6.37188 2.48158L6.47033 2.50129ZM6.45134 2.59662C6.45351 2.5861 6.45829 2.56211 6.46248 2.541C6.46458 2.53039 6.46655 2.52043 6.468 2.51312C6.46872 2.50946 6.46931 2.50647 6.46972 2.50439C6.46992 2.50335 6.47008 2.50254 6.47019 2.50199C6.47025 2.50171 6.47029 2.5015 6.47032 2.50136C6.47033 2.50129 6.47034 2.50123 6.47035 2.5012C6.47035 2.50118 6.47035 2.50116 6.47036 2.50115C6.47036 2.50115 6.47036 2.50114 6.47036 2.50113C6.47036 2.50113 6.47036 2.50112 6.47036 2.50111C6.47037 2.50109 6.43104 2.44223 6.37196 2.4812L6.47025 2.50168C6.41117 2.54064 6.37184 2.48178 6.37185 2.48176C6.37185 2.48176 6.37185 2.48175 6.37185 2.48175C6.37185 2.48175 6.37185 2.48175 6.37185 2.48175C6.37185 2.48176 6.37185 2.48177 6.37184 2.48179C6.37184 2.48182 6.37182 2.48187 6.37181 2.48194C6.37178 2.48208 6.37174 2.48229 6.37169 2.48257C6.37158 2.48311 6.37142 2.48392 6.37122 2.48496C6.37081 2.48703 6.37022 2.49001 6.3695 2.49366C6.36806 2.50096 6.36609 2.5109 6.36399 2.52148C6.35978 2.54275 6.35509 2.56627 6.35302 2.57629L6.45134 2.59662ZM6.27002 2.90472C6.34473 2.82689 6.41976 2.74939 6.45134 2.59662L6.35302 2.57629C6.32764 2.69907 6.27086 2.75887 6.19759 2.83519L6.27002 2.90472ZM6.25189 2.92366L6.27007 2.90467L6.19754 2.83525L6.17936 2.85424L6.25189 2.92366ZM6.13816 3.03755C6.18057 2.9959 6.22004 2.95714 6.252 2.92355L6.17926 2.85435C6.14873 2.88644 6.11061 2.92389 6.06781 2.96592L6.13816 3.03755ZM5.68928 3.64788C5.69402 3.56567 5.75304 3.46217 5.84365 3.34979C5.93243 3.23969 6.04335 3.13067 6.13816 3.03755L6.06781 2.96592C5.9738 3.05825 5.85856 3.17135 5.76549 3.28677C5.67426 3.39992 5.59578 3.52533 5.58905 3.6421L5.68928 3.64788ZM5.98294 3.78472C5.98368 3.78477 5.97902 3.78414 5.96634 3.77997C5.95514 3.77629 5.94083 3.77092 5.92431 3.76412C5.89132 3.75057 5.85136 3.73213 5.81291 3.71229C5.77419 3.6923 5.7385 3.67165 5.7133 3.65378C5.7005 3.64471 5.69219 3.63759 5.68768 3.63276C5.68543 3.63035 5.68536 3.6298 5.68605 3.63107C5.68659 3.63206 5.68984 3.6382 5.68928 3.64788L5.58905 3.6421C5.58814 3.65788 5.59336 3.67081 5.59792 3.67917C5.60264 3.68781 5.60864 3.69522 5.61426 3.70125C5.62549 3.71328 5.64008 3.72494 5.65523 3.73568C5.68591 3.75744 5.72628 3.78056 5.76686 3.8015C5.80771 3.82259 5.8503 3.84225 5.88614 3.85699C5.90404 3.86434 5.92073 3.87066 5.93497 3.87535C5.94775 3.87955 5.96299 3.88397 5.97598 3.88487L5.98294 3.78472ZM6.08969 3.81696C6.07021 3.80972 6.05041 3.80237 6.03328 3.7967C6.01771 3.79155 5.99874 3.78581 5.98294 3.78472L5.97598 3.88487C5.97582 3.88486 5.9779 3.88506 5.9832 3.88643C5.9881 3.88769 5.99427 3.88955 6.00175 3.89202C6.01681 3.897 6.03474 3.90365 6.05474 3.91108L6.08969 3.81696ZM6.08439 3.81532L6.08439 3.81532L6.06004 3.91272L6.06004 3.91272L6.08439 3.81532ZM6.18048 3.88772C6.18099 3.87893 6.18525 3.8682 6.19471 3.86056C6.20233 3.85441 6.20915 3.85371 6.20943 3.85368C6.20944 3.85368 6.20377 3.85379 6.18953 3.85039C6.16284 3.84403 6.12693 3.83078 6.08969 3.81696L6.05474 3.91108C6.08992 3.92414 6.13229 3.93996 6.16624 3.94805C6.18231 3.95189 6.20254 3.95557 6.22111 3.9534C6.23067 3.95228 6.24492 3.94906 6.25777 3.93868C6.27246 3.92682 6.27975 3.91017 6.28071 3.8935L6.18048 3.88772ZM6.65471 3.00843C6.51921 3.19533 6.40455 3.35839 6.32227 3.50135C6.24047 3.64349 6.18718 3.77151 6.18048 3.88772L6.28071 3.8935C6.28603 3.80133 6.32953 3.69003 6.40929 3.55143C6.48859 3.41364 6.6003 3.25454 6.73599 3.06736L6.65471 3.00843ZM6.73397 2.37162C6.74156 2.48217 6.74954 2.59975 6.74105 2.71237C6.73255 2.82496 6.70783 2.92781 6.65345 3.01025L6.73726 3.06554C6.80485 2.96308 6.83203 2.841 6.84116 2.71992C6.8503 2.59888 6.84164 2.47405 6.83414 2.36474L6.73397 2.37162ZM6.81743 1.93735C6.75256 1.97266 6.73354 2.04721 6.72755 2.11658C6.7213 2.18903 6.72762 2.27912 6.73397 2.37162L6.83414 2.36474C6.82759 2.26944 6.82215 2.18818 6.82758 2.12522C6.83328 2.05918 6.8494 2.03426 6.86543 2.02553L6.81743 1.93735ZM6.83177 1.88595C6.84231 1.90483 6.83539 1.92757 6.81743 1.93735L6.86543 2.02553C6.93314 1.98868 6.95682 1.90401 6.91945 1.83703L6.83177 1.88595ZM8.71961 3.55417C8.73786 3.48008 8.69341 3.40421 8.61917 3.38509L8.59413 3.48232C8.61434 3.48753 8.62739 3.50877 8.62212 3.53015L8.71961 3.55417ZM8.55155 3.65519C8.6262 3.67441 8.70126 3.62865 8.71961 3.55417L8.62212 3.53015C8.61695 3.55115 8.59638 3.56306 8.57658 3.55796L8.55155 3.65519ZM8.29732 3.88193C8.35753 3.80777 8.40896 3.74463 8.45588 3.70228C8.50508 3.65787 8.53387 3.65064 8.55155 3.65519L8.57658 3.55796C8.50506 3.53954 8.44031 3.58109 8.38861 3.62775C8.33463 3.67647 8.27781 3.74667 8.21937 3.81865L8.29732 3.88193ZM7.74852 4.32839C7.86784 4.29955 7.97097 4.22881 8.06022 4.14649C8.14946 4.06419 8.22826 3.96699 8.29732 3.88193L8.21937 3.81865C8.14953 3.90468 8.07518 3.99611 7.99216 4.07268C7.90916 4.14923 7.82093 4.2076 7.72493 4.2308L7.74852 4.32839ZM6.84996 4.62256C6.91671 4.55877 7.02442 4.50704 7.17729 4.46008C7.32925 4.41339 7.51946 4.37321 7.74635 4.32886L7.7271 4.23033C7.50054 4.27461 7.30547 4.31566 7.1478 4.3641C6.99103 4.41227 6.86475 4.46955 6.7806 4.54997L6.84996 4.62256ZM6.6727 4.4813C6.68952 4.51484 6.70972 4.55531 6.72903 4.58439C6.73817 4.59815 6.75045 4.61464 6.76552 4.62572C6.77327 4.63141 6.78588 4.63878 6.80237 4.63996C6.8212 4.6413 6.83789 4.63409 6.84996 4.62256L6.7806 4.54997C6.78696 4.54389 6.7974 4.53895 6.80952 4.53981C6.8193 4.54051 6.82475 4.54465 6.82498 4.54482C6.82499 4.54483 6.82077 4.54104 6.81267 4.52884C6.79749 4.50599 6.78026 4.47181 6.76245 4.4363L6.6727 4.4813ZM6.67143 4.47856L6.67144 4.47857L6.76372 4.43902L6.76371 4.43901L6.67143 4.47856ZM6.63298 4.40843C6.63287 4.40831 6.63425 4.40987 6.63719 4.41448C6.63992 4.41874 6.64316 4.42431 6.64695 4.43122C6.65456 4.44513 6.66314 4.46223 6.6727 4.48129L6.76245 4.43629C6.75313 4.41771 6.74368 4.39884 6.73501 4.38301C6.72714 4.36862 6.71717 4.35149 6.70637 4.33992L6.63298 4.40843ZM6.51556 3.96698C6.50414 3.9779 6.49914 3.99092 6.49677 4.00014C6.49433 4.00968 6.49366 4.01919 6.49367 4.02744C6.49367 4.0439 6.49638 4.06237 6.50014 4.08056C6.50774 4.1174 6.5215 4.16183 6.53689 4.20483C6.55239 4.24811 6.57012 4.29154 6.58629 4.32676C6.59436 4.34434 6.60226 4.36035 6.60948 4.37349C6.61596 4.38528 6.62409 4.39891 6.63298 4.40843L6.70637 4.33992C6.70688 4.34046 6.70389 4.33682 6.69747 4.32513C6.69178 4.31479 6.68499 4.30111 6.67753 4.28487C6.66265 4.25246 6.646 4.21173 6.63142 4.17099C6.61673 4.12996 6.60471 4.09051 6.59846 4.06026C6.59529 4.0449 6.59407 4.03403 6.59407 4.02742C6.59407 4.02412 6.59439 4.02367 6.59403 4.02507C6.59375 4.02616 6.59194 4.03287 6.58492 4.03957L6.51556 3.96698ZM7.32686 3.79897C7.19514 3.80238 7.03372 3.8065 6.88694 3.82745C6.74305 3.84798 6.60012 3.88617 6.51556 3.96698L6.58492 4.03957C6.64446 3.98268 6.75821 3.94723 6.90112 3.92684C7.04113 3.90686 7.19662 3.90278 7.32946 3.89934L7.32686 3.79897ZM7.32651 3.79898L7.32649 3.79898L7.32983 3.89933L7.32985 3.89932L7.32651 3.79898ZM7.48446 3.79338C7.44025 3.79603 7.38684 3.79742 7.32688 3.79897L7.32948 3.89934C7.38889 3.8978 7.44419 3.89637 7.49046 3.8936L7.48446 3.79338ZM7.51085 3.79187L7.48461 3.79337L7.49031 3.89361L7.51656 3.89211L7.51085 3.79187ZM7.80117 3.70853C7.69888 3.78101 7.61657 3.78602 7.51093 3.79187L7.51648 3.89212C7.62421 3.88615 7.73193 3.88064 7.85922 3.79045L7.80117 3.70853ZM7.93808 3.73371C7.8681 3.72223 7.87942 3.65222 7.87943 3.65222C7.87943 3.65222 7.87943 3.65222 7.87943 3.65222C7.87943 3.65222 7.87943 3.65222 7.87943 3.65222C7.87942 3.65223 7.87941 3.65223 7.87939 3.65225C7.87937 3.65227 7.87932 3.6523 7.87926 3.65234C7.87915 3.65242 7.87898 3.65255 7.87875 3.65271C7.8783 3.65304 7.87763 3.65352 7.87677 3.65414C7.87506 3.65538 7.87259 3.65716 7.86958 3.65933C7.86355 3.66369 7.85533 3.66962 7.84658 3.67592C7.829 3.6886 7.80952 3.70261 7.80117 3.70853L7.85922 3.79045C7.86798 3.78424 7.88784 3.76995 7.90529 3.75737C7.91407 3.75104 7.92231 3.7451 7.92835 3.74074C7.93137 3.73856 7.93384 3.73677 7.93556 3.73553C7.93642 3.73491 7.93709 3.73442 7.93754 3.7341C7.93777 3.73393 7.93795 3.7338 7.93806 3.73372C7.93812 3.73368 7.93817 3.73365 7.9382 3.73362C7.93821 3.73361 7.93822 3.7336 7.93823 3.7336C7.93824 3.7336 7.93824 3.73359 7.93824 3.73359C7.93824 3.73359 7.93825 3.73359 7.93825 3.73359C7.93826 3.73358 7.94958 3.66357 7.8796 3.6521L7.93808 3.73371ZM7.95054 3.60249C7.9283 3.61749 7.90631 3.63292 7.87956 3.65213L7.93812 3.73368C7.96438 3.71483 7.98551 3.7 8.00669 3.68572L7.95054 3.60249ZM7.96404 3.59336L7.9505 3.60251L8.00672 3.6857L8.02026 3.67655L7.96404 3.59336ZM8.61917 3.38509C8.48901 3.35158 8.35746 3.38311 8.24499 3.43121C8.1322 3.47947 8.03225 3.54722 7.96402 3.59338L8.02028 3.67654C8.0892 3.62991 8.18172 3.56748 8.28448 3.52352C8.38757 3.47942 8.49469 3.45672 8.59413 3.48232L8.61917 3.38509ZM2.54875 3.82347C2.53518 3.80761 2.53668 3.78273 2.55326 3.76823L2.48718 3.69264C2.42973 3.74287 2.42263 3.83051 2.47247 3.88875L2.54875 3.82347ZM3.13022 3.99353C3.04702 3.99219 2.93543 3.99026 2.82604 3.96733C2.71629 3.94432 2.61552 3.90148 2.54875 3.82347L2.47247 3.88875C2.55987 3.99086 2.68571 4.04049 2.80543 4.06559C2.92551 4.09077 3.04624 4.09259 3.12861 4.09392L3.13022 3.99353ZM3.14662 3.9938C3.1413 3.99371 3.13582 3.99362 3.13023 3.99353L3.12861 4.09392C3.13421 4.09401 3.13963 4.09409 3.14488 4.09419L3.14662 3.9938ZM3.2303 3.99384C3.19798 3.99423 3.17216 3.99425 3.14662 3.9938L3.14487 4.09419C3.1717 4.09465 3.19856 4.09463 3.23149 4.09424L3.2303 3.99384ZM3.32749 3.9926C3.31675 3.99266 3.29229 3.99297 3.27077 3.99327C3.25996 3.99341 3.2498 3.99356 3.24235 3.99367C3.23862 3.99372 3.23557 3.99377 3.23346 3.9938C3.2324 3.99381 3.23157 3.99382 3.23101 3.99383C3.23073 3.99384 3.23051 3.99384 3.23037 3.99384C3.2303 3.99384 3.23024 3.99384 3.2302 3.99384C3.23019 3.99384 3.23017 3.99384 3.23016 3.99385C3.23016 3.99385 3.23015 3.99385 3.23015 3.99385C3.23015 3.99385 3.23015 3.99385 3.23015 3.99385C3.23014 3.99385 3.1807 4.04476 3.23158 4.09424L3.23021 3.99384C3.28109 4.04332 3.23165 4.09423 3.23164 4.09423C3.23164 4.09423 3.23164 4.09423 3.23164 4.09423C3.23165 4.09423 3.23165 4.09423 3.23165 4.09423C3.23166 4.09423 3.23168 4.09423 3.23169 4.09423C3.23173 4.09423 3.23178 4.09423 3.23185 4.09423C3.232 4.09423 3.23221 4.09423 3.23249 4.09422C3.23305 4.09421 3.23387 4.0942 3.23493 4.09419C3.23704 4.09416 3.24008 4.09411 3.2438 4.09406C3.25124 4.09395 3.26137 4.09381 3.27215 4.09366C3.29383 4.09336 3.31782 4.09305 3.32805 4.093L3.32749 3.9926ZM3.66656 4.1059C3.5749 4.049 3.48349 3.99173 3.32749 3.9926L3.32805 4.093C3.45342 4.0923 3.52372 4.1354 3.61361 4.1912L3.66656 4.1059ZM3.68872 4.11961C3.68129 4.11505 3.67395 4.11049 3.66656 4.1059L3.61361 4.1912C3.62097 4.19577 3.6285 4.20045 3.63616 4.20515L3.68872 4.11961ZM3.8239 4.20726C3.77435 4.17444 3.72822 4.14388 3.68872 4.11961L3.63616 4.20515C3.67389 4.22834 3.71845 4.25784 3.76846 4.29097L3.8239 4.20726ZM4.51422 4.51943C4.43282 4.53189 4.31931 4.49568 4.19055 4.43041C4.0644 4.36647 3.93469 4.28063 3.8239 4.20726L3.76846 4.29097C3.87832 4.36372 4.01291 4.45293 4.14516 4.51996C4.2748 4.58568 4.41379 4.63637 4.52941 4.61868L4.51422 4.51943ZM4.58701 4.20374C4.58691 4.203 4.58727 4.2077 4.58582 4.22096C4.58455 4.23269 4.58227 4.2478 4.57906 4.26537C4.57266 4.30046 4.56293 4.34338 4.55151 4.38511C4.54002 4.42714 4.52724 4.46635 4.515 4.49472C4.50879 4.50912 4.50355 4.51873 4.49976 4.52415C4.49787 4.52685 4.49735 4.52703 4.49845 4.52609C4.49931 4.52536 4.50464 4.5209 4.51422 4.51943L4.52941 4.61868C4.54503 4.61629 4.55659 4.6085 4.56382 4.60229C4.57129 4.59588 4.57729 4.58847 4.58202 4.58172C4.59146 4.56823 4.59983 4.55154 4.60719 4.53449C4.62209 4.49995 4.6363 4.45566 4.64836 4.41161C4.66049 4.36727 4.67087 4.32153 4.67783 4.2834C4.6813 4.26437 4.68402 4.24673 4.68564 4.23182C4.68709 4.21844 4.68825 4.20262 4.68643 4.18972L4.58701 4.20374ZM4.59635 4.09263C4.59333 4.11318 4.59025 4.13407 4.58827 4.15201C4.58647 4.16832 4.5848 4.18806 4.58701 4.20374L4.68643 4.18972C4.68645 4.18988 4.68621 4.18781 4.68645 4.18234C4.68666 4.17729 4.6872 4.17086 4.68806 4.16303C4.6898 4.14727 4.69258 4.12834 4.69568 4.10724L4.59635 4.09263ZM4.64669 3.9891C4.63799 3.99043 4.6266 3.9885 4.61717 3.98083C4.60956 3.97465 4.60747 3.96813 4.60738 3.96787C4.60737 3.96785 4.60866 3.97338 4.6083 3.98802C4.60763 4.01544 4.60214 4.05332 4.59635 4.09263L4.69568 4.10724C4.70115 4.07012 4.70781 4.02538 4.70867 3.99049C4.70908 3.97397 4.70848 3.95342 4.70249 3.93571C4.69941 3.92659 4.6933 3.91332 4.68047 3.9029C4.66582 3.891 4.64801 3.88733 4.6315 3.88986L4.64669 3.9891ZM3.68802 3.70805C3.89901 3.80173 4.08235 3.87998 4.23929 3.93074C4.39533 3.98121 4.53163 4.00671 4.64669 3.9891L4.6315 3.88986C4.54024 3.90382 4.42233 3.88442 4.27018 3.83521C4.11892 3.78629 3.94006 3.7101 3.72877 3.61629L3.68802 3.70805ZM3.04864 3.76292C3.1552 3.73251 3.26855 3.70026 3.38048 3.68515C3.49237 3.67005 3.59812 3.67285 3.69007 3.70891L3.72672 3.61544C3.61244 3.57062 3.48739 3.56942 3.36705 3.58566C3.24675 3.60189 3.12645 3.63631 3.02109 3.66638L3.04864 3.76292ZM2.60651 3.77158C2.65454 3.82769 2.73141 3.83079 2.80052 3.82222C2.87268 3.81328 2.95949 3.78837 3.04864 3.76292L3.02109 3.66638C2.92924 3.69259 2.85088 3.71481 2.78816 3.72259C2.72239 3.73074 2.69466 3.72016 2.68279 3.70629L2.60651 3.77158ZM2.55326 3.76823C2.56954 3.754 2.59322 3.75604 2.60651 3.77158L2.68279 3.70629C2.63266 3.64773 2.54492 3.64216 2.48718 3.69265L2.55326 3.76823Z" fill="#984111"/>
<path fill-rule="evenodd" clip-rule="evenodd" d="M4.14863 7.59354C4.09958 7.59684 4.05675 7.56009 4.05298 7.51147C4.03462 7.2751 4.24268 7.06022 4.35787 6.94125L4.36923 6.92951C4.38742 6.91067 4.40606 6.89207 4.42941 6.86927C4.42939 6.86928 4.48388 6.81639 4.49879 6.80165C4.59882 6.70272 4.6205 6.61006 4.64485 6.50603L4.65087 6.48044C4.6614 6.43636 4.67223 6.38306 4.68412 6.32454L4.68412 6.32454C4.73681 6.0652 4.81035 5.70321 4.97098 5.58521C5.01033 5.55631 5.28596 5.72799 5.3155 5.76723C5.32593 5.78107 5.35674 5.80398 5.39053 5.8291C5.45252 5.8752 5.52455 5.92875 5.49909 5.94746C5.33088 6.07102 5.20309 6.37047 5.03707 6.80165C4.94843 7.00466 4.71632 7.13371 4.52371 7.2408C4.35919 7.33226 4.22348 7.40771 4.23061 7.49955C4.23439 7.54817 4.19768 7.59025 4.14863 7.59354ZM6.85767 7.52706C6.83371 7.56999 6.77957 7.5859 6.73674 7.56258C6.5285 7.44924 6.46161 7.15771 6.42457 6.99631L6.42091 6.98039C6.41502 6.95487 6.40957 6.92911 6.40316 6.89711C6.40316 6.89713 6.38848 6.82263 6.38424 6.8021C6.35575 6.66432 6.28985 6.59567 6.21586 6.51859L6.19768 6.4996C6.16637 6.46669 6.127 6.42803 6.08359 6.38543C5.89174 6.1971 5.62122 5.93155 5.62122 5.74356C5.62122 5.65817 5.91252 5.55716 5.96152 5.55375C5.9788 5.55255 6.01479 5.53919 6.05425 5.52454L6.05426 5.52454L6.05427 5.52453C6.12669 5.49764 6.21083 5.4664 6.21265 5.49794C6.22467 5.70631 6.40622 5.97658 6.67741 6.35065C6.79939 6.53556 6.7812 6.80051 6.76611 7.02037C6.75322 7.20817 6.74258 7.36307 6.82349 7.40711C6.86632 7.43042 6.88162 7.48413 6.85767 7.52706ZM8.58871 5.95484C8.63593 5.94268 8.66468 5.89412 8.65292 5.84639C8.64116 5.79865 8.59335 5.76981 8.54612 5.78197C8.45692 5.80494 8.35905 5.6844 8.2404 5.53826C8.10149 5.36717 7.9341 5.161 7.71878 5.10896C7.26533 5.02033 6.94823 4.94648 6.79734 4.80229C6.77449 4.78046 6.73426 4.86069 6.69963 4.92975L6.69963 4.92976C6.68076 4.9674 6.66355 5.00171 6.65173 5.01438C6.61822 5.05028 6.497 5.35155 6.5323 5.38527C6.6764 5.52298 7.04566 5.53254 7.31021 5.5394L7.31023 5.5394C7.36992 5.54094 7.42428 5.54235 7.46952 5.54506L7.49576 5.54656C7.60244 5.55246 7.69746 5.55772 7.81225 5.63906C7.82936 5.65119 7.89091 5.69566 7.89089 5.69565C7.9174 5.71468 7.93896 5.7298 7.96067 5.74445L7.9742 5.75359C8.11136 5.84637 8.35911 6.01396 8.58871 5.95484ZM2.50227 5.65811C2.46526 5.62575 2.46096 5.56949 2.49267 5.53244C2.64683 5.35232 2.9459 5.3475 3.11147 5.34483C3.11707 5.34474 3.12252 5.34465 3.12781 5.34456C3.15399 5.3441 3.18032 5.34412 3.21295 5.34451C3.21293 5.34451 3.28886 5.34564 3.30983 5.34575C3.45051 5.34654 3.53136 5.29635 3.62214 5.24C3.62951 5.23542 3.63695 5.2308 3.6445 5.22617C3.68311 5.20244 3.72845 5.17241 3.77824 5.13944C3.99888 4.99331 4.30685 4.78935 4.50387 4.81949C4.55213 4.82688 4.62563 5.14318 4.61878 5.19182C4.61636 5.20897 4.62194 5.24696 4.62807 5.28862C4.63932 5.36505 4.65238 5.45385 4.62115 5.44907C4.41484 5.4175 4.11273 5.53889 3.69045 5.72638C3.48422 5.80725 3.22884 5.73437 3.01692 5.6739C2.83591 5.62224 2.6866 5.57964 2.62671 5.64962C2.595 5.68667 2.53929 5.69047 2.50227 5.65811Z" fill="#FFC125"/>
<path d="M4.05298 7.51147L4.10303 7.50759L4.10303 7.50759L4.05298 7.51147ZM4.35787 6.94125L4.39395 6.97616L4.39394 6.97617L4.35787 6.94125ZM4.36923 6.92951L4.40534 6.96438L4.40531 6.96441L4.36923 6.92951ZM4.42941 6.86927L4.39434 6.83335L4.46448 6.90519L4.42941 6.86927ZM4.49879 6.80165L4.53409 6.83734L4.53409 6.83734L4.49879 6.80165ZM4.64485 6.50603L4.59597 6.49459L4.59598 6.49452L4.64485 6.50603ZM4.65087 6.48044L4.60201 6.46893L4.60205 6.46878L4.65087 6.48044ZM4.68412 6.32454L4.73399 6.33119L4.73331 6.33454L4.68412 6.32454ZM4.68412 6.32454L4.63424 6.31789L4.63492 6.31455L4.68412 6.32454ZM4.97098 5.58521L5.0007 5.62567L5.0007 5.62567L4.97098 5.58521ZM5.3155 5.76723L5.35561 5.73704L5.35561 5.73704L5.3155 5.76723ZM5.39053 5.8291L5.42048 5.78882L5.42048 5.78882L5.39053 5.8291ZM5.49909 5.94746L5.52881 5.98791L5.52881 5.98791L5.49909 5.94746ZM5.03707 6.80165L5.08396 6.8197L5.08308 6.82174L5.03707 6.80165ZM4.52371 7.2408L4.49931 7.19692L4.49931 7.19692L4.52371 7.2408ZM4.23061 7.49955L4.28066 7.49566L4.28066 7.49566L4.23061 7.49955ZM6.73674 7.56258L6.71274 7.60667L6.71274 7.60667L6.73674 7.56258ZM6.85767 7.52706L6.90151 7.55152L6.90151 7.55152L6.85767 7.52706ZM6.42457 6.99631L6.47349 6.98506L6.4735 6.98508L6.42457 6.99631ZM6.42091 6.98039L6.46982 6.9691L6.46983 6.96914L6.42091 6.98039ZM6.40316 6.89711L6.35394 6.90697L6.45231 6.88687L6.40316 6.89711ZM6.38424 6.8021L6.4334 6.79193L6.4334 6.79193L6.38424 6.8021ZM6.21586 6.51859L6.17964 6.55336L6.17959 6.5533L6.21586 6.51859ZM6.19768 6.4996L6.16142 6.53431L6.16131 6.5342L6.19768 6.4996ZM6.08359 6.38543L6.11876 6.3496L6.11876 6.3496L6.08359 6.38543ZM5.96152 5.55375L5.965 5.60383L5.965 5.60383L5.96152 5.55375ZM6.05425 5.52454L6.07227 5.5714L6.07173 5.5716L6.05425 5.52454ZM6.05426 5.52454L6.07405 5.57071L6.07228 5.57139L6.05426 5.52454ZM6.05427 5.52453L6.03447 5.47834L6.03679 5.47747L6.05427 5.52453ZM6.21265 5.49794L6.16254 5.50083L6.16254 5.50083L6.21265 5.49794ZM6.67741 6.35065L6.71809 6.32116L6.71931 6.32301L6.67741 6.35065ZM6.76611 7.02037L6.71603 7.01693L6.71603 7.01693L6.76611 7.02037ZM6.82349 7.40711L6.84749 7.36302L6.84749 7.36302L6.82349 7.40711ZM8.65292 5.84639L8.60418 5.8584L8.60418 5.8584L8.65292 5.84639ZM8.58871 5.95484L8.57619 5.90623L8.57619 5.90623L8.58871 5.95484ZM8.54612 5.78197L8.5336 5.73336L8.5336 5.73336L8.54612 5.78197ZM8.2404 5.53826L8.27937 5.50662L8.27937 5.50662L8.2404 5.53826ZM7.71878 5.10896L7.72842 5.05964L7.73057 5.06016L7.71878 5.10896ZM6.79734 4.80229L6.76265 4.83858L6.76265 4.83858L6.79734 4.80229ZM6.69963 4.92975L6.65341 4.90994L6.65476 4.90725L6.69963 4.92975ZM6.69963 4.92976L6.74585 4.94957L6.7445 4.95226L6.69963 4.92976ZM6.65173 5.01438L6.61503 4.98012L6.61503 4.98012L6.65173 5.01438ZM6.5323 5.38527L6.49761 5.42156L6.49761 5.42156L6.5323 5.38527ZM7.31021 5.5394L7.31151 5.48921L7.31189 5.48922L7.31021 5.5394ZM7.31023 5.5394L7.30893 5.58958L7.30856 5.58957L7.31023 5.5394ZM7.46952 5.54506L7.46666 5.59518L7.46651 5.59517L7.46952 5.54506ZM7.49576 5.54656L7.49298 5.59668L7.49291 5.59667L7.49576 5.54656ZM7.81225 5.63906L7.84128 5.5981L7.84128 5.5981L7.81225 5.63906ZM7.89089 5.69565L7.86161 5.73642L7.92014 5.65484L7.89089 5.69565ZM7.96067 5.74445L7.98874 5.70283L7.98878 5.70285L7.96067 5.74445ZM7.9742 5.75359L8.00231 5.712L8.00233 5.71201L7.9742 5.75359ZM2.49267 5.53244L2.45453 5.4998L2.45453 5.4998L2.49267 5.53244ZM2.50227 5.65811L2.53531 5.62032L2.53531 5.62032L2.50227 5.65811ZM3.11147 5.34483L3.11228 5.39502L3.11228 5.39502L3.11147 5.34483ZM3.12781 5.34456L3.12868 5.39475L3.12868 5.39475L3.12781 5.34456ZM3.21295 5.34451L3.21363 5.29431L3.21235 5.39471L3.21295 5.34451ZM3.30983 5.34575L3.31011 5.29555L3.31011 5.29555L3.30983 5.34575ZM3.62214 5.24L3.64862 5.28265L3.64862 5.28265L3.62214 5.24ZM3.6445 5.22617L3.67078 5.26894L3.67078 5.26894L3.6445 5.22617ZM3.77824 5.13944L3.80596 5.18129L3.80596 5.18129L3.77824 5.13944ZM4.50387 4.81949L4.51147 4.76987L4.51147 4.76987L4.50387 4.81949ZM4.61878 5.19182L4.66848 5.19883L4.66848 5.19883L4.61878 5.19182ZM4.62807 5.28862L4.57841 5.29592L4.57841 5.29592L4.62807 5.28862ZM4.62115 5.44907L4.61356 5.49869L4.61356 5.49869L4.62115 5.44907ZM3.69045 5.72638L3.71084 5.7723L3.70878 5.77311L3.69045 5.72638ZM3.01692 5.6739L3.00315 5.72217L3.00315 5.72217L3.01692 5.6739ZM2.62671 5.64962L2.58857 5.61697L2.58857 5.61697L2.62671 5.64962ZM4.10303 7.50759C4.10464 7.52839 4.1233 7.54493 4.14527 7.54346L4.15199 7.64363C4.07586 7.64874 4.00886 7.59179 4.00293 7.51536L4.10303 7.50759ZM4.39394 6.97617C4.33605 7.03596 4.25851 7.11622 4.19737 7.20979C4.13604 7.30366 4.09508 7.40521 4.10303 7.50759L4.00293 7.51536C3.99252 7.38136 4.04641 7.25728 4.11332 7.15488C4.18043 7.05217 4.26451 6.96551 4.32181 6.90633L4.39394 6.97617ZM4.40531 6.96441L4.39395 6.97616L4.32179 6.90635L4.33315 6.89461L4.40531 6.96441ZM4.46448 6.90519C4.44135 6.92777 4.42309 6.94601 4.40534 6.96438L4.33312 6.89464C4.35176 6.87534 4.37077 6.85636 4.39433 6.83335L4.46448 6.90519ZM4.53409 6.83734C4.52645 6.84489 4.50893 6.86197 4.49351 6.87697C4.48575 6.88452 4.47847 6.8916 4.47313 6.89679C4.47045 6.89938 4.46826 6.90151 4.46674 6.90299C4.46598 6.90372 4.46539 6.9043 4.46499 6.90469C4.46479 6.90489 4.46463 6.90504 4.46453 6.90514C4.46448 6.90519 4.46444 6.90523 4.46441 6.90525C4.4644 6.90527 4.46439 6.90527 4.46438 6.90528C4.46438 6.90529 4.46437 6.90529 4.46437 6.90529C4.46437 6.90529 4.46437 6.90529 4.46437 6.9053C4.46436 6.9053 4.39343 6.90428 4.39434 6.83335L4.46447 6.90519C4.46538 6.83426 4.39445 6.83324 4.39445 6.83324C4.39445 6.83324 4.39444 6.83325 4.39445 6.83325C4.39445 6.83324 4.39445 6.83324 4.39445 6.83324C4.39446 6.83323 4.39447 6.83322 4.39448 6.83321C4.3945 6.83319 4.39454 6.83315 4.39459 6.8331C4.3947 6.833 4.39485 6.83285 4.39505 6.83266C4.39545 6.83227 4.39604 6.83169 4.3968 6.83096C4.39831 6.82949 4.4005 6.82737 4.40316 6.82478C4.4085 6.8196 4.41576 6.81253 4.42349 6.80501C4.43904 6.78989 4.45621 6.77315 4.46349 6.76595L4.53409 6.83734ZM4.69373 6.51746C4.66915 6.62252 4.64501 6.72765 4.53409 6.83734L4.46349 6.76595C4.55264 6.6778 4.57186 6.59761 4.59597 6.49459L4.69373 6.51746ZM4.69974 6.49195L4.69371 6.51754L4.59598 6.49452L4.60201 6.46893L4.69974 6.49195ZM4.73331 6.33454C4.72148 6.39279 4.71047 6.44701 4.6997 6.4921L4.60205 6.46878C4.61233 6.4257 4.62298 6.37334 4.63492 6.31455L4.73331 6.33454ZM4.73388 6.33118L4.73388 6.33118L4.63436 6.31791L4.63436 6.31791L4.73388 6.33118ZM5.0007 5.62567C4.93433 5.67442 4.87968 5.78029 4.83478 5.91748C4.79079 6.0519 4.75977 6.20431 4.73331 6.33454L4.63492 6.31455C4.66115 6.18543 4.69324 6.02717 4.73936 5.88626C4.78456 5.74812 4.847 5.614 4.94126 5.54475L5.0007 5.62567ZM5.2754 5.79743C5.27585 5.79802 5.27278 5.79444 5.26238 5.78609C5.25319 5.77869 5.24089 5.76963 5.2262 5.75947C5.19686 5.73918 5.15964 5.71571 5.12205 5.69427C5.0842 5.67269 5.04744 5.654 5.01873 5.64259C5.00415 5.63681 4.99365 5.63371 4.98714 5.63256C4.9839 5.63199 4.9834 5.63222 4.98484 5.63211C4.98597 5.63203 4.99289 5.63141 5.0007 5.62567L4.94126 5.54475C4.954 5.5354 4.96768 5.53273 4.97718 5.53201C4.987 5.53125 4.99648 5.53225 5.0046 5.53369C5.02081 5.53655 5.03853 5.54243 5.05579 5.54928C5.09075 5.56317 5.13212 5.58444 5.17179 5.60706C5.21172 5.62984 5.25141 5.65484 5.28329 5.67688C5.2992 5.68788 5.3136 5.69844 5.32529 5.70783C5.33577 5.71626 5.34778 5.72663 5.35561 5.73704L5.2754 5.79743ZM5.36057 5.86939C5.3439 5.85699 5.32695 5.8444 5.31287 5.83312C5.30006 5.82286 5.28492 5.81007 5.2754 5.79742L5.35561 5.73704C5.35551 5.73691 5.35681 5.73854 5.36084 5.74224C5.36457 5.74567 5.36949 5.74983 5.37564 5.75476C5.38801 5.76467 5.40336 5.77609 5.42048 5.78882L5.36057 5.86939ZM5.46937 5.907C5.46228 5.91221 5.4556 5.92163 5.45434 5.93372C5.45334 5.94347 5.45646 5.94956 5.45659 5.94981C5.4566 5.94983 5.4536 5.94501 5.44299 5.93491C5.42312 5.916 5.39246 5.89309 5.36057 5.86939L5.42048 5.78882C5.45059 5.81121 5.48694 5.83813 5.51222 5.86219C5.52418 5.87358 5.53829 5.88854 5.54658 5.9053C5.55085 5.91392 5.55591 5.92763 5.55421 5.94406C5.55227 5.96284 5.54227 5.97803 5.52881 5.98791L5.46937 5.907ZM4.99022 6.78361C5.07317 6.56818 5.14748 6.38321 5.22256 6.23635C5.29722 6.09032 5.37556 5.97591 5.46937 5.907L5.52881 5.98791C5.4544 6.04257 5.38475 6.13967 5.31196 6.28205C5.23959 6.4236 5.16699 6.60394 5.08392 6.81969L4.99022 6.78361ZM4.49931 7.19692C4.59617 7.14307 4.69912 7.08573 4.78895 7.01727C4.87875 6.94883 4.95155 6.87207 4.99107 6.78156L5.08308 6.82174C5.03396 6.93423 4.94638 7.02351 4.84981 7.09712C4.75327 7.1707 4.64386 7.23143 4.5481 7.28467L4.49931 7.19692ZM4.18056 7.50344C4.17484 7.4298 4.22701 7.37325 4.28193 7.33044C4.33928 7.28574 4.41828 7.24197 4.49931 7.19692L4.5481 7.28467C4.46461 7.33109 4.3935 7.37078 4.34365 7.40963C4.29137 7.45037 4.27925 7.47747 4.28066 7.49566L4.18056 7.50344ZM4.14527 7.54346C4.16684 7.54201 4.18215 7.52382 4.18056 7.50344L4.28066 7.49566C4.28663 7.57252 4.22852 7.6385 4.15199 7.64363L4.14527 7.54346ZM6.76074 7.51849C6.77907 7.52847 6.8031 7.52183 6.81383 7.5026L6.90151 7.55152C6.86433 7.61815 6.78007 7.64332 6.71274 7.60667L6.76074 7.51849ZM6.4735 6.98508C6.49211 7.06619 6.51719 7.17494 6.56237 7.27717C6.60769 7.37974 6.67055 7.4694 6.76074 7.51849L6.71274 7.60667C6.59469 7.54242 6.51998 7.42964 6.47054 7.31776C6.42095 7.20554 6.39407 7.08783 6.37564 7.00754L6.4735 6.98508ZM6.46983 6.96914L6.47349 6.98506L6.37565 7.00756L6.37199 6.99163L6.46983 6.96914ZM6.45238 6.88726C6.45873 6.91895 6.46408 6.94421 6.46982 6.9691L6.372 6.99168C6.36596 6.96553 6.3604 6.93926 6.35394 6.90697L6.45238 6.88726ZM6.4334 6.79193C6.43557 6.80245 6.44035 6.82644 6.44453 6.84755C6.44664 6.85816 6.44861 6.86812 6.45005 6.87543C6.45077 6.87909 6.45136 6.88208 6.45177 6.88416C6.45198 6.8852 6.45214 6.88601 6.45225 6.88656C6.4523 6.88684 6.45234 6.88705 6.45237 6.88719C6.45239 6.88726 6.4524 6.88732 6.4524 6.88735C6.45241 6.88737 6.45241 6.88739 6.45241 6.8874C6.45241 6.8874 6.45241 6.88741 6.45242 6.88742C6.45242 6.88742 6.45242 6.88743 6.45242 6.88744C6.45242 6.88746 6.4131 6.94632 6.35402 6.90735L6.45231 6.88687C6.39322 6.84791 6.3539 6.90677 6.3539 6.90679C6.3539 6.90679 6.3539 6.9068 6.3539 6.9068C6.35391 6.9068 6.35391 6.9068 6.3539 6.9068C6.3539 6.90679 6.3539 6.90678 6.3539 6.90676C6.35389 6.90673 6.35388 6.90668 6.35387 6.90661C6.35384 6.90647 6.3538 6.90626 6.35374 6.90598C6.35364 6.90544 6.35348 6.90463 6.35327 6.90359C6.35286 6.90152 6.35227 6.89853 6.35155 6.89489C6.35011 6.88759 6.34815 6.87765 6.34605 6.86707C6.34183 6.8458 6.33715 6.82228 6.33508 6.81226L6.4334 6.79193ZM6.25207 6.48383C6.32679 6.56166 6.40181 6.63916 6.4334 6.79193L6.33508 6.81226C6.30969 6.68948 6.25292 6.62968 6.17964 6.55336L6.25207 6.48383ZM6.23395 6.46489L6.25212 6.48388L6.17959 6.5533L6.16142 6.53431L6.23395 6.46489ZM6.11876 6.3496C6.16196 6.39201 6.20203 6.43133 6.23405 6.465L6.16131 6.5342C6.13072 6.50205 6.09203 6.46406 6.04842 6.42125L6.11876 6.3496ZM5.67142 5.74356C5.67142 5.77916 5.68447 5.82268 5.71098 5.87343C5.73723 5.92367 5.77484 5.97751 5.81951 6.03282C5.90898 6.1436 6.02241 6.25503 6.11876 6.3496L6.04842 6.42125C5.95292 6.3275 5.83516 6.21199 5.74141 6.09591C5.69447 6.03779 5.65246 5.97822 5.62199 5.91992C5.59179 5.86211 5.57102 5.80195 5.57102 5.74356H5.67142ZM5.965 5.60383C5.96509 5.60383 5.96466 5.60386 5.96356 5.60402C5.96251 5.60417 5.9611 5.60441 5.9593 5.60477C5.95566 5.60548 5.951 5.60655 5.94533 5.608C5.934 5.61092 5.91971 5.61513 5.9034 5.62051C5.87077 5.63128 5.83155 5.64622 5.79399 5.66351C5.75599 5.68101 5.72186 5.69993 5.69805 5.71819C5.68613 5.72733 5.67851 5.73502 5.67425 5.7408C5.66987 5.74674 5.67142 5.74736 5.67142 5.74356H5.57102C5.57102 5.7184 5.58167 5.69719 5.59342 5.68125C5.60528 5.66515 5.6208 5.65091 5.63695 5.63852C5.66929 5.61372 5.71105 5.59117 5.752 5.57231C5.79339 5.55325 5.83618 5.53697 5.87195 5.52517C5.90557 5.51407 5.93864 5.50502 5.95804 5.50367L5.965 5.60383ZM6.07173 5.5716C6.05225 5.57883 6.03246 5.58619 6.01533 5.59185C5.99976 5.597 5.98079 5.60274 5.965 5.60383L5.95804 5.50367C5.95788 5.50369 5.95995 5.50349 5.96525 5.50212C5.97015 5.50086 5.97632 5.499 5.9838 5.49653C5.99885 5.49155 6.01679 5.4849 6.03678 5.47748L6.07173 5.5716ZM6.07228 5.57139L6.07227 5.57139L6.03623 5.47769L6.03624 5.47768L6.07228 5.57139ZM6.07404 5.57067L6.07404 5.57068L6.03449 5.47839L6.03449 5.47839L6.07404 5.57067ZM6.16254 5.50083C6.16304 5.50962 6.16731 5.52035 6.17676 5.52799C6.18439 5.53414 6.1912 5.53484 6.19148 5.53487C6.1915 5.53487 6.18583 5.53476 6.17158 5.53816C6.1449 5.54452 6.10899 5.55777 6.07174 5.57159L6.03679 5.47747C6.07197 5.46441 6.11435 5.44859 6.14829 5.4405C6.16436 5.43666 6.1846 5.43298 6.20316 5.43515C6.21272 5.43627 6.22697 5.43949 6.23983 5.44987C6.25452 5.46173 6.26181 5.47838 6.26277 5.49505L6.16254 5.50083ZM6.63676 6.38012C6.50127 6.19322 6.38661 6.03016 6.30433 5.8872C6.22252 5.74506 6.16924 5.61704 6.16254 5.50083L6.26277 5.49505C6.26808 5.58722 6.31158 5.69852 6.39135 5.83712C6.47065 5.97491 6.58236 6.13401 6.71805 6.32119L6.63676 6.38012ZM6.71603 7.01693C6.72362 6.90638 6.7316 6.7888 6.7231 6.67618C6.71461 6.56359 6.68989 6.46074 6.6355 6.37829L6.71931 6.32301C6.78691 6.42547 6.81409 6.54755 6.82322 6.66863C6.83235 6.78967 6.8237 6.9145 6.81619 7.02381L6.71603 7.01693ZM6.79949 7.4512C6.73462 7.41589 6.7156 7.34134 6.70961 7.27197C6.70336 7.19952 6.70968 7.10943 6.71603 7.01693L6.81619 7.02381C6.80965 7.11911 6.8042 7.20037 6.80964 7.26333C6.81534 7.32937 6.83146 7.35429 6.84749 7.36302L6.79949 7.4512ZM6.81383 7.5026C6.82437 7.48372 6.81745 7.46098 6.79949 7.4512L6.84749 7.36302C6.91519 7.39987 6.93888 7.48454 6.90151 7.55152L6.81383 7.5026ZM8.70167 5.83438C8.71992 5.90847 8.67547 5.98434 8.60122 6.00346L8.57619 5.90623C8.5964 5.90102 8.60945 5.87978 8.60418 5.8584L8.70167 5.83438ZM8.5336 5.73336C8.60825 5.71414 8.68332 5.7599 8.70167 5.83438L8.60418 5.8584C8.59901 5.8374 8.57844 5.82549 8.55864 5.83059L8.5336 5.73336ZM8.27937 5.50662C8.33958 5.58078 8.39102 5.64392 8.43794 5.68627C8.48714 5.73067 8.51593 5.73791 8.5336 5.73336L8.55864 5.83059C8.48711 5.84901 8.42236 5.80746 8.37067 5.7608C8.31669 5.71208 8.25987 5.64188 8.20143 5.5699L8.27937 5.50662ZM7.73057 5.06016C7.84989 5.089 7.95302 5.15974 8.04228 5.24206C8.13151 5.32436 8.21031 5.42156 8.27937 5.50662L8.20143 5.5699C8.13158 5.48387 8.05723 5.39244 7.97421 5.31587C7.89122 5.23932 7.80299 5.18095 7.70699 5.15775L7.73057 5.06016ZM6.83202 4.76599C6.89876 4.82978 7.00648 4.88151 7.15934 4.92847C7.31131 4.97516 7.50152 5.01534 7.72841 5.05969L7.70915 5.15822C7.48259 5.11394 7.28752 5.07289 7.12986 5.02445C6.97308 4.97628 6.8468 4.919 6.76265 4.83858L6.83202 4.76599ZM6.65476 4.90725C6.67158 4.87371 6.69178 4.83324 6.71109 4.80416C6.72023 4.7904 6.73251 4.77391 6.74757 4.76283C6.75532 4.75714 6.76794 4.74977 6.78442 4.74859C6.80325 4.74725 6.81995 4.75446 6.83202 4.76599L6.76265 4.83858C6.76902 4.84466 6.77946 4.8496 6.79158 4.84874C6.80135 4.84804 6.80681 4.8439 6.80704 4.84373C6.80705 4.84372 6.80282 4.84751 6.79472 4.85971C6.77955 4.88256 6.76232 4.91674 6.74451 4.95225L6.65476 4.90725ZM6.65349 4.90999L6.65349 4.90998L6.74577 4.94953L6.74577 4.94954L6.65349 4.90999ZM6.61503 4.98012C6.61492 4.98024 6.6163 4.97868 6.61925 4.97407C6.62197 4.96981 6.62522 4.96424 6.629 4.95733C6.63661 4.94342 6.6452 4.92632 6.65475 4.90726L6.7445 4.95226C6.73519 4.97084 6.72573 4.98971 6.71707 5.00554C6.70919 5.01993 6.69923 5.03706 6.68843 5.04863L6.61503 4.98012ZM6.49761 5.42156C6.48619 5.41065 6.48119 5.39763 6.47883 5.38841C6.47638 5.37887 6.47572 5.36935 6.47572 5.36111C6.47572 5.34465 6.47844 5.32618 6.48219 5.30799C6.4898 5.27115 6.50356 5.22671 6.51895 5.18372C6.53444 5.14044 6.55218 5.09701 6.56834 5.06179C6.57642 5.04421 6.58431 5.0282 6.59154 5.01506C6.59801 5.00327 6.60615 4.98964 6.61503 4.98012L6.68843 5.04863C6.68894 5.04809 6.68595 5.05173 6.67952 5.06342C6.67384 5.07376 6.66704 5.08744 6.65959 5.10368C6.64471 5.13609 6.62806 5.17682 6.61347 5.21756C6.59879 5.25859 6.58676 5.29804 6.58052 5.32829C6.57735 5.34365 6.57612 5.35452 6.57612 5.36113C6.57612 5.36443 6.57644 5.36488 6.57608 5.36348C6.5758 5.36239 6.57399 5.35568 6.56698 5.34898L6.49761 5.42156ZM7.30891 5.58958C7.1772 5.58617 7.01578 5.58205 6.86899 5.5611C6.72511 5.54057 6.58218 5.50238 6.49761 5.42156L6.56698 5.34898C6.62652 5.40587 6.74027 5.44132 6.88318 5.46171C7.02319 5.48169 7.17867 5.48577 7.31151 5.48921L7.30891 5.58958ZM7.30856 5.58957L7.30854 5.58957L7.31189 5.48922L7.31191 5.48923L7.30856 5.58957ZM7.46651 5.59517C7.42231 5.59252 7.3689 5.59113 7.30893 5.58958L7.31153 5.48921C7.37095 5.49075 7.42625 5.49218 7.47252 5.49495L7.46651 5.59517ZM7.49291 5.59667L7.46666 5.59518L7.47237 5.49494L7.49861 5.49644L7.49291 5.59667ZM7.78323 5.68002C7.68093 5.60754 7.59863 5.60253 7.49298 5.59668L7.49854 5.49643C7.60626 5.5024 7.71398 5.50791 7.84128 5.5981L7.78323 5.68002ZM7.92014 5.65484C7.85016 5.66631 7.86148 5.73633 7.86148 5.73633C7.86148 5.73633 7.86149 5.73633 7.86149 5.73633C7.86149 5.73633 7.86148 5.73633 7.86148 5.73633C7.86147 5.73632 7.86146 5.73632 7.86145 5.7363C7.86142 5.73628 7.86138 5.73625 7.86132 5.73621C7.8612 5.73613 7.86103 5.736 7.8608 5.73584C7.86035 5.73551 7.85968 5.73503 7.85883 5.73441C7.85712 5.73317 7.85465 5.73139 7.85163 5.72922C7.84561 5.72486 7.83739 5.71893 7.82864 5.71263C7.81105 5.69995 7.79158 5.68594 7.78323 5.68002L7.84128 5.5981C7.85004 5.60431 7.86989 5.6186 7.88735 5.63118C7.89612 5.63751 7.90436 5.64345 7.9104 5.64781C7.91342 5.64999 7.9159 5.65178 7.91762 5.65302C7.91847 5.65364 7.91914 5.65413 7.9196 5.65445C7.91983 5.65462 7.92 5.65475 7.92012 5.65483C7.92018 5.65487 7.92022 5.6549 7.92025 5.65493C7.92027 5.65494 7.92028 5.65495 7.92029 5.65495C7.92029 5.65495 7.92029 5.65496 7.9203 5.65496C7.9203 5.65496 7.9203 5.65496 7.92031 5.65496C7.92031 5.65497 7.93163 5.72498 7.86165 5.73645L7.92014 5.65484ZM7.9326 5.78606C7.91035 5.77106 7.88837 5.75563 7.86161 5.73642L7.92018 5.65487C7.94643 5.67372 7.96757 5.68855 7.98874 5.70283L7.9326 5.78606ZM7.9461 5.79519L7.93256 5.78604L7.98878 5.70285L8.00231 5.712L7.9461 5.79519ZM8.60122 6.00346C8.47107 6.03697 8.33952 6.00544 8.22705 5.95733C8.11425 5.90908 8.01431 5.84133 7.94608 5.79517L8.00233 5.71201C8.07126 5.75864 8.16377 5.82107 8.26654 5.86503C8.36963 5.90912 8.47675 5.93183 8.57619 5.90623L8.60122 6.00346ZM2.53081 5.56508C2.51724 5.58094 2.51873 5.60582 2.53531 5.62032L2.46923 5.6959C2.41178 5.64568 2.40468 5.55804 2.45453 5.4998L2.53081 5.56508ZM3.11228 5.39502C3.02907 5.39636 2.91748 5.39829 2.80809 5.42122C2.69835 5.44423 2.59758 5.48707 2.53081 5.56508L2.45453 5.4998C2.54192 5.39769 2.66777 5.34806 2.78749 5.32296C2.90756 5.29778 3.02829 5.29596 3.11066 5.29463L3.11228 5.39502ZM3.12868 5.39475C3.12336 5.39484 3.11788 5.39493 3.11228 5.39502L3.11066 5.29463C3.11627 5.29454 3.12168 5.29446 3.12693 5.29436L3.12868 5.39475ZM3.21235 5.39471C3.18003 5.39432 3.15422 5.3943 3.12868 5.39475L3.12693 5.29436C3.15376 5.2939 3.18061 5.29392 3.21355 5.29431L3.21235 5.39471ZM3.30955 5.39595C3.29881 5.39589 3.27435 5.39558 3.25283 5.39528C3.24201 5.39513 3.23186 5.39499 3.22441 5.39488C3.22068 5.39483 3.21763 5.39478 3.21551 5.39475C3.21445 5.39474 3.21363 5.39473 3.21306 5.39472C3.21278 5.39471 3.21257 5.39471 3.21242 5.39471C3.21235 5.39471 3.2123 5.39471 3.21226 5.39471C3.21224 5.39471 3.21223 5.3947 3.21222 5.3947C3.21221 5.3947 3.21221 5.3947 3.21221 5.3947C3.2122 5.3947 3.2122 5.3947 3.2122 5.3947C3.2122 5.3947 3.16276 5.34379 3.21363 5.29431L3.21227 5.39471C3.26315 5.34523 3.2137 5.29432 3.2137 5.29432C3.2137 5.29432 3.2137 5.29432 3.2137 5.29432C3.2137 5.29432 3.2137 5.29432 3.21371 5.29432C3.21372 5.29432 3.21373 5.29432 3.21375 5.29432C3.21378 5.29432 3.21384 5.29432 3.21391 5.29432C3.21405 5.29432 3.21427 5.29432 3.21455 5.29433C3.2151 5.29434 3.21593 5.29435 3.21698 5.29436C3.2191 5.29439 3.22214 5.29444 3.22586 5.29449C3.23329 5.2946 3.24342 5.29474 3.25421 5.29489C3.27589 5.29519 3.29987 5.2955 3.31011 5.29555L3.30955 5.39595ZM3.64862 5.28265C3.55695 5.33955 3.46555 5.39682 3.30955 5.39595L3.31011 5.29555C3.43548 5.29625 3.50577 5.25315 3.59566 5.19735L3.64862 5.28265ZM3.67078 5.26894C3.66335 5.2735 3.65601 5.27806 3.64862 5.28265L3.59566 5.19735C3.60302 5.19278 3.61056 5.1881 3.61821 5.1834L3.67078 5.26894ZM3.80596 5.18129C3.7564 5.21411 3.71028 5.24467 3.67078 5.26894L3.61821 5.1834C3.65595 5.16021 3.7005 5.13071 3.75052 5.09758L3.80596 5.18129ZM4.49628 4.86912C4.41488 4.85666 4.30136 4.89287 4.17261 4.95814C4.04646 5.02208 3.91675 5.10792 3.80596 5.18129L3.75052 5.09758C3.86037 5.02483 3.99497 4.93562 4.12722 4.86858C4.25686 4.80287 4.39584 4.75218 4.51147 4.76987L4.49628 4.86912ZM4.56907 5.18481C4.56896 5.18555 4.56932 5.18085 4.56788 5.16758C4.5666 5.15586 4.56432 5.14075 4.56112 5.12318C4.55471 5.08809 4.54499 5.04517 4.53357 5.00344C4.52207 4.9614 4.50929 4.9222 4.49705 4.89383C4.49084 4.87943 4.48561 4.86982 4.48182 4.8644C4.47993 4.8617 4.47941 4.86152 4.48051 4.86246C4.48136 4.86319 4.48669 4.86765 4.49628 4.86912L4.51147 4.76987C4.52708 4.77226 4.53864 4.78005 4.54587 4.78626C4.55335 4.79267 4.55935 4.80008 4.56407 4.80683C4.57351 4.82032 4.58188 4.83701 4.58924 4.85406C4.60414 4.8886 4.61836 4.93289 4.63041 4.97694C4.64254 5.02128 4.65293 5.06702 4.65988 5.10515C4.66336 5.12418 4.66607 5.14182 4.66769 5.15673C4.66915 5.1701 4.6703 5.18593 4.66848 5.19883L4.56907 5.18481ZM4.57841 5.29592C4.57538 5.27537 4.5723 5.25447 4.57032 5.23654C4.56852 5.22023 4.56686 5.20049 4.56907 5.18481L4.66848 5.19883C4.66851 5.19867 4.66827 5.20074 4.6685 5.20621C4.66871 5.21126 4.66925 5.21769 4.67012 5.22552C4.67186 5.24128 4.67463 5.26021 4.67774 5.28131L4.57841 5.29592ZM4.62874 5.39945C4.62005 5.39812 4.60866 5.40005 4.59923 5.40772C4.59162 5.4139 4.58953 5.42041 4.58944 5.42068C4.58943 5.4207 4.59072 5.41517 4.59036 5.40053C4.58968 5.37311 4.58419 5.33523 4.57841 5.29592L4.67774 5.28131C4.6832 5.31843 4.68987 5.36317 4.69073 5.39806C4.69113 5.41458 4.69053 5.43513 4.68455 5.45284C4.68146 5.46196 4.67535 5.47523 4.66253 5.48565C4.64788 5.49755 4.63006 5.50122 4.61356 5.49869L4.62874 5.39945ZM3.67008 5.6805C3.88107 5.58682 4.0644 5.50857 4.22134 5.45781C4.37739 5.40734 4.51369 5.38184 4.62874 5.39945L4.61356 5.49869C4.5223 5.48473 4.40439 5.50413 4.25224 5.55334C4.10097 5.60226 3.92212 5.67845 3.71082 5.77226L3.67008 5.6805ZM3.0307 5.62563C3.13726 5.65604 3.25061 5.68829 3.36253 5.7034C3.47443 5.7185 3.58018 5.7157 3.67212 5.67964L3.70878 5.77311C3.5945 5.81793 3.46944 5.81913 3.34911 5.80289C3.22881 5.78666 3.10851 5.75224 3.00315 5.72217L3.0307 5.62563ZM2.58857 5.61697C2.6366 5.56086 2.71347 5.55776 2.78257 5.56633C2.85473 5.57527 2.94154 5.60018 3.0307 5.62563L3.00315 5.72217C2.91129 5.69596 2.83294 5.67374 2.77022 5.66596C2.70444 5.65781 2.67671 5.66839 2.66485 5.68226L2.58857 5.61697ZM2.53531 5.62032C2.55159 5.63455 2.57527 5.63251 2.58857 5.61697L2.66485 5.68226C2.61472 5.74082 2.52698 5.74639 2.46923 5.6959L2.53531 5.62032Z" fill="#984111"/>
<path fill-rule="evenodd" clip-rule="evenodd" d="M5.65083 1.44495C5.56552 1.44495 5.49324 1.50777 5.48135 1.59224L5.2046 3.55864H6.09705L5.8203 1.59224C5.80841 1.50777 5.73613 1.44495 5.65083 1.44495ZM7.98928 2.41355C7.92896 2.35323 7.83344 2.34654 7.7653 2.39786L6.17915 3.59263L6.81021 4.22368L8.00497 2.63753C8.05629 2.5694 8.0496 2.47387 7.98928 2.41355ZM8.81056 4.58255C8.89503 4.59444 8.95785 4.66672 8.95785 4.75202C8.95785 4.83732 8.89503 4.9096 8.81056 4.92149L6.84416 5.19824V4.3058L8.81056 4.58255ZM7.98924 7.09048C8.04956 7.03016 8.05625 6.93463 8.00493 6.8665L6.81017 5.28035L6.17911 5.9114L7.76526 7.10616C7.8334 7.15749 7.92892 7.1508 7.98924 7.09048ZM5.82032 7.91175C5.80843 7.99622 5.73616 8.05904 5.65085 8.05904C5.56555 8.05904 5.49327 7.99622 5.48138 7.91175L5.20463 5.94535H6.09708L5.82032 7.91175ZM3.31239 7.09044C3.37271 7.15076 3.46824 7.15745 3.53638 7.10612L5.12253 5.91136L4.49147 5.28031L3.29671 6.86646C3.24539 6.93459 3.25208 7.03012 3.31239 7.09044ZM2.49104 4.92152C2.40657 4.90963 2.34375 4.83735 2.34375 4.75205C2.34375 4.66675 2.40657 4.59447 2.49104 4.58258L4.45744 4.30583V5.19827L2.49104 4.92152ZM3.31235 2.41359C3.25203 2.47391 3.24535 2.56944 3.29667 2.63757L4.49143 4.22372L5.12248 3.59267L3.53634 2.39791C3.4682 2.34658 3.37267 2.35327 3.31235 2.41359Z" fill="#FFC125"/>
<path d="M5.48135 1.59224L5.53106 1.59923L5.53106 1.59923L5.48135 1.59224ZM5.2046 3.55864L5.15489 3.55164L5.14684 3.60884H5.2046V3.55864ZM6.09705 3.55864V3.60884H6.15481L6.14676 3.55164L6.09705 3.55864ZM5.8203 1.59224L5.77059 1.59923L5.77059 1.59923L5.8203 1.59224ZM7.7653 2.39786L7.7955 2.43796L7.7955 2.43796L7.7653 2.39786ZM7.98928 2.41355L8.02478 2.37805L8.02478 2.37805L7.98928 2.41355ZM6.17915 3.59263L6.14895 3.55253L6.10281 3.58728L6.14365 3.62812L6.17915 3.59263ZM6.81021 4.22368L6.77471 4.25918L6.81555 4.30002L6.8503 4.25388L6.81021 4.22368ZM8.00497 2.63753L8.04506 2.66774L8.04506 2.66774L8.00497 2.63753ZM8.81056 4.58255L8.80356 4.63226L8.80356 4.63226L8.81056 4.58255ZM8.81056 4.92149L8.80356 4.87178L8.80356 4.87178L8.81056 4.92149ZM6.84416 5.19824H6.79396V5.256L6.85115 5.24796L6.84416 5.19824ZM6.84416 4.3058L6.85115 4.25609L6.79396 4.24804V4.3058H6.84416ZM8.00493 6.8665L7.96483 6.8967L7.96483 6.8967L8.00493 6.8665ZM6.81017 5.28035L6.85026 5.25014L6.81551 5.20401L6.77467 5.24485L6.81017 5.28035ZM6.17911 5.9114L6.14361 5.87591L6.10277 5.91675L6.14891 5.9515L6.17911 5.9114ZM7.76526 7.10616L7.73506 7.14626L7.73506 7.14626L7.76526 7.10616ZM5.82032 7.91175L5.77061 7.90476L5.77061 7.90476L5.82032 7.91175ZM5.48138 7.91175L5.53109 7.90476L5.53109 7.90476L5.48138 7.91175ZM5.20463 5.94535V5.89515H5.14687L5.15492 5.95235L5.20463 5.94535ZM6.09708 5.94535L6.14679 5.95235L6.15484 5.89515H6.09708V5.94535ZM3.53638 7.10612L3.50617 7.06603L3.50617 7.06603L3.53638 7.10612ZM3.31239 7.09044L3.34789 7.05494L3.34789 7.05494L3.31239 7.09044ZM5.12253 5.91136L5.15273 5.95146L5.19887 5.91671L5.15802 5.87587L5.12253 5.91136ZM4.49147 5.28031L4.52697 5.24481L4.48613 5.20397L4.45137 5.2501L4.49147 5.28031ZM3.29671 6.86646L3.25661 6.83625L3.25661 6.83625L3.29671 6.86646ZM2.49104 4.92152L2.49804 4.87181L2.49804 4.87181L2.49104 4.92152ZM2.49104 4.58258L2.49804 4.63229L2.49804 4.63229L2.49104 4.58258ZM4.45744 4.30583H4.50764V4.24807L4.45044 4.25612L4.45744 4.30583ZM4.45744 5.19827L4.45044 5.24798L4.50764 5.25603V5.19827H4.45744ZM3.29667 2.63757L3.33677 2.60737L3.33677 2.60737L3.29667 2.63757ZM3.31235 2.41359L3.34785 2.44909L3.34785 2.44909L3.31235 2.41359ZM4.49143 4.22372L4.45133 4.25393L4.48608 4.30006L4.52693 4.25922L4.49143 4.22372ZM5.12248 3.59267L5.15798 3.62816L5.19882 3.58732L5.15269 3.55257L5.12248 3.59267ZM3.53634 2.39791L3.56654 2.35781L3.56654 2.35781L3.53634 2.39791ZM5.53106 1.59923C5.53947 1.53954 5.59054 1.49515 5.65083 1.49515V1.39475C5.5405 1.39475 5.44702 1.47599 5.43164 1.58524L5.53106 1.59923ZM5.25431 3.56563L5.53106 1.59923L5.43164 1.58524L5.15489 3.55164L5.25431 3.56563ZM6.09705 3.50844H5.2046V3.60884H6.09705V3.50844ZM5.77059 1.59923L6.04734 3.56563L6.14676 3.55164L5.87001 1.58524L5.77059 1.59923ZM5.65083 1.49515C5.71111 1.49515 5.76218 1.53954 5.77059 1.59923L5.87001 1.58524C5.85463 1.47599 5.76115 1.39475 5.65083 1.39475V1.49515ZM7.7955 2.43796C7.84365 2.40169 7.91116 2.40642 7.95379 2.44905L8.02478 2.37805C7.94677 2.30004 7.82322 2.29139 7.7351 2.35777L7.7955 2.43796ZM6.20935 3.63272L7.7955 2.43796L7.7351 2.35777L6.14895 3.55253L6.20935 3.63272ZM6.8457 4.18818L6.21465 3.55713L6.14365 3.62812L6.77471 4.25918L6.8457 4.18818ZM7.96487 2.60733L6.77011 4.19348L6.8503 4.25388L8.04506 2.66774L7.96487 2.60733ZM7.95379 2.44905C7.99641 2.49167 8.00114 2.55918 7.96487 2.60733L8.04506 2.66774C8.11144 2.57961 8.10279 2.45606 8.02478 2.37805L7.95379 2.44905ZM9.00805 4.75202C9.00805 4.6417 8.9268 4.54822 8.81755 4.53284L8.80356 4.63226C8.86325 4.64066 8.90765 4.69174 8.90765 4.75202H9.00805ZM8.81755 4.9712C8.9268 4.95583 9.00805 4.86235 9.00805 4.75202H8.90765C8.90765 4.8123 8.86325 4.86338 8.80356 4.87178L8.81755 4.9712ZM6.85115 5.24796L8.81755 4.9712L8.80356 4.87178L6.83716 5.14853L6.85115 5.24796ZM6.79396 4.3058V5.19824H6.89436V4.3058H6.79396ZM8.81755 4.53284L6.85115 4.25609L6.83716 4.35551L8.80356 4.63226L8.81755 4.53284ZM7.96483 6.8967C8.0011 6.94485 7.99637 7.01236 7.95375 7.05498L8.02474 7.12598C8.10275 7.04796 8.1114 6.92441 8.04502 6.83629L7.96483 6.8967ZM6.77007 5.31055L7.96483 6.8967L8.04502 6.83629L6.85026 5.25014L6.77007 5.31055ZM6.21461 5.9469L6.84566 5.31584L6.77467 5.24485L6.14361 5.87591L6.21461 5.9469ZM7.79546 7.06607L6.20931 5.87131L6.14891 5.9515L7.73506 7.14626L7.79546 7.06607ZM7.95375 7.05498C7.91112 7.09761 7.84361 7.10234 7.79546 7.06607L7.73506 7.14626C7.82318 7.21264 7.94673 7.20399 8.02474 7.12598L7.95375 7.05498ZM5.65085 8.10924C5.76118 8.10924 5.85466 8.028 5.87003 7.91875L5.77061 7.90476C5.76221 7.96445 5.71113 8.00884 5.65085 8.00884V8.10924ZM5.43167 7.91875C5.44705 8.028 5.54053 8.10924 5.65085 8.10924V8.00884C5.59057 8.00884 5.53949 7.96445 5.53109 7.90476L5.43167 7.91875ZM5.15492 5.95235L5.43167 7.91875L5.53109 7.90476L5.25434 5.93836L5.15492 5.95235ZM6.09708 5.89515H5.20463V5.99555H6.09708V5.89515ZM5.87003 7.91875L6.14679 5.95235L6.04737 5.93836L5.77061 7.90476L5.87003 7.91875ZM3.50617 7.06603C3.45802 7.10229 3.39052 7.09757 3.34789 7.05494L3.2769 7.12594C3.35491 7.20395 3.47846 7.2126 3.56658 7.14622L3.50617 7.06603ZM5.09232 5.87126L3.50617 7.06603L3.56658 7.14622L5.15273 5.95146L5.09232 5.87126ZM4.45597 5.3158L5.08703 5.94686L5.15802 5.87587L4.52697 5.24481L4.45597 5.3158ZM3.33681 6.89666L4.53157 5.31051L4.45137 5.2501L3.25661 6.83625L3.33681 6.89666ZM3.34789 7.05494C3.30527 7.01232 3.30054 6.94481 3.33681 6.89666L3.25661 6.83625C3.19023 6.92437 3.19889 7.04792 3.2769 7.12594L3.34789 7.05494ZM2.29355 4.75205C2.29355 4.86237 2.3748 4.95585 2.48404 4.97123L2.49804 4.87181C2.43834 4.86341 2.39395 4.81233 2.39395 4.75205H2.29355ZM2.48404 4.53287C2.3748 4.54824 2.29355 4.64172 2.29355 4.75205H2.39395C2.39395 4.69177 2.43834 4.64069 2.49804 4.63229L2.48404 4.53287ZM4.45044 4.25612L2.48404 4.53287L2.49804 4.63229L4.46444 4.35554L4.45044 4.25612ZM4.50764 5.19827V4.30583H4.40724V5.19827H4.50764ZM2.48404 4.97123L4.45044 5.24798L4.46444 5.14856L2.49804 4.87181L2.48404 4.97123ZM3.33677 2.60737C3.3005 2.55922 3.30522 2.49171 3.34785 2.44909L3.27686 2.37809C3.19884 2.45611 3.19019 2.57966 3.25657 2.66778L3.33677 2.60737ZM4.53153 4.19352L3.33677 2.60737L3.25657 2.66778L4.45133 4.25393L4.53153 4.19352ZM5.08699 3.55717L4.45593 4.18823L4.52693 4.25922L5.15798 3.62816L5.08699 3.55717ZM3.50613 2.438L5.09228 3.63277L5.15269 3.55257L3.56654 2.35781L3.50613 2.438ZM3.34785 2.44909C3.39048 2.40646 3.45798 2.40174 3.50613 2.438L3.56654 2.35781C3.47842 2.29143 3.35487 2.30008 3.27686 2.37809L3.34785 2.44909Z" fill="#984111"/>
<path fill-rule="evenodd" clip-rule="evenodd" d="M5.65074 5.98507C6.36542 5.98507 6.94478 5.41333 6.94478 4.70805C6.94478 4.00277 6.36542 3.43103 5.65074 3.43103C4.93605 3.43103 4.35669 4.00277 4.35669 4.70805C4.35669 5.41333 4.93605 5.98507 5.65074 5.98507Z" fill="#FFC125" stroke="#984111" stroke-width="0.1004"/>
<path d="M5.52592 4.37487C5.51257 4.3666 5.45598 4.32925 5.44208 4.32045C5.3931 4.28946 5.35404 4.26925 5.31776 4.25793C5.29788 4.25172 5.27973 4.24859 5.26331 4.24859C5.18456 4.24859 5.0733 4.29775 4.93258 4.39792L4.88037 4.3265C5.03493 4.21647 5.16156 4.16052 5.26331 4.16052C5.28952 4.16052 5.31657 4.16519 5.34467 4.17396C5.39004 4.18812 5.43522 4.21149 5.49025 4.24632C5.50527 4.25582 5.56138 4.29285 5.57337 4.30028C5.59287 4.31236 5.6055 4.31817 5.60535 4.31817C5.7119 4.31817 5.71835 4.6994 5.64299 4.81629C5.62263 4.84789 5.59762 4.87343 5.56486 4.89913C5.55226 4.90902 5.5127 4.93751 5.50687 4.94201C5.48061 4.96225 5.47229 4.97403 5.47229 4.98846C5.47229 4.99096 5.50436 4.99891 5.57587 4.99555C5.59004 4.99488 5.60411 4.99395 5.62483 4.99237C5.67566 4.98851 5.68223 4.98808 5.69862 4.98808V5.07615C5.68569 5.07615 5.67886 5.0766 5.63168 5.08018C5.61016 5.08182 5.59535 5.08281 5.58011 5.08352C5.45438 5.08942 5.38304 5.07175 5.38304 4.98846C5.38304 4.94063 5.40617 4.90788 5.45193 4.8726C5.4594 4.86684 5.49855 4.83864 5.50932 4.83019C5.53494 4.8101 5.55332 4.79132 5.5677 4.76902C5.59078 4.73321 5.60511 4.64006 5.60343 4.54129C5.60267 4.49595 5.59853 4.45434 5.59199 4.42514C5.59002 4.41638 5.58793 4.40917 5.58595 4.40388C5.56902 4.39978 5.55079 4.39028 5.52592 4.37487Z" fill="#984111"/>
<path fill-rule="evenodd" clip-rule="evenodd" d="M5.88612 4.34397C5.86672 4.35666 5.84589 4.37027 5.83846 4.37487C5.81359 4.39028 5.79536 4.39978 5.77843 4.40388C5.77645 4.40917 5.77436 4.41638 5.77239 4.42514C5.76585 4.45434 5.76171 4.49595 5.76095 4.54129C5.75927 4.64006 5.7736 4.73321 5.79668 4.76902C5.81106 4.79132 5.82944 4.8101 5.85506 4.83019C5.86133 4.83511 5.87721 4.84672 5.89086 4.8567C5.90067 4.86387 5.90933 4.87019 5.91245 4.8726C5.95821 4.90788 5.98134 4.94063 5.98134 4.98846C5.98134 5.07175 5.91 5.08942 5.78427 5.08352C5.76903 5.08281 5.75422 5.08182 5.7327 5.08018C5.68552 5.0766 5.67869 5.07615 5.66576 5.07615V4.98808C5.68215 4.98808 5.68872 4.98851 5.73955 4.99237C5.76027 4.99395 5.77434 4.99488 5.78851 4.99555C5.86002 4.99891 5.89209 4.99096 5.89209 4.98846C5.89209 4.97404 5.88377 4.96225 5.85751 4.94201C5.85535 4.94035 5.84858 4.9354 5.84026 4.92932C5.82609 4.91897 5.80746 4.90536 5.79952 4.89913C5.76676 4.87343 5.74175 4.84789 5.72139 4.81629C5.64603 4.6994 5.65248 4.31817 5.75903 4.31817C5.75901 4.31817 5.75927 4.31805 5.75979 4.31779C5.76277 4.31632 5.77439 4.31058 5.79101 4.30028C5.79741 4.29632 5.81638 4.28392 5.83496 4.27177C5.85119 4.26116 5.86712 4.25075 5.87413 4.24632C5.92916 4.21149 5.97434 4.18812 6.01971 4.17396C6.04781 4.16519 6.07486 4.16052 6.10107 4.16052C6.20282 4.16052 6.32945 4.21647 6.48401 4.3265L6.4318 4.39792C6.29108 4.29775 6.17982 4.24859 6.10107 4.24859C6.08465 4.24859 6.0665 4.25172 6.04662 4.25793C6.01034 4.26925 5.97128 4.28946 5.9223 4.32045C5.91614 4.32435 5.90158 4.33387 5.88612 4.34397ZM5.78126 4.39755L5.7802 4.39968L5.78085 4.39822L5.78126 4.39755Z" fill="#984111"/>
<path d="M5.42669 5.23584L5.44912 5.28075L5.42669 5.23584ZM5.87971 5.23671L5.85386 5.27974L5.85386 5.27974L5.87971 5.23671ZM5.92568 5.26432L5.96692 5.29295L5.99751 5.2489L5.95153 5.22129L5.92568 5.26432ZM5.8951 5.30837L5.93633 5.337L5.93633 5.337L5.8951 5.30837ZM5.41099 5.31341L5.44912 5.28075L5.44912 5.28075L5.41099 5.31341ZM5.36916 5.26457L5.34673 5.21966L5.2892 5.2484L5.33103 5.29723L5.36916 5.26457ZM5.53748 5.29901L5.52255 5.25108L5.43589 5.27808L5.50482 5.33713L5.53748 5.29901ZM5.77473 5.29794L5.81083 5.33282L5.86554 5.27619L5.79111 5.25049L5.77473 5.29794ZM5.39056 5.26949L5.36463 5.2265L5.31685 5.25533L5.35055 5.29981L5.39056 5.26949ZM5.90674 5.26932L5.94961 5.29543L5.9733 5.25654L5.93689 5.22919L5.90674 5.26932ZM5.33186 5.1877L5.35827 5.23039L5.35827 5.23039L5.33186 5.1877ZM5.9727 5.19336L6.00344 5.15368L6.00344 5.15368L5.9727 5.19336ZM6.00343 5.21717L5.9727 5.25686L5.9727 5.25686L6.00343 5.21717ZM6.03861 5.24441L6.0817 5.27016L6.10453 5.23197L6.06935 5.20472L6.03861 5.24441ZM6.01579 5.28261L6.05888 5.30836L6.05888 5.30836L6.01579 5.28261ZM5.99594 5.31582L5.95285 5.29006L5.95285 5.29006L5.99594 5.31582ZM5.30576 5.32376L5.2655 5.35374L5.30576 5.32376ZM5.27731 5.28556L5.31757 5.25557L5.27731 5.28556ZM5.24463 5.24168L5.21821 5.19899L5.17169 5.22778L5.20437 5.27166L5.24463 5.24168ZM5.29116 5.21289L5.26474 5.1702L5.26474 5.1702L5.29116 5.21289ZM5.66146 5.12968C5.57163 5.12968 5.48569 5.15026 5.40426 5.19093L5.44912 5.28075C5.51693 5.24688 5.58755 5.23008 5.66146 5.23008V5.12968ZM5.90556 5.19367C5.83279 5.14996 5.75061 5.12968 5.66146 5.12968V5.23008C5.73492 5.23008 5.79874 5.24663 5.85386 5.27974L5.90556 5.19367ZM5.95153 5.22129L5.90556 5.19367L5.85386 5.27974L5.89983 5.30736L5.95153 5.22129ZM5.93633 5.337L5.96692 5.29295L5.88445 5.23569L5.85386 5.27974L5.93633 5.337ZM5.66146 5.50426C5.77653 5.50426 5.86724 5.4365 5.93633 5.337L5.85386 5.27974C5.79528 5.3641 5.73142 5.40386 5.66146 5.40386V5.50426ZM5.37287 5.34607C5.45361 5.44032 5.54977 5.50426 5.66146 5.50426V5.40386C5.59125 5.40386 5.52045 5.36402 5.44912 5.28075L5.37287 5.34607ZM5.33103 5.29723L5.37287 5.34607L5.44912 5.28075L5.40728 5.23191L5.33103 5.29723ZM5.40426 5.19093L5.34673 5.21966L5.39159 5.30948L5.44912 5.28075L5.40426 5.19093ZM5.66146 5.30346C5.63985 5.30346 5.60966 5.29475 5.57014 5.26089L5.50482 5.33713C5.55726 5.38206 5.60975 5.40386 5.66146 5.40386V5.30346ZM5.73862 5.26306C5.70678 5.29602 5.68143 5.30346 5.66146 5.30346V5.40386C5.71372 5.40386 5.7639 5.3814 5.81083 5.33282L5.73862 5.26306ZM5.66146 5.33048C5.69864 5.33048 5.73054 5.33579 5.75834 5.34539L5.79111 5.25049C5.75148 5.2368 5.70833 5.23008 5.66146 5.23008V5.33048ZM5.55241 5.34694C5.58776 5.33592 5.62396 5.33048 5.66146 5.33048V5.23008C5.61401 5.23008 5.56774 5.237 5.52255 5.25108L5.55241 5.34694ZM5.66146 5.39152C5.59424 5.39152 5.51676 5.35288 5.43057 5.23916L5.35055 5.29981C5.4464 5.42627 5.55006 5.49192 5.66146 5.49192V5.39152ZM5.86386 5.24321C5.7959 5.35478 5.72698 5.39152 5.66146 5.39152V5.49192C5.7745 5.49192 5.87103 5.42444 5.94961 5.29543L5.86386 5.24321ZM5.66146 5.2424C5.74773 5.2424 5.81835 5.2657 5.87658 5.30945L5.93689 5.22919C5.8595 5.17104 5.76717 5.142 5.66146 5.142V5.2424ZM5.4165 5.31247C5.49474 5.26526 5.57613 5.2424 5.66146 5.2424V5.142C5.55702 5.142 5.4578 5.17029 5.36463 5.2265L5.4165 5.31247ZM5.66146 5.0416C5.53501 5.0416 5.41548 5.07692 5.30544 5.14501L5.35827 5.23039C5.45325 5.17161 5.5546 5.142 5.66146 5.142V5.0416ZM6.00344 5.15368C5.90572 5.078 5.78948 5.0416 5.66146 5.0416V5.142C5.76955 5.142 5.8636 5.17236 5.94196 5.23305L6.00344 5.15368ZM6.03417 5.17748L6.00344 5.15368L5.94196 5.23305L5.9727 5.25686L6.03417 5.17748ZM6.06935 5.20472L6.03417 5.17748L5.9727 5.25686L6.00787 5.2841L6.06935 5.20472ZM6.05888 5.30836L6.0817 5.27016L5.99552 5.21866L5.9727 5.25686L6.05888 5.30836ZM6.03903 5.34157L6.05888 5.30836L5.9727 5.25686L5.95285 5.29006L6.03903 5.34157ZM5.66146 5.59232C5.82473 5.59232 5.94979 5.4909 6.03903 5.34157L5.95285 5.29006C5.8737 5.42252 5.77613 5.49192 5.66146 5.49192V5.59232ZM5.2655 5.35374C5.37184 5.49653 5.5032 5.59232 5.66146 5.59232V5.49192C5.54828 5.49192 5.44316 5.42419 5.34602 5.29377L5.2655 5.35374ZM5.23705 5.31554L5.2655 5.35374L5.34602 5.29377L5.31757 5.25557L5.23705 5.31554ZM5.20437 5.27166L5.23705 5.31554L5.31757 5.25557L5.28489 5.21169L5.20437 5.27166ZM5.26474 5.1702L5.21821 5.19899L5.27105 5.28437L5.31757 5.25557L5.26474 5.1702ZM5.30544 5.14501L5.26474 5.1702L5.31757 5.25557L5.35827 5.23039L5.30544 5.14501Z" fill="#984111"/>
<path d="M5.0251 4.38592L5.00338 4.34066L5.00338 4.34066L5.0251 4.38592ZM5.0251 4.62789L5.00338 4.67314L5.00338 4.67314L5.0251 4.62789ZM5.38407 4.62789L5.4058 4.67314L5.4058 4.67314L5.38407 4.62789ZM5.38407 4.38592L5.4058 4.34066L5.4058 4.34066L5.38407 4.38592ZM5.03219 4.50501L4.98601 4.48532L4.98601 4.48532L5.03219 4.50501ZM5.03667 4.49841L4.99901 4.46522L4.99901 4.46522L5.03667 4.49841ZM5.06855 4.47643L5.04682 4.43118L5.04682 4.43118L5.06855 4.47643ZM5.34063 4.47643L5.36235 4.43118L5.36235 4.43118L5.34063 4.47643ZM5.3725 4.49841L5.41016 4.46522L5.41016 4.46522L5.3725 4.49841ZM5.37699 4.50501L5.42316 4.48532L5.42316 4.48532L5.37699 4.50501ZM5.37699 4.5088L5.42316 4.52849L5.42317 4.52849L5.37699 4.5088ZM5.3725 4.5154L5.41016 4.54859L5.41016 4.54859L5.3725 4.5154ZM5.34063 4.53737L5.36235 4.58263L5.36235 4.58263L5.34063 4.53737ZM5.06855 4.53737L5.04682 4.58263L5.06855 4.53737ZM5.03667 4.5154L4.99901 4.54859L4.99901 4.54859L5.03667 4.5154ZM5.03219 4.5088L4.98601 4.52849L4.98601 4.52849L5.03219 4.5088ZM5.91757 4.38592L5.89585 4.34066L5.89585 4.34066L5.91757 4.38592ZM5.91757 4.62789L5.89585 4.67314L5.89585 4.67314L5.91757 4.62789ZM6.27655 4.62789L6.29827 4.67314L6.29827 4.67314L6.27655 4.62789ZM6.27655 4.38592L6.29827 4.34066L6.29827 4.34066L6.27655 4.38592ZM5.92466 4.50501L5.97084 4.52469L5.97084 4.52469L5.92466 4.50501ZM5.92915 4.49841L5.96681 4.53159L5.96681 4.53159L5.92915 4.49841ZM5.96102 4.47643L5.9393 4.43118L5.9393 4.43118L5.96102 4.47643ZM6.2331 4.47643L6.25482 4.43118L6.25482 4.43118L6.2331 4.47643ZM6.26497 4.49841L6.30264 4.46522L6.30264 4.46522L6.26497 4.49841ZM6.26946 4.50501L6.22328 4.52469L6.22328 4.52469L6.26946 4.50501ZM6.26946 4.5088L6.22328 4.48911L6.22328 4.48911L6.26946 4.5088ZM6.26497 4.5154L6.30264 4.54859L6.30264 4.54859L6.26497 4.5154ZM6.2331 4.53737L6.25482 4.58263L6.25482 4.58263L6.2331 4.53737ZM5.96102 4.53737L5.9393 4.58263L5.9393 4.58263L5.96102 4.53737ZM5.92915 4.5154L5.96681 4.48221L5.96681 4.48221L5.92915 4.5154ZM5.92466 4.5088L5.97084 4.48911L5.97084 4.48911L5.92466 4.5088ZM5.04682 4.43118C5.0872 4.4118 5.14297 4.39981 5.20459 4.39981V4.29941C5.13133 4.29941 5.06007 4.31345 5.00338 4.34066L5.04682 4.43118ZM4.98147 4.5069C4.98147 4.47759 5.00604 4.45075 5.04682 4.43118L5.00338 4.34066C4.95433 4.36421 4.88107 4.41639 4.88107 4.5069H4.98147ZM5.04682 4.58263C5.00604 4.56305 4.98147 4.53621 4.98147 4.5069H4.88107C4.88107 4.59742 4.95433 4.6496 5.00338 4.67314L5.04682 4.58263ZM5.20459 4.614C5.14297 4.614 5.0872 4.60201 5.04682 4.58263L5.00338 4.67314C5.06007 4.70035 5.13133 4.7144 5.20459 4.7144V4.614ZM5.36235 4.58263C5.32198 4.60201 5.2662 4.614 5.20459 4.614V4.7144C5.27785 4.7144 5.34911 4.70035 5.4058 4.67314L5.36235 4.58263ZM5.4277 4.5069C5.4277 4.53621 5.40313 4.56305 5.36235 4.58263L5.4058 4.67314C5.45484 4.6496 5.5281 4.59742 5.5281 4.5069H5.4277ZM5.36235 4.43118C5.40313 4.45075 5.4277 4.47759 5.4277 4.5069H5.5281C5.5281 4.41639 5.45484 4.36421 5.4058 4.34066L5.36235 4.43118ZM5.20459 4.39981C5.2662 4.39981 5.32198 4.4118 5.36235 4.43118L5.4058 4.34066C5.34911 4.31345 5.27785 4.29941 5.20459 4.29941V4.39981ZM4.98601 4.48532C4.983 4.49236 4.98147 4.49958 4.98147 4.5069H5.08187C5.08187 4.50746 5.08187 4.50909 5.08169 4.51115C5.08151 4.51309 5.08123 4.51494 5.08086 4.51668C5.08014 4.52011 5.07917 4.52282 5.07837 4.52469L4.98601 4.48532ZM4.99901 4.46522C4.99335 4.47163 4.98898 4.47836 4.98601 4.48532L5.07837 4.52469C5.07651 4.52904 5.07463 4.53126 5.07434 4.53159L4.99901 4.46522ZM5.04682 4.43118C5.02663 4.44087 5.0103 4.45241 4.99901 4.46522L5.07434 4.53159C5.0742 4.53175 5.07822 4.52747 5.09027 4.52169L5.04682 4.43118ZM5.20459 4.39981C5.14297 4.39981 5.08719 4.4118 5.04682 4.43118L5.09027 4.52169C5.11433 4.51014 5.15463 4.50021 5.20459 4.50021V4.39981ZM5.36235 4.43118C5.32198 4.4118 5.2662 4.39981 5.20459 4.39981V4.50021C5.25454 4.50021 5.29484 4.51014 5.3189 4.52169L5.36235 4.43118ZM5.41016 4.46522C5.39888 4.45241 5.38254 4.44087 5.36235 4.43118L5.3189 4.52169C5.33095 4.52747 5.33498 4.53175 5.33484 4.53159L5.41016 4.46522ZM5.42316 4.48532C5.4202 4.47836 5.41582 4.47163 5.41016 4.46522L5.33484 4.53159C5.33454 4.53126 5.33266 4.52904 5.33081 4.52469L5.42316 4.48532ZM5.4277 4.5069C5.4277 4.49959 5.42617 4.49237 5.42316 4.48532L5.33081 4.52469C5.33001 4.52282 5.32903 4.52011 5.32831 4.51668C5.32794 4.51494 5.32766 4.51309 5.32749 4.51115C5.3273 4.50909 5.3273 4.50746 5.3273 4.5069H5.4277ZM5.42317 4.52849C5.42617 4.52144 5.4277 4.51422 5.4277 4.5069H5.3273C5.3273 4.50635 5.3273 4.50472 5.32749 4.50266C5.32766 4.50072 5.32794 4.49887 5.32831 4.49713C5.32903 4.4937 5.33001 4.49099 5.33081 4.48911L5.42317 4.52849ZM5.41016 4.54859C5.41582 4.54217 5.4202 4.53545 5.42316 4.52849L5.33081 4.48911C5.33266 4.48477 5.33454 4.48255 5.33484 4.48221L5.41016 4.54859ZM5.36235 4.58263C5.38254 4.57294 5.39888 4.5614 5.41016 4.54859L5.33484 4.48221C5.33498 4.48205 5.33095 4.48633 5.3189 4.49212L5.36235 4.58263ZM5.20459 4.614C5.2662 4.614 5.32198 4.60201 5.36235 4.58263L5.3189 4.49212C5.29484 4.50367 5.25454 4.5136 5.20459 4.5136V4.614ZM5.04682 4.58263C5.08719 4.60201 5.14297 4.614 5.20459 4.614V4.5136C5.15463 4.5136 5.11433 4.50367 5.09027 4.49212L5.04682 4.58263ZM4.99901 4.54859C5.0103 4.5614 5.02663 4.57294 5.04682 4.58263L5.09027 4.49212C5.07822 4.48633 5.0742 4.48205 5.07434 4.48221L4.99901 4.54859ZM4.98601 4.52849C4.98898 4.53545 4.99335 4.54217 4.99901 4.54859L5.07434 4.48221C5.07463 4.48255 5.07651 4.48477 5.07837 4.48911L4.98601 4.52849ZM4.98147 4.5069C4.98147 4.51422 4.983 4.52144 4.98601 4.52849L5.07837 4.48911C5.07917 4.49099 5.08014 4.4937 5.08086 4.49713C5.08123 4.49887 5.08151 4.50072 5.08169 4.50266C5.08187 4.50472 5.08187 4.50635 5.08187 4.5069H4.98147ZM5.9393 4.43118C5.97967 4.4118 6.03545 4.39981 6.09706 4.39981V4.29941C6.0238 4.29941 5.95254 4.31345 5.89585 4.34066L5.9393 4.43118ZM5.87395 4.5069C5.87395 4.47759 5.89851 4.45075 5.9393 4.43118L5.89585 4.34066C5.8468 4.36421 5.77355 4.41639 5.77355 4.5069H5.87395ZM5.9393 4.58263C5.89851 4.56305 5.87395 4.53621 5.87395 4.5069H5.77355C5.77355 4.59742 5.8468 4.6496 5.89585 4.67314L5.9393 4.58263ZM6.09706 4.614C6.03545 4.614 5.97967 4.60201 5.9393 4.58263L5.89585 4.67314C5.95254 4.70035 6.0238 4.7144 6.09706 4.7144V4.614ZM6.25482 4.58263C6.21445 4.60201 6.15867 4.614 6.09706 4.614V4.7144C6.17032 4.7144 6.24158 4.70035 6.29827 4.67314L6.25482 4.58263ZM6.32017 4.5069C6.32017 4.53621 6.29561 4.56305 6.25482 4.58263L6.29827 4.67314C6.34732 4.6496 6.42057 4.59742 6.42057 4.5069H6.32017ZM6.25482 4.43118C6.29561 4.45075 6.32017 4.47759 6.32017 4.5069H6.42057C6.42057 4.41639 6.34732 4.36421 6.29827 4.34066L6.25482 4.43118ZM6.09706 4.39981C6.15867 4.39981 6.21445 4.4118 6.25482 4.43118L6.29827 4.34066C6.24158 4.31345 6.17032 4.29941 6.09706 4.29941V4.39981ZM5.87848 4.48532C5.87548 4.49236 5.87395 4.49958 5.87395 4.5069H5.97435C5.97435 4.50746 5.97434 4.50909 5.97416 4.51115C5.97399 4.51309 5.9737 4.51494 5.97334 4.51668C5.97262 4.52011 5.97164 4.52282 5.97084 4.52469L5.87848 4.48532ZM5.89148 4.46522C5.88583 4.47163 5.88145 4.47836 5.87848 4.48532L5.97084 4.52469C5.96899 4.52904 5.96711 4.53126 5.96681 4.53159L5.89148 4.46522ZM5.9393 4.43118C5.91911 4.44087 5.90277 4.45241 5.89148 4.46522L5.96681 4.53159C5.96667 4.53175 5.97069 4.52747 5.98274 4.52169L5.9393 4.43118ZM6.09706 4.39981C6.03545 4.39981 5.97967 4.4118 5.9393 4.43118L5.98274 4.52169C6.00681 4.51014 6.04711 4.50021 6.09706 4.50021V4.39981ZM6.25482 4.43118C6.21445 4.4118 6.15867 4.39981 6.09706 4.39981V4.50021C6.14701 4.50021 6.18731 4.51014 6.21138 4.52169L6.25482 4.43118ZM6.30264 4.46522C6.29135 4.45241 6.27502 4.44087 6.25482 4.43118L6.21138 4.52169C6.22343 4.52747 6.22745 4.53175 6.22731 4.53159L6.30264 4.46522ZM6.31564 4.48532C6.31267 4.47836 6.30829 4.47163 6.30264 4.46522L6.22731 4.53159C6.22701 4.53126 6.22513 4.52904 6.22328 4.52469L6.31564 4.48532ZM6.32017 4.5069C6.32017 4.49958 6.31864 4.49236 6.31564 4.48532L6.22328 4.52469C6.22248 4.52282 6.2215 4.52011 6.22078 4.51668C6.22042 4.51494 6.22013 4.51309 6.21996 4.51115C6.21978 4.50909 6.21977 4.50746 6.21977 4.5069H6.32017ZM6.31564 4.52849C6.31864 4.52144 6.32017 4.51422 6.32017 4.5069H6.21977C6.21977 4.50635 6.21978 4.50472 6.21996 4.50265C6.22013 4.50072 6.22042 4.49887 6.22078 4.49712C6.2215 4.4937 6.22248 4.49099 6.22328 4.48911L6.31564 4.52849ZM6.30264 4.54859C6.30829 4.54217 6.31267 4.53545 6.31564 4.52849L6.22328 4.48911C6.22513 4.48477 6.22701 4.48255 6.22731 4.48221L6.30264 4.54859ZM6.25482 4.58263C6.27502 4.57294 6.29135 4.5614 6.30264 4.54859L6.22731 4.48221C6.22745 4.48205 6.22343 4.48633 6.21138 4.49212L6.25482 4.58263ZM6.09706 4.614C6.15867 4.614 6.21445 4.60201 6.25482 4.58263L6.21138 4.49212C6.18731 4.50367 6.14701 4.5136 6.09706 4.5136V4.614ZM5.9393 4.58263C5.97967 4.60201 6.03545 4.614 6.09706 4.614V4.5136C6.04711 4.5136 6.00681 4.50367 5.98274 4.49212L5.9393 4.58263ZM5.89148 4.54859C5.90277 4.5614 5.91911 4.57294 5.9393 4.58263L5.98274 4.49212C5.97069 4.48633 5.96667 4.48205 5.96681 4.48221L5.89148 4.54859ZM5.87848 4.52849C5.88145 4.53545 5.88583 4.54217 5.89148 4.54859L5.96681 4.48221C5.96711 4.48255 5.96899 4.48477 5.97084 4.48911L5.87848 4.52849ZM5.87395 4.5069C5.87395 4.51422 5.87548 4.52144 5.87848 4.52849L5.97084 4.48911C5.97164 4.49099 5.97262 4.4937 5.97334 4.49712C5.9737 4.49887 5.97399 4.50072 5.97416 4.50265C5.97434 4.50472 5.97435 4.50635 5.97435 4.5069H5.87395Z" fill="#984111"/>
</g>
</g>
<defs>
<clipPath id="clip0_58_399">
<rect width="21.4187" height="16.064" fill="white" transform="translate(0.674805 0.0986328)"/>
</clipPath>
</defs>
</svg>
