<svg width="22" height="17" viewBox="0 0 22 17" fill="none" xmlns="http://www.w3.org/2000/svg">
<g clip-path="url(#clip0_58_377)">
<rect width="21.4187" height="16.064" transform="translate(0.512329 0.0986328)" fill="white"/>
<path fill-rule="evenodd" clip-rule="evenodd" d="M0.802856 10.776H22.2216V16.1307H0.802856V10.776Z" fill="#14DC5A"/>
<path fill-rule="evenodd" clip-rule="evenodd" d="M0.802856 0.0666504H22.2216V6.76H0.802856V0.0666504Z" fill="#0099B5"/>
<path d="M-0.535767 6.42534H-0.870434V6.76001V10.776V11.1107H-0.535767H23.5603H23.895V10.776V6.76001V6.42534H23.5603H-0.535767Z" fill="#F7FCFF" stroke="#C51918" stroke-width="0.669335"/>
<path fill-rule="evenodd" clip-rule="evenodd" d="M10.5359 2.079L10.0854 2.32931L10.2141 1.82058L9.78258 1.44675H10.3462L10.5353 0.965332L10.7569 1.44675H11.2374L10.8599 1.82058L11.0414 2.32931L10.5359 2.079ZM8.12083 3.61234L8.57132 3.36203L9.07678 3.61234L8.89526 3.10361L9.27279 2.72978H8.7923L8.57064 2.24836L8.3816 2.72978H7.81796L8.24949 3.10361L8.12083 3.61234ZM6.44386 4.72603L5.99337 4.97634L6.12203 4.46761L5.6905 4.09377H6.25414L6.44318 3.61236L6.66484 4.09377H7.14533L6.7678 4.46761L6.94933 4.97634L6.44386 4.72603ZM8.57132 4.72603L8.12083 4.97634L8.24949 4.46761L7.81796 4.09377H8.3816L8.57064 3.61236L8.7923 4.09377H9.27279L8.89526 4.46761L9.07678 4.97634L8.57132 4.72603ZM10.5659 4.72603L10.1154 4.97634L10.2441 4.46761L9.81256 4.09377H10.3762L10.5652 3.61236L10.7869 4.09377H11.2674L10.8899 4.46761L11.0714 4.97634L10.5659 4.72603ZM10.1154 3.61234L10.5659 3.36203L11.0714 3.61234L10.8899 3.10361L11.2674 2.72978H10.7869L10.5652 2.24836L10.3762 2.72978H9.81256L10.2441 3.10361L10.1154 3.61234ZM12.123 4.97634L12.5735 4.72603L13.079 4.97634L12.8975 4.46761L13.275 4.09377H12.7945L12.5728 3.61236L12.3838 4.09377H11.8202L12.2517 4.46761L12.123 4.97634ZM12.5735 3.36203L12.123 3.61234L12.2517 3.10361L11.8202 2.72978H12.3838L12.5728 2.24836L12.7945 2.72978H13.275L12.8975 3.10361L13.079 3.61234L12.5735 3.36203ZM12.093 2.32931L12.5435 2.079L13.0489 2.32931L12.8674 1.82058L13.2449 1.44675H12.7644L12.5428 0.965332L12.3537 1.44675H11.7901L12.2216 1.82058L12.093 2.32931ZM14.6017 4.72603L14.1512 4.97634L14.2799 4.46761L13.8483 4.09377H14.412L14.601 3.61236L14.8227 4.09377H15.3032L14.9256 4.46761L15.1072 4.97634L14.6017 4.72603ZM14.1512 3.61234L14.6017 3.36203L15.1072 3.61234L14.9256 3.10361L15.3032 2.72978H14.8227L14.601 2.24836L14.412 2.72978H13.8483L14.2799 3.10361L14.1512 3.61234ZM14.5717 2.079L14.1212 2.32931L14.2499 1.82058L13.8184 1.44675H14.382L14.571 0.965332L14.7927 1.44675H15.2732L14.8957 1.82058L15.0772 2.32931L14.5717 2.079ZM4.74191 5.58246C4.74191 5.58246 3.12489 5.14389 3.15534 3.52177C3.18579 1.89965 4.81894 1.4785 4.81894 1.4785C4.15163 1.2258 2.17851 1.56488 2.14209 3.50533C2.10566 5.44577 4.12011 5.82804 4.74191 5.58246Z" fill="#F7FCFF"/>
</g>
<defs>
<clipPath id="clip0_58_377">
<rect width="21.4187" height="16.064" fill="white" transform="translate(0.512329 0.0986328)"/>
</clipPath>
</defs>
</svg>
