<svg width="22" height="17" viewBox="0 0 22 17" fill="none" xmlns="http://www.w3.org/2000/svg">
<g clip-path="url(#clip0_58_294)">
<rect width="21.4187" height="16.064" transform="translate(0.349609 0.0986328)" fill="white"/>
<path fill-rule="evenodd" clip-rule="evenodd" d="M0.640259 0.0666504H22.059V16.1307H0.640259V0.0666504Z" fill="#F7FCFF"/>
<path fill-rule="evenodd" clip-rule="evenodd" d="M0.640259 0.0666504H10.0109V16.1307H0.640259V0.0666504Z" fill="#FFDC17"/>
<path d="M15.8887 8.60132L15.6577 8.61637C15.7129 9.41005 15.8834 10.0231 16.1728 10.4558C16.6394 11.1535 17.2552 11.693 17.6673 11.693C17.7609 11.693 17.7827 11.7278 17.7518 11.8136C17.7079 11.9356 17.5691 12.0556 17.3905 12.1017C17.0935 12.1783 16.4179 12.2179 15.3753 12.2179V12.4421C16.4388 12.4421 17.1266 12.4017 17.4501 12.3183C17.7014 12.2535 17.9008 12.0811 17.9705 11.8873C18.0511 11.6632 17.9295 11.4689 17.6673 11.4689C17.3613 11.4689 16.7935 10.9715 16.3671 10.334C16.1021 9.93775 15.9415 9.36015 15.8887 8.60132Z" fill="#AF0100"/>
<path d="M14.7946 8.60132L15.0256 8.61637C14.9705 9.41005 14.8 10.0231 14.5106 10.4558C14.0439 11.1535 13.4281 11.693 13.016 11.693C12.9224 11.693 12.9007 11.7278 12.9315 11.8136C12.9754 11.9356 13.1142 12.0556 13.2928 12.1017C13.5899 12.1783 14.2654 12.2179 15.308 12.2179V12.4421C14.2446 12.4421 13.5568 12.4017 13.2332 12.3183C12.9819 12.2535 12.7826 12.0811 12.7128 11.8873C12.6322 11.6632 12.7539 11.4689 13.016 11.4689C13.3221 11.4689 13.8899 10.9715 14.3162 10.334C14.5812 9.93775 14.7419 9.36015 14.7946 8.60132Z" fill="#AF0100"/>
<path fill-rule="evenodd" clip-rule="evenodd" d="M19.4263 4.61682L13.3077 9.38645C13.0935 9.31662 12.8595 9.27841 12.6158 9.27841C11.6231 9.27841 10.7924 9.9125 10.7924 10.7354C10.7924 11.5583 11.6231 12.1924 12.6158 12.1924C12.7297 12.1924 12.8414 12.184 12.95 12.168C12.8496 12.0896 12.7746 11.9916 12.7371 11.8873C12.6919 11.7619 12.7102 11.6457 12.7811 11.5678C12.7272 11.5731 12.6721 11.5759 12.6159 11.5759C11.9461 11.5759 11.4292 11.1814 11.4292 10.7354C11.4292 10.2894 11.9461 9.8948 12.6159 9.8948C13.2857 9.8948 13.8026 10.2894 13.8026 10.7354C13.8026 10.8719 13.7541 11.0037 13.6676 11.1208C13.684 11.1062 13.7004 11.0913 13.7168 11.0759C13.9289 10.8785 13.4523 11.6931 13.0403 11.6931C12.9467 11.6931 12.9249 11.7278 12.9558 11.8136C12.9969 11.9279 13.1212 12.0404 13.2835 12.0921C13.9547 11.8822 14.4393 11.3639 14.4393 10.7354C14.4393 10.4784 14.3583 10.2397 14.2165 10.0331L17.5049 7.24228L17.725 7.46965L17.8834 7.32596L18.4327 7.73305L18.203 7.91013L18.6718 8.47998L19.6177 7.75082L19.6336 7.74255L19.6309 7.74064L19.6895 7.69546L19.2207 7.1256L18.994 7.30033L18.3798 6.8757L18.4518 6.81041L18.2542 6.60629L18.5514 6.35409L18.7091 6.51704L18.8784 6.36346L19.4109 6.78495L19.1871 6.95752L19.6559 7.52737L20.4661 6.90281L20.5589 6.85196L20.5454 6.84162L20.6735 6.74285L20.2047 6.17299L19.94 6.37711L19.3567 5.92965L19.4359 5.8578L19.3007 5.71811L19.9061 5.2043L19.4263 4.61682Z" fill="#F4B300"/>
<path fill-rule="evenodd" clip-rule="evenodd" d="M11.1397 9.92292C11.3155 9.92292 11.4581 9.81002 11.4581 9.67075C11.4581 9.53148 11.3155 9.41858 11.1397 9.41858C10.9638 9.41858 10.8213 9.53148 10.8213 9.67075C10.8213 9.81002 10.9638 9.92292 11.1397 9.92292ZM11.2554 12.2205C11.4313 12.2205 11.5738 12.1076 11.5738 11.9683C11.5738 11.8291 11.4313 11.7162 11.2554 11.7162C11.0796 11.7162 10.937 11.8291 10.937 11.9683C10.937 12.1076 11.0796 12.2205 11.2554 12.2205ZM14.4103 11.9683C14.4103 12.1076 14.2678 12.2205 14.0919 12.2205C13.9161 12.2205 13.7735 12.1076 13.7735 11.9683C13.7735 11.8291 13.9161 11.7162 14.0919 11.7162C14.2678 11.7162 14.4103 11.8291 14.4103 11.9683Z" fill="#BFBFBF"/>
<path fill-rule="evenodd" clip-rule="evenodd" d="M16.2917 10.7353C16.2917 10.3655 16.4596 10.0337 16.7345 9.7806L13.2209 7.05958L13.1808 7.09044L13.2832 7.18335L13.0062 7.4696L12.8603 7.33728L12.3224 7.7515L12.5281 7.91007L12.0593 8.47992L11.1236 7.75853L11.0975 7.7425L11.1003 7.74058L11.0417 7.6954L11.5105 7.12555L11.7371 7.30027L12.3513 6.87564L12.2793 6.81036L12.5449 6.53604L12.2355 6.2965L12.0221 6.51699L11.8591 6.36913L11.3334 6.79505L11.5441 6.95746L11.0752 7.52731L10.2909 6.92262L10.1722 6.85191L10.1857 6.84156L10.0576 6.74279L10.5264 6.17294L10.7912 6.37705L11.3745 5.92956L11.2953 5.85775L11.4554 5.69233L10.8251 5.20424L11.2229 4.7229L17.3015 9.43032C17.5477 9.33274 17.8245 9.27836 18.1152 9.27836C19.1079 9.27836 19.9387 9.91245 19.9387 10.7353C19.9387 11.5582 19.1079 12.1923 18.1152 12.1923C18.0015 12.1923 17.8898 12.184 17.7813 12.168C17.8817 12.0896 17.9566 11.9916 17.9941 11.8874C18.0393 11.7618 18.021 11.6457 17.9501 11.5677C18.0039 11.5731 18.0591 11.5759 18.1153 11.5759C18.7851 11.5759 19.302 11.1813 19.302 10.7353C19.302 10.2893 18.7851 9.89474 18.1153 9.89474C17.4455 9.89474 16.9286 10.2893 16.9286 10.7353C16.9286 10.8719 16.9771 11.0037 17.0636 11.1208C17.0472 11.1062 17.0308 11.0913 17.0144 11.076C16.8023 10.8785 17.2789 11.6931 17.6909 11.6931C17.7845 11.6931 17.8063 11.7278 17.7754 11.8136C17.7343 11.9279 17.61 12.0404 17.4478 12.092C16.7764 11.8822 16.2917 11.3639 16.2917 10.7353Z" fill="#BFBFBF"/>
<path fill-rule="evenodd" clip-rule="evenodd" d="M19.5914 9.92292C19.4156 9.92292 19.273 9.81002 19.273 9.67075C19.273 9.53148 19.4156 9.41858 19.5914 9.41858C19.7672 9.41858 19.9098 9.53148 19.9098 9.67075C19.9098 9.81002 19.7672 9.92292 19.5914 9.92292ZM19.4757 12.2205C19.2998 12.2205 19.1573 12.1076 19.1573 11.9683C19.1573 11.8291 19.2998 11.7162 19.4757 11.7162C19.6515 11.7162 19.7941 11.8291 19.7941 11.9683C19.7941 12.1076 19.6515 12.2205 19.4757 12.2205ZM16.3208 11.9683C16.3208 12.1076 16.4633 12.2205 16.6392 12.2205C16.815 12.2205 16.9576 12.1076 16.9576 11.9683C16.9576 11.8291 16.815 11.7162 16.6392 11.7162C16.4633 11.7162 16.3208 11.8291 16.3208 11.9683Z" fill="#F4B300"/>
<path fill-rule="evenodd" clip-rule="evenodd" d="M15.1918 7.96155C15.1439 7.96155 15.105 8.00042 15.105 8.04838V8.40987H14.7839C14.7375 8.40987 14.6998 8.4475 14.6998 8.49392C14.6998 8.54035 14.7375 8.57798 14.7839 8.57798H15.105V13.3664C15.105 13.4143 15.1439 13.4532 15.1918 13.4532H15.3655C15.4135 13.4532 15.4523 13.4143 15.4523 13.3664V8.57798H15.9472C15.9936 8.57798 16.0313 8.54035 16.0313 8.49392C16.0313 8.4475 15.9936 8.40987 15.9472 8.40987H15.4523V8.04838C15.4523 8.00042 15.4135 7.96155 15.3655 7.96155H15.1918Z" fill="#AF0100"/>
<path fill-rule="evenodd" clip-rule="evenodd" d="M11.8546 5.14927L11.9963 5.24649C12.3265 4.7956 12.6236 4.70504 12.9259 4.94168C13.4477 5.35023 13.4929 6.34701 12.9348 6.68075C12.2693 7.07879 11.932 7.85502 12.2271 8.27748C12.4994 8.66731 13.1559 8.51979 13.804 8.03014C13.9191 7.94322 14.0288 7.85043 14.1319 7.75292L13.9949 7.64722C13.9011 7.73503 13.8015 7.81883 13.6972 7.89761C13.1191 8.33434 12.5636 8.45916 12.3709 8.18331C12.1409 7.85399 12.435 7.17732 13.0261 6.82377C13.6948 6.42385 13.6433 5.28716 13.0351 4.81097C12.6428 4.50383 12.2366 4.62764 11.8546 5.14927ZM14.4034 7.19163L14.5447 7.28962C14.7905 6.95792 14.9584 6.59868 15.0141 6.24487L14.8424 6.21953C14.7911 6.54539 14.6341 6.8803 14.4034 7.19163Z" fill="#979797"/>
<path fill-rule="evenodd" clip-rule="evenodd" d="M18.8927 5.14927L18.751 5.24649C18.4208 4.7956 18.1237 4.70504 17.8214 4.94168C17.2996 5.35023 17.2544 6.34701 17.8125 6.68075C18.478 7.07879 18.8153 7.85502 18.5202 8.27748C18.2479 8.66731 17.5914 8.51979 16.9433 8.03014C16.8282 7.94322 16.7185 7.85043 16.6155 7.75292L16.7524 7.64722C16.8463 7.73503 16.9458 7.81883 17.0501 7.89761C17.6282 8.33434 18.1837 8.45916 18.3764 8.18331C18.6064 7.85399 18.3124 7.17732 17.7212 6.82377C17.0525 6.42385 17.104 5.28716 17.7122 4.81097C18.1045 4.50383 18.5107 4.62764 18.8927 5.14927ZM16.3439 7.19163L16.2027 7.28962C15.9568 6.95792 15.7889 6.59868 15.7332 6.24487L15.9049 6.21953C15.9562 6.54539 16.1132 6.8803 16.3439 7.19163Z" fill="#979797"/>
<path fill-rule="evenodd" clip-rule="evenodd" d="M15.2787 13.4644C15.4706 13.4644 15.6261 13.3866 15.6261 13.2907C15.6261 13.1948 15.4706 13.1171 15.2787 13.1171C15.0869 13.1171 14.9314 13.1948 14.9314 13.2907C14.9314 13.3866 15.0869 13.4644 15.2787 13.4644Z" fill="#AF0100"/>
<path fill-rule="evenodd" clip-rule="evenodd" d="M15.2208 6.23737C15.8922 6.23737 16.4364 6.14666 16.4364 6.03476C16.4364 5.92286 15.8922 5.83215 15.2208 5.83215C14.5494 5.83215 14.0051 5.92286 14.0051 6.03476C14.0051 6.14666 14.5494 6.23737 15.2208 6.23737Z" fill="#AF0100"/>
<path fill-rule="evenodd" clip-rule="evenodd" d="M15.2893 1.43091H15.1156V1.63109H14.9511V1.7992H15.1156V2.28986H15.2893V1.7992H15.4897V1.63109H15.2893V1.43091ZM13.9834 3.85279L13.9059 3.72222C13.9483 3.70441 13.9917 3.68761 14.0359 3.6718L13.8099 3.17631L13.9688 3.10841L14.2014 3.61852C14.2507 3.60431 14.301 3.59123 14.3523 3.57928C14.3166 3.53887 14.2946 3.48358 14.2946 3.4226C14.2946 3.29881 14.3853 3.19845 14.4972 3.19845C14.6091 3.19845 14.6998 3.29881 14.6998 3.4226C14.6998 3.45753 14.6926 3.49059 14.6797 3.52006C14.8173 3.50183 14.9609 3.49053 15.1107 3.48616V3.29616H14.8932V3.16095H15.1107V2.99999H15.3404V3.16095H15.6054V3.29616H15.3404V3.48484C15.511 3.4878 15.6709 3.49967 15.82 3.52052C15.807 3.49093 15.7997 3.45771 15.7997 3.4226C15.7997 3.29881 15.8904 3.19845 16.0023 3.19845C16.1142 3.19845 16.2049 3.29881 16.2049 3.4226C16.2049 3.486 16.1812 3.54325 16.1429 3.58402C16.2077 3.6009 16.2698 3.61992 16.3294 3.64111L16.4957 3.27656L16.6545 3.34446L16.4896 3.70609C16.5027 3.7121 16.5156 3.71822 16.5283 3.72448L16.4408 3.85053L16.4268 3.84376L16.4001 3.90228L16.2413 3.83438L16.2672 3.77747C16.0139 3.68654 15.705 3.63741 15.3404 3.6308V3.69082H15.1107V3.63219C14.6778 3.64538 14.3023 3.71909 13.9834 3.85279ZM13.9059 4.00239L13.9464 4.07068L13.8099 4.129L14.0359 4.62442C13.9917 4.64022 13.9483 4.65702 13.9059 4.67483L13.9834 4.8054C14.3023 4.6717 14.6778 4.59799 15.1107 4.5848V4.64343H15.3404V4.58341C15.705 4.59002 16.0139 4.63915 16.2672 4.73008L16.2413 4.78699L16.4001 4.85489L16.4268 4.79637L16.4408 4.80314L16.5283 4.67708C16.5156 4.67083 16.5027 4.66471 16.4896 4.6587L16.6545 4.29707L16.4957 4.22917L16.3294 4.59372C16.2698 4.57253 16.2077 4.55351 16.1429 4.53663C16.1812 4.49585 16.2049 4.43861 16.2049 4.37521C16.2049 4.25142 16.1142 4.15106 16.0023 4.15106C15.8904 4.15106 15.7997 4.25142 15.7997 4.37521C15.7997 4.41032 15.807 4.44354 15.82 4.47312C15.6709 4.45228 15.511 4.44041 15.3404 4.43745V4.24885H15.6054V4.11364H15.3404V3.9526H15.1107V4.11364H14.8932V4.24885H15.1107V4.43877C14.9609 4.44314 14.8173 4.45443 14.6797 4.47267C14.6926 4.4432 14.6998 4.41014 14.6998 4.37521C14.6998 4.25142 14.6091 4.15106 14.4972 4.15106C14.3853 4.15106 14.2946 4.25142 14.2946 4.37521C14.2946 4.43619 14.3166 4.49148 14.3523 4.53189C14.301 4.54384 14.2507 4.55692 14.2014 4.57113L13.9987 4.12662C14.3492 3.98256 14.7675 3.9102 15.2543 3.9102C15.7467 3.9102 16.142 3.98423 16.4408 4.1307L16.5283 4.00465C16.2002 3.84386 15.7753 3.76427 15.2543 3.76427C14.7348 3.76427 14.285 3.8434 13.9059 4.00239ZM13.9059 4.95499L13.9464 5.02328L13.8099 5.08161L14.0359 5.57703C13.9917 5.59283 13.9483 5.60963 13.9059 5.62743L13.9834 5.75801C14.3023 5.62431 14.6778 5.5506 15.1107 5.53741V5.59604H15.3404V5.53602C15.705 5.54263 16.0139 5.59176 16.2672 5.68269L16.2413 5.7396L16.4001 5.8075L16.4268 5.74898L16.4408 5.75575L16.5283 5.62969C16.5156 5.62344 16.5027 5.61732 16.4896 5.61131L16.6545 5.24968L16.4957 5.18178L16.3294 5.54632C16.2698 5.52514 16.2077 5.50612 16.1429 5.48924C16.1812 5.44846 16.2049 5.39122 16.2049 5.32782C16.2049 5.20403 16.1142 5.10367 16.0023 5.10367C15.8904 5.10367 15.7997 5.20403 15.7997 5.32782C15.7997 5.36293 15.807 5.39615 15.82 5.42573C15.6709 5.40489 15.511 5.39302 15.3404 5.39006V5.20146H15.6054V5.06625H15.3404V4.90521H15.1107V5.06625H14.8932V5.20146H15.1107V5.39138C14.9609 5.39575 14.8173 5.40704 14.6797 5.42528C14.6926 5.39581 14.6998 5.36275 14.6998 5.32782C14.6998 5.20403 14.6091 5.10367 14.4972 5.10367C14.3853 5.10367 14.2946 5.20403 14.2946 5.32782C14.2946 5.3888 14.3166 5.44409 14.3523 5.4845C14.301 5.49645 14.2507 5.50953 14.2014 5.52374L13.9987 5.07923C14.3492 4.93517 14.7675 4.86281 15.2543 4.86281C15.7467 4.86281 16.142 4.93684 16.4408 5.08331L16.5283 4.95725C16.2002 4.79647 15.7753 4.71688 15.2543 4.71688C14.7348 4.71688 14.285 4.79601 13.9059 4.95499ZM13.9059 5.90769L13.9834 6.03826C14.337 5.88999 14.7604 5.8155 15.2543 5.8155C15.7467 5.8155 16.142 5.88953 16.4408 6.036L16.5283 5.90995C16.2002 5.74916 15.7753 5.66957 15.2543 5.66957C14.7348 5.66957 14.285 5.7487 13.9059 5.90769Z" fill="#F4B300"/>
</g>
<defs>
<clipPath id="clip0_58_294">
<rect width="21.4187" height="16.064" fill="white" transform="translate(0.349609 0.0986328)"/>
</clipPath>
</defs>
</svg>
