<svg width="22" height="17" viewBox="0 0 22 17" fill="none" xmlns="http://www.w3.org/2000/svg">
<g clip-path="url(#clip0_58_262)">
<rect width="21.4187" height="16.064" transform="translate(0.0249023 0.0986328)" fill="white"/>
<path fill-rule="evenodd" clip-rule="evenodd" d="M0.315552 0.0666504V16.1307H21.7343V0.0666504H0.315552Z" fill="#2E42A5"/>
<mask id="mask0_58_262" style="mask-type:luminance" maskUnits="userSpaceOnUse" x="0" y="0" width="22" height="17">
<path fill-rule="evenodd" clip-rule="evenodd" d="M0.315552 0.0666504V16.1307H21.7343V0.0666504H0.315552Z" fill="white"/>
</mask>
<g mask="url(#mask0_58_262)">
<path fill-rule="evenodd" clip-rule="evenodd" d="M0.315552 0.0666504V5.42133H21.7343V0.0666504H0.315552Z" fill="#FECA00"/>
<path fill-rule="evenodd" clip-rule="evenodd" d="M0.315552 10.776V16.1307H21.7343V10.776H0.315552Z" fill="#E31D1C"/>
<path fill-rule="evenodd" clip-rule="evenodd" d="M8.84074 8.00463L9.49849 7.63148L10.2365 8.00463L9.97147 7.24625L10.5227 6.68897H9.82115L9.4975 5.97131L9.22149 6.68897H8.39853L9.01736 7.23632H8.32331L7.99966 6.51866L7.72365 7.23632H6.9007L7.53077 7.7936L7.41035 8.2797H6.88521L6.56156 7.56205L6.28555 8.2797H5.46259L6.09266 8.83699L5.97611 9.30748H5.74623L5.42258 8.58983L5.14656 9.30748H4.32361L4.95368 9.86477L4.76582 10.6231L5.42357 10.25L6.16159 10.6231L5.89655 9.86477L6.44777 9.30748H6.41225L6.56255 9.22222L7.30057 9.59536L7.03553 8.83699L7.35142 8.51763L7.34291 8.55197L8.00066 8.17883L8.73868 8.55197L8.47364 7.7936L9.02136 7.23985L9.0286 7.24625L8.84074 8.00463Z" fill="#F7FCFF"/>
<path fill-rule="evenodd" clip-rule="evenodd" d="M13.1821 7.97521L12.5244 7.60206L11.7863 7.97521L12.0514 7.21684L11.5002 6.65955H12.2017L12.5254 5.94189L12.8014 6.65955H13.6243L13.0055 7.2069H13.7028L14.0265 6.48924L14.3025 7.2069H15.1254L14.4954 7.76418L14.6158 8.25028H15.1409L15.4646 7.53263L15.7406 8.25028H16.5635L15.9335 8.80757L16.05 9.27806H16.2799L16.6035 8.56041L16.8796 9.27806H17.7025L17.0724 9.83535L17.2603 10.5937L16.6026 10.2206L15.8645 10.5937L16.1296 9.83535L15.5784 9.27806H15.6139L15.4636 9.1928L14.7255 9.56594L14.9906 8.80757L14.6747 8.48821L14.6832 8.52256L14.0255 8.14941L13.2874 8.52256L13.5525 7.76418L13.0032 7.20889L12.9943 7.21684L13.1821 7.97521Z" fill="#F7FCFF"/>
<path fill-rule="evenodd" clip-rule="evenodd" d="M10.9131 7.11793L10.2553 7.49108L10.4432 6.7327L9.81311 6.17542H10.6361L10.9121 5.45776L11.2357 6.17542H11.9373L11.3861 6.7327L11.6511 7.49108L10.9131 7.11793Z" fill="#F7FCFF"/>
</g>
</g>
<defs>
<clipPath id="clip0_58_262">
<rect width="21.4187" height="16.064" fill="white" transform="translate(0.0249023 0.0986328)"/>
</clipPath>
</defs>
</svg>
