<svg width="23" height="17" viewBox="0 0 23 17" fill="none" xmlns="http://www.w3.org/2000/svg">
<g clip-path="url(#clip0_58_209)">
<rect width="21.4187" height="16.064" transform="translate(0.699463 0.0986328)" fill="white"/>
<path fill-rule="evenodd" clip-rule="evenodd" d="M0.990112 0.0666504V16.1307H22.4088V0.0666504H0.990112Z" fill="#F7FCFF"/>
<mask id="mask0_58_209" style="mask-type:luminance" maskUnits="userSpaceOnUse" x="0" y="0" width="23" height="17">
<path fill-rule="evenodd" clip-rule="evenodd" d="M0.990112 0.0666504V16.1307H22.4088V0.0666504H0.990112Z" fill="white"/>
</mask>
<g mask="url(#mask0_58_209)">
<path fill-rule="evenodd" clip-rule="evenodd" d="M12.772 5.56513C12.934 5.65729 13.0312 5.89326 13.0312 5.89326H10.2949L10.4838 5.56513C10.4838 5.56513 10.2949 5.47938 10.3899 5.47938C10.485 5.47938 10.756 5.09912 10.756 5.09912H10.6429C10.6429 5.09912 10.5848 5.00452 10.756 5.00452C10.9273 5.00452 11.064 4.39245 11.064 4.39245C11.064 4.39245 11.1764 4.10607 10.9014 4.03379C10.6263 3.96152 10.2949 4.2732 10.2949 4.2732C10.2949 4.2732 10.3758 3.77455 10.4838 3.66654C10.534 3.61634 10.6277 3.60836 10.7137 3.60105C10.8127 3.59262 10.9014 3.58507 10.9014 3.5149C10.9014 3.38381 11.2234 3.28162 11.7497 3.28162C12.2761 3.28162 12.4673 3.91029 12.4673 4.03379C12.4673 4.15729 12.6473 4.81371 12.6473 4.81371C12.6473 4.81371 12.4673 4.81371 12.4673 4.89838C12.4673 4.98306 13.0312 5.349 13.0312 5.349C13.0312 5.349 12.6101 5.47296 12.772 5.56513ZM2.84894 3.32601C3.05887 3.23593 5.19224 3.87166 6.79033 4.34788L6.79035 4.34788C7.70933 4.62173 8.45129 4.84283 8.5487 4.84283C8.81548 4.84283 9.31739 5.48881 9.06644 5.7607C8.81548 6.0326 8.73058 6.1915 8.89851 6.1915C9.06644 6.1915 9.91341 5.9717 9.91341 5.9717V8.49626C9.91341 8.49626 9.10168 8.68893 8.89851 8.49626C8.80012 8.40296 8.65006 8.39736 8.52144 8.39256C8.38446 8.38745 8.2718 8.38325 8.2718 8.27497C8.2718 8.06503 7.80407 8.03202 7.80407 8.03202C7.80407 8.03202 7.37124 7.88929 7.37124 7.755C7.37124 7.62071 7.08799 7.24113 7.08799 7.24113C7.08799 7.24113 6.0085 6.62997 5.09067 5.9593C4.90525 5.82381 4.722 5.69616 4.54655 5.57395C3.85354 5.0912 3.28226 4.69324 3.1796 4.23194C2.70024 3.75725 2.51829 3.46789 2.84894 3.32601ZM9.58683 8.6555C9.58683 8.6555 9.22338 8.90593 8.82127 9.57651C8.62346 9.9064 8.60754 10.197 8.59603 10.4071C8.58414 10.6242 8.57695 10.7554 8.37896 10.7554C8.14783 10.7554 7.98015 10.8054 7.84367 10.8461C7.75003 10.874 7.67107 10.8975 7.5964 10.8975C7.41291 10.8975 7.06059 11.5902 7.23675 11.7505C7.41291 11.9108 8.151 12.1663 8.151 11.7505C8.151 11.3347 8.34952 11.0985 8.71025 11.0985C9.07097 11.0985 9.71575 10.8596 9.71575 10.3356C9.71575 9.81151 10.4188 9.84893 10.4188 9.84893L9.58683 8.6555ZM16.7605 4.34788C18.3585 3.87166 20.4919 3.23593 20.7018 3.32601C21.0325 3.46789 20.8505 3.75725 20.3712 4.23194C20.2685 4.69324 19.6972 5.0912 19.0042 5.57395C18.8288 5.69616 18.6455 5.82381 18.4601 5.9593C17.5423 6.62997 16.4628 7.24113 16.4628 7.24113C16.4628 7.24113 16.1795 7.62071 16.1795 7.755C16.1795 7.88929 15.7467 8.03202 15.7467 8.03202C15.7467 8.03202 15.279 8.06503 15.279 8.27497C15.279 8.38325 15.1663 8.38745 15.0293 8.39256C14.9007 8.39736 14.7507 8.40296 14.6523 8.49626C14.4491 8.68893 13.6374 8.49626 13.6374 8.49626V5.9717C13.6374 5.9717 14.4844 6.1915 14.6523 6.1915C14.8202 6.1915 14.7353 6.0326 14.4844 5.7607C14.2334 5.48881 14.7353 4.84283 15.0021 4.84283C15.0995 4.84283 15.8415 4.62173 16.7604 4.34788L16.7605 4.34788ZM13.964 8.6555C13.964 8.6555 14.3274 8.90593 14.7295 9.57651C14.9273 9.9064 14.9432 10.197 14.9548 10.4071C14.9666 10.6242 14.9738 10.7554 15.1718 10.7554C15.4029 10.7554 15.5706 10.8054 15.7071 10.8461C15.8008 10.874 15.8797 10.8975 15.9544 10.8975C16.1379 10.8975 16.4902 11.5902 16.314 11.7505C16.1379 11.9108 15.3998 12.1663 15.3998 11.7505C15.3998 11.3347 15.2013 11.0985 14.8405 11.0985C14.4798 11.0985 13.835 10.8596 13.835 10.3356C13.835 9.81151 13.132 9.84893 13.132 9.84893L13.964 8.6555ZM10.0535 10.4028C10.0535 10.1719 10.4615 9.99781 10.4615 9.99781L11.6895 9.47958C11.6895 9.47958 11.6958 9.59646 11.7052 9.79056C11.7146 9.59646 11.7209 9.47958 11.7209 9.47958L12.9489 9.99781C12.9489 9.99781 13.3569 10.1719 13.3569 10.4028C13.3569 10.5185 13.5304 10.723 13.7036 10.9272C13.876 11.1304 14.048 11.3332 14.048 11.4474C14.048 11.6488 13.5821 12.1017 13.3008 12.3752C13.2624 12.4125 13.2275 12.4465 13.1976 12.476C13.1332 12.5398 13.0636 12.6187 12.9912 12.7008L12.9912 12.7008C12.7843 12.9354 12.5553 13.1951 12.3632 13.1951C12.2281 13.1951 12.1189 13.2891 12.0143 13.3791C11.9181 13.4619 11.8259 13.5414 11.7209 13.5414C11.7154 13.5414 11.7102 13.5388 11.7052 13.5338C11.7002 13.5388 11.695 13.5414 11.6895 13.5414C11.5846 13.5414 11.4923 13.4619 11.3961 13.3791C11.2915 13.2891 11.1823 13.1951 11.0472 13.1951C10.8551 13.1951 10.6261 12.9354 10.4192 12.7008C10.3469 12.6188 10.2772 12.5398 10.2128 12.476C10.183 12.4466 10.1481 12.4127 10.1098 12.3754L10.1096 12.3752C9.82832 12.1017 9.36241 11.6488 9.36241 11.4474C9.36241 11.3332 9.53444 11.1304 9.70684 10.9272C9.88 10.723 10.0535 10.5185 10.0535 10.4028Z" fill="#E8AA00"/>
<path fill-rule="evenodd" clip-rule="evenodd" d="M5.68224 7.21055C5.709 7.52023 5.79705 7.70283 5.79705 7.70283C5.79705 7.70283 5.95197 7.94652 6.03987 7.94945C6.08501 8.06162 6.1342 8.17663 6.18678 8.29376C6.42798 8.93637 6.75664 9.78074 7.09324 10.5498C7.07164 10.5334 7.04042 10.5155 6.99778 10.4955C6.71621 10.3639 6.51405 10.3488 6.51405 10.3488C6.51405 10.3488 6.13663 10.3649 6.17559 10.472C6.21456 10.5791 6.6825 10.8116 6.87249 10.7425C6.89363 10.7348 6.9151 10.7274 6.93618 10.7201L6.93628 10.7201L6.9363 10.7201L6.9363 10.7201C7.02367 10.6899 7.1043 10.6621 7.12668 10.6259C7.17142 10.7273 7.21625 10.8272 7.26099 10.925C6.98012 10.7939 6.77861 10.7789 6.77861 10.7789C6.77861 10.7789 6.40119 10.795 6.44016 10.9021C6.47913 11.0092 6.94706 11.2417 7.13706 11.1726C7.15823 11.1649 7.17975 11.1574 7.20086 11.1502C7.25348 11.132 7.30366 11.1147 7.34014 11.0959C7.6793 11.819 8.00674 12.3963 8.24045 12.5421H8.71202C8.71202 12.5421 8.30446 11.966 7.7908 11.1596C7.94556 11.0498 8.16118 10.8072 8.16118 10.6546C8.16118 10.6321 8.16157 10.6093 8.16194 10.587L8.16194 10.587C8.16494 10.4089 8.16749 10.2573 7.97199 10.4524C7.75196 10.672 7.66868 10.8568 7.66868 10.8568C7.66868 10.8568 7.65866 10.8885 7.64754 10.933C7.60626 10.8672 7.56451 10.8002 7.52242 10.7322C7.67742 10.6237 7.89662 10.3784 7.89662 10.2245C7.89662 10.202 7.897 10.1792 7.89738 10.1569L7.89738 10.1569C7.90038 9.97884 7.90293 9.82724 7.70743 10.0223C7.4874 10.2419 7.40412 10.4267 7.40412 10.4267C7.40412 10.4267 7.39389 10.459 7.38263 10.5043C7.32321 10.4066 7.26346 10.3073 7.20374 10.2067C7.35518 10.1268 7.63206 9.83832 7.63206 9.6654C7.63206 9.64288 7.63244 9.62013 7.63281 9.5978L7.63282 9.59778C7.63581 9.41972 7.63837 9.26812 7.44286 9.46321C7.22284 9.68278 7.13955 9.86759 7.13955 9.86759C7.13955 9.86759 7.11464 9.94635 7.09976 10.0302C7.02162 9.8965 6.94392 9.76112 6.86755 9.62506C6.86989 9.62541 6.87234 9.6256 6.87491 9.6256C6.98884 9.6256 7.36741 9.26542 7.36741 9.06323C7.36741 9.0407 7.36779 9.01796 7.36817 8.99563L7.36817 8.99561C7.37117 8.81755 7.37372 8.66595 7.17822 8.86104C6.95819 9.0806 6.87491 9.26542 6.87491 9.26542C6.87491 9.26542 6.81887 9.44256 6.82469 9.54839C6.71938 9.35915 6.61692 9.16896 6.51964 8.98047L6.52218 8.98053C6.63612 8.98053 7.01469 8.62035 7.01469 8.41816C7.01469 8.39563 7.01507 8.37287 7.01545 8.35054C7.01844 8.17248 7.021 8.02088 6.82549 8.21597C6.60547 8.43553 6.52218 8.62035 6.52218 8.62035C6.52218 8.62035 6.47173 8.77986 6.47155 8.88658C6.36929 8.68542 6.27342 8.48672 6.18678 8.29376C6.14024 8.16975 6.09695 8.05326 6.05749 7.94626C6.06311 7.94381 6.0683 7.9399 6.07296 7.93435C6.1462 7.84707 6.11362 7.32555 5.95874 7.19559C5.94147 7.1811 5.92429 7.16618 5.90742 7.15154C5.77295 7.03479 5.65846 6.93539 5.68224 7.21055ZM6.20576 8.00279C6.20576 8.00279 6.2208 7.80063 6.35247 7.51906C6.46945 7.26886 6.51891 7.4122 6.57699 7.58054L6.57699 7.58054L6.57699 7.58054L6.57699 7.58054L6.57699 7.58054L6.57699 7.58055L6.577 7.58057C6.58428 7.60168 6.5917 7.62318 6.5994 7.64434C6.66856 7.83434 6.43601 8.30227 6.32894 8.34124C6.22188 8.38021 6.20576 8.00279 6.20576 8.00279ZM6.73322 9.93642C6.45164 9.80475 6.24949 9.78971 6.24949 9.78971C6.24949 9.78971 5.87206 9.80583 5.91103 9.91289C5.95 10.02 6.41793 10.2525 6.60793 10.1834C6.62906 10.1757 6.65053 10.1683 6.67161 10.161L6.67172 10.1609L6.67173 10.1609C6.84008 10.1029 6.98341 10.0534 6.73322 9.93642ZM5.98484 9.18753C5.98484 9.18753 6.187 9.20258 6.46857 9.33424C6.71876 9.45123 6.57543 9.50068 6.40709 9.55877L6.40707 9.55877C6.38596 9.56606 6.36445 9.57348 6.34328 9.58118C6.15329 9.65033 5.68535 9.41779 5.64639 9.31072C5.60742 9.20366 5.98484 9.18753 5.98484 9.18753ZM6.24813 8.73215C5.96655 8.60049 5.7644 8.58544 5.7644 8.58544C5.7644 8.58544 5.38697 8.60157 5.42594 8.70863C5.46491 8.81569 5.93284 9.04824 6.12284 8.97909C6.14402 8.97138 6.16553 8.96396 6.18664 8.95668L6.18665 8.95667C6.35499 8.89859 6.49832 8.84914 6.24813 8.73215ZM5.65864 7.86094C5.65864 7.86094 5.84346 7.94422 6.06302 8.16425C6.25811 8.35975 6.10651 8.3572 5.92845 8.3542C5.90612 8.35382 5.88337 8.35344 5.86083 8.35344C5.65864 8.35344 5.29846 7.97487 5.29846 7.86094C5.29846 7.747 5.65864 7.86094 5.65864 7.86094Z" fill="#46A000"/>
<path fill-rule="evenodd" clip-rule="evenodd" d="M20.1944 6.98669H18.7639C18.7639 6.98669 19.0671 6.98669 19.1005 7.27968C19.1005 7.27968 19.1074 9.75214 19.1005 9.9464C19.0935 10.1407 18.7639 10.2068 18.7639 10.2068C18.7639 10.2068 20.4993 10.212 20.1944 10.2068C19.8895 10.2015 19.8223 9.9464 19.8223 9.9464V7.27968C19.8223 7.05392 20.1944 6.98669 20.1944 6.98669ZM4.04587 10.0085C3.88394 9.59045 2.88416 7.03057 2.88416 7.03057H3.87393C3.70198 7.03057 3.63814 7.24944 3.63814 7.24944L4.33142 9.22616C4.33142 9.22616 5.00183 7.61229 5.00183 7.3261C5.00183 7.03991 4.72041 7.03057 4.72041 7.03057H6.01079L5.69905 7.13468C5.69905 7.13468 4.66654 9.50177 4.66654 10.0085C4.61734 10.1208 5.14191 10.1956 5.14191 10.1956H3.75626L4.04587 10.0085ZM15.8939 9.07371L16.6608 7.66082L16.6833 9.23284L16.4458 9.15576L16.2773 10.2055L17.1254 8.57926L16.843 8.47317L17.8927 7.33689L17.5352 8.87267L17.3319 8.69355L16.1293 10.9373L17.4716 9.39941L17.2128 9.2702L18.5383 8.40236L17.9612 9.81658L17.6393 9.58481L16.2773 11.2995L15.7124 11.0822L16.2773 9.07371H15.8939ZM15.4511 11.7533H15.0271V12.0758H14.6934L13.7479 13.1725H14.2697L14.451 13.7899L14.6934 13.572V13.7899L15.1673 13.572L15.6203 13.9643L15.9584 12.4563L15.7308 12.2893L15.8477 12.1871L15.7308 11.7533H15.4511Z" fill="#0093E1"/>
<path fill-rule="evenodd" clip-rule="evenodd" d="M9.25203 5.42993C9.25203 5.42993 9.8749 5.86003 10.4978 5.86003C11.1207 5.86003 11.7435 5.42993 11.7435 5.42993C11.7435 5.42993 12.3664 5.86003 12.9893 5.86003C13.6122 5.86003 14.235 5.42993 14.235 5.42993V7.37159C14.235 9.3792 11.7435 10.9351 11.7435 10.9351C11.7435 10.9351 9.13139 9.5065 9.25203 7.34775V5.42993Z" fill="#F7FCFF"/>
<mask id="mask1_58_209" style="mask-type:luminance" maskUnits="userSpaceOnUse" x="9" y="5" width="6" height="6">
<path fill-rule="evenodd" clip-rule="evenodd" d="M9.25203 5.42993C9.25203 5.42993 9.8749 5.86003 10.4978 5.86003C11.1207 5.86003 11.7435 5.42993 11.7435 5.42993C11.7435 5.42993 12.3664 5.86003 12.9893 5.86003C13.6122 5.86003 14.235 5.42993 14.235 5.42993V7.37159C14.235 9.3792 11.7435 10.9351 11.7435 10.9351C11.7435 10.9351 9.13139 9.5065 9.25203 7.34775V5.42993Z" fill="white"/>
</mask>
<g mask="url(#mask1_58_209)">
<path fill-rule="evenodd" clip-rule="evenodd" d="M9.07556 5.3009H14.3231V7.32235H9.07556V5.3009Z" fill="#2E42A5"/>
<path fill-rule="evenodd" clip-rule="evenodd" d="M10.8396 7.32227H10.3986V11.4082H10.8396V7.32227ZM10.0899 7.32228H9.64893V11.4082H10.0899V7.32228ZM11.1483 7.32227H11.5892V11.4082H11.1483V7.32227ZM12.3389 7.32227H11.8979V11.4082H12.3389V7.32227ZM12.6476 7.32227H13.0885V11.4082H12.6476V7.32227ZM13.8382 7.32227H13.3972V11.4082H13.8382V7.32227Z" fill="#AF0100"/>
</g>
</g>
</g>
<defs>
<clipPath id="clip0_58_209">
<rect width="21.4187" height="16.064" fill="white" transform="translate(0.699463 0.0986328)"/>
</clipPath>
</defs>
</svg>
