<svg width="22" height="17" viewBox="0 0 22 17" fill="none" xmlns="http://www.w3.org/2000/svg">
<g clip-path="url(#clip0_58_170)">
<rect width="21.4187" height="16.064" transform="translate(0 0.935913)" fill="white"/>
<path fill-rule="evenodd" clip-rule="evenodd" d="M0.290649 0.903931H21.7094V16.968H0.290649V0.903931Z" fill="#F7FCFF"/>
<path fill-rule="evenodd" clip-rule="evenodd" d="M0.290649 0.903931V6.25861H21.7094V0.903931H0.290649Z" fill="#C51918"/>
<path fill-rule="evenodd" clip-rule="evenodd" d="M0.290649 11.6133V16.968H21.7094V11.6133H0.290649Z" fill="#5EAA22"/>
<path fill-rule="evenodd" clip-rule="evenodd" d="M0.290649 -0.434692L11.4482 8.936L0.290649 18.3067V-0.434692Z" fill="#272727"/>
<mask id="path-5-outside-1_58_170" maskUnits="userSpaceOnUse" x="-1.70935" y="-4.34167" width="25" height="26" fill="black">
<rect fill="white" x="-1.70935" y="-4.34167" width="25" height="26"/>
<path fill-rule="evenodd" clip-rule="evenodd" d="M0.290649 -1.34167L11.9427 7.59728H21.7094V10.2746H11.7827L0.290649 18.8498L0.290649 15.857L9.66134 8.9359L0.290649 1.93098L0.290649 -1.34167Z"/>
</mask>
<path fill-rule="evenodd" clip-rule="evenodd" d="M0.290649 -1.34167L11.9427 7.59728H21.7094V10.2746H11.7827L0.290649 18.8498L0.290649 15.857L9.66134 8.9359L0.290649 1.93098L0.290649 -1.34167Z" fill="#FFD018"/>
<path d="M11.9427 7.59728L11.1278 8.65941L11.4883 8.93595H11.9427V7.59728ZM0.290649 -1.34167L1.10547 -2.4038L-1.04802 -4.05587L-1.04802 -1.34167L0.290649 -1.34167ZM21.7094 7.59728H23.048V6.25861H21.7094V7.59728ZM21.7094 10.2746V11.6133H23.048V10.2746H21.7094ZM11.7827 10.2746V8.93595H11.3383L10.9821 9.20172L11.7827 10.2746ZM0.290649 18.8498L-1.04802 18.8498L-1.04802 21.519L1.09123 19.9227L0.290649 18.8498ZM0.290649 15.857L-0.504664 14.7801L-1.04802 15.1815L-1.04802 15.857L0.290649 15.857ZM9.66134 8.9359L10.4567 10.0127L11.9058 8.94237L10.4629 7.8637L9.66134 8.9359ZM0.290649 1.93098L-1.04802 1.93098L-1.04802 2.60163L-0.51086 3.00318L0.290649 1.93098ZM12.7575 6.53516L1.10547 -2.4038L-0.52417 -0.279551L11.1278 8.65941L12.7575 6.53516ZM21.7094 6.25861H11.9427V8.93595H21.7094V6.25861ZM23.048 10.2746V7.59728H20.3707V10.2746H23.048ZM11.7827 11.6133H21.7094V8.93595H11.7827V11.6133ZM1.09123 19.9227L12.5833 11.3475L10.9821 9.20172L-0.50993 17.7769L1.09123 19.9227ZM-1.04802 15.857L-1.04802 18.8498L1.62932 18.8498L1.62932 15.857L-1.04802 15.857ZM8.86603 7.85909L-0.504664 14.7801L1.08596 16.9338L10.4567 10.0127L8.86603 7.85909ZM-0.51086 3.00318L8.85983 10.0081L10.4629 7.8637L1.09216 0.858772L-0.51086 3.00318ZM-1.04802 -1.34167L-1.04802 1.93098L1.62932 1.93098L1.62932 -1.34167L-1.04802 -1.34167Z" fill="#272727" mask="url(#path-5-outside-1_58_170)"/>
<path d="M3.55274 12.1275L3.55408 11.0697C4.49672 10.8617 5.12117 10.5912 5.42513 10.2659C6.17361 9.34347 5.67605 7.18227 4.13834 7.1964C3.37651 7.1964 2.58871 7.55943 2.58871 8.41386C2.58871 9.47506 2.80709 9.92869 3.55408 9.92869C4.2964 9.92869 4.56856 9.96837 5.05754 9.30191L5.58818 9.46587C5.06419 10.18 4.35788 10.7442 3.55274 10.7442C2.22642 10.7442 1.50464 9.74418 1.50464 8.58762C1.50464 7.15986 2.66371 6.15991 4.06125 6.15991C5.10401 6.15991 6.75335 7.43714 6.75335 8.58762C6.75335 9.73811 6.75335 10.2659 5.84897 11.0697C5.48469 11.3934 4.58213 11.9716 3.55274 12.1275Z" fill="#FFD018"/>
<path fill-rule="evenodd" clip-rule="evenodd" d="M3.63149 7.51686C3.58043 7.50338 3.52811 7.53384 3.51463 7.5849L3.47807 7.72337C3.47623 7.72099 3.47439 7.71861 3.47255 7.71622C3.44027 7.67443 3.38022 7.66671 3.33842 7.69899C3.29663 7.73127 3.28891 7.79132 3.32119 7.83311C3.34335 7.8618 3.36521 7.89015 3.38677 7.91817L3.2766 8.0199C3.2378 8.05573 3.23539 8.11622 3.27122 8.15502C3.30705 8.19382 3.36754 8.19623 3.40634 8.1604L3.50369 8.07051C3.56182 8.14649 3.61752 8.21968 3.67075 8.28997L3.48745 8.38837C3.44092 8.41335 3.42345 8.47132 3.44843 8.51785C3.47341 8.56438 3.53138 8.58184 3.57791 8.55687L3.78725 8.44448C3.83748 8.51138 3.8851 8.57523 3.93006 8.63591L3.67872 8.77084C3.6322 8.79582 3.61473 8.85378 3.63971 8.90031C3.66469 8.94684 3.72265 8.96431 3.76918 8.93933L4.04459 8.79147C4.11785 8.89169 4.18207 8.98106 4.2369 9.05897L4.06119 9.1533C4.01466 9.17828 3.99719 9.23625 4.02217 9.28278C4.04715 9.32931 4.10512 9.34678 4.15165 9.3218L4.34613 9.21739C4.42704 9.33796 4.46894 9.41029 4.46894 9.42933C4.46894 9.48213 4.51175 9.52494 4.56455 9.52494C4.61736 9.52494 4.66017 9.48213 4.66017 9.42933C4.66017 9.38093 4.60983 9.27913 4.50462 9.11599C4.50615 9.11334 4.50756 9.1106 4.50883 9.10779L4.65033 8.79625C4.67216 8.74817 4.65089 8.69149 4.60281 8.66965C4.55472 8.64781 4.49804 8.66909 4.47621 8.71717L4.37952 8.93005C4.31913 8.84314 4.24865 8.74475 4.16771 8.63429L4.26786 8.41379C4.2897 8.3657 4.26842 8.30902 4.22034 8.28718C4.17226 8.26535 4.11558 8.28662 4.09374 8.3347L4.03759 8.45834C4.00665 8.41685 3.9745 8.37394 3.94112 8.3296L4.07659 8.03132C4.09843 7.98324 4.07715 7.92656 4.02907 7.90472C3.98099 7.88288 3.9243 7.90416 3.90247 7.95224L3.80987 8.15612C3.75156 8.07941 3.69007 7.99895 3.62535 7.91465L3.69953 7.63373C3.71301 7.58267 3.68255 7.53035 3.63149 7.51686Z" fill="#FFD018"/>
<path fill-rule="evenodd" clip-rule="evenodd" d="M4.27464 7.51686C4.3257 7.50338 4.37802 7.53384 4.3915 7.5849L4.42806 7.72337C4.4299 7.72099 4.43174 7.71861 4.43358 7.71622C4.46586 7.67443 4.52591 7.66671 4.5677 7.69899C4.6095 7.73127 4.61721 7.79132 4.58494 7.83311C4.56278 7.8618 4.54092 7.89015 4.51935 7.91817L4.62953 8.0199C4.66833 8.05573 4.67073 8.11622 4.63491 8.15502C4.59908 8.19382 4.53859 8.19623 4.49979 8.1604L4.40244 8.07051C4.34431 8.14649 4.28861 8.21968 4.23538 8.28997L4.41868 8.38837C4.4652 8.41335 4.48267 8.47132 4.45769 8.51785C4.43272 8.56438 4.37475 8.58184 4.32822 8.55687L4.11888 8.44448C4.06865 8.51138 4.02103 8.57523 3.97606 8.63591L4.2274 8.77084C4.27393 8.79582 4.2914 8.85378 4.26642 8.90031C4.24144 8.94684 4.18347 8.96431 4.13695 8.93933L3.86153 8.79147C3.78828 8.89169 3.72406 8.98106 3.66922 9.05897L3.84494 9.1533C3.89147 9.17828 3.90893 9.23625 3.88396 9.28278C3.85898 9.32931 3.80101 9.34678 3.75448 9.3218L3.56 9.21739C3.47909 9.33796 3.43719 9.41029 3.43719 9.42933C3.43719 9.48213 3.39438 9.52494 3.34157 9.52494C3.28876 9.52494 3.24595 9.48213 3.24595 9.42933C3.24595 9.38093 3.2963 9.27913 3.40151 9.11599C3.39998 9.11334 3.39857 9.1106 3.39729 9.10779L3.2558 8.79625C3.23396 8.74817 3.25524 8.69149 3.30332 8.66965C3.3514 8.64781 3.40808 8.66909 3.42992 8.71717L3.52661 8.93005C3.58699 8.84314 3.65748 8.74475 3.73842 8.63429L3.63827 8.41379C3.61643 8.3657 3.6377 8.30902 3.68579 8.28718C3.73387 8.26535 3.79055 8.28662 3.81239 8.3347L3.86854 8.45834C3.89948 8.41685 3.93163 8.37394 3.96501 8.3296L3.82954 8.03132C3.8077 7.98324 3.82898 7.92656 3.87706 7.90472C3.92514 7.88288 3.98182 7.90416 4.00366 7.95224L4.09626 8.15612C4.15457 8.07941 4.21606 7.99895 4.28078 7.91465L4.2066 7.63373C4.19312 7.58267 4.22358 7.53035 4.27464 7.51686Z" fill="#FFD018"/>
</g>
<defs>
<clipPath id="clip0_58_170">
<rect width="21.4187" height="16.064" fill="white" transform="translate(0 0.935913)"/>
</clipPath>
</defs>
</svg>
