<svg width="22" height="17" viewBox="0 0 22 17" fill="none" xmlns="http://www.w3.org/2000/svg">
<g clip-path="url(#clip0_58_5838)">
<rect width="21.4187" height="16.064" transform="translate(0.349609 0.935913)" fill="white"/>
<rect x="0.349609" y="0.935913" width="21.4187" height="16.064" fill="white"/>
<path d="M7.77282 15.1452C7.32712 15.2799 6.68501 15.556 6.42817 15.711C6.34507 15.7648 6.35262 15.8255 6.48105 16.0545C6.5717 16.2026 6.66235 16.3306 6.67746 16.3306C6.70012 16.3306 6.94941 16.2296 7.22891 16.1016C7.50842 15.9804 7.86555 15.8204 8.02966 15.7918C8.15516 15.7699 8.26977 15.7492 8.34071 15.7229C8.36928 15.7848 8.35172 15.7503 8.40377 15.8474C8.47859 15.9871 8.43201 15.9839 8.56142 16.0221C8.69786 16.0624 9.03437 15.8995 9.03437 15.8995C9.42718 15.7783 9.64626 15.7648 11.0589 15.7648C12.4715 15.7648 12.6906 15.7783 13.0834 15.9063C13.0834 15.9063 13.3995 16.0022 13.4402 16.0138C13.4805 16.0253 13.5018 16.0344 13.5445 16.0253C13.5834 16.0169 13.6239 15.9639 13.6419 15.9318C13.6419 15.9318 13.7287 15.7457 13.751 15.6804C13.8263 15.7127 13.9635 15.7547 14.0957 15.7918C14.2543 15.8389 14.6094 15.9804 14.8889 16.1016C15.1684 16.2296 15.4177 16.3306 15.4403 16.3306C15.4554 16.3306 15.5461 16.2026 15.6367 16.0545C15.818 15.7379 15.8331 15.7648 15.1759 15.4617C14.2996 15.0576 13.4234 14.8758 13.3403 15.0711C13.3252 15.1081 13.3123 15.1298 13.2916 15.1779C13.2038 15.1598 12.9739 15.1115 12.7435 15.0778C12.0334 14.9633 10.0844 14.9633 9.3743 15.0778C9.1439 15.1115 8.98814 15.1677 8.85796 15.1999C8.78426 15.0684 8.79969 15.1207 8.78458 15.0837C8.72415 14.949 8.32427 14.9701 7.77281 15.1452H7.77282Z" fill="#DFDFDF"/>
<path d="M8.41469 6.82143C8.39948 7.04092 8.44514 7.19617 8.56436 7.31395C8.61763 7.37016 8.66329 7.43707 8.66329 7.43707C8.66329 7.43707 8.60241 7.50399 8.55167 7.55485C8.43245 7.67262 8.38425 7.8252 8.38425 7.9858C8.38425 8.15175 8.43245 8.26685 8.56182 8.41675C8.56182 8.41675 8.67102 8.47171 8.66836 8.53987C8.6657 8.60804 8.55167 8.67639 8.55167 8.67639C8.3183 8.94941 8.32591 9.26258 8.56943 9.52223L8.67343 9.63732H11.063H13.4499L13.5666 9.50617C13.7924 9.25188 13.7924 8.97618 13.5692 8.68442C13.5692 8.68442 13.4568 8.6043 13.455 8.5372C13.4532 8.4701 13.5616 8.40336 13.5616 8.40336C13.7949 8.10893 13.7899 7.83858 13.5489 7.55485C13.4398 7.42904 13.4373 7.40495 13.5235 7.34606C13.663 7.24703 13.7493 6.91244 13.6859 6.70901C13.592 6.40386 13.1887 6.20043 12.9426 6.33427C12.897 6.35836 12.8056 6.42528 12.7371 6.48149C12.6687 6.54037 12.6052 6.58588 12.5926 6.58588C12.5824 6.58588 12.5215 6.5377 12.4581 6.47881C12.2121 6.25664 11.9158 6.22988 11.6697 6.48149C11.6697 6.48149 11.6346 6.61609 11.583 6.62068C11.5313 6.62526 11.4587 6.50022 11.4587 6.50022C11.2076 6.25129 10.893 6.262 10.6368 6.52431C10.6368 6.52431 10.6009 6.6339 10.5429 6.62068C10.485 6.60746 10.4374 6.47881 10.4374 6.47881C10.2877 6.33427 10.1929 6.33695 10.0204 6.33427C9.92112 6.33266 9.74122 6.35681 9.63258 6.43804C9.52394 6.51926 9.54312 6.61656 9.51814 6.60997C9.45537 6.59341 9.38624 6.49219 9.38624 6.49219C9.14272 6.2727 8.9474 6.23523 8.71149 6.36639C8.52631 6.46811 8.42991 6.618 8.41469 6.82143Z" fill="#171796"/>
<path d="M8.57225 10.6359C8.57225 10.6359 8.6695 10.6833 8.66614 10.7439C8.66278 10.8046 8.55957 10.8651 8.55957 10.8651C8.5012 10.931 8.43777 11.0259 8.41747 11.0733C8.33627 11.2762 8.39717 11.5476 8.55703 11.703C8.65345 11.8005 8.65599 11.84 8.56464 11.956C8.52404 12.006 8.47583 12.0772 8.45807 12.114C8.26776 12.4882 8.55195 12.9572 8.97317 12.9572C9.14064 12.9572 9.26751 12.9018 9.3817 12.7754C9.47304 12.6752 9.52125 12.6726 9.60245 12.7622C9.72171 12.8992 9.87903 12.9835 10.011 12.9835C10.1658 12.9835 10.2622 12.9335 10.4195 12.778C10.4195 12.778 10.4819 12.6562 10.5388 12.6568C10.5957 12.6575 10.6479 12.7806 10.6479 12.7806C10.8839 13.0441 11.1224 13.052 11.4396 12.8017C11.4396 12.8017 11.5093 12.7003 11.569 12.7016C11.6287 12.7029 11.6806 12.807 11.6806 12.807C11.8202 12.9335 11.9242 12.9835 12.0612 12.9835C12.1983 12.9835 12.2998 12.9282 12.4596 12.7648C12.4596 12.7648 12.5421 12.6409 12.5916 12.6331C12.641 12.6253 12.6931 12.7279 12.6931 12.7279C12.8884 12.9097 12.995 12.9677 13.1371 12.9677C13.2843 12.9677 13.3883 12.9177 13.5355 12.7806C13.6725 12.6515 13.7461 12.5014 13.7283 12.3775C13.7106 12.2431 13.5938 11.9981 13.5076 11.9138C13.5076 11.9138 13.4211 11.9063 13.434 11.84C13.4469 11.7738 13.5482 11.7056 13.5482 11.7056C13.7968 11.4026 13.7994 11.1681 13.5532 10.8678C13.5532 10.8678 13.4504 10.8084 13.4518 10.7413C13.4531 10.6742 13.5583 10.6069 13.5583 10.6069C13.7968 10.3145 13.7943 10.0431 13.5532 9.77697L13.4238 9.63733L11.0488 9.63996L8.67375 9.6426L8.56718 9.76644C8.31851 10.0536 8.32105 10.3461 8.57225 10.6359Z" fill="#D42E12"/>
<path fill-rule="evenodd" clip-rule="evenodd" d="M12.2776 10.0533C12.3926 10.0533 12.4882 10.1316 12.5081 10.2349L12.5118 10.2747V10.6863L13.0042 10.4249C13.1131 10.367 13.2489 10.4074 13.3075 10.5151C13.3595 10.6108 13.333 10.7275 13.2499 10.7929L13.2162 10.8149L12.8035 11.034L13.2162 11.2531L13.2499 11.275C13.333 11.3404 13.3595 11.4571 13.3075 11.5528C13.2489 11.6605 13.1131 11.7009 13.0042 11.6431L12.5118 11.3817V11.84C12.5118 11.9622 12.407 12.0613 12.2776 12.0613C12.1626 12.0613 12.0669 11.983 12.0471 11.8798L12.0433 11.84V11.4375L11.6562 11.6431C11.5472 11.7009 11.4114 11.6605 11.3529 11.5528C11.3008 11.4571 11.3274 11.3404 11.4104 11.275L11.4442 11.2531L11.8569 11.034L11.4442 10.8149L11.4104 10.7929C11.3274 10.7275 11.3008 10.6108 11.3529 10.5151C11.4114 10.4074 11.5472 10.367 11.6562 10.4249L12.0433 10.6304V10.2747C12.0433 10.1524 12.1482 10.0533 12.2776 10.0533Z" fill="#E9D315"/>
<path fill-rule="evenodd" clip-rule="evenodd" d="M10.0024 10.0533C10.1174 10.0533 10.2131 10.1316 10.2329 10.2349L10.2367 10.2747V10.6863L10.729 10.4249C10.838 10.367 10.9738 10.4074 11.0323 10.5151C11.0844 10.6108 11.0578 10.7275 10.9748 10.7929L10.941 10.8149L10.5283 11.034L10.941 11.2531L10.9748 11.275C11.0578 11.3404 11.0844 11.4571 11.0323 11.5528C10.9738 11.6605 10.838 11.7009 10.729 11.6431L10.2367 11.3817V11.84C10.2367 11.9622 10.1318 12.0613 10.0024 12.0613C9.88742 12.0613 9.79177 11.983 9.77193 11.8798L9.76816 11.84V11.4375L9.38103 11.6431C9.27206 11.7009 9.13627 11.6605 9.07773 11.5528C9.0257 11.4571 9.05222 11.3404 9.13529 11.275L9.16905 11.2531L9.58174 11.034L9.16905 10.8149L9.13529 10.7929C9.05222 10.7275 9.0257 10.6108 9.07773 10.5151C9.13627 10.4074 9.27206 10.367 9.38103 10.4249L9.76816 10.6304V10.2747C9.76816 10.1524 9.87304 10.0533 10.0024 10.0533Z" fill="#E9D315"/>
<path d="M7.61383 9.54117H7.71423V9.54118C7.71423 9.54167 7.71424 9.55714 7.71426 9.58576C7.65754 9.58402 7.61519 9.54258 7.61387 9.54129L7.61383 9.54125L7.61383 9.54135L7.61383 9.54174L7.61383 9.54329L7.61384 9.54942L7.61385 9.57343L7.6139 9.66528L7.61412 9.99943L7.61507 11.0699C7.61597 11.8843 7.6174 12.8025 7.61957 13.2203C7.61528 13.3053 7.63919 13.3693 7.68714 13.4227C7.70834 13.4464 7.73265 13.4662 7.75475 13.4833C7.76517 13.4913 7.77437 13.4982 7.78342 13.505C7.79636 13.5147 7.809 13.5242 7.82448 13.5365L7.88685 13.4578L7.82448 13.5365C7.88444 13.584 7.98747 13.6216 8.10592 13.6522C8.22942 13.6841 8.38566 13.7122 8.56509 13.7335C8.92302 13.776 9.37932 13.7919 9.86321 13.7538C10.0678 13.7558 10.2177 13.7956 10.3323 13.851C10.4479 13.9069 10.5327 13.9811 10.6042 14.0585C10.6403 14.0976 10.6726 14.1369 10.7046 14.1761L10.7065 14.1783C10.7371 14.2158 10.7688 14.2545 10.8012 14.2883C10.8673 14.3574 10.9519 14.423 11.0715 14.423C11.1915 14.423 11.2752 14.3569 11.3396 14.2869C11.3716 14.2521 11.4025 14.2123 11.4322 14.174L11.4342 14.1715C11.4641 14.133 11.4939 14.0946 11.5272 14.0563C11.5946 13.979 11.6742 13.9054 11.7832 13.8501C11.8918 13.7951 12.035 13.7554 12.2329 13.7538C12.7808 13.7622 13.2475 13.7489 13.5984 13.716C13.7738 13.6995 13.9225 13.678 14.0389 13.6511C14.1487 13.6257 14.247 13.592 14.3068 13.541L14.3069 13.5409L14.3115 13.5371C14.3154 13.5339 14.3207 13.5294 14.3271 13.5238C14.3398 13.5127 14.3571 13.4969 14.3756 13.4778C14.4097 13.4427 14.4592 13.3852 14.4816 13.3198C14.5024 13.2589 14.5078 13.2037 14.508 13.1634C14.5081 13.1432 14.5069 13.1265 14.5056 13.1142C14.5051 13.11 14.5046 13.1063 14.5042 13.1032V9.54117V5.62122V5.52082H14.4038H11.059H7.71423H7.61383V5.62122V9.54117Z" stroke="black" stroke-width="0.200801"/>
<path d="M10.3017 7.53945C10.1221 7.87397 10.1145 8.02407 10.2638 8.29212C10.3802 8.49798 10.5168 8.62878 10.7041 8.71241C11.1925 8.93328 11.8175 8.77031 12.063 8.35859C12.2148 8.10556 12.1971 7.68312 12.0301 7.49871L11.9845 7.44939L11.9415 7.5952C11.8808 7.80321 11.82 7.90828 11.6986 8.01978C11.4708 8.22779 11.157 8.27496 10.8331 8.1463C10.5826 8.04552 10.4814 7.90613 10.3878 7.518L10.365 7.42151L10.3017 7.53945L10.3017 7.53945Z" fill="white"/>
<path fill-rule="evenodd" clip-rule="evenodd" d="M12.7179 3.27854C12.7179 3.85814 12.3006 4.28254 11.7136 4.28254C11.1267 4.28254 10.7129 3.85814 10.7129 3.27854C10.7129 2.69577 11.1267 2.27454 11.7136 2.27454C12.3006 2.27454 12.7179 2.69577 12.7179 3.27854ZM4.71568 4.2509V2.8985L5.31328 4.2509H5.57495L6.15841 2.8985V4.2509H6.51202V2.30624H6.10183L5.44765 3.80116L4.7864 2.30624H4.3656V4.2509H4.71568ZM7.19453 4.2509L7.4173 3.71248H8.24829L8.47106 4.2509H8.84589L8.01137 2.30624H7.65776L6.82323 4.2509H7.19453ZM7.83098 2.70846L7.53395 3.42741H8.12801L7.83098 2.70846ZM9.88896 4.2509V3.47494L10.6775 2.30624H10.2885L9.71569 3.17722L9.13931 2.30624H8.73973L9.52474 3.47494V4.2509H9.88896ZM11.7136 3.98799C11.3317 3.98799 11.0842 3.69028 11.0842 3.27854C11.0842 2.8668 11.3317 2.56909 11.7136 2.56909C12.0955 2.56909 12.3466 2.8668 12.3466 3.27854C12.3466 3.69028 12.0955 3.98799 11.7136 3.98799ZM13.9131 2.59762V4.2509H13.5453V2.59762H12.824V2.30624H14.6345V2.59762H13.9131ZM15.9357 4.2509V2.59762H16.6571V2.30624H14.8466V2.59762H15.568V4.2509H15.9357ZM18.4216 3.95635V4.2509H17.0036V2.30624H18.4216V2.59762H17.3643V3.11071H18.3226V3.39892H17.3643V3.95635H18.4216Z" fill="#FF2500"/>
<path fill-rule="evenodd" clip-rule="evenodd" d="M18.272 13.5195C18.272 13.5195 18.0444 13.0712 18.62 12.8499C19.1956 12.6287 19.4769 12.9174 19.7304 13.1853C19.9839 13.4532 19.9561 14.262 19.9561 14.262L19.3296 15.2639L17.4079 15.6612L16.6421 15.2639L15.7443 13.5195L15.8114 11.8068C15.8114 11.8068 15.9022 11.1508 15.9022 11.015C15.9022 10.8792 16.3193 9.82661 16.3193 9.82661L16.7143 9.43533L17.8314 8.84107L18.3574 8.57833L19.0105 7.75279L18.9382 7.09559L18.1939 8.04373H17.5634L16.9071 8.31866L16.6421 8.56843L16.3193 8.57833L16.1928 8.31866L16.5453 7.75279L17.0776 7.21686L16.8327 6.76364L17.1952 6.59853L17.1255 6.3487L17.5278 6.59853L17.8314 6.3487L17.8892 6.11893L17.1952 5.74701C17.1952 5.74701 17.8742 5.46209 18.1939 5.49182C18.5135 5.52156 18.8151 5.89769 18.8151 5.89769L19.7304 5.74701C19.7304 5.74701 19.4854 6.3487 19.5646 6.3487C19.6438 6.3487 20.1409 6.3487 20.1409 6.3487L19.9561 7.09559H20.6649L20.1409 7.67098L20.5499 7.89529L19.9275 8.31866L20.5499 8.73742L19.9713 9.11752L20.2973 9.74785L20.8104 9.43533L21.099 9.82661L20.6649 10.7901L19.9561 11.2929L19.2809 11.463L18.62 11.6348L18.3574 11.8068L18.1939 11.1476L17.0776 11.9131L16.4977 13.1135L16.6684 14.2043L17.0776 14.7628L17.8314 15.0327L18.8151 14.8478L19.3296 14.2219L19.4525 13.5831C19.4525 13.5831 19.1544 13.1493 18.9382 13.1853C18.722 13.2213 18.272 13.5195 18.272 13.5195Z" fill="#DFDFDF" stroke="black" stroke-width="0.200801"/>
<path d="M17.138 9.1182L17.1133 9.38479C17.8859 9.45644 18.397 9.41785 18.6641 9.25155L18.7176 9.21396L18.551 9.00438C18.3884 9.13362 17.9646 9.18174 17.2965 9.13154L17.138 9.1182Z" fill="black"/>
<path d="M16.2421 9.89079L16.2174 10.1574C16.99 10.229 17.5012 10.1904 17.7682 10.0241L17.8217 9.98654L17.6551 9.77696C17.4925 9.9062 17.0687 9.95432 16.4006 9.90412L16.2421 9.89079Z" fill="black"/>
<path d="M16.0267 10.6111L15.9823 10.8751C16.4375 10.9516 16.7231 10.9165 16.8194 10.7173L16.8395 10.6641L16.5819 10.5909C16.5685 10.638 16.4241 10.6662 16.1303 10.6268L16.0267 10.6111Z" fill="black"/>
<path fill-rule="evenodd" clip-rule="evenodd" d="M17.585 7.29463C17.4926 7.29463 17.4177 7.21971 17.4177 7.12729C17.4177 7.03488 17.4926 6.95996 17.585 6.95996C17.6774 6.95996 17.7523 7.03488 17.7523 7.12729C17.7523 7.21971 17.6774 7.29463 17.585 7.29463Z" fill="black"/>
<path fill-rule="evenodd" clip-rule="evenodd" d="M3.84588 13.5195C3.84588 13.5195 4.07348 13.0712 3.49791 12.8499C2.92234 12.6287 2.64102 12.9174 2.3875 13.1853C2.13398 13.4532 2.16184 14.262 2.16184 14.262L2.78829 15.2639L4.71005 15.6612L5.47579 15.2639L6.3736 13.5195L6.30651 11.8068C6.30651 11.8068 6.2157 11.1508 6.2157 11.015C6.2157 10.8792 5.7986 9.82661 5.7986 9.82661L5.40362 9.43533L4.28657 8.84107L3.76056 8.57833L3.10744 7.75279L3.1797 7.09559L3.92404 8.04373H4.55452L5.21081 8.31866L5.47579 8.56843L5.7986 8.57833L5.92507 8.31866L5.57265 7.75279L5.04033 7.21686L5.28518 6.76364L4.92273 6.59853L4.99246 6.3487L4.59016 6.59853L4.28657 6.3487L4.22873 6.11893L4.92273 5.74701C4.92273 5.74701 4.2437 5.46209 3.92404 5.49182C3.60438 5.52156 3.30279 5.89769 3.30279 5.89769L2.3875 5.74701C2.3875 5.74701 2.63254 6.3487 2.55335 6.3487C2.47416 6.3487 1.97705 6.3487 1.97705 6.3487L2.16184 7.09559H1.45307L1.97705 7.67098L1.568 7.89529L2.19037 8.31866L1.568 8.73742L2.14667 9.11752L1.82064 9.74785L1.30752 9.43533L1.01892 9.82661L1.45307 10.7901L2.16184 11.2929L2.83705 11.463L3.49791 11.6348L3.76056 11.8068L3.92404 11.1476L5.04033 11.9131L5.62021 13.1135L5.4495 14.2043L5.04033 14.7628L4.28657 15.0327L3.30279 14.8478L2.78829 14.2219L2.66544 13.5831C2.66544 13.5831 2.96353 13.1493 3.1797 13.1853C3.39588 13.2213 3.84588 13.5195 3.84588 13.5195Z" fill="#DFDFDF" stroke="black" stroke-width="0.200801"/>
<path d="M4.97992 9.1182L5.00465 9.38479C4.23205 9.45644 3.72087 9.41785 3.45384 9.25155L3.40035 9.21396L3.56696 9.00438C3.72953 9.13362 4.15335 9.18174 4.82142 9.13154L4.97992 9.1182Z" fill="black"/>
<path d="M5.8758 9.89079L5.90052 10.1574C5.12792 10.229 4.61674 10.1904 4.34972 10.0241L4.29623 9.98654L4.46284 9.77696C4.6254 9.9062 5.04923 9.95432 5.7173 9.90412L5.8758 9.89079Z" fill="black"/>
<path d="M6.09118 10.6111L6.13557 10.8751C5.68042 10.9516 5.39478 10.9165 5.29856 10.7173L5.27846 10.6641L5.53598 10.5909C5.5494 10.638 5.69381 10.6662 5.98767 10.6268L6.09118 10.6111Z" fill="black"/>
<path fill-rule="evenodd" clip-rule="evenodd" d="M4.53293 7.29463C4.62535 7.29463 4.70027 7.21971 4.70027 7.12729C4.70027 7.03488 4.62535 6.95996 4.53293 6.95996C4.44052 6.95996 4.3656 7.03488 4.3656 7.12729C4.3656 7.21971 4.44052 7.29463 4.53293 7.29463Z" fill="black"/>
</g>
<defs>
<clipPath id="clip0_58_5838">
<rect width="21.4187" height="16.064" fill="white" transform="translate(0.349609 0.935913)"/>
</clipPath>
</defs>
</svg>
