<svg width="22" height="17" viewBox="0 0 22 17" fill="none" xmlns="http://www.w3.org/2000/svg">
<g clip-path="url(#clip0_58_130)">
<rect width="21.4187" height="16.064" transform="translate(0.187134 0.935913)" fill="white"/>
<path fill-rule="evenodd" clip-rule="evenodd" d="M0.477783 0.903931H21.8965V16.968H0.477783V0.903931Z" fill="#F7FCFF"/>
<path fill-rule="evenodd" clip-rule="evenodd" d="M0.477783 0.903931V6.25861H21.8965V0.903931H0.477783Z" fill="#E31D1C"/>
<path fill-rule="evenodd" clip-rule="evenodd" d="M0.477783 11.6133V16.968H21.8965V11.6133H0.477783Z" fill="#3D58DB"/>
<mask id="path-4-outside-1_58_130" maskUnits="userSpaceOnUse" x="-1.52222" y="-3.43469" width="25" height="25" fill="black">
<rect fill="white" x="-1.52222" y="-3.43469" width="25" height="25"/>
<path fill-rule="evenodd" clip-rule="evenodd" d="M10.8047 7.59736L0.477783 -0.434692V18.3067L10.8046 10.2747H21.8965V7.59736H10.8047Z"/>
</mask>
<path fill-rule="evenodd" clip-rule="evenodd" d="M10.8047 7.59736L0.477783 -0.434692V18.3067L10.8046 10.2747H21.8965V7.59736H10.8047Z" fill="#5EAA22"/>
<path d="M0.477783 -0.434692L1.29965 -1.49137L-0.860887 -3.17179L-0.860887 -0.434692H0.477783ZM10.8047 7.59736L9.98284 8.65404L10.3454 8.93603H10.8047V7.59736ZM0.477783 18.3067H-0.860887V21.0438L1.29965 19.3634L0.477783 18.3067ZM10.8046 10.2747V8.93603H10.3453L9.98277 9.21802L10.8046 10.2747ZM21.8965 10.2747V11.6134H23.2352V10.2747H21.8965ZM21.8965 7.59736H23.2352V6.25869H21.8965V7.59736ZM-0.344081 0.62199L9.98284 8.65404L11.6266 6.54067L1.29965 -1.49137L-0.344081 0.62199ZM1.81645 18.3067V-0.434692H-0.860887V18.3067H1.81645ZM9.98277 9.21802L-0.344081 17.25L1.29965 19.3634L11.6265 11.3314L9.98277 9.21802ZM21.8965 8.93603H10.8046V11.6134H21.8965V8.93603ZM20.5578 7.59736V10.2747H23.2352V7.59736H20.5578ZM10.8047 8.93603H21.8965V6.25869H10.8047V8.93603Z" fill="#F7FCFF" mask="url(#path-4-outside-1_58_130)"/>
<path d="M0.879384 4.38445L-0.191552 3.58125V4.91992V12.9519V14.2906L0.879384 13.4874L6.23406 9.4714L6.94802 8.93593L6.23406 8.40046L0.879384 4.38445Z" fill="#272727" stroke="#FECA00" stroke-width="1.33867"/>
</g>
<defs>
<clipPath id="clip0_58_130">
<rect width="21.4187" height="16.064" fill="white" transform="translate(0.187134 0.935913)"/>
</clipPath>
</defs>
</svg>
