<svg width="22" height="17" viewBox="0 0 22 17" fill="none" xmlns="http://www.w3.org/2000/svg">
<g clip-path="url(#clip0_58_116)">
<rect width="21.4187" height="16.064" transform="translate(0.0249023 0.935913)" fill="white"/>
<path fill-rule="evenodd" clip-rule="evenodd" d="M0.315552 0.903931H21.7343V16.968H0.315552V0.903931Z" fill="#F7FCFF"/>
<path fill-rule="evenodd" clip-rule="evenodd" d="M0.315552 0.903931V16.968H21.7343V0.903931H0.315552Z" fill="#5EAA22"/>
<mask id="mask0_58_116" style="mask-type:luminance" maskUnits="userSpaceOnUse" x="0" y="0" width="22" height="17">
<path fill-rule="evenodd" clip-rule="evenodd" d="M0.315552 0.903931V16.968H21.7343V0.903931H0.315552Z" fill="white"/>
</mask>
<g mask="url(#mask0_58_116)">
<rect x="18.3876" y="7.59729" width="3.34668" height="9.37069" fill="#FF8126"/>
<rect x="15.0409" y="7.59729" width="3.34668" height="9.37069" fill="#272727"/>
<rect x="11.6942" y="7.59729" width="3.34668" height="9.37069" fill="#C51918"/>
<path fill-rule="evenodd" clip-rule="evenodd" d="M16.7456 4.14199C17.0677 4.2419 16.7456 4.39484 16.7456 4.39484C16.7456 4.39484 16.682 4.33248 16.682 4.28041C16.682 4.22833 16.4353 4.28041 16.3081 4.46937C16.1875 4.64845 16.4097 4.64794 16.6433 4.64739C16.6562 4.64736 16.6691 4.64733 16.682 4.64733C16.814 4.64733 17.0205 4.63636 17.2125 4.62616C17.3795 4.61729 17.5355 4.609 17.6222 4.609C17.8086 4.609 17.8968 4.609 18.1428 4.46937C18.3027 4.37861 18.8313 4.2675 19.2244 4.1849C19.436 4.14043 19.6083 4.10423 19.6626 4.0839C19.8178 4.0258 19.5074 4.33248 19.5074 4.33248C19.5074 4.33248 20.7045 3.92512 20.9444 3.78602C21.0926 3.70007 21.0254 3.77343 20.9158 3.89319C20.848 3.96727 20.7639 4.05911 20.7045 4.14199C20.6033 4.2832 20.8095 4.14857 21.0384 3.99905C21.1611 3.91894 21.2903 3.83455 21.3823 3.78602C21.646 3.64691 21.3152 4.02423 21.1699 4.14199C21.0245 4.25975 21.5112 4.14199 21.6797 4.02423C21.8037 3.93758 21.6905 4.08904 21.5952 4.21655C21.5609 4.26232 21.529 4.30501 21.5112 4.33248L21.5084 4.33686C21.4432 4.43741 21.4225 4.46937 21.5786 4.46937C21.737 4.46937 21.1699 4.84138 21.1699 4.84138C21.1699 4.84138 21.3388 4.81875 21.1699 5.06645C21.0703 5.21247 20.5853 5.35997 20.1916 5.47973C19.9173 5.56312 19.6874 5.63307 19.6626 5.67968C19.6182 5.76339 19.1765 5.86034 18.9707 5.90552C18.8973 5.92163 18.8539 5.93116 18.8692 5.93116C18.9273 5.93116 19.0238 5.99318 18.919 5.99318C18.8141 5.99318 18.6299 6.04321 18.6299 6.04321C18.6299 6.04321 18.7268 6.04321 18.6299 6.15977C18.5835 6.2156 18.5021 6.20676 18.445 6.20056C18.3828 6.19381 18.3495 6.19019 18.4213 6.27633C18.4843 6.35202 18.5084 6.38081 18.5025 6.38978C18.4954 6.4004 18.4464 6.38322 18.3701 6.38322C18.3033 6.38322 18.232 6.3591 18.157 6.33378C18.0742 6.30579 17.987 6.27633 17.8968 6.27633C17.7319 6.27633 17.8974 6.37482 18.0009 6.43635C18.0052 6.43892 18.0094 6.44143 18.0135 6.44386C18.1058 6.49894 18.0673 6.49883 17.9002 6.49835C17.8834 6.4983 17.8652 6.49825 17.8458 6.49825C17.7422 6.49825 17.6864 6.48871 17.6565 6.48359C17.6251 6.47821 17.6222 6.47771 17.6222 6.49825C17.6222 6.51795 17.5441 6.49052 17.4501 6.45753C17.3528 6.42336 17.2385 6.38322 17.1763 6.38322C17.0539 6.38322 17.4357 6.59627 17.4357 6.59627C17.4357 6.59627 17.2368 6.542 17.1291 6.49825C17.0679 6.47338 17.1457 6.5907 17.2159 6.6966C17.2693 6.77701 17.3182 6.85084 17.2987 6.85084C17.2838 6.85084 17.251 6.83757 17.2137 6.82244C17.137 6.79139 17.0411 6.75254 17.0411 6.80458C17.0411 6.88198 17.1291 6.9395 17.2368 6.9395C17.3445 6.9395 17.3623 7.06039 17.2987 7.06039C17.2766 7.06039 17.2495 7.05239 17.2234 7.04471C17.1743 7.03024 17.1291 7.01691 17.1291 7.06039C17.1291 7.08844 17.1482 7.10944 17.1704 7.13374C17.2008 7.1671 17.2368 7.20669 17.2368 7.27927C17.2368 7.40473 17.0765 7.42259 17.1291 7.33944C17.1817 7.25629 16.9467 7.05559 16.9467 7.15382V7.27927C16.9467 7.36797 16.9264 7.37364 16.8948 7.38249C16.8753 7.38794 16.8515 7.3946 16.8254 7.42259C16.7865 7.46436 16.7807 7.48813 16.7774 7.50144C16.7742 7.51462 16.7735 7.51755 16.7456 7.51755C16.7236 7.51755 16.7052 7.48983 16.6806 7.45257C16.6427 7.39538 16.59 7.31571 16.4861 7.27927C16.3875 7.24467 16.3823 7.26978 16.3733 7.31318C16.3667 7.34524 16.358 7.38727 16.3081 7.42259C16.2331 7.47567 16.2538 7.49768 16.2786 7.52401C16.2927 7.53891 16.3081 7.5552 16.3081 7.5793C16.3081 7.64595 16.1768 7.51266 16.1768 7.42259C16.1768 7.33252 16.0277 7.21269 16.0277 7.27927C16.0277 7.34586 16.0276 7.42259 15.951 7.42259C15.914 7.42259 15.9127 7.44479 15.9108 7.47461C15.9088 7.50674 15.9063 7.54772 15.8582 7.5793C15.8108 7.61042 15.8118 7.59384 15.8141 7.5574C15.8163 7.52252 15.8196 7.46944 15.7827 7.42259C15.7365 7.36396 15.7751 7.27322 15.7947 7.22708C15.8072 7.19781 15.812 7.18649 15.7827 7.21269C15.7082 7.2793 15.6132 7.27929 15.5489 7.27928L15.5464 7.27927C15.514 7.27927 15.4858 7.31399 15.4657 7.33868C15.4458 7.36306 15.4339 7.37766 15.4339 7.33944C15.4339 7.26251 15.5291 7.06039 15.7082 7.06039C15.8462 7.06039 15.9156 7.01317 15.9753 6.9726C15.9931 6.9605 16.01 6.94899 16.0277 6.9395C16.1043 6.89819 16.0276 6.8443 15.951 6.80458C15.9161 6.78654 15.9288 6.72837 15.9529 6.67641C15.9955 6.65331 16.0277 6.62479 16.0277 6.59627C16.0277 6.56055 15.982 6.61401 15.9529 6.67641C15.8978 6.70634 15.8253 6.72718 15.7827 6.72718C15.7418 6.72718 15.7674 6.66474 15.7994 6.58662C15.8265 6.52061 15.8582 6.44341 15.8582 6.38322C15.8582 6.32591 15.8695 6.27608 15.8773 6.24162C15.8874 6.19708 15.8917 6.17822 15.8582 6.20208C15.8166 6.23169 15.5948 6.19912 15.4436 6.17691C15.3788 6.16739 15.327 6.15977 15.3078 6.15977C15.2796 6.15977 15.3023 6.11496 15.325 6.0704C15.3534 6.01431 15.3817 5.95862 15.3078 5.99318C15.192 6.04735 14.9564 6.04506 14.8074 6.04361C14.7858 6.0434 14.766 6.04321 14.7487 6.04321C14.6616 6.04321 14.7214 5.97838 14.7534 5.94362C14.7718 5.92377 14.781 5.91372 14.7487 5.93116C14.6598 5.97913 14.5714 5.99318 14.4714 5.99318C14.4263 5.99318 14.4135 5.97063 14.3993 5.94595C14.3822 5.91589 14.3632 5.88266 14.282 5.88319C14.1341 5.88416 14.1009 5.88222 14.0195 5.82804C13.9771 5.79983 14.0009 5.78325 14.0144 5.77384C14.0269 5.76516 14.0306 5.76257 13.9658 5.76257H13.5646C13.3648 5.76257 13.5652 5.63125 13.6373 5.63125C13.7093 5.63125 13.7928 5.51307 13.6373 5.56613C13.5377 5.6001 13.4312 5.59058 13.3052 5.57933C13.2344 5.57301 13.1574 5.56613 13.0721 5.56613C12.835 5.56613 12.7896 5.4737 12.9298 5.4737C13.07 5.4737 13.0782 5.406 12.8603 5.406C12.7236 5.406 12.6113 5.37469 12.5275 5.35135C12.4777 5.33749 12.4381 5.32644 12.4094 5.32644C12.3326 5.32644 12.2494 5.23531 12.4094 5.23531C12.5695 5.23531 12.7747 5.15935 12.5996 5.15935C12.5007 5.15935 12.3357 5.11494 12.1921 5.07629C12.0816 5.04653 11.9838 5.0202 11.9386 5.0202C11.904 5.0202 11.9582 5.01038 12.0304 4.9973C12.1745 4.97121 12.3901 4.93216 12.1151 4.93216C11.8214 4.93216 11.5136 4.73019 11.301 4.59069C11.2147 4.53405 11.1441 4.48771 11.0965 4.46937C10.9317 4.40585 11.0965 4.28041 11.144 4.33248C11.1915 4.38456 11.524 4.46463 11.38 4.39484C11.236 4.32505 11.144 4.20629 11.0965 4.14199C11.049 4.07769 11.0856 4.03328 11.144 4.0839C11.2024 4.13451 11.472 4.28041 11.472 4.28041C11.472 4.28041 11.3278 4.14199 11.2133 3.92512C11.0988 3.70825 11.3278 3.76107 11.524 3.92512C11.7203 4.08917 11.9043 4.13257 11.9966 4.14199C12.089 4.15141 11.9043 4.02383 11.7264 3.92512C11.5486 3.82641 11.589 3.47303 11.7264 3.61413C11.7979 3.68754 12.1367 3.82743 12.4681 3.96425C12.7737 4.09043 13.073 4.214 13.1504 4.28041C13.2845 4.39533 13.1766 4.22401 13.0598 4.03842C13.0359 4.00047 13.0116 3.96193 12.9889 3.92512C12.9113 3.79904 13.2232 3.94229 13.578 4.10527C13.8335 4.22264 14.1113 4.35023 14.282 4.39484C14.3995 4.42557 14.5399 4.47477 14.6802 4.52393C15.0263 4.64523 15.3717 4.76629 15.3717 4.609C15.3717 4.38796 15.6882 4.04208 16.0277 3.92512C16.2431 3.85089 16.3445 3.91799 16.4722 4.00247C16.5457 4.0511 16.628 4.10549 16.7456 4.14199ZM16.3804 6.73637C16.457 6.73637 16.4361 6.06472 16.4361 6.06472C16.4361 6.06472 16.6622 6.47659 16.6622 6.65482C16.6622 6.73591 16.6554 6.7601 16.6575 6.78349C16.66 6.81151 16.6752 6.8384 16.7301 6.96059C16.7858 7.08484 16.7489 7.07139 16.6481 7.03469C16.567 7.00517 16.4446 6.96059 16.2959 6.96059C15.9624 6.96059 16.3038 6.73637 16.3804 6.73637Z" fill="#FF8126"/>
<path d="M16.7456 4.39484L16.6871 4.45458L16.7288 4.49547L16.7815 4.47042L16.7456 4.39484ZM16.7456 4.14199L16.7209 4.2219L16.7209 4.2219L16.7456 4.14199ZM16.3081 4.46937L16.2387 4.42264L16.2387 4.42264L16.3081 4.46937ZM16.6433 4.64739L16.6435 4.73106L16.6435 4.73106L16.6433 4.64739ZM17.2125 4.62616L17.217 4.70971L17.217 4.70971L17.2125 4.62616ZM18.1428 4.46937L18.1841 4.54213L18.1841 4.54213L18.1428 4.46937ZM19.2244 4.1849L19.2072 4.10302L19.2072 4.10302L19.2244 4.1849ZM19.6626 4.0839L19.6919 4.16225L19.6919 4.16225L19.6626 4.0839ZM19.5074 4.33248L19.4486 4.27297L19.5344 4.41169L19.5074 4.33248ZM20.9444 3.78602L20.9024 3.71364L20.9024 3.71364L20.9444 3.78602ZM20.9158 3.89319L20.9775 3.94968L20.9775 3.94968L20.9158 3.89319ZM20.7045 4.14199L20.6365 4.09325L20.6365 4.09325L20.7045 4.14199ZM21.0384 3.99905L21.0842 4.06911L21.0842 4.06911L21.0384 3.99905ZM21.3823 3.78602L21.4213 3.86002L21.4213 3.86002L21.3823 3.78602ZM21.1699 4.14199L21.2225 4.207L21.2225 4.207L21.1699 4.14199ZM21.6797 4.02423L21.6318 3.95565L21.6318 3.95565L21.6797 4.02423ZM21.5952 4.21655L21.6622 4.26665L21.6622 4.26665L21.5952 4.21655ZM21.5112 4.33248L21.5814 4.37799L21.5814 4.37798L21.5112 4.33248ZM21.5084 4.33686L21.4382 4.29134L21.4382 4.29134L21.5084 4.33686ZM21.1699 4.84138L21.124 4.77142L21.181 4.92431L21.1699 4.84138ZM21.1699 5.06645L21.1008 5.01931L21.1008 5.01931L21.1699 5.06645ZM20.1916 5.47973L20.2159 5.55977L20.2159 5.55977L20.1916 5.47973ZM19.6626 5.67968L19.7365 5.71892L19.7365 5.71892L19.6626 5.67968ZM18.9707 5.90552L18.9527 5.8238L18.9527 5.8238L18.9707 5.90552ZM18.6299 6.04321L18.608 5.96247L18.6299 6.12688V6.04321ZM18.6299 6.15977L18.5656 6.10627L18.5656 6.10627L18.6299 6.15977ZM18.445 6.20056L18.454 6.11738L18.454 6.11738L18.445 6.20056ZM18.4213 6.27633L18.357 6.32988L18.357 6.32988L18.4213 6.27633ZM18.5025 6.38978L18.5723 6.4359L18.5723 6.4359L18.5025 6.38978ZM18.157 6.33378L18.1838 6.25452L18.1838 6.25452L18.157 6.33378ZM18.0009 6.43635L18.0436 6.36445L18.0436 6.36445L18.0009 6.43635ZM18.0135 6.44386L18.0563 6.37201L18.0563 6.37201L18.0135 6.44386ZM17.9002 6.49835L17.9 6.58202L17.9 6.58202L17.9002 6.49835ZM17.6565 6.48359L17.6706 6.40112L17.6706 6.40112L17.6565 6.48359ZM17.4501 6.45753L17.4224 6.53647L17.4224 6.53647L17.4501 6.45753ZM17.4357 6.59627L17.4137 6.67699L17.4765 6.52321L17.4357 6.59627ZM17.1291 6.49825L17.1606 6.42073L17.1606 6.42073L17.1291 6.49825ZM17.2159 6.6966L17.2857 6.65035L17.2857 6.65035L17.2159 6.6966ZM17.2137 6.82244L17.2451 6.74489L17.2451 6.74489L17.2137 6.82244ZM17.2234 7.04471L17.2471 6.96445L17.2471 6.96445L17.2234 7.04471ZM17.1704 7.13374L17.1085 7.19008L17.1085 7.19008L17.1704 7.13374ZM17.1291 7.33944L17.0584 7.29472L17.0584 7.29472L17.1291 7.33944ZM16.8948 7.38249L16.9173 7.46307L16.9173 7.46307L16.8948 7.38249ZM16.8254 7.42259L16.7642 7.36558L16.7642 7.36558L16.8254 7.42259ZM16.7774 7.50144L16.8587 7.5214L16.8587 7.52139L16.7774 7.50144ZM16.6806 7.45257L16.6108 7.49875L16.6108 7.49875L16.6806 7.45257ZM16.4861 7.27927L16.5138 7.20032L16.5138 7.20032L16.4861 7.27927ZM16.3733 7.31318L16.4552 7.33011L16.4552 7.33011L16.3733 7.31318ZM16.3081 7.42259L16.2597 7.35429L16.2597 7.35429L16.3081 7.42259ZM16.2786 7.52401L16.2178 7.58141L16.2178 7.58141L16.2786 7.52401ZM15.9108 7.47461L15.9943 7.47979L15.9943 7.47979L15.9108 7.47461ZM15.8582 7.5793L15.9041 7.64925L15.9041 7.64925L15.8582 7.5793ZM15.8141 7.5574L15.7306 7.55216L15.7306 7.55216L15.8141 7.5574ZM15.7827 7.42259L15.717 7.47436L15.717 7.47436L15.7827 7.42259ZM15.7947 7.22708L15.8717 7.25983L15.8717 7.25983L15.7947 7.22708ZM15.7827 7.21269L15.7269 7.15032L15.7269 7.15032L15.7827 7.21269ZM15.5489 7.27928L15.5489 7.36294L15.5489 7.36294L15.5489 7.27928ZM15.5464 7.27927L15.5464 7.19561H15.5464V7.27927ZM15.4657 7.33868L15.5305 7.39151L15.5306 7.39151L15.4657 7.33868ZM15.9753 6.9726L16.0223 7.04179L16.0223 7.04179L15.9753 6.9726ZM16.0277 6.9395L15.988 6.86584L15.988 6.86584L16.0277 6.9395ZM15.951 6.80458L15.9894 6.73029L15.9894 6.73029L15.951 6.80458ZM15.7994 6.58662L15.722 6.55487L15.722 6.55487L15.7994 6.58662ZM15.8773 6.24162L15.7957 6.22311L15.7957 6.22311L15.8773 6.24162ZM15.8582 6.20208L15.9067 6.27024L15.9067 6.27024L15.8582 6.20208ZM15.4436 6.17691L15.4558 6.09413L15.4436 6.17691ZM15.325 6.0704L15.3996 6.10829L15.3996 6.10829L15.325 6.0704ZM15.3078 5.99318L15.3433 6.06897L15.3433 6.06897L15.3078 5.99318ZM14.8074 6.04361L14.8082 5.95995L14.8082 5.95995L14.8074 6.04361ZM14.7534 5.94362L14.8149 6.00035L14.8149 6.00035L14.7534 5.94362ZM14.7487 5.93116L14.709 5.85753L14.709 5.85753L14.7487 5.93116ZM14.3993 5.94595L14.3267 5.98747L14.3267 5.98747L14.3993 5.94595ZM14.282 5.88319L14.2825 5.96686L14.2825 5.96686L14.282 5.88319ZM14.0195 5.82804L14.0659 5.75838L14.0659 5.75838L14.0195 5.82804ZM14.0144 5.77384L13.9666 5.7052L13.9666 5.7052L14.0144 5.77384ZM13.6373 5.56613L13.6643 5.64532L13.6643 5.64532L13.6373 5.56613ZM13.3052 5.57933L13.3127 5.496L13.3127 5.496L13.3052 5.57933ZM12.5275 5.35135L12.55 5.27075L12.55 5.27075L12.5275 5.35135ZM12.1921 5.07629L12.1704 5.15708L12.1704 5.15708L12.1921 5.07629ZM12.0304 4.9973L12.0155 4.91497L12.0155 4.91497L12.0304 4.9973ZM11.301 4.59069L11.3469 4.52074L11.3469 4.52074L11.301 4.59069ZM11.0965 4.46937L11.0664 4.54744L11.0664 4.54744L11.0965 4.46937ZM11.144 4.33248L11.0822 4.38886L11.0822 4.38886L11.144 4.33248ZM11.0965 4.14199L11.0292 4.1917L11.0292 4.1917L11.0965 4.14199ZM11.144 4.0839L11.1988 4.02067L11.1988 4.02067L11.144 4.0839ZM11.472 4.28041L11.4322 4.35399L11.5299 4.22004L11.472 4.28041ZM11.2133 3.92512L11.2873 3.88606L11.2873 3.88606L11.2133 3.92512ZM11.524 3.92512L11.5777 3.86093L11.5777 3.86093L11.524 3.92512ZM11.9966 4.14199L11.9882 4.22522L11.9882 4.22522L11.9966 4.14199ZM11.7264 3.92512L11.6858 3.99827L11.7264 3.92512ZM11.7264 3.61413L11.6665 3.67251L11.6665 3.67251L11.7264 3.61413ZM12.4681 3.96425L12.4362 4.04159L12.4362 4.04159L12.4681 3.96425ZM13.1504 4.28041L13.2049 4.21688L13.2049 4.21688L13.1504 4.28041ZM13.0598 4.03842L13.1306 3.99383L13.1306 3.99383L13.0598 4.03842ZM12.9889 3.92512L12.9177 3.96897L12.9177 3.96897L12.9889 3.92512ZM13.578 4.10527L13.6129 4.02924L13.6129 4.02924L13.578 4.10527ZM14.282 4.39484L14.3031 4.31389L14.3031 4.31389L14.282 4.39484ZM14.6802 4.52393L14.6525 4.60289L14.6525 4.60289L14.6802 4.52393ZM16.0277 3.92512L16.0549 4.00422L16.0549 4.00422L16.0277 3.92512ZM16.4722 4.00247L16.4261 4.07225L16.4261 4.07225L16.4722 4.00247ZM16.4361 6.06472L16.5094 6.02445L16.3525 6.06733L16.4361 6.06472ZM16.6575 6.78349L16.5742 6.79089L16.5742 6.79089L16.6575 6.78349ZM16.7301 6.96059L16.8064 6.92633L16.8064 6.92633L16.7301 6.96059ZM16.6481 7.03469L16.6767 6.95608L16.6767 6.95608L16.6481 7.03469ZM16.7456 4.39484C16.7815 4.47042 16.7815 4.47041 16.7816 4.47039C16.7816 4.47039 16.7816 4.47038 16.7816 4.47037C16.7817 4.47035 16.7817 4.47032 16.7818 4.4703C16.7819 4.47025 16.782 4.47019 16.7821 4.47012C16.7824 4.46999 16.7828 4.46981 16.7832 4.4696C16.7841 4.46917 16.7853 4.4686 16.7867 4.46787C16.7896 4.46643 16.7935 4.4644 16.7983 4.46184C16.8079 4.45673 16.821 4.44936 16.8356 4.44011C16.8632 4.42267 16.903 4.39441 16.932 4.3579C16.9607 4.32166 16.9936 4.2561 16.9554 4.18436C16.9236 4.12462 16.8542 4.08807 16.7704 4.06208L16.7209 4.2219C16.7981 4.24586 16.8092 4.2659 16.8077 4.26293C16.7997 4.24797 16.8124 4.23938 16.8009 4.25386C16.7896 4.26808 16.769 4.2843 16.7462 4.29865C16.7357 4.3053 16.7262 4.31066 16.7194 4.31431C16.716 4.31612 16.7133 4.31747 16.7116 4.31832C16.7108 4.31874 16.7102 4.31904 16.7099 4.3192C16.7097 4.31928 16.7096 4.31932 16.7096 4.31933C16.7096 4.31934 16.7096 4.31933 16.7096 4.31932C16.7096 4.31932 16.7096 4.31931 16.7097 4.3193C16.7097 4.31929 16.7097 4.31928 16.7097 4.31928C16.7097 4.31927 16.7098 4.31926 16.7456 4.39484ZM16.5984 4.28041C16.5984 4.3349 16.6289 4.38233 16.6459 4.40601C16.656 4.42008 16.666 4.43185 16.6734 4.44009C16.6771 4.44425 16.6803 4.44763 16.6826 4.45007C16.6838 4.4513 16.6848 4.4523 16.6855 4.45305C16.6859 4.45343 16.6862 4.45375 16.6865 4.454C16.6866 4.45413 16.6867 4.45424 16.6868 4.45434C16.6869 4.45439 16.6869 4.45443 16.6869 4.45447C16.687 4.45449 16.687 4.45451 16.687 4.45453C16.687 4.45454 16.687 4.45455 16.687 4.45455C16.687 4.45457 16.6871 4.45458 16.7456 4.39484C16.8042 4.3351 16.8042 4.33511 16.8042 4.33512C16.8042 4.33513 16.8043 4.33514 16.8043 4.33515C16.8043 4.33516 16.8043 4.33517 16.8043 4.33518C16.8043 4.33521 16.8043 4.33523 16.8044 4.33525C16.8044 4.33528 16.8044 4.33531 16.8044 4.33531C16.8044 4.33533 16.8044 4.33529 16.8043 4.3352C16.8041 4.33501 16.8037 4.33462 16.8032 4.33404C16.8021 4.33287 16.8003 4.33097 16.798 4.32848C16.7935 4.32339 16.7875 4.31632 16.7818 4.30829C16.7758 4.30006 16.7712 4.29228 16.7682 4.28575C16.765 4.27866 16.7657 4.27722 16.7657 4.28041H16.5984ZM16.3775 4.5161C16.4295 4.4388 16.5076 4.3879 16.5731 4.36249C16.6062 4.34963 16.631 4.34529 16.6432 4.34504C16.6504 4.3449 16.646 4.3463 16.6365 4.34195C16.6233 4.33594 16.5984 4.3161 16.5984 4.28041H16.7657C16.7657 4.2317 16.7331 4.20209 16.7059 4.1897C16.6824 4.17898 16.6577 4.17738 16.6398 4.17774C16.6018 4.17852 16.5569 4.18924 16.5125 4.20651C16.4227 4.24136 16.3139 4.31098 16.2387 4.42264L16.3775 4.5161ZM16.6431 4.56373C16.5842 4.56386 16.5289 4.56397 16.4798 4.56143C16.4296 4.55884 16.3925 4.55373 16.3683 4.54602C16.3415 4.5375 16.3522 4.53326 16.3569 4.5488C16.3606 4.5612 16.3508 4.55567 16.3775 4.5161L16.2387 4.42264C16.205 4.47261 16.1778 4.53417 16.1966 4.59683C16.2163 4.66262 16.2746 4.6918 16.3175 4.70546C16.363 4.71994 16.4177 4.72579 16.4711 4.72854C16.5256 4.73136 16.5857 4.73119 16.6435 4.73106L16.6431 4.56373ZM16.682 4.56367C16.669 4.56367 16.656 4.5637 16.6431 4.56373L16.6435 4.73106C16.6564 4.73103 16.6693 4.731 16.682 4.731V4.56367ZM17.2081 4.54261C17.015 4.55287 16.8113 4.56367 16.682 4.56367V4.731C16.8168 4.731 17.026 4.71986 17.217 4.70971L17.2081 4.54261ZM17.6222 4.52533C17.5326 4.52533 17.3737 4.53381 17.2081 4.54261L17.217 4.70971C17.3852 4.70077 17.5383 4.69266 17.6222 4.69266V4.52533ZM18.1015 4.39661C17.9818 4.46455 17.9063 4.49512 17.8415 4.50999C17.7761 4.52498 17.7169 4.52533 17.6222 4.52533V4.69266C17.7139 4.69266 17.792 4.69301 17.8789 4.67309C17.9662 4.65306 18.0578 4.61382 18.1841 4.54213L18.1015 4.39661ZM19.2072 4.10302C19.011 4.14426 18.7791 4.19298 18.5762 4.24282C18.4747 4.26775 18.3795 4.2932 18.299 4.3184C18.22 4.34312 18.1497 4.36924 18.1015 4.39661L18.1841 4.54213C18.2158 4.52412 18.2716 4.50231 18.3489 4.47809C18.4248 4.45436 18.5163 4.42985 18.6161 4.40533C18.8158 4.35628 19.0448 4.30815 19.2416 4.26678L19.2072 4.10302ZM19.6333 4.00554C19.6126 4.01327 19.5621 4.02619 19.4842 4.04372C19.4085 4.06071 19.3132 4.08075 19.2072 4.10302L19.2416 4.26678C19.3472 4.24459 19.4438 4.22428 19.5208 4.20698C19.5955 4.1902 19.6583 4.17485 19.6919 4.16225L19.6333 4.00554ZM19.5074 4.33248C19.5663 4.39199 19.5663 4.39199 19.5663 4.39198C19.5663 4.39198 19.5663 4.39197 19.5663 4.39196C19.5663 4.39195 19.5663 4.39193 19.5663 4.3919C19.5664 4.39185 19.5665 4.39178 19.5665 4.3917C19.5667 4.39153 19.567 4.39128 19.5673 4.39097C19.5679 4.39034 19.5688 4.38943 19.57 4.38825C19.5724 4.38591 19.5757 4.38252 19.58 4.37826C19.5884 4.36973 19.6002 4.35765 19.6139 4.34334C19.6411 4.31495 19.6765 4.27691 19.7073 4.24016C19.7227 4.22182 19.7377 4.20289 19.7502 4.18504C19.7617 4.16871 19.7751 4.14765 19.7827 4.12611C19.7863 4.11601 19.792 4.09652 19.7887 4.07342C19.7845 4.04406 19.7663 4.01556 19.7344 4.00143C19.7097 3.99046 19.6862 3.99253 19.6739 3.99439C19.6597 3.99653 19.6459 4.00083 19.6333 4.00554L19.6919 4.16225C19.6988 4.1597 19.7006 4.15959 19.6989 4.15984C19.698 4.15999 19.6946 4.16043 19.6897 4.16014C19.6848 4.15986 19.6764 4.15874 19.6665 4.15436C19.6411 4.14306 19.6263 4.11959 19.6231 4.09711C19.6218 4.08824 19.6226 4.08134 19.6232 4.07758C19.6238 4.07369 19.6247 4.07116 19.6249 4.07035C19.6253 4.06939 19.623 4.07507 19.6132 4.089C19.6045 4.10142 19.5928 4.11629 19.5791 4.13265C19.5517 4.1653 19.5192 4.2003 19.4931 4.2276C19.4801 4.24114 19.4689 4.25256 19.461 4.26058C19.457 4.26458 19.4539 4.26773 19.4518 4.26985C19.4507 4.27091 19.4499 4.27171 19.4494 4.27224C19.4491 4.2725 19.4489 4.2727 19.4488 4.27282C19.4487 4.27288 19.4487 4.27293 19.4487 4.27295C19.4486 4.27296 19.4486 4.27297 19.4486 4.27297C19.4486 4.27298 19.4486 4.27298 19.4486 4.27298C19.4486 4.27297 19.4486 4.27297 19.5074 4.33248ZM20.9024 3.71364C20.8487 3.74476 20.7349 3.79414 20.5879 3.85229C20.443 3.90961 20.2718 3.97325 20.1075 4.03274C19.9433 4.0922 19.7865 4.14735 19.6707 4.18764C19.6129 4.20778 19.5653 4.2242 19.5322 4.23558C19.5156 4.24127 19.5027 4.2457 19.4939 4.2487C19.4895 4.25021 19.4861 4.25135 19.4839 4.25212C19.4827 4.25251 19.4819 4.2528 19.4813 4.25299C19.481 4.25309 19.4808 4.25316 19.4807 4.25321C19.4806 4.25323 19.4806 4.25325 19.4805 4.25326C19.4805 4.25326 19.4805 4.25327 19.4805 4.25327C19.4805 4.25327 19.4805 4.25328 19.5074 4.33248C19.5344 4.41169 19.5344 4.41169 19.5344 4.41168C19.5344 4.41168 19.5344 4.41167 19.5345 4.41167C19.5345 4.41165 19.5346 4.41163 19.5346 4.41161C19.5348 4.41156 19.535 4.41148 19.5353 4.41138C19.5359 4.41118 19.5367 4.41089 19.5379 4.4105C19.5402 4.40972 19.5436 4.40856 19.548 4.40704C19.5569 4.40401 19.5699 4.39955 19.5865 4.39383C19.6198 4.38239 19.6676 4.3659 19.7257 4.34568C19.8419 4.30524 19.9994 4.24985 20.1645 4.19008C20.3294 4.13035 20.5024 4.06607 20.6495 4.00788C20.7944 3.95053 20.9201 3.89682 20.9864 3.85839L20.9024 3.71364ZM20.9775 3.94968C21.0047 3.92003 21.0303 3.89205 21.0506 3.86863C21.0688 3.84761 21.0895 3.8228 21.1007 3.80165C21.1038 3.79585 21.1086 3.78593 21.1113 3.77355C21.1137 3.76294 21.1181 3.73487 21.1004 3.70634C21.0805 3.67439 21.0489 3.66669 21.0326 3.6653C21.0169 3.66397 21.0038 3.66688 20.9968 3.66869C20.971 3.67538 20.9377 3.69318 20.9024 3.71364L20.9864 3.85839C21.004 3.84815 21.0174 3.84091 21.0272 3.83607C21.0381 3.83069 21.041 3.83009 21.0389 3.83064C21.0383 3.83078 21.0303 3.83304 21.0184 3.83203C21.0059 3.83097 20.9769 3.82457 20.9583 3.79482C20.9419 3.7685 20.9466 3.74355 20.9481 3.73692C20.9499 3.72852 20.9528 3.72343 20.9528 3.72327C20.9533 3.72245 20.9518 3.72517 20.9459 3.73279C20.9406 3.73969 20.9333 3.74841 20.9241 3.75904C20.9056 3.78037 20.8818 3.80647 20.8541 3.8367L20.9775 3.94968ZM20.7725 4.19073C20.8285 4.11271 20.9088 4.02474 20.9775 3.94968L20.8541 3.8367C20.7872 3.9098 20.6994 4.00551 20.6365 4.09325L20.7725 4.19073ZM20.9927 3.929C20.8762 4.00506 20.772 4.07295 20.7094 4.10513C20.6939 4.11309 20.6843 4.11711 20.6795 4.11866C20.677 4.11947 20.6788 4.11862 20.6835 4.1182C20.6864 4.11793 20.7035 4.11641 20.723 4.12742C20.7485 4.14185 20.7598 4.16678 20.7615 4.18687C20.7628 4.20211 20.7587 4.21203 20.7587 4.21208C20.7583 4.2132 20.7608 4.20714 20.7725 4.19073L20.6365 4.09325C20.623 4.11214 20.6098 4.13277 20.6022 4.15297C20.5985 4.16255 20.593 4.18012 20.5948 4.20122C20.597 4.22718 20.6108 4.25621 20.6406 4.27309C20.6644 4.28655 20.6877 4.28583 20.6985 4.28485C20.7111 4.28372 20.7225 4.28063 20.7312 4.27782C20.7487 4.27214 20.7677 4.26334 20.7859 4.25396C20.8583 4.21675 20.9717 4.14257 21.0842 4.06911L20.9927 3.929ZM21.3433 3.71201C21.247 3.7628 21.1139 3.84981 20.9927 3.929L21.0842 4.06911C21.2082 3.98806 21.3336 3.90629 21.4213 3.86002L21.3433 3.71201ZM21.2225 4.207C21.301 4.14345 21.4249 4.0145 21.4967 3.91748C21.5149 3.89298 21.5315 3.86808 21.5435 3.84513C21.5495 3.83371 21.5554 3.82061 21.5594 3.80679C21.5631 3.79446 21.5678 3.77302 21.5626 3.74877C21.5561 3.71867 21.5357 3.69204 21.5041 3.67944C21.4789 3.66934 21.4548 3.67163 21.4405 3.67411C21.411 3.67925 21.3776 3.6939 21.3433 3.71201L21.4213 3.86002C21.4361 3.85222 21.4476 3.84688 21.4562 3.8434C21.4653 3.83975 21.4692 3.83898 21.4692 3.83898C21.469 3.839 21.4666 3.83943 21.4625 3.83929C21.4584 3.83915 21.451 3.8384 21.442 3.83481C21.419 3.82561 21.4036 3.80529 21.399 3.78402C21.3972 3.77563 21.3975 3.76908 21.3978 3.76562C21.3982 3.76205 21.3988 3.75994 21.3989 3.75965C21.399 3.75932 21.3982 3.76185 21.3951 3.76781C21.3889 3.77963 21.3781 3.79655 21.3623 3.81788C21.2983 3.90419 21.1841 4.02277 21.1172 4.07698L21.2225 4.207ZM21.6318 3.95565C21.5605 4.00545 21.409 4.06138 21.2879 4.09C21.2586 4.09693 21.2328 4.10183 21.2119 4.10458C21.2015 4.10595 21.193 4.10671 21.1863 4.10698C21.183 4.10712 21.1804 4.10712 21.1785 4.10707C21.1775 4.10704 21.1768 4.107 21.1763 4.10696C21.176 4.10694 21.1758 4.10692 21.1757 4.10691C21.1755 4.10689 21.1755 4.10688 21.1755 4.10688C21.1755 4.10688 21.1756 4.10689 21.1757 4.10692C21.1759 4.10695 21.1761 4.10699 21.1764 4.10706C21.1771 4.10718 21.1781 4.10743 21.1795 4.10786C21.1821 4.10863 21.1875 4.11051 21.194 4.11471C21.21 4.12507 21.2278 4.14746 21.2267 4.17851C21.2263 4.19052 21.223 4.19946 21.2207 4.20439C21.2184 4.20936 21.2162 4.21228 21.2156 4.21304C21.2146 4.2143 21.216 4.21233 21.2225 4.207L21.1172 4.07698C21.1056 4.08637 21.0937 4.09727 21.084 4.10969C21.0756 4.12035 21.0606 4.14233 21.0595 4.17263C21.0582 4.21149 21.0798 4.2401 21.103 4.25517C21.122 4.26744 21.1418 4.27122 21.1535 4.27277C21.1786 4.27609 21.2075 4.27396 21.2338 4.27048C21.2618 4.26679 21.2933 4.26065 21.3263 4.25285C21.4544 4.2226 21.6304 4.16077 21.7277 4.09281L21.6318 3.95565ZM21.6622 4.26665C21.7082 4.20505 21.7643 4.13027 21.7922 4.08181C21.7991 4.06979 21.8071 4.05471 21.8121 4.03944C21.8145 4.03224 21.8182 4.01911 21.8179 4.00329C21.8176 3.98709 21.8124 3.95536 21.7825 3.93291C21.7551 3.91231 21.726 3.91431 21.7138 3.91613C21.7001 3.91818 21.6885 3.92279 21.681 3.92622C21.6654 3.93332 21.6486 3.94392 21.6318 3.95565L21.7277 4.09281C21.7419 4.08288 21.7487 4.07925 21.7502 4.07855C21.7513 4.07808 21.7467 4.0804 21.7385 4.08163C21.7318 4.08262 21.7067 4.08528 21.682 4.06668C21.6548 4.04623 21.6508 4.01786 21.6506 4.00622C21.6504 3.99498 21.653 3.98764 21.6531 3.98733C21.6536 3.98582 21.6526 3.98889 21.6472 3.99835C21.6256 4.03583 21.5774 4.10055 21.5281 4.16645L21.6622 4.26665ZM21.5814 4.37798C21.5973 4.35347 21.6271 4.31359 21.6622 4.26665L21.5281 4.16645C21.4948 4.21105 21.4607 4.25654 21.441 4.28698L21.5814 4.37798ZM21.5786 4.38237L21.5814 4.37799L21.441 4.28697L21.4382 4.29134L21.5786 4.38237ZM21.5786 4.3857C21.5604 4.3857 21.5458 4.38523 21.5344 4.38437C21.5226 4.38349 21.5157 4.38232 21.5122 4.38146C21.5105 4.38106 21.5103 4.38091 21.5112 4.38127C21.5121 4.38163 21.5147 4.38275 21.5182 4.38514C21.5217 4.3876 21.5263 4.39146 21.5306 4.39715C21.5351 4.40297 21.5385 4.40964 21.5406 4.4167C21.5448 4.43054 21.5426 4.44074 21.5421 4.44278C21.5416 4.44476 21.5416 4.44354 21.5445 4.43775C21.5473 4.43231 21.5514 4.42514 21.5574 4.41547C21.5634 4.40585 21.5703 4.39513 21.5786 4.38237L21.4382 4.29134C21.4228 4.31499 21.4064 4.34016 21.3952 4.36221C21.3866 4.37934 21.3669 4.42006 21.3804 4.46494C21.3969 4.5199 21.4466 4.5378 21.473 4.54415C21.5023 4.55119 21.5387 4.55304 21.5786 4.55304V4.3857ZM21.1699 4.84138C21.2158 4.91134 21.2158 4.91133 21.2158 4.91133C21.2158 4.91133 21.2158 4.91132 21.2158 4.91131C21.2158 4.9113 21.2159 4.91127 21.2159 4.91125C21.216 4.9112 21.2161 4.91112 21.2162 4.91102C21.2165 4.91083 21.217 4.91054 21.2175 4.91018C21.2187 4.90944 21.2203 4.90836 21.2224 4.90696C21.2266 4.90417 21.2327 4.90009 21.2405 4.89493C21.2559 4.88459 21.2777 4.86986 21.3034 4.85218C21.3547 4.81694 21.4218 4.76957 21.4844 4.72191C21.5452 4.67552 21.6073 4.62464 21.6442 4.58298C21.6537 4.5722 21.6635 4.55996 21.6714 4.54685C21.6782 4.53549 21.6892 4.51456 21.6901 4.48823C21.6906 4.47361 21.688 4.45628 21.6789 4.4392C21.6697 4.42199 21.6565 4.4098 21.6431 4.40178C21.6191 4.3874 21.5937 4.3857 21.5786 4.3857V4.55304C21.5833 4.55304 21.572 4.55425 21.5571 4.54531C21.5483 4.54002 21.5383 4.5312 21.5313 4.51794C21.5243 4.5048 21.5226 4.49201 21.5229 4.48248C21.5235 4.46633 21.5297 4.45774 21.528 4.46055C21.5274 4.46161 21.5248 4.46535 21.5189 4.47202C21.4941 4.5001 21.444 4.54223 21.3829 4.58884C21.3234 4.63418 21.2587 4.67982 21.2086 4.71433C21.1836 4.73153 21.1624 4.74586 21.1474 4.75587C21.1399 4.76087 21.134 4.76479 21.13 4.76744C21.128 4.76877 21.1265 4.76978 21.1255 4.77045C21.125 4.77079 21.1246 4.77104 21.1243 4.7712C21.1242 4.77128 21.1241 4.77134 21.1241 4.77138C21.124 4.7714 21.124 4.77141 21.124 4.77142C21.124 4.77142 21.124 4.77142 21.124 4.77142C21.124 4.77142 21.124 4.77142 21.1699 4.84138ZM21.239 5.11359C21.2836 5.04815 21.3111 4.99341 21.3225 4.94647C21.3342 4.89805 21.3307 4.84723 21.2975 4.80743C21.2673 4.77125 21.2265 4.76167 21.2046 4.75877C21.1924 4.75716 21.1818 4.75703 21.1742 4.75727C21.1703 4.75739 21.167 4.75762 21.1644 4.75784C21.1631 4.75796 21.162 4.75807 21.161 4.75818C21.1606 4.75823 21.1601 4.75828 21.1598 4.75833C21.1596 4.75835 21.1594 4.75837 21.1592 4.75839C21.1591 4.7584 21.1591 4.75841 21.159 4.75843C21.1589 4.75843 21.1589 4.75844 21.1589 4.75844C21.1588 4.75845 21.1588 4.75845 21.1699 4.84138C21.181 4.92431 21.1809 4.92431 21.1809 4.92432C21.1809 4.92432 21.1808 4.92433 21.1808 4.92433C21.1807 4.92434 21.1806 4.92435 21.1806 4.92436C21.1805 4.92438 21.1803 4.92439 21.1802 4.9244C21.18 4.92443 21.1798 4.92445 21.1797 4.92447C21.1794 4.9245 21.1792 4.92452 21.1791 4.92453C21.1789 4.92455 21.179 4.92453 21.1794 4.92452C21.1804 4.92449 21.1816 4.92452 21.1826 4.92466C21.1872 4.92526 21.1781 4.92551 21.169 4.91463C21.1569 4.90013 21.1639 4.8901 21.1598 4.9071C21.1553 4.92559 21.1406 4.9609 21.1008 5.01931L21.239 5.11359ZM20.2159 5.55977C20.412 5.50012 20.6348 5.43243 20.821 5.36106C20.9141 5.32539 21.0004 5.28793 21.0708 5.24903C21.1386 5.2116 21.2024 5.1672 21.239 5.11359L21.1008 5.01931C21.0875 5.03872 21.0534 5.06751 20.9899 5.10254C20.9291 5.13611 20.8509 5.17039 20.7611 5.20481C20.5815 5.27364 20.3648 5.33958 20.1672 5.39968L20.2159 5.55977ZM19.7365 5.71892C19.7304 5.73047 19.7239 5.73346 19.7297 5.72932C19.7338 5.72639 19.7415 5.72176 19.754 5.71559C19.779 5.70331 19.8151 5.68885 19.8616 5.67233C19.9542 5.63939 20.0781 5.60169 20.2159 5.55977L20.1672 5.39968C20.0308 5.44116 19.9026 5.48013 19.8055 5.51467C19.7571 5.53188 19.7139 5.54887 19.6802 5.56542C19.6635 5.57366 19.647 5.5828 19.6327 5.59294C19.6202 5.60187 19.601 5.61725 19.5887 5.64045L19.7365 5.71892ZM18.9886 5.98724C19.0911 5.96474 19.2555 5.92868 19.4001 5.88752C19.4721 5.867 19.5418 5.84452 19.5973 5.82096C19.625 5.80923 19.6515 5.79628 19.6738 5.78196C19.6939 5.76906 19.7206 5.74883 19.7365 5.71892L19.5887 5.64045C19.5935 5.63147 19.5967 5.63257 19.5833 5.64118C19.5722 5.64836 19.5552 5.65707 19.532 5.6669C19.4859 5.68647 19.4239 5.70675 19.3543 5.72658C19.2154 5.76611 19.0561 5.80112 18.9527 5.8238L18.9886 5.98724ZM18.8692 5.84749C18.8694 5.84749 18.8735 5.84745 18.8791 5.84826C18.8815 5.84862 18.8884 5.8497 18.8967 5.85294C18.901 5.8546 18.9282 5.86489 18.9424 5.89639C18.9611 5.93789 18.9403 5.97192 18.9311 5.98328C18.9221 5.99435 18.9125 6.00018 18.9099 6.00172C18.9033 6.00574 18.8978 6.00769 18.8975 6.0078C18.895 6.00873 18.8962 6.00815 18.9064 6.00569C18.9234 6.00157 18.9514 5.9954 18.9886 5.98724L18.9527 5.8238C18.9165 5.83175 18.8862 5.8384 18.8669 5.84307C18.859 5.845 18.8476 5.84782 18.839 5.85103C18.8372 5.85172 18.8305 5.85417 18.8232 5.85862C18.8203 5.86038 18.8104 5.86641 18.8013 5.87766C18.7919 5.88921 18.7711 5.9234 18.7898 5.96504C18.8041 5.99669 18.8315 6.00711 18.836 6.00888C18.8446 6.01223 18.8519 6.0134 18.8548 6.01383C18.8614 6.01479 18.8669 6.01483 18.8692 6.01483V5.84749ZM18.919 6.07685C18.9354 6.07685 18.9524 6.0757 18.9683 6.072C18.9816 6.06891 19.0082 6.06095 19.0282 6.03666C19.0546 6.00458 19.0526 5.96645 19.0415 5.94056C19.0325 5.9196 19.0179 5.90569 19.0093 5.89834C18.9904 5.88232 18.9666 5.87036 18.9454 5.86246C18.924 5.85446 18.8968 5.84749 18.8692 5.84749V6.01483C18.8691 6.01483 18.8696 6.01483 18.8707 6.01495C18.8718 6.01508 18.8732 6.0153 18.8749 6.01567C18.8785 6.01643 18.8826 6.01763 18.887 6.01924C18.8969 6.02296 18.9017 6.02651 18.9011 6.026C18.9006 6.02559 18.8989 6.02415 18.8968 6.02156C18.8948 6.01913 18.891 6.01414 18.8877 6.00655C18.8844 5.99879 18.8809 5.98653 18.8823 5.9713C18.8837 5.95522 18.8901 5.94107 18.899 5.93032C18.9072 5.92037 18.9159 5.91512 18.9209 5.91263C18.9259 5.9101 18.9295 5.90922 18.9303 5.90903C18.9317 5.90872 18.9287 5.90951 18.919 5.90951V6.07685ZM18.6299 6.04321C18.6518 6.12395 18.6518 6.12395 18.6518 6.12395C18.6518 6.12395 18.6518 6.12395 18.6518 6.12395C18.6518 6.12396 18.6518 6.12395 18.6518 6.12395C18.6518 6.12395 18.6518 6.12395 18.6519 6.12394C18.6519 6.12392 18.652 6.1239 18.6522 6.12386C18.6525 6.12378 18.6529 6.12366 18.6535 6.12349C18.6548 6.12316 18.6567 6.12266 18.6591 6.12201C18.6641 6.12072 18.6714 6.11885 18.6805 6.1166C18.6987 6.11208 18.724 6.10606 18.7524 6.10005C18.8113 6.0876 18.8761 6.07685 18.919 6.07685V5.90951C18.857 5.90951 18.7772 5.92377 18.7178 5.93634C18.687 5.94284 18.6598 5.94933 18.6402 5.95419C18.6304 5.95662 18.6224 5.95866 18.6169 5.9601C18.6141 5.96083 18.6119 5.9614 18.6104 5.9618C18.6097 5.962 18.6091 5.96216 18.6087 5.96227C18.6085 5.96233 18.6083 5.96237 18.6082 5.96241C18.6081 5.96242 18.6081 5.96244 18.608 5.96245C18.608 5.96245 18.608 5.96246 18.608 5.96246C18.608 5.96246 18.608 5.96246 18.608 5.96246C18.608 5.96247 18.608 5.96247 18.6299 6.04321ZM18.6942 6.21326C18.7216 6.18033 18.7423 6.14772 18.7514 6.11473C18.7616 6.07785 18.7578 6.03698 18.7306 6.00428C18.7077 5.97673 18.6779 5.96724 18.6631 5.96368C18.6545 5.96162 18.647 5.96063 18.6416 5.96013C18.6388 5.95987 18.6364 5.95972 18.6344 5.95964C18.6334 5.9596 18.6326 5.95958 18.6318 5.95956C18.6314 5.95955 18.6311 5.95955 18.6308 5.95955C18.6306 5.95955 18.6305 5.95954 18.6303 5.95954C18.6302 5.95954 18.6302 5.95954 18.6301 5.95954C18.6301 5.95954 18.63 5.95954 18.63 5.95954C18.6299 5.95954 18.6299 5.95954 18.6299 6.04321C18.6299 6.12688 18.6298 6.12688 18.6298 6.12688C18.6298 6.12688 18.6297 6.12688 18.6297 6.12688C18.6296 6.12688 18.6296 6.12688 18.6295 6.12688C18.6294 6.12687 18.6293 6.12687 18.6292 6.12687C18.6289 6.12687 18.6287 6.12687 18.6285 6.12686C18.6281 6.12686 18.6278 6.12684 18.6275 6.12683C18.6269 6.12681 18.6265 6.12678 18.6262 6.12675C18.6256 6.1267 18.6249 6.12662 18.624 6.12638C18.6231 6.12617 18.6206 6.12551 18.6171 6.12373C18.6136 6.12192 18.6077 6.11819 18.6019 6.11127C18.5957 6.10382 18.5915 6.09474 18.59 6.08539C18.5885 6.07664 18.5899 6.07096 18.5902 6.07003C18.5902 6.06982 18.5866 6.08092 18.5656 6.10627L18.6942 6.21326ZM18.4359 6.28373C18.463 6.28667 18.5071 6.29181 18.5514 6.2865C18.5973 6.28099 18.6526 6.26329 18.6942 6.21326L18.5656 6.10627C18.5607 6.11208 18.5522 6.11787 18.5315 6.12035C18.5092 6.12302 18.484 6.12064 18.454 6.11738L18.4359 6.28373ZM18.4855 6.22278C18.4684 6.20214 18.462 6.19205 18.4604 6.18897C18.4595 6.18732 18.4627 6.19271 18.4639 6.20289C18.4654 6.21497 18.4639 6.23601 18.4485 6.2555C18.4347 6.27299 18.418 6.27833 18.4124 6.27981C18.4064 6.28137 18.4031 6.28112 18.4054 6.2811C18.4103 6.28108 18.4186 6.28185 18.4359 6.28373L18.454 6.11738C18.4403 6.11589 18.4211 6.11368 18.4045 6.11377C18.396 6.11382 18.3835 6.1144 18.3701 6.1179C18.357 6.12132 18.3347 6.12973 18.3173 6.15173C18.2983 6.17572 18.2954 6.20272 18.2978 6.22255C18.2999 6.24048 18.3064 6.25541 18.3115 6.26544C18.3219 6.28569 18.3383 6.30744 18.357 6.32988L18.4855 6.22278ZM18.5723 6.4359C18.5869 6.4137 18.5882 6.39076 18.5863 6.3755C18.5846 6.36129 18.58 6.35001 18.5769 6.34342C18.5708 6.33028 18.5621 6.31789 18.555 6.3083C18.54 6.28806 18.5162 6.25956 18.4855 6.22278L18.357 6.32988C18.3894 6.36878 18.4091 6.39252 18.4205 6.40785C18.4265 6.41603 18.4267 6.41725 18.4254 6.4144C18.4247 6.41296 18.4215 6.40598 18.4202 6.39536C18.4188 6.38368 18.4195 6.36361 18.4327 6.34365L18.5723 6.4359ZM18.3701 6.46689C18.4021 6.46689 18.4285 6.47045 18.4514 6.47344C18.4611 6.47472 18.4756 6.47667 18.4881 6.47689C18.4944 6.47699 18.5057 6.47687 18.5184 6.47366C18.5309 6.47049 18.5553 6.46157 18.5723 6.4359L18.4327 6.34365C18.4479 6.32063 18.4692 6.3135 18.4774 6.31143C18.482 6.31025 18.4856 6.30986 18.4875 6.30971C18.4895 6.30956 18.4907 6.30957 18.491 6.30958C18.4913 6.30958 18.4901 6.30956 18.4865 6.30918C18.4831 6.30881 18.4788 6.30827 18.4731 6.30752C18.4506 6.30458 18.4143 6.29955 18.3701 6.29955V6.46689ZM18.1302 6.41304C18.2015 6.43713 18.2868 6.46689 18.3701 6.46689V6.29955C18.3198 6.29955 18.2624 6.28107 18.1838 6.25452L18.1302 6.41304ZM17.8968 6.35999C17.971 6.35999 18.0451 6.38425 18.1302 6.41304L18.1838 6.25452C18.1034 6.22733 18.0031 6.19266 17.8968 6.19266V6.35999ZM18.0436 6.36445C18.0175 6.34892 17.9893 6.33208 17.9634 6.31527C17.9367 6.29784 17.917 6.28329 17.9061 6.27288C17.9002 6.26722 17.9018 6.26736 17.9047 6.27299C17.9078 6.27907 17.9185 6.30584 17.9009 6.33541C17.8867 6.35936 17.8661 6.36284 17.8703 6.36176C17.8717 6.36141 17.8793 6.35999 17.8968 6.35999V6.19266C17.8731 6.19266 17.8498 6.19432 17.8291 6.1996C17.8112 6.20414 17.7773 6.2158 17.757 6.24995C17.7334 6.28972 17.7453 6.3287 17.7553 6.34848C17.7651 6.36782 17.7794 6.38315 17.7903 6.39365C17.8326 6.43424 17.9103 6.47982 17.9581 6.50825L18.0436 6.36445ZM18.0563 6.37201C18.0522 6.36955 18.0479 6.36701 18.0436 6.36445L17.9581 6.50825C17.9624 6.51083 17.9666 6.5133 17.9706 6.5157L18.0563 6.37201ZM17.9 6.58202C17.9412 6.58213 17.9765 6.58225 18.0039 6.58141C18.0269 6.58071 18.0582 6.57935 18.0823 6.5707C18.0914 6.56744 18.1315 6.55229 18.1433 6.50614C18.155 6.4603 18.1275 6.42782 18.1212 6.42058C18.1042 6.40118 18.0772 6.3845 18.0563 6.37201L17.9706 6.5157C17.9813 6.52208 17.9887 6.52687 17.9937 6.53037C17.9995 6.53451 17.9985 6.53448 17.9952 6.53078C17.9935 6.52882 17.9885 6.52286 17.9845 6.51312C17.9801 6.50263 17.9759 6.48524 17.9812 6.46472C17.9864 6.44415 17.9985 6.43082 18.0076 6.4236C18.0159 6.41693 18.0233 6.41409 18.0259 6.41318C18.0307 6.41147 18.0318 6.41191 18.0249 6.41265C18.0192 6.41327 18.0107 6.41379 17.9988 6.41416C17.9749 6.41489 17.9428 6.4148 17.9005 6.41468L17.9 6.58202ZM17.8458 6.58191C17.8651 6.58191 17.8831 6.58197 17.9 6.58202L17.9005 6.41468C17.8836 6.41463 17.8654 6.41458 17.8458 6.41458V6.58191ZM17.6424 6.56606C17.6754 6.57169 17.736 6.58191 17.8458 6.58191V6.41458C17.7483 6.41458 17.6975 6.40572 17.6706 6.40112L17.6424 6.56606ZM17.7058 6.49825C17.7058 6.49201 17.7064 6.49917 17.7037 6.50894C17.702 6.51527 17.6981 6.52575 17.6893 6.53638C17.68 6.54771 17.6684 6.55517 17.6573 6.55942C17.6472 6.56324 17.6389 6.5639 17.6352 6.56405C17.6332 6.56413 17.6316 6.56408 17.6307 6.56404C17.6303 6.56402 17.6299 6.564 17.6297 6.56398C17.6295 6.56396 17.6294 6.56395 17.6293 6.56395C17.6293 6.56395 17.6296 6.56398 17.6303 6.56407C17.6309 6.56416 17.6318 6.56429 17.633 6.56447C17.6354 6.56486 17.6383 6.56536 17.6424 6.56606L17.6706 6.40112C17.664 6.39998 17.6546 6.39833 17.6465 6.39749C17.641 6.39693 17.6202 6.39451 17.5979 6.40298C17.5651 6.41543 17.5486 6.44208 17.5425 6.46413C17.5383 6.47942 17.5385 6.49422 17.5385 6.49825H17.7058ZM17.4224 6.53647C17.4681 6.55254 17.5145 6.56888 17.5494 6.57838C17.5657 6.58281 17.5863 6.58776 17.6055 6.58845C17.6138 6.58875 17.6332 6.58892 17.6537 6.57946C17.6653 6.57411 17.6794 6.56462 17.6904 6.5485C17.7017 6.53192 17.7058 6.51393 17.7058 6.49825H17.5385C17.5385 6.48503 17.542 6.46914 17.5521 6.4543C17.5619 6.43993 17.5743 6.43184 17.5835 6.42755C17.5924 6.42345 17.5999 6.42214 17.6037 6.42165C17.6077 6.42113 17.6105 6.42119 17.6115 6.42122C17.6131 6.42128 17.6084 6.42101 17.5934 6.41692C17.5657 6.40939 17.526 6.39551 17.4778 6.37858L17.4224 6.53647ZM17.1763 6.46689C17.1941 6.46689 17.2279 6.47353 17.2764 6.48781C17.3225 6.5014 17.3733 6.51923 17.4224 6.53647L17.4778 6.37858C17.4296 6.36166 17.3747 6.34233 17.3237 6.32731C17.2751 6.31298 17.2207 6.29955 17.1763 6.29955V6.46689ZM17.4357 6.59627C17.4765 6.52321 17.4765 6.52321 17.4765 6.52321C17.4765 6.52321 17.4765 6.52321 17.4765 6.52321C17.4765 6.52321 17.4765 6.5232 17.4765 6.52319C17.4764 6.52317 17.4764 6.52314 17.4763 6.5231C17.4761 6.52301 17.4759 6.52287 17.4756 6.52269C17.4749 6.52232 17.4739 6.52175 17.4726 6.521C17.4699 6.51951 17.466 6.5173 17.461 6.51446C17.4511 6.50879 17.437 6.50067 17.4205 6.49091C17.3872 6.47128 17.3447 6.44551 17.3064 6.42006C17.2657 6.39301 17.2374 6.3713 17.2264 6.35951C17.224 6.35696 17.2257 6.35816 17.2281 6.3627C17.2296 6.36534 17.2398 6.38389 17.234 6.41022C17.2269 6.44295 17.2026 6.45833 17.1899 6.46337C17.1795 6.46752 17.1729 6.46689 17.1763 6.46689V6.29955C17.1644 6.29955 17.1464 6.30059 17.1281 6.30786C17.1076 6.31602 17.0789 6.33597 17.0705 6.37453C17.0635 6.40668 17.0755 6.43231 17.0814 6.44307C17.0883 6.45572 17.097 6.46607 17.1039 6.47351C17.1301 6.50167 17.1743 6.53323 17.2138 6.55944C17.2557 6.58725 17.301 6.61474 17.3355 6.63506C17.3528 6.64528 17.3676 6.6538 17.3781 6.65978C17.3833 6.66277 17.3875 6.66513 17.3904 6.66676C17.3918 6.66757 17.3929 6.6682 17.3937 6.66864C17.3941 6.66885 17.3944 6.66902 17.3946 6.66914C17.3947 6.6692 17.3948 6.66924 17.3949 6.66928C17.3949 6.66929 17.3949 6.66931 17.3949 6.66932C17.3949 6.66932 17.3949 6.66933 17.395 6.66933C17.395 6.66933 17.395 6.66934 17.4357 6.59627ZM17.0976 6.57576C17.1554 6.59923 17.2353 6.62469 17.2987 6.64378C17.3308 6.65346 17.3595 6.66173 17.3801 6.6676C17.3904 6.67053 17.3988 6.67286 17.4046 6.67447C17.4075 6.67527 17.4097 6.6759 17.4113 6.67632C17.412 6.67653 17.4126 6.6767 17.413 6.67681C17.4132 6.67687 17.4134 6.67691 17.4135 6.67694C17.4136 6.67695 17.4136 6.67697 17.4136 6.67697C17.4137 6.67698 17.4137 6.67698 17.4137 6.67698C17.4137 6.67699 17.4137 6.67699 17.4137 6.67699C17.4137 6.67699 17.4137 6.67699 17.4357 6.59627C17.4578 6.51556 17.4578 6.51556 17.4578 6.51556C17.4578 6.51556 17.4578 6.51556 17.4578 6.51556C17.4578 6.51556 17.4577 6.51556 17.4577 6.51555C17.4577 6.51555 17.4577 6.51554 17.4577 6.51553C17.4576 6.51551 17.4574 6.51547 17.4573 6.51542C17.4569 6.51533 17.4564 6.51518 17.4557 6.51499C17.4542 6.5146 17.4521 6.51401 17.4494 6.51324C17.4439 6.51171 17.4358 6.50946 17.4258 6.50662C17.4058 6.50094 17.378 6.49292 17.3469 6.48356C17.2839 6.46457 17.2105 6.44102 17.1606 6.42073L17.0976 6.57576ZM17.2857 6.65035C17.2495 6.59578 17.2155 6.54431 17.1974 6.50969C17.1931 6.5014 17.1907 6.49595 17.1896 6.49293C17.1877 6.48784 17.1909 6.49394 17.1906 6.50584C17.1905 6.51261 17.189 6.52686 17.1796 6.54222C17.1688 6.55961 17.1524 6.57084 17.1355 6.57569C17.1209 6.57989 17.1094 6.57843 17.1049 6.57765C17.1023 6.57719 17.1003 6.57665 17.0993 6.57633C17.0987 6.57616 17.0983 6.57601 17.098 6.57592C17.0978 6.57582 17.0976 6.57577 17.0976 6.57576L17.1606 6.42073C17.1508 6.41674 17.122 6.40546 17.0892 6.41488C17.0688 6.42077 17.0497 6.43399 17.0372 6.45427C17.0259 6.47251 17.0236 6.49052 17.0233 6.50187C17.0228 6.52293 17.0291 6.54143 17.0328 6.55138C17.0372 6.56341 17.0431 6.57563 17.049 6.58707C17.0721 6.63137 17.1122 6.69152 17.1462 6.74284L17.2857 6.65035ZM17.2987 6.93451C17.3127 6.93451 17.334 6.93111 17.3536 6.91545C17.3737 6.8995 17.382 6.87887 17.385 6.86377C17.3899 6.83901 17.383 6.81802 17.381 6.81208C17.3754 6.79485 17.3655 6.77651 17.3571 6.76204C17.339 6.73075 17.3117 6.68965 17.2857 6.65035L17.1462 6.74284C17.1735 6.78395 17.1973 6.81998 17.2122 6.84571C17.2203 6.85975 17.2222 6.86489 17.222 6.86402C17.2217 6.86327 17.2208 6.86045 17.2202 6.85613C17.2196 6.85239 17.2185 6.84316 17.2208 6.83125C17.2234 6.81833 17.2308 6.79936 17.2494 6.78453C17.2677 6.77 17.287 6.76717 17.2987 6.76717V6.93451ZM17.1823 6.89999C17.2004 6.90733 17.2198 6.91522 17.2367 6.92119C17.2495 6.92573 17.2746 6.93451 17.2987 6.93451V6.76717C17.3055 6.76717 17.3087 6.76841 17.3052 6.76751C17.3028 6.76689 17.2987 6.76564 17.2925 6.76344C17.2799 6.75899 17.2643 6.75268 17.2451 6.74489L17.1823 6.89999ZM17.1248 6.80458C17.1248 6.81093 17.1232 6.82422 17.1133 6.83797C17.1033 6.85194 17.0904 6.85835 17.0823 6.8609C17.0707 6.86451 17.067 6.86119 17.0814 6.86421C17.106 6.86943 17.1414 6.88345 17.1823 6.89999L17.2451 6.74489C17.2093 6.73038 17.1584 6.70946 17.1159 6.70049C17.0967 6.69643 17.0642 6.69121 17.0323 6.70121C17.014 6.70695 16.993 6.71862 16.9774 6.7403C16.962 6.76176 16.9574 6.78522 16.9574 6.80458H17.1248ZM17.2368 6.85583C17.1969 6.85583 17.165 6.84503 17.1455 6.83182C17.1263 6.8188 17.1248 6.80834 17.1248 6.80458H16.9574C16.9574 6.87823 16.9999 6.93522 17.0516 6.97031C17.1031 7.00521 17.169 7.02317 17.2368 7.02317V6.85583ZM17.2987 7.14406C17.3456 7.14406 17.3859 7.11914 17.406 7.07856C17.4236 7.04287 17.4215 7.00419 17.4115 6.9738C17.39 6.90864 17.3262 6.85583 17.2368 6.85583V7.02317C17.2475 7.02317 17.2515 7.02595 17.2521 7.02639C17.2533 7.02725 17.253 7.02761 17.2525 7.02609C17.2525 7.02592 17.2495 7.01746 17.256 7.00444C17.2595 6.99727 17.2657 6.98953 17.2749 6.98386C17.2842 6.97818 17.293 6.97672 17.2987 6.97672V7.14406ZM17.1997 7.12496C17.2218 7.13145 17.2619 7.14406 17.2987 7.14406V6.97672C17.2913 6.97672 17.2771 6.97332 17.2471 6.96445L17.1997 7.12496ZM17.2128 7.06039C17.2128 7.06334 17.2118 7.08227 17.1938 7.09892C17.1773 7.11421 17.1604 7.11445 17.1593 7.11447C17.1576 7.1145 17.16 7.11432 17.1689 7.11641C17.1773 7.11837 17.1869 7.12118 17.1997 7.12496L17.2471 6.96445C17.2278 6.95878 17.1897 6.9466 17.1564 6.94716C17.1379 6.94747 17.1066 6.95163 17.0801 6.97619C17.0521 7.00212 17.0454 7.03569 17.0454 7.06039H17.2128ZM17.2322 7.0774C17.2265 7.07108 17.2223 7.06643 17.2186 7.06207C17.215 7.05781 17.213 7.05509 17.2119 7.05336C17.2109 7.05173 17.2111 7.05182 17.2117 7.05334C17.2123 7.05508 17.2128 7.0576 17.2128 7.06039H17.0454C17.0454 7.12689 17.0925 7.17249 17.1085 7.19008L17.2322 7.0774ZM17.3205 7.27927C17.3205 7.17246 17.2638 7.11204 17.2322 7.0774L17.1085 7.19008C17.1244 7.20747 17.1344 7.21896 17.1418 7.23233C17.1482 7.24389 17.1532 7.25807 17.1532 7.27927H17.3205ZM17.0584 7.29472C17.0405 7.32301 17.0132 7.38769 17.063 7.4403C17.1038 7.48331 17.1603 7.47557 17.1866 7.46792C17.2526 7.44871 17.3205 7.38248 17.3205 7.27927H17.1532C17.1532 7.29182 17.1495 7.29821 17.1469 7.30149C17.1453 7.30347 17.1436 7.30496 17.1421 7.306C17.1405 7.3071 17.1395 7.30735 17.1399 7.30725C17.1401 7.30719 17.1409 7.30696 17.1424 7.3068C17.1439 7.30665 17.1464 7.30652 17.1499 7.30694C17.1562 7.30767 17.171 7.31099 17.1845 7.32522C17.1997 7.34123 17.2031 7.3605 17.202 7.37336C17.201 7.38397 17.1974 7.38801 17.1998 7.38416L17.0584 7.29472ZM17.0303 7.15382C17.0303 7.15633 17.029 7.18457 16.9994 7.20214C16.987 7.2095 16.9755 7.21093 16.9689 7.21101C16.9626 7.21108 16.9589 7.20994 16.9588 7.20989C16.9587 7.20988 16.9633 7.21149 16.9724 7.21742C16.9808 7.22294 16.9906 7.23061 17.0008 7.24002C17.0219 7.25951 17.0392 7.2816 17.0481 7.29927C17.0595 7.32176 17.0468 7.31308 17.0584 7.29472L17.1998 7.38416C17.2377 7.32422 17.2154 7.25928 17.1975 7.22382C17.1771 7.18354 17.1456 7.146 17.1144 7.11721C17.0849 7.08988 17.0459 7.06121 17.0064 7.04948C16.9882 7.04408 16.9506 7.03651 16.914 7.05822C16.8717 7.08329 16.863 7.12675 16.863 7.15382H17.0303ZM17.0303 7.27927V7.15382H16.863V7.27927H17.0303ZM16.9173 7.46307C16.9291 7.45976 16.9737 7.4502 17.0023 7.40706C17.0263 7.37088 17.0303 7.32455 17.0303 7.27927H16.863C16.863 7.29879 16.8619 7.31027 16.8607 7.31658C16.8596 7.3229 16.8591 7.32032 16.8629 7.31459C16.8649 7.31154 16.8676 7.30841 16.8709 7.30558C16.8742 7.30282 16.8771 7.30112 16.8789 7.3002C16.8806 7.29938 16.8813 7.29923 16.88 7.29965C16.8785 7.30015 16.8766 7.3007 16.8722 7.30191L16.9173 7.46307ZM16.8866 7.47959C16.8929 7.4729 16.8973 7.47025 16.9001 7.46887C16.9037 7.46707 16.9073 7.46586 16.9173 7.46307L16.8722 7.30191C16.8484 7.30859 16.8062 7.3204 16.7642 7.36558L16.8866 7.47959ZM16.8587 7.52139C16.8597 7.51701 16.8601 7.51544 16.8621 7.51155C16.8647 7.50666 16.8711 7.49626 16.8866 7.47959L16.7642 7.36558C16.7408 7.39068 16.7248 7.41306 16.714 7.43382C16.7025 7.45558 16.6984 7.47255 16.6962 7.48148L16.8587 7.52139ZM16.7456 7.60122C16.7533 7.60122 16.7626 7.60106 16.7718 7.59996C16.7803 7.59895 16.7964 7.59636 16.813 7.58663C16.8329 7.57496 16.8447 7.55847 16.8513 7.54384C16.8561 7.53324 16.8585 7.52216 16.8587 7.5214L16.6962 7.48148C16.6947 7.48731 16.6958 7.48154 16.6987 7.47519C16.7034 7.46482 16.7126 7.45153 16.7284 7.44225C16.741 7.4349 16.7515 7.43386 16.752 7.43381C16.7531 7.43368 16.7519 7.43388 16.7456 7.43388V7.60122ZM16.6108 7.49875C16.6219 7.5155 16.6364 7.53777 16.6519 7.555C16.6661 7.5708 16.6974 7.60122 16.7456 7.60122V7.43388C16.7586 7.43388 16.7683 7.4382 16.7733 7.44124C16.7775 7.44382 16.7785 7.44554 16.7763 7.44307C16.7742 7.44079 16.7711 7.43685 16.7664 7.43019C16.7617 7.42357 16.7567 7.41596 16.7503 7.40639L16.6108 7.49875ZM16.4584 7.35823C16.5331 7.38442 16.5725 7.44089 16.6108 7.49875L16.7503 7.40639C16.7129 7.34987 16.6468 7.24699 16.5138 7.20032L16.4584 7.35823ZM16.4552 7.33011C16.4564 7.3243 16.4571 7.32092 16.4578 7.31813C16.4585 7.31542 16.4587 7.31543 16.4581 7.31681C16.4575 7.31831 16.4555 7.32261 16.4513 7.3277C16.4467 7.33318 16.4407 7.33821 16.4335 7.3418C16.4199 7.3486 16.4111 7.34605 16.4176 7.34687C16.4236 7.34764 16.4361 7.35039 16.4584 7.35823L16.5138 7.20032C16.4868 7.19085 16.4616 7.18377 16.4386 7.18086C16.4162 7.17802 16.387 7.17797 16.3586 7.19214C16.3276 7.20765 16.3117 7.23292 16.3036 7.25261C16.2966 7.26942 16.2931 7.28778 16.2914 7.29625L16.4552 7.33011ZM16.3564 7.49089C16.4339 7.43604 16.4478 7.36591 16.4552 7.33011L16.2914 7.29625C16.2879 7.31286 16.2858 7.32167 16.2817 7.32996C16.2785 7.33666 16.2729 7.34499 16.2597 7.35429L16.3564 7.49089ZM16.3395 7.4666C16.3362 7.46305 16.3344 7.46112 16.3329 7.45944C16.3315 7.45786 16.3317 7.45789 16.3325 7.45908C16.3343 7.46189 16.3405 7.47296 16.3394 7.48919C16.3383 7.50455 16.3314 7.51209 16.3328 7.51043C16.3344 7.50848 16.3406 7.50206 16.3564 7.49089L16.2597 7.35429C16.238 7.36966 16.2187 7.38589 16.2038 7.40382C16.1888 7.42204 16.1746 7.44668 16.1725 7.47747C16.1702 7.50913 16.1816 7.53396 16.192 7.54996C16.2012 7.56421 16.2129 7.57625 16.2178 7.58141L16.3395 7.4666ZM16.3917 7.5793C16.3917 7.51719 16.35 7.47772 16.3395 7.4666L16.2178 7.58141C16.2215 7.58538 16.2237 7.58771 16.2256 7.5899C16.2273 7.59193 16.2278 7.59271 16.2277 7.59259C16.2276 7.59236 16.2267 7.59087 16.2258 7.58827C16.2249 7.58552 16.2244 7.5824 16.2244 7.5793H16.3917ZM16.0932 7.42259C16.0932 7.46361 16.1075 7.50242 16.1228 7.53246C16.1387 7.56363 16.1594 7.59268 16.1804 7.61586C16.1988 7.63612 16.2265 7.66226 16.2586 7.67411C16.2738 7.67971 16.3134 7.69034 16.351 7.66353C16.3881 7.63706 16.3917 7.59646 16.3917 7.5793H16.2244C16.2244 7.57881 16.2239 7.54863 16.2539 7.52727C16.2843 7.50557 16.3136 7.51602 16.3165 7.51709C16.3241 7.51988 16.319 7.51956 16.3045 7.50357C16.2927 7.4905 16.2806 7.4735 16.2719 7.45643C16.2626 7.43823 16.2605 7.4266 16.2605 7.42259H16.0932ZM16.1113 7.27927C16.1113 7.28456 16.1096 7.31143 16.0828 7.33065C16.0583 7.34819 16.0349 7.34308 16.0319 7.34237C16.0254 7.34086 16.0314 7.34126 16.0469 7.35493C16.0599 7.36644 16.073 7.38148 16.0822 7.3965C16.0867 7.40386 16.0896 7.41022 16.0914 7.41524C16.0931 7.42035 16.0932 7.42269 16.0932 7.42259H16.2605C16.2605 7.37852 16.243 7.33871 16.2249 7.30917C16.2061 7.27847 16.1818 7.25082 16.1576 7.22943C16.1358 7.21021 16.1045 7.18751 16.07 7.17945C16.053 7.17546 16.018 7.17121 15.9854 7.19459C15.9503 7.21966 15.944 7.25734 15.944 7.27927H16.1113ZM15.951 7.50625C15.9846 7.50625 16.0179 7.49756 16.0461 7.47606C16.0736 7.45506 16.0887 7.42759 16.0971 7.40344C16.1123 7.35977 16.1113 7.30812 16.1113 7.27927H15.944C15.944 7.29649 15.9439 7.3107 15.943 7.32372C15.942 7.33691 15.9404 7.3445 15.9391 7.34837C15.9379 7.35172 15.9386 7.34759 15.9445 7.34306C15.9511 7.33802 15.9556 7.33892 15.951 7.33892V7.50625ZM15.9943 7.47979C15.9949 7.47136 15.9951 7.46841 15.9954 7.46663C15.9956 7.46493 15.9951 7.47048 15.9908 7.47826C15.9854 7.48785 15.9765 7.49673 15.9653 7.50206C15.9559 7.50658 15.9494 7.50625 15.951 7.50625V7.33892C15.934 7.33892 15.9136 7.34137 15.8934 7.35098C15.8715 7.36141 15.8553 7.3777 15.8447 7.39658C15.8352 7.41363 15.8317 7.43032 15.83 7.44118C15.8283 7.45194 15.8277 7.46295 15.8273 7.46944L15.9943 7.47979ZM15.9041 7.64925C15.943 7.62372 15.9669 7.59144 15.98 7.55681C15.992 7.5251 15.9934 7.4946 15.9943 7.47979L15.8273 7.46944C15.8262 7.48676 15.8253 7.4928 15.8236 7.49752C15.8229 7.49916 15.8222 7.50046 15.8211 7.50183C15.82 7.50324 15.8175 7.50591 15.8123 7.50936L15.9041 7.64925ZM15.7306 7.55216C15.7301 7.55946 15.7292 7.57284 15.7298 7.58491C15.7301 7.59131 15.731 7.60139 15.7344 7.61258C15.7378 7.62383 15.7451 7.6412 15.7617 7.65606C15.8001 7.69034 15.8447 7.6779 15.8582 7.67324C15.8751 7.66743 15.8911 7.65779 15.9041 7.64925L15.8123 7.50936C15.8016 7.51638 15.7999 7.51634 15.8037 7.51503C15.8041 7.51488 15.8403 7.50184 15.8733 7.53132C15.8872 7.54377 15.8926 7.55767 15.8947 7.56452C15.8967 7.5713 15.8969 7.57603 15.8969 7.57623C15.8969 7.57683 15.8969 7.57621 15.897 7.57341C15.8971 7.57067 15.8973 7.56743 15.8976 7.56263L15.7306 7.55216ZM15.717 7.47436C15.7321 7.49357 15.7329 7.51585 15.7306 7.55216L15.8976 7.56263C15.8997 7.52918 15.9071 7.44532 15.8484 7.37081L15.717 7.47436ZM15.7177 7.19434C15.7083 7.2165 15.6899 7.25907 15.6816 7.30558C15.6735 7.35148 15.6724 7.4178 15.717 7.47436L15.8484 7.37081C15.8468 7.36875 15.8419 7.36039 15.8464 7.33472C15.8508 7.30968 15.8615 7.2838 15.8717 7.25983L15.7177 7.19434ZM15.8385 7.27505C15.8459 7.26843 15.8463 7.26869 15.8429 7.27077C15.8417 7.27156 15.8388 7.27327 15.8347 7.27507C15.8312 7.27664 15.823 7.27996 15.8117 7.28119C15.8001 7.28245 15.7795 7.28198 15.7587 7.2687C15.7372 7.25496 15.7276 7.23527 15.7238 7.22168C15.7203 7.20922 15.7207 7.19907 15.721 7.19464C15.7214 7.18956 15.7222 7.18577 15.7226 7.18402C15.7233 7.18063 15.7241 7.17887 15.7236 7.18006C15.7228 7.18233 15.7212 7.18621 15.7177 7.19434L15.8717 7.25983C15.8745 7.25332 15.8781 7.24481 15.8808 7.23755C15.8821 7.23396 15.8841 7.22815 15.8856 7.2215C15.8862 7.21887 15.8913 7.19933 15.8849 7.17649C15.8809 7.16209 15.8709 7.14182 15.8488 7.12771C15.8275 7.11407 15.8062 7.11347 15.7936 7.11483C15.7725 7.11713 15.7574 7.12692 15.7544 7.12876C15.7441 7.13517 15.7341 7.14385 15.7269 7.15032L15.8385 7.27505ZM15.5489 7.36294C15.6099 7.36295 15.7372 7.36563 15.8385 7.27505L15.7269 7.15032C15.6792 7.19298 15.6165 7.19562 15.549 7.19561L15.5489 7.36294ZM15.5464 7.36294L15.5489 7.36294L15.549 7.19561L15.5464 7.19561L15.5464 7.36294ZM15.5306 7.39151C15.5357 7.38517 15.5401 7.37975 15.5447 7.37459C15.5493 7.36947 15.553 7.3657 15.5561 7.36304C15.5593 7.36029 15.5604 7.35991 15.5594 7.36038C15.5582 7.36097 15.5536 7.36294 15.5464 7.36294V7.19561C15.5003 7.19561 15.4659 7.21983 15.4468 7.2364C15.4266 7.25377 15.41 7.2745 15.4008 7.28586L15.5306 7.39151ZM15.3503 7.33944C15.3503 7.34937 15.3505 7.36979 15.3582 7.38948C15.3624 7.40009 15.373 7.4216 15.398 7.43552C15.426 7.45109 15.4535 7.4473 15.4701 7.44145C15.4849 7.43625 15.4953 7.42826 15.5001 7.42426C15.5058 7.41961 15.5104 7.41489 15.5136 7.41144C15.5198 7.40478 15.5262 7.39687 15.5305 7.39151L15.4008 7.28586C15.3952 7.29269 15.3927 7.29574 15.3911 7.29748C15.3904 7.29823 15.3914 7.29707 15.3937 7.29516C15.3952 7.29391 15.4025 7.28786 15.4146 7.28361C15.4285 7.27872 15.4536 7.27492 15.4795 7.28932C15.5024 7.30208 15.5112 7.32128 15.514 7.32827C15.5189 7.3407 15.5176 7.34862 15.5176 7.33944H15.3503ZM15.7082 6.97672C15.584 6.97672 15.4934 7.04737 15.4376 7.12011C15.4094 7.15682 15.3881 7.19622 15.3738 7.23273C15.3599 7.26789 15.3503 7.30587 15.3503 7.33944H15.5176C15.5176 7.33455 15.5199 7.31841 15.5295 7.29404C15.5385 7.27101 15.5523 7.24546 15.5703 7.22202C15.6068 7.17447 15.6533 7.14406 15.7082 7.14406V6.97672ZM15.9283 6.90341C15.8734 6.94072 15.821 6.97672 15.7082 6.97672V7.14406C15.8713 7.14406 15.9579 7.08562 16.0223 7.04179L15.9283 6.90341ZM15.988 6.86584C15.9659 6.87773 15.9454 6.89179 15.9283 6.90341L16.0223 7.04179C16.0408 7.02921 16.0542 7.02024 16.0673 7.01316L15.988 6.86584ZM15.9125 6.87888C15.9301 6.88802 15.9462 6.8972 15.9594 6.90604C15.9734 6.91544 15.9799 6.92177 15.9819 6.9242C15.9846 6.92758 15.9718 6.9139 15.9769 6.88948C15.9819 6.86558 15.9981 6.86039 15.988 6.86584L16.0673 7.01316C16.0956 6.99796 16.1309 6.97054 16.1407 6.92367C16.1506 6.87629 16.1282 6.83891 16.1118 6.81869C16.0802 6.77988 16.0268 6.74962 15.9894 6.73029L15.9125 6.87888ZM15.8771 6.64111C15.8631 6.67113 15.8494 6.70908 15.8464 6.74666C15.8436 6.78209 15.8499 6.84647 15.9125 6.87888L15.9894 6.73029C15.9944 6.73285 15.9993 6.7366 16.0035 6.74146C16.0076 6.74622 16.01 6.75094 16.0114 6.7546C16.0139 6.76118 16.0129 6.764 16.0132 6.75977C16.0135 6.75603 16.0147 6.74962 16.0175 6.74059C16.0202 6.73178 16.024 6.72194 16.0288 6.71171L15.8771 6.64111ZM15.9929 6.74993C16.0182 6.73619 16.0446 6.71867 16.0659 6.69704C16.0859 6.67668 16.1113 6.64239 16.1113 6.59627H15.944C15.944 6.58732 15.9466 6.58122 15.9478 6.57884C15.9489 6.57671 15.9492 6.5771 15.9466 6.5797C15.9412 6.58523 15.9303 6.59352 15.913 6.60288L15.9929 6.74993ZM16.1113 6.59627C16.1113 6.58689 16.1106 6.56198 16.0938 6.53841C16.0841 6.52469 16.0695 6.51243 16.0503 6.50588C16.032 6.49963 16.0153 6.50054 16.0034 6.50296C15.982 6.5073 15.9669 6.51831 15.9602 6.5235C15.9519 6.52998 15.9448 6.53717 15.939 6.54354C15.917 6.56803 15.8941 6.60462 15.8771 6.64111L16.0288 6.71171C16.0409 6.6858 16.0553 6.66446 16.0633 6.65555C16.0651 6.65357 16.0651 6.65394 16.0631 6.65545C16.0628 6.65567 16.0534 6.66356 16.0367 6.66694C16.0272 6.66888 16.0126 6.66985 15.9962 6.66423C15.9789 6.65832 15.9659 6.64728 15.9575 6.6354C15.9433 6.6155 15.944 6.59673 15.944 6.59627H16.1113ZM15.7827 6.81085C15.8433 6.81085 15.9296 6.78427 15.9929 6.74993L15.913 6.60288C15.866 6.6284 15.8073 6.64352 15.7827 6.64352V6.81085ZM15.722 6.55487C15.7074 6.59062 15.689 6.63433 15.6818 6.66911C15.6786 6.68443 15.6732 6.71592 15.6859 6.74748C15.6935 6.76615 15.7071 6.78417 15.7278 6.79641C15.7474 6.80796 15.7674 6.81085 15.7827 6.81085V6.64352C15.7878 6.64352 15.7996 6.64445 15.8129 6.65229C15.8273 6.6608 15.8365 6.67333 15.8411 6.68493C15.8452 6.69506 15.8452 6.7027 15.8452 6.70441C15.8452 6.70646 15.845 6.70636 15.8456 6.70329C15.8469 6.69686 15.8501 6.68643 15.8559 6.67073C15.8616 6.65543 15.8687 6.63824 15.8768 6.61838L15.722 6.55487ZM15.7745 6.38322C15.7745 6.40032 15.7697 6.42488 15.7593 6.45708C15.7492 6.48853 15.7358 6.52131 15.722 6.55487L15.8768 6.61838C15.8901 6.58592 15.9061 6.54709 15.9186 6.5084C15.9308 6.47044 15.9418 6.42631 15.9418 6.38322H15.7745ZM15.7957 6.22311C15.7879 6.25756 15.7745 6.31557 15.7745 6.38322H15.9418C15.9418 6.33624 15.9511 6.2946 15.9589 6.26014L15.7957 6.22311ZM15.9067 6.27024C15.9094 6.26834 15.91 6.26804 15.9092 6.2685C15.909 6.26857 15.9035 6.27176 15.8943 6.27374C15.8851 6.2757 15.8625 6.27843 15.8386 6.26415C15.8142 6.2495 15.8057 6.22739 15.803 6.21681C15.8004 6.20676 15.8009 6.19944 15.801 6.19871C15.8011 6.19713 15.8012 6.19703 15.8008 6.19931C15.8 6.20418 15.7984 6.21114 15.7957 6.22311L15.9589 6.26014C15.9612 6.24984 15.964 6.23774 15.9658 6.22729C15.9668 6.22113 15.971 6.19866 15.9652 6.17559C15.9616 6.16136 15.9515 6.13667 15.9246 6.12057C15.8983 6.10485 15.8725 6.10726 15.8592 6.11012C15.8363 6.11503 15.8177 6.12818 15.8096 6.13392L15.9067 6.27024ZM15.4315 6.25968C15.5065 6.27071 15.6022 6.28478 15.6844 6.29225C15.7254 6.29597 15.7655 6.29829 15.7993 6.2974C15.8162 6.29696 15.8335 6.29568 15.8497 6.2927C15.864 6.29008 15.8865 6.28462 15.9067 6.27024L15.8096 6.13392C15.8195 6.12694 15.8259 6.12694 15.8195 6.12812C15.815 6.12895 15.8071 6.1298 15.7949 6.13012C15.7707 6.13076 15.7381 6.1291 15.6996 6.1256C15.6228 6.11863 15.5319 6.10532 15.4558 6.09413L15.4315 6.25968ZM15.3078 6.24343C15.3077 6.24343 15.3086 6.24344 15.3109 6.24359C15.3131 6.24374 15.316 6.24398 15.3196 6.24435C15.327 6.24509 15.3363 6.24622 15.3477 6.24772C15.3704 6.25071 15.3989 6.25489 15.4315 6.25968L15.4558 6.09413C15.4236 6.0894 15.3938 6.08501 15.3695 6.08182C15.3473 6.07889 15.3239 6.0761 15.3078 6.0761V6.24343ZM15.2504 6.03251C15.2405 6.05191 15.2248 6.08216 15.2171 6.10795C15.2141 6.11821 15.2061 6.1461 15.2153 6.17637C15.221 6.19497 15.2332 6.21455 15.2542 6.2281C15.2738 6.24073 15.2939 6.24343 15.3078 6.24343V6.0761C15.3147 6.0761 15.3293 6.0774 15.3448 6.08741C15.3618 6.09834 15.3713 6.11406 15.3755 6.12777C15.3791 6.13972 15.3784 6.14889 15.3781 6.15182C15.3777 6.15526 15.3772 6.15677 15.3775 6.15564C15.3782 6.15318 15.3803 6.14779 15.3846 6.13849C15.3888 6.12955 15.3937 6.11972 15.3996 6.10829L15.2504 6.03251ZM15.3433 6.06897C15.35 6.06584 15.3528 6.06505 15.3526 6.06508C15.3524 6.06513 15.3506 6.06562 15.3475 6.06593C15.3445 6.06622 15.3389 6.06649 15.3317 6.06527C15.3147 6.06238 15.2933 6.05161 15.2804 6.02887C15.27 6.01052 15.2711 5.99443 15.2714 5.9908C15.272 5.98403 15.2734 5.98401 15.2681 5.99625C15.2637 6.00619 15.2578 6.01792 15.2504 6.03251L15.3996 6.10829C15.4064 6.09484 15.4147 6.07857 15.4213 6.06337C15.427 6.05048 15.4362 6.02817 15.4382 6.00479C15.4392 5.99285 15.4393 5.96987 15.426 5.9464C15.4103 5.91854 15.384 5.90441 15.3597 5.90029C15.339 5.89679 15.3208 5.90037 15.3093 5.90346C15.2966 5.90685 15.2842 5.91188 15.2724 5.91739L15.3433 6.06897ZM14.8066 6.12727C14.8807 6.12799 14.9799 6.129 15.0755 6.12274C15.1682 6.11668 15.2699 6.10326 15.3433 6.06897L15.2724 5.91739C15.2299 5.93727 15.1559 5.94979 15.0646 5.95576C14.9762 5.96154 14.8832 5.96068 14.8082 5.95995L14.8066 6.12727ZM14.7487 6.12688C14.7655 6.12688 14.7849 6.12706 14.8066 6.12727L14.8082 5.95995C14.7867 5.95974 14.7665 5.95954 14.7487 5.95954V6.12688ZM14.6919 5.88689C14.6842 5.89527 14.6724 5.90798 14.6615 5.92164C14.6515 5.93424 14.6372 5.95356 14.6285 5.97588C14.6205 5.99635 14.6074 6.04696 14.6469 6.08946C14.6786 6.12364 14.7235 6.12688 14.7487 6.12688V5.95954C14.7424 5.95954 14.7419 5.95889 14.7449 5.95973C14.7479 5.96056 14.7588 5.96411 14.7695 5.97561C14.7814 5.98847 14.7865 6.00414 14.787 6.01732C14.7875 6.02857 14.7847 6.0358 14.7843 6.03702C14.7836 6.03879 14.7848 6.03539 14.7923 6.02605C14.7989 6.01778 14.8066 6.00935 14.8149 6.00035L14.6919 5.88689ZM14.7884 6.00479C14.7966 6.00037 14.797 6.00063 14.7936 6.00183C14.7923 6.00227 14.7892 6.00332 14.7849 6.00422C14.7816 6.00492 14.7719 6.0068 14.7592 6.00527C14.7462 6.00369 14.7189 5.99676 14.7004 5.96908C14.6829 5.94291 14.686 5.91692 14.688 5.90689C14.6902 5.896 14.6941 5.88832 14.6956 5.88557C14.6974 5.8821 14.6991 5.87966 14.6998 5.87863C14.7012 5.8766 14.702 5.87573 14.7012 5.87669C14.6996 5.87854 14.697 5.88143 14.6919 5.88689L14.8149 6.00035C14.8191 5.99588 14.8244 5.99008 14.8287 5.985C14.8309 5.9825 14.8341 5.97861 14.8372 5.97408C14.8381 5.97282 14.8482 5.95926 14.8521 5.93992C14.8542 5.92919 14.8573 5.90264 14.8395 5.87606C14.8207 5.84799 14.793 5.8408 14.7793 5.83914C14.7571 5.83646 14.7391 5.8436 14.7377 5.84409C14.7276 5.84769 14.7169 5.85323 14.709 5.85753L14.7884 6.00479ZM14.4714 6.07685C14.58 6.07685 14.6834 6.06146 14.7884 6.00479L14.709 5.85753C14.6362 5.89679 14.5628 5.90951 14.4714 5.90951V6.07685ZM14.3267 5.98747C14.3323 5.99733 14.3461 6.02333 14.3707 6.04348C14.3991 6.06682 14.4335 6.07685 14.4714 6.07685V5.90951C14.4671 5.90951 14.4667 5.90897 14.4688 5.90963C14.4712 5.91041 14.4742 5.91197 14.4769 5.91417C14.4792 5.91609 14.4799 5.91733 14.4788 5.91587C14.4775 5.91391 14.4759 5.91122 14.472 5.90444L14.3267 5.98747ZM14.2825 5.96686C14.2972 5.96676 14.3061 5.96823 14.311 5.96951C14.3134 5.97013 14.3149 5.97071 14.3156 5.97103C14.316 5.9712 14.3162 5.97133 14.3163 5.9714C14.3164 5.97147 14.3165 5.97151 14.3165 5.97152C14.3165 5.97152 14.3165 5.97152 14.3165 5.97153C14.3165 5.97154 14.3166 5.97158 14.3167 5.97167C14.3169 5.97186 14.3173 5.97235 14.3181 5.97338C14.32 5.976 14.3221 5.97933 14.3267 5.98747L14.472 5.90444C14.4641 5.89059 14.447 5.85876 14.4128 5.83468C14.3772 5.80963 14.3333 5.79918 14.2814 5.79953L14.2825 5.96686ZM13.9731 5.89769C14.0185 5.92789 14.0578 5.94837 14.1099 5.95845C14.1568 5.96749 14.2112 5.96733 14.2825 5.96686L14.2814 5.79953C14.2048 5.80003 14.1688 5.79938 14.1417 5.79415C14.1199 5.78995 14.1019 5.78236 14.0659 5.75838L13.9731 5.89769ZM13.9666 5.7052C13.964 5.70702 13.9546 5.71335 13.9457 5.72187C13.937 5.73016 13.9219 5.74687 13.9151 5.77251C13.8978 5.83796 13.947 5.8803 13.9731 5.89769L14.0659 5.75838C14.0602 5.75463 14.0647 5.75624 14.07 5.76487C14.0771 5.77623 14.0823 5.79472 14.0769 5.81528C14.0724 5.83207 14.0631 5.8411 14.0614 5.84276C14.0594 5.84463 14.0581 5.84537 14.0623 5.84248L13.9666 5.7052ZM13.9658 5.84623C13.9818 5.84623 13.9922 5.8464 13.9988 5.84669C14.0086 5.84713 14.0034 5.84766 13.9944 5.84489C13.9913 5.84393 13.9848 5.84172 13.9774 5.83718C13.9701 5.83276 13.9573 5.82342 13.9481 5.80642C13.9246 5.76324 13.9481 5.72651 13.954 5.71852C13.958 5.7132 13.9617 5.70966 13.9634 5.70804C13.9654 5.70625 13.9669 5.70507 13.9674 5.70465C13.9682 5.70403 13.9687 5.70375 13.9666 5.7052L14.0623 5.84248C14.0633 5.84176 14.0666 5.83949 14.0697 5.83707C14.0716 5.83559 14.0805 5.82891 14.0883 5.81831C14.0954 5.80886 14.1192 5.77083 14.0951 5.72649C14.0777 5.69445 14.0471 5.68603 14.0438 5.68501C14.0292 5.6805 14.0135 5.67984 14.0062 5.67952C13.9957 5.67906 13.9822 5.6789 13.9658 5.6789V5.84623ZM13.5646 5.84623H13.9658V5.6789H13.5646V5.84623ZM13.6373 5.54758C13.6001 5.54758 13.5603 5.56245 13.5314 5.57625C13.5003 5.59107 13.4664 5.61212 13.441 5.6366C13.4287 5.6484 13.4133 5.66583 13.4037 5.68843C13.3932 5.71324 13.3876 5.75188 13.4118 5.78837C13.4326 5.81956 13.4646 5.83211 13.4859 5.83778C13.5092 5.84398 13.536 5.84623 13.5646 5.84623V5.6789C13.5433 5.6789 13.5326 5.67705 13.5289 5.67607C13.5232 5.67456 13.5386 5.67684 13.5512 5.69573C13.5581 5.70617 13.5618 5.71831 13.562 5.7302C13.5623 5.74125 13.5596 5.74939 13.5578 5.7536C13.5548 5.76082 13.5522 5.76183 13.557 5.75721C13.5656 5.74887 13.5829 5.73708 13.6034 5.72728C13.6132 5.72262 13.6221 5.71918 13.6293 5.71704C13.6372 5.71465 13.6396 5.71491 13.6373 5.71491V5.54758ZM13.6643 5.64532C13.6807 5.63972 13.6913 5.63733 13.6971 5.63646C13.7043 5.6354 13.7002 5.6372 13.6905 5.63449C13.6783 5.63108 13.6549 5.61896 13.6452 5.58973C13.6372 5.56565 13.6449 5.54763 13.6465 5.5441C13.65 5.53635 13.6512 5.53865 13.6434 5.54378C13.6366 5.54827 13.6338 5.54758 13.6373 5.54758V5.71491C13.6767 5.71491 13.7114 5.69945 13.7356 5.68344C13.7589 5.66807 13.7848 5.64414 13.7987 5.61348C13.8056 5.59849 13.8149 5.56984 13.804 5.5371C13.7915 5.4992 13.7607 5.48037 13.7356 5.47335C13.713 5.46702 13.6904 5.46829 13.6726 5.47093C13.6536 5.47375 13.6327 5.47928 13.6102 5.48695L13.6643 5.64532ZM13.2978 5.66267C13.4194 5.67353 13.5448 5.68608 13.6643 5.64532L13.6102 5.48695C13.5306 5.51412 13.4429 5.50763 13.3127 5.496L13.2978 5.66267ZM13.0721 5.6498C13.1532 5.6498 13.2267 5.65632 13.2978 5.66267L13.3127 5.496C13.2421 5.48969 13.1617 5.48246 13.0721 5.48246V5.6498ZM12.9298 5.39004C12.8912 5.39004 12.8443 5.39539 12.8099 5.42081C12.7898 5.43559 12.7671 5.46303 12.767 5.50272C12.7669 5.53935 12.7864 5.56538 12.8008 5.57954C12.8288 5.60709 12.8701 5.62314 12.9102 5.63296C12.9536 5.64356 13.0077 5.6498 13.0721 5.6498V5.48246C13.0179 5.48246 12.9775 5.47715 12.95 5.47042C12.9193 5.46291 12.9137 5.45586 12.9182 5.46029C12.9208 5.46291 12.9344 5.47738 12.9344 5.50318C12.9343 5.53203 12.9175 5.54936 12.9092 5.55548C12.8982 5.56357 12.8983 5.55737 12.9298 5.55737V5.39004ZM12.8603 5.48966C12.9112 5.48966 12.9447 5.49368 12.9641 5.49812C12.974 5.50039 12.9773 5.50213 12.9767 5.50178C12.9762 5.50154 12.9732 5.49999 12.9692 5.49647C12.9653 5.49305 12.9583 5.48594 12.9531 5.4743C12.9474 5.46165 12.9448 5.44598 12.9481 5.42963C12.9512 5.41413 12.9585 5.40326 12.9641 5.39694C12.9739 5.38588 12.9826 5.38355 12.9796 5.3847C12.9755 5.38622 12.9597 5.39004 12.9298 5.39004V5.55737C12.9699 5.55737 13.0078 5.55273 13.0378 5.54155C13.0518 5.53635 13.0729 5.52661 13.0896 5.50762C13.0987 5.49734 13.1082 5.48236 13.1121 5.46269C13.1163 5.44218 13.1132 5.42228 13.1056 5.4054C13.092 5.3754 13.0669 5.36005 13.0534 5.35306C13.0373 5.34478 13.0193 5.33911 13.0015 5.33503C12.9655 5.32677 12.9184 5.32233 12.8603 5.32233V5.48966ZM12.505 5.43195C12.589 5.45533 12.7111 5.48966 12.8603 5.48966V5.32233C12.7362 5.32233 12.6335 5.29404 12.55 5.27075L12.505 5.43195ZM12.4094 5.41011C12.4238 5.41011 12.4499 5.4166 12.505 5.43195L12.55 5.27075C12.5055 5.25838 12.4524 5.24278 12.4094 5.24278V5.41011ZM12.4094 5.15164C12.3658 5.15164 12.3208 5.15708 12.2864 5.17884C12.2671 5.19102 12.2474 5.2109 12.2387 5.24026C12.2299 5.2695 12.2357 5.29629 12.2445 5.3156C12.2605 5.35068 12.2912 5.37334 12.3153 5.38611C12.3416 5.40009 12.3746 5.41011 12.4094 5.41011V5.24278C12.4058 5.24278 12.3996 5.2414 12.3937 5.23829C12.391 5.23688 12.3899 5.23587 12.3901 5.236C12.3902 5.23611 12.3909 5.23682 12.3921 5.23826C12.3931 5.23967 12.3949 5.24227 12.3967 5.24616C12.4003 5.25407 12.4046 5.26948 12.399 5.28803C12.3935 5.30671 12.3816 5.31663 12.3758 5.32026C12.3708 5.32344 12.3695 5.32268 12.3762 5.32137C12.3825 5.32017 12.3931 5.31898 12.4094 5.31898V5.15164ZM12.5996 5.24302C12.6195 5.24302 12.6293 5.24418 12.6325 5.24479C12.6343 5.24514 12.6304 5.24465 12.6241 5.24156C12.6194 5.23927 12.5993 5.22885 12.5887 5.20261C12.576 5.17126 12.5869 5.14422 12.595 5.13161C12.602 5.1207 12.6096 5.11554 12.6102 5.11509C12.6124 5.11355 12.6103 5.11535 12.6002 5.11923C12.5606 5.13443 12.4795 5.15164 12.4094 5.15164V5.31898C12.4994 5.31898 12.6009 5.29822 12.6602 5.27543C12.6748 5.26982 12.6921 5.26213 12.7069 5.25168C12.7138 5.24678 12.7259 5.23732 12.7356 5.22233C12.7464 5.20564 12.7579 5.17474 12.7438 5.13984C12.7318 5.11004 12.7081 5.09635 12.6975 5.09117C12.6852 5.08518 12.673 5.08218 12.664 5.08045C12.6455 5.0769 12.6235 5.07569 12.5996 5.07569V5.24302ZM12.1704 5.15708C12.2418 5.1763 12.3207 5.19757 12.3944 5.21398C12.4667 5.23009 12.5403 5.24302 12.5996 5.24302V5.07569C12.5599 5.07569 12.5016 5.06641 12.4308 5.05065C12.3614 5.03518 12.286 5.01492 12.2139 4.9955L12.1704 5.15708ZM11.9386 5.10386C11.9502 5.10386 11.977 5.10803 12.0218 5.11854C12.0641 5.12847 12.1147 5.14209 12.1704 5.15708L12.2139 4.9955C12.159 4.98073 12.1055 4.96631 12.06 4.95563C12.017 4.94554 11.9723 4.93653 11.9386 4.93653V5.10386ZM12.0155 4.91497C11.9804 4.92134 11.9465 4.92744 11.9261 4.93201C11.921 4.93317 11.9152 4.93455 11.9099 4.9361C11.9073 4.93685 11.9035 4.93803 11.8994 4.93967C11.8978 4.94028 11.8859 4.94467 11.8743 4.95446C11.8694 4.95861 11.8518 4.97402 11.846 5.00185C11.8383 5.03864 11.8562 5.0671 11.872 5.08135C11.8847 5.0928 11.8976 5.09735 11.9019 5.09878C11.9077 5.10073 11.9126 5.1017 11.9154 5.10218C11.9249 5.10384 11.9343 5.10386 11.9386 5.10386V4.93653C11.9343 4.93653 11.9378 4.93625 11.944 4.93731C11.9459 4.93765 11.9501 4.93846 11.9554 4.94022C11.9591 4.94147 11.9716 4.94583 11.9841 4.95705C11.9996 4.97109 12.0174 4.99932 12.0098 5.03586C12.0041 5.06344 11.9867 5.07859 11.9821 5.08246C11.9755 5.088 11.9696 5.09116 11.9672 5.0924C11.9642 5.09392 11.9619 5.09489 11.9607 5.09537C11.9593 5.0959 11.9583 5.09625 11.9578 5.09642C11.9572 5.0966 11.9569 5.09669 11.9569 5.0967C11.9568 5.09672 11.9573 5.09659 11.9584 5.09631C11.9595 5.09604 11.9609 5.0957 11.9627 5.09529C11.9788 5.09168 12.0082 5.08634 12.0453 5.07963L12.0155 4.91497ZM12.1151 5.01583C12.1487 5.01583 12.1737 5.01643 12.1917 5.01743C12.2112 5.01851 12.218 5.01987 12.2178 5.01982C12.2173 5.01969 12.2149 5.01909 12.2114 5.01767C12.2085 5.01648 12.2011 5.01321 12.1929 5.00637C12.1846 4.99946 12.1704 4.98458 12.1656 4.96026C12.1604 4.93457 12.1686 4.91351 12.1764 4.90114C12.1835 4.88996 12.1915 4.88356 12.1948 4.88108C12.1987 4.87817 12.2018 4.87653 12.2029 4.87596C12.205 4.87483 12.2054 4.87489 12.2025 4.8759C12.1898 4.88031 12.1632 4.88667 12.1265 4.89411C12.0913 4.90124 12.0517 4.90842 12.0155 4.91497L12.0453 5.07963C12.1131 5.06736 12.2119 5.04975 12.2573 5.03399C12.2638 5.03175 12.2719 5.02865 12.2799 5.0245C12.284 5.02237 12.3041 5.0124 12.3178 4.99064C12.3265 4.9769 12.335 4.95451 12.3297 4.92752C12.3245 4.9019 12.3096 4.88577 12.2998 4.87765C12.2829 4.86362 12.2643 4.85896 12.2585 4.85752C12.2303 4.85044 12.1811 4.84849 12.1151 4.84849V5.01583ZM11.2551 4.66064C11.3609 4.73003 11.4953 4.81838 11.6412 4.88903C11.7865 4.95944 11.9501 5.01583 12.1151 5.01583V4.84849C11.9863 4.84849 11.8492 4.80389 11.7141 4.73844C11.5795 4.67323 11.4538 4.59085 11.3469 4.52074L11.2551 4.66064ZM11.0664 4.54744C11.1035 4.56171 11.1646 4.60124 11.2551 4.66064L11.3469 4.52074C11.2649 4.46687 11.1848 4.41372 11.1266 4.3913L11.0664 4.54744ZM11.2058 4.2761C11.1633 4.22948 11.1047 4.233 11.071 4.24235C11.0349 4.25236 11 4.27477 10.9756 4.30494C10.9509 4.33543 10.929 4.38542 10.9488 4.4416C10.9675 4.49498 11.0151 4.52767 11.0664 4.54744L11.1266 4.3913C11.0955 4.37931 11.1019 4.3725 11.1067 4.38612C11.1091 4.39313 11.1089 4.40014 11.1076 4.40519C11.1065 4.40955 11.105 4.41106 11.1057 4.41022C11.1063 4.40946 11.1079 4.40787 11.1104 4.40624C11.1129 4.40459 11.115 4.40381 11.1158 4.40359C11.1169 4.40328 11.114 4.40435 11.1081 4.40337C11.1012 4.40226 11.0909 4.39838 11.0822 4.38886L11.2058 4.2761ZM11.3435 4.47013C11.3627 4.47944 11.3616 4.4808 11.3554 4.47487C11.3533 4.47285 11.3464 4.46613 11.3407 4.45478C11.3347 4.44273 11.3265 4.41758 11.338 4.3885C11.349 4.3611 11.3702 4.34905 11.3795 4.34482C11.3893 4.34036 11.3973 4.33921 11.3999 4.33887C11.4077 4.33787 11.4086 4.33925 11.3948 4.33696C11.3844 4.33525 11.3705 4.33229 11.3542 4.3282C11.3214 4.32 11.2832 4.30828 11.2513 4.29595C11.2353 4.28977 11.2222 4.28396 11.2127 4.27895C11.2012 4.27288 11.2016 4.27142 11.2058 4.2761L11.0822 4.38886C11.0983 4.40656 11.1195 4.41899 11.1347 4.427C11.1519 4.43607 11.1715 4.4445 11.1911 4.45206C11.2303 4.46722 11.2752 4.48091 11.3135 4.49052C11.3327 4.49532 11.3513 4.49937 11.3675 4.50205C11.3802 4.50416 11.4017 4.50734 11.4212 4.50485C11.4267 4.50414 11.4371 4.50241 11.4487 4.49715C11.4598 4.49213 11.4821 4.47906 11.4935 4.45042C11.5056 4.42011 11.4972 4.39348 11.4903 4.37973C11.4837 4.36668 11.4753 4.35801 11.4709 4.3538C11.4555 4.33909 11.4333 4.32769 11.4165 4.31955L11.3435 4.47013ZM11.0292 4.1917C11.0778 4.2574 11.1799 4.39084 11.3435 4.47013L11.4165 4.31955C11.2921 4.25926 11.2103 4.15518 11.1638 4.09228L11.0292 4.1917ZM11.1988 4.02067C11.1775 4.0022 11.1508 3.98573 11.12 3.98022C11.0872 3.97435 11.0449 3.98134 11.0159 4.0168C10.9894 4.04904 10.9885 4.08747 10.9935 4.11415C10.9987 4.14209 11.012 4.16841 11.0292 4.1917L11.1638 4.09228C11.1573 4.08342 11.1573 4.08008 11.1579 4.08319C11.1583 4.08503 11.1612 4.10347 11.1453 4.1229C11.1267 4.14554 11.1016 4.14691 11.0905 4.14494C11.0815 4.14332 11.0813 4.14029 11.0892 4.14713L11.1988 4.02067ZM11.472 4.28041C11.5118 4.20683 11.5118 4.20683 11.5118 4.20683C11.5118 4.20683 11.5118 4.20683 11.5118 4.20682C11.5118 4.20682 11.5118 4.20682 11.5118 4.20681C11.5118 4.20679 11.5117 4.20677 11.5117 4.20674C11.5115 4.20667 11.5114 4.20657 11.5111 4.20644C11.5106 4.20618 11.5099 4.20578 11.5089 4.20525C11.507 4.20419 11.5041 4.20263 11.5004 4.20061C11.493 4.19658 11.4824 4.19075 11.4694 4.18359C11.4435 4.16926 11.4084 4.14966 11.3715 4.12854C11.3346 4.10736 11.2963 4.08493 11.2641 4.06488C11.23 4.04375 11.2077 4.02836 11.1988 4.02067L11.0892 4.14713C11.1096 4.16474 11.1428 4.18657 11.1758 4.20703C11.2105 4.22857 11.2506 4.2521 11.2883 4.27373C11.3262 4.29541 11.3621 4.31545 11.3885 4.33005C11.4017 4.33736 11.4126 4.34332 11.4202 4.34747C11.424 4.34954 11.427 4.35116 11.429 4.35227C11.43 4.35282 11.4308 4.35325 11.4313 4.35354C11.4316 4.35368 11.4318 4.35379 11.432 4.35387C11.432 4.35391 11.4321 4.35393 11.4321 4.35396C11.4321 4.35397 11.4322 4.35397 11.4322 4.35398C11.4322 4.35398 11.4322 4.35398 11.4322 4.35399C11.4322 4.35399 11.4322 4.35399 11.472 4.28041ZM11.1393 3.96418C11.1998 4.07873 11.2679 4.17218 11.3208 4.23699C11.3473 4.26948 11.3701 4.29498 11.3866 4.31255C11.3948 4.32134 11.4014 4.32817 11.4061 4.33291C11.4085 4.33528 11.4103 4.33713 11.4117 4.33844C11.4124 4.3391 11.4129 4.33963 11.4133 4.34001C11.4135 4.34021 11.4137 4.34037 11.4138 4.3405C11.4139 4.34056 11.4139 4.34061 11.414 4.34066C11.414 4.34068 11.414 4.3407 11.414 4.34072C11.414 4.34073 11.414 4.34075 11.4141 4.34075C11.4141 4.34076 11.4141 4.34077 11.472 4.28041C11.5299 4.22004 11.53 4.22005 11.53 4.22006C11.53 4.22007 11.53 4.22008 11.53 4.22008C11.53 4.22009 11.53 4.2201 11.53 4.22011C11.53 4.22012 11.53 4.22012 11.53 4.22012C11.53 4.22011 11.53 4.22007 11.5299 4.21999C11.5297 4.21985 11.5295 4.21957 11.529 4.21916C11.5282 4.21834 11.5269 4.217 11.525 4.21517C11.5214 4.21149 11.5159 4.2058 11.5088 4.19823C11.4946 4.18308 11.4743 4.16042 11.4504 4.13119C11.4026 4.07257 11.3413 3.98838 11.2873 3.88606L11.1393 3.96418ZM11.5777 3.86093C11.5244 3.81638 11.4683 3.77886 11.4152 3.75122C11.3636 3.7243 11.3092 3.7038 11.2603 3.69901C11.2358 3.69661 11.2063 3.6975 11.1779 3.70912C11.1466 3.7219 11.1203 3.74643 11.1074 3.78174C11.0956 3.81385 11.0978 3.84677 11.1041 3.87466C11.1106 3.90316 11.1229 3.93316 11.1393 3.96418L11.2873 3.88606C11.275 3.86286 11.2694 3.84707 11.2673 3.8376C11.265 3.8275 11.2678 3.83025 11.2645 3.83938C11.26 3.85171 11.2499 3.86044 11.2412 3.864C11.2353 3.8664 11.2347 3.86464 11.244 3.86554C11.2625 3.86736 11.295 3.87726 11.3379 3.89961C11.3794 3.92123 11.4255 3.95183 11.4704 3.98931L11.5777 3.86093ZM12.0051 4.05875C11.9268 4.05076 11.7593 4.0127 11.5777 3.86093L11.4704 3.98931C11.6813 4.16563 11.8817 4.21437 11.9882 4.22522L12.0051 4.05875ZM11.6858 3.99827C11.7731 4.0467 11.8599 4.10111 11.9124 4.14081C11.9253 4.15062 11.9351 4.1587 11.9418 4.1649C11.9498 4.17237 11.9491 4.17312 11.9461 4.16814C11.9449 4.16595 11.9384 4.15481 11.9377 4.13754C11.9367 4.11522 11.9459 4.09081 11.9663 4.07433C11.9821 4.06153 11.9975 4.05952 12.0008 4.05912C12.0055 4.05856 12.0075 4.059 12.0051 4.05875L11.9882 4.22522C11.9973 4.22616 12.0087 4.22671 12.0207 4.22526C12.0314 4.22398 12.0521 4.2201 12.0714 4.20452C12.0953 4.18526 12.106 4.15716 12.1048 4.13032C12.1039 4.10854 12.0955 4.09206 12.0907 4.08378C12.0806 4.06662 12.0663 4.05221 12.0555 4.04218C12.0433 4.03087 12.0288 4.01912 12.0134 4.0074C11.9521 3.96099 11.8576 3.90225 11.767 3.85197L11.6858 3.99827ZM11.7864 3.55575C11.7634 3.53221 11.7351 3.51096 11.7009 3.502C11.663 3.49207 11.6249 3.49927 11.5941 3.52171C11.5664 3.54192 11.5504 3.57015 11.541 3.59459C11.5313 3.61986 11.5263 3.64747 11.5247 3.67462C11.5185 3.77577 11.5582 3.92744 11.6858 3.99827L11.767 3.85197C11.7168 3.82409 11.6878 3.74972 11.6917 3.68477C11.6926 3.6704 11.6951 3.66023 11.6973 3.65439C11.6998 3.64774 11.7001 3.65154 11.6927 3.65691C11.6823 3.66453 11.6685 3.66649 11.6585 3.66386C11.6521 3.6622 11.6551 3.66077 11.6665 3.67251L11.7864 3.55575ZM12.5 3.88692C12.334 3.81834 12.1679 3.74975 12.0344 3.68921C11.9676 3.65893 11.9103 3.63125 11.8659 3.60707C11.8188 3.58143 11.7945 3.56408 11.7864 3.55575L11.6665 3.67251C11.6941 3.70088 11.739 3.72854 11.7859 3.75405C11.8355 3.78103 11.897 3.81063 11.9653 3.84161C12.1019 3.90357 12.2709 3.97334 12.4362 4.04159L12.5 3.88692ZM13.2049 4.21688C13.1777 4.19362 13.1371 4.16977 13.0929 4.14662C13.047 4.12258 12.9911 4.09618 12.929 4.06839C12.805 4.01281 12.6525 3.94986 12.5 3.88692L12.4362 4.04159C12.5893 4.10482 12.7393 4.16675 12.8606 4.2211C12.9213 4.24827 12.9737 4.2731 13.0153 4.29486C13.0585 4.3175 13.0844 4.334 13.096 4.34394L13.2049 4.21688ZM12.989 4.083C13.0489 4.17817 13.1016 4.26215 13.1238 4.30834C13.1295 4.32014 13.1304 4.32406 13.1301 4.32264C13.1299 4.32184 13.1294 4.31966 13.1291 4.31644C13.1288 4.31341 13.1285 4.30763 13.1296 4.3002C13.1321 4.28395 13.1435 4.25357 13.1779 4.23963C13.2041 4.229 13.2255 4.23633 13.2283 4.23726C13.2338 4.23909 13.236 4.24078 13.2337 4.2394C13.2297 4.23688 13.2206 4.23033 13.2049 4.21688L13.096 4.34394C13.1138 4.35922 13.1307 4.37245 13.1459 4.38184C13.1533 4.38641 13.1636 4.39208 13.1755 4.39605C13.1847 4.39912 13.211 4.40676 13.2407 4.39473C13.2786 4.37939 13.292 4.34591 13.2951 4.32498C13.2978 4.30696 13.2947 4.29156 13.2929 4.28392C13.2889 4.26712 13.2814 4.2499 13.2746 4.23587C13.2472 4.17873 13.1875 4.08425 13.1306 3.99383L12.989 4.083ZM12.9177 3.96897C12.9406 4.00622 12.9651 4.04513 12.989 4.083L13.1306 3.99383C13.1066 3.95581 13.0826 3.91765 13.0602 3.88127L12.9177 3.96897ZM13.6129 4.02924C13.4371 3.94847 13.2665 3.87 13.1496 3.82805C13.12 3.81744 13.0923 3.80856 13.0677 3.8025C13.0448 3.79688 13.0177 3.79185 12.9922 3.79372C12.9793 3.79467 12.96 3.79781 12.941 3.80927C12.9192 3.82237 12.9022 3.84387 12.8959 3.87129C12.8903 3.89539 12.8948 3.91662 12.8993 3.93037C12.9039 3.94473 12.9108 3.9578 12.9177 3.96897L13.0602 3.88127C13.0574 3.87668 13.0576 3.8761 13.0585 3.87878C13.0591 3.88086 13.0627 3.8924 13.059 3.90867C13.0545 3.92825 13.042 3.94379 13.0272 3.95265C13.0152 3.95988 13.0055 3.96053 13.0045 3.9606C13.0029 3.96072 13.0091 3.9604 13.0277 3.96498C13.0445 3.96913 13.0663 3.97594 13.0931 3.98555C13.2014 4.02445 13.3641 4.09909 13.5431 4.1813L13.6129 4.02924ZM14.3031 4.31389C14.1414 4.27162 13.872 4.14823 13.6129 4.02924L13.5431 4.1813C13.7951 4.29704 14.0812 4.42884 14.2608 4.47579L14.3031 4.31389ZM14.7078 4.44497C14.5686 4.39617 14.4247 4.34567 14.3031 4.31389L14.2608 4.47579C14.3744 4.50547 14.5112 4.55337 14.6525 4.60289L14.7078 4.44497ZM15.288 4.609C15.288 4.6126 15.2874 4.60692 15.2933 4.60022C15.2982 4.59464 15.3012 4.59578 15.2931 4.59767C15.2739 4.60218 15.2351 4.60141 15.172 4.58888C15.0495 4.56453 14.8831 4.50641 14.7078 4.44497L14.6525 4.60289C14.8233 4.66275 15.0026 4.72581 15.1394 4.753C15.2059 4.76623 15.275 4.77381 15.3314 4.76057C15.3611 4.75359 15.3938 4.73932 15.419 4.71073C15.4451 4.68102 15.4553 4.64472 15.4553 4.609H15.288ZM16.0004 3.84602C15.8157 3.90967 15.6406 4.03391 15.5115 4.17058C15.4467 4.23921 15.3918 4.31274 15.3527 4.38585C15.314 4.45804 15.288 4.535 15.288 4.609H15.4553C15.4553 4.57247 15.4689 4.52331 15.5002 4.46483C15.531 4.40725 15.5764 4.34557 15.6332 4.28548C15.7472 4.1647 15.9002 4.05753 16.0549 4.00422L16.0004 3.84602ZM16.5184 3.93269C16.4567 3.89187 16.388 3.84557 16.3042 3.8234C16.2166 3.80022 16.1202 3.80473 16.0004 3.84602L16.0549 4.00422C16.1505 3.97128 16.2125 3.97223 16.2614 3.98516C16.3141 3.99911 16.3601 4.0286 16.4261 4.07225L16.5184 3.93269ZM16.7704 4.06208C16.6652 4.02944 16.5917 3.98116 16.5184 3.93269L16.4261 4.07225C16.4998 4.12104 16.5907 4.18154 16.7209 4.2219L16.7704 4.06208ZM16.4361 6.06472C16.3525 6.06733 16.3525 6.06732 16.3525 6.06733C16.3525 6.06733 16.3525 6.06733 16.3525 6.06734C16.3525 6.06735 16.3525 6.06738 16.3525 6.06741C16.3525 6.06748 16.3525 6.06759 16.3525 6.06774C16.3525 6.06804 16.3525 6.06849 16.3525 6.0691C16.3525 6.07032 16.3526 6.07215 16.3527 6.07455C16.3528 6.07936 16.353 6.08645 16.3532 6.09551C16.3536 6.11362 16.3541 6.13955 16.3545 6.17068C16.3553 6.23306 16.3555 6.31587 16.3533 6.39839C16.3512 6.48161 16.3467 6.56172 16.3386 6.61984C16.3344 6.64967 16.3299 6.6688 16.3263 6.67862C16.3244 6.6839 16.3246 6.68113 16.3291 6.67562C16.334 6.66969 16.351 6.65271 16.3804 6.65271V6.82004C16.4194 6.82004 16.4453 6.79781 16.4582 6.78205C16.4709 6.76669 16.4785 6.7495 16.4833 6.73641C16.4932 6.7095 16.4997 6.67616 16.5043 6.64302C16.5138 6.5752 16.5184 6.48739 16.5206 6.40271C16.5228 6.31731 16.5226 6.2322 16.5218 6.16864C16.5214 6.13681 16.5209 6.11027 16.5205 6.09165C16.5203 6.08234 16.5201 6.075 16.5199 6.06997C16.5199 6.06745 16.5198 6.06551 16.5198 6.06419C16.5198 6.06353 16.5197 6.06302 16.5197 6.06267C16.5197 6.0625 16.5197 6.06236 16.5197 6.06227C16.5197 6.06222 16.5197 6.06218 16.5197 6.06216C16.5197 6.06214 16.5197 6.06213 16.5197 6.06212C16.5197 6.06211 16.5197 6.06211 16.4361 6.06472ZM16.7459 6.65482C16.7459 6.59617 16.7281 6.5264 16.7063 6.46099C16.6838 6.39357 16.6543 6.32252 16.6254 6.25851C16.5964 6.19428 16.5675 6.13595 16.5459 6.09372C16.5351 6.07257 16.526 6.05539 16.5196 6.04343C16.5165 6.03745 16.5139 6.03278 16.5122 6.02956C16.5113 6.02795 16.5107 6.02671 16.5102 6.02585C16.51 6.02542 16.5098 6.02509 16.5096 6.02485C16.5096 6.02474 16.5095 6.02464 16.5095 6.02458C16.5095 6.02454 16.5095 6.02452 16.5094 6.02449C16.5094 6.02448 16.5094 6.02447 16.5094 6.02447C16.5094 6.02446 16.5094 6.02445 16.4361 6.06472C16.3627 6.10499 16.3627 6.10498 16.3627 6.10498C16.3627 6.10498 16.3627 6.10498 16.3627 6.10498C16.3627 6.10498 16.3627 6.10499 16.3628 6.10501C16.3628 6.10504 16.3628 6.1051 16.3628 6.10518C16.3629 6.10534 16.3631 6.1056 16.3633 6.10596C16.3637 6.10667 16.3643 6.10776 16.365 6.10921C16.3666 6.11212 16.369 6.11646 16.372 6.12209C16.378 6.13336 16.3866 6.14974 16.3969 6.17C16.4177 6.21057 16.4454 6.26633 16.4729 6.32736C16.5005 6.38859 16.5276 6.45392 16.5475 6.51386C16.5681 6.5758 16.5786 6.62435 16.5786 6.65482H16.7459ZM16.7409 6.77609C16.7406 6.77309 16.7408 6.77023 16.7425 6.74707C16.7441 6.72653 16.7459 6.69803 16.7459 6.65482H16.5786C16.5786 6.69271 16.577 6.71684 16.5757 6.73451C16.5745 6.74957 16.5724 6.77049 16.5742 6.79089L16.7409 6.77609ZM16.8064 6.92633C16.778 6.86308 16.7617 6.82857 16.751 6.80366C16.7459 6.79177 16.7434 6.78501 16.742 6.78069C16.7409 6.77712 16.7409 6.77615 16.7409 6.77609L16.5742 6.79089C16.5767 6.81904 16.5858 6.84315 16.5973 6.86979C16.6085 6.89588 16.6273 6.93591 16.6537 6.99486L16.8064 6.92633ZM16.6195 7.11331C16.6433 7.12198 16.6685 7.13125 16.6897 7.1369C16.7004 7.13977 16.7137 7.14272 16.7276 7.14363C16.7406 7.14447 16.7629 7.14421 16.7858 7.13253C16.8129 7.11871 16.8295 7.09482 16.8362 7.0695C16.8418 7.04803 16.8397 7.02816 16.8373 7.01498C16.8326 6.98845 16.8206 6.95795 16.8064 6.92633L16.6537 6.99486C16.6602 7.00922 16.6648 7.02053 16.668 7.02934C16.6713 7.03846 16.6724 7.0431 16.6726 7.04452C16.673 7.04697 16.6711 7.03933 16.6743 7.02713C16.6761 7.02026 16.6796 7.01162 16.6862 7.00304C16.693 6.99429 16.7013 6.9878 16.7098 6.98347C16.7253 6.97557 16.7377 6.97659 16.7385 6.97664C16.7402 6.97676 16.7389 6.97685 16.7329 6.97524C16.7205 6.97193 16.7033 6.96575 16.6767 6.95608L16.6195 7.11331ZM16.2959 7.04426C16.4285 7.04426 16.5386 7.08385 16.6195 7.11331L16.6767 6.95608C16.5955 6.92648 16.4607 6.87693 16.2959 6.87693V7.04426ZM16.3804 6.65271C16.3549 6.65271 16.3294 6.66092 16.3112 6.66787C16.2906 6.67575 16.2686 6.68638 16.2472 6.69839C16.2051 6.7219 16.158 6.75472 16.1237 6.79086C16.1069 6.80854 16.0885 6.83183 16.0778 6.85954C16.0664 6.88916 16.0616 6.93146 16.0875 6.97123C16.1106 7.00668 16.1477 7.02322 16.1786 7.03167C16.2111 7.04055 16.2505 7.04426 16.2959 7.04426V6.87693C16.2579 6.87693 16.2351 6.87363 16.2227 6.87025C16.2087 6.86643 16.2183 6.86546 16.2277 6.87989C16.2399 6.89863 16.2352 6.91641 16.2339 6.91976C16.2334 6.92119 16.2352 6.91645 16.245 6.90611C16.2639 6.88619 16.2957 6.86296 16.3289 6.84442C16.345 6.83541 16.3596 6.82853 16.371 6.82415C16.3849 6.81884 16.3868 6.82004 16.3804 6.82004V6.65271Z" fill="#272727"/>
</g>
</g>
<defs>
<clipPath id="clip0_58_116">
<rect width="21.4187" height="16.064" fill="white" transform="translate(0.0249023 0.935913)"/>
</clipPath>
</defs>
</svg>
