<svg width="23" height="17" viewBox="0 0 23 17" fill="none" xmlns="http://www.w3.org/2000/svg">
<g clip-path="url(#clip0_58_98)">
<rect width="21.4187" height="16.064" transform="translate(0.862061 0.935913)" fill="white"/>
<path fill-rule="evenodd" clip-rule="evenodd" d="M1.15271 0.903931V16.968H22.5714V0.903931H1.15271Z" fill="#F7FCFF"/>
<mask id="mask0_58_98" style="mask-type:luminance" maskUnits="userSpaceOnUse" x="1" y="0" width="22" height="17">
<path fill-rule="evenodd" clip-rule="evenodd" d="M1.15271 0.903931V16.968H22.5714V0.903931H1.15271Z" fill="white"/>
</mask>
<g mask="url(#mask0_58_98)">
<path fill-rule="evenodd" clip-rule="evenodd" d="M1.15271 2.24255V15.6293H22.5714V2.24255H1.15271Z" fill="#FECA00"/>
<path d="M1.15271 6.42595H-0.0186265V7.59729V10.2746V11.446H1.15271H22.5714H23.7428V10.2746V7.59729V6.42595H22.5714H1.15271Z" fill="#272727" stroke="#E31D1C" stroke-width="2.34267"/>
<path fill-rule="evenodd" clip-rule="evenodd" d="M1.15273 3.58127V0.903931H22.5715V3.58127H1.15273ZM1.15271 16.9679V14.2906H22.5714V16.9679H1.15271Z" fill="#5EAA22"/>
</g>
<path d="M1.55228 0.366943L0.483375 -0.428416V0.903931V16.968V18.2805L1.54576 17.5097L12.4769 9.57944L13.2142 9.04449L12.4834 8.50067L1.55228 0.366943Z" fill="#F7FCFF" stroke="#272727" stroke-width="1.33867"/>
<mask id="mask1_58_98" style="mask-type:luminance" maskUnits="userSpaceOnUse" x="-1" y="-2" width="16" height="22">
<path d="M1.55228 0.366943L0.483375 -0.428416V0.903931V16.968V18.2805L1.54576 17.5097L12.4769 9.57944L13.2142 9.04449L12.4834 8.50067L1.55228 0.366943Z" fill="white" stroke="white" stroke-width="1.33867"/>
</mask>
<g mask="url(#mask1_58_98)">
<path fill-rule="evenodd" clip-rule="evenodd" d="M6.15838 10.461L3.62901 12.5027L4.78921 9.77411L2.79565 7.85431H5.14877L6.11435 5.53918L7.13989 7.85431H9.489L7.39014 9.77411L8.44056 12.5027L6.15838 10.461Z" fill="#E31D1C"/>
<path fill-rule="evenodd" clip-rule="evenodd" d="M4.5113 6.54079C4.5113 6.54079 4.47458 6.45227 4.69133 6.374C4.90807 6.29573 4.97419 6.12987 5.1441 6.25194C5.314 6.374 5.4203 6.12859 5.46905 6.48057C5.5178 6.83255 5.65217 7.38758 5.65217 7.38758L7.85266 9.04128H7.43922C7.43922 9.04128 6.79542 9.98717 6.90172 10.8171C6.90172 10.8171 6.45752 10.7495 5.85544 10.7495C5.25337 10.7495 4.85903 10.8938 4.85903 10.8938L4.5113 9.60625C4.5113 9.60625 4.63721 9.38994 4.69133 9.21561C4.74545 9.04128 4.96955 9.00909 4.96955 8.87041C4.96955 8.73173 4.7485 8.61547 4.85903 8.25648C4.96955 7.8975 4.96955 6.82362 4.96955 6.82362C4.96955 6.82362 4.62024 6.67001 4.69133 6.67001C4.76241 6.67001 4.92444 6.54079 4.80789 6.54079C4.69133 6.54079 4.5113 6.54079 4.5113 6.54079Z" fill="#FECA00"/>
<path d="M5.65217 7.38758L5.57085 7.40726L5.57791 7.43643L5.6019 7.45446L7.60206 8.95761H7.43922H7.39496L7.37005 8.9942L7.43922 9.04128L7.37002 8.99424L7.36998 8.99431L7.36985 8.99451L7.36941 8.99516L7.36785 8.99748L7.36211 9.00613C7.35717 9.01365 7.35004 9.02462 7.34107 9.0388C7.32313 9.06714 7.2978 9.1083 7.26783 9.1602C7.20794 9.26392 7.12924 9.41098 7.05386 9.58466C6.91639 9.90139 6.78578 10.3161 6.80887 10.7206C6.75883 10.7146 6.69225 10.7073 6.61191 10.7C6.42367 10.6829 6.15952 10.6659 5.85544 10.6659C5.54779 10.6659 5.29293 10.7027 5.11446 10.7398C5.03144 10.757 4.96487 10.7743 4.91709 10.788L4.60099 9.61746L4.60513 9.61004C4.61816 9.58636 4.63607 9.55297 4.65573 9.51396C4.6946 9.43684 4.74209 9.33427 4.77123 9.24042C4.78903 9.18307 4.83457 9.14644 4.90099 9.09653L4.90307 9.09497C4.93245 9.07291 4.96881 9.0456 4.99694 9.0131C5.02786 8.97739 5.05322 8.93069 5.05322 8.87041C5.05322 8.81407 5.03076 8.76538 5.01074 8.72743C5.00238 8.71158 4.99454 8.69764 4.98699 8.68424C4.97381 8.66082 4.96154 8.63902 4.94902 8.61147C4.91514 8.53686 4.89034 8.43911 4.93899 8.2811C4.9692 8.18297 4.99054 8.04156 5.00615 7.88971C5.02193 7.73631 5.03238 7.56664 5.03932 7.40912C5.04627 7.25145 5.04975 7.10519 5.05148 6.99838C5.05235 6.94496 5.05278 6.90135 5.053 6.87106L5.05319 6.83605L5.05322 6.82685L5.05322 6.82447L5.05322 6.82385V6.82369L5.05322 6.82364L4.96955 6.82362H5.05322V6.76901L5.00323 6.74703L5.00323 6.74703L5.00323 6.74703L5.00319 6.74701L5.00302 6.74694L5.00232 6.74663L4.99952 6.74539L4.98878 6.74061L4.95075 6.72347C4.92476 6.71164 4.89232 6.69665 4.86017 6.68118C4.866 6.67647 4.87159 6.67164 4.87687 6.66674C4.88855 6.65591 4.90071 6.64288 4.91057 6.62812C4.91918 6.61521 4.93274 6.59114 4.93251 6.56036C4.93221 6.52062 4.90954 6.4891 4.87881 6.47262C4.85425 6.45944 4.82766 6.45713 4.80789 6.45713H4.8072H4.80652H4.80583H4.80514H4.80445H4.80376H4.80307H4.80238H4.80168H4.80099H4.80029H4.79959H4.79889H4.79819H4.79748H4.79678H4.79607H4.79537H4.79466H4.79395H4.79324H4.79253H4.79182H4.7911H4.79039H4.78967H4.78895H4.78823H4.78751H4.78679H4.78607H4.78535H4.78462H4.7839H4.78317H4.78244H4.78171H4.78098H4.78025H4.77952H4.77879H4.77805H4.77732H4.77658H4.77585H4.77511H4.77437H4.77363H4.77289H4.77215H4.77141H4.77066H4.76992H4.76917H4.76843H4.76768H4.76693H4.76618H4.76544H4.76469H4.76393H4.76318H4.76243H4.76168H4.76092H4.76017H4.75941H4.75866H4.7579H4.75714H4.75638H4.75562H4.75486H4.7541H4.75334H4.75258H4.75182H4.75106H4.75029H4.74953H4.74876H4.748H4.74723H4.74647H4.7457H4.74493H4.74417H4.7434H4.74263H4.74186H4.74109H4.74032H4.73955H4.73878H4.738H4.73723H4.73646H4.73569H4.73491H4.73414H4.73337H4.73259H4.73182H4.73104H4.73027H4.72949H4.72872H4.72794H4.72716H4.72639H4.72561H4.72483H4.72405H4.72328H4.7225H4.72172H4.72094H4.72016H4.71939H4.71861H4.71783H4.71705H4.71627H4.71549H4.71471H4.71393H4.71315H4.71237H4.71159H4.71081H4.71003H4.70925H4.70847H4.70779C4.71165 6.45565 4.71563 6.45418 4.71974 6.45269C4.78165 6.43033 4.83203 6.40196 4.87405 6.37564C4.8928 6.36389 4.90811 6.35379 4.92173 6.34481C4.94155 6.33174 4.9578 6.32103 4.97587 6.311C5.00275 6.29609 5.01867 6.29202 5.03117 6.29217C5.04266 6.2923 5.06226 6.29617 5.09528 6.31989C5.19446 6.39114 5.29812 6.37313 5.33977 6.3659C5.34621 6.36478 5.35116 6.36392 5.35439 6.36369C5.36223 6.37712 5.37505 6.41174 5.38617 6.49205C5.41101 6.67138 5.45737 6.90073 5.49713 7.08382C5.51707 7.17567 5.53548 7.25645 5.54891 7.31428L5.5649 7.38238L5.56929 7.40078L5.57044 7.40558L5.57074 7.40682L5.57082 7.40714L5.57084 7.40723L5.57084 7.40725L5.65217 7.38758Z" stroke="#0A0A0A" stroke-width="0.167334"/>
</g>
</g>
<defs>
<clipPath id="clip0_58_98">
<rect width="21.4187" height="16.064" fill="white" transform="translate(0.862061 0.935913)"/>
</clipPath>
</defs>
</svg>
